<?xml version="1.0" encoding="utf-8" standalone="no"?>
<!DOCTYPE svg PUBLIC "-//W3C//DTD SVG 1.1//EN"
  "http://www.w3.org/Graphics/SVG/1.1/DTD/svg11.dtd">
<svg xmlns:xlink="http://www.w3.org/1999/xlink" width="922.29625pt" height="386.377656pt" viewBox="0 0 922.29625 386.377656" xmlns="http://www.w3.org/2000/svg" version="1.1">
 <metadata>
  <rdf:RDF xmlns:dc="http://purl.org/dc/elements/1.1/" xmlns:cc="http://creativecommons.org/ns#" xmlns:rdf="http://www.w3.org/1999/02/22-rdf-syntax-ns#">
   <cc:Work>
    <dc:type rdf:resource="http://purl.org/dc/dcmitype/StillImage"/>
    <dc:date>2026-01-30T14:53:35.527889</dc:date>
    <dc:format>image/svg+xml</dc:format>
    <dc:creator>
     <cc:Agent>
      <dc:title>Matplotlib v3.10.1, https://matplotlib.org/</dc:title>
     </cc:Agent>
    </dc:creator>
   </cc:Work>
  </rdf:RDF>
 </metadata>
 <defs>
  <style type="text/css">*{stroke-linejoin: round; stroke-linecap: butt}</style>
 </defs>
 <g id="figure_1">
  <g id="patch_1">
   <path d="M 0 386.377656 
L 922.29625 386.377656 
L 922.29625 0 
L 0 0 
z
" style="fill: #ffffff"/>
  </g>
  <g id="axes_1">
   <g id="patch_2">
    <path d="M 54.815 349.417969 
L 441.569058 349.417969 
L 441.569058 23.077969 
L 54.815 23.077969 
z
" style="fill: #ffffff"/>
   </g>
   <g id="matplotlib.axis_1">
    <g id="xtick_1">
     <g id="line2d_1">
      <path d="M 54.815 349.417969 
L 54.815 23.077969 
" clip-path="url(#p2368eb3370)" style="fill: none; stroke: #cccccc; stroke-width: 0.8; stroke-linecap: round"/>
     </g>
     <g id="line2d_2"/>
     <g id="text_1">
      <!-- 0 -->
      <g style="fill: #262626" transform="translate(51.315625 361.27625) scale(0.11 -0.11)">
       <defs>
        <path id="DejaVuSerif-30" d="M 2034 219 
Q 2513 219 2750 744 
Q 2988 1269 2988 2328 
Q 2988 3391 2750 3916 
Q 2513 4441 2034 4441 
Q 1556 4441 1318 3916 
Q 1081 3391 1081 2328 
Q 1081 1269 1318 744 
Q 1556 219 2034 219 
z
M 2034 -91 
Q 1275 -91 848 546 
Q 422 1184 422 2328 
Q 422 3475 848 4112 
Q 1275 4750 2034 4750 
Q 2797 4750 3222 4112 
Q 3647 3475 3647 2328 
Q 3647 1184 3222 546 
Q 2797 -91 2034 -91 
z
" transform="scale(0.015625)"/>
       </defs>
       <use xlink:href="#DejaVuSerif-30"/>
      </g>
     </g>
    </g>
    <g id="xtick_2">
     <g id="line2d_3">
      <path d="M 110.06558 349.417969 
L 110.06558 23.077969 
" clip-path="url(#p2368eb3370)" style="fill: none; stroke: #cccccc; stroke-width: 0.8; stroke-linecap: round"/>
     </g>
     <g id="line2d_4"/>
     <g id="text_2">
      <!-- 10 -->
      <g style="fill: #262626" transform="translate(103.06683 361.27625) scale(0.11 -0.11)">
       <defs>
        <path id="DejaVuSerif-31" d="M 909 0 
L 909 331 
L 1722 331 
L 1722 4213 
L 781 3603 
L 781 4013 
L 1919 4750 
L 2350 4750 
L 2350 331 
L 3163 331 
L 3163 0 
L 909 0 
z
" transform="scale(0.015625)"/>
       </defs>
       <use xlink:href="#DejaVuSerif-31"/>
       <use xlink:href="#DejaVuSerif-30" transform="translate(63.623047 0)"/>
      </g>
     </g>
    </g>
    <g id="xtick_3">
     <g id="line2d_5">
      <path d="M 165.31616 349.417969 
L 165.31616 23.077969 
" clip-path="url(#p2368eb3370)" style="fill: none; stroke: #cccccc; stroke-width: 0.8; stroke-linecap: round"/>
     </g>
     <g id="line2d_6"/>
     <g id="text_3">
      <!-- 20 -->
      <g style="fill: #262626" transform="translate(158.31741 361.27625) scale(0.11 -0.11)">
       <defs>
        <path id="DejaVuSerif-32" d="M 819 3553 
L 469 3553 
L 469 4384 
Q 803 4563 1142 4656 
Q 1481 4750 1806 4750 
Q 2534 4750 2956 4397 
Q 3378 4044 3378 3438 
Q 3378 2753 2422 1800 
Q 2347 1728 2309 1691 
L 1131 513 
L 3078 513 
L 3078 1088 
L 3444 1088 
L 3444 0 
L 434 0 
L 434 341 
L 1850 1753 
Q 2319 2222 2519 2614 
Q 2719 3006 2719 3438 
Q 2719 3909 2473 4175 
Q 2228 4441 1797 4441 
Q 1350 4441 1106 4219 
Q 863 3997 819 3553 
z
" transform="scale(0.015625)"/>
       </defs>
       <use xlink:href="#DejaVuSerif-32"/>
       <use xlink:href="#DejaVuSerif-30" transform="translate(63.623047 0)"/>
      </g>
     </g>
    </g>
    <g id="xtick_4">
     <g id="line2d_7">
      <path d="M 220.566739 349.417969 
L 220.566739 23.077969 
" clip-path="url(#p2368eb3370)" style="fill: none; stroke: #cccccc; stroke-width: 0.8; stroke-linecap: round"/>
     </g>
     <g id="line2d_8"/>
     <g id="text_4">
      <!-- 30 -->
      <g style="fill: #262626" transform="translate(213.567989 361.27625) scale(0.11 -0.11)">
       <defs>
        <path id="DejaVuSerif-33" d="M 622 4469 
Q 988 4606 1323 4678 
Q 1659 4750 1953 4750 
Q 2638 4750 3022 4454 
Q 3406 4159 3406 3634 
Q 3406 3213 3140 2930 
Q 2875 2647 2388 2547 
Q 2963 2466 3280 2130 
Q 3597 1794 3597 1259 
Q 3597 606 3158 257 
Q 2719 -91 1894 -91 
Q 1528 -91 1179 -12 
Q 831 66 488 225 
L 488 1131 
L 838 1131 
Q 869 681 1141 450 
Q 1413 219 1906 219 
Q 2384 219 2661 495 
Q 2938 772 2938 1253 
Q 2938 1803 2653 2086 
Q 2369 2369 1819 2369 
L 1522 2369 
L 1522 2688 
L 1678 2688 
Q 2225 2688 2498 2914 
Q 2772 3141 2772 3597 
Q 2772 4006 2547 4223 
Q 2322 4441 1900 4441 
Q 1478 4441 1245 4241 
Q 1013 4041 972 3647 
L 622 3647 
L 622 4469 
z
" transform="scale(0.015625)"/>
       </defs>
       <use xlink:href="#DejaVuSerif-33"/>
       <use xlink:href="#DejaVuSerif-30" transform="translate(63.623047 0)"/>
      </g>
     </g>
    </g>
    <g id="xtick_5">
     <g id="line2d_9">
      <path d="M 275.817319 349.417969 
L 275.817319 23.077969 
" clip-path="url(#p2368eb3370)" style="fill: none; stroke: #cccccc; stroke-width: 0.8; stroke-linecap: round"/>
     </g>
     <g id="line2d_10"/>
     <g id="text_5">
      <!-- 40 -->
      <g style="fill: #262626" transform="translate(268.818569 361.27625) scale(0.11 -0.11)">
       <defs>
        <path id="DejaVuSerif-34" d="M 2234 1581 
L 2234 4063 
L 641 1581 
L 2234 1581 
z
M 3609 0 
L 1484 0 
L 1484 331 
L 2234 331 
L 2234 1247 
L 197 1247 
L 197 1588 
L 2241 4750 
L 2859 4750 
L 2859 1581 
L 3750 1581 
L 3750 1247 
L 2859 1247 
L 2859 331 
L 3609 331 
L 3609 0 
z
" transform="scale(0.015625)"/>
       </defs>
       <use xlink:href="#DejaVuSerif-34"/>
       <use xlink:href="#DejaVuSerif-30" transform="translate(63.623047 0)"/>
      </g>
     </g>
    </g>
    <g id="xtick_6">
     <g id="line2d_11">
      <path d="M 331.067899 349.417969 
L 331.067899 23.077969 
" clip-path="url(#p2368eb3370)" style="fill: none; stroke: #cccccc; stroke-width: 0.8; stroke-linecap: round"/>
     </g>
     <g id="line2d_12"/>
     <g id="text_6">
      <!-- 50 -->
      <g style="fill: #262626" transform="translate(324.069149 361.27625) scale(0.11 -0.11)">
       <defs>
        <path id="DejaVuSerif-35" d="M 3219 4666 
L 3219 4153 
L 1081 4153 
L 1081 2816 
Q 1244 2928 1461 2984 
Q 1678 3041 1947 3041 
Q 2703 3041 3140 2622 
Q 3578 2203 3578 1478 
Q 3578 738 3136 323 
Q 2694 -91 1894 -91 
Q 1572 -91 1234 -12 
Q 897 66 544 225 
L 544 1131 
L 897 1131 
Q 925 688 1179 453 
Q 1434 219 1894 219 
Q 2388 219 2653 544 
Q 2919 869 2919 1478 
Q 2919 2084 2655 2407 
Q 2391 2731 1894 2731 
Q 1613 2731 1398 2631 
Q 1184 2531 1019 2322 
L 750 2322 
L 750 4666 
L 3219 4666 
z
" transform="scale(0.015625)"/>
       </defs>
       <use xlink:href="#DejaVuSerif-35"/>
       <use xlink:href="#DejaVuSerif-30" transform="translate(63.623047 0)"/>
      </g>
     </g>
    </g>
    <g id="xtick_7">
     <g id="line2d_13">
      <path d="M 386.318479 349.417969 
L 386.318479 23.077969 
" clip-path="url(#p2368eb3370)" style="fill: none; stroke: #cccccc; stroke-width: 0.8; stroke-linecap: round"/>
     </g>
     <g id="line2d_14"/>
     <g id="text_7">
      <!-- 60 -->
      <g style="fill: #262626" transform="translate(379.319729 361.27625) scale(0.11 -0.11)">
       <defs>
        <path id="DejaVuSerif-36" d="M 2094 219 
Q 2534 219 2771 542 
Q 3009 866 3009 1472 
Q 3009 2078 2771 2401 
Q 2534 2725 2094 2725 
Q 1647 2725 1412 2412 
Q 1178 2100 1178 1509 
Q 1178 888 1415 553 
Q 1653 219 2094 219 
z
M 1075 2569 
Q 1288 2803 1556 2918 
Q 1825 3034 2163 3034 
Q 2859 3034 3264 2615 
Q 3669 2197 3669 1472 
Q 3669 763 3233 336 
Q 2797 -91 2069 -91 
Q 1278 -91 853 498 
Q 428 1088 428 2181 
Q 428 3406 931 4078 
Q 1434 4750 2350 4750 
Q 2597 4750 2869 4703 
Q 3141 4656 3425 4563 
L 3425 3794 
L 3072 3794 
Q 3034 4109 2831 4275 
Q 2628 4441 2284 4441 
Q 1678 4441 1381 3981 
Q 1084 3522 1075 2569 
z
" transform="scale(0.015625)"/>
       </defs>
       <use xlink:href="#DejaVuSerif-36"/>
       <use xlink:href="#DejaVuSerif-30" transform="translate(63.623047 0)"/>
      </g>
     </g>
    </g>
    <g id="xtick_8">
     <g id="line2d_15">
      <path d="M 441.569058 349.417969 
L 441.569058 23.077969 
" clip-path="url(#p2368eb3370)" style="fill: none; stroke: #cccccc; stroke-width: 0.8; stroke-linecap: round"/>
     </g>
     <g id="line2d_16"/>
     <g id="text_8">
      <!-- 70 -->
      <g style="fill: #262626" transform="translate(434.570308 361.27625) scale(0.11 -0.11)">
       <defs>
        <path id="DejaVuSerif-37" d="M 3609 4347 
L 1784 0 
L 1319 0 
L 3059 4153 
L 903 4153 
L 903 3578 
L 538 3578 
L 538 4666 
L 3609 4666 
L 3609 4347 
z
" transform="scale(0.015625)"/>
       </defs>
       <use xlink:href="#DejaVuSerif-37"/>
       <use xlink:href="#DejaVuSerif-30" transform="translate(63.623047 0)"/>
      </g>
     </g>
    </g>
    <g id="text_9">
     <!-- Time $t$ -->
     <g style="fill: #262626" transform="translate(228.932029 376.682031) scale(0.12 -0.12)">
      <defs>
       <path id="DejaVuSerif-54" d="M 1222 0 
L 1222 331 
L 1819 331 
L 1819 4294 
L 447 4294 
L 447 3566 
L 63 3566 
L 63 4666 
L 4206 4666 
L 4206 3566 
L 3822 3566 
L 3822 4294 
L 2450 4294 
L 2450 331 
L 3047 331 
L 3047 0 
L 1222 0 
z
" transform="scale(0.015625)"/>
       <path id="DejaVuSerif-69" d="M 622 4353 
Q 622 4497 726 4603 
Q 831 4709 978 4709 
Q 1122 4709 1226 4603 
Q 1331 4497 1331 4353 
Q 1331 4206 1228 4103 
Q 1125 4000 978 4000 
Q 831 4000 726 4103 
Q 622 4206 622 4353 
z
M 1356 331 
L 1900 331 
L 1900 0 
L 231 0 
L 231 331 
L 781 331 
L 781 2988 
L 231 2988 
L 231 3322 
L 1356 3322 
L 1356 331 
z
" transform="scale(0.015625)"/>
       <path id="DejaVuSerif-6d" d="M 3316 2675 
Q 3481 3041 3739 3227 
Q 3997 3413 4341 3413 
Q 4863 3413 5119 3089 
Q 5375 2766 5375 2113 
L 5375 331 
L 5894 331 
L 5894 0 
L 4300 0 
L 4300 331 
L 4800 331 
L 4800 2047 
Q 4800 2556 4650 2772 
Q 4500 2988 4153 2988 
Q 3769 2988 3567 2697 
Q 3366 2406 3366 1850 
L 3366 331 
L 3866 331 
L 3866 0 
L 2291 0 
L 2291 331 
L 2791 331 
L 2791 2069 
Q 2791 2566 2641 2777 
Q 2491 2988 2144 2988 
Q 1759 2988 1557 2697 
Q 1356 2406 1356 1850 
L 1356 331 
L 1856 331 
L 1856 0 
L 263 0 
L 263 331 
L 781 331 
L 781 2994 
L 231 2994 
L 231 3322 
L 1356 3322 
L 1356 2731 
Q 1516 3063 1762 3238 
Q 2009 3413 2322 3413 
Q 2709 3413 2968 3220 
Q 3228 3028 3316 2675 
z
" transform="scale(0.015625)"/>
       <path id="DejaVuSerif-65" d="M 3469 1600 
L 991 1600 
L 991 1575 
Q 991 903 1244 561 
Q 1497 219 1991 219 
Q 2369 219 2611 417 
Q 2853 616 2950 1006 
L 3413 1006 
Q 3275 459 2904 184 
Q 2534 -91 1931 -91 
Q 1203 -91 761 389 
Q 319 869 319 1663 
Q 319 2450 753 2931 
Q 1188 3413 1894 3413 
Q 2647 3413 3050 2948 
Q 3453 2484 3469 1600 
z
M 2791 1931 
Q 2772 2513 2545 2808 
Q 2319 3103 1894 3103 
Q 1497 3103 1269 2806 
Q 1041 2509 991 1931 
L 2791 1931 
z
" transform="scale(0.015625)"/>
       <path id="DejaVuSerif-20" transform="scale(0.015625)"/>
       <path id="Cmmi10-74" d="M 397 519 
Q 397 613 416 697 
L 878 2534 
L 206 2534 
Q 141 2534 141 2619 
Q 166 2759 225 2759 
L 934 2759 
L 1191 3803 
Q 1216 3888 1291 3947 
Q 1366 4006 1459 4006 
Q 1541 4006 1595 3957 
Q 1650 3909 1650 3828 
Q 1650 3809 1648 3798 
Q 1647 3788 1644 3775 
L 1388 2759 
L 2047 2759 
Q 2113 2759 2113 2675 
Q 2109 2659 2100 2621 
Q 2091 2584 2075 2559 
Q 2059 2534 2028 2534 
L 1331 2534 
L 872 684 
Q 825 503 825 372 
Q 825 97 1013 97 
Q 1294 97 1511 361 
Q 1728 625 1844 941 
Q 1869 978 1894 978 
L 1972 978 
Q 1997 978 2012 961 
Q 2028 944 2028 922 
Q 2028 909 2022 903 
Q 1881 516 1612 222 
Q 1344 -72 997 -72 
Q 744 -72 570 93 
Q 397 259 397 519 
z
" transform="scale(0.015625)"/>
      </defs>
      <use xlink:href="#DejaVuSerif-54" transform="translate(0 0.421875)"/>
      <use xlink:href="#DejaVuSerif-69" transform="translate(66.699219 0.421875)"/>
      <use xlink:href="#DejaVuSerif-6d" transform="translate(98.681641 0.421875)"/>
      <use xlink:href="#DejaVuSerif-65" transform="translate(193.505859 0.421875)"/>
      <use xlink:href="#DejaVuSerif-20" transform="translate(252.685547 0.421875)"/>
      <use xlink:href="#Cmmi10-74" transform="translate(284.472656 0.421875)"/>
     </g>
    </g>
   </g>
   <g id="matplotlib.axis_2">
    <g id="ytick_1">
     <g id="line2d_17">
      <path d="M 54.815 349.417969 
L 441.569058 349.417969 
" clip-path="url(#p2368eb3370)" style="fill: none; stroke: #cccccc; stroke-width: 0.8; stroke-linecap: round"/>
     </g>
     <g id="line2d_18"/>
     <g id="text_10">
      <!-- 0 -->
      <g style="fill: #262626" transform="translate(44.31625 353.597109) scale(0.11 -0.11)">
       <use xlink:href="#DejaVuSerif-30"/>
      </g>
     </g>
    </g>
    <g id="ytick_2">
     <g id="line2d_19">
      <path d="M 54.815 299.211815 
L 441.569058 299.211815 
" clip-path="url(#p2368eb3370)" style="fill: none; stroke: #cccccc; stroke-width: 0.8; stroke-linecap: round"/>
     </g>
     <g id="line2d_20"/>
     <g id="text_11">
      <!-- 200 -->
      <g style="fill: #262626" transform="translate(30.31875 303.390956) scale(0.11 -0.11)">
       <use xlink:href="#DejaVuSerif-32"/>
       <use xlink:href="#DejaVuSerif-30" transform="translate(63.623047 0)"/>
       <use xlink:href="#DejaVuSerif-30" transform="translate(127.246094 0)"/>
      </g>
     </g>
    </g>
    <g id="ytick_3">
     <g id="line2d_21">
      <path d="M 54.815 249.005661 
L 441.569058 249.005661 
" clip-path="url(#p2368eb3370)" style="fill: none; stroke: #cccccc; stroke-width: 0.8; stroke-linecap: round"/>
     </g>
     <g id="line2d_22"/>
     <g id="text_12">
      <!-- 400 -->
      <g style="fill: #262626" transform="translate(30.31875 253.184802) scale(0.11 -0.11)">
       <use xlink:href="#DejaVuSerif-34"/>
       <use xlink:href="#DejaVuSerif-30" transform="translate(63.623047 0)"/>
       <use xlink:href="#DejaVuSerif-30" transform="translate(127.246094 0)"/>
      </g>
     </g>
    </g>
    <g id="ytick_4">
     <g id="line2d_23">
      <path d="M 54.815 198.799507 
L 441.569058 198.799507 
" clip-path="url(#p2368eb3370)" style="fill: none; stroke: #cccccc; stroke-width: 0.8; stroke-linecap: round"/>
     </g>
     <g id="line2d_24"/>
     <g id="text_13">
      <!-- 600 -->
      <g style="fill: #262626" transform="translate(30.31875 202.978648) scale(0.11 -0.11)">
       <use xlink:href="#DejaVuSerif-36"/>
       <use xlink:href="#DejaVuSerif-30" transform="translate(63.623047 0)"/>
       <use xlink:href="#DejaVuSerif-30" transform="translate(127.246094 0)"/>
      </g>
     </g>
    </g>
    <g id="ytick_5">
     <g id="line2d_25">
      <path d="M 54.815 148.593353 
L 441.569058 148.593353 
" clip-path="url(#p2368eb3370)" style="fill: none; stroke: #cccccc; stroke-width: 0.8; stroke-linecap: round"/>
     </g>
     <g id="line2d_26"/>
     <g id="text_14">
      <!-- 800 -->
      <g style="fill: #262626" transform="translate(30.31875 152.772494) scale(0.11 -0.11)">
       <defs>
        <path id="DejaVuSerif-38" d="M 2981 1275 
Q 2981 1775 2732 2051 
Q 2484 2328 2034 2328 
Q 1584 2328 1336 2051 
Q 1088 1775 1088 1275 
Q 1088 772 1336 495 
Q 1584 219 2034 219 
Q 2484 219 2732 495 
Q 2981 772 2981 1275 
z
M 2853 3541 
Q 2853 3966 2637 4203 
Q 2422 4441 2034 4441 
Q 1650 4441 1433 4203 
Q 1216 3966 1216 3541 
Q 1216 3113 1433 2875 
Q 1650 2638 2034 2638 
Q 2422 2638 2637 2875 
Q 2853 3113 2853 3541 
z
M 2516 2484 
Q 3047 2413 3344 2092 
Q 3641 1772 3641 1275 
Q 3641 619 3225 264 
Q 2809 -91 2034 -91 
Q 1263 -91 845 264 
Q 428 619 428 1275 
Q 428 1772 725 2092 
Q 1022 2413 1556 2484 
Q 1084 2569 832 2842 
Q 581 3116 581 3541 
Q 581 4103 968 4426 
Q 1356 4750 2034 4750 
Q 2713 4750 3100 4426 
Q 3488 4103 3488 3541 
Q 3488 3116 3236 2842 
Q 2984 2569 2516 2484 
z
" transform="scale(0.015625)"/>
       </defs>
       <use xlink:href="#DejaVuSerif-38"/>
       <use xlink:href="#DejaVuSerif-30" transform="translate(63.623047 0)"/>
       <use xlink:href="#DejaVuSerif-30" transform="translate(127.246094 0)"/>
      </g>
     </g>
    </g>
    <g id="ytick_6">
     <g id="line2d_27">
      <path d="M 54.815 98.3872 
L 441.569058 98.3872 
" clip-path="url(#p2368eb3370)" style="fill: none; stroke: #cccccc; stroke-width: 0.8; stroke-linecap: round"/>
     </g>
     <g id="line2d_28"/>
     <g id="text_15">
      <!-- 1000 -->
      <g style="fill: #262626" transform="translate(23.32 102.56634) scale(0.11 -0.11)">
       <use xlink:href="#DejaVuSerif-31"/>
       <use xlink:href="#DejaVuSerif-30" transform="translate(63.623047 0)"/>
       <use xlink:href="#DejaVuSerif-30" transform="translate(127.246094 0)"/>
       <use xlink:href="#DejaVuSerif-30" transform="translate(190.869141 0)"/>
      </g>
     </g>
    </g>
    <g id="ytick_7">
     <g id="line2d_29">
      <path d="M 54.815 48.181046 
L 441.569058 48.181046 
" clip-path="url(#p2368eb3370)" style="fill: none; stroke: #cccccc; stroke-width: 0.8; stroke-linecap: round"/>
     </g>
     <g id="line2d_30"/>
     <g id="text_16">
      <!-- 1200 -->
      <g style="fill: #262626" transform="translate(23.32 52.360186) scale(0.11 -0.11)">
       <use xlink:href="#DejaVuSerif-31"/>
       <use xlink:href="#DejaVuSerif-32" transform="translate(63.623047 0)"/>
       <use xlink:href="#DejaVuSerif-30" transform="translate(127.246094 0)"/>
       <use xlink:href="#DejaVuSerif-30" transform="translate(190.869141 0)"/>
      </g>
     </g>
    </g>
    <g id="text_17">
     <!-- Population $P(t)$ -->
     <g style="fill: #262626" transform="translate(16.32 231.547969) rotate(-90) scale(0.12 -0.12)">
      <defs>
       <path id="DejaVuSerif-50" d="M 1581 2375 
L 2406 2375 
Q 2872 2375 3115 2626 
Q 3359 2878 3359 3353 
Q 3359 3831 3115 4081 
Q 2872 4331 2406 4331 
L 1581 4331 
L 1581 2375 
z
M 353 0 
L 353 331 
L 947 331 
L 947 4331 
L 353 4331 
L 353 4666 
L 2559 4666 
Q 3259 4666 3668 4311 
Q 4078 3956 4078 3353 
Q 4078 2753 3668 2397 
Q 3259 2041 2559 2041 
L 1581 2041 
L 1581 331 
L 2303 331 
L 2303 0 
L 353 0 
z
" transform="scale(0.015625)"/>
       <path id="DejaVuSerif-6f" d="M 1925 219 
Q 2388 219 2623 584 
Q 2859 950 2859 1663 
Q 2859 2375 2623 2739 
Q 2388 3103 1925 3103 
Q 1463 3103 1227 2739 
Q 991 2375 991 1663 
Q 991 950 1228 584 
Q 1466 219 1925 219 
z
M 1925 -91 
Q 1200 -91 759 389 
Q 319 869 319 1663 
Q 319 2456 758 2934 
Q 1197 3413 1925 3413 
Q 2653 3413 3092 2934 
Q 3531 2456 3531 1663 
Q 3531 869 3092 389 
Q 2653 -91 1925 -91 
z
" transform="scale(0.015625)"/>
       <path id="DejaVuSerif-70" d="M 1313 1825 
L 1313 1497 
Q 1313 897 1542 583 
Q 1772 269 2209 269 
Q 2650 269 2876 622 
Q 3103 975 3103 1663 
Q 3103 2353 2876 2703 
Q 2650 3053 2209 3053 
Q 1772 3053 1542 2737 
Q 1313 2422 1313 1825 
z
M 738 2988 
L 184 2988 
L 184 3322 
L 1313 3322 
L 1313 2803 
Q 1481 3116 1742 3264 
Q 2003 3413 2388 3413 
Q 3000 3413 3387 2928 
Q 3775 2444 3775 1663 
Q 3775 881 3387 395 
Q 3000 -91 2388 -91 
Q 2003 -91 1742 57 
Q 1481 206 1313 519 
L 1313 -997 
L 1856 -997 
L 1856 -1331 
L 184 -1331 
L 184 -997 
L 738 -997 
L 738 2988 
z
" transform="scale(0.015625)"/>
       <path id="DejaVuSerif-75" d="M 2266 3322 
L 3341 3322 
L 3341 331 
L 3884 331 
L 3884 0 
L 2766 0 
L 2766 588 
Q 2606 256 2353 82 
Q 2100 -91 1766 -91 
Q 1213 -91 952 223 
Q 691 538 691 1209 
L 691 2988 
L 172 2988 
L 172 3322 
L 1269 3322 
L 1269 1388 
Q 1269 781 1417 556 
Q 1566 331 1947 331 
Q 2347 331 2556 625 
Q 2766 919 2766 1478 
L 2766 2988 
L 2266 2988 
L 2266 3322 
z
" transform="scale(0.015625)"/>
       <path id="DejaVuSerif-6c" d="M 1313 331 
L 1856 331 
L 1856 0 
L 184 0 
L 184 331 
L 738 331 
L 738 4531 
L 184 4531 
L 184 4863 
L 1313 4863 
L 1313 331 
z
" transform="scale(0.015625)"/>
       <path id="DejaVuSerif-61" d="M 2547 1044 
L 2547 1747 
L 1806 1747 
Q 1378 1747 1168 1562 
Q 959 1378 959 997 
Q 959 650 1171 447 
Q 1384 244 1747 244 
Q 2106 244 2326 466 
Q 2547 688 2547 1044 
z
M 3122 2075 
L 3122 331 
L 3634 331 
L 3634 0 
L 2547 0 
L 2547 359 
Q 2356 128 2106 18 
Q 1856 -91 1522 -91 
Q 969 -91 644 203 
Q 319 497 319 997 
Q 319 1513 691 1797 
Q 1063 2081 1741 2081 
L 2547 2081 
L 2547 2309 
Q 2547 2688 2317 2895 
Q 2088 3103 1672 3103 
Q 1328 3103 1125 2947 
Q 922 2791 872 2484 
L 575 2484 
L 575 3156 
Q 875 3284 1158 3348 
Q 1441 3413 1709 3413 
Q 2400 3413 2761 3070 
Q 3122 2728 3122 2075 
z
" transform="scale(0.015625)"/>
       <path id="DejaVuSerif-74" d="M 691 2988 
L 184 2988 
L 184 3322 
L 691 3322 
L 691 4353 
L 1269 4353 
L 1269 3322 
L 2350 3322 
L 2350 2988 
L 1269 2988 
L 1269 878 
Q 1269 456 1350 337 
Q 1431 219 1650 219 
Q 1875 219 1978 351 
Q 2081 484 2088 781 
L 2522 781 
Q 2497 328 2275 118 
Q 2053 -91 1600 -91 
Q 1103 -91 897 129 
Q 691 350 691 878 
L 691 2988 
z
" transform="scale(0.015625)"/>
       <path id="DejaVuSerif-6e" d="M 263 0 
L 263 331 
L 781 331 
L 781 2988 
L 231 2988 
L 231 3322 
L 1356 3322 
L 1356 2731 
Q 1516 3069 1770 3241 
Q 2025 3413 2363 3413 
Q 2913 3413 3172 3097 
Q 3431 2781 3431 2113 
L 3431 331 
L 3944 331 
L 3944 0 
L 2356 0 
L 2356 331 
L 2853 331 
L 2853 1931 
Q 2853 2541 2703 2767 
Q 2553 2994 2175 2994 
Q 1775 2994 1565 2701 
Q 1356 2409 1356 1850 
L 1356 331 
L 1856 331 
L 1856 0 
L 263 0 
z
" transform="scale(0.015625)"/>
       <path id="Cmmi10-50" d="M 313 0 
Q 250 0 250 84 
Q 253 100 262 139 
Q 272 178 289 201 
Q 306 225 331 225 
Q 722 225 878 269 
Q 959 297 997 441 
L 1875 3956 
Q 1888 4019 1888 4044 
Q 1888 4113 1813 4122 
Q 1691 4147 1350 4147 
Q 1288 4147 1288 4231 
Q 1291 4247 1300 4286 
Q 1309 4325 1326 4348 
Q 1344 4372 1369 4372 
L 3578 4372 
Q 3881 4372 4165 4264 
Q 4450 4156 4631 3934 
Q 4813 3713 4813 3397 
Q 4813 2991 4527 2672 
Q 4241 2353 3814 2175 
Q 3388 1997 2988 1997 
L 1947 1997 
L 1556 416 
Q 1544 353 1544 325 
Q 1544 300 1551 283 
Q 1559 266 1573 261 
Q 1588 256 1619 250 
Q 1741 225 2081 225 
Q 2144 225 2144 141 
Q 2122 50 2109 25 
Q 2097 0 2034 0 
L 313 0 
z
M 1978 2188 
L 2875 2188 
Q 3497 2188 3822 2522 
Q 3988 2688 4092 3000 
Q 4197 3313 4197 3566 
Q 4197 3881 3956 4014 
Q 3716 4147 3359 4147 
L 2747 4147 
Q 2572 4147 2515 4117 
Q 2459 4088 2413 3928 
L 1978 2188 
z
" transform="scale(0.015625)"/>
       <path id="Cmr10-28" d="M 1984 -1588 
Q 1628 -1306 1370 -942 
Q 1113 -578 948 -165 
Q 784 247 703 697 
Q 622 1147 622 1600 
Q 622 2059 703 2509 
Q 784 2959 951 3375 
Q 1119 3791 1378 4153 
Q 1638 4516 1984 4788 
Q 1984 4800 2016 4800 
L 2075 4800 
Q 2094 4800 2109 4783 
Q 2125 4766 2125 4744 
Q 2125 4716 2113 4703 
Q 1800 4397 1592 4047 
Q 1384 3697 1257 3301 
Q 1131 2906 1075 2482 
Q 1019 2059 1019 1600 
Q 1019 -434 2106 -1491 
Q 2125 -1509 2125 -1544 
Q 2125 -1559 2108 -1579 
Q 2091 -1600 2075 -1600 
L 2016 -1600 
Q 1984 -1600 1984 -1588 
z
" transform="scale(0.015625)"/>
       <path id="Cmr10-29" d="M 416 -1600 
Q 359 -1600 359 -1544 
Q 359 -1516 372 -1503 
Q 1466 -434 1466 1600 
Q 1466 3634 384 4691 
Q 359 4706 359 4744 
Q 359 4766 376 4783 
Q 394 4800 416 4800 
L 475 4800 
Q 494 4800 506 4788 
Q 966 4425 1272 3906 
Q 1578 3388 1720 2800 
Q 1863 2213 1863 1600 
Q 1863 1147 1786 708 
Q 1709 269 1542 -157 
Q 1375 -584 1119 -945 
Q 863 -1306 506 -1588 
Q 494 -1600 475 -1600 
L 416 -1600 
z
" transform="scale(0.015625)"/>
      </defs>
      <use xlink:href="#DejaVuSerif-50" transform="translate(0 0.015625)"/>
      <use xlink:href="#DejaVuSerif-6f" transform="translate(67.285156 0.015625)"/>
      <use xlink:href="#DejaVuSerif-70" transform="translate(127.490234 0.015625)"/>
      <use xlink:href="#DejaVuSerif-75" transform="translate(191.503906 0.015625)"/>
      <use xlink:href="#DejaVuSerif-6c" transform="translate(255.908203 0.015625)"/>
      <use xlink:href="#DejaVuSerif-61" transform="translate(287.890625 0.015625)"/>
      <use xlink:href="#DejaVuSerif-74" transform="translate(347.509766 0.015625)"/>
      <use xlink:href="#DejaVuSerif-69" transform="translate(387.695312 0.015625)"/>
      <use xlink:href="#DejaVuSerif-6f" transform="translate(419.677734 0.015625)"/>
      <use xlink:href="#DejaVuSerif-6e" transform="translate(479.882812 0.015625)"/>
      <use xlink:href="#DejaVuSerif-20" transform="translate(544.287109 0.015625)"/>
      <use xlink:href="#Cmmi10-50" transform="translate(576.074219 0.015625)"/>
      <use xlink:href="#Cmr10-28" transform="translate(640.283203 0.015625)"/>
      <use xlink:href="#Cmmi10-74" transform="translate(679.101562 0.015625)"/>
      <use xlink:href="#Cmr10-29" transform="translate(715.185547 0.015625)"/>
     </g>
    </g>
   </g>
   <g id="line2d_31">
    <path d="M 54.815 336.86643 
L 59.81254 335.146216 
L 64.81008 333.20627 
L 69.80762 331.023117 
L 74.80516 328.572067 
L 79.802699 325.827543 
L 84.800239 322.763521 
L 89.797779 319.354137 
L 94.795319 315.574434 
L 99.792859 311.401294 
L 104.790399 306.814515 
L 109.787939 301.798049 
L 114.785479 296.341322 
L 119.783018 290.44061 
L 124.780558 284.100351 
L 129.778098 277.334319 
L 134.775638 270.166507 
L 139.773178 262.631618 
L 146.436564 252.094012 
L 153.099951 241.120574 
L 164.760877 221.362146 
L 176.421804 201.728878 
L 183.08519 190.932007 
L 188.08273 183.155194 
L 193.08027 175.71304 
L 198.07781 168.648154 
L 203.07535 161.992396 
L 208.07289 155.767002 
L 213.07043 149.983184 
L 218.067969 144.643112 
L 223.065509 139.741123 
L 228.063049 135.265069 
L 233.060589 131.197682 
L 238.058129 127.517878 
L 243.055669 124.201954 
L 248.053209 121.224634 
L 253.050749 118.559943 
L 258.048288 116.181924 
L 263.045828 114.065195 
L 268.043368 112.185361 
L 273.040908 110.519305 
L 278.038448 109.045379 
L 284.701834 107.344546 
L 291.365221 105.906641 
L 298.028607 104.693547 
L 306.357841 103.442935 
L 314.687074 102.436228 
L 324.682153 101.485832 
L 334.677233 100.756375 
L 346.33816 100.117895 
L 361.330779 99.541848 
L 379.655092 99.090559 
L 386.318479 98.974436 
L 386.318479 98.974436 
" clip-path="url(#p2368eb3370)" style="fill: none; stroke: #2563eb; stroke-width: 2.5; stroke-linecap: round"/>
   </g>
   <g id="line2d_32">
    <path d="M 54.815 336.86643 
L 59.81254 335.042522 
L 64.81008 332.953576 
L 69.80762 330.561078 
L 74.80516 327.820917 
L 78.136853 325.77634 
L 81.468546 323.538205 
L 84.800239 321.088187 
L 88.131933 318.406228 
L 91.463626 315.47037 
L 94.795319 312.256576 
L 98.127012 308.738535 
L 101.458706 304.887444 
L 104.790399 300.671773 
L 108.122092 296.057007 
L 111.453785 291.005365 
L 114.785479 285.475488 
L 118.117172 279.422101 
L 121.448865 272.795645 
L 124.780558 265.541867 
L 128.112252 257.601379 
L 131.443945 248.909172 
L 134.775638 239.39408 
L 138.107331 228.978201 
L 141.439025 217.576258 
L 144.770718 205.094903 
L 148.102411 191.431947 
L 151.434104 176.475529 
L 154.765798 160.103198 
L 158.097491 142.180911 
L 161.429184 122.561934 
L 164.760877 101.085644 
L 168.092571 77.57621 
L 171.424264 51.841155 
L 174.755957 23.669781 
L 177.43595 -1 
L 177.43595 -1 
" clip-path="url(#p2368eb3370)" style="fill: none; stroke-dasharray: 9.25,4; stroke-dashoffset: 0; stroke: #dc2626; stroke-opacity: 0.7; stroke-width: 2.5"/>
   </g>
   <g id="line2d_33">
    <path d="M 54.815 98.3872 
L 441.569058 98.3872 
" clip-path="url(#p2368eb3370)" style="fill: none; stroke-dasharray: 2,3.3; stroke-dashoffset: 0; stroke: #059669; stroke-opacity: 0.8; stroke-width: 2"/>
   </g>
   <g id="line2d_34">
    <path d="M 54.815 223.902584 
L 441.569058 223.902584 
" clip-path="url(#p2368eb3370)" style="fill: none; stroke-dasharray: 1,1.65; stroke-dashoffset: 0; stroke: #808080; stroke-opacity: 0.5"/>
   </g>
   <g id="patch_3">
    <path d="M 54.815 349.417969 
L 54.815 23.077969 
" style="fill: none; stroke: #cccccc; stroke-linejoin: miter; stroke-linecap: square"/>
   </g>
   <g id="patch_4">
    <path d="M 54.815 349.417969 
L 441.569058 349.417969 
" style="fill: none; stroke: #cccccc; stroke-linejoin: miter; stroke-linecap: square"/>
   </g>
   <g id="text_18">
    <!-- $K = 1000$ -->
    <g style="fill: #059669" transform="translate(397.368595 89.806575) scale(0.1 -0.1)">
     <defs>
      <path id="Cmmi10-4b" d="M 300 0 
Q 238 0 238 84 
Q 241 100 250 139 
Q 259 178 276 201 
Q 294 225 319 225 
Q 709 225 863 269 
Q 947 297 984 441 
L 1863 3956 
Q 1875 4019 1875 4044 
Q 1875 4113 1797 4122 
Q 1678 4147 1338 4147 
Q 1275 4147 1275 4231 
Q 1297 4313 1309 4342 
Q 1322 4372 1381 4372 
L 3103 4372 
Q 3169 4372 3169 4288 
Q 3166 4272 3156 4234 
Q 3147 4197 3131 4172 
Q 3116 4147 3084 4147 
Q 2694 4147 2541 4103 
Q 2456 4072 2419 3928 
L 1900 1856 
L 4409 3794 
Q 4416 3806 4489 3879 
Q 4563 3953 4563 4025 
Q 4563 4147 4347 4147 
Q 4281 4147 4281 4231 
Q 4294 4281 4301 4309 
Q 4309 4338 4329 4355 
Q 4350 4372 4391 4372 
L 5631 4372 
Q 5666 4372 5681 4347 
Q 5697 4322 5697 4288 
Q 5694 4272 5683 4231 
Q 5672 4191 5655 4169 
Q 5638 4147 5606 4147 
Q 5138 4147 4581 3713 
Q 4578 3709 4572 3707 
Q 4566 3706 4559 3704 
Q 4553 3703 4550 3700 
L 3231 2675 
L 4191 428 
Q 4278 288 4378 256 
Q 4478 225 4684 225 
Q 4750 225 4750 141 
Q 4731 66 4712 33 
Q 4694 0 4641 0 
L 3156 0 
Q 3097 0 3097 84 
Q 3106 150 3118 187 
Q 3131 225 3181 225 
Q 3344 225 3458 258 
Q 3572 291 3572 409 
Q 3572 453 3566 475 
L 2772 2322 
L 1838 1600 
L 1544 416 
Q 1528 338 1528 325 
Q 1528 259 1606 250 
Q 1728 225 2069 225 
Q 2131 225 2131 141 
Q 2109 50 2096 25 
Q 2084 0 2022 0 
L 300 0 
z
" transform="scale(0.015625)"/>
      <path id="Cmr10-3d" d="M 481 850 
Q 428 850 393 890 
Q 359 931 359 978 
Q 359 1031 393 1068 
Q 428 1106 481 1106 
L 4500 1106 
Q 4547 1106 4581 1068 
Q 4616 1031 4616 978 
Q 4616 931 4581 890 
Q 4547 850 4500 850 
L 481 850 
z
M 481 2094 
Q 428 2094 393 2131 
Q 359 2169 359 2222 
Q 359 2269 393 2309 
Q 428 2350 481 2350 
L 4500 2350 
Q 4547 2350 4581 2309 
Q 4616 2269 4616 2222 
Q 4616 2169 4581 2131 
Q 4547 2094 4500 2094 
L 481 2094 
z
" transform="scale(0.015625)"/>
      <path id="Cmr10-31" d="M 594 0 
L 594 225 
Q 1394 225 1394 428 
L 1394 3788 
Q 1063 3628 556 3628 
L 556 3853 
Q 1341 3853 1741 4263 
L 1831 4263 
Q 1853 4263 1873 4245 
Q 1894 4228 1894 4206 
L 1894 428 
Q 1894 225 2694 225 
L 2694 0 
L 594 0 
z
" transform="scale(0.015625)"/>
      <path id="Cmr10-30" d="M 1600 -141 
Q 816 -141 533 504 
Q 250 1150 250 2041 
Q 250 2597 351 3087 
Q 453 3578 754 3920 
Q 1056 4263 1600 4263 
Q 2022 4263 2290 4056 
Q 2559 3850 2700 3523 
Q 2841 3197 2892 2823 
Q 2944 2450 2944 2041 
Q 2944 1491 2842 1011 
Q 2741 531 2444 195 
Q 2147 -141 1600 -141 
z
M 1600 25 
Q 1956 25 2131 390 
Q 2306 756 2347 1200 
Q 2388 1644 2388 2144 
Q 2388 2625 2347 3031 
Q 2306 3438 2132 3767 
Q 1959 4097 1600 4097 
Q 1238 4097 1063 3765 
Q 888 3434 847 3029 
Q 806 2625 806 2144 
Q 806 1788 823 1472 
Q 841 1156 916 820 
Q 991 484 1158 254 
Q 1325 25 1600 25 
z
" transform="scale(0.015625)"/>
     </defs>
     <use xlink:href="#Cmmi10-4b" transform="translate(0 0.6875)"/>
     <use xlink:href="#Cmr10-3d" transform="translate(102.470703 0.6875)"/>
     <use xlink:href="#Cmr10-31" transform="translate(197.714844 0.6875)"/>
     <use xlink:href="#Cmr10-30" transform="translate(247.714844 0.6875)"/>
     <use xlink:href="#Cmr10-30" transform="translate(297.714844 0.6875)"/>
     <use xlink:href="#Cmr10-30" transform="translate(347.714844 0.6875)"/>
    </g>
    <!-- (Carrying -->
    <g style="fill: #059669" transform="translate(397.368595 101.004387) scale(0.1 -0.1)">
     <defs>
      <path id="DejaVuSerif-Bold-28" d="M 2694 -997 
Q 1641 -606 1122 122 
Q 603 850 603 1931 
Q 603 3013 1115 3731 
Q 1628 4450 2694 4863 
L 2694 4488 
Q 2200 4188 1983 3598 
Q 1766 3009 1766 1931 
Q 1766 856 1983 267 
Q 2200 -322 2694 -622 
L 2694 -997 
z
" transform="scale(0.015625)"/>
      <path id="DejaVuSerif-Bold-43" d="M 4769 1331 
Q 4584 609 4106 259 
Q 3628 -91 2822 -91 
Q 1641 -91 955 561 
Q 269 1213 269 2328 
Q 269 3447 955 4098 
Q 1641 4750 2822 4750 
Q 3238 4750 3688 4650 
Q 4138 4550 4641 4347 
L 4641 3200 
L 4244 3200 
Q 4122 3788 3800 4080 
Q 3478 4372 2950 4372 
Q 2269 4372 1937 3870 
Q 1606 3369 1606 2328 
Q 1606 1288 1937 788 
Q 2269 288 2956 288 
Q 3422 288 3717 547 
Q 4013 806 4147 1331 
L 4769 1331 
z
" transform="scale(0.015625)"/>
      <path id="DejaVuSerif-Bold-61" d="M 3525 2041 
L 3525 378 
L 4000 378 
L 4000 0 
L 2419 0 
L 2419 422 
Q 2200 159 1931 34 
Q 1663 -91 1319 -91 
Q 809 -91 536 182 
Q 263 456 263 966 
Q 263 1525 655 1803 
Q 1047 2081 1838 2081 
L 2419 2081 
L 2419 2278 
Q 2419 2681 2228 2873 
Q 2038 3066 1638 3066 
Q 1306 3066 1126 2930 
Q 947 2794 872 2484 
L 519 2484 
L 519 3200 
Q 816 3306 1134 3359 
Q 1453 3413 1806 3413 
Q 2697 3413 3111 3081 
Q 3525 2750 3525 2041 
z
M 2419 1044 
L 2419 1709 
L 2003 1709 
Q 1694 1709 1528 1540 
Q 1363 1372 1363 1056 
Q 1363 741 1483 584 
Q 1603 428 1850 428 
Q 2106 428 2262 597 
Q 2419 766 2419 1044 
z
" transform="scale(0.015625)"/>
      <path id="DejaVuSerif-Bold-72" d="M 3438 3359 
L 3438 2369 
L 3084 2369 
Q 3066 2634 2941 2764 
Q 2816 2894 2578 2894 
Q 2216 2894 2006 2575 
Q 1797 2256 1797 1691 
L 1797 378 
L 2400 378 
L 2400 0 
L 219 0 
L 219 378 
L 691 378 
L 691 2944 
L 184 2944 
L 184 3322 
L 1797 3322 
L 1797 2731 
Q 1959 3078 2226 3245 
Q 2494 3413 2881 3413 
Q 2978 3413 3117 3398 
Q 3256 3384 3438 3359 
z
" transform="scale(0.015625)"/>
      <path id="DejaVuSerif-Bold-79" d="M 1997 -750 
Q 1847 -1116 1634 -1269 
Q 1422 -1422 1063 -1422 
Q 909 -1422 721 -1387 
Q 534 -1353 313 -1288 
L 313 -594 
L 666 -597 
Q 675 -838 779 -953 
Q 884 -1069 1094 -1069 
Q 1297 -1069 1422 -958 
Q 1547 -847 1672 -538 
L 1722 -422 
L 275 2944 
L -84 2944 
L -84 3322 
L 1831 3322 
L 1831 2944 
L 1434 2944 
L 2278 978 
L 3066 2944 
L 2625 2944 
L 2625 3322 
L 3872 3322 
L 3872 2944 
L 3469 2944 
L 1997 -750 
z
" transform="scale(0.015625)"/>
      <path id="DejaVuSerif-Bold-69" d="M 588 4263 
Q 588 4516 763 4689 
Q 938 4863 1191 4863 
Q 1438 4863 1611 4689 
Q 1784 4516 1784 4263 
Q 1784 4016 1611 3842 
Q 1438 3669 1191 3669 
Q 938 3669 763 3841 
Q 588 4013 588 4263 
z
M 1797 378 
L 2272 378 
L 2272 0 
L 219 0 
L 219 378 
L 691 378 
L 691 2944 
L 219 2944 
L 219 3322 
L 1797 3322 
L 1797 378 
z
" transform="scale(0.015625)"/>
      <path id="DejaVuSerif-Bold-6e" d="M 219 0 
L 219 378 
L 691 378 
L 691 2944 
L 219 2944 
L 219 3322 
L 1797 3322 
L 1797 2853 
Q 1997 3150 2253 3281 
Q 2509 3413 2900 3413 
Q 3459 3413 3745 3083 
Q 4031 2753 4031 2113 
L 4031 378 
L 4506 378 
L 4506 0 
L 2522 0 
L 2522 378 
L 2925 378 
L 2925 2144 
Q 2925 2566 2817 2730 
Q 2709 2894 2444 2894 
Q 2109 2894 1953 2648 
Q 1797 2403 1797 1869 
L 1797 378 
L 2203 378 
L 2203 0 
L 219 0 
z
" transform="scale(0.015625)"/>
      <path id="DejaVuSerif-Bold-67" d="M 3853 2944 
L 3853 44 
Q 3853 -656 3354 -1039 
Q 2856 -1422 1947 -1422 
Q 1616 -1422 1275 -1370 
Q 934 -1319 575 -1216 
L 575 -422 
L 928 -422 
Q 975 -750 1192 -909 
Q 1409 -1069 1813 -1069 
Q 2325 -1069 2536 -823 
Q 2747 -578 2747 44 
L 2747 422 
Q 2606 163 2367 36 
Q 2128 -91 1778 -91 
Q 1072 -91 667 378 
Q 263 847 263 1663 
Q 263 2481 667 2947 
Q 1072 3413 1778 3413 
Q 2128 3413 2367 3286 
Q 2606 3159 2747 2900 
L 2747 3322 
L 4325 3322 
L 4325 2944 
L 3853 2944 
z
M 2747 1825 
Q 2747 2406 2597 2665 
Q 2447 2925 2119 2925 
Q 1775 2925 1636 2651 
Q 1497 2378 1497 1663 
Q 1497 947 1637 672 
Q 1778 397 2119 397 
Q 2447 397 2597 656 
Q 2747 916 2747 1497 
L 2747 1825 
z
" transform="scale(0.015625)"/>
     </defs>
     <use xlink:href="#DejaVuSerif-Bold-28"/>
     <use xlink:href="#DejaVuSerif-Bold-43" transform="translate(47.314453 0)"/>
     <use xlink:href="#DejaVuSerif-Bold-61" transform="translate(126.904297 0)"/>
     <use xlink:href="#DejaVuSerif-Bold-72" transform="translate(191.699219 0)"/>
     <use xlink:href="#DejaVuSerif-Bold-72" transform="translate(244.384766 0)"/>
     <use xlink:href="#DejaVuSerif-Bold-79" transform="translate(297.070312 0)"/>
     <use xlink:href="#DejaVuSerif-Bold-69" transform="translate(355.175781 0)"/>
     <use xlink:href="#DejaVuSerif-Bold-6e" transform="translate(393.164062 0)"/>
     <use xlink:href="#DejaVuSerif-Bold-67" transform="translate(465.869141 0)"/>
    </g>
    <!-- Capacity) -->
    <g style="fill: #059669" transform="translate(397.368595 112.344387) scale(0.1 -0.1)">
     <defs>
      <path id="DejaVuSerif-Bold-70" d="M 1728 1825 
L 1728 1497 
Q 1728 916 1876 656 
Q 2025 397 2356 397 
Q 2697 397 2836 672 
Q 2975 947 2975 1663 
Q 2975 2378 2836 2651 
Q 2697 2925 2356 2925 
Q 2025 2925 1876 2665 
Q 1728 2406 1728 1825 
z
M 622 2944 
L 147 2944 
L 147 3322 
L 1728 3322 
L 1728 2900 
Q 1869 3159 2106 3286 
Q 2344 3413 2694 3413 
Q 3403 3413 3811 2945 
Q 4219 2478 4219 1663 
Q 4219 847 3811 378 
Q 3403 -91 2694 -91 
Q 2344 -91 2106 36 
Q 1869 163 1728 422 
L 1728 -953 
L 2241 -953 
L 2241 -1331 
L 147 -1331 
L 147 -953 
L 622 -953 
L 622 2944 
z
" transform="scale(0.015625)"/>
      <path id="DejaVuSerif-Bold-63" d="M 3609 1038 
Q 3491 469 3123 189 
Q 2756 -91 2125 -91 
Q 1238 -91 750 368 
Q 263 828 263 1663 
Q 263 2488 744 2950 
Q 1225 3413 2081 3413 
Q 2428 3413 2781 3347 
Q 3134 3281 3500 3150 
L 3500 2228 
L 3150 2228 
Q 3100 2650 2903 2854 
Q 2706 3059 2350 3059 
Q 1888 3059 1692 2746 
Q 1497 2434 1497 1663 
Q 1497 909 1687 586 
Q 1878 263 2309 263 
Q 2644 263 2845 463 
Q 3047 663 3091 1038 
L 3609 1038 
z
" transform="scale(0.015625)"/>
      <path id="DejaVuSerif-Bold-74" d="M 634 2944 
L 153 2944 
L 153 3322 
L 634 3322 
L 634 4353 
L 1741 4353 
L 1741 3322 
L 2663 3322 
L 2663 2944 
L 1741 2944 
L 1741 909 
Q 1741 475 1809 369 
Q 1878 263 2059 263 
Q 2259 263 2356 397 
Q 2453 531 2459 813 
L 2925 813 
Q 2897 313 2651 111 
Q 2406 -91 1806 -91 
Q 1122 -91 878 123 
Q 634 338 634 909 
L 634 2944 
z
" transform="scale(0.015625)"/>
      <path id="DejaVuSerif-Bold-29" d="M 325 -997 
L 325 -622 
Q 819 -322 1036 267 
Q 1253 856 1253 1931 
Q 1253 3009 1036 3598 
Q 819 4188 325 4488 
L 325 4863 
Q 1391 4450 1905 3731 
Q 2419 3013 2419 1931 
Q 2419 850 1898 122 
Q 1378 -606 325 -997 
z
" transform="scale(0.015625)"/>
     </defs>
     <use xlink:href="#DejaVuSerif-Bold-43"/>
     <use xlink:href="#DejaVuSerif-Bold-61" transform="translate(79.589844 0)"/>
     <use xlink:href="#DejaVuSerif-Bold-70" transform="translate(144.384766 0)"/>
     <use xlink:href="#DejaVuSerif-Bold-61" transform="translate(214.306641 0)"/>
     <use xlink:href="#DejaVuSerif-Bold-63" transform="translate(279.101562 0)"/>
     <use xlink:href="#DejaVuSerif-Bold-69" transform="translate(339.990234 0)"/>
     <use xlink:href="#DejaVuSerif-Bold-74" transform="translate(377.978516 0)"/>
     <use xlink:href="#DejaVuSerif-Bold-79" transform="translate(424.169922 0)"/>
     <use xlink:href="#DejaVuSerif-Bold-29" transform="translate(482.275391 0)"/>
    </g>
   </g>
   <g id="patch_5">
    <path d="M 214.541057 241.975268 
Q 189.84885 233.271501 166.211088 224.939416 
" style="fill: none; stroke: #7c3aed; stroke-linecap: round"/>
    <path d="M 169.007938 227.83383 
L 166.211088 224.939416 
L 170.204729 224.438585 
" style="fill: none; stroke: #7c3aed; stroke-linecap: round"/>
   </g>
   <g id="text_19">
    <!-- Inflection point -->
    <g style="fill: #7c3aed" transform="translate(207.470104 251.479168) scale(0.09 -0.09)">
     <defs>
      <path id="DejaVuSerif-49" d="M 1581 331 
L 2175 331 
L 2175 0 
L 353 0 
L 353 331 
L 947 331 
L 947 4331 
L 353 4331 
L 353 4666 
L 2175 4666 
L 2175 4331 
L 1581 4331 
L 1581 331 
z
" transform="scale(0.015625)"/>
      <path id="DejaVuSerif-66" d="M 2753 4078 
L 2450 4078 
Q 2447 4313 2317 4434 
Q 2188 4556 1941 4556 
Q 1619 4556 1487 4379 
Q 1356 4203 1356 3750 
L 1356 3322 
L 2284 3322 
L 2284 2988 
L 1356 2988 
L 1356 331 
L 2094 331 
L 2094 0 
L 231 0 
L 231 331 
L 781 331 
L 781 2988 
L 231 2988 
L 231 3322 
L 781 3322 
L 781 3738 
Q 781 4294 1070 4578 
Q 1359 4863 1919 4863 
Q 2128 4863 2337 4825 
Q 2547 4788 2753 4709 
L 2753 4078 
z
" transform="scale(0.015625)"/>
      <path id="DejaVuSerif-63" d="M 3291 997 
Q 3169 466 2822 187 
Q 2475 -91 1925 -91 
Q 1200 -91 759 389 
Q 319 869 319 1663 
Q 319 2459 759 2936 
Q 1200 3413 1925 3413 
Q 2241 3413 2553 3339 
Q 2866 3266 3181 3116 
L 3181 2266 
L 2847 2266 
Q 2781 2703 2561 2903 
Q 2341 3103 1931 3103 
Q 1466 3103 1228 2742 
Q 991 2381 991 1663 
Q 991 944 1227 581 
Q 1463 219 1931 219 
Q 2303 219 2525 412 
Q 2747 606 2828 997 
L 3291 997 
z
" transform="scale(0.015625)"/>
     </defs>
     <use xlink:href="#DejaVuSerif-49"/>
     <use xlink:href="#DejaVuSerif-6e" transform="translate(39.501953 0)"/>
     <use xlink:href="#DejaVuSerif-66" transform="translate(103.90625 0)"/>
     <use xlink:href="#DejaVuSerif-6c" transform="translate(140.917969 0)"/>
     <use xlink:href="#DejaVuSerif-65" transform="translate(172.900391 0)"/>
     <use xlink:href="#DejaVuSerif-63" transform="translate(232.080078 0)"/>
     <use xlink:href="#DejaVuSerif-74" transform="translate(288.085938 0)"/>
     <use xlink:href="#DejaVuSerif-69" transform="translate(328.271484 0)"/>
     <use xlink:href="#DejaVuSerif-6f" transform="translate(360.253906 0)"/>
     <use xlink:href="#DejaVuSerif-6e" transform="translate(420.458984 0)"/>
     <use xlink:href="#DejaVuSerif-20" transform="translate(484.863281 0)"/>
     <use xlink:href="#DejaVuSerif-70" transform="translate(516.650391 0)"/>
     <use xlink:href="#DejaVuSerif-6f" transform="translate(580.664062 0)"/>
     <use xlink:href="#DejaVuSerif-69" transform="translate(640.869141 0)"/>
     <use xlink:href="#DejaVuSerif-6e" transform="translate(672.851562 0)"/>
     <use xlink:href="#DejaVuSerif-74" transform="translate(737.255859 0)"/>
    </g>
    <!-- (max growth rate) -->
    <g style="fill: #7c3aed" transform="translate(207.470104 261.5572) scale(0.09 -0.09)">
     <defs>
      <path id="DejaVuSerif-28" d="M 2041 -997 
Q 1281 -656 893 83 
Q 506 822 506 1931 
Q 506 3044 893 3783 
Q 1281 4522 2041 4863 
L 2041 4556 
Q 1559 4225 1350 3623 
Q 1141 3022 1141 1931 
Q 1141 844 1350 242 
Q 1559 -359 2041 -691 
L 2041 -997 
z
" transform="scale(0.015625)"/>
      <path id="DejaVuSerif-78" d="M 1863 2028 
L 2559 2988 
L 2113 2988 
L 2113 3322 
L 3391 3322 
L 3391 2988 
L 2950 2988 
L 2059 1759 
L 3097 331 
L 3531 331 
L 3531 0 
L 1997 0 
L 1997 331 
L 2419 331 
L 1697 1325 
L 972 331 
L 1403 331 
L 1403 0 
L 141 0 
L 141 331 
L 581 331 
L 1497 1594 
L 488 2988 
L 78 2988 
L 78 3322 
L 1563 3322 
L 1563 2988 
L 1166 2988 
L 1863 2028 
z
" transform="scale(0.015625)"/>
      <path id="DejaVuSerif-67" d="M 3359 2988 
L 3359 72 
Q 3359 -644 2965 -1033 
Q 2572 -1422 1844 -1422 
Q 1516 -1422 1216 -1362 
Q 916 -1303 641 -1184 
L 641 -488 
L 941 -488 
Q 997 -813 1206 -963 
Q 1416 -1113 1806 -1113 
Q 2313 -1113 2548 -827 
Q 2784 -541 2784 72 
L 2784 519 
Q 2616 206 2355 57 
Q 2094 -91 1709 -91 
Q 1097 -91 708 395 
Q 319 881 319 1663 
Q 319 2444 706 2928 
Q 1094 3413 1709 3413 
Q 2094 3413 2355 3264 
Q 2616 3116 2784 2803 
L 2784 3322 
L 3909 3322 
L 3909 2988 
L 3359 2988 
z
M 2784 1825 
Q 2784 2422 2554 2737 
Q 2325 3053 1888 3053 
Q 1444 3053 1217 2703 
Q 991 2353 991 1663 
Q 991 975 1217 622 
Q 1444 269 1888 269 
Q 2325 269 2554 583 
Q 2784 897 2784 1497 
L 2784 1825 
z
" transform="scale(0.015625)"/>
      <path id="DejaVuSerif-72" d="M 3059 3328 
L 3059 2497 
L 2728 2497 
Q 2713 2744 2591 2866 
Q 2469 2988 2234 2988 
Q 1809 2988 1582 2694 
Q 1356 2400 1356 1850 
L 1356 331 
L 2022 331 
L 2022 0 
L 263 0 
L 263 331 
L 781 331 
L 781 2994 
L 231 2994 
L 231 3322 
L 1356 3322 
L 1356 2731 
Q 1525 3078 1790 3245 
Q 2056 3413 2438 3413 
Q 2578 3413 2733 3391 
Q 2888 3369 3059 3328 
z
" transform="scale(0.015625)"/>
      <path id="DejaVuSerif-77" d="M 3072 3322 
L 3922 728 
L 4672 2988 
L 4191 2988 
L 4191 3322 
L 5394 3322 
L 5394 2988 
L 5025 2988 
L 4038 0 
L 3559 0 
L 2741 2484 
L 1919 0 
L 1459 0 
L 475 2988 
L 103 2988 
L 103 3322 
L 1606 3322 
L 1606 2988 
L 1069 2988 
L 1813 728 
L 2669 3322 
L 3072 3322 
z
" transform="scale(0.015625)"/>
      <path id="DejaVuSerif-68" d="M 263 0 
L 263 331 
L 781 331 
L 781 4531 
L 231 4531 
L 231 4863 
L 1356 4863 
L 1356 2731 
Q 1516 3069 1770 3241 
Q 2025 3413 2363 3413 
Q 2913 3413 3172 3097 
Q 3431 2781 3431 2113 
L 3431 331 
L 3944 331 
L 3944 0 
L 2356 0 
L 2356 331 
L 2853 331 
L 2853 1931 
Q 2853 2541 2704 2764 
Q 2556 2988 2175 2988 
Q 1775 2988 1565 2697 
Q 1356 2406 1356 1850 
L 1356 331 
L 1856 331 
L 1856 0 
L 263 0 
z
" transform="scale(0.015625)"/>
      <path id="DejaVuSerif-29" d="M 453 -997 
L 453 -691 
Q 934 -359 1145 242 
Q 1356 844 1356 1931 
Q 1356 3022 1145 3623 
Q 934 4225 453 4556 
L 453 4863 
Q 1216 4522 1603 3783 
Q 1991 3044 1991 1931 
Q 1991 822 1603 83 
Q 1216 -656 453 -997 
z
" transform="scale(0.015625)"/>
     </defs>
     <use xlink:href="#DejaVuSerif-28"/>
     <use xlink:href="#DejaVuSerif-6d" transform="translate(39.013672 0)"/>
     <use xlink:href="#DejaVuSerif-61" transform="translate(133.837891 0)"/>
     <use xlink:href="#DejaVuSerif-78" transform="translate(193.457031 0)"/>
     <use xlink:href="#DejaVuSerif-20" transform="translate(249.853516 0)"/>
     <use xlink:href="#DejaVuSerif-67" transform="translate(281.640625 0)"/>
     <use xlink:href="#DejaVuSerif-72" transform="translate(345.654297 0)"/>
     <use xlink:href="#DejaVuSerif-6f" transform="translate(393.457031 0)"/>
     <use xlink:href="#DejaVuSerif-77" transform="translate(453.662109 0)"/>
     <use xlink:href="#DejaVuSerif-74" transform="translate(539.257812 0)"/>
     <use xlink:href="#DejaVuSerif-68" transform="translate(579.443359 0)"/>
     <use xlink:href="#DejaVuSerif-20" transform="translate(643.847656 0)"/>
     <use xlink:href="#DejaVuSerif-72" transform="translate(675.634766 0)"/>
     <use xlink:href="#DejaVuSerif-61" transform="translate(723.4375 0)"/>
     <use xlink:href="#DejaVuSerif-74" transform="translate(783.056641 0)"/>
     <use xlink:href="#DejaVuSerif-65" transform="translate(823.242188 0)"/>
     <use xlink:href="#DejaVuSerif-29" transform="translate(882.421875 0)"/>
    </g>
   </g>
   <g id="text_20">
    <!-- $K/2$ -->
    <g style="fill: #808080" transform="translate(65.865116 213.861353) scale(0.09 -0.09)">
     <defs>
      <path id="Cmmi10-3d" d="M 359 -1472 
Q 359 -1453 366 -1447 
L 2591 4722 
Q 2603 4759 2634 4779 
Q 2666 4800 2706 4800 
Q 2763 4800 2798 4765 
Q 2834 4731 2834 4672 
L 2834 4647 
L 609 -1522 
Q 572 -1600 488 -1600 
Q 434 -1600 396 -1562 
Q 359 -1525 359 -1472 
z
" transform="scale(0.015625)"/>
      <path id="Cmr10-32" d="M 319 0 
L 319 172 
Q 319 188 331 206 
L 1325 1306 
Q 1550 1550 1690 1715 
Q 1831 1881 1968 2097 
Q 2106 2313 2186 2536 
Q 2266 2759 2266 3009 
Q 2266 3272 2169 3511 
Q 2072 3750 1880 3894 
Q 1688 4038 1416 4038 
Q 1138 4038 916 3870 
Q 694 3703 603 3438 
Q 628 3444 672 3444 
Q 816 3444 917 3347 
Q 1019 3250 1019 3097 
Q 1019 2950 917 2848 
Q 816 2747 672 2747 
Q 522 2747 420 2851 
Q 319 2956 319 3097 
Q 319 3338 409 3548 
Q 500 3759 670 3923 
Q 841 4088 1055 4175 
Q 1269 4263 1509 4263 
Q 1875 4263 2190 4108 
Q 2506 3953 2690 3670 
Q 2875 3388 2875 3009 
Q 2875 2731 2753 2481 
Q 2631 2231 2440 2026 
Q 2250 1822 1953 1562 
Q 1656 1303 1563 1216 
L 838 519 
L 1453 519 
Q 1906 519 2211 526 
Q 2516 534 2534 550 
Q 2609 631 2688 1141 
L 2875 1141 
L 2694 0 
L 319 0 
z
" transform="scale(0.015625)"/>
     </defs>
     <use xlink:href="#Cmmi10-4b"/>
     <use xlink:href="#Cmmi10-3d" transform="translate(84.912109 0)"/>
     <use xlink:href="#Cmr10-32" transform="translate(134.912109 0)"/>
    </g>
   </g>
   <g id="text_21">
    <!-- Logistic vs. Exponential Growth -->
    <g style="fill: #262626" transform="translate(132.611873 17.077969) scale(0.13 -0.13)">
     <defs>
      <path id="DejaVuSerif-Bold-4c" d="M 300 0 
L 300 378 
L 897 378 
L 897 4288 
L 300 4288 
L 300 4666 
L 2700 4666 
L 2700 4288 
L 2100 4288 
L 2100 428 
L 3938 428 
L 3938 1166 
L 4359 1166 
L 4359 0 
L 300 0 
z
" transform="scale(0.015625)"/>
      <path id="DejaVuSerif-Bold-6f" d="M 2138 263 
Q 2488 263 2630 563 
Q 2772 863 2772 1663 
Q 2772 2463 2631 2761 
Q 2491 3059 2138 3059 
Q 1784 3059 1640 2757 
Q 1497 2456 1497 1663 
Q 1497 869 1640 566 
Q 1784 263 2138 263 
z
M 2138 -91 
Q 1259 -91 761 376 
Q 263 844 263 1663 
Q 263 2484 761 2948 
Q 1259 3413 2138 3413 
Q 3019 3413 3516 2948 
Q 4013 2484 4013 1663 
Q 4013 844 3514 376 
Q 3016 -91 2138 -91 
z
" transform="scale(0.015625)"/>
      <path id="DejaVuSerif-Bold-73" d="M 300 97 
L 300 1025 
L 653 1025 
Q 697 653 931 458 
Q 1166 263 1569 263 
Q 1906 263 2086 380 
Q 2266 497 2266 716 
Q 2266 916 2152 1025 
Q 2038 1134 1709 1216 
L 1253 1331 
Q 738 1459 506 1698 
Q 275 1938 275 2344 
Q 275 2884 650 3148 
Q 1025 3413 1806 3413 
Q 2100 3413 2433 3364 
Q 2766 3316 3169 3213 
L 3169 2375 
L 2816 2375 
Q 2788 2716 2573 2887 
Q 2359 3059 1959 3059 
Q 1622 3059 1448 2951 
Q 1275 2844 1275 2638 
Q 1275 2469 1375 2372 
Q 1475 2275 1734 2209 
L 2188 2094 
Q 2841 1928 3091 1684 
Q 3341 1441 3341 1006 
Q 3341 444 2939 176 
Q 2538 -91 1691 -91 
Q 1381 -91 1034 -44 
Q 688 3 300 97 
z
" transform="scale(0.015625)"/>
      <path id="DejaVuSerif-Bold-20" transform="scale(0.015625)"/>
      <path id="DejaVuSerif-Bold-76" d="M 1428 0 
L 250 2944 
L -116 2944 
L -116 3322 
L 1791 3322 
L 1791 2944 
L 1388 2944 
L 2228 844 
L 3066 2944 
L 2631 2944 
L 2631 3322 
L 3878 3322 
L 3878 2944 
L 3494 2944 
L 2316 0 
L 1428 0 
z
" transform="scale(0.015625)"/>
      <path id="DejaVuSerif-Bold-2e" d="M 519 506 
Q 519 750 694 925 
Q 869 1100 1113 1100 
Q 1359 1100 1534 925 
Q 1709 750 1709 506 
Q 1709 259 1534 84 
Q 1359 -91 1113 -91 
Q 869 -91 694 84 
Q 519 259 519 506 
z
" transform="scale(0.015625)"/>
      <path id="DejaVuSerif-Bold-45" d="M 300 0 
L 300 378 
L 897 378 
L 897 4288 
L 300 4288 
L 300 4666 
L 4494 4666 
L 4494 3566 
L 4063 3566 
L 4063 4238 
L 2100 4238 
L 2100 2741 
L 3322 2741 
L 3322 3334 
L 3750 3334 
L 3750 1722 
L 3322 1722 
L 3322 2316 
L 2100 2316 
L 2100 428 
L 4122 428 
L 4122 1100 
L 4550 1100 
L 4550 0 
L 300 0 
z
" transform="scale(0.015625)"/>
      <path id="DejaVuSerif-Bold-78" d="M 2247 2119 
L 2834 2944 
L 2425 2944 
L 2425 3322 
L 3719 3322 
L 3719 2944 
L 3278 2944 
L 2431 1759 
L 3419 378 
L 3859 378 
L 3859 0 
L 1747 0 
L 1747 378 
L 2175 378 
L 1550 1253 
L 922 378 
L 1369 378 
L 1369 0 
L 0 0 
L 0 378 
L 475 378 
L 1356 1619 
L 403 2944 
L 31 2944 
L 31 3322 
L 2059 3322 
L 2059 2944 
L 1656 2944 
L 2247 2119 
z
" transform="scale(0.015625)"/>
      <path id="DejaVuSerif-Bold-65" d="M 2566 1875 
Q 2566 2531 2444 2795 
Q 2322 3059 2028 3059 
Q 1744 3059 1620 2800 
Q 1497 2541 1497 1931 
L 1497 1875 
L 2566 1875 
z
M 3781 1503 
L 1497 1503 
L 1497 1478 
Q 1497 834 1690 548 
Q 1884 263 2316 263 
Q 2675 263 2897 453 
Q 3119 644 3181 1006 
L 3700 1006 
Q 3566 441 3166 175 
Q 2766 -91 2047 -91 
Q 1184 -91 723 364 
Q 263 819 263 1663 
Q 263 2488 734 2950 
Q 1206 3413 2047 3413 
Q 2872 3413 3312 2927 
Q 3753 2441 3781 1503 
z
" transform="scale(0.015625)"/>
      <path id="DejaVuSerif-Bold-6c" d="M 1797 378 
L 2272 378 
L 2272 0 
L 219 0 
L 219 378 
L 691 378 
L 691 4488 
L 219 4488 
L 219 4863 
L 1797 4863 
L 1797 378 
z
" transform="scale(0.015625)"/>
      <path id="DejaVuSerif-Bold-47" d="M 4403 3200 
Q 4263 3819 3934 4095 
Q 3606 4372 3009 4372 
Q 2284 4372 1945 3880 
Q 1606 3388 1606 2328 
Q 1606 1278 1931 783 
Q 2256 288 2944 288 
Q 3206 288 3431 347 
Q 3656 406 3841 525 
L 3841 1806 
L 3278 1806 
L 3278 2181 
L 4959 2181 
L 4959 391 
Q 4434 147 3911 28 
Q 3388 -91 2841 -91 
Q 1641 -91 955 556 
Q 269 1203 269 2328 
Q 269 3456 955 4103 
Q 1641 4750 2841 4750 
Q 3341 4750 3825 4650 
Q 4309 4550 4800 4347 
L 4800 3200 
L 4403 3200 
z
" transform="scale(0.015625)"/>
      <path id="DejaVuSerif-Bold-77" d="M 3450 3322 
L 4206 1106 
L 4831 2944 
L 4397 2944 
L 4397 3322 
L 5638 3322 
L 5638 2944 
L 5247 2944 
L 4244 0 
L 3481 0 
L 2778 2081 
L 2069 0 
L 1313 0 
L 306 2944 
L -56 2944 
L -56 3322 
L 1825 3322 
L 1825 2944 
L 1434 2944 
L 2047 1147 
L 2791 3322 
L 3450 3322 
z
" transform="scale(0.015625)"/>
      <path id="DejaVuSerif-Bold-68" d="M 219 0 
L 219 378 
L 691 378 
L 691 4488 
L 197 4488 
L 197 4863 
L 1797 4863 
L 1797 2853 
Q 1997 3150 2253 3281 
Q 2509 3413 2900 3413 
Q 3459 3413 3745 3083 
Q 4031 2753 4031 2113 
L 4031 378 
L 4506 378 
L 4506 0 
L 2522 0 
L 2522 378 
L 2925 378 
L 2925 2144 
Q 2925 2566 2817 2730 
Q 2709 2894 2444 2894 
Q 2109 2894 1953 2648 
Q 1797 2403 1797 1869 
L 1797 378 
L 2203 378 
L 2203 0 
L 219 0 
z
" transform="scale(0.015625)"/>
     </defs>
     <use xlink:href="#DejaVuSerif-Bold-4c"/>
     <use xlink:href="#DejaVuSerif-Bold-6f" transform="translate(70.3125 0)"/>
     <use xlink:href="#DejaVuSerif-Bold-67" transform="translate(137.011719 0)"/>
     <use xlink:href="#DejaVuSerif-Bold-69" transform="translate(206.933594 0)"/>
     <use xlink:href="#DejaVuSerif-Bold-73" transform="translate(244.921875 0)"/>
     <use xlink:href="#DejaVuSerif-Bold-74" transform="translate(301.220703 0)"/>
     <use xlink:href="#DejaVuSerif-Bold-69" transform="translate(347.412109 0)"/>
     <use xlink:href="#DejaVuSerif-Bold-63" transform="translate(385.400391 0)"/>
     <use xlink:href="#DejaVuSerif-Bold-20" transform="translate(446.289062 0)"/>
     <use xlink:href="#DejaVuSerif-Bold-76" transform="translate(481.103516 0)"/>
     <use xlink:href="#DejaVuSerif-Bold-73" transform="translate(539.208984 0)"/>
     <use xlink:href="#DejaVuSerif-Bold-2e" transform="translate(595.507812 0)"/>
     <use xlink:href="#DejaVuSerif-Bold-20" transform="translate(630.322266 0)"/>
     <use xlink:href="#DejaVuSerif-Bold-45" transform="translate(665.136719 0)"/>
     <use xlink:href="#DejaVuSerif-Bold-78" transform="translate(741.357422 0)"/>
     <use xlink:href="#DejaVuSerif-Bold-70" transform="translate(800.976562 0)"/>
     <use xlink:href="#DejaVuSerif-Bold-6f" transform="translate(870.898438 0)"/>
     <use xlink:href="#DejaVuSerif-Bold-6e" transform="translate(937.597656 0)"/>
     <use xlink:href="#DejaVuSerif-Bold-65" transform="translate(1010.302734 0)"/>
     <use xlink:href="#DejaVuSerif-Bold-6e" transform="translate(1073.925781 0)"/>
     <use xlink:href="#DejaVuSerif-Bold-74" transform="translate(1146.630859 0)"/>
     <use xlink:href="#DejaVuSerif-Bold-69" transform="translate(1192.822266 0)"/>
     <use xlink:href="#DejaVuSerif-Bold-61" transform="translate(1230.810547 0)"/>
     <use xlink:href="#DejaVuSerif-Bold-6c" transform="translate(1295.605469 0)"/>
     <use xlink:href="#DejaVuSerif-Bold-20" transform="translate(1333.59375 0)"/>
     <use xlink:href="#DejaVuSerif-Bold-47" transform="translate(1368.408203 0)"/>
     <use xlink:href="#DejaVuSerif-Bold-72" transform="translate(1453.808594 0)"/>
     <use xlink:href="#DejaVuSerif-Bold-6f" transform="translate(1506.494141 0)"/>
     <use xlink:href="#DejaVuSerif-Bold-77" transform="translate(1573.193359 0)"/>
     <use xlink:href="#DejaVuSerif-Bold-74" transform="translate(1659.277344 0)"/>
     <use xlink:href="#DejaVuSerif-Bold-68" transform="translate(1705.46875 0)"/>
    </g>
   </g>
   <g id="line2d_35">
    <defs>
     <path id="m40c15b22db" d="M 0 5 
C 1.326016 5 2.597899 4.473168 3.535534 3.535534 
C 4.473168 2.597899 5 1.326016 5 0 
C 5 -1.326016 4.473168 -2.597899 3.535534 -3.535534 
C 2.597899 -4.473168 1.326016 -5 0 -5 
C -1.326016 -5 -2.597899 -4.473168 -3.535534 -3.535534 
C -4.473168 -2.597899 -5 -1.326016 -5 0 
C -5 1.326016 -4.473168 2.597899 -3.535534 3.535534 
C -2.597899 4.473168 -1.326016 5 0 5 
z
" style="stroke: #7c3aed"/>
    </defs>
    <g clip-path="url(#p2368eb3370)">
     <use xlink:href="#m40c15b22db" x="163.26964" y="223.902584" style="fill: #7c3aed; stroke: #7c3aed"/>
    </g>
   </g>
   <g id="legend_1">
    <g id="line2d_36">
     <path d="M 276.142496 320.017969 
L 286.142496 320.017969 
L 296.142496 320.017969 
" style="fill: none; stroke: #2563eb; stroke-width: 2.5; stroke-linecap: round"/>
    </g>
    <g id="text_22">
     <!-- Logistic (bounded) -->
     <g style="fill: #262626" transform="translate(304.142496 323.517969) scale(0.1 -0.1)">
      <defs>
       <path id="DejaVuSerif-4c" d="M 353 0 
L 353 331 
L 947 331 
L 947 4331 
L 353 4331 
L 353 4666 
L 2175 4666 
L 2175 4331 
L 1581 4331 
L 1581 384 
L 3713 384 
L 3713 1166 
L 4097 1166 
L 4097 0 
L 353 0 
z
" transform="scale(0.015625)"/>
       <path id="DejaVuSerif-73" d="M 359 184 
L 359 959 
L 691 959 
Q 703 588 923 403 
Q 1144 219 1575 219 
Q 1963 219 2166 364 
Q 2369 509 2369 788 
Q 2369 1006 2220 1140 
Q 2072 1275 1594 1428 
L 1178 1569 
Q 750 1706 558 1912 
Q 366 2119 366 2438 
Q 366 2894 700 3153 
Q 1034 3413 1625 3413 
Q 1888 3413 2178 3344 
Q 2469 3275 2778 3144 
L 2778 2419 
L 2447 2419 
Q 2434 2741 2221 2922 
Q 2009 3103 1644 3103 
Q 1281 3103 1095 2975 
Q 909 2847 909 2591 
Q 909 2381 1050 2254 
Q 1191 2128 1613 1997 
L 2069 1856 
Q 2541 1709 2748 1489 
Q 2956 1269 2956 922 
Q 2956 450 2595 179 
Q 2234 -91 1600 -91 
Q 1278 -91 972 -22 
Q 666 47 359 184 
z
" transform="scale(0.015625)"/>
       <path id="DejaVuSerif-62" d="M 738 331 
L 738 4531 
L 184 4531 
L 184 4863 
L 1313 4863 
L 1313 2803 
Q 1481 3116 1742 3264 
Q 2003 3413 2388 3413 
Q 3000 3413 3387 2928 
Q 3775 2444 3775 1663 
Q 3775 881 3387 395 
Q 3000 -91 2388 -91 
Q 2003 -91 1742 57 
Q 1481 206 1313 519 
L 1313 0 
L 184 0 
L 184 331 
L 738 331 
z
M 1313 1497 
Q 1313 897 1542 583 
Q 1772 269 2209 269 
Q 2650 269 2876 622 
Q 3103 975 3103 1663 
Q 3103 2353 2876 2703 
Q 2650 3053 2209 3053 
Q 1772 3053 1542 2737 
Q 1313 2422 1313 1825 
L 1313 1497 
z
" transform="scale(0.015625)"/>
       <path id="DejaVuSerif-64" d="M 3359 331 
L 3909 331 
L 3909 0 
L 2784 0 
L 2784 519 
Q 2616 206 2355 57 
Q 2094 -91 1709 -91 
Q 1097 -91 708 395 
Q 319 881 319 1663 
Q 319 2444 706 2928 
Q 1094 3413 1709 3413 
Q 2094 3413 2355 3264 
Q 2616 3116 2784 2803 
L 2784 4531 
L 2241 4531 
L 2241 4863 
L 3359 4863 
L 3359 331 
z
M 2784 1497 
L 2784 1825 
Q 2784 2422 2554 2737 
Q 2325 3053 1888 3053 
Q 1444 3053 1217 2703 
Q 991 2353 991 1663 
Q 991 975 1217 622 
Q 1444 269 1888 269 
Q 2325 269 2554 583 
Q 2784 897 2784 1497 
z
" transform="scale(0.015625)"/>
      </defs>
      <use xlink:href="#DejaVuSerif-4c"/>
      <use xlink:href="#DejaVuSerif-6f" transform="translate(66.40625 0)"/>
      <use xlink:href="#DejaVuSerif-67" transform="translate(126.611328 0)"/>
      <use xlink:href="#DejaVuSerif-69" transform="translate(190.625 0)"/>
      <use xlink:href="#DejaVuSerif-73" transform="translate(222.607422 0)"/>
      <use xlink:href="#DejaVuSerif-74" transform="translate(273.925781 0)"/>
      <use xlink:href="#DejaVuSerif-69" transform="translate(314.111328 0)"/>
      <use xlink:href="#DejaVuSerif-63" transform="translate(346.09375 0)"/>
      <use xlink:href="#DejaVuSerif-20" transform="translate(402.099609 0)"/>
      <use xlink:href="#DejaVuSerif-28" transform="translate(433.886719 0)"/>
      <use xlink:href="#DejaVuSerif-62" transform="translate(472.900391 0)"/>
      <use xlink:href="#DejaVuSerif-6f" transform="translate(536.914062 0)"/>
      <use xlink:href="#DejaVuSerif-75" transform="translate(597.119141 0)"/>
      <use xlink:href="#DejaVuSerif-6e" transform="translate(661.523438 0)"/>
      <use xlink:href="#DejaVuSerif-64" transform="translate(725.927734 0)"/>
      <use xlink:href="#DejaVuSerif-65" transform="translate(789.941406 0)"/>
      <use xlink:href="#DejaVuSerif-64" transform="translate(849.121094 0)"/>
      <use xlink:href="#DejaVuSerif-29" transform="translate(913.134766 0)"/>
     </g>
    </g>
    <g id="line2d_37">
     <path d="M 276.142496 334.838281 
L 286.142496 334.838281 
L 296.142496 334.838281 
" style="fill: none; stroke-dasharray: 9.25,4; stroke-dashoffset: 0; stroke: #dc2626; stroke-opacity: 0.7; stroke-width: 2.5"/>
    </g>
    <g id="text_23">
     <!-- Exponential (unbounded) -->
     <g style="fill: #262626" transform="translate(304.142496 338.338281) scale(0.1 -0.1)">
      <defs>
       <path id="DejaVuSerif-45" d="M 353 0 
L 353 331 
L 947 331 
L 947 4331 
L 353 4331 
L 353 4666 
L 4109 4666 
L 4109 3628 
L 3725 3628 
L 3725 4281 
L 1581 4281 
L 1581 2719 
L 3109 2719 
L 3109 3303 
L 3494 3303 
L 3494 1753 
L 3109 1753 
L 3109 2338 
L 1581 2338 
L 1581 384 
L 3775 384 
L 3775 1038 
L 4159 1038 
L 4159 0 
L 353 0 
z
" transform="scale(0.015625)"/>
      </defs>
      <use xlink:href="#DejaVuSerif-45"/>
      <use xlink:href="#DejaVuSerif-78" transform="translate(72.998047 0)"/>
      <use xlink:href="#DejaVuSerif-70" transform="translate(129.394531 0)"/>
      <use xlink:href="#DejaVuSerif-6f" transform="translate(193.408203 0)"/>
      <use xlink:href="#DejaVuSerif-6e" transform="translate(253.613281 0)"/>
      <use xlink:href="#DejaVuSerif-65" transform="translate(318.017578 0)"/>
      <use xlink:href="#DejaVuSerif-6e" transform="translate(377.197266 0)"/>
      <use xlink:href="#DejaVuSerif-74" transform="translate(441.601562 0)"/>
      <use xlink:href="#DejaVuSerif-69" transform="translate(481.787109 0)"/>
      <use xlink:href="#DejaVuSerif-61" transform="translate(513.769531 0)"/>
      <use xlink:href="#DejaVuSerif-6c" transform="translate(573.388672 0)"/>
      <use xlink:href="#DejaVuSerif-20" transform="translate(605.371094 0)"/>
      <use xlink:href="#DejaVuSerif-28" transform="translate(637.158203 0)"/>
      <use xlink:href="#DejaVuSerif-75" transform="translate(676.171875 0)"/>
      <use xlink:href="#DejaVuSerif-6e" transform="translate(740.576172 0)"/>
      <use xlink:href="#DejaVuSerif-62" transform="translate(804.980469 0)"/>
      <use xlink:href="#DejaVuSerif-6f" transform="translate(868.994141 0)"/>
      <use xlink:href="#DejaVuSerif-75" transform="translate(929.199219 0)"/>
      <use xlink:href="#DejaVuSerif-6e" transform="translate(993.603516 0)"/>
      <use xlink:href="#DejaVuSerif-64" transform="translate(1058.007812 0)"/>
      <use xlink:href="#DejaVuSerif-65" transform="translate(1122.021484 0)"/>
      <use xlink:href="#DejaVuSerif-64" transform="translate(1181.201172 0)"/>
      <use xlink:href="#DejaVuSerif-29" transform="translate(1245.214844 0)"/>
     </g>
    </g>
   </g>
  </g>
  <g id="axes_2">
   <g id="patch_6">
    <path d="M 521.343442 349.417969 
L 908.0975 349.417969 
L 908.0975 23.077969 
L 521.343442 23.077969 
z
" style="fill: #ffffff"/>
   </g>
   <g id="matplotlib.axis_3">
    <g id="xtick_9">
     <g id="line2d_38">
      <path d="M 521.343442 349.417969 
L 521.343442 23.077969 
" clip-path="url(#pece9b58eb6)" style="fill: none; stroke: #cccccc; stroke-width: 0.8; stroke-linecap: round"/>
     </g>
     <g id="line2d_39"/>
     <g id="text_24">
      <!-- 0 -->
      <g style="fill: #262626" transform="translate(517.844067 361.27625) scale(0.11 -0.11)">
       <use xlink:href="#DejaVuSerif-30"/>
      </g>
     </g>
    </g>
    <g id="xtick_10">
     <g id="line2d_40">
      <path d="M 576.594021 349.417969 
L 576.594021 23.077969 
" clip-path="url(#pece9b58eb6)" style="fill: none; stroke: #cccccc; stroke-width: 0.8; stroke-linecap: round"/>
     </g>
     <g id="line2d_41"/>
     <g id="text_25">
      <!-- 10 -->
      <g style="fill: #262626" transform="translate(569.595271 361.27625) scale(0.11 -0.11)">
       <use xlink:href="#DejaVuSerif-31"/>
       <use xlink:href="#DejaVuSerif-30" transform="translate(63.623047 0)"/>
      </g>
     </g>
    </g>
    <g id="xtick_11">
     <g id="line2d_42">
      <path d="M 631.844601 349.417969 
L 631.844601 23.077969 
" clip-path="url(#pece9b58eb6)" style="fill: none; stroke: #cccccc; stroke-width: 0.8; stroke-linecap: round"/>
     </g>
     <g id="line2d_43"/>
     <g id="text_26">
      <!-- 20 -->
      <g style="fill: #262626" transform="translate(624.845851 361.27625) scale(0.11 -0.11)">
       <use xlink:href="#DejaVuSerif-32"/>
       <use xlink:href="#DejaVuSerif-30" transform="translate(63.623047 0)"/>
      </g>
     </g>
    </g>
    <g id="xtick_12">
     <g id="line2d_44">
      <path d="M 687.095181 349.417969 
L 687.095181 23.077969 
" clip-path="url(#pece9b58eb6)" style="fill: none; stroke: #cccccc; stroke-width: 0.8; stroke-linecap: round"/>
     </g>
     <g id="line2d_45"/>
     <g id="text_27">
      <!-- 30 -->
      <g style="fill: #262626" transform="translate(680.096431 361.27625) scale(0.11 -0.11)">
       <use xlink:href="#DejaVuSerif-33"/>
       <use xlink:href="#DejaVuSerif-30" transform="translate(63.623047 0)"/>
      </g>
     </g>
    </g>
    <g id="xtick_13">
     <g id="line2d_46">
      <path d="M 742.345761 349.417969 
L 742.345761 23.077969 
" clip-path="url(#pece9b58eb6)" style="fill: none; stroke: #cccccc; stroke-width: 0.8; stroke-linecap: round"/>
     </g>
     <g id="line2d_47"/>
     <g id="text_28">
      <!-- 40 -->
      <g style="fill: #262626" transform="translate(735.347011 361.27625) scale(0.11 -0.11)">
       <use xlink:href="#DejaVuSerif-34"/>
       <use xlink:href="#DejaVuSerif-30" transform="translate(63.623047 0)"/>
      </g>
     </g>
    </g>
    <g id="xtick_14">
     <g id="line2d_48">
      <path d="M 797.59634 349.417969 
L 797.59634 23.077969 
" clip-path="url(#pece9b58eb6)" style="fill: none; stroke: #cccccc; stroke-width: 0.8; stroke-linecap: round"/>
     </g>
     <g id="line2d_49"/>
     <g id="text_29">
      <!-- 50 -->
      <g style="fill: #262626" transform="translate(790.59759 361.27625) scale(0.11 -0.11)">
       <use xlink:href="#DejaVuSerif-35"/>
       <use xlink:href="#DejaVuSerif-30" transform="translate(63.623047 0)"/>
      </g>
     </g>
    </g>
    <g id="xtick_15">
     <g id="line2d_50">
      <path d="M 852.84692 349.417969 
L 852.84692 23.077969 
" clip-path="url(#pece9b58eb6)" style="fill: none; stroke: #cccccc; stroke-width: 0.8; stroke-linecap: round"/>
     </g>
     <g id="line2d_51"/>
     <g id="text_30">
      <!-- 60 -->
      <g style="fill: #262626" transform="translate(845.84817 361.27625) scale(0.11 -0.11)">
       <use xlink:href="#DejaVuSerif-36"/>
       <use xlink:href="#DejaVuSerif-30" transform="translate(63.623047 0)"/>
      </g>
     </g>
    </g>
    <g id="xtick_16">
     <g id="line2d_52">
      <path d="M 908.0975 349.417969 
L 908.0975 23.077969 
" clip-path="url(#pece9b58eb6)" style="fill: none; stroke: #cccccc; stroke-width: 0.8; stroke-linecap: round"/>
     </g>
     <g id="line2d_53"/>
     <g id="text_31">
      <!-- 70 -->
      <g style="fill: #262626" transform="translate(901.09875 361.27625) scale(0.11 -0.11)">
       <use xlink:href="#DejaVuSerif-37"/>
       <use xlink:href="#DejaVuSerif-30" transform="translate(63.623047 0)"/>
      </g>
     </g>
    </g>
    <g id="text_32">
     <!-- Time $t$ -->
     <g style="fill: #262626" transform="translate(695.460471 376.682031) scale(0.12 -0.12)">
      <use xlink:href="#DejaVuSerif-54" transform="translate(0 0.421875)"/>
      <use xlink:href="#DejaVuSerif-69" transform="translate(66.699219 0.421875)"/>
      <use xlink:href="#DejaVuSerif-6d" transform="translate(98.681641 0.421875)"/>
      <use xlink:href="#DejaVuSerif-65" transform="translate(193.505859 0.421875)"/>
      <use xlink:href="#DejaVuSerif-20" transform="translate(252.685547 0.421875)"/>
      <use xlink:href="#Cmmi10-74" transform="translate(284.472656 0.421875)"/>
     </g>
    </g>
   </g>
   <g id="matplotlib.axis_4">
    <g id="ytick_8">
     <g id="line2d_54">
      <path d="M 521.343442 335.820469 
L 908.0975 335.820469 
" clip-path="url(#pece9b58eb6)" style="fill: none; stroke: #cccccc; stroke-width: 0.8; stroke-linecap: round"/>
     </g>
     <g id="line2d_55"/>
     <g id="text_33">
      <!-- 0 -->
      <g style="fill: #262626" transform="translate(510.844692 339.999609) scale(0.11 -0.11)">
       <use xlink:href="#DejaVuSerif-30"/>
      </g>
     </g>
    </g>
    <g id="ytick_9">
     <g id="line2d_56">
      <path d="M 521.343442 281.430469 
L 908.0975 281.430469 
" clip-path="url(#pece9b58eb6)" style="fill: none; stroke: #cccccc; stroke-width: 0.8; stroke-linecap: round"/>
     </g>
     <g id="line2d_57"/>
     <g id="text_34">
      <!-- 200 -->
      <g style="fill: #262626" transform="translate(496.847192 285.609609) scale(0.11 -0.11)">
       <use xlink:href="#DejaVuSerif-32"/>
       <use xlink:href="#DejaVuSerif-30" transform="translate(63.623047 0)"/>
       <use xlink:href="#DejaVuSerif-30" transform="translate(127.246094 0)"/>
      </g>
     </g>
    </g>
    <g id="ytick_10">
     <g id="line2d_58">
      <path d="M 521.343442 227.040469 
L 908.0975 227.040469 
" clip-path="url(#pece9b58eb6)" style="fill: none; stroke: #cccccc; stroke-width: 0.8; stroke-linecap: round"/>
     </g>
     <g id="line2d_59"/>
     <g id="text_35">
      <!-- 400 -->
      <g style="fill: #262626" transform="translate(496.847192 231.219609) scale(0.11 -0.11)">
       <use xlink:href="#DejaVuSerif-34"/>
       <use xlink:href="#DejaVuSerif-30" transform="translate(63.623047 0)"/>
       <use xlink:href="#DejaVuSerif-30" transform="translate(127.246094 0)"/>
      </g>
     </g>
    </g>
    <g id="ytick_11">
     <g id="line2d_60">
      <path d="M 521.343442 172.650469 
L 908.0975 172.650469 
" clip-path="url(#pece9b58eb6)" style="fill: none; stroke: #cccccc; stroke-width: 0.8; stroke-linecap: round"/>
     </g>
     <g id="line2d_61"/>
     <g id="text_36">
      <!-- 600 -->
      <g style="fill: #262626" transform="translate(496.847192 176.829609) scale(0.11 -0.11)">
       <use xlink:href="#DejaVuSerif-36"/>
       <use xlink:href="#DejaVuSerif-30" transform="translate(63.623047 0)"/>
       <use xlink:href="#DejaVuSerif-30" transform="translate(127.246094 0)"/>
      </g>
     </g>
    </g>
    <g id="ytick_12">
     <g id="line2d_62">
      <path d="M 521.343442 118.260469 
L 908.0975 118.260469 
" clip-path="url(#pece9b58eb6)" style="fill: none; stroke: #cccccc; stroke-width: 0.8; stroke-linecap: round"/>
     </g>
     <g id="line2d_63"/>
     <g id="text_37">
      <!-- 800 -->
      <g style="fill: #262626" transform="translate(496.847192 122.439609) scale(0.11 -0.11)">
       <use xlink:href="#DejaVuSerif-38"/>
       <use xlink:href="#DejaVuSerif-30" transform="translate(63.623047 0)"/>
       <use xlink:href="#DejaVuSerif-30" transform="translate(127.246094 0)"/>
      </g>
     </g>
    </g>
    <g id="ytick_13">
     <g id="line2d_64">
      <path d="M 521.343442 63.870469 
L 908.0975 63.870469 
" clip-path="url(#pece9b58eb6)" style="fill: none; stroke: #cccccc; stroke-width: 0.8; stroke-linecap: round"/>
     </g>
     <g id="line2d_65"/>
     <g id="text_38">
      <!-- 1000 -->
      <g style="fill: #262626" transform="translate(489.848442 68.049609) scale(0.11 -0.11)">
       <use xlink:href="#DejaVuSerif-31"/>
       <use xlink:href="#DejaVuSerif-30" transform="translate(63.623047 0)"/>
       <use xlink:href="#DejaVuSerif-30" transform="translate(127.246094 0)"/>
       <use xlink:href="#DejaVuSerif-30" transform="translate(190.869141 0)"/>
      </g>
     </g>
    </g>
    <g id="text_39">
     <!-- Population $P(t)$ -->
     <g style="fill: #262626" transform="translate(482.848442 231.547969) rotate(-90) scale(0.12 -0.12)">
      <use xlink:href="#DejaVuSerif-50" transform="translate(0 0.015625)"/>
      <use xlink:href="#DejaVuSerif-6f" transform="translate(67.285156 0.015625)"/>
      <use xlink:href="#DejaVuSerif-70" transform="translate(127.490234 0.015625)"/>
      <use xlink:href="#DejaVuSerif-75" transform="translate(191.503906 0.015625)"/>
      <use xlink:href="#DejaVuSerif-6c" transform="translate(255.908203 0.015625)"/>
      <use xlink:href="#DejaVuSerif-61" transform="translate(287.890625 0.015625)"/>
      <use xlink:href="#DejaVuSerif-74" transform="translate(347.509766 0.015625)"/>
      <use xlink:href="#DejaVuSerif-69" transform="translate(387.695312 0.015625)"/>
      <use xlink:href="#DejaVuSerif-6f" transform="translate(419.677734 0.015625)"/>
      <use xlink:href="#DejaVuSerif-6e" transform="translate(479.882812 0.015625)"/>
      <use xlink:href="#DejaVuSerif-20" transform="translate(544.287109 0.015625)"/>
      <use xlink:href="#Cmmi10-50" transform="translate(576.074219 0.015625)"/>
      <use xlink:href="#Cmr10-28" transform="translate(640.283203 0.015625)"/>
      <use xlink:href="#Cmmi10-74" transform="translate(679.101562 0.015625)"/>
      <use xlink:href="#Cmr10-29" transform="translate(715.185547 0.015625)"/>
     </g>
    </g>
   </g>
   <g id="patch_7">
    <path d="M 521.343442 349.417969 
L 604.219311 349.417969 
L 604.219311 23.077969 
L 521.343442 23.077969 
z
" clip-path="url(#pece9b58eb6)" style="fill: #dc2626; opacity: 0.15; stroke: #dc2626; stroke-linejoin: miter"/>
   </g>
   <g id="patch_8">
    <path d="M 604.219311 349.417969 
L 769.971051 349.417969 
L 769.971051 23.077969 
L 604.219311 23.077969 
z
" clip-path="url(#pece9b58eb6)" style="fill: #7c3aed; opacity: 0.15; stroke: #7c3aed; stroke-linejoin: miter"/>
   </g>
   <g id="patch_9">
    <path d="M 769.971051 349.417969 
L 852.84692 349.417969 
L 852.84692 23.077969 
L 769.971051 23.077969 
z
" clip-path="url(#pece9b58eb6)" style="fill: #059669; opacity: 0.15; stroke: #059669; stroke-linejoin: miter"/>
   </g>
   <g id="line2d_66">
    <path d="M 521.343442 322.222969 
L 526.340981 320.359404 
L 531.338521 318.257795 
L 536.336061 315.892712 
L 541.333601 313.237409 
L 546.331141 310.264174 
L 551.328681 306.944817 
L 556.326221 303.251318 
L 561.323761 299.15664 
L 566.3213 294.635737 
L 571.31884 289.666728 
L 576.31638 284.232222 
L 581.31392 278.320769 
L 586.31146 271.92833 
L 591.309 265.059716 
L 596.30654 257.729849 
L 601.30408 249.964719 
L 606.30162 241.801922 
L 612.965006 230.386182 
L 619.628393 218.498291 
L 631.289319 197.093327 
L 642.950245 175.823954 
L 649.613632 164.127344 
L 654.611172 155.702463 
L 659.608712 147.640129 
L 664.606251 139.986502 
L 669.603791 132.776098 
L 674.601331 126.031921 
L 679.598871 119.766119 
L 684.596411 113.981041 
L 689.593951 108.670552 
L 694.591491 103.821494 
L 699.589031 99.415158 
L 704.58657 95.428703 
L 709.58411 91.836453 
L 714.58165 88.611023 
L 719.57919 85.724274 
L 724.57673 83.148087 
L 729.57427 80.854964 
L 734.57181 78.818477 
L 739.56935 77.013584 
L 744.56689 75.41683 
L 749.564429 74.006468 
L 756.227816 72.381609 
L 762.891202 71.01012 
L 769.554589 69.854614 
L 777.883822 68.664857 
L 786.213055 67.708233 
L 796.208135 66.806012 
L 807.869061 66.015691 
L 821.195834 65.368021 
L 836.188454 64.869109 
L 852.84692 64.506642 
L 852.84692 64.506642 
" clip-path="url(#pece9b58eb6)" style="fill: none; stroke: #2563eb; stroke-width: 3; stroke-linecap: round"/>
   </g>
   <g id="line2d_67">
    <path d="M 521.343442 63.870469 
L 908.0975 63.870469 
" clip-path="url(#pece9b58eb6)" style="fill: none; stroke-dasharray: 7.4,3.2; stroke-dashoffset: 0; stroke: #059669; stroke-opacity: 0.8; stroke-width: 2"/>
   </g>
   <g id="line2d_68">
    <path d="M 521.343442 335.820469 
L 908.0975 335.820469 
" clip-path="url(#pece9b58eb6)" style="fill: none; stroke-dasharray: 3.7,1.6; stroke-dashoffset: 0; stroke: #808080; stroke-opacity: 0.5"/>
   </g>
   <g id="patch_10">
    <path d="M 521.343442 349.417969 
L 521.343442 23.077969 
" style="fill: none; stroke: #cccccc; stroke-linejoin: miter; stroke-linecap: square"/>
   </g>
   <g id="patch_11">
    <path d="M 521.343442 349.417969 
L 908.0975 349.417969 
" style="fill: none; stroke: #cccccc; stroke-linejoin: miter; stroke-linecap: square"/>
   </g>
   <g id="text_40">
    <!-- Phase 1: -->
    <g style="fill: #dc2626" transform="translate(543.390595 286.469719) scale(0.09 -0.09)">
     <defs>
      <path id="DejaVuSerif-3a" d="M 666 325 
Q 666 500 786 622 
Q 906 744 1081 744 
Q 1256 744 1376 622 
Q 1497 500 1497 325 
Q 1497 150 1378 29 
Q 1259 -91 1081 -91 
Q 903 -91 784 29 
Q 666 150 666 325 
z
M 666 2363 
Q 666 2538 786 2658 
Q 906 2778 1081 2778 
Q 1259 2778 1378 2659 
Q 1497 2541 1497 2363 
Q 1497 2184 1378 2065 
Q 1259 1947 1081 1947 
Q 906 1947 786 2067 
Q 666 2188 666 2363 
z
" transform="scale(0.015625)"/>
     </defs>
     <use xlink:href="#DejaVuSerif-50"/>
     <use xlink:href="#DejaVuSerif-68" transform="translate(67.285156 0)"/>
     <use xlink:href="#DejaVuSerif-61" transform="translate(131.689453 0)"/>
     <use xlink:href="#DejaVuSerif-73" transform="translate(191.308594 0)"/>
     <use xlink:href="#DejaVuSerif-65" transform="translate(242.626953 0)"/>
     <use xlink:href="#DejaVuSerif-20" transform="translate(301.806641 0)"/>
     <use xlink:href="#DejaVuSerif-31" transform="translate(333.59375 0)"/>
     <use xlink:href="#DejaVuSerif-3a" transform="translate(397.216797 0)"/>
    </g>
    <!-- Exponential-like -->
    <g style="fill: #dc2626" transform="translate(525.749189 296.54775) scale(0.09 -0.09)">
     <defs>
      <path id="DejaVuSerif-2d" d="M 281 1959 
L 1881 1959 
L 1881 1472 
L 281 1472 
L 281 1959 
z
" transform="scale(0.015625)"/>
      <path id="DejaVuSerif-6b" d="M 1831 0 
L 219 0 
L 219 331 
L 738 331 
L 738 4531 
L 184 4531 
L 184 4863 
L 1313 4863 
L 1313 1697 
L 2713 2988 
L 2234 2988 
L 2234 3322 
L 3738 3322 
L 3738 2988 
L 3169 2988 
L 2181 2075 
L 3444 331 
L 3922 331 
L 3922 0 
L 2284 0 
L 2284 331 
L 2759 331 
L 1766 1697 
L 1313 1275 
L 1313 331 
L 1831 331 
L 1831 0 
z
" transform="scale(0.015625)"/>
     </defs>
     <use xlink:href="#DejaVuSerif-45"/>
     <use xlink:href="#DejaVuSerif-78" transform="translate(72.998047 0)"/>
     <use xlink:href="#DejaVuSerif-70" transform="translate(129.394531 0)"/>
     <use xlink:href="#DejaVuSerif-6f" transform="translate(193.408203 0)"/>
     <use xlink:href="#DejaVuSerif-6e" transform="translate(253.613281 0)"/>
     <use xlink:href="#DejaVuSerif-65" transform="translate(318.017578 0)"/>
     <use xlink:href="#DejaVuSerif-6e" transform="translate(377.197266 0)"/>
     <use xlink:href="#DejaVuSerif-74" transform="translate(441.601562 0)"/>
     <use xlink:href="#DejaVuSerif-69" transform="translate(481.787109 0)"/>
     <use xlink:href="#DejaVuSerif-61" transform="translate(513.769531 0)"/>
     <use xlink:href="#DejaVuSerif-6c" transform="translate(573.388672 0)"/>
     <use xlink:href="#DejaVuSerif-2d" transform="translate(605.371094 0)"/>
     <use xlink:href="#DejaVuSerif-6c" transform="translate(639.160156 0)"/>
     <use xlink:href="#DejaVuSerif-69" transform="translate(671.142578 0)"/>
     <use xlink:href="#DejaVuSerif-6b" transform="translate(703.125 0)"/>
     <use xlink:href="#DejaVuSerif-65" transform="translate(763.720703 0)"/>
    </g>
    <!-- growth -->
    <g style="fill: #dc2626" transform="translate(546.482236 306.625781) scale(0.09 -0.09)">
     <use xlink:href="#DejaVuSerif-67"/>
     <use xlink:href="#DejaVuSerif-72" transform="translate(64.013672 0)"/>
     <use xlink:href="#DejaVuSerif-6f" transform="translate(111.816406 0)"/>
     <use xlink:href="#DejaVuSerif-77" transform="translate(172.021484 0)"/>
     <use xlink:href="#DejaVuSerif-74" transform="translate(257.617188 0)"/>
     <use xlink:href="#DejaVuSerif-68" transform="translate(297.802734 0)"/>
    </g>
   </g>
   <g id="text_41">
    <!-- Phase 2: -->
    <g style="fill: #7c3aed" transform="translate(667.7044 150.494719) scale(0.09 -0.09)">
     <use xlink:href="#DejaVuSerif-50"/>
     <use xlink:href="#DejaVuSerif-68" transform="translate(67.285156 0)"/>
     <use xlink:href="#DejaVuSerif-61" transform="translate(131.689453 0)"/>
     <use xlink:href="#DejaVuSerif-73" transform="translate(191.308594 0)"/>
     <use xlink:href="#DejaVuSerif-65" transform="translate(242.626953 0)"/>
     <use xlink:href="#DejaVuSerif-20" transform="translate(301.806641 0)"/>
     <use xlink:href="#DejaVuSerif-32" transform="translate(333.59375 0)"/>
     <use xlink:href="#DejaVuSerif-3a" transform="translate(397.216797 0)"/>
    </g>
    <!-- Maximum -->
    <g style="fill: #7c3aed" transform="translate(664.39479 160.57275) scale(0.09 -0.09)">
     <defs>
      <path id="DejaVuSerif-4d" d="M 353 0 
L 353 331 
L 947 331 
L 947 4331 
L 319 4331 
L 319 4666 
L 1678 4666 
L 3316 1344 
L 4953 4666 
L 6228 4666 
L 6228 4331 
L 5606 4331 
L 5606 331 
L 6203 331 
L 6203 0 
L 4378 0 
L 4378 331 
L 4972 331 
L 4972 3938 
L 3372 684 
L 2931 684 
L 1331 3938 
L 1331 331 
L 1925 331 
L 1925 0 
L 353 0 
z
" transform="scale(0.015625)"/>
     </defs>
     <use xlink:href="#DejaVuSerif-4d"/>
     <use xlink:href="#DejaVuSerif-61" transform="translate(102.392578 0)"/>
     <use xlink:href="#DejaVuSerif-78" transform="translate(162.011719 0)"/>
     <use xlink:href="#DejaVuSerif-69" transform="translate(218.408203 0)"/>
     <use xlink:href="#DejaVuSerif-6d" transform="translate(250.390625 0)"/>
     <use xlink:href="#DejaVuSerif-75" transform="translate(345.214844 0)"/>
     <use xlink:href="#DejaVuSerif-6d" transform="translate(409.619141 0)"/>
    </g>
    <!-- growth rate -->
    <g style="fill: #7c3aed" transform="translate(660.060025 170.650781) scale(0.09 -0.09)">
     <use xlink:href="#DejaVuSerif-67"/>
     <use xlink:href="#DejaVuSerif-72" transform="translate(64.013672 0)"/>
     <use xlink:href="#DejaVuSerif-6f" transform="translate(111.816406 0)"/>
     <use xlink:href="#DejaVuSerif-77" transform="translate(172.021484 0)"/>
     <use xlink:href="#DejaVuSerif-74" transform="translate(257.617188 0)"/>
     <use xlink:href="#DejaVuSerif-68" transform="translate(297.802734 0)"/>
     <use xlink:href="#DejaVuSerif-20" transform="translate(362.207031 0)"/>
     <use xlink:href="#DejaVuSerif-72" transform="translate(393.994141 0)"/>
     <use xlink:href="#DejaVuSerif-61" transform="translate(441.796875 0)"/>
     <use xlink:href="#DejaVuSerif-74" transform="translate(501.416016 0)"/>
     <use xlink:href="#DejaVuSerif-65" transform="translate(541.601562 0)"/>
    </g>
   </g>
   <g id="text_42">
    <!-- Phase 3: -->
    <g style="fill: #059669" transform="translate(792.018204 79.115719) scale(0.09 -0.09)">
     <use xlink:href="#DejaVuSerif-50"/>
     <use xlink:href="#DejaVuSerif-68" transform="translate(67.285156 0)"/>
     <use xlink:href="#DejaVuSerif-61" transform="translate(131.689453 0)"/>
     <use xlink:href="#DejaVuSerif-73" transform="translate(191.308594 0)"/>
     <use xlink:href="#DejaVuSerif-65" transform="translate(242.626953 0)"/>
     <use xlink:href="#DejaVuSerif-20" transform="translate(301.806641 0)"/>
     <use xlink:href="#DejaVuSerif-33" transform="translate(333.59375 0)"/>
     <use xlink:href="#DejaVuSerif-3a" transform="translate(397.216797 0)"/>
    </g>
    <!-- Saturation -->
    <g style="fill: #059669" transform="translate(787.247501 89.19375) scale(0.09 -0.09)">
     <defs>
      <path id="DejaVuSerif-53" d="M 594 225 
L 594 1288 
L 953 1284 
Q 969 753 1261 498 
Q 1553 244 2150 244 
Q 2706 244 2998 464 
Q 3291 684 3291 1106 
Q 3291 1444 3114 1625 
Q 2938 1806 2369 1978 
L 1753 2163 
Q 1084 2366 811 2669 
Q 538 2972 538 3500 
Q 538 4094 959 4422 
Q 1381 4750 2144 4750 
Q 2469 4750 2856 4679 
Q 3244 4609 3681 4475 
L 3681 3481 
L 3328 3481 
Q 3275 3975 2998 4195 
Q 2722 4416 2156 4416 
Q 1663 4416 1405 4214 
Q 1147 4013 1147 3628 
Q 1147 3294 1340 3103 
Q 1534 2913 2163 2725 
L 2741 2553 
Q 3375 2363 3645 2067 
Q 3916 1772 3916 1275 
Q 3916 597 3481 253 
Q 3047 -91 2188 -91 
Q 1803 -91 1404 -12 
Q 1006 66 594 225 
z
" transform="scale(0.015625)"/>
     </defs>
     <use xlink:href="#DejaVuSerif-53"/>
     <use xlink:href="#DejaVuSerif-61" transform="translate(68.505859 0)"/>
     <use xlink:href="#DejaVuSerif-74" transform="translate(128.125 0)"/>
     <use xlink:href="#DejaVuSerif-75" transform="translate(168.310547 0)"/>
     <use xlink:href="#DejaVuSerif-72" transform="translate(232.714844 0)"/>
     <use xlink:href="#DejaVuSerif-61" transform="translate(280.517578 0)"/>
     <use xlink:href="#DejaVuSerif-74" transform="translate(340.136719 0)"/>
     <use xlink:href="#DejaVuSerif-69" transform="translate(380.322266 0)"/>
     <use xlink:href="#DejaVuSerif-6f" transform="translate(412.304688 0)"/>
     <use xlink:href="#DejaVuSerif-6e" transform="translate(472.509766 0)"/>
    </g>
   </g>
   <g id="text_43">
    <!-- $K$ -->
    <g style="fill: #059669" transform="translate(863.897036 66.905781) scale(0.11 -0.11)">
     <use xlink:href="#Cmmi10-4b" transform="translate(0 0.6875)"/>
    </g>
   </g>
   <g id="text_44">
    <!-- $0$ -->
    <g style="fill: #808080" transform="translate(863.897036 333.416781) scale(0.11 -0.11)">
     <use xlink:href="#Cmr10-30" transform="translate(0 0.390625)"/>
    </g>
   </g>
   <g id="text_45">
    <g id="patch_12">
     <path d="M 834.472419 286.874562 
L 900.362419 286.874562 
Q 904.762419 286.874562 904.762419 282.474562 
L 904.762419 234.868969 
Q 904.762419 230.468969 900.362419 230.468969 
L 834.472419 230.468969 
Q 830.072419 230.468969 830.072419 234.868969 
L 830.072419 282.474562 
Q 830.072419 286.874562 834.472419 286.874562 
z
" style="fill: #f0f9ff; opacity: 0.95; stroke: #2563eb; stroke-linejoin: miter"/>
    </g>
    <!-- $P(t) = \frac{K}{1 + Ae^{-\alpha t}}$ -->
    <g style="fill: #262626" transform="translate(834.472419 244.658969) scale(0.11 -0.11)">
     <defs>
      <path id="Cmr10-2b" d="M 481 1472 
Q 428 1472 393 1512 
Q 359 1553 359 1600 
Q 359 1647 393 1687 
Q 428 1728 481 1728 
L 2363 1728 
L 2363 3616 
Q 2363 3666 2400 3698 
Q 2438 3731 2491 3731 
Q 2538 3731 2578 3698 
Q 2619 3666 2619 3616 
L 2619 1728 
L 4500 1728 
Q 4547 1728 4581 1687 
Q 4616 1647 4616 1600 
Q 4616 1553 4581 1512 
Q 4547 1472 4500 1472 
L 2619 1472 
L 2619 -416 
Q 2619 -466 2578 -498 
Q 2538 -531 2491 -531 
Q 2438 -531 2400 -498 
Q 2363 -466 2363 -416 
L 2363 1472 
L 481 1472 
z
" transform="scale(0.015625)"/>
      <path id="Cmmi10-41" d="M 288 0 
Q 225 0 225 84 
Q 250 225 306 225 
Q 566 225 755 328 
Q 944 431 1081 647 
Q 1094 659 1094 659 
L 3378 4513 
Q 3428 4581 3500 4581 
L 3584 4581 
Q 3603 4581 3622 4573 
Q 3641 4566 3655 4548 
Q 3669 4531 3669 4513 
L 4056 378 
Q 4056 350 4084 294 
Q 4147 225 4563 225 
Q 4628 225 4628 141 
Q 4606 56 4592 28 
Q 4578 0 4519 0 
L 2919 0 
Q 2859 0 2859 84 
Q 2894 225 2944 225 
Q 3450 225 3481 397 
L 3384 1453 
L 1806 1453 
L 1294 594 
Q 1247 525 1247 434 
Q 1247 322 1355 273 
Q 1463 225 1594 225 
Q 1656 225 1656 141 
Q 1634 50 1621 25 
Q 1609 0 1550 0 
L 288 0 
z
M 1931 1678 
L 3359 1678 
L 3169 3750 
L 1931 1678 
z
" transform="scale(0.015625)"/>
      <path id="Cmmi10-65" d="M 1288 -72 
Q 981 -72 751 87 
Q 522 247 401 517 
Q 281 788 281 1088 
Q 281 1544 511 1945 
Q 741 2347 1134 2587 
Q 1528 2828 1978 2828 
Q 2253 2828 2458 2686 
Q 2663 2544 2663 2278 
Q 2663 1909 2369 1729 
Q 2075 1550 1706 1508 
Q 1338 1466 891 1466 
L 872 1466 
Q 769 1084 769 813 
Q 769 528 900 312 
Q 1031 97 1300 97 
Q 1681 97 2032 272 
Q 2384 447 2606 756 
Q 2625 775 2656 775 
Q 2688 775 2720 739 
Q 2753 703 2753 672 
Q 2753 647 2741 634 
Q 2506 306 2109 117 
Q 1713 -72 1288 -72 
z
M 909 1631 
Q 1281 1631 1597 1665 
Q 1913 1700 2169 1839 
Q 2425 1978 2425 2272 
Q 2425 2391 2359 2480 
Q 2294 2569 2189 2616 
Q 2084 2663 1972 2663 
Q 1700 2663 1483 2516 
Q 1266 2369 1125 2133 
Q 984 1897 909 1631 
z
" transform="scale(0.015625)"/>
      <path id="Cmsy10-a1" d="M 653 1472 
Q 600 1472 565 1512 
Q 531 1553 531 1600 
Q 531 1647 565 1687 
Q 600 1728 653 1728 
L 4325 1728 
Q 4375 1728 4408 1687 
Q 4441 1647 4441 1600 
Q 4441 1553 4408 1512 
Q 4375 1472 4325 1472 
L 653 1472 
z
" transform="scale(0.015625)"/>
      <path id="Cmmi10-ae" d="M 1288 -72 
Q 984 -72 748 72 
Q 513 216 384 459 
Q 256 703 256 1013 
Q 256 1447 498 1872 
Q 741 2297 1142 2562 
Q 1544 2828 1984 2828 
Q 2309 2828 2556 2658 
Q 2803 2488 2931 2205 
Q 3059 1922 3059 1600 
L 3066 1172 
Q 3284 1475 3436 1801 
Q 3588 2128 3669 2478 
Q 3681 2516 3719 2516 
L 3794 2516 
Q 3853 2516 3853 2456 
Q 3853 2450 3847 2438 
Q 3772 2144 3659 1873 
Q 3547 1603 3395 1350 
Q 3244 1097 3066 891 
Q 3066 97 3250 97 
Q 3369 97 3445 167 
Q 3522 238 3580 341 
Q 3638 444 3653 447 
L 3731 447 
Q 3781 447 3781 384 
Q 3781 225 3598 76 
Q 3416 -72 3238 -72 
Q 3006 -72 2853 78 
Q 2700 228 2644 469 
Q 2344 213 1994 70 
Q 1644 -72 1288 -72 
z
M 1300 97 
Q 1984 97 2613 659 
Q 2609 697 2603 751 
Q 2597 806 2597 813 
L 2597 1503 
Q 2597 2663 1972 2663 
Q 1597 2663 1315 2342 
Q 1034 2022 892 1576 
Q 750 1131 750 763 
Q 750 484 892 290 
Q 1034 97 1300 97 
z
" transform="scale(0.015625)"/>
     </defs>
     <use xlink:href="#Cmmi10-50" transform="translate(0 0.68125)"/>
     <use xlink:href="#Cmr10-28" transform="translate(64.208984 0.68125)"/>
     <use xlink:href="#Cmmi10-74" transform="translate(103.027344 0.68125)"/>
     <use xlink:href="#Cmr10-29" transform="translate(139.111328 0.68125)"/>
     <use xlink:href="#Cmr10-3d" transform="translate(195.488281 0.68125)"/>
     <use xlink:href="#Cmmi10-4b" transform="translate(408.732422 38.18125) scale(0.7)"/>
     <use xlink:href="#Cmr10-31" transform="translate(290.732422 -50.524531) scale(0.7)"/>
     <use xlink:href="#Cmr10-2b" transform="translate(338.023438 -50.524531) scale(0.7)"/>
     <use xlink:href="#Cmmi10-41" transform="translate(404.694336 -50.524531) scale(0.7)"/>
     <use xlink:href="#Cmmi10-65" transform="translate(457.194336 -50.524531) scale(0.7)"/>
     <use xlink:href="#Cmsy10-a1" transform="translate(494.145695 -23.739688) scale(0.49)"/>
     <use xlink:href="#Cmmi10-ae" transform="translate(532.211613 -23.739688) scale(0.49)"/>
     <use xlink:href="#Cmmi10-74" transform="translate(563.530461 -23.739688) scale(0.49)"/>
     <path d="M 290.732422 13.18125 
L 290.732422 19.43125 
L 585.675754 19.43125 
L 585.675754 13.18125 
L 290.732422 13.18125 
z
"/>
    </g>
    <!--  -->
    <g style="fill: #262626" transform="translate(900.362419 261.068906) scale(0.11 -0.11)"/>
    <!-- $A = \frac{K - P_0}{P_0}$ -->
    <g style="fill: #262626" transform="translate(854.932419 276.424562) scale(0.11 -0.11)">
     <use xlink:href="#Cmmi10-41" transform="translate(0 0.697344)"/>
     <use xlink:href="#Cmr10-3d" transform="translate(92.558594 0.697344)"/>
     <use xlink:href="#Cmmi10-4b" transform="translate(187.802734 51.18125) scale(0.7)"/>
     <use xlink:href="#Cmsy10-a1" transform="translate(259.532227 51.18125) scale(0.7)"/>
     <use xlink:href="#Cmmi10-50" transform="translate(326.203125 51.18125) scale(0.7)"/>
     <use xlink:href="#Cmr10-30" transform="translate(371.149414 39.276875) scale(0.49)"/>
     <use xlink:href="#Cmmi10-50" transform="translate(256.802734 -40.871406) scale(0.7)"/>
     <use xlink:href="#Cmr10-30" transform="translate(301.749023 -52.775781) scale(0.49)"/>
     <path d="M 187.802734 13.197344 
L 187.802734 19.447344 
L 400.113555 19.447344 
L 400.113555 13.197344 
L 187.802734 13.197344 
z
"/>
    </g>
   </g>
   <g id="text_46">
    <!-- The Logistic S-Curve -->
    <g style="fill: #262626" transform="translate(638.623752 17.077969) scale(0.13 -0.13)">
     <defs>
      <path id="DejaVuSerif-Bold-54" d="M 1159 0 
L 1159 378 
L 1778 378 
L 1778 4238 
L 500 4238 
L 500 3500 
L 72 3500 
L 72 4666 
L 4697 4666 
L 4697 3500 
L 4275 3500 
L 4275 4238 
L 2988 4238 
L 2988 378 
L 3609 378 
L 3609 0 
L 1159 0 
z
" transform="scale(0.015625)"/>
      <path id="DejaVuSerif-Bold-53" d="M 494 225 
L 494 1331 
L 891 1331 
Q 981 806 1318 547 
Q 1656 288 2253 288 
Q 2738 288 2991 472 
Q 3244 656 3244 1013 
Q 3244 1294 3072 1450 
Q 2900 1606 2363 1741 
L 1663 1913 
Q 978 2088 700 2398 
Q 422 2709 422 3284 
Q 422 3978 883 4364 
Q 1344 4750 2175 4750 
Q 2584 4750 3026 4681 
Q 3469 4613 3944 4475 
L 3944 3444 
L 3547 3444 
Q 3456 3925 3150 4148 
Q 2844 4372 2278 4372 
Q 1816 4372 1580 4211 
Q 1344 4050 1344 3731 
Q 1344 3441 1506 3289 
Q 1669 3138 2303 2975 
L 3003 2803 
Q 3653 2641 3945 2297 
Q 4238 1953 4238 1350 
Q 4238 644 3750 276 
Q 3263 -91 2316 -91 
Q 1859 -91 1409 -12 
Q 959 66 494 225 
z
" transform="scale(0.015625)"/>
      <path id="DejaVuSerif-Bold-2d" d="M 347 2138 
L 2309 2138 
L 2309 1294 
L 347 1294 
L 347 2138 
z
" transform="scale(0.015625)"/>
      <path id="DejaVuSerif-Bold-75" d="M 3963 3322 
L 3963 378 
L 4434 378 
L 4434 0 
L 2853 0 
L 2853 469 
Q 2656 172 2400 40 
Q 2144 -91 1753 -91 
Q 1194 -91 908 239 
Q 622 569 622 1209 
L 622 2944 
L 147 2944 
L 147 3322 
L 1728 3322 
L 1728 1381 
Q 1728 763 1831 595 
Q 1934 428 2209 428 
Q 2544 428 2698 675 
Q 2853 922 2853 1459 
L 2853 2944 
L 2450 2944 
L 2450 3322 
L 3963 3322 
z
" transform="scale(0.015625)"/>
     </defs>
     <use xlink:href="#DejaVuSerif-Bold-54"/>
     <use xlink:href="#DejaVuSerif-Bold-68" transform="translate(74.414062 0)"/>
     <use xlink:href="#DejaVuSerif-Bold-65" transform="translate(147.119141 0)"/>
     <use xlink:href="#DejaVuSerif-Bold-20" transform="translate(210.742188 0)"/>
     <use xlink:href="#DejaVuSerif-Bold-4c" transform="translate(245.556641 0)"/>
     <use xlink:href="#DejaVuSerif-Bold-6f" transform="translate(315.869141 0)"/>
     <use xlink:href="#DejaVuSerif-Bold-67" transform="translate(382.568359 0)"/>
     <use xlink:href="#DejaVuSerif-Bold-69" transform="translate(452.490234 0)"/>
     <use xlink:href="#DejaVuSerif-Bold-73" transform="translate(490.478516 0)"/>
     <use xlink:href="#DejaVuSerif-Bold-74" transform="translate(546.777344 0)"/>
     <use xlink:href="#DejaVuSerif-Bold-69" transform="translate(592.96875 0)"/>
     <use xlink:href="#DejaVuSerif-Bold-63" transform="translate(630.957031 0)"/>
     <use xlink:href="#DejaVuSerif-Bold-20" transform="translate(691.845703 0)"/>
     <use xlink:href="#DejaVuSerif-Bold-53" transform="translate(726.660156 0)"/>
     <use xlink:href="#DejaVuSerif-Bold-2d" transform="translate(802.501953 0)"/>
     <use xlink:href="#DejaVuSerif-Bold-43" transform="translate(844.005859 0)"/>
     <use xlink:href="#DejaVuSerif-Bold-75" transform="translate(923.595703 0)"/>
     <use xlink:href="#DejaVuSerif-Bold-72" transform="translate(996.300781 0)"/>
     <use xlink:href="#DejaVuSerif-Bold-76" transform="translate(1048.986328 0)"/>
     <use xlink:href="#DejaVuSerif-Bold-65" transform="translate(1107.091797 0)"/>
    </g>
   </g>
  </g>
 </g>
 <defs>
  <clipPath id="p2368eb3370">
   <rect x="54.815" y="23.077969" width="386.754058" height="326.34"/>
  </clipPath>
  <clipPath id="pece9b58eb6">
   <rect x="521.343442" y="23.077969" width="386.754058" height="326.34"/>
  </clipPath>
 </defs>
</svg>
