<?xml version="1.0" encoding="utf-8" standalone="no"?>
<!DOCTYPE svg PUBLIC "-//W3C//DTD SVG 1.1//EN"
  "http://www.w3.org/Graphics/SVG/1.1/DTD/svg11.dtd">
<svg xmlns:xlink="http://www.w3.org/1999/xlink" width="627.958295pt" height="347.13375pt" viewBox="0 0 627.958295 347.13375" xmlns="http://www.w3.org/2000/svg" version="1.1">
 <metadata>
  <rdf:RDF xmlns:dc="http://purl.org/dc/elements/1.1/" xmlns:cc="http://creativecommons.org/ns#" xmlns:rdf="http://www.w3.org/1999/02/22-rdf-syntax-ns#">
   <cc:Work>
    <dc:type rdf:resource="http://purl.org/dc/dcmitype/StillImage"/>
    <dc:date>2026-02-19T08:27:12.156171</dc:date>
    <dc:format>image/svg+xml</dc:format>
    <dc:creator>
     <cc:Agent>
      <dc:title>Matplotlib v3.10.1, https://matplotlib.org/</dc:title>
     </cc:Agent>
    </dc:creator>
   </cc:Work>
  </rdf:RDF>
 </metadata>
 <defs>
  <style type="text/css">*{stroke-linejoin: round; stroke-linecap: butt}</style>
 </defs>
 <g id="figure_1">
  <g id="patch_1">
   <path d="M 0 347.13375 
L 627.958295 347.13375 
L 627.958295 0 
L 0 0 
z
" style="fill: #ffffff"/>
  </g>
  <g id="axes_1">
   <g id="patch_2">
    <path d="M 29.91375 317.22 
L 617.158295 317.22 
L 617.158295 10.8 
L 29.91375 10.8 
z
" style="fill: #ffffff"/>
   </g>
   <g id="matplotlib.axis_1">
    <g id="xtick_1">
     <g id="line2d_1">
      <path d="M 56.606684 317.22 
L 56.606684 10.8 
" clip-path="url(#p553f329344)" style="fill: none; stroke: #cccccc; stroke-width: 0.8; stroke-linecap: round"/>
     </g>
     <g id="line2d_2"/>
    </g>
    <g id="xtick_2">
     <g id="line2d_3">
      <path d="M 167.827242 317.22 
L 167.827242 10.8 
" clip-path="url(#p553f329344)" style="fill: none; stroke: #cccccc; stroke-width: 0.8; stroke-linecap: round"/>
     </g>
     <g id="line2d_4"/>
    </g>
    <g id="xtick_3">
     <g id="line2d_5">
      <path d="M 279.0478 317.22 
L 279.0478 10.8 
" clip-path="url(#p553f329344)" style="fill: none; stroke: #cccccc; stroke-width: 0.8; stroke-linecap: round"/>
     </g>
     <g id="line2d_6"/>
    </g>
    <g id="xtick_4">
     <g id="line2d_7">
      <path d="M 390.268357 317.22 
L 390.268357 10.8 
" clip-path="url(#p553f329344)" style="fill: none; stroke: #cccccc; stroke-width: 0.8; stroke-linecap: round"/>
     </g>
     <g id="line2d_8"/>
    </g>
    <g id="xtick_5">
     <g id="line2d_9">
      <path d="M 501.488915 317.22 
L 501.488915 10.8 
" clip-path="url(#p553f329344)" style="fill: none; stroke: #cccccc; stroke-width: 0.8; stroke-linecap: round"/>
     </g>
     <g id="line2d_10"/>
    </g>
    <g id="xtick_6">
     <g id="line2d_11">
      <path d="M 612.709473 317.22 
L 612.709473 10.8 
" clip-path="url(#p553f329344)" style="fill: none; stroke: #cccccc; stroke-width: 0.8; stroke-linecap: round"/>
     </g>
     <g id="line2d_12"/>
    </g>
    <g id="text_1">
     <!-- Time (hours) -->
     <g style="fill: #262626" transform="translate(284.497585 333.838125) scale(0.12 -0.12)">
      <defs>
       <path id="DejaVuSerif-54" d="M 1222 0 
L 1222 331 
L 1819 331 
L 1819 4294 
L 447 4294 
L 447 3566 
L 63 3566 
L 63 4666 
L 4206 4666 
L 4206 3566 
L 3822 3566 
L 3822 4294 
L 2450 4294 
L 2450 331 
L 3047 331 
L 3047 0 
L 1222 0 
z
" transform="scale(0.015625)"/>
       <path id="DejaVuSerif-69" d="M 622 4353 
Q 622 4497 726 4603 
Q 831 4709 978 4709 
Q 1122 4709 1226 4603 
Q 1331 4497 1331 4353 
Q 1331 4206 1228 4103 
Q 1125 4000 978 4000 
Q 831 4000 726 4103 
Q 622 4206 622 4353 
z
M 1356 331 
L 1900 331 
L 1900 0 
L 231 0 
L 231 331 
L 781 331 
L 781 2988 
L 231 2988 
L 231 3322 
L 1356 3322 
L 1356 331 
z
" transform="scale(0.015625)"/>
       <path id="DejaVuSerif-6d" d="M 3316 2675 
Q 3481 3041 3739 3227 
Q 3997 3413 4341 3413 
Q 4863 3413 5119 3089 
Q 5375 2766 5375 2113 
L 5375 331 
L 5894 331 
L 5894 0 
L 4300 0 
L 4300 331 
L 4800 331 
L 4800 2047 
Q 4800 2556 4650 2772 
Q 4500 2988 4153 2988 
Q 3769 2988 3567 2697 
Q 3366 2406 3366 1850 
L 3366 331 
L 3866 331 
L 3866 0 
L 2291 0 
L 2291 331 
L 2791 331 
L 2791 2069 
Q 2791 2566 2641 2777 
Q 2491 2988 2144 2988 
Q 1759 2988 1557 2697 
Q 1356 2406 1356 1850 
L 1356 331 
L 1856 331 
L 1856 0 
L 263 0 
L 263 331 
L 781 331 
L 781 2994 
L 231 2994 
L 231 3322 
L 1356 3322 
L 1356 2731 
Q 1516 3063 1762 3238 
Q 2009 3413 2322 3413 
Q 2709 3413 2968 3220 
Q 3228 3028 3316 2675 
z
" transform="scale(0.015625)"/>
       <path id="DejaVuSerif-65" d="M 3469 1600 
L 991 1600 
L 991 1575 
Q 991 903 1244 561 
Q 1497 219 1991 219 
Q 2369 219 2611 417 
Q 2853 616 2950 1006 
L 3413 1006 
Q 3275 459 2904 184 
Q 2534 -91 1931 -91 
Q 1203 -91 761 389 
Q 319 869 319 1663 
Q 319 2450 753 2931 
Q 1188 3413 1894 3413 
Q 2647 3413 3050 2948 
Q 3453 2484 3469 1600 
z
M 2791 1931 
Q 2772 2513 2545 2808 
Q 2319 3103 1894 3103 
Q 1497 3103 1269 2806 
Q 1041 2509 991 1931 
L 2791 1931 
z
" transform="scale(0.015625)"/>
       <path id="DejaVuSerif-20" transform="scale(0.015625)"/>
       <path id="DejaVuSerif-28" d="M 2041 -997 
Q 1281 -656 893 83 
Q 506 822 506 1931 
Q 506 3044 893 3783 
Q 1281 4522 2041 4863 
L 2041 4556 
Q 1559 4225 1350 3623 
Q 1141 3022 1141 1931 
Q 1141 844 1350 242 
Q 1559 -359 2041 -691 
L 2041 -997 
z
" transform="scale(0.015625)"/>
       <path id="DejaVuSerif-68" d="M 263 0 
L 263 331 
L 781 331 
L 781 4531 
L 231 4531 
L 231 4863 
L 1356 4863 
L 1356 2731 
Q 1516 3069 1770 3241 
Q 2025 3413 2363 3413 
Q 2913 3413 3172 3097 
Q 3431 2781 3431 2113 
L 3431 331 
L 3944 331 
L 3944 0 
L 2356 0 
L 2356 331 
L 2853 331 
L 2853 1931 
Q 2853 2541 2704 2764 
Q 2556 2988 2175 2988 
Q 1775 2988 1565 2697 
Q 1356 2406 1356 1850 
L 1356 331 
L 1856 331 
L 1856 0 
L 263 0 
z
" transform="scale(0.015625)"/>
       <path id="DejaVuSerif-6f" d="M 1925 219 
Q 2388 219 2623 584 
Q 2859 950 2859 1663 
Q 2859 2375 2623 2739 
Q 2388 3103 1925 3103 
Q 1463 3103 1227 2739 
Q 991 2375 991 1663 
Q 991 950 1228 584 
Q 1466 219 1925 219 
z
M 1925 -91 
Q 1200 -91 759 389 
Q 319 869 319 1663 
Q 319 2456 758 2934 
Q 1197 3413 1925 3413 
Q 2653 3413 3092 2934 
Q 3531 2456 3531 1663 
Q 3531 869 3092 389 
Q 2653 -91 1925 -91 
z
" transform="scale(0.015625)"/>
       <path id="DejaVuSerif-75" d="M 2266 3322 
L 3341 3322 
L 3341 331 
L 3884 331 
L 3884 0 
L 2766 0 
L 2766 588 
Q 2606 256 2353 82 
Q 2100 -91 1766 -91 
Q 1213 -91 952 223 
Q 691 538 691 1209 
L 691 2988 
L 172 2988 
L 172 3322 
L 1269 3322 
L 1269 1388 
Q 1269 781 1417 556 
Q 1566 331 1947 331 
Q 2347 331 2556 625 
Q 2766 919 2766 1478 
L 2766 2988 
L 2266 2988 
L 2266 3322 
z
" transform="scale(0.015625)"/>
       <path id="DejaVuSerif-72" d="M 3059 3328 
L 3059 2497 
L 2728 2497 
Q 2713 2744 2591 2866 
Q 2469 2988 2234 2988 
Q 1809 2988 1582 2694 
Q 1356 2400 1356 1850 
L 1356 331 
L 2022 331 
L 2022 0 
L 263 0 
L 263 331 
L 781 331 
L 781 2994 
L 231 2994 
L 231 3322 
L 1356 3322 
L 1356 2731 
Q 1525 3078 1790 3245 
Q 2056 3413 2438 3413 
Q 2578 3413 2733 3391 
Q 2888 3369 3059 3328 
z
" transform="scale(0.015625)"/>
       <path id="DejaVuSerif-73" d="M 359 184 
L 359 959 
L 691 959 
Q 703 588 923 403 
Q 1144 219 1575 219 
Q 1963 219 2166 364 
Q 2369 509 2369 788 
Q 2369 1006 2220 1140 
Q 2072 1275 1594 1428 
L 1178 1569 
Q 750 1706 558 1912 
Q 366 2119 366 2438 
Q 366 2894 700 3153 
Q 1034 3413 1625 3413 
Q 1888 3413 2178 3344 
Q 2469 3275 2778 3144 
L 2778 2419 
L 2447 2419 
Q 2434 2741 2221 2922 
Q 2009 3103 1644 3103 
Q 1281 3103 1095 2975 
Q 909 2847 909 2591 
Q 909 2381 1050 2254 
Q 1191 2128 1613 1997 
L 2069 1856 
Q 2541 1709 2748 1489 
Q 2956 1269 2956 922 
Q 2956 450 2595 179 
Q 2234 -91 1600 -91 
Q 1278 -91 972 -22 
Q 666 47 359 184 
z
" transform="scale(0.015625)"/>
       <path id="DejaVuSerif-29" d="M 453 -997 
L 453 -691 
Q 934 -359 1145 242 
Q 1356 844 1356 1931 
Q 1356 3022 1145 3623 
Q 934 4225 453 4556 
L 453 4863 
Q 1216 4522 1603 3783 
Q 1991 3044 1991 1931 
Q 1991 822 1603 83 
Q 1216 -656 453 -997 
z
" transform="scale(0.015625)"/>
      </defs>
      <use xlink:href="#DejaVuSerif-54"/>
      <use xlink:href="#DejaVuSerif-69" transform="translate(66.699219 0)"/>
      <use xlink:href="#DejaVuSerif-6d" transform="translate(98.681641 0)"/>
      <use xlink:href="#DejaVuSerif-65" transform="translate(193.505859 0)"/>
      <use xlink:href="#DejaVuSerif-20" transform="translate(252.685547 0)"/>
      <use xlink:href="#DejaVuSerif-28" transform="translate(284.472656 0)"/>
      <use xlink:href="#DejaVuSerif-68" transform="translate(323.486328 0)"/>
      <use xlink:href="#DejaVuSerif-6f" transform="translate(387.890625 0)"/>
      <use xlink:href="#DejaVuSerif-75" transform="translate(448.095703 0)"/>
      <use xlink:href="#DejaVuSerif-72" transform="translate(512.5 0)"/>
      <use xlink:href="#DejaVuSerif-73" transform="translate(560.302734 0)"/>
      <use xlink:href="#DejaVuSerif-29" transform="translate(611.621094 0)"/>
     </g>
    </g>
   </g>
   <g id="matplotlib.axis_2">
    <g id="ytick_1">
     <g id="line2d_13">
      <path d="M 29.91375 290.574783 
L 617.158295 290.574783 
" clip-path="url(#p553f329344)" style="fill: none; stroke: #cccccc; stroke-width: 0.8; stroke-linecap: round"/>
     </g>
     <g id="line2d_14"/>
    </g>
    <g id="ytick_2">
     <g id="line2d_15">
      <path d="M 29.91375 223.961739 
L 617.158295 223.961739 
" clip-path="url(#p553f329344)" style="fill: none; stroke: #cccccc; stroke-width: 0.8; stroke-linecap: round"/>
     </g>
     <g id="line2d_16"/>
    </g>
    <g id="ytick_3">
     <g id="line2d_17">
      <path d="M 29.91375 157.348696 
L 617.158295 157.348696 
" clip-path="url(#p553f329344)" style="fill: none; stroke: #cccccc; stroke-width: 0.8; stroke-linecap: round"/>
     </g>
     <g id="line2d_18"/>
    </g>
    <g id="ytick_4">
     <g id="line2d_19">
      <path d="M 29.91375 90.735652 
L 617.158295 90.735652 
" clip-path="url(#p553f329344)" style="fill: none; stroke: #cccccc; stroke-width: 0.8; stroke-linecap: round"/>
     </g>
     <g id="line2d_20"/>
    </g>
    <g id="ytick_5">
     <g id="line2d_21">
      <path d="M 29.91375 24.122609 
L 617.158295 24.122609 
" clip-path="url(#p553f329344)" style="fill: none; stroke: #cccccc; stroke-width: 0.8; stroke-linecap: round"/>
     </g>
     <g id="line2d_22"/>
    </g>
    <g id="text_2">
     <!-- Temperature (°C) -->
     <g style="fill: #262626" transform="translate(19.918125 217.5) rotate(-90) scale(0.12 -0.12)">
      <defs>
       <path id="DejaVuSerif-70" d="M 1313 1825 
L 1313 1497 
Q 1313 897 1542 583 
Q 1772 269 2209 269 
Q 2650 269 2876 622 
Q 3103 975 3103 1663 
Q 3103 2353 2876 2703 
Q 2650 3053 2209 3053 
Q 1772 3053 1542 2737 
Q 1313 2422 1313 1825 
z
M 738 2988 
L 184 2988 
L 184 3322 
L 1313 3322 
L 1313 2803 
Q 1481 3116 1742 3264 
Q 2003 3413 2388 3413 
Q 3000 3413 3387 2928 
Q 3775 2444 3775 1663 
Q 3775 881 3387 395 
Q 3000 -91 2388 -91 
Q 2003 -91 1742 57 
Q 1481 206 1313 519 
L 1313 -997 
L 1856 -997 
L 1856 -1331 
L 184 -1331 
L 184 -997 
L 738 -997 
L 738 2988 
z
" transform="scale(0.015625)"/>
       <path id="DejaVuSerif-61" d="M 2547 1044 
L 2547 1747 
L 1806 1747 
Q 1378 1747 1168 1562 
Q 959 1378 959 997 
Q 959 650 1171 447 
Q 1384 244 1747 244 
Q 2106 244 2326 466 
Q 2547 688 2547 1044 
z
M 3122 2075 
L 3122 331 
L 3634 331 
L 3634 0 
L 2547 0 
L 2547 359 
Q 2356 128 2106 18 
Q 1856 -91 1522 -91 
Q 969 -91 644 203 
Q 319 497 319 997 
Q 319 1513 691 1797 
Q 1063 2081 1741 2081 
L 2547 2081 
L 2547 2309 
Q 2547 2688 2317 2895 
Q 2088 3103 1672 3103 
Q 1328 3103 1125 2947 
Q 922 2791 872 2484 
L 575 2484 
L 575 3156 
Q 875 3284 1158 3348 
Q 1441 3413 1709 3413 
Q 2400 3413 2761 3070 
Q 3122 2728 3122 2075 
z
" transform="scale(0.015625)"/>
       <path id="DejaVuSerif-74" d="M 691 2988 
L 184 2988 
L 184 3322 
L 691 3322 
L 691 4353 
L 1269 4353 
L 1269 3322 
L 2350 3322 
L 2350 2988 
L 1269 2988 
L 1269 878 
Q 1269 456 1350 337 
Q 1431 219 1650 219 
Q 1875 219 1978 351 
Q 2081 484 2088 781 
L 2522 781 
Q 2497 328 2275 118 
Q 2053 -91 1600 -91 
Q 1103 -91 897 129 
Q 691 350 691 878 
L 691 2988 
z
" transform="scale(0.015625)"/>
       <path id="DejaVuSerif-b0" d="M 1600 4319 
Q 1363 4319 1200 4155 
Q 1038 3991 1038 3750 
Q 1038 3513 1198 3353 
Q 1359 3194 1600 3194 
Q 1838 3194 2000 3355 
Q 2163 3516 2163 3750 
Q 2163 3984 1997 4151 
Q 1831 4319 1600 4319 
z
M 1600 4750 
Q 1800 4750 1984 4673 
Q 2169 4597 2303 4453 
Q 2447 4313 2519 4134 
Q 2591 3956 2591 3750 
Q 2591 3338 2302 3052 
Q 2013 2766 1594 2766 
Q 1172 2766 890 3047 
Q 609 3328 609 3750 
Q 609 4169 896 4459 
Q 1184 4750 1600 4750 
z
" transform="scale(0.015625)"/>
       <path id="DejaVuSerif-43" d="M 4513 1234 
Q 4306 581 3820 245 
Q 3334 -91 2591 -91 
Q 2134 -91 1743 65 
Q 1353 222 1050 525 
Q 700 875 529 1320 
Q 359 1766 359 2328 
Q 359 3416 987 4083 
Q 1616 4750 2644 4750 
Q 3025 4750 3456 4650 
Q 3888 4550 4384 4347 
L 4384 3272 
L 4031 3272 
Q 3916 3859 3567 4137 
Q 3219 4416 2591 4416 
Q 1844 4416 1459 3886 
Q 1075 3356 1075 2328 
Q 1075 1303 1459 773 
Q 1844 244 2591 244 
Q 3113 244 3450 492 
Q 3788 741 3938 1234 
L 4513 1234 
z
" transform="scale(0.015625)"/>
      </defs>
      <use xlink:href="#DejaVuSerif-54"/>
      <use xlink:href="#DejaVuSerif-65" transform="translate(58.949219 0)"/>
      <use xlink:href="#DejaVuSerif-6d" transform="translate(118.128906 0)"/>
      <use xlink:href="#DejaVuSerif-70" transform="translate(212.953125 0)"/>
      <use xlink:href="#DejaVuSerif-65" transform="translate(276.966797 0)"/>
      <use xlink:href="#DejaVuSerif-72" transform="translate(336.146484 0)"/>
      <use xlink:href="#DejaVuSerif-61" transform="translate(383.949219 0)"/>
      <use xlink:href="#DejaVuSerif-74" transform="translate(443.568359 0)"/>
      <use xlink:href="#DejaVuSerif-75" transform="translate(483.753906 0)"/>
      <use xlink:href="#DejaVuSerif-72" transform="translate(548.158203 0)"/>
      <use xlink:href="#DejaVuSerif-65" transform="translate(595.960938 0)"/>
      <use xlink:href="#DejaVuSerif-20" transform="translate(655.140625 0)"/>
      <use xlink:href="#DejaVuSerif-28" transform="translate(686.927734 0)"/>
      <use xlink:href="#DejaVuSerif-b0" transform="translate(725.941406 0)"/>
      <use xlink:href="#DejaVuSerif-43" transform="translate(775.941406 0)"/>
      <use xlink:href="#DejaVuSerif-29" transform="translate(852.455078 0)"/>
     </g>
    </g>
   </g>
   <g id="line2d_23">
    <path d="M 56.606684 183.993913 
L 67.305255 157.436338 
L 72.65454 144.684023 
L 78.003825 132.554132 
L 82.283254 123.427841 
L 86.562682 114.915595 
L 89.772253 108.986553 
L 92.981824 103.485426 
L 96.191395 98.4436 
L 99.400967 93.889837 
L 102.610538 89.850116 
L 104.750252 87.454054 
L 106.889966 85.302838 
L 109.02968 83.401924 
L 111.169394 81.756134 
L 113.309109 80.369641 
L 115.448823 79.245962 
L 117.588537 78.387947 
L 119.728251 77.797772 
L 121.867965 77.476933 
L 124.007679 77.426245 
L 126.147393 77.645836 
L 128.287108 78.135148 
L 130.426822 78.892942 
L 132.566536 79.917295 
L 134.70625 81.20561 
L 136.845964 82.754617 
L 138.985678 84.56039 
L 141.125392 86.618348 
L 143.265107 88.923272 
L 145.404821 91.469316 
L 148.614392 95.726194 
L 151.823963 100.486637 
L 155.033534 105.723488 
L 158.243105 111.406871 
L 161.452677 117.504362 
L 165.732105 126.218078 
L 170.011533 135.517551 
L 174.290962 145.3085 
L 179.640247 158.086704 
L 187.129246 176.618709 
L 201.037388 211.200802 
L 206.386674 223.926722 
L 210.666102 233.661572 
L 214.94553 242.892869 
L 219.224958 251.527022 
L 222.43453 257.557849 
L 225.644101 263.168995 
L 228.853672 268.328448 
L 232.063243 273.006774 
L 235.272814 277.177283 
L 237.412529 279.663629 
L 239.552243 281.907335 
L 241.691957 283.902711 
L 243.831671 285.644697 
L 245.971385 287.128874 
L 248.111099 288.351478 
L 250.250813 289.309409 
L 252.390528 290.000236 
L 254.530242 290.422208 
L 256.669956 290.574255 
L 258.80967 290.45599 
L 260.949384 290.067714 
L 263.089098 289.410412 
L 265.228812 288.48575 
L 267.368527 287.296074 
L 269.508241 285.844402 
L 271.647955 284.134414 
L 273.787669 282.170447 
L 275.927383 279.957484 
L 278.067097 277.501136 
L 281.276668 273.37406 
L 284.48624 268.737072 
L 287.695811 263.616625 
L 290.905382 258.041932 
L 294.114953 252.044796 
L 297.324525 245.65943 
L 301.603953 236.604953 
L 305.883381 227.017082 
L 311.232666 214.430681 
L 317.651809 198.708964 
L 336.909236 150.994803 
L 342.258521 138.529003 
L 346.53795 129.065562 
L 350.817378 120.159009 
L 354.026949 113.899111 
L 357.23652 108.039103 
L 360.446092 102.612416 
L 363.655663 97.650009 
L 366.865234 93.180193 
L 370.074805 89.228468 
L 372.214519 86.893072 
L 374.354234 84.803945 
L 376.493948 82.966385 
L 378.633662 81.385053 
L 380.773376 80.06396 
L 382.91309 79.006456 
L 385.052804 78.215223 
L 387.192518 77.692268 
L 389.332233 77.438918 
L 391.471947 77.455814 
L 393.611661 77.742914 
L 395.751375 78.29949 
L 397.891089 79.124131 
L 400.030803 80.214744 
L 402.170517 81.568564 
L 404.310231 83.182157 
L 406.449946 85.051431 
L 408.58966 87.171644 
L 410.729374 89.53742 
L 412.869088 92.142759 
L 416.078659 96.48533 
L 419.28823 101.327136 
L 422.497802 106.640555 
L 425.707373 112.395273 
L 428.916944 118.558461 
L 433.196372 127.350359 
L 437.475801 136.716534 
L 442.825086 149.086691 
L 449.244228 164.642572 
L 459.942799 191.369118 
L 468.501656 212.496168 
L 473.850941 225.167787 
L 478.130369 234.844994 
L 482.409798 244.006651 
L 486.689226 252.559872 
L 489.898797 258.52308 
L 493.108368 264.061099 
L 496.317939 269.142336 
L 499.527511 273.737803 
L 502.737082 277.821282 
L 504.876796 280.247536 
L 507.01651 282.429668 
L 509.156224 284.362147 
L 511.295938 286.040069 
L 513.435653 287.45918 
L 515.575367 288.61588 
L 517.715081 289.507237 
L 519.854795 290.130988 
L 521.994509 290.485552 
L 524.134223 290.57003 
L 526.273937 290.384208 
L 528.413652 289.928556 
L 530.553366 289.204231 
L 532.69308 288.21307 
L 534.832794 286.957586 
L 536.972508 285.440963 
L 539.112222 283.667049 
L 541.251936 281.640341 
L 543.391651 279.365981 
L 545.531365 276.849737 
L 548.740936 272.63596 
L 551.950507 267.916482 
L 555.160078 262.718227 
L 558.369649 257.07085 
L 561.579221 251.006571 
L 565.858649 242.332465 
L 570.138077 233.066896 
L 574.417506 223.303803 
L 579.766791 210.551488 
L 587.25579 192.038368 
L 590.465362 183.993913 
L 590.465362 183.993913 
" clip-path="url(#p553f329344)" style="fill: none; stroke: #2563eb; stroke-width: 2.5; stroke-linecap: round"/>
   </g>
   <g id="line2d_24">
    <path d="M 29.91375 183.993913 
L 617.158295 183.993913 
" clip-path="url(#p553f329344)" style="fill: none; stroke-dasharray: 1.5,2.475; stroke-dashoffset: 0; stroke: #475569; stroke-opacity: 0.5; stroke-width: 1.5"/>
   </g>
   <g id="patch_3">
    <path d="M 29.91375 317.22 
L 29.91375 10.8 
" style="fill: none; stroke: #cccccc; stroke-linejoin: miter; stroke-linecap: square"/>
   </g>
   <g id="patch_4">
    <path d="M 617.158295 317.22 
L 617.158295 10.8 
" style="fill: none; stroke: #cccccc; stroke-linejoin: miter; stroke-linecap: square"/>
   </g>
   <g id="patch_5">
    <path d="M 29.91375 317.22 
L 617.158295 317.22 
" style="fill: none; stroke: #cccccc; stroke-linejoin: miter; stroke-linecap: square"/>
   </g>
   <g id="patch_6">
    <path d="M 29.91375 10.8 
L 617.158295 10.8 
" style="fill: none; stroke: #cccccc; stroke-linejoin: miter; stroke-linecap: square"/>
   </g>
   <g id="text_3">
    <!-- D = midline -->
    <g style="fill: #475569" transform="translate(501.488915 183.993913) scale(0.09 -0.09)">
     <defs>
      <path id="DejaVuSerif-44" d="M 1581 331 
L 2163 331 
Q 3072 331 3558 850 
Q 4044 1369 4044 2338 
Q 4044 3306 3559 3818 
Q 3075 4331 2163 4331 
L 1581 4331 
L 1581 331 
z
M 353 0 
L 353 331 
L 947 331 
L 947 4331 
L 353 4331 
L 353 4666 
L 2209 4666 
Q 3416 4666 4089 4050 
Q 4763 3434 4763 2338 
Q 4763 1238 4088 619 
Q 3413 0 2209 0 
L 353 0 
z
" transform="scale(0.015625)"/>
      <path id="DejaVuSerif-3d" d="M 678 2894 
L 4684 2894 
L 4684 2394 
L 678 2394 
L 678 2894 
z
M 678 1619 
L 4684 1619 
L 4684 1119 
L 678 1119 
L 678 1619 
z
" transform="scale(0.015625)"/>
      <path id="DejaVuSerif-64" d="M 3359 331 
L 3909 331 
L 3909 0 
L 2784 0 
L 2784 519 
Q 2616 206 2355 57 
Q 2094 -91 1709 -91 
Q 1097 -91 708 395 
Q 319 881 319 1663 
Q 319 2444 706 2928 
Q 1094 3413 1709 3413 
Q 2094 3413 2355 3264 
Q 2616 3116 2784 2803 
L 2784 4531 
L 2241 4531 
L 2241 4863 
L 3359 4863 
L 3359 331 
z
M 2784 1497 
L 2784 1825 
Q 2784 2422 2554 2737 
Q 2325 3053 1888 3053 
Q 1444 3053 1217 2703 
Q 991 2353 991 1663 
Q 991 975 1217 622 
Q 1444 269 1888 269 
Q 2325 269 2554 583 
Q 2784 897 2784 1497 
z
" transform="scale(0.015625)"/>
      <path id="DejaVuSerif-6c" d="M 1313 331 
L 1856 331 
L 1856 0 
L 184 0 
L 184 331 
L 738 331 
L 738 4531 
L 184 4531 
L 184 4863 
L 1313 4863 
L 1313 331 
z
" transform="scale(0.015625)"/>
      <path id="DejaVuSerif-6e" d="M 263 0 
L 263 331 
L 781 331 
L 781 2988 
L 231 2988 
L 231 3322 
L 1356 3322 
L 1356 2731 
Q 1516 3069 1770 3241 
Q 2025 3413 2363 3413 
Q 2913 3413 3172 3097 
Q 3431 2781 3431 2113 
L 3431 331 
L 3944 331 
L 3944 0 
L 2356 0 
L 2356 331 
L 2853 331 
L 2853 1931 
Q 2853 2541 2703 2767 
Q 2553 2994 2175 2994 
Q 1775 2994 1565 2701 
Q 1356 2409 1356 1850 
L 1356 331 
L 1856 331 
L 1856 0 
L 263 0 
z
" transform="scale(0.015625)"/>
     </defs>
     <use xlink:href="#DejaVuSerif-44"/>
     <use xlink:href="#DejaVuSerif-20" transform="translate(80.175781 0)"/>
     <use xlink:href="#DejaVuSerif-3d" transform="translate(111.962891 0)"/>
     <use xlink:href="#DejaVuSerif-20" transform="translate(195.751953 0)"/>
     <use xlink:href="#DejaVuSerif-6d" transform="translate(227.539062 0)"/>
     <use xlink:href="#DejaVuSerif-69" transform="translate(322.363281 0)"/>
     <use xlink:href="#DejaVuSerif-64" transform="translate(354.345703 0)"/>
     <use xlink:href="#DejaVuSerif-6c" transform="translate(418.359375 0)"/>
     <use xlink:href="#DejaVuSerif-69" transform="translate(450.341797 0)"/>
     <use xlink:href="#DejaVuSerif-6e" transform="translate(482.324219 0)"/>
     <use xlink:href="#DejaVuSerif-65" transform="translate(546.728516 0)"/>
    </g>
   </g>
   <g id="patch_7">
    <path d="M 67.72874 180.316519 
Q 67.72874 130.703856 67.72874 81.091193 
" style="fill: none; stroke: #dc2626; stroke-width: 1.5; stroke-linecap: round"/>
    <path d="M 69.92874 175.916519 
L 67.72874 180.316519 
L 65.52874 175.916519 
" style="fill: none; stroke: #dc2626; stroke-width: 1.5; stroke-linecap: round"/>
    <path d="M 65.52874 85.491193 
L 67.72874 81.091193 
L 69.92874 85.491193 
" style="fill: none; stroke: #dc2626; stroke-width: 1.5; stroke-linecap: round"/>
   </g>
   <g id="text_4">
    <!-- A = ? -->
    <g style="fill: #dc2626" transform="translate(89.972851 120.625447) scale(0.09 -0.09)">
     <defs>
      <path id="DejaVuSerif-41" d="M 1281 1691 
L 2994 1691 
L 2138 3909 
L 1281 1691 
z
M -38 0 
L -38 331 
L 372 331 
L 2034 4666 
L 2559 4666 
L 4225 331 
L 4684 331 
L 4684 0 
L 2988 0 
L 2988 331 
L 3506 331 
L 3116 1356 
L 1153 1356 
L 763 331 
L 1275 331 
L 1275 0 
L -38 0 
z
" transform="scale(0.015625)"/>
      <path id="DejaVuSerif-3f" d="M 1125 325 
Q 1125 500 1245 622 
Q 1366 744 1544 744 
Q 1716 744 1837 622 
Q 1959 500 1959 325 
Q 1959 153 1837 31 
Q 1716 -91 1544 -91 
Q 1366 -91 1245 29 
Q 1125 150 1125 325 
z
M 434 4459 
Q 766 4606 1064 4678 
Q 1363 4750 1625 4750 
Q 2319 4750 2720 4415 
Q 3122 4081 3122 3513 
Q 3122 2931 2776 2562 
Q 2431 2194 1734 2034 
L 1734 1241 
L 1350 1241 
L 1350 2266 
Q 1903 2400 2183 2715 
Q 2463 3031 2463 3519 
Q 2463 3947 2234 4194 
Q 2006 4441 1613 4441 
Q 1256 4441 1029 4236 
Q 803 4031 738 3647 
L 434 3647 
L 434 4459 
z
" transform="scale(0.015625)"/>
     </defs>
     <use xlink:href="#DejaVuSerif-41"/>
     <use xlink:href="#DejaVuSerif-20" transform="translate(72.216797 0)"/>
     <use xlink:href="#DejaVuSerif-3d" transform="translate(104.003906 0)"/>
     <use xlink:href="#DejaVuSerif-20" transform="translate(187.792969 0)"/>
     <use xlink:href="#DejaVuSerif-3f" transform="translate(219.580078 0)"/>
    </g>
    <!-- (amplitude) -->
    <g style="fill: #dc2626" transform="translate(89.972851 130.703478) scale(0.09 -0.09)">
     <use xlink:href="#DejaVuSerif-28"/>
     <use xlink:href="#DejaVuSerif-61" transform="translate(39.013672 0)"/>
     <use xlink:href="#DejaVuSerif-6d" transform="translate(98.632812 0)"/>
     <use xlink:href="#DejaVuSerif-70" transform="translate(193.457031 0)"/>
     <use xlink:href="#DejaVuSerif-6c" transform="translate(257.470703 0)"/>
     <use xlink:href="#DejaVuSerif-69" transform="translate(289.453125 0)"/>
     <use xlink:href="#DejaVuSerif-74" transform="translate(321.435547 0)"/>
     <use xlink:href="#DejaVuSerif-75" transform="translate(361.621094 0)"/>
     <use xlink:href="#DejaVuSerif-64" transform="translate(426.025391 0)"/>
     <use xlink:href="#DejaVuSerif-65" transform="translate(490.039062 0)"/>
     <use xlink:href="#DejaVuSerif-29" transform="translate(549.21875 0)"/>
    </g>
   </g>
   <g id="patch_8">
    <path d="M 386.591454 297.236087 
Q 256.804282 297.236087 127.017109 297.236087 
" style="fill: none; stroke: #059669; stroke-width: 1.5; stroke-linecap: round"/>
    <path d="M 382.191454 295.036087 
L 386.591454 297.236087 
L 382.191454 299.436087 
" style="fill: none; stroke: #059669; stroke-width: 1.5; stroke-linecap: round"/>
    <path d="M 131.417109 299.436087 
L 127.017109 297.236087 
L 131.417109 295.036087 
" style="fill: none; stroke: #059669; stroke-width: 1.5; stroke-linecap: round"/>
   </g>
   <g id="text_5">
    <!-- Period = ? -->
    <g style="fill: #059669" transform="translate(233.091501 310.558696) scale(0.09 -0.09)">
     <defs>
      <path id="DejaVuSerif-50" d="M 1581 2375 
L 2406 2375 
Q 2872 2375 3115 2626 
Q 3359 2878 3359 3353 
Q 3359 3831 3115 4081 
Q 2872 4331 2406 4331 
L 1581 4331 
L 1581 2375 
z
M 353 0 
L 353 331 
L 947 331 
L 947 4331 
L 353 4331 
L 353 4666 
L 2559 4666 
Q 3259 4666 3668 4311 
Q 4078 3956 4078 3353 
Q 4078 2753 3668 2397 
Q 3259 2041 2559 2041 
L 1581 2041 
L 1581 331 
L 2303 331 
L 2303 0 
L 353 0 
z
" transform="scale(0.015625)"/>
     </defs>
     <use xlink:href="#DejaVuSerif-50"/>
     <use xlink:href="#DejaVuSerif-65" transform="translate(62.785156 0)"/>
     <use xlink:href="#DejaVuSerif-72" transform="translate(121.964844 0)"/>
     <use xlink:href="#DejaVuSerif-69" transform="translate(169.767578 0)"/>
     <use xlink:href="#DejaVuSerif-6f" transform="translate(201.75 0)"/>
     <use xlink:href="#DejaVuSerif-64" transform="translate(261.955078 0)"/>
     <use xlink:href="#DejaVuSerif-20" transform="translate(325.96875 0)"/>
     <use xlink:href="#DejaVuSerif-3d" transform="translate(357.755859 0)"/>
     <use xlink:href="#DejaVuSerif-20" transform="translate(441.544922 0)"/>
     <use xlink:href="#DejaVuSerif-3f" transform="translate(473.332031 0)"/>
    </g>
   </g>
   <g id="text_6">
    <g id="patch_9">
     <path d="M 49.368061 48.67824 
L 108.33353 48.67824 
Q 111.03353 48.67824 111.03353 45.97824 
L 111.03353 37.267928 
Q 111.03353 34.567928 108.33353 34.567928 
L 49.368061 34.567928 
Q 46.668061 34.567928 46.668061 37.267928 
L 46.668061 45.97824 
Q 46.668061 48.67824 49.368061 48.67824 
z
" style="fill: #f0f9ff; opacity: 0.8; stroke: #2563eb; stroke-linejoin: miter"/>
    </g>
    <!-- Temperature -->
    <g style="fill: #262626" transform="translate(49.368061 44.106522) scale(0.09 -0.09)">
     <use xlink:href="#DejaVuSerif-54"/>
     <use xlink:href="#DejaVuSerif-65" transform="translate(58.949219 0)"/>
     <use xlink:href="#DejaVuSerif-6d" transform="translate(118.128906 0)"/>
     <use xlink:href="#DejaVuSerif-70" transform="translate(212.953125 0)"/>
     <use xlink:href="#DejaVuSerif-65" transform="translate(276.966797 0)"/>
     <use xlink:href="#DejaVuSerif-72" transform="translate(336.146484 0)"/>
     <use xlink:href="#DejaVuSerif-61" transform="translate(383.949219 0)"/>
     <use xlink:href="#DejaVuSerif-74" transform="translate(443.568359 0)"/>
     <use xlink:href="#DejaVuSerif-75" transform="translate(483.753906 0)"/>
     <use xlink:href="#DejaVuSerif-72" transform="translate(548.158203 0)"/>
     <use xlink:href="#DejaVuSerif-65" transform="translate(595.960938 0)"/>
    </g>
   </g>
   <g id="text_7">
    <g id="patch_10">
     <path d="M 188.899268 48.67824 
L 213.48755 48.67824 
Q 216.18755 48.67824 216.18755 45.97824 
L 216.18755 37.267928 
Q 216.18755 34.567928 213.48755 34.567928 
L 188.899268 34.567928 
Q 186.199268 34.567928 186.199268 37.267928 
L 186.199268 45.97824 
Q 186.199268 48.67824 188.899268 48.67824 
z
" style="fill: #f0f9ff; opacity: 0.8; stroke: #2563eb; stroke-linejoin: miter"/>
    </g>
    <!-- Tides -->
    <g style="fill: #262626" transform="translate(188.899268 44.106522) scale(0.09 -0.09)">
     <use xlink:href="#DejaVuSerif-54"/>
     <use xlink:href="#DejaVuSerif-69" transform="translate(66.699219 0)"/>
     <use xlink:href="#DejaVuSerif-64" transform="translate(98.681641 0)"/>
     <use xlink:href="#DejaVuSerif-65" transform="translate(162.695312 0)"/>
     <use xlink:href="#DejaVuSerif-73" transform="translate(221.875 0)"/>
    </g>
   </g>
   <g id="text_8">
    <g id="patch_11">
     <path d="M 304.236648 48.806209 
L 342.835398 48.806209 
Q 345.535398 48.806209 345.535398 46.106209 
L 345.535398 37.267928 
Q 345.535398 34.567928 342.835398 34.567928 
L 304.236648 34.567928 
Q 301.536648 34.567928 301.536648 37.267928 
L 301.536648 46.106209 
Q 301.536648 48.806209 304.236648 48.806209 
z
" style="fill: #f0f9ff; opacity: 0.8; stroke: #2563eb; stroke-linejoin: miter"/>
    </g>
    <!-- Daylight -->
    <g style="fill: #262626" transform="translate(304.236648 44.106522) scale(0.09 -0.09)">
     <defs>
      <path id="DejaVuSerif-79" d="M 1381 -609 
L 1600 -56 
L 359 2988 
L -19 2988 
L -19 3322 
L 1509 3322 
L 1509 2988 
L 978 2988 
L 1913 703 
L 2847 2988 
L 2350 2988 
L 2350 3322 
L 3597 3322 
L 3597 2988 
L 3225 2988 
L 1703 -750 
Q 1547 -1138 1356 -1280 
Q 1166 -1422 819 -1422 
Q 672 -1422 517 -1397 
Q 363 -1372 206 -1325 
L 206 -691 
L 500 -691 
Q 519 -903 608 -995 
Q 697 -1088 884 -1088 
Q 1056 -1088 1161 -992 
Q 1266 -897 1381 -609 
z
" transform="scale(0.015625)"/>
      <path id="DejaVuSerif-67" d="M 3359 2988 
L 3359 72 
Q 3359 -644 2965 -1033 
Q 2572 -1422 1844 -1422 
Q 1516 -1422 1216 -1362 
Q 916 -1303 641 -1184 
L 641 -488 
L 941 -488 
Q 997 -813 1206 -963 
Q 1416 -1113 1806 -1113 
Q 2313 -1113 2548 -827 
Q 2784 -541 2784 72 
L 2784 519 
Q 2616 206 2355 57 
Q 2094 -91 1709 -91 
Q 1097 -91 708 395 
Q 319 881 319 1663 
Q 319 2444 706 2928 
Q 1094 3413 1709 3413 
Q 2094 3413 2355 3264 
Q 2616 3116 2784 2803 
L 2784 3322 
L 3909 3322 
L 3909 2988 
L 3359 2988 
z
M 2784 1825 
Q 2784 2422 2554 2737 
Q 2325 3053 1888 3053 
Q 1444 3053 1217 2703 
Q 991 2353 991 1663 
Q 991 975 1217 622 
Q 1444 269 1888 269 
Q 2325 269 2554 583 
Q 2784 897 2784 1497 
L 2784 1825 
z
" transform="scale(0.015625)"/>
     </defs>
     <use xlink:href="#DejaVuSerif-44"/>
     <use xlink:href="#DejaVuSerif-61" transform="translate(80.175781 0)"/>
     <use xlink:href="#DejaVuSerif-79" transform="translate(139.794922 0)"/>
     <use xlink:href="#DejaVuSerif-6c" transform="translate(196.289062 0)"/>
     <use xlink:href="#DejaVuSerif-69" transform="translate(228.271484 0)"/>
     <use xlink:href="#DejaVuSerif-67" transform="translate(260.253906 0)"/>
     <use xlink:href="#DejaVuSerif-68" transform="translate(324.267578 0)"/>
     <use xlink:href="#DejaVuSerif-74" transform="translate(388.671875 0)"/>
    </g>
   </g>
   <g id="text_9">
    <g id="patch_12">
     <path d="M 420.573871 48.67824 
L 471.183402 48.67824 
Q 473.883402 48.67824 473.883402 45.97824 
L 473.883402 37.267928 
Q 473.883402 34.567928 471.183402 34.567928 
L 420.573871 34.567928 
Q 417.873871 34.567928 417.873871 37.267928 
L 417.873871 45.97824 
Q 417.873871 48.67824 420.573871 48.67824 
z
" style="fill: #f0f9ff; opacity: 0.8; stroke: #2563eb; stroke-linejoin: miter"/>
    </g>
    <!-- Heart Rate -->
    <g style="fill: #262626" transform="translate(420.573871 44.106522) scale(0.09 -0.09)">
     <defs>
      <path id="DejaVuSerif-48" d="M 353 0 
L 353 331 
L 947 331 
L 947 4331 
L 353 4331 
L 353 4666 
L 2175 4666 
L 2175 4331 
L 1581 4331 
L 1581 2719 
L 4000 2719 
L 4000 4331 
L 3406 4331 
L 3406 4666 
L 5228 4666 
L 5228 4331 
L 4634 4331 
L 4634 331 
L 5228 331 
L 5228 0 
L 3406 0 
L 3406 331 
L 4000 331 
L 4000 2338 
L 1581 2338 
L 1581 331 
L 2175 331 
L 2175 0 
L 353 0 
z
" transform="scale(0.015625)"/>
      <path id="DejaVuSerif-52" d="M 3066 2316 
Q 3284 2256 3442 2114 
Q 3600 1972 3725 1716 
L 4403 331 
L 4972 331 
L 4972 0 
L 3872 0 
L 3144 1484 
Q 2934 1916 2759 2042 
Q 2584 2169 2278 2169 
L 1581 2169 
L 1581 331 
L 2241 331 
L 2241 0 
L 353 0 
L 353 331 
L 947 331 
L 947 4331 
L 353 4331 
L 353 4666 
L 2719 4666 
Q 3400 4666 3770 4341 
Q 4141 4016 4141 3419 
Q 4141 2938 3870 2661 
Q 3600 2384 3066 2316 
z
M 1581 2503 
L 2503 2503 
Q 2975 2503 3200 2726 
Q 3425 2950 3425 3419 
Q 3425 3888 3200 4109 
Q 2975 4331 2503 4331 
L 1581 4331 
L 1581 2503 
z
" transform="scale(0.015625)"/>
     </defs>
     <use xlink:href="#DejaVuSerif-48"/>
     <use xlink:href="#DejaVuSerif-65" transform="translate(87.207031 0)"/>
     <use xlink:href="#DejaVuSerif-61" transform="translate(146.386719 0)"/>
     <use xlink:href="#DejaVuSerif-72" transform="translate(206.005859 0)"/>
     <use xlink:href="#DejaVuSerif-74" transform="translate(253.808594 0)"/>
     <use xlink:href="#DejaVuSerif-20" transform="translate(293.994141 0)"/>
     <use xlink:href="#DejaVuSerif-52" transform="translate(325.78125 0)"/>
     <use xlink:href="#DejaVuSerif-61" transform="translate(403.324219 0)"/>
     <use xlink:href="#DejaVuSerif-74" transform="translate(462.943359 0)"/>
     <use xlink:href="#DejaVuSerif-65" transform="translate(503.128906 0)"/>
    </g>
   </g>
   <g id="text_10">
    <g id="patch_13">
     <path d="M 255.616023 37.383913 
L 391.456023 37.383913 
Q 395.056023 37.383913 395.056023 33.783913 
L 395.056023 21.783913 
Q 395.056023 18.183913 391.456023 18.183913 
L 255.616023 18.183913 
Q 252.016023 18.183913 252.016023 21.783913 
L 252.016023 33.783913 
Q 252.016023 37.383913 255.616023 37.383913 
z
" style="fill: #fef3c7; stroke: #f59e0b; stroke-linejoin: miter"/>
    </g>
    <!-- $f(t) = A\cos(B(t + C)) + D$ -->
    <g style="fill: #262626" transform="translate(255.616023 30.783913) scale(0.12 -0.12)">
     <defs>
      <path id="Cmmi10-66" d="M 622 -1056 
Q 741 -1147 909 -1147 
Q 1138 -1147 1281 -641 
Q 1341 -397 1606 966 
L 1900 2534 
L 1350 2534 
Q 1288 2534 1288 2619 
Q 1313 2759 1369 2759 
L 1941 2759 
L 2016 3175 
Q 2053 3369 2084 3508 
Q 2116 3647 2152 3765 
Q 2188 3884 2259 4031 
Q 2369 4241 2555 4377 
Q 2741 4513 2956 4513 
Q 3097 4513 3230 4461 
Q 3363 4409 3447 4306 
Q 3531 4203 3531 4063 
Q 3531 3900 3423 3779 
Q 3316 3659 3163 3659 
Q 3059 3659 2986 3723 
Q 2913 3788 2913 3891 
Q 2913 4031 3008 4136 
Q 3103 4241 3244 4256 
Q 3125 4347 2950 4347 
Q 2853 4347 2767 4256 
Q 2681 4166 2656 4063 
Q 2616 3900 2478 3181 
L 2400 2759 
L 3059 2759 
Q 3122 2759 3122 2675 
Q 3119 2659 3109 2620 
Q 3100 2581 3083 2557 
Q 3066 2534 3041 2534 
L 2356 2534 
L 2059 972 
Q 2003 631 1929 279 
Q 1856 -72 1723 -442 
Q 1591 -813 1384 -1063 
Q 1178 -1313 897 -1313 
Q 681 -1313 511 -1189 
Q 341 -1066 341 -863 
Q 341 -700 445 -579 
Q 550 -459 709 -459 
Q 816 -459 887 -523 
Q 959 -588 959 -691 
Q 959 -828 857 -942 
Q 756 -1056 622 -1056 
z
" transform="scale(0.015625)"/>
      <path id="Cmr10-28" d="M 1984 -1588 
Q 1628 -1306 1370 -942 
Q 1113 -578 948 -165 
Q 784 247 703 697 
Q 622 1147 622 1600 
Q 622 2059 703 2509 
Q 784 2959 951 3375 
Q 1119 3791 1378 4153 
Q 1638 4516 1984 4788 
Q 1984 4800 2016 4800 
L 2075 4800 
Q 2094 4800 2109 4783 
Q 2125 4766 2125 4744 
Q 2125 4716 2113 4703 
Q 1800 4397 1592 4047 
Q 1384 3697 1257 3301 
Q 1131 2906 1075 2482 
Q 1019 2059 1019 1600 
Q 1019 -434 2106 -1491 
Q 2125 -1509 2125 -1544 
Q 2125 -1559 2108 -1579 
Q 2091 -1600 2075 -1600 
L 2016 -1600 
Q 1984 -1600 1984 -1588 
z
" transform="scale(0.015625)"/>
      <path id="Cmmi10-74" d="M 397 519 
Q 397 613 416 697 
L 878 2534 
L 206 2534 
Q 141 2534 141 2619 
Q 166 2759 225 2759 
L 934 2759 
L 1191 3803 
Q 1216 3888 1291 3947 
Q 1366 4006 1459 4006 
Q 1541 4006 1595 3957 
Q 1650 3909 1650 3828 
Q 1650 3809 1648 3798 
Q 1647 3788 1644 3775 
L 1388 2759 
L 2047 2759 
Q 2113 2759 2113 2675 
Q 2109 2659 2100 2621 
Q 2091 2584 2075 2559 
Q 2059 2534 2028 2534 
L 1331 2534 
L 872 684 
Q 825 503 825 372 
Q 825 97 1013 97 
Q 1294 97 1511 361 
Q 1728 625 1844 941 
Q 1869 978 1894 978 
L 1972 978 
Q 1997 978 2012 961 
Q 2028 944 2028 922 
Q 2028 909 2022 903 
Q 1881 516 1612 222 
Q 1344 -72 997 -72 
Q 744 -72 570 93 
Q 397 259 397 519 
z
" transform="scale(0.015625)"/>
      <path id="Cmr10-29" d="M 416 -1600 
Q 359 -1600 359 -1544 
Q 359 -1516 372 -1503 
Q 1466 -434 1466 1600 
Q 1466 3634 384 4691 
Q 359 4706 359 4744 
Q 359 4766 376 4783 
Q 394 4800 416 4800 
L 475 4800 
Q 494 4800 506 4788 
Q 966 4425 1272 3906 
Q 1578 3388 1720 2800 
Q 1863 2213 1863 1600 
Q 1863 1147 1786 708 
Q 1709 269 1542 -157 
Q 1375 -584 1119 -945 
Q 863 -1306 506 -1588 
Q 494 -1600 475 -1600 
L 416 -1600 
z
" transform="scale(0.015625)"/>
      <path id="Cmr10-3d" d="M 481 850 
Q 428 850 393 890 
Q 359 931 359 978 
Q 359 1031 393 1068 
Q 428 1106 481 1106 
L 4500 1106 
Q 4547 1106 4581 1068 
Q 4616 1031 4616 978 
Q 4616 931 4581 890 
Q 4547 850 4500 850 
L 481 850 
z
M 481 2094 
Q 428 2094 393 2131 
Q 359 2169 359 2222 
Q 359 2269 393 2309 
Q 428 2350 481 2350 
L 4500 2350 
Q 4547 2350 4581 2309 
Q 4616 2269 4616 2222 
Q 4616 2169 4581 2131 
Q 4547 2094 4500 2094 
L 481 2094 
z
" transform="scale(0.015625)"/>
      <path id="Cmmi10-41" d="M 288 0 
Q 225 0 225 84 
Q 250 225 306 225 
Q 566 225 755 328 
Q 944 431 1081 647 
Q 1094 659 1094 659 
L 3378 4513 
Q 3428 4581 3500 4581 
L 3584 4581 
Q 3603 4581 3622 4573 
Q 3641 4566 3655 4548 
Q 3669 4531 3669 4513 
L 4056 378 
Q 4056 350 4084 294 
Q 4147 225 4563 225 
Q 4628 225 4628 141 
Q 4606 56 4592 28 
Q 4578 0 4519 0 
L 2919 0 
Q 2859 0 2859 84 
Q 2894 225 2944 225 
Q 3450 225 3481 397 
L 3384 1453 
L 1806 1453 
L 1294 594 
Q 1247 525 1247 434 
Q 1247 322 1355 273 
Q 1463 225 1594 225 
Q 1656 225 1656 141 
Q 1634 50 1621 25 
Q 1609 0 1550 0 
L 288 0 
z
M 1931 1678 
L 3359 1678 
L 3169 3750 
L 1931 1678 
z
" transform="scale(0.015625)"/>
      <path id="Cmr10-63" d="M 1594 -72 
Q 1206 -72 890 129 
Q 575 331 394 667 
Q 213 1003 213 1381 
Q 213 1759 392 2106 
Q 572 2453 889 2661 
Q 1206 2869 1594 2869 
Q 1969 2869 2276 2722 
Q 2584 2575 2584 2241 
Q 2584 2116 2495 2023 
Q 2406 1931 2278 1931 
Q 2150 1931 2061 2023 
Q 1972 2116 1972 2241 
Q 1972 2353 2044 2436 
Q 2116 2519 2222 2541 
Q 2000 2681 1600 2681 
Q 1294 2681 1106 2478 
Q 919 2275 844 1975 
Q 769 1675 769 1381 
Q 769 1072 861 783 
Q 953 494 1158 305 
Q 1363 116 1672 116 
Q 1975 116 2187 302 
Q 2400 488 2478 788 
Q 2478 825 2528 825 
L 2606 825 
Q 2625 825 2640 808 
Q 2656 791 2656 769 
L 2656 750 
Q 2559 372 2271 150 
Q 1984 -72 1594 -72 
z
" transform="scale(0.015625)"/>
      <path id="Cmr10-6f" d="M 1600 -72 
Q 1216 -72 887 123 
Q 559 319 368 647 
Q 178 975 178 1363 
Q 178 1656 283 1928 
Q 388 2200 583 2414 
Q 778 2628 1037 2748 
Q 1297 2869 1600 2869 
Q 1994 2869 2317 2661 
Q 2641 2453 2828 2104 
Q 3016 1756 3016 1363 
Q 3016 978 2825 648 
Q 2634 319 2307 123 
Q 1981 -72 1600 -72 
z
M 1600 116 
Q 2113 116 2284 487 
Q 2456 859 2456 1434 
Q 2456 1756 2422 1967 
Q 2388 2178 2272 2350 
Q 2200 2456 2089 2536 
Q 1978 2616 1854 2658 
Q 1731 2700 1600 2700 
Q 1400 2700 1220 2609 
Q 1041 2519 922 2350 
Q 803 2169 770 1951 
Q 738 1734 738 1434 
Q 738 1075 800 789 
Q 863 503 1052 309 
Q 1241 116 1600 116 
z
" transform="scale(0.015625)"/>
      <path id="Cmr10-73" d="M 213 -19 
L 213 1025 
Q 213 1075 269 1075 
L 347 1075 
Q 384 1075 397 1025 
Q 575 97 1259 97 
Q 1563 97 1767 234 
Q 1972 372 1972 659 
Q 1972 866 1812 1011 
Q 1653 1156 1434 1209 
L 1006 1294 
Q 791 1341 614 1437 
Q 438 1534 325 1695 
Q 213 1856 213 2069 
Q 213 2350 361 2529 
Q 509 2709 746 2789 
Q 984 2869 1259 2869 
Q 1588 2869 1831 2694 
L 2016 2853 
Q 2016 2869 2047 2869 
L 2094 2869 
Q 2113 2869 2128 2851 
Q 2144 2834 2144 2816 
L 2144 1978 
Q 2144 1919 2094 1919 
L 2016 1919 
Q 1959 1919 1959 1978 
Q 1959 2313 1773 2516 
Q 1588 2719 1253 2719 
Q 966 2719 755 2612 
Q 544 2506 544 2247 
Q 544 2069 695 1955 
Q 847 1841 1050 1791 
L 1484 1709 
Q 1703 1659 1892 1540 
Q 2081 1422 2192 1240 
Q 2303 1059 2303 831 
Q 2303 600 2223 429 
Q 2144 259 2001 146 
Q 1859 34 1665 -19 
Q 1472 -72 1259 -72 
Q 859 -72 575 197 
L 341 -56 
Q 341 -72 306 -72 
L 269 -72 
Q 213 -72 213 -19 
z
" transform="scale(0.015625)"/>
      <path id="Cmmi10-42" d="M 319 0 
Q 256 0 256 84 
Q 259 100 268 137 
Q 278 175 293 200 
Q 309 225 341 225 
Q 522 225 656 234 
Q 791 244 884 269 
Q 959 297 1006 441 
L 1881 3956 
Q 1894 4019 1894 4044 
Q 1894 4113 1819 4122 
Q 1697 4147 1356 4147 
Q 1294 4147 1294 4231 
Q 1297 4247 1306 4286 
Q 1316 4325 1333 4348 
Q 1350 4372 1375 4372 
L 3669 4372 
Q 3878 4372 4083 4320 
Q 4288 4269 4461 4156 
Q 4634 4044 4736 3876 
Q 4838 3709 4838 3488 
Q 4838 3247 4714 3040 
Q 4591 2834 4395 2681 
Q 4200 2528 3973 2429 
Q 3747 2331 3500 2284 
Q 3675 2284 3854 2215 
Q 4034 2147 4175 2028 
Q 4316 1909 4402 1743 
Q 4488 1578 4488 1388 
Q 4488 1003 4219 684 
Q 3950 366 3542 183 
Q 3134 0 2753 0 
L 319 0 
z
M 1497 275 
Q 1497 225 1716 225 
L 2631 225 
Q 2944 225 3231 398 
Q 3519 572 3692 859 
Q 3866 1147 3866 1459 
Q 3866 1650 3786 1820 
Q 3706 1991 3556 2089 
Q 3406 2188 3213 2188 
L 1966 2188 
L 1522 416 
Q 1497 328 1497 275 
z
M 2009 2356 
L 2981 2356 
Q 3288 2356 3577 2512 
Q 3866 2669 4048 2937 
Q 4231 3206 4231 3506 
Q 4231 3784 4057 3965 
Q 3884 4147 3609 4147 
L 2731 4147 
Q 2559 4147 2500 4115 
Q 2441 4084 2400 3928 
L 2009 2356 
z
" transform="scale(0.015625)"/>
      <path id="Cmr10-2b" d="M 481 1472 
Q 428 1472 393 1512 
Q 359 1553 359 1600 
Q 359 1647 393 1687 
Q 428 1728 481 1728 
L 2363 1728 
L 2363 3616 
Q 2363 3666 2400 3698 
Q 2438 3731 2491 3731 
Q 2538 3731 2578 3698 
Q 2619 3666 2619 3616 
L 2619 1728 
L 4500 1728 
Q 4547 1728 4581 1687 
Q 4616 1647 4616 1600 
Q 4616 1553 4581 1512 
Q 4547 1472 4500 1472 
L 2619 1472 
L 2619 -416 
Q 2619 -466 2578 -498 
Q 2538 -531 2491 -531 
Q 2438 -531 2400 -498 
Q 2363 -466 2363 -416 
L 2363 1472 
L 481 1472 
z
" transform="scale(0.015625)"/>
      <path id="Cmmi10-43" d="M 934 1381 
Q 934 997 1082 705 
Q 1231 413 1514 248 
Q 1797 84 2181 84 
Q 2584 84 2957 290 
Q 3331 497 3595 842 
Q 3859 1188 3956 1575 
Q 3969 1613 4006 1613 
L 4084 1613 
Q 4109 1613 4125 1595 
Q 4141 1578 4141 1556 
Q 4141 1550 4134 1538 
Q 4025 1094 3711 705 
Q 3397 316 2959 87 
Q 2522 -141 2059 -141 
Q 1559 -141 1162 84 
Q 766 309 545 709 
Q 325 1109 325 1613 
Q 325 2150 565 2676 
Q 806 3203 1212 3614 
Q 1619 4025 2139 4269 
Q 2659 4513 3194 4513 
Q 3406 4513 3600 4448 
Q 3794 4384 3959 4253 
Q 4125 4122 4231 3950 
L 4738 4500 
Q 4738 4513 4769 4513 
L 4806 4513 
Q 4831 4513 4847 4491 
Q 4863 4469 4863 4447 
L 4428 2719 
Q 4428 2675 4378 2675 
L 4263 2675 
Q 4213 2675 4213 2747 
Q 4238 2888 4238 3084 
Q 4238 3397 4131 3673 
Q 4025 3950 3801 4119 
Q 3578 4288 3256 4288 
Q 2734 4288 2300 4025 
Q 1866 3763 1564 3336 
Q 1263 2909 1098 2389 
Q 934 1869 934 1381 
z
" transform="scale(0.015625)"/>
      <path id="Cmmi10-44" d="M 313 0 
Q 250 0 250 84 
Q 253 100 262 139 
Q 272 178 289 201 
Q 306 225 331 225 
Q 722 225 878 269 
Q 959 297 997 441 
L 1875 3956 
Q 1888 4019 1888 4044 
Q 1888 4113 1813 4122 
Q 1691 4147 1350 4147 
Q 1288 4147 1288 4231 
Q 1291 4247 1300 4286 
Q 1309 4325 1326 4348 
Q 1344 4372 1369 4372 
L 3669 4372 
Q 4116 4372 4450 4155 
Q 4784 3938 4962 3570 
Q 5141 3203 5141 2759 
Q 5141 2269 4937 1778 
Q 4734 1288 4368 881 
Q 4003 475 3534 237 
Q 3066 0 2572 0 
L 313 0 
z
M 1509 275 
Q 1509 225 1728 225 
L 2472 225 
Q 2828 225 3159 372 
Q 3491 519 3750 775 
Q 3991 1016 4175 1406 
Q 4359 1797 4461 2222 
Q 4563 2647 4563 3003 
Q 4563 3263 4486 3472 
Q 4409 3681 4270 3831 
Q 4131 3981 3922 4064 
Q 3713 4147 3450 4147 
L 2747 4147 
Q 2572 4147 2515 4117 
Q 2459 4088 2413 3928 
L 1538 416 
Q 1509 338 1509 275 
z
" transform="scale(0.015625)"/>
     </defs>
     <use xlink:href="#Cmmi10-66"/>
     <use xlink:href="#Cmr10-28" transform="translate(48.876953 0)"/>
     <use xlink:href="#Cmmi10-74" transform="translate(87.695312 0)"/>
     <use xlink:href="#Cmr10-29" transform="translate(123.779297 0)"/>
     <use xlink:href="#Cmr10-3d" transform="translate(180.15625 0)"/>
     <use xlink:href="#Cmmi10-41" transform="translate(275.400391 0)"/>
     <use xlink:href="#Cmr10-63" transform="translate(350.400391 0)"/>
     <use xlink:href="#Cmr10-6f" transform="translate(394.785156 0)"/>
     <use xlink:href="#Cmr10-73" transform="translate(444.785156 0)"/>
     <use xlink:href="#Cmr10-28" transform="translate(484.189453 0)"/>
     <use xlink:href="#Cmmi10-42" transform="translate(523.007812 0)"/>
     <use xlink:href="#Cmr10-28" transform="translate(598.789062 0)"/>
     <use xlink:href="#Cmmi10-74" transform="translate(637.607422 0)"/>
     <use xlink:href="#Cmr10-2b" transform="translate(691.25 0)"/>
     <use xlink:href="#Cmmi10-43" transform="translate(786.494141 0)"/>
     <use xlink:href="#Cmr10-29" transform="translate(857.880859 0)"/>
     <use xlink:href="#Cmr10-29" transform="translate(896.699219 0)"/>
     <use xlink:href="#Cmr10-2b" transform="translate(953.076172 0)"/>
     <use xlink:href="#Cmmi10-44" transform="translate(1048.320312 0)"/>
    </g>
   </g>
  </g>
 </g>
 <defs>
  <clipPath id="p553f329344">
   <rect x="29.91375" y="10.8" width="587.244545" height="306.42"/>
  </clipPath>
 </defs>
</svg>
