<?xml version="1.0" encoding="utf-8" standalone="no"?>
<!DOCTYPE svg PUBLIC "-//W3C//DTD SVG 1.1//EN"
  "http://www.w3.org/Graphics/SVG/1.1/DTD/svg11.dtd">
<svg xmlns:xlink="http://www.w3.org/1999/xlink" width="552.15375pt" height="311.13375pt" viewBox="0 0 552.15375 311.13375" xmlns="http://www.w3.org/2000/svg" version="1.1">
 <metadata>
  <rdf:RDF xmlns:dc="http://purl.org/dc/elements/1.1/" xmlns:cc="http://creativecommons.org/ns#" xmlns:rdf="http://www.w3.org/1999/02/22-rdf-syntax-ns#">
   <cc:Work>
    <dc:type rdf:resource="http://purl.org/dc/dcmitype/StillImage"/>
    <dc:date>2026-02-19T08:27:09.326989</dc:date>
    <dc:format>image/svg+xml</dc:format>
    <dc:creator>
     <cc:Agent>
      <dc:title>Matplotlib v3.10.1, https://matplotlib.org/</dc:title>
     </cc:Agent>
    </dc:creator>
   </cc:Work>
  </rdf:RDF>
 </metadata>
 <defs>
  <style type="text/css">*{stroke-linejoin: round; stroke-linecap: butt}</style>
 </defs>
 <g id="figure_1">
  <g id="patch_1">
   <path d="M 0 311.13375 
L 552.15375 311.13375 
L 552.15375 0 
L 0 0 
z
" style="fill: #ffffff"/>
  </g>
  <g id="axes_1">
   <g id="patch_2">
    <path d="M 29.91375 281.22 
L 541.35375 281.22 
L 541.35375 10.8 
L 29.91375 10.8 
z
" style="fill: #ffffff"/>
   </g>
   <g id="matplotlib.axis_1">
    <g id="xtick_1">
     <g id="line2d_1">
      <path d="M 53.161023 281.22 
L 53.161023 10.8 
" clip-path="url(#pf8cbb6a086)" style="fill: none; stroke: #cccccc; stroke-width: 0.8; stroke-linecap: round"/>
     </g>
     <g id="line2d_2"/>
    </g>
    <g id="xtick_2">
     <g id="line2d_3">
      <path d="M 124.691093 281.22 
L 124.691093 10.8 
" clip-path="url(#pf8cbb6a086)" style="fill: none; stroke: #cccccc; stroke-width: 0.8; stroke-linecap: round"/>
     </g>
     <g id="line2d_4"/>
    </g>
    <g id="xtick_3">
     <g id="line2d_5">
      <path d="M 196.221163 281.22 
L 196.221163 10.8 
" clip-path="url(#pf8cbb6a086)" style="fill: none; stroke: #cccccc; stroke-width: 0.8; stroke-linecap: round"/>
     </g>
     <g id="line2d_6"/>
    </g>
    <g id="xtick_4">
     <g id="line2d_7">
      <path d="M 267.751233 281.22 
L 267.751233 10.8 
" clip-path="url(#pf8cbb6a086)" style="fill: none; stroke: #cccccc; stroke-width: 0.8; stroke-linecap: round"/>
     </g>
     <g id="line2d_8"/>
    </g>
    <g id="xtick_5">
     <g id="line2d_9">
      <path d="M 339.281302 281.22 
L 339.281302 10.8 
" clip-path="url(#pf8cbb6a086)" style="fill: none; stroke: #cccccc; stroke-width: 0.8; stroke-linecap: round"/>
     </g>
     <g id="line2d_10"/>
    </g>
    <g id="xtick_6">
     <g id="line2d_11">
      <path d="M 410.811372 281.22 
L 410.811372 10.8 
" clip-path="url(#pf8cbb6a086)" style="fill: none; stroke: #cccccc; stroke-width: 0.8; stroke-linecap: round"/>
     </g>
     <g id="line2d_12"/>
    </g>
    <g id="xtick_7">
     <g id="line2d_13">
      <path d="M 482.341442 281.22 
L 482.341442 10.8 
" clip-path="url(#pf8cbb6a086)" style="fill: none; stroke: #cccccc; stroke-width: 0.8; stroke-linecap: round"/>
     </g>
     <g id="line2d_14"/>
    </g>
    <g id="text_1">
     <!-- Year -->
     <g style="fill: #262626" transform="translate(272.20125 297.838125) scale(0.12 -0.12)">
      <defs>
       <path id="DejaVuSerif-59" d="M 1209 0 
L 1209 331 
L 1806 331 
L 1806 2009 
L 366 4331 
L -72 4331 
L -72 4666 
L 1663 4666 
L 1663 4331 
L 1119 4331 
L 2284 2444 
L 3450 4331 
L 2925 4331 
L 2925 4666 
L 4281 4666 
L 4281 4331 
L 3841 4331 
L 2438 2069 
L 2438 331 
L 3034 331 
L 3034 0 
L 1209 0 
z
" transform="scale(0.015625)"/>
       <path id="DejaVuSerif-65" d="M 3469 1600 
L 991 1600 
L 991 1575 
Q 991 903 1244 561 
Q 1497 219 1991 219 
Q 2369 219 2611 417 
Q 2853 616 2950 1006 
L 3413 1006 
Q 3275 459 2904 184 
Q 2534 -91 1931 -91 
Q 1203 -91 761 389 
Q 319 869 319 1663 
Q 319 2450 753 2931 
Q 1188 3413 1894 3413 
Q 2647 3413 3050 2948 
Q 3453 2484 3469 1600 
z
M 2791 1931 
Q 2772 2513 2545 2808 
Q 2319 3103 1894 3103 
Q 1497 3103 1269 2806 
Q 1041 2509 991 1931 
L 2791 1931 
z
" transform="scale(0.015625)"/>
       <path id="DejaVuSerif-61" d="M 2547 1044 
L 2547 1747 
L 1806 1747 
Q 1378 1747 1168 1562 
Q 959 1378 959 997 
Q 959 650 1171 447 
Q 1384 244 1747 244 
Q 2106 244 2326 466 
Q 2547 688 2547 1044 
z
M 3122 2075 
L 3122 331 
L 3634 331 
L 3634 0 
L 2547 0 
L 2547 359 
Q 2356 128 2106 18 
Q 1856 -91 1522 -91 
Q 969 -91 644 203 
Q 319 497 319 997 
Q 319 1513 691 1797 
Q 1063 2081 1741 2081 
L 2547 2081 
L 2547 2309 
Q 2547 2688 2317 2895 
Q 2088 3103 1672 3103 
Q 1328 3103 1125 2947 
Q 922 2791 872 2484 
L 575 2484 
L 575 3156 
Q 875 3284 1158 3348 
Q 1441 3413 1709 3413 
Q 2400 3413 2761 3070 
Q 3122 2728 3122 2075 
z
" transform="scale(0.015625)"/>
       <path id="DejaVuSerif-72" d="M 3059 3328 
L 3059 2497 
L 2728 2497 
Q 2713 2744 2591 2866 
Q 2469 2988 2234 2988 
Q 1809 2988 1582 2694 
Q 1356 2400 1356 1850 
L 1356 331 
L 2022 331 
L 2022 0 
L 263 0 
L 263 331 
L 781 331 
L 781 2994 
L 231 2994 
L 231 3322 
L 1356 3322 
L 1356 2731 
Q 1525 3078 1790 3245 
Q 2056 3413 2438 3413 
Q 2578 3413 2733 3391 
Q 2888 3369 3059 3328 
z
" transform="scale(0.015625)"/>
      </defs>
      <use xlink:href="#DejaVuSerif-59"/>
      <use xlink:href="#DejaVuSerif-65" transform="translate(57.265625 0)"/>
      <use xlink:href="#DejaVuSerif-61" transform="translate(116.445312 0)"/>
      <use xlink:href="#DejaVuSerif-72" transform="translate(176.064453 0)"/>
     </g>
    </g>
   </g>
   <g id="matplotlib.axis_2">
    <g id="ytick_1">
     <g id="line2d_15">
      <path d="M 29.91375 269.201333 
L 541.35375 269.201333 
" clip-path="url(#pf8cbb6a086)" style="fill: none; stroke: #cccccc; stroke-width: 0.8; stroke-linecap: round"/>
     </g>
     <g id="line2d_16"/>
    </g>
    <g id="ytick_2">
     <g id="line2d_17">
      <path d="M 29.91375 239.154667 
L 541.35375 239.154667 
" clip-path="url(#pf8cbb6a086)" style="fill: none; stroke: #cccccc; stroke-width: 0.8; stroke-linecap: round"/>
     </g>
     <g id="line2d_18"/>
    </g>
    <g id="ytick_3">
     <g id="line2d_19">
      <path d="M 29.91375 209.108 
L 541.35375 209.108 
" clip-path="url(#pf8cbb6a086)" style="fill: none; stroke: #cccccc; stroke-width: 0.8; stroke-linecap: round"/>
     </g>
     <g id="line2d_20"/>
    </g>
    <g id="ytick_4">
     <g id="line2d_21">
      <path d="M 29.91375 179.061333 
L 541.35375 179.061333 
" clip-path="url(#pf8cbb6a086)" style="fill: none; stroke: #cccccc; stroke-width: 0.8; stroke-linecap: round"/>
     </g>
     <g id="line2d_22"/>
    </g>
    <g id="ytick_5">
     <g id="line2d_23">
      <path d="M 29.91375 149.014667 
L 541.35375 149.014667 
" clip-path="url(#pf8cbb6a086)" style="fill: none; stroke: #cccccc; stroke-width: 0.8; stroke-linecap: round"/>
     </g>
     <g id="line2d_24"/>
    </g>
    <g id="ytick_6">
     <g id="line2d_25">
      <path d="M 29.91375 118.968 
L 541.35375 118.968 
" clip-path="url(#pf8cbb6a086)" style="fill: none; stroke: #cccccc; stroke-width: 0.8; stroke-linecap: round"/>
     </g>
     <g id="line2d_26"/>
    </g>
    <g id="ytick_7">
     <g id="line2d_27">
      <path d="M 29.91375 88.921333 
L 541.35375 88.921333 
" clip-path="url(#pf8cbb6a086)" style="fill: none; stroke: #cccccc; stroke-width: 0.8; stroke-linecap: round"/>
     </g>
     <g id="line2d_28"/>
    </g>
    <g id="ytick_8">
     <g id="line2d_29">
      <path d="M 29.91375 58.874667 
L 541.35375 58.874667 
" clip-path="url(#pf8cbb6a086)" style="fill: none; stroke: #cccccc; stroke-width: 0.8; stroke-linecap: round"/>
     </g>
     <g id="line2d_30"/>
    </g>
    <g id="ytick_9">
     <g id="line2d_31">
      <path d="M 29.91375 28.828 
L 541.35375 28.828 
" clip-path="url(#pf8cbb6a086)" style="fill: none; stroke: #cccccc; stroke-width: 0.8; stroke-linecap: round"/>
     </g>
     <g id="line2d_32"/>
    </g>
    <g id="text_2">
     <!-- Production (million tonnes) -->
     <g style="fill: #262626" transform="translate(19.918125 229.119375) rotate(-90) scale(0.12 -0.12)">
      <defs>
       <path id="DejaVuSerif-50" d="M 1581 2375 
L 2406 2375 
Q 2872 2375 3115 2626 
Q 3359 2878 3359 3353 
Q 3359 3831 3115 4081 
Q 2872 4331 2406 4331 
L 1581 4331 
L 1581 2375 
z
M 353 0 
L 353 331 
L 947 331 
L 947 4331 
L 353 4331 
L 353 4666 
L 2559 4666 
Q 3259 4666 3668 4311 
Q 4078 3956 4078 3353 
Q 4078 2753 3668 2397 
Q 3259 2041 2559 2041 
L 1581 2041 
L 1581 331 
L 2303 331 
L 2303 0 
L 353 0 
z
" transform="scale(0.015625)"/>
       <path id="DejaVuSerif-6f" d="M 1925 219 
Q 2388 219 2623 584 
Q 2859 950 2859 1663 
Q 2859 2375 2623 2739 
Q 2388 3103 1925 3103 
Q 1463 3103 1227 2739 
Q 991 2375 991 1663 
Q 991 950 1228 584 
Q 1466 219 1925 219 
z
M 1925 -91 
Q 1200 -91 759 389 
Q 319 869 319 1663 
Q 319 2456 758 2934 
Q 1197 3413 1925 3413 
Q 2653 3413 3092 2934 
Q 3531 2456 3531 1663 
Q 3531 869 3092 389 
Q 2653 -91 1925 -91 
z
" transform="scale(0.015625)"/>
       <path id="DejaVuSerif-64" d="M 3359 331 
L 3909 331 
L 3909 0 
L 2784 0 
L 2784 519 
Q 2616 206 2355 57 
Q 2094 -91 1709 -91 
Q 1097 -91 708 395 
Q 319 881 319 1663 
Q 319 2444 706 2928 
Q 1094 3413 1709 3413 
Q 2094 3413 2355 3264 
Q 2616 3116 2784 2803 
L 2784 4531 
L 2241 4531 
L 2241 4863 
L 3359 4863 
L 3359 331 
z
M 2784 1497 
L 2784 1825 
Q 2784 2422 2554 2737 
Q 2325 3053 1888 3053 
Q 1444 3053 1217 2703 
Q 991 2353 991 1663 
Q 991 975 1217 622 
Q 1444 269 1888 269 
Q 2325 269 2554 583 
Q 2784 897 2784 1497 
z
" transform="scale(0.015625)"/>
       <path id="DejaVuSerif-75" d="M 2266 3322 
L 3341 3322 
L 3341 331 
L 3884 331 
L 3884 0 
L 2766 0 
L 2766 588 
Q 2606 256 2353 82 
Q 2100 -91 1766 -91 
Q 1213 -91 952 223 
Q 691 538 691 1209 
L 691 2988 
L 172 2988 
L 172 3322 
L 1269 3322 
L 1269 1388 
Q 1269 781 1417 556 
Q 1566 331 1947 331 
Q 2347 331 2556 625 
Q 2766 919 2766 1478 
L 2766 2988 
L 2266 2988 
L 2266 3322 
z
" transform="scale(0.015625)"/>
       <path id="DejaVuSerif-63" d="M 3291 997 
Q 3169 466 2822 187 
Q 2475 -91 1925 -91 
Q 1200 -91 759 389 
Q 319 869 319 1663 
Q 319 2459 759 2936 
Q 1200 3413 1925 3413 
Q 2241 3413 2553 3339 
Q 2866 3266 3181 3116 
L 3181 2266 
L 2847 2266 
Q 2781 2703 2561 2903 
Q 2341 3103 1931 3103 
Q 1466 3103 1228 2742 
Q 991 2381 991 1663 
Q 991 944 1227 581 
Q 1463 219 1931 219 
Q 2303 219 2525 412 
Q 2747 606 2828 997 
L 3291 997 
z
" transform="scale(0.015625)"/>
       <path id="DejaVuSerif-74" d="M 691 2988 
L 184 2988 
L 184 3322 
L 691 3322 
L 691 4353 
L 1269 4353 
L 1269 3322 
L 2350 3322 
L 2350 2988 
L 1269 2988 
L 1269 878 
Q 1269 456 1350 337 
Q 1431 219 1650 219 
Q 1875 219 1978 351 
Q 2081 484 2088 781 
L 2522 781 
Q 2497 328 2275 118 
Q 2053 -91 1600 -91 
Q 1103 -91 897 129 
Q 691 350 691 878 
L 691 2988 
z
" transform="scale(0.015625)"/>
       <path id="DejaVuSerif-69" d="M 622 4353 
Q 622 4497 726 4603 
Q 831 4709 978 4709 
Q 1122 4709 1226 4603 
Q 1331 4497 1331 4353 
Q 1331 4206 1228 4103 
Q 1125 4000 978 4000 
Q 831 4000 726 4103 
Q 622 4206 622 4353 
z
M 1356 331 
L 1900 331 
L 1900 0 
L 231 0 
L 231 331 
L 781 331 
L 781 2988 
L 231 2988 
L 231 3322 
L 1356 3322 
L 1356 331 
z
" transform="scale(0.015625)"/>
       <path id="DejaVuSerif-6e" d="M 263 0 
L 263 331 
L 781 331 
L 781 2988 
L 231 2988 
L 231 3322 
L 1356 3322 
L 1356 2731 
Q 1516 3069 1770 3241 
Q 2025 3413 2363 3413 
Q 2913 3413 3172 3097 
Q 3431 2781 3431 2113 
L 3431 331 
L 3944 331 
L 3944 0 
L 2356 0 
L 2356 331 
L 2853 331 
L 2853 1931 
Q 2853 2541 2703 2767 
Q 2553 2994 2175 2994 
Q 1775 2994 1565 2701 
Q 1356 2409 1356 1850 
L 1356 331 
L 1856 331 
L 1856 0 
L 263 0 
z
" transform="scale(0.015625)"/>
       <path id="DejaVuSerif-20" transform="scale(0.015625)"/>
       <path id="DejaVuSerif-28" d="M 2041 -997 
Q 1281 -656 893 83 
Q 506 822 506 1931 
Q 506 3044 893 3783 
Q 1281 4522 2041 4863 
L 2041 4556 
Q 1559 4225 1350 3623 
Q 1141 3022 1141 1931 
Q 1141 844 1350 242 
Q 1559 -359 2041 -691 
L 2041 -997 
z
" transform="scale(0.015625)"/>
       <path id="DejaVuSerif-6d" d="M 3316 2675 
Q 3481 3041 3739 3227 
Q 3997 3413 4341 3413 
Q 4863 3413 5119 3089 
Q 5375 2766 5375 2113 
L 5375 331 
L 5894 331 
L 5894 0 
L 4300 0 
L 4300 331 
L 4800 331 
L 4800 2047 
Q 4800 2556 4650 2772 
Q 4500 2988 4153 2988 
Q 3769 2988 3567 2697 
Q 3366 2406 3366 1850 
L 3366 331 
L 3866 331 
L 3866 0 
L 2291 0 
L 2291 331 
L 2791 331 
L 2791 2069 
Q 2791 2566 2641 2777 
Q 2491 2988 2144 2988 
Q 1759 2988 1557 2697 
Q 1356 2406 1356 1850 
L 1356 331 
L 1856 331 
L 1856 0 
L 263 0 
L 263 331 
L 781 331 
L 781 2994 
L 231 2994 
L 231 3322 
L 1356 3322 
L 1356 2731 
Q 1516 3063 1762 3238 
Q 2009 3413 2322 3413 
Q 2709 3413 2968 3220 
Q 3228 3028 3316 2675 
z
" transform="scale(0.015625)"/>
       <path id="DejaVuSerif-6c" d="M 1313 331 
L 1856 331 
L 1856 0 
L 184 0 
L 184 331 
L 738 331 
L 738 4531 
L 184 4531 
L 184 4863 
L 1313 4863 
L 1313 331 
z
" transform="scale(0.015625)"/>
       <path id="DejaVuSerif-73" d="M 359 184 
L 359 959 
L 691 959 
Q 703 588 923 403 
Q 1144 219 1575 219 
Q 1963 219 2166 364 
Q 2369 509 2369 788 
Q 2369 1006 2220 1140 
Q 2072 1275 1594 1428 
L 1178 1569 
Q 750 1706 558 1912 
Q 366 2119 366 2438 
Q 366 2894 700 3153 
Q 1034 3413 1625 3413 
Q 1888 3413 2178 3344 
Q 2469 3275 2778 3144 
L 2778 2419 
L 2447 2419 
Q 2434 2741 2221 2922 
Q 2009 3103 1644 3103 
Q 1281 3103 1095 2975 
Q 909 2847 909 2591 
Q 909 2381 1050 2254 
Q 1191 2128 1613 1997 
L 2069 1856 
Q 2541 1709 2748 1489 
Q 2956 1269 2956 922 
Q 2956 450 2595 179 
Q 2234 -91 1600 -91 
Q 1278 -91 972 -22 
Q 666 47 359 184 
z
" transform="scale(0.015625)"/>
       <path id="DejaVuSerif-29" d="M 453 -997 
L 453 -691 
Q 934 -359 1145 242 
Q 1356 844 1356 1931 
Q 1356 3022 1145 3623 
Q 934 4225 453 4556 
L 453 4863 
Q 1216 4522 1603 3783 
Q 1991 3044 1991 1931 
Q 1991 822 1603 83 
Q 1216 -656 453 -997 
z
" transform="scale(0.015625)"/>
      </defs>
      <use xlink:href="#DejaVuSerif-50"/>
      <use xlink:href="#DejaVuSerif-72" transform="translate(67.285156 0)"/>
      <use xlink:href="#DejaVuSerif-6f" transform="translate(115.087891 0)"/>
      <use xlink:href="#DejaVuSerif-64" transform="translate(175.292969 0)"/>
      <use xlink:href="#DejaVuSerif-75" transform="translate(239.306641 0)"/>
      <use xlink:href="#DejaVuSerif-63" transform="translate(303.710938 0)"/>
      <use xlink:href="#DejaVuSerif-74" transform="translate(359.716797 0)"/>
      <use xlink:href="#DejaVuSerif-69" transform="translate(399.902344 0)"/>
      <use xlink:href="#DejaVuSerif-6f" transform="translate(431.884766 0)"/>
      <use xlink:href="#DejaVuSerif-6e" transform="translate(492.089844 0)"/>
      <use xlink:href="#DejaVuSerif-20" transform="translate(556.494141 0)"/>
      <use xlink:href="#DejaVuSerif-28" transform="translate(588.28125 0)"/>
      <use xlink:href="#DejaVuSerif-6d" transform="translate(627.294922 0)"/>
      <use xlink:href="#DejaVuSerif-69" transform="translate(722.119141 0)"/>
      <use xlink:href="#DejaVuSerif-6c" transform="translate(754.101562 0)"/>
      <use xlink:href="#DejaVuSerif-6c" transform="translate(786.083984 0)"/>
      <use xlink:href="#DejaVuSerif-69" transform="translate(818.066406 0)"/>
      <use xlink:href="#DejaVuSerif-6f" transform="translate(850.048828 0)"/>
      <use xlink:href="#DejaVuSerif-6e" transform="translate(910.253906 0)"/>
      <use xlink:href="#DejaVuSerif-20" transform="translate(974.658203 0)"/>
      <use xlink:href="#DejaVuSerif-74" transform="translate(1006.445312 0)"/>
      <use xlink:href="#DejaVuSerif-6f" transform="translate(1046.630859 0)"/>
      <use xlink:href="#DejaVuSerif-6e" transform="translate(1106.835938 0)"/>
      <use xlink:href="#DejaVuSerif-6e" transform="translate(1171.240234 0)"/>
      <use xlink:href="#DejaVuSerif-65" transform="translate(1235.644531 0)"/>
      <use xlink:href="#DejaVuSerif-73" transform="translate(1294.824219 0)"/>
      <use xlink:href="#DejaVuSerif-29" transform="translate(1346.142578 0)"/>
     </g>
    </g>
   </g>
   <g id="line2d_33">
    <path d="M 53.161023 268.966743 
L 64.843069 266.108158 
L 76.525116 263.500231 
L 88.207163 261.112161 
L 102.225618 258.493327 
L 116.244074 256.093518 
L 134.935349 253.142494 
L 162.972261 248.992688 
L 191.009173 244.796502 
L 207.364038 242.157998 
L 221.382494 239.704491 
L 235.40095 237.017638 
L 247.082996 234.561948 
L 258.765043 231.876456 
L 270.447089 228.930362 
L 279.792727 226.365157 
L 289.138364 223.597688 
L 298.484001 220.612184 
L 307.829639 217.392878 
L 317.175276 213.924 
L 326.520913 210.189782 
L 335.86655 206.174454 
L 345.212188 201.862247 
L 354.557825 197.237393 
L 361.567053 193.554091 
L 368.576281 189.679403 
L 375.585509 185.606675 
L 382.594737 181.329256 
L 389.603965 176.840492 
L 396.613193 172.133732 
L 403.622421 167.202322 
L 410.631649 162.039611 
L 417.640877 156.638945 
L 424.650104 150.993672 
L 431.659332 145.097139 
L 438.66856 138.942695 
L 445.677788 132.523686 
L 452.687016 125.833461 
L 459.696244 118.865366 
L 466.705472 111.612748 
L 473.7147 104.068957 
L 480.723928 96.227338 
L 487.733156 88.08124 
L 494.742384 79.624009 
L 501.751612 70.848994 
L 508.76084 61.749542 
L 515.770068 52.319 
L 518.106477 49.100761 
L 518.106477 49.100761 
" clip-path="url(#pf8cbb6a086)" style="fill: none; stroke: #2563eb; stroke-opacity: 0.6; stroke-width: 2; stroke-linecap: round"/>
   </g>
   <g id="patch_3">
    <path d="M 29.91375 281.22 
L 29.91375 10.8 
" style="fill: none; stroke: #cccccc; stroke-linejoin: miter; stroke-linecap: square"/>
   </g>
   <g id="patch_4">
    <path d="M 541.35375 281.22 
L 541.35375 10.8 
" style="fill: none; stroke: #cccccc; stroke-linejoin: miter; stroke-linecap: square"/>
   </g>
   <g id="patch_5">
    <path d="M 29.91375 281.22 
L 541.35375 281.22 
" style="fill: none; stroke: #cccccc; stroke-linejoin: miter; stroke-linecap: square"/>
   </g>
   <g id="patch_6">
    <path d="M 29.91375 10.8 
L 541.35375 10.8 
" style="fill: none; stroke: #cccccc; stroke-linejoin: miter; stroke-linecap: square"/>
   </g>
   <g id="text_3">
    <g id="patch_7">
     <path d="M 88.926058 45.546354 
L 177.529651 45.546354 
Q 180.229651 45.546354 180.229651 42.846354 
L 180.229651 24.05801 
Q 180.229651 21.35801 177.529651 21.35801 
L 88.926058 21.35801 
Q 86.226058 21.35801 86.226058 24.05801 
L 86.226058 42.846354 
Q 86.226058 45.546354 88.926058 45.546354 
z
" style="fill: #eff6ff; opacity: 0.9; stroke: #2563eb; stroke-linejoin: miter"/>
    </g>
    <!-- What is the domain -->
    <g style="fill: #262626" transform="translate(88.926058 30.768635) scale(0.09 -0.09)">
     <defs>
      <path id="DejaVuSerif-Italic-57" d="M 4425 0 
L 3913 0 
L 3581 3794 
L 1775 0 
L 1263 0 
L 881 4331 
L 419 4331 
L 484 4666 
L 2188 4666 
L 2122 4331 
L 1541 4331 
L 1844 884 
L 3641 4666 
L 4147 4666 
L 4484 844 
L 6141 4331 
L 5603 4331 
L 5669 4666 
L 7013 4666 
L 6947 4331 
L 6488 4331 
L 4425 0 
z
" transform="scale(0.015625)"/>
      <path id="DejaVuSerif-Italic-68" d="M 309 0 
L 1191 4531 
L 641 4531 
L 703 4863 
L 1828 4863 
L 1416 2731 
Q 1641 3069 1928 3241 
Q 2216 3413 2553 3413 
Q 3103 3413 3300 3097 
Q 3422 2906 3422 2588 
Q 3422 2378 3369 2113 
L 3022 331 
L 3534 331 
L 3472 0 
L 2381 0 
L 2756 1931 
Q 2819 2253 2819 2469 
Q 2819 2659 2769 2763 
Q 2666 2988 2284 2988 
Q 1884 2988 1617 2697 
Q 1350 2406 1244 1850 
L 884 0 
L 309 0 
z
" transform="scale(0.015625)"/>
      <path id="DejaVuSerif-Italic-61" d="M 2325 519 
Q 1909 -91 1238 -91 
Q 688 -91 409 281 
Q 216 544 216 919 
Q 216 1078 250 1256 
Q 463 2359 1231 2928 
Q 1884 3413 2675 3413 
Q 3206 3413 3388 3322 
L 2806 331 
L 3300 331 
L 3238 0 
L 2225 0 
L 2325 519 
z
M 822 938 
Q 822 269 1469 269 
Q 1863 269 2130 583 
Q 2397 897 2516 1497 
L 2806 3003 
L 2806 3003 
Q 2806 3094 2556 3094 
Q 1956 3094 1491 2625 
Q 1028 2153 863 1297 
Q 822 1097 822 938 
z
" transform="scale(0.015625)"/>
      <path id="DejaVuSerif-Italic-74" d="M 856 2988 
L 350 2988 
L 416 3322 
L 922 3322 
L 1122 4353 
L 1700 4353 
L 1500 3322 
L 2581 3322 
L 2516 2988 
L 1434 2988 
L 1025 878 
Q 978 631 978 488 
Q 978 388 1000 338 
Q 1059 219 1278 219 
Q 1503 219 1633 351 
Q 1763 484 1825 781 
L 2259 781 
Q 2147 328 1884 118 
Q 1622 -91 1169 -91 
Q 672 -91 506 131 
Q 406 266 406 516 
Q 406 675 447 878 
L 856 2988 
z
" transform="scale(0.015625)"/>
      <path id="DejaVuSerif-Italic-20" transform="scale(0.015625)"/>
      <path id="DejaVuSerif-Italic-69" d="M 1009 4353 
Q 1038 4497 1163 4603 
Q 1288 4709 1434 4709 
Q 1578 4709 1663 4603 
Q 1728 4522 1728 4422 
Q 1728 4388 1719 4353 
Q 1691 4206 1567 4103 
Q 1444 4000 1297 4000 
Q 1150 4000 1066 4103 
Q 1003 4181 1003 4281 
Q 1003 4316 1009 4353 
z
M 963 331 
L 1506 331 
L 1444 0 
L 325 0 
L 903 2988 
L 353 2988 
L 419 3322 
L 1544 3322 
L 963 331 
z
" transform="scale(0.015625)"/>
      <path id="DejaVuSerif-Italic-73" d="M 222 959 
L 553 959 
Q 541 869 541 788 
Q 541 219 1313 219 
Q 2088 219 2200 788 
Q 2209 844 2209 944 
Q 2209 1041 2103 1158 
Q 1997 1275 1550 1428 
L 1159 1569 
Q 759 1706 629 1882 
Q 500 2059 500 2263 
Q 500 2344 516 2438 
Q 606 2894 990 3153 
Q 1375 3413 1931 3413 
Q 2484 3413 3066 3144 
L 2925 2419 
L 2594 2419 
Q 2606 2491 2606 2553 
Q 2606 2781 2448 2942 
Q 2291 3103 1925 3103 
Q 1191 3103 1091 2591 
Q 1078 2538 1078 2444 
Q 1078 2347 1179 2237 
Q 1281 2128 1678 1997 
L 2106 1856 
Q 2550 1709 2716 1488 
Q 2831 1331 2831 1178 
Q 2831 522 2306 181 
Q 1894 -91 1262 -91 
Q 631 -91 72 184 
L 222 959 
z
" transform="scale(0.015625)"/>
      <path id="DejaVuSerif-Italic-65" d="M 938 1275 
Q 925 1156 925 1050 
Q 925 756 1031 563 
Q 1216 219 1709 219 
Q 2072 219 2250 328 
Q 2569 525 2644 778 
L 3066 778 
Q 2941 381 2475 103 
Q 2150 -91 1506 -91 
Q 863 -91 516 388 
Q 272 722 272 1206 
Q 272 1419 319 1659 
Q 472 2450 1000 2931 
Q 1528 3413 2278 3413 
Q 3500 3413 3500 2547 
Q 3500 1913 2859 1603 
Q 2206 1288 938 1275 
z
M 2541 1975 
Q 2891 2181 2891 2569 
Q 2891 3103 2181 3103 
Q 1763 3103 1472 2784 
Q 1181 2466 1003 1606 
Q 2006 1653 2541 1975 
z
" transform="scale(0.015625)"/>
      <path id="DejaVuSerif-Italic-64" d="M 3841 4863 
L 2897 0 
L 2322 0 
L 2422 519 
Q 2191 206 1902 57 
Q 1613 -91 1228 -91 
Q 616 -91 322 394 
Q 125 716 125 1166 
Q 125 1397 178 1663 
Q 331 2444 812 2928 
Q 1294 3413 1909 3413 
Q 2294 3413 2525 3264 
Q 2756 3116 2866 2803 
L 3200 4531 
L 2656 4531 
L 2722 4863 
L 3841 4863 
z
M 2613 1497 
L 2675 1825 
Q 2722 2069 2722 2266 
Q 2722 2550 2622 2738 
Q 2456 3053 2019 3053 
Q 1575 3053 1279 2703 
Q 984 2353 850 1663 
Q 788 1347 788 1103 
Q 788 813 875 622 
Q 1031 269 1475 269 
Q 1913 269 2203 583 
Q 2494 897 2613 1497 
z
" transform="scale(0.015625)"/>
      <path id="DejaVuSerif-Italic-6f" d="M 1644 219 
Q 2106 219 2414 584 
Q 2722 950 2859 1663 
Q 2922 1988 2922 2241 
Q 2922 2541 2834 2738 
Q 2669 3103 2206 3103 
Q 1744 3103 1436 2739 
Q 1128 2375 991 1663 
Q 928 1338 928 1088 
Q 928 784 1019 584 
Q 1184 219 1644 219 
z
M 1584 -91 
Q 859 -91 513 388 
Q 272 722 272 1203 
Q 272 1419 319 1663 
Q 472 2456 1005 2934 
Q 1538 3413 2266 3413 
Q 2994 3413 3341 2934 
Q 3578 2603 3578 2122 
Q 3578 1906 3531 1663 
Q 3378 869 2845 389 
Q 2313 -91 1584 -91 
z
" transform="scale(0.015625)"/>
      <path id="DejaVuSerif-Italic-6d" d="M 3503 2675 
Q 3741 3041 4034 3227 
Q 4328 3413 4672 3413 
Q 5194 3413 5388 3088 
Q 5503 2894 5503 2578 
Q 5503 2372 5453 2113 
L 5106 331 
L 5625 331 
L 5563 0 
L 4469 0 
L 4866 2047 
Q 4913 2291 4913 2466 
Q 4913 2659 4856 2772 
Q 4750 2988 4403 2988 
Q 4019 2988 3761 2697 
Q 3503 2406 3394 1850 
L 3034 0 
L 2459 0 
L 2863 2069 
Q 2906 2303 2906 2472 
Q 2906 2666 2850 2775 
Q 2741 2988 2394 2988 
Q 2009 2988 1751 2697 
Q 1494 2406 1384 1850 
L 1025 0 
L 450 0 
L 1031 2994 
L 481 2994 
L 544 3322 
L 1669 3322 
L 1556 2731 
Q 1778 3063 2059 3238 
Q 2341 3413 2653 3413 
Q 3041 3413 3262 3220 
Q 3484 3028 3503 2675 
z
" transform="scale(0.015625)"/>
      <path id="DejaVuSerif-Italic-6e" d="M 450 0 
L 1031 2988 
L 481 2988 
L 544 3322 
L 1669 3322 
L 1556 2731 
Q 1781 3069 2068 3241 
Q 2356 3413 2694 3413 
Q 3244 3413 3444 3097 
Q 3563 2906 3563 2588 
Q 3563 2378 3509 2113 
L 3163 331 
L 3675 331 
L 3613 0 
L 2522 0 
L 2897 1931 
Q 2959 2253 2959 2469 
Q 2959 2659 2909 2769 
Q 2803 2994 2425 2994 
Q 2025 2994 1759 2701 
Q 1494 2409 1384 1850 
L 1025 0 
L 450 0 
z
" transform="scale(0.015625)"/>
     </defs>
     <use xlink:href="#DejaVuSerif-Italic-57"/>
     <use xlink:href="#DejaVuSerif-Italic-68" transform="translate(102.783203 0)"/>
     <use xlink:href="#DejaVuSerif-Italic-61" transform="translate(167.1875 0)"/>
     <use xlink:href="#DejaVuSerif-Italic-74" transform="translate(226.806641 0)"/>
     <use xlink:href="#DejaVuSerif-Italic-20" transform="translate(266.992188 0)"/>
     <use xlink:href="#DejaVuSerif-Italic-69" transform="translate(298.779297 0)"/>
     <use xlink:href="#DejaVuSerif-Italic-73" transform="translate(330.761719 0)"/>
     <use xlink:href="#DejaVuSerif-Italic-20" transform="translate(382.080078 0)"/>
     <use xlink:href="#DejaVuSerif-Italic-74" transform="translate(413.867188 0)"/>
     <use xlink:href="#DejaVuSerif-Italic-68" transform="translate(454.052734 0)"/>
     <use xlink:href="#DejaVuSerif-Italic-65" transform="translate(518.457031 0)"/>
     <use xlink:href="#DejaVuSerif-Italic-20" transform="translate(577.636719 0)"/>
     <use xlink:href="#DejaVuSerif-Italic-64" transform="translate(609.423828 0)"/>
     <use xlink:href="#DejaVuSerif-Italic-6f" transform="translate(673.4375 0)"/>
     <use xlink:href="#DejaVuSerif-Italic-6d" transform="translate(733.642578 0)"/>
     <use xlink:href="#DejaVuSerif-Italic-61" transform="translate(828.466797 0)"/>
     <use xlink:href="#DejaVuSerif-Italic-69" transform="translate(888.085938 0)"/>
     <use xlink:href="#DejaVuSerif-Italic-6e" transform="translate(920.068359 0)"/>
    </g>
    <!-- and range? -->
    <g style="fill: #262626" transform="translate(88.926058 40.846667) scale(0.09 -0.09)">
     <defs>
      <path id="DejaVuSerif-Italic-72" d="M 3375 3328 
L 3213 2497 
L 2881 2497 
Q 2891 2559 2891 2613 
Q 2891 2775 2816 2866 
Q 2719 2988 2484 2988 
Q 2059 2988 1775 2694 
Q 1491 2400 1384 1850 
L 1025 0 
L 450 0 
L 1031 2994 
L 481 2994 
L 544 3322 
L 1669 3322 
L 1556 2731 
Q 1791 3078 2089 3245 
Q 2388 3413 2769 3413 
Q 2909 3413 3059 3391 
Q 3209 3369 3375 3328 
z
" transform="scale(0.015625)"/>
      <path id="DejaVuSerif-Italic-67" d="M 3822 3322 
L 3188 72 
Q 3044 -672 2581 -1031 
Q 2078 -1422 1381 -1422 
Q 1053 -1422 765 -1362 
Q 478 -1303 225 -1184 
L 363 -488 
L 663 -488 
Q 653 -813 834 -963 
Q 1016 -1113 1406 -1113 
Q 1913 -1113 2203 -825 
Q 2494 -544 2613 72 
L 2700 519 
Q 2472 206 2181 57 
Q 1891 -91 1525 -91 
Q 975 -91 697 281 
Q 522 516 503 841 
Q 491 1031 534 1256 
Q 750 2359 1516 2928 
Q 2169 3409 2931 3413 
Q 3631 3416 3822 3322 
z
M 3184 2988 
Q 3181 3094 2844 3094 
Q 2234 3094 1775 2625 
Q 1316 2153 1147 1297 
Q 1100 1044 1113 853 
Q 1125 659 1203 528 
Q 1356 269 1756 269 
Q 2194 269 2484 583 
Q 2775 897 2891 1497 
L 2953 1825 
L 3184 2988 
z
" transform="scale(0.015625)"/>
      <path id="DejaVuSerif-Italic-3f" d="M 797 29 
Q 700 150 734 325 
Q 769 500 912 622 
Q 1056 744 1234 744 
Q 1406 744 1504 622 
Q 1603 500 1569 325 
Q 1538 153 1391 31 
Q 1244 -91 1072 -91 
Q 894 -91 797 29 
z
M 847 4459 
Q 1209 4606 1521 4678 
Q 1834 4750 2097 4750 
Q 2791 4750 3127 4415 
Q 3463 4081 3353 3513 
Q 3238 2931 2822 2562 
Q 2406 2194 1678 2034 
L 1522 1241 
L 1138 1241 
L 1338 2266 
Q 1916 2400 2258 2715 
Q 2600 3031 2694 3519 
Q 2778 3947 2597 4194 
Q 2416 4441 2022 4441 
Q 1666 4441 1400 4236 
Q 1134 4031 994 3647 
L 691 3647 
L 847 4459 
z
" transform="scale(0.015625)"/>
     </defs>
     <use xlink:href="#DejaVuSerif-Italic-61"/>
     <use xlink:href="#DejaVuSerif-Italic-6e" transform="translate(59.619141 0)"/>
     <use xlink:href="#DejaVuSerif-Italic-64" transform="translate(124.023438 0)"/>
     <use xlink:href="#DejaVuSerif-Italic-20" transform="translate(188.037109 0)"/>
     <use xlink:href="#DejaVuSerif-Italic-72" transform="translate(219.824219 0)"/>
     <use xlink:href="#DejaVuSerif-Italic-61" transform="translate(267.626953 0)"/>
     <use xlink:href="#DejaVuSerif-Italic-6e" transform="translate(327.246094 0)"/>
     <use xlink:href="#DejaVuSerif-Italic-67" transform="translate(391.650391 0)"/>
     <use xlink:href="#DejaVuSerif-Italic-65" transform="translate(455.664062 0)"/>
     <use xlink:href="#DejaVuSerif-Italic-3f" transform="translate(514.84375 0)"/>
    </g>
   </g>
   <g id="PathCollection_1">
    <defs>
     <path id="m6c313fc767" d="M 0 5 
C 1.326016 5 2.597899 4.473168 3.535534 3.535534 
C 4.473168 2.597899 5 1.326016 5 0 
C 5 -1.326016 4.473168 -2.597899 3.535534 -3.535534 
C 2.597899 -4.473168 1.326016 -5 0 -5 
C -1.326016 -5 -2.597899 -4.473168 -3.535534 -3.535534 
C -4.473168 -2.597899 -5 -1.326016 -5 0 
C -5 1.326016 -4.473168 2.597899 -3.535534 3.535534 
C -2.597899 4.473168 -1.326016 5 0 5 
z
" style="stroke: #ffffff; stroke-width: 1.5"/>
    </defs>
    <g clip-path="url(#pf8cbb6a086)">
     <use xlink:href="#m6c313fc767" x="53.161023" y="267.999467" style="fill: #2563eb; stroke: #ffffff; stroke-width: 1.5"/>
     <use xlink:href="#m6c313fc767" x="196.221163" y="248.168667" style="fill: #2563eb; stroke: #ffffff; stroke-width: 1.5"/>
     <use xlink:href="#m6c313fc767" x="339.281302" y="197.089333" style="fill: #2563eb; stroke: #ffffff; stroke-width: 1.5"/>
     <use xlink:href="#m6c313fc767" x="482.341442" y="106.949333" style="fill: #2563eb; stroke: #ffffff; stroke-width: 1.5"/>
     <use xlink:href="#m6c313fc767" x="518.106477" y="40.846667" style="fill: #2563eb; stroke: #ffffff; stroke-width: 1.5"/>
    </g>
   </g>
   <g id="legend_1">
    <g id="line2d_34">
     <path d="M 39.81375 25.208281 
L 50.81375 25.208281 
L 61.81375 25.208281 
" style="fill: none; stroke: #2563eb; stroke-opacity: 0.6; stroke-width: 2; stroke-linecap: round"/>
    </g>
    <g id="text_4">
     <!-- Trend -->
     <g style="fill: #262626" transform="translate(70.61375 29.058281) scale(0.11 -0.11)">
      <defs>
       <path id="DejaVuSerif-54" d="M 1222 0 
L 1222 331 
L 1819 331 
L 1819 4294 
L 447 4294 
L 447 3566 
L 63 3566 
L 63 4666 
L 4206 4666 
L 4206 3566 
L 3822 3566 
L 3822 4294 
L 2450 4294 
L 2450 331 
L 3047 331 
L 3047 0 
L 1222 0 
z
" transform="scale(0.015625)"/>
      </defs>
      <use xlink:href="#DejaVuSerif-54"/>
      <use xlink:href="#DejaVuSerif-72" transform="translate(66.699219 0)"/>
      <use xlink:href="#DejaVuSerif-65" transform="translate(114.501953 0)"/>
      <use xlink:href="#DejaVuSerif-6e" transform="translate(173.681641 0)"/>
      <use xlink:href="#DejaVuSerif-64" transform="translate(238.085938 0)"/>
     </g>
    </g>
   </g>
  </g>
 </g>
 <defs>
  <clipPath id="pf8cbb6a086">
   <rect x="29.91375" y="10.8" width="511.44" height="270.42"/>
  </clipPath>
 </defs>
</svg>
