<?xml version="1.0" encoding="utf-8" standalone="no"?>
<!DOCTYPE svg PUBLIC "-//W3C//DTD SVG 1.1//EN"
  "http://www.w3.org/Graphics/SVG/1.1/DTD/svg11.dtd">
<svg xmlns:xlink="http://www.w3.org/1999/xlink" width="480.15375pt" height="311.13375pt" viewBox="0 0 480.15375 311.13375" xmlns="http://www.w3.org/2000/svg" version="1.1">
 <metadata>
  <rdf:RDF xmlns:dc="http://purl.org/dc/elements/1.1/" xmlns:cc="http://creativecommons.org/ns#" xmlns:rdf="http://www.w3.org/1999/02/22-rdf-syntax-ns#">
   <cc:Work>
    <dc:type rdf:resource="http://purl.org/dc/dcmitype/StillImage"/>
    <dc:date>2026-02-19T08:27:09.585807</dc:date>
    <dc:format>image/svg+xml</dc:format>
    <dc:creator>
     <cc:Agent>
      <dc:title>Matplotlib v3.10.1, https://matplotlib.org/</dc:title>
     </cc:Agent>
    </dc:creator>
   </cc:Work>
  </rdf:RDF>
 </metadata>
 <defs>
  <style type="text/css">*{stroke-linejoin: round; stroke-linecap: butt}</style>
 </defs>
 <g id="figure_1">
  <g id="patch_1">
   <path d="M 0 311.13375 
L 480.15375 311.13375 
L 480.15375 0 
L 0 0 
z
" style="fill: #ffffff"/>
  </g>
  <g id="axes_1">
   <g id="patch_2">
    <path d="M 29.91375 281.22 
L 469.35375 281.22 
L 469.35375 10.8 
L 29.91375 10.8 
z
" style="fill: #ffffff"/>
   </g>
   <g id="matplotlib.axis_1">
    <g id="xtick_1">
     <g id="line2d_1">
      <path d="M 49.888295 281.22 
L 49.888295 10.8 
" clip-path="url(#p6e3bc25fed)" style="fill: none; stroke: #cccccc; stroke-width: 0.8; stroke-linecap: round"/>
     </g>
     <g id="line2d_2"/>
    </g>
    <g id="xtick_2">
     <g id="line2d_3">
      <path d="M 103.15375 281.22 
L 103.15375 10.8 
" clip-path="url(#p6e3bc25fed)" style="fill: none; stroke: #cccccc; stroke-width: 0.8; stroke-linecap: round"/>
     </g>
     <g id="line2d_4"/>
    </g>
    <g id="xtick_3">
     <g id="line2d_5">
      <path d="M 156.419205 281.22 
L 156.419205 10.8 
" clip-path="url(#p6e3bc25fed)" style="fill: none; stroke: #cccccc; stroke-width: 0.8; stroke-linecap: round"/>
     </g>
     <g id="line2d_6"/>
    </g>
    <g id="xtick_4">
     <g id="line2d_7">
      <path d="M 209.684659 281.22 
L 209.684659 10.8 
" clip-path="url(#p6e3bc25fed)" style="fill: none; stroke: #cccccc; stroke-width: 0.8; stroke-linecap: round"/>
     </g>
     <g id="line2d_8"/>
    </g>
    <g id="xtick_5">
     <g id="line2d_9">
      <path d="M 262.950114 281.22 
L 262.950114 10.8 
" clip-path="url(#p6e3bc25fed)" style="fill: none; stroke: #cccccc; stroke-width: 0.8; stroke-linecap: round"/>
     </g>
     <g id="line2d_10"/>
    </g>
    <g id="xtick_6">
     <g id="line2d_11">
      <path d="M 316.215568 281.22 
L 316.215568 10.8 
" clip-path="url(#p6e3bc25fed)" style="fill: none; stroke: #cccccc; stroke-width: 0.8; stroke-linecap: round"/>
     </g>
     <g id="line2d_12"/>
    </g>
    <g id="xtick_7">
     <g id="line2d_13">
      <path d="M 369.481023 281.22 
L 369.481023 10.8 
" clip-path="url(#p6e3bc25fed)" style="fill: none; stroke: #cccccc; stroke-width: 0.8; stroke-linecap: round"/>
     </g>
     <g id="line2d_14"/>
    </g>
    <g id="xtick_8">
     <g id="line2d_15">
      <path d="M 422.746477 281.22 
L 422.746477 10.8 
" clip-path="url(#p6e3bc25fed)" style="fill: none; stroke: #cccccc; stroke-width: 0.8; stroke-linecap: round"/>
     </g>
     <g id="line2d_16"/>
    </g>
    <g id="text_1">
     <!-- Stock S -->
     <g style="fill: #262626" transform="translate(226.487813 297.838125) scale(0.12 -0.12)">
      <defs>
       <path id="DejaVuSerif-53" d="M 594 225 
L 594 1288 
L 953 1284 
Q 969 753 1261 498 
Q 1553 244 2150 244 
Q 2706 244 2998 464 
Q 3291 684 3291 1106 
Q 3291 1444 3114 1625 
Q 2938 1806 2369 1978 
L 1753 2163 
Q 1084 2366 811 2669 
Q 538 2972 538 3500 
Q 538 4094 959 4422 
Q 1381 4750 2144 4750 
Q 2469 4750 2856 4679 
Q 3244 4609 3681 4475 
L 3681 3481 
L 3328 3481 
Q 3275 3975 2998 4195 
Q 2722 4416 2156 4416 
Q 1663 4416 1405 4214 
Q 1147 4013 1147 3628 
Q 1147 3294 1340 3103 
Q 1534 2913 2163 2725 
L 2741 2553 
Q 3375 2363 3645 2067 
Q 3916 1772 3916 1275 
Q 3916 597 3481 253 
Q 3047 -91 2188 -91 
Q 1803 -91 1404 -12 
Q 1006 66 594 225 
z
" transform="scale(0.015625)"/>
       <path id="DejaVuSerif-74" d="M 691 2988 
L 184 2988 
L 184 3322 
L 691 3322 
L 691 4353 
L 1269 4353 
L 1269 3322 
L 2350 3322 
L 2350 2988 
L 1269 2988 
L 1269 878 
Q 1269 456 1350 337 
Q 1431 219 1650 219 
Q 1875 219 1978 351 
Q 2081 484 2088 781 
L 2522 781 
Q 2497 328 2275 118 
Q 2053 -91 1600 -91 
Q 1103 -91 897 129 
Q 691 350 691 878 
L 691 2988 
z
" transform="scale(0.015625)"/>
       <path id="DejaVuSerif-6f" d="M 1925 219 
Q 2388 219 2623 584 
Q 2859 950 2859 1663 
Q 2859 2375 2623 2739 
Q 2388 3103 1925 3103 
Q 1463 3103 1227 2739 
Q 991 2375 991 1663 
Q 991 950 1228 584 
Q 1466 219 1925 219 
z
M 1925 -91 
Q 1200 -91 759 389 
Q 319 869 319 1663 
Q 319 2456 758 2934 
Q 1197 3413 1925 3413 
Q 2653 3413 3092 2934 
Q 3531 2456 3531 1663 
Q 3531 869 3092 389 
Q 2653 -91 1925 -91 
z
" transform="scale(0.015625)"/>
       <path id="DejaVuSerif-63" d="M 3291 997 
Q 3169 466 2822 187 
Q 2475 -91 1925 -91 
Q 1200 -91 759 389 
Q 319 869 319 1663 
Q 319 2459 759 2936 
Q 1200 3413 1925 3413 
Q 2241 3413 2553 3339 
Q 2866 3266 3181 3116 
L 3181 2266 
L 2847 2266 
Q 2781 2703 2561 2903 
Q 2341 3103 1931 3103 
Q 1466 3103 1228 2742 
Q 991 2381 991 1663 
Q 991 944 1227 581 
Q 1463 219 1931 219 
Q 2303 219 2525 412 
Q 2747 606 2828 997 
L 3291 997 
z
" transform="scale(0.015625)"/>
       <path id="DejaVuSerif-6b" d="M 1831 0 
L 219 0 
L 219 331 
L 738 331 
L 738 4531 
L 184 4531 
L 184 4863 
L 1313 4863 
L 1313 1697 
L 2713 2988 
L 2234 2988 
L 2234 3322 
L 3738 3322 
L 3738 2988 
L 3169 2988 
L 2181 2075 
L 3444 331 
L 3922 331 
L 3922 0 
L 2284 0 
L 2284 331 
L 2759 331 
L 1766 1697 
L 1313 1275 
L 1313 331 
L 1831 331 
L 1831 0 
z
" transform="scale(0.015625)"/>
       <path id="DejaVuSerif-20" transform="scale(0.015625)"/>
      </defs>
      <use xlink:href="#DejaVuSerif-53"/>
      <use xlink:href="#DejaVuSerif-74" transform="translate(68.505859 0)"/>
      <use xlink:href="#DejaVuSerif-6f" transform="translate(108.691406 0)"/>
      <use xlink:href="#DejaVuSerif-63" transform="translate(168.896484 0)"/>
      <use xlink:href="#DejaVuSerif-6b" transform="translate(224.902344 0)"/>
      <use xlink:href="#DejaVuSerif-20" transform="translate(285.498047 0)"/>
      <use xlink:href="#DejaVuSerif-53" transform="translate(317.285156 0)"/>
     </g>
    </g>
   </g>
   <g id="matplotlib.axis_2">
    <g id="ytick_1">
     <g id="line2d_17">
      <path d="M 29.91375 266.196667 
L 469.35375 266.196667 
" clip-path="url(#p6e3bc25fed)" style="fill: none; stroke: #cccccc; stroke-width: 0.8; stroke-linecap: round"/>
     </g>
     <g id="line2d_18"/>
    </g>
    <g id="ytick_2">
     <g id="line2d_19">
      <path d="M 29.91375 236.15 
L 469.35375 236.15 
" clip-path="url(#p6e3bc25fed)" style="fill: none; stroke: #cccccc; stroke-width: 0.8; stroke-linecap: round"/>
     </g>
     <g id="line2d_20"/>
    </g>
    <g id="ytick_3">
     <g id="line2d_21">
      <path d="M 29.91375 206.103333 
L 469.35375 206.103333 
" clip-path="url(#p6e3bc25fed)" style="fill: none; stroke: #cccccc; stroke-width: 0.8; stroke-linecap: round"/>
     </g>
     <g id="line2d_22"/>
    </g>
    <g id="ytick_4">
     <g id="line2d_23">
      <path d="M 29.91375 176.056667 
L 469.35375 176.056667 
" clip-path="url(#p6e3bc25fed)" style="fill: none; stroke: #cccccc; stroke-width: 0.8; stroke-linecap: round"/>
     </g>
     <g id="line2d_24"/>
    </g>
    <g id="ytick_5">
     <g id="line2d_25">
      <path d="M 29.91375 146.01 
L 469.35375 146.01 
" clip-path="url(#p6e3bc25fed)" style="fill: none; stroke: #cccccc; stroke-width: 0.8; stroke-linecap: round"/>
     </g>
     <g id="line2d_26"/>
    </g>
    <g id="ytick_6">
     <g id="line2d_27">
      <path d="M 29.91375 115.963333 
L 469.35375 115.963333 
" clip-path="url(#p6e3bc25fed)" style="fill: none; stroke: #cccccc; stroke-width: 0.8; stroke-linecap: round"/>
     </g>
     <g id="line2d_28"/>
    </g>
    <g id="ytick_7">
     <g id="line2d_29">
      <path d="M 29.91375 85.916667 
L 469.35375 85.916667 
" clip-path="url(#p6e3bc25fed)" style="fill: none; stroke: #cccccc; stroke-width: 0.8; stroke-linecap: round"/>
     </g>
     <g id="line2d_30"/>
    </g>
    <g id="ytick_8">
     <g id="line2d_31">
      <path d="M 29.91375 55.87 
L 469.35375 55.87 
" clip-path="url(#p6e3bc25fed)" style="fill: none; stroke: #cccccc; stroke-width: 0.8; stroke-linecap: round"/>
     </g>
     <g id="line2d_32"/>
    </g>
    <g id="ytick_9">
     <g id="line2d_33">
      <path d="M 29.91375 25.823333 
L 469.35375 25.823333 
" clip-path="url(#p6e3bc25fed)" style="fill: none; stroke: #cccccc; stroke-width: 0.8; stroke-linecap: round"/>
     </g>
     <g id="line2d_34"/>
    </g>
    <g id="text_2">
     <!-- Growth G(S) -->
     <g style="fill: #262626" transform="translate(19.918125 184.186875) rotate(-90) scale(0.12 -0.12)">
      <defs>
       <path id="DejaVuSerif-47" d="M 4097 3272 
Q 3988 3856 3641 4136 
Q 3294 4416 2675 4416 
Q 1869 4416 1472 3897 
Q 1075 3378 1075 2328 
Q 1075 1300 1484 772 
Q 1894 244 2688 244 
Q 3041 244 3362 331 
Q 3684 419 3975 594 
L 3975 1797 
L 3097 1797 
L 3097 2131 
L 4609 2131 
L 4609 391 
Q 4194 150 3714 29 
Q 3234 -91 2688 -91 
Q 1631 -91 995 570 
Q 359 1231 359 2328 
Q 359 3434 996 4092 
Q 1634 4750 2713 4750 
Q 3113 4750 3539 4658 
Q 3966 4566 4447 4378 
L 4447 3272 
L 4097 3272 
z
" transform="scale(0.015625)"/>
       <path id="DejaVuSerif-72" d="M 3059 3328 
L 3059 2497 
L 2728 2497 
Q 2713 2744 2591 2866 
Q 2469 2988 2234 2988 
Q 1809 2988 1582 2694 
Q 1356 2400 1356 1850 
L 1356 331 
L 2022 331 
L 2022 0 
L 263 0 
L 263 331 
L 781 331 
L 781 2994 
L 231 2994 
L 231 3322 
L 1356 3322 
L 1356 2731 
Q 1525 3078 1790 3245 
Q 2056 3413 2438 3413 
Q 2578 3413 2733 3391 
Q 2888 3369 3059 3328 
z
" transform="scale(0.015625)"/>
       <path id="DejaVuSerif-77" d="M 3072 3322 
L 3922 728 
L 4672 2988 
L 4191 2988 
L 4191 3322 
L 5394 3322 
L 5394 2988 
L 5025 2988 
L 4038 0 
L 3559 0 
L 2741 2484 
L 1919 0 
L 1459 0 
L 475 2988 
L 103 2988 
L 103 3322 
L 1606 3322 
L 1606 2988 
L 1069 2988 
L 1813 728 
L 2669 3322 
L 3072 3322 
z
" transform="scale(0.015625)"/>
       <path id="DejaVuSerif-68" d="M 263 0 
L 263 331 
L 781 331 
L 781 4531 
L 231 4531 
L 231 4863 
L 1356 4863 
L 1356 2731 
Q 1516 3069 1770 3241 
Q 2025 3413 2363 3413 
Q 2913 3413 3172 3097 
Q 3431 2781 3431 2113 
L 3431 331 
L 3944 331 
L 3944 0 
L 2356 0 
L 2356 331 
L 2853 331 
L 2853 1931 
Q 2853 2541 2704 2764 
Q 2556 2988 2175 2988 
Q 1775 2988 1565 2697 
Q 1356 2406 1356 1850 
L 1356 331 
L 1856 331 
L 1856 0 
L 263 0 
z
" transform="scale(0.015625)"/>
       <path id="DejaVuSerif-28" d="M 2041 -997 
Q 1281 -656 893 83 
Q 506 822 506 1931 
Q 506 3044 893 3783 
Q 1281 4522 2041 4863 
L 2041 4556 
Q 1559 4225 1350 3623 
Q 1141 3022 1141 1931 
Q 1141 844 1350 242 
Q 1559 -359 2041 -691 
L 2041 -997 
z
" transform="scale(0.015625)"/>
       <path id="DejaVuSerif-29" d="M 453 -997 
L 453 -691 
Q 934 -359 1145 242 
Q 1356 844 1356 1931 
Q 1356 3022 1145 3623 
Q 934 4225 453 4556 
L 453 4863 
Q 1216 4522 1603 3783 
Q 1991 3044 1991 1931 
Q 1991 822 1603 83 
Q 1216 -656 453 -997 
z
" transform="scale(0.015625)"/>
      </defs>
      <use xlink:href="#DejaVuSerif-47"/>
      <use xlink:href="#DejaVuSerif-72" transform="translate(79.882812 0)"/>
      <use xlink:href="#DejaVuSerif-6f" transform="translate(127.685547 0)"/>
      <use xlink:href="#DejaVuSerif-77" transform="translate(187.890625 0)"/>
      <use xlink:href="#DejaVuSerif-74" transform="translate(273.486328 0)"/>
      <use xlink:href="#DejaVuSerif-68" transform="translate(313.671875 0)"/>
      <use xlink:href="#DejaVuSerif-20" transform="translate(378.076172 0)"/>
      <use xlink:href="#DejaVuSerif-47" transform="translate(409.863281 0)"/>
      <use xlink:href="#DejaVuSerif-28" transform="translate(489.746094 0)"/>
      <use xlink:href="#DejaVuSerif-53" transform="translate(528.759766 0)"/>
      <use xlink:href="#DejaVuSerif-29" transform="translate(597.265625 0)"/>
     </g>
    </g>
   </g>
   <g id="line2d_35">
    <path d="M 49.888295 266.196667 
L 57.093542 250.232177 
L 64.298789 234.854137 
L 70.703453 221.677098 
L 77.108117 208.963427 
L 83.512781 196.713124 
L 89.917445 184.92619 
L 96.322109 173.602624 
L 102.726772 162.742427 
L 109.131436 152.345598 
L 115.5361 142.412137 
L 121.140181 134.100466 
L 126.744262 126.143562 
L 132.348343 118.541424 
L 137.952424 111.294052 
L 143.556505 104.401447 
L 149.160585 97.863608 
L 154.764666 91.680535 
L 160.368747 85.852229 
L 165.972828 80.37869 
L 171.576909 75.259917 
L 176.380407 71.154762 
L 181.183905 67.310253 
L 185.987403 63.726387 
L 190.790901 60.403167 
L 195.594399 57.340591 
L 200.397896 54.53866 
L 205.201394 51.997374 
L 210.004892 49.716733 
L 214.80839 47.696736 
L 219.611888 45.937384 
L 224.415386 44.438677 
L 229.218884 43.200614 
L 234.022382 42.223197 
L 238.82588 41.506424 
L 243.629378 41.050295 
L 248.432876 40.854812 
L 253.236373 40.919973 
L 258.039871 41.245779 
L 262.843369 41.83223 
L 267.646867 42.679325 
L 272.450365 43.787065 
L 277.253863 45.15545 
L 282.057361 46.78448 
L 286.860859 48.674154 
L 291.664357 50.824473 
L 296.467855 53.235437 
L 301.271352 55.907045 
L 306.07485 58.839299 
L 310.878348 62.032197 
L 315.681846 65.485739 
L 320.485344 69.199927 
L 325.288842 73.174759 
L 330.09234 77.410236 
L 334.895838 81.906358 
L 340.499919 87.481259 
L 346.104 93.410927 
L 351.70808 99.695361 
L 357.312161 106.334562 
L 362.916242 113.328529 
L 368.520323 120.677262 
L 374.124404 128.380762 
L 379.728485 136.439029 
L 385.332566 144.852062 
L 391.73723 154.901364 
L 398.141894 165.414035 
L 404.546557 176.390075 
L 410.951221 187.829483 
L 417.355885 199.732259 
L 423.760549 212.098404 
L 430.165213 224.927917 
L 436.569877 238.220798 
L 442.974541 251.977048 
L 449.379205 266.196667 
L 449.379205 266.196667 
" clip-path="url(#p6e3bc25fed)" style="fill: none; stroke: #2563eb; stroke-width: 2.5; stroke-linecap: round"/>
   </g>
   <g id="line2d_36">
    <path d="M 29.91375 85.916667 
L 469.35375 85.916667 
" clip-path="url(#p6e3bc25fed)" style="fill: none; stroke-dasharray: 5.55,2.4; stroke-dashoffset: 0; stroke: #059669; stroke-width: 1.5"/>
   </g>
   <g id="line2d_37">
    <path d="M 29.91375 55.87 
L 469.35375 55.87 
" clip-path="url(#p6e3bc25fed)" style="fill: none; stroke-dasharray: 5.55,2.4; stroke-dashoffset: 0; stroke: #dc2626; stroke-width: 1.5"/>
   </g>
   <g id="line2d_38">
    <path d="M 369.481023 281.22 
L 369.481023 10.8 
" clip-path="url(#p6e3bc25fed)" style="fill: none; stroke-dasharray: 1.5,2.475; stroke-dashoffset: 0; stroke: #475569; stroke-opacity: 0.5; stroke-width: 1.5"/>
   </g>
   <g id="patch_3">
    <path d="M 29.91375 281.22 
L 29.91375 10.8 
" style="fill: none; stroke: #cccccc; stroke-linejoin: miter; stroke-linecap: square"/>
   </g>
   <g id="patch_4">
    <path d="M 469.35375 281.22 
L 469.35375 10.8 
" style="fill: none; stroke: #cccccc; stroke-linejoin: miter; stroke-linecap: square"/>
   </g>
   <g id="patch_5">
    <path d="M 29.91375 281.22 
L 469.35375 281.22 
" style="fill: none; stroke: #cccccc; stroke-linejoin: miter; stroke-linecap: square"/>
   </g>
   <g id="patch_6">
    <path d="M 29.91375 10.8 
L 469.35375 10.8 
" style="fill: none; stroke: #cccccc; stroke-linejoin: miter; stroke-linecap: square"/>
   </g>
   <g id="text_3">
    <g id="patch_7">
     <path d="M 337.964148 263.256719 
L 400.997898 263.256719 
Q 403.697898 263.256719 403.697898 260.556719 
L 403.697898 251.846406 
Q 403.697898 249.146406 400.997898 249.146406 
L 337.964148 249.146406 
Q 335.264148 249.146406 335.264148 251.846406 
L 335.264148 260.556719 
Q 335.264148 263.256719 337.964148 263.256719 
z
" style="fill: #f8fafc; stroke: #475569; stroke-linejoin: miter"/>
    </g>
    <!-- Current stock -->
    <g style="fill: #262626" transform="translate(337.964148 258.685) scale(0.09 -0.09)">
     <defs>
      <path id="DejaVuSerif-43" d="M 4513 1234 
Q 4306 581 3820 245 
Q 3334 -91 2591 -91 
Q 2134 -91 1743 65 
Q 1353 222 1050 525 
Q 700 875 529 1320 
Q 359 1766 359 2328 
Q 359 3416 987 4083 
Q 1616 4750 2644 4750 
Q 3025 4750 3456 4650 
Q 3888 4550 4384 4347 
L 4384 3272 
L 4031 3272 
Q 3916 3859 3567 4137 
Q 3219 4416 2591 4416 
Q 1844 4416 1459 3886 
Q 1075 3356 1075 2328 
Q 1075 1303 1459 773 
Q 1844 244 2591 244 
Q 3113 244 3450 492 
Q 3788 741 3938 1234 
L 4513 1234 
z
" transform="scale(0.015625)"/>
      <path id="DejaVuSerif-75" d="M 2266 3322 
L 3341 3322 
L 3341 331 
L 3884 331 
L 3884 0 
L 2766 0 
L 2766 588 
Q 2606 256 2353 82 
Q 2100 -91 1766 -91 
Q 1213 -91 952 223 
Q 691 538 691 1209 
L 691 2988 
L 172 2988 
L 172 3322 
L 1269 3322 
L 1269 1388 
Q 1269 781 1417 556 
Q 1566 331 1947 331 
Q 2347 331 2556 625 
Q 2766 919 2766 1478 
L 2766 2988 
L 2266 2988 
L 2266 3322 
z
" transform="scale(0.015625)"/>
      <path id="DejaVuSerif-65" d="M 3469 1600 
L 991 1600 
L 991 1575 
Q 991 903 1244 561 
Q 1497 219 1991 219 
Q 2369 219 2611 417 
Q 2853 616 2950 1006 
L 3413 1006 
Q 3275 459 2904 184 
Q 2534 -91 1931 -91 
Q 1203 -91 761 389 
Q 319 869 319 1663 
Q 319 2450 753 2931 
Q 1188 3413 1894 3413 
Q 2647 3413 3050 2948 
Q 3453 2484 3469 1600 
z
M 2791 1931 
Q 2772 2513 2545 2808 
Q 2319 3103 1894 3103 
Q 1497 3103 1269 2806 
Q 1041 2509 991 1931 
L 2791 1931 
z
" transform="scale(0.015625)"/>
      <path id="DejaVuSerif-6e" d="M 263 0 
L 263 331 
L 781 331 
L 781 2988 
L 231 2988 
L 231 3322 
L 1356 3322 
L 1356 2731 
Q 1516 3069 1770 3241 
Q 2025 3413 2363 3413 
Q 2913 3413 3172 3097 
Q 3431 2781 3431 2113 
L 3431 331 
L 3944 331 
L 3944 0 
L 2356 0 
L 2356 331 
L 2853 331 
L 2853 1931 
Q 2853 2541 2703 2767 
Q 2553 2994 2175 2994 
Q 1775 2994 1565 2701 
Q 1356 2409 1356 1850 
L 1356 331 
L 1856 331 
L 1856 0 
L 263 0 
z
" transform="scale(0.015625)"/>
      <path id="DejaVuSerif-73" d="M 359 184 
L 359 959 
L 691 959 
Q 703 588 923 403 
Q 1144 219 1575 219 
Q 1963 219 2166 364 
Q 2369 509 2369 788 
Q 2369 1006 2220 1140 
Q 2072 1275 1594 1428 
L 1178 1569 
Q 750 1706 558 1912 
Q 366 2119 366 2438 
Q 366 2894 700 3153 
Q 1034 3413 1625 3413 
Q 1888 3413 2178 3344 
Q 2469 3275 2778 3144 
L 2778 2419 
L 2447 2419 
Q 2434 2741 2221 2922 
Q 2009 3103 1644 3103 
Q 1281 3103 1095 2975 
Q 909 2847 909 2591 
Q 909 2381 1050 2254 
Q 1191 2128 1613 1997 
L 2069 1856 
Q 2541 1709 2748 1489 
Q 2956 1269 2956 922 
Q 2956 450 2595 179 
Q 2234 -91 1600 -91 
Q 1278 -91 972 -22 
Q 666 47 359 184 
z
" transform="scale(0.015625)"/>
     </defs>
     <use xlink:href="#DejaVuSerif-43"/>
     <use xlink:href="#DejaVuSerif-75" transform="translate(76.513672 0)"/>
     <use xlink:href="#DejaVuSerif-72" transform="translate(140.917969 0)"/>
     <use xlink:href="#DejaVuSerif-72" transform="translate(188.720703 0)"/>
     <use xlink:href="#DejaVuSerif-65" transform="translate(236.523438 0)"/>
     <use xlink:href="#DejaVuSerif-6e" transform="translate(295.703125 0)"/>
     <use xlink:href="#DejaVuSerif-74" transform="translate(360.107422 0)"/>
     <use xlink:href="#DejaVuSerif-20" transform="translate(400.292969 0)"/>
     <use xlink:href="#DejaVuSerif-73" transform="translate(432.080078 0)"/>
     <use xlink:href="#DejaVuSerif-74" transform="translate(483.398438 0)"/>
     <use xlink:href="#DejaVuSerif-6f" transform="translate(523.583984 0)"/>
     <use xlink:href="#DejaVuSerif-63" transform="translate(583.789062 0)"/>
     <use xlink:href="#DejaVuSerif-6b" transform="translate(639.794922 0)"/>
    </g>
   </g>
   <g id="line2d_39">
    <defs>
     <path id="m9b3c063c49" d="M 0 -7.5 
L -1.683855 -2.317627 
L -7.132924 -2.317627 
L -2.724534 0.885255 
L -4.408389 6.067627 
L -0 2.864745 
L 4.408389 6.067627 
L 2.724534 0.885255 
L 7.132924 -2.317627 
L 1.683855 -2.317627 
z
" style="stroke: #f59e0b; stroke-linejoin: bevel"/>
    </defs>
    <g clip-path="url(#p6e3bc25fed)">
     <use xlink:href="#m9b3c063c49" x="249.63375" y="40.846667" style="fill: #f59e0b; stroke: #f59e0b; stroke-linejoin: bevel"/>
    </g>
   </g>
   <g id="legend_1">
    <g id="line2d_40">
     <path d="M 368.96875 21.27875 
L 376.96875 21.27875 
L 384.96875 21.27875 
" style="fill: none; stroke: #2563eb; stroke-width: 2.5; stroke-linecap: round"/>
    </g>
    <g id="text_4">
     <!-- Growth G(S) -->
     <g style="fill: #262626" transform="translate(391.36875 24.07875) scale(0.08 -0.08)">
      <use xlink:href="#DejaVuSerif-47"/>
      <use xlink:href="#DejaVuSerif-72" transform="translate(79.882812 0)"/>
      <use xlink:href="#DejaVuSerif-6f" transform="translate(127.685547 0)"/>
      <use xlink:href="#DejaVuSerif-77" transform="translate(187.890625 0)"/>
      <use xlink:href="#DejaVuSerif-74" transform="translate(273.486328 0)"/>
      <use xlink:href="#DejaVuSerif-68" transform="translate(313.671875 0)"/>
      <use xlink:href="#DejaVuSerif-20" transform="translate(378.076172 0)"/>
      <use xlink:href="#DejaVuSerif-47" transform="translate(409.863281 0)"/>
      <use xlink:href="#DejaVuSerif-28" transform="translate(489.746094 0)"/>
      <use xlink:href="#DejaVuSerif-53" transform="translate(528.759766 0)"/>
      <use xlink:href="#DejaVuSerif-29" transform="translate(597.265625 0)"/>
     </g>
    </g>
    <g id="line2d_41">
     <g>
      <use xlink:href="#m9b3c063c49" x="376.96875" y="33.02125" style="fill: #f59e0b; stroke: #f59e0b; stroke-linejoin: bevel"/>
     </g>
    </g>
    <g id="text_5">
     <!-- MSY -->
     <g style="fill: #262626" transform="translate(391.36875 35.82125) scale(0.08 -0.08)">
      <defs>
       <path id="DejaVuSerif-4d" d="M 353 0 
L 353 331 
L 947 331 
L 947 4331 
L 319 4331 
L 319 4666 
L 1678 4666 
L 3316 1344 
L 4953 4666 
L 6228 4666 
L 6228 4331 
L 5606 4331 
L 5606 331 
L 6203 331 
L 6203 0 
L 4378 0 
L 4378 331 
L 4972 331 
L 4972 3938 
L 3372 684 
L 2931 684 
L 1331 3938 
L 1331 331 
L 1925 331 
L 1925 0 
L 353 0 
z
" transform="scale(0.015625)"/>
       <path id="DejaVuSerif-59" d="M 1209 0 
L 1209 331 
L 1806 331 
L 1806 2009 
L 366 4331 
L -72 4331 
L -72 4666 
L 1663 4666 
L 1663 4331 
L 1119 4331 
L 2284 2444 
L 3450 4331 
L 2925 4331 
L 2925 4666 
L 4281 4666 
L 4281 4331 
L 3841 4331 
L 2438 2069 
L 2438 331 
L 3034 331 
L 3034 0 
L 1209 0 
z
" transform="scale(0.015625)"/>
      </defs>
      <use xlink:href="#DejaVuSerif-4d"/>
      <use xlink:href="#DejaVuSerif-53" transform="translate(102.392578 0)"/>
      <use xlink:href="#DejaVuSerif-59" transform="translate(170.898438 0)"/>
     </g>
    </g>
    <g id="line2d_42">
     <path d="M 368.96875 44.76375 
L 376.96875 44.76375 
L 384.96875 44.76375 
" style="fill: none; stroke-dasharray: 5.55,2.4; stroke-dashoffset: 0; stroke: #059669; stroke-width: 1.5"/>
    </g>
    <g id="text_6">
     <!-- Current harvest -->
     <g style="fill: #262626" transform="translate(391.36875 47.56375) scale(0.08 -0.08)">
      <defs>
       <path id="DejaVuSerif-61" d="M 2547 1044 
L 2547 1747 
L 1806 1747 
Q 1378 1747 1168 1562 
Q 959 1378 959 997 
Q 959 650 1171 447 
Q 1384 244 1747 244 
Q 2106 244 2326 466 
Q 2547 688 2547 1044 
z
M 3122 2075 
L 3122 331 
L 3634 331 
L 3634 0 
L 2547 0 
L 2547 359 
Q 2356 128 2106 18 
Q 1856 -91 1522 -91 
Q 969 -91 644 203 
Q 319 497 319 997 
Q 319 1513 691 1797 
Q 1063 2081 1741 2081 
L 2547 2081 
L 2547 2309 
Q 2547 2688 2317 2895 
Q 2088 3103 1672 3103 
Q 1328 3103 1125 2947 
Q 922 2791 872 2484 
L 575 2484 
L 575 3156 
Q 875 3284 1158 3348 
Q 1441 3413 1709 3413 
Q 2400 3413 2761 3070 
Q 3122 2728 3122 2075 
z
" transform="scale(0.015625)"/>
       <path id="DejaVuSerif-76" d="M 1581 0 
L 359 2988 
L -19 2988 
L -19 3322 
L 1509 3322 
L 1509 2988 
L 978 2988 
L 1913 703 
L 2847 2988 
L 2350 2988 
L 2350 3322 
L 3597 3322 
L 3597 2988 
L 3225 2988 
L 2003 0 
L 1581 0 
z
" transform="scale(0.015625)"/>
      </defs>
      <use xlink:href="#DejaVuSerif-43"/>
      <use xlink:href="#DejaVuSerif-75" transform="translate(76.513672 0)"/>
      <use xlink:href="#DejaVuSerif-72" transform="translate(140.917969 0)"/>
      <use xlink:href="#DejaVuSerif-72" transform="translate(188.720703 0)"/>
      <use xlink:href="#DejaVuSerif-65" transform="translate(236.523438 0)"/>
      <use xlink:href="#DejaVuSerif-6e" transform="translate(295.703125 0)"/>
      <use xlink:href="#DejaVuSerif-74" transform="translate(360.107422 0)"/>
      <use xlink:href="#DejaVuSerif-20" transform="translate(400.292969 0)"/>
      <use xlink:href="#DejaVuSerif-68" transform="translate(432.080078 0)"/>
      <use xlink:href="#DejaVuSerif-61" transform="translate(496.484375 0)"/>
      <use xlink:href="#DejaVuSerif-72" transform="translate(556.103516 0)"/>
      <use xlink:href="#DejaVuSerif-76" transform="translate(603.90625 0)"/>
      <use xlink:href="#DejaVuSerif-65" transform="translate(660.400391 0)"/>
      <use xlink:href="#DejaVuSerif-73" transform="translate(719.580078 0)"/>
      <use xlink:href="#DejaVuSerif-74" transform="translate(770.898438 0)"/>
     </g>
    </g>
    <g id="line2d_43">
     <path d="M 368.96875 56.50625 
L 376.96875 56.50625 
L 384.96875 56.50625 
" style="fill: none; stroke-dasharray: 5.55,2.4; stroke-dashoffset: 0; stroke: #dc2626; stroke-width: 1.5"/>
    </g>
    <g id="text_7">
     <!-- Proposed harvest -->
     <g style="fill: #262626" transform="translate(391.36875 59.30625) scale(0.08 -0.08)">
      <defs>
       <path id="DejaVuSerif-50" d="M 1581 2375 
L 2406 2375 
Q 2872 2375 3115 2626 
Q 3359 2878 3359 3353 
Q 3359 3831 3115 4081 
Q 2872 4331 2406 4331 
L 1581 4331 
L 1581 2375 
z
M 353 0 
L 353 331 
L 947 331 
L 947 4331 
L 353 4331 
L 353 4666 
L 2559 4666 
Q 3259 4666 3668 4311 
Q 4078 3956 4078 3353 
Q 4078 2753 3668 2397 
Q 3259 2041 2559 2041 
L 1581 2041 
L 1581 331 
L 2303 331 
L 2303 0 
L 353 0 
z
" transform="scale(0.015625)"/>
       <path id="DejaVuSerif-70" d="M 1313 1825 
L 1313 1497 
Q 1313 897 1542 583 
Q 1772 269 2209 269 
Q 2650 269 2876 622 
Q 3103 975 3103 1663 
Q 3103 2353 2876 2703 
Q 2650 3053 2209 3053 
Q 1772 3053 1542 2737 
Q 1313 2422 1313 1825 
z
M 738 2988 
L 184 2988 
L 184 3322 
L 1313 3322 
L 1313 2803 
Q 1481 3116 1742 3264 
Q 2003 3413 2388 3413 
Q 3000 3413 3387 2928 
Q 3775 2444 3775 1663 
Q 3775 881 3387 395 
Q 3000 -91 2388 -91 
Q 2003 -91 1742 57 
Q 1481 206 1313 519 
L 1313 -997 
L 1856 -997 
L 1856 -1331 
L 184 -1331 
L 184 -997 
L 738 -997 
L 738 2988 
z
" transform="scale(0.015625)"/>
       <path id="DejaVuSerif-64" d="M 3359 331 
L 3909 331 
L 3909 0 
L 2784 0 
L 2784 519 
Q 2616 206 2355 57 
Q 2094 -91 1709 -91 
Q 1097 -91 708 395 
Q 319 881 319 1663 
Q 319 2444 706 2928 
Q 1094 3413 1709 3413 
Q 2094 3413 2355 3264 
Q 2616 3116 2784 2803 
L 2784 4531 
L 2241 4531 
L 2241 4863 
L 3359 4863 
L 3359 331 
z
M 2784 1497 
L 2784 1825 
Q 2784 2422 2554 2737 
Q 2325 3053 1888 3053 
Q 1444 3053 1217 2703 
Q 991 2353 991 1663 
Q 991 975 1217 622 
Q 1444 269 1888 269 
Q 2325 269 2554 583 
Q 2784 897 2784 1497 
z
" transform="scale(0.015625)"/>
      </defs>
      <use xlink:href="#DejaVuSerif-50"/>
      <use xlink:href="#DejaVuSerif-72" transform="translate(67.285156 0)"/>
      <use xlink:href="#DejaVuSerif-6f" transform="translate(115.087891 0)"/>
      <use xlink:href="#DejaVuSerif-70" transform="translate(175.292969 0)"/>
      <use xlink:href="#DejaVuSerif-6f" transform="translate(239.306641 0)"/>
      <use xlink:href="#DejaVuSerif-73" transform="translate(299.511719 0)"/>
      <use xlink:href="#DejaVuSerif-65" transform="translate(350.830078 0)"/>
      <use xlink:href="#DejaVuSerif-64" transform="translate(410.009766 0)"/>
      <use xlink:href="#DejaVuSerif-20" transform="translate(474.023438 0)"/>
      <use xlink:href="#DejaVuSerif-68" transform="translate(505.810547 0)"/>
      <use xlink:href="#DejaVuSerif-61" transform="translate(570.214844 0)"/>
      <use xlink:href="#DejaVuSerif-72" transform="translate(629.833984 0)"/>
      <use xlink:href="#DejaVuSerif-76" transform="translate(677.636719 0)"/>
      <use xlink:href="#DejaVuSerif-65" transform="translate(734.130859 0)"/>
      <use xlink:href="#DejaVuSerif-73" transform="translate(793.310547 0)"/>
      <use xlink:href="#DejaVuSerif-74" transform="translate(844.628906 0)"/>
     </g>
    </g>
   </g>
  </g>
 </g>
 <defs>
  <clipPath id="p6e3bc25fed">
   <rect x="29.91375" y="10.8" width="439.44" height="270.42"/>
  </clipPath>
 </defs>
</svg>
