<?xml version="1.0" encoding="utf-8" standalone="no"?>
<!DOCTYPE svg PUBLIC "-//W3C//DTD SVG 1.1//EN"
  "http://www.w3.org/Graphics/SVG/1.1/DTD/svg11.dtd">
<svg xmlns:xlink="http://www.w3.org/1999/xlink" width="487.17375pt" height="311.13375pt" viewBox="0 0 487.17375 311.13375" xmlns="http://www.w3.org/2000/svg" version="1.1">
 <metadata>
  <rdf:RDF xmlns:dc="http://purl.org/dc/elements/1.1/" xmlns:cc="http://creativecommons.org/ns#" xmlns:rdf="http://www.w3.org/1999/02/22-rdf-syntax-ns#">
   <cc:Work>
    <dc:type rdf:resource="http://purl.org/dc/dcmitype/StillImage"/>
    <dc:date>2026-02-19T08:27:09.648984</dc:date>
    <dc:format>image/svg+xml</dc:format>
    <dc:creator>
     <cc:Agent>
      <dc:title>Matplotlib v3.10.1, https://matplotlib.org/</dc:title>
     </cc:Agent>
    </dc:creator>
   </cc:Work>
  </rdf:RDF>
 </metadata>
 <defs>
  <style type="text/css">*{stroke-linejoin: round; stroke-linecap: butt}</style>
 </defs>
 <g id="figure_1">
  <g id="patch_1">
   <path d="M 0 311.13375 
L 487.17375 311.13375 
L 487.17375 0 
L 0 0 
z
" style="fill: #ffffff"/>
  </g>
  <g id="axes_1">
   <g id="patch_2">
    <path d="M 29.91375 281.22 
L 476.37375 281.22 
L 476.37375 10.8 
L 29.91375 10.8 
z
" style="fill: #ffffff"/>
   </g>
   <g id="matplotlib.axis_1">
    <g id="xtick_1">
     <g id="line2d_1">
      <path d="M 50.207386 281.22 
L 50.207386 10.8 
" clip-path="url(#p345629c36f)" style="fill: none; stroke: #cccccc; stroke-width: 0.8; stroke-linecap: round"/>
     </g>
     <g id="line2d_2"/>
    </g>
    <g id="xtick_2">
     <g id="line2d_3">
      <path d="M 145.706852 281.22 
L 145.706852 10.8 
" clip-path="url(#p345629c36f)" style="fill: none; stroke: #cccccc; stroke-width: 0.8; stroke-linecap: round"/>
     </g>
     <g id="line2d_4"/>
    </g>
    <g id="xtick_3">
     <g id="line2d_5">
      <path d="M 241.206317 281.22 
L 241.206317 10.8 
" clip-path="url(#p345629c36f)" style="fill: none; stroke: #cccccc; stroke-width: 0.8; stroke-linecap: round"/>
     </g>
     <g id="line2d_6"/>
    </g>
    <g id="xtick_4">
     <g id="line2d_7">
      <path d="M 336.705782 281.22 
L 336.705782 10.8 
" clip-path="url(#p345629c36f)" style="fill: none; stroke: #cccccc; stroke-width: 0.8; stroke-linecap: round"/>
     </g>
     <g id="line2d_8"/>
    </g>
    <g id="xtick_5">
     <g id="line2d_9">
      <path d="M 432.205247 281.22 
L 432.205247 10.8 
" clip-path="url(#p345629c36f)" style="fill: none; stroke: #cccccc; stroke-width: 0.8; stroke-linecap: round"/>
     </g>
     <g id="line2d_10"/>
    </g>
    <g id="text_1">
     <!-- Stock S -->
     <g style="fill: #262626" transform="translate(229.997813 297.838125) scale(0.12 -0.12)">
      <defs>
       <path id="DejaVuSerif-53" d="M 594 225 
L 594 1288 
L 953 1284 
Q 969 753 1261 498 
Q 1553 244 2150 244 
Q 2706 244 2998 464 
Q 3291 684 3291 1106 
Q 3291 1444 3114 1625 
Q 2938 1806 2369 1978 
L 1753 2163 
Q 1084 2366 811 2669 
Q 538 2972 538 3500 
Q 538 4094 959 4422 
Q 1381 4750 2144 4750 
Q 2469 4750 2856 4679 
Q 3244 4609 3681 4475 
L 3681 3481 
L 3328 3481 
Q 3275 3975 2998 4195 
Q 2722 4416 2156 4416 
Q 1663 4416 1405 4214 
Q 1147 4013 1147 3628 
Q 1147 3294 1340 3103 
Q 1534 2913 2163 2725 
L 2741 2553 
Q 3375 2363 3645 2067 
Q 3916 1772 3916 1275 
Q 3916 597 3481 253 
Q 3047 -91 2188 -91 
Q 1803 -91 1404 -12 
Q 1006 66 594 225 
z
" transform="scale(0.015625)"/>
       <path id="DejaVuSerif-74" d="M 691 2988 
L 184 2988 
L 184 3322 
L 691 3322 
L 691 4353 
L 1269 4353 
L 1269 3322 
L 2350 3322 
L 2350 2988 
L 1269 2988 
L 1269 878 
Q 1269 456 1350 337 
Q 1431 219 1650 219 
Q 1875 219 1978 351 
Q 2081 484 2088 781 
L 2522 781 
Q 2497 328 2275 118 
Q 2053 -91 1600 -91 
Q 1103 -91 897 129 
Q 691 350 691 878 
L 691 2988 
z
" transform="scale(0.015625)"/>
       <path id="DejaVuSerif-6f" d="M 1925 219 
Q 2388 219 2623 584 
Q 2859 950 2859 1663 
Q 2859 2375 2623 2739 
Q 2388 3103 1925 3103 
Q 1463 3103 1227 2739 
Q 991 2375 991 1663 
Q 991 950 1228 584 
Q 1466 219 1925 219 
z
M 1925 -91 
Q 1200 -91 759 389 
Q 319 869 319 1663 
Q 319 2456 758 2934 
Q 1197 3413 1925 3413 
Q 2653 3413 3092 2934 
Q 3531 2456 3531 1663 
Q 3531 869 3092 389 
Q 2653 -91 1925 -91 
z
" transform="scale(0.015625)"/>
       <path id="DejaVuSerif-63" d="M 3291 997 
Q 3169 466 2822 187 
Q 2475 -91 1925 -91 
Q 1200 -91 759 389 
Q 319 869 319 1663 
Q 319 2459 759 2936 
Q 1200 3413 1925 3413 
Q 2241 3413 2553 3339 
Q 2866 3266 3181 3116 
L 3181 2266 
L 2847 2266 
Q 2781 2703 2561 2903 
Q 2341 3103 1931 3103 
Q 1466 3103 1228 2742 
Q 991 2381 991 1663 
Q 991 944 1227 581 
Q 1463 219 1931 219 
Q 2303 219 2525 412 
Q 2747 606 2828 997 
L 3291 997 
z
" transform="scale(0.015625)"/>
       <path id="DejaVuSerif-6b" d="M 1831 0 
L 219 0 
L 219 331 
L 738 331 
L 738 4531 
L 184 4531 
L 184 4863 
L 1313 4863 
L 1313 1697 
L 2713 2988 
L 2234 2988 
L 2234 3322 
L 3738 3322 
L 3738 2988 
L 3169 2988 
L 2181 2075 
L 3444 331 
L 3922 331 
L 3922 0 
L 2284 0 
L 2284 331 
L 2759 331 
L 1766 1697 
L 1313 1275 
L 1313 331 
L 1831 331 
L 1831 0 
z
" transform="scale(0.015625)"/>
       <path id="DejaVuSerif-20" transform="scale(0.015625)"/>
      </defs>
      <use xlink:href="#DejaVuSerif-53"/>
      <use xlink:href="#DejaVuSerif-74" transform="translate(68.505859 0)"/>
      <use xlink:href="#DejaVuSerif-6f" transform="translate(108.691406 0)"/>
      <use xlink:href="#DejaVuSerif-63" transform="translate(168.896484 0)"/>
      <use xlink:href="#DejaVuSerif-6b" transform="translate(224.902344 0)"/>
      <use xlink:href="#DejaVuSerif-20" transform="translate(285.498047 0)"/>
      <use xlink:href="#DejaVuSerif-53" transform="translate(317.285156 0)"/>
     </g>
    </g>
   </g>
   <g id="matplotlib.axis_2">
    <g id="ytick_1">
     <g id="line2d_11">
      <path d="M 29.91375 254.178 
L 476.37375 254.178 
" clip-path="url(#p345629c36f)" style="fill: none; stroke: #cccccc; stroke-width: 0.8; stroke-linecap: round"/>
     </g>
     <g id="line2d_12"/>
    </g>
    <g id="ytick_2">
     <g id="line2d_13">
      <path d="M 29.91375 200.094 
L 476.37375 200.094 
" clip-path="url(#p345629c36f)" style="fill: none; stroke: #cccccc; stroke-width: 0.8; stroke-linecap: round"/>
     </g>
     <g id="line2d_14"/>
    </g>
    <g id="ytick_3">
     <g id="line2d_15">
      <path d="M 29.91375 146.01 
L 476.37375 146.01 
" clip-path="url(#p345629c36f)" style="fill: none; stroke: #cccccc; stroke-width: 0.8; stroke-linecap: round"/>
     </g>
     <g id="line2d_16"/>
    </g>
    <g id="ytick_4">
     <g id="line2d_17">
      <path d="M 29.91375 91.926 
L 476.37375 91.926 
" clip-path="url(#p345629c36f)" style="fill: none; stroke: #cccccc; stroke-width: 0.8; stroke-linecap: round"/>
     </g>
     <g id="line2d_18"/>
    </g>
    <g id="ytick_5">
     <g id="line2d_19">
      <path d="M 29.91375 37.842 
L 476.37375 37.842 
" clip-path="url(#p345629c36f)" style="fill: none; stroke: #cccccc; stroke-width: 0.8; stroke-linecap: round"/>
     </g>
     <g id="line2d_20"/>
    </g>
    <g id="text_2">
     <!-- Growth G(S) -->
     <g style="fill: #262626" transform="translate(19.918125 184.186875) rotate(-90) scale(0.12 -0.12)">
      <defs>
       <path id="DejaVuSerif-47" d="M 4097 3272 
Q 3988 3856 3641 4136 
Q 3294 4416 2675 4416 
Q 1869 4416 1472 3897 
Q 1075 3378 1075 2328 
Q 1075 1300 1484 772 
Q 1894 244 2688 244 
Q 3041 244 3362 331 
Q 3684 419 3975 594 
L 3975 1797 
L 3097 1797 
L 3097 2131 
L 4609 2131 
L 4609 391 
Q 4194 150 3714 29 
Q 3234 -91 2688 -91 
Q 1631 -91 995 570 
Q 359 1231 359 2328 
Q 359 3434 996 4092 
Q 1634 4750 2713 4750 
Q 3113 4750 3539 4658 
Q 3966 4566 4447 4378 
L 4447 3272 
L 4097 3272 
z
" transform="scale(0.015625)"/>
       <path id="DejaVuSerif-72" d="M 3059 3328 
L 3059 2497 
L 2728 2497 
Q 2713 2744 2591 2866 
Q 2469 2988 2234 2988 
Q 1809 2988 1582 2694 
Q 1356 2400 1356 1850 
L 1356 331 
L 2022 331 
L 2022 0 
L 263 0 
L 263 331 
L 781 331 
L 781 2994 
L 231 2994 
L 231 3322 
L 1356 3322 
L 1356 2731 
Q 1525 3078 1790 3245 
Q 2056 3413 2438 3413 
Q 2578 3413 2733 3391 
Q 2888 3369 3059 3328 
z
" transform="scale(0.015625)"/>
       <path id="DejaVuSerif-77" d="M 3072 3322 
L 3922 728 
L 4672 2988 
L 4191 2988 
L 4191 3322 
L 5394 3322 
L 5394 2988 
L 5025 2988 
L 4038 0 
L 3559 0 
L 2741 2484 
L 1919 0 
L 1459 0 
L 475 2988 
L 103 2988 
L 103 3322 
L 1606 3322 
L 1606 2988 
L 1069 2988 
L 1813 728 
L 2669 3322 
L 3072 3322 
z
" transform="scale(0.015625)"/>
       <path id="DejaVuSerif-68" d="M 263 0 
L 263 331 
L 781 331 
L 781 4531 
L 231 4531 
L 231 4863 
L 1356 4863 
L 1356 2731 
Q 1516 3069 1770 3241 
Q 2025 3413 2363 3413 
Q 2913 3413 3172 3097 
Q 3431 2781 3431 2113 
L 3431 331 
L 3944 331 
L 3944 0 
L 2356 0 
L 2356 331 
L 2853 331 
L 2853 1931 
Q 2853 2541 2704 2764 
Q 2556 2988 2175 2988 
Q 1775 2988 1565 2697 
Q 1356 2406 1356 1850 
L 1356 331 
L 1856 331 
L 1856 0 
L 263 0 
z
" transform="scale(0.015625)"/>
       <path id="DejaVuSerif-28" d="M 2041 -997 
Q 1281 -656 893 83 
Q 506 822 506 1931 
Q 506 3044 893 3783 
Q 1281 4522 2041 4863 
L 2041 4556 
Q 1559 4225 1350 3623 
Q 1141 3022 1141 1931 
Q 1141 844 1350 242 
Q 1559 -359 2041 -691 
L 2041 -997 
z
" transform="scale(0.015625)"/>
       <path id="DejaVuSerif-29" d="M 453 -997 
L 453 -691 
Q 934 -359 1145 242 
Q 1356 844 1356 1931 
Q 1356 3022 1145 3623 
Q 934 4225 453 4556 
L 453 4863 
Q 1216 4522 1603 3783 
Q 1991 3044 1991 1931 
Q 1991 822 1603 83 
Q 1216 -656 453 -997 
z
" transform="scale(0.015625)"/>
      </defs>
      <use xlink:href="#DejaVuSerif-47"/>
      <use xlink:href="#DejaVuSerif-72" transform="translate(79.882812 0)"/>
      <use xlink:href="#DejaVuSerif-6f" transform="translate(127.685547 0)"/>
      <use xlink:href="#DejaVuSerif-77" transform="translate(187.890625 0)"/>
      <use xlink:href="#DejaVuSerif-74" transform="translate(273.486328 0)"/>
      <use xlink:href="#DejaVuSerif-68" transform="translate(313.671875 0)"/>
      <use xlink:href="#DejaVuSerif-20" transform="translate(378.076172 0)"/>
      <use xlink:href="#DejaVuSerif-47" transform="translate(409.863281 0)"/>
      <use xlink:href="#DejaVuSerif-28" transform="translate(489.746094 0)"/>
      <use xlink:href="#DejaVuSerif-53" transform="translate(528.759766 0)"/>
      <use xlink:href="#DejaVuSerif-29" transform="translate(597.265625 0)"/>
     </g>
    </g>
   </g>
   <g id="line2d_21">
    <path d="M 50.207386 254.178 
L 56.714364 238.964297 
L 63.221342 224.277878 
L 69.728319 210.118744 
L 76.235297 196.486894 
L 82.742274 183.382328 
L 89.249252 170.805047 
L 95.75623 158.75505 
L 101.449835 148.64384 
L 107.14344 138.936333 
L 112.837046 129.632527 
L 118.530651 120.732424 
L 124.224256 112.236022 
L 129.917862 104.143323 
L 135.611467 96.454326 
L 141.305073 89.16903 
L 146.998678 82.287437 
L 151.878911 76.710242 
L 156.759144 71.429645 
L 161.639378 66.445645 
L 166.519611 61.758243 
L 171.399844 57.367438 
L 176.280077 53.273231 
L 181.16031 49.475621 
L 186.040544 45.974608 
L 190.920777 42.770193 
L 195.80101 39.862375 
L 200.681243 37.251154 
L 205.561476 34.936531 
L 209.628337 33.234246 
L 213.695198 31.737932 
L 217.762059 30.447588 
L 221.82892 29.363214 
L 225.895781 28.484811 
L 229.962642 27.812378 
L 234.029503 27.345915 
L 238.096364 27.085423 
L 242.163225 27.030902 
L 246.230086 27.18235 
L 250.296947 27.53977 
L 254.363808 28.103159 
L 258.430669 28.87252 
L 262.49753 29.84785 
L 266.564391 31.029151 
L 270.631252 32.416423 
L 274.698113 34.009664 
L 278.764974 35.808877 
L 282.831835 37.814059 
L 287.712068 40.49216 
L 292.592302 43.466857 
L 297.472535 46.738152 
L 302.352768 50.306045 
L 307.233001 54.170535 
L 312.113234 58.331622 
L 316.993468 62.789307 
L 321.873701 67.543589 
L 326.753934 72.594469 
L 331.634167 77.941946 
L 336.5144 83.58602 
L 341.394634 89.526692 
L 347.088239 96.832342 
L 352.781844 104.541694 
L 358.47545 112.654748 
L 364.169055 121.171504 
L 369.862661 130.091962 
L 375.556266 139.416123 
L 381.249871 149.143985 
L 386.943477 159.275549 
L 393.450454 171.348809 
L 399.957432 183.949353 
L 406.46441 197.077181 
L 412.971387 210.732294 
L 419.478365 224.914691 
L 425.985342 239.624372 
L 432.49232 254.861337 
L 438.999297 270.625587 
L 445.506275 286.917121 
L 452.826625 305.875366 
L 455.188067 312.13375 
L 455.188067 312.13375 
" clip-path="url(#p345629c36f)" style="fill: none; stroke: #2563eb; stroke-width: 2.5; stroke-linecap: round"/>
   </g>
   <g id="line2d_22">
    <path d="M 50.207386 254.178 
L 56.714364 238.993591 
L 63.221342 224.395053 
L 69.728319 210.382386 
L 76.235297 196.955591 
L 81.928902 185.687743 
L 87.622508 174.868453 
L 93.316113 164.497721 
L 99.009718 154.575546 
L 104.703324 145.10193 
L 110.396929 136.076871 
L 116.090534 127.50037 
L 121.78414 119.372427 
L 126.664373 112.762633 
L 131.544606 106.482393 
L 136.424839 100.531705 
L 141.305073 94.91057 
L 146.185306 89.618988 
L 151.065539 84.656959 
L 155.945772 80.024482 
L 160.826005 75.721557 
L 165.706239 71.748186 
L 170.586472 68.104367 
L 174.653333 65.319593 
L 178.720194 62.763675 
L 182.787055 60.436613 
L 186.853916 58.338407 
L 190.920777 56.469057 
L 194.987638 54.828563 
L 199.054499 53.416925 
L 203.12136 52.234143 
L 207.188221 51.280218 
L 211.255082 50.555148 
L 215.321943 50.058934 
L 219.388804 49.791577 
L 223.455665 49.753075 
L 227.522526 49.943429 
L 231.589387 50.36264 
L 235.656248 51.010706 
L 239.723109 51.887629 
L 243.78997 52.993407 
L 247.856831 54.328042 
L 251.923692 55.891532 
L 255.990553 57.683879 
L 260.057414 59.705081 
L 264.124275 61.95514 
L 268.191136 64.434055 
L 272.257997 67.141826 
L 276.324858 70.078452 
L 281.205091 73.904494 
L 286.085324 78.060089 
L 290.965557 82.545237 
L 295.84579 87.359937 
L 300.726024 92.50419 
L 305.606257 97.977995 
L 310.48649 103.781353 
L 315.366723 109.914264 
L 320.246956 116.376728 
L 325.12719 123.168744 
L 330.820795 131.509281 
L 336.5144 140.298376 
L 342.208006 149.536029 
L 347.901611 159.222239 
L 353.595217 169.357007 
L 359.288822 179.940334 
L 364.982427 190.972218 
L 370.676033 202.452659 
L 376.369638 214.381659 
L 382.876616 228.564056 
L 389.383593 243.332324 
L 393.450454 252.860005 
L 393.450454 252.860005 
" clip-path="url(#p345629c36f)" style="fill: none; stroke-dasharray: 9.25,4; stroke-dashoffset: 0; stroke: #dc2626; stroke-width: 2.5"/>
   </g>
   <g id="line2d_23">
    <path d="M 29.91375 64.884 
L 476.37375 64.884 
" clip-path="url(#p345629c36f)" style="fill: none; stroke-dasharray: 5.55,2.4; stroke-dashoffset: 0; stroke: #f59e0b; stroke-width: 1.5"/>
   </g>
   <g id="line2d_24">
    <path d="M 217.331451 281.22 
L 217.331451 10.8 
" clip-path="url(#p345629c36f)" style="fill: none; stroke-dasharray: 1.5,2.475; stroke-dashoffset: 0; stroke: #475569; stroke-opacity: 0.5; stroke-width: 1.5"/>
   </g>
   <g id="patch_3">
    <path d="M 29.91375 281.22 
L 29.91375 10.8 
" style="fill: none; stroke: #cccccc; stroke-linejoin: miter; stroke-linecap: square"/>
   </g>
   <g id="patch_4">
    <path d="M 476.37375 281.22 
L 476.37375 10.8 
" style="fill: none; stroke: #cccccc; stroke-linejoin: miter; stroke-linecap: square"/>
   </g>
   <g id="patch_5">
    <path d="M 29.91375 281.22 
L 476.37375 281.22 
" style="fill: none; stroke: #cccccc; stroke-linejoin: miter; stroke-linecap: square"/>
   </g>
   <g id="patch_6">
    <path d="M 29.91375 10.8 
L 476.37375 10.8 
" style="fill: none; stroke: #cccccc; stroke-linejoin: miter; stroke-linecap: square"/>
   </g>
   <g id="text_3">
    <g id="patch_7">
     <path d="M 185.814576 245.228719 
L 248.848326 245.228719 
Q 251.548326 245.228719 251.548326 242.528719 
L 251.548326 233.818406 
Q 251.548326 231.118406 248.848326 231.118406 
L 185.814576 231.118406 
Q 183.114576 231.118406 183.114576 233.818406 
L 183.114576 242.528719 
Q 183.114576 245.228719 185.814576 245.228719 
z
" style="fill: #f8fafc; stroke: #475569; stroke-linejoin: miter"/>
    </g>
    <!-- Current stock -->
    <g style="fill: #262626" transform="translate(185.814576 240.657) scale(0.09 -0.09)">
     <defs>
      <path id="DejaVuSerif-43" d="M 4513 1234 
Q 4306 581 3820 245 
Q 3334 -91 2591 -91 
Q 2134 -91 1743 65 
Q 1353 222 1050 525 
Q 700 875 529 1320 
Q 359 1766 359 2328 
Q 359 3416 987 4083 
Q 1616 4750 2644 4750 
Q 3025 4750 3456 4650 
Q 3888 4550 4384 4347 
L 4384 3272 
L 4031 3272 
Q 3916 3859 3567 4137 
Q 3219 4416 2591 4416 
Q 1844 4416 1459 3886 
Q 1075 3356 1075 2328 
Q 1075 1303 1459 773 
Q 1844 244 2591 244 
Q 3113 244 3450 492 
Q 3788 741 3938 1234 
L 4513 1234 
z
" transform="scale(0.015625)"/>
      <path id="DejaVuSerif-75" d="M 2266 3322 
L 3341 3322 
L 3341 331 
L 3884 331 
L 3884 0 
L 2766 0 
L 2766 588 
Q 2606 256 2353 82 
Q 2100 -91 1766 -91 
Q 1213 -91 952 223 
Q 691 538 691 1209 
L 691 2988 
L 172 2988 
L 172 3322 
L 1269 3322 
L 1269 1388 
Q 1269 781 1417 556 
Q 1566 331 1947 331 
Q 2347 331 2556 625 
Q 2766 919 2766 1478 
L 2766 2988 
L 2266 2988 
L 2266 3322 
z
" transform="scale(0.015625)"/>
      <path id="DejaVuSerif-65" d="M 3469 1600 
L 991 1600 
L 991 1575 
Q 991 903 1244 561 
Q 1497 219 1991 219 
Q 2369 219 2611 417 
Q 2853 616 2950 1006 
L 3413 1006 
Q 3275 459 2904 184 
Q 2534 -91 1931 -91 
Q 1203 -91 761 389 
Q 319 869 319 1663 
Q 319 2450 753 2931 
Q 1188 3413 1894 3413 
Q 2647 3413 3050 2948 
Q 3453 2484 3469 1600 
z
M 2791 1931 
Q 2772 2513 2545 2808 
Q 2319 3103 1894 3103 
Q 1497 3103 1269 2806 
Q 1041 2509 991 1931 
L 2791 1931 
z
" transform="scale(0.015625)"/>
      <path id="DejaVuSerif-6e" d="M 263 0 
L 263 331 
L 781 331 
L 781 2988 
L 231 2988 
L 231 3322 
L 1356 3322 
L 1356 2731 
Q 1516 3069 1770 3241 
Q 2025 3413 2363 3413 
Q 2913 3413 3172 3097 
Q 3431 2781 3431 2113 
L 3431 331 
L 3944 331 
L 3944 0 
L 2356 0 
L 2356 331 
L 2853 331 
L 2853 1931 
Q 2853 2541 2703 2767 
Q 2553 2994 2175 2994 
Q 1775 2994 1565 2701 
Q 1356 2409 1356 1850 
L 1356 331 
L 1856 331 
L 1856 0 
L 263 0 
z
" transform="scale(0.015625)"/>
      <path id="DejaVuSerif-73" d="M 359 184 
L 359 959 
L 691 959 
Q 703 588 923 403 
Q 1144 219 1575 219 
Q 1963 219 2166 364 
Q 2369 509 2369 788 
Q 2369 1006 2220 1140 
Q 2072 1275 1594 1428 
L 1178 1569 
Q 750 1706 558 1912 
Q 366 2119 366 2438 
Q 366 2894 700 3153 
Q 1034 3413 1625 3413 
Q 1888 3413 2178 3344 
Q 2469 3275 2778 3144 
L 2778 2419 
L 2447 2419 
Q 2434 2741 2221 2922 
Q 2009 3103 1644 3103 
Q 1281 3103 1095 2975 
Q 909 2847 909 2591 
Q 909 2381 1050 2254 
Q 1191 2128 1613 1997 
L 2069 1856 
Q 2541 1709 2748 1489 
Q 2956 1269 2956 922 
Q 2956 450 2595 179 
Q 2234 -91 1600 -91 
Q 1278 -91 972 -22 
Q 666 47 359 184 
z
" transform="scale(0.015625)"/>
     </defs>
     <use xlink:href="#DejaVuSerif-43"/>
     <use xlink:href="#DejaVuSerif-75" transform="translate(76.513672 0)"/>
     <use xlink:href="#DejaVuSerif-72" transform="translate(140.917969 0)"/>
     <use xlink:href="#DejaVuSerif-72" transform="translate(188.720703 0)"/>
     <use xlink:href="#DejaVuSerif-65" transform="translate(236.523438 0)"/>
     <use xlink:href="#DejaVuSerif-6e" transform="translate(295.703125 0)"/>
     <use xlink:href="#DejaVuSerif-74" transform="translate(360.107422 0)"/>
     <use xlink:href="#DejaVuSerif-20" transform="translate(400.292969 0)"/>
     <use xlink:href="#DejaVuSerif-73" transform="translate(432.080078 0)"/>
     <use xlink:href="#DejaVuSerif-74" transform="translate(483.398438 0)"/>
     <use xlink:href="#DejaVuSerif-6f" transform="translate(523.583984 0)"/>
     <use xlink:href="#DejaVuSerif-63" transform="translate(583.789062 0)"/>
     <use xlink:href="#DejaVuSerif-6b" transform="translate(639.794922 0)"/>
    </g>
   </g>
   <g id="legend_1">
    <g id="line2d_25">
     <path d="M 366.76 21.27875 
L 374.76 21.27875 
L 382.76 21.27875 
" style="fill: none; stroke: #2563eb; stroke-width: 2.5; stroke-linecap: round"/>
    </g>
    <g id="text_4">
     <!-- Current capacity -->
     <g style="fill: #262626" transform="translate(389.16 24.07875) scale(0.08 -0.08)">
      <defs>
       <path id="DejaVuSerif-61" d="M 2547 1044 
L 2547 1747 
L 1806 1747 
Q 1378 1747 1168 1562 
Q 959 1378 959 997 
Q 959 650 1171 447 
Q 1384 244 1747 244 
Q 2106 244 2326 466 
Q 2547 688 2547 1044 
z
M 3122 2075 
L 3122 331 
L 3634 331 
L 3634 0 
L 2547 0 
L 2547 359 
Q 2356 128 2106 18 
Q 1856 -91 1522 -91 
Q 969 -91 644 203 
Q 319 497 319 997 
Q 319 1513 691 1797 
Q 1063 2081 1741 2081 
L 2547 2081 
L 2547 2309 
Q 2547 2688 2317 2895 
Q 2088 3103 1672 3103 
Q 1328 3103 1125 2947 
Q 922 2791 872 2484 
L 575 2484 
L 575 3156 
Q 875 3284 1158 3348 
Q 1441 3413 1709 3413 
Q 2400 3413 2761 3070 
Q 3122 2728 3122 2075 
z
" transform="scale(0.015625)"/>
       <path id="DejaVuSerif-70" d="M 1313 1825 
L 1313 1497 
Q 1313 897 1542 583 
Q 1772 269 2209 269 
Q 2650 269 2876 622 
Q 3103 975 3103 1663 
Q 3103 2353 2876 2703 
Q 2650 3053 2209 3053 
Q 1772 3053 1542 2737 
Q 1313 2422 1313 1825 
z
M 738 2988 
L 184 2988 
L 184 3322 
L 1313 3322 
L 1313 2803 
Q 1481 3116 1742 3264 
Q 2003 3413 2388 3413 
Q 3000 3413 3387 2928 
Q 3775 2444 3775 1663 
Q 3775 881 3387 395 
Q 3000 -91 2388 -91 
Q 2003 -91 1742 57 
Q 1481 206 1313 519 
L 1313 -997 
L 1856 -997 
L 1856 -1331 
L 184 -1331 
L 184 -997 
L 738 -997 
L 738 2988 
z
" transform="scale(0.015625)"/>
       <path id="DejaVuSerif-69" d="M 622 4353 
Q 622 4497 726 4603 
Q 831 4709 978 4709 
Q 1122 4709 1226 4603 
Q 1331 4497 1331 4353 
Q 1331 4206 1228 4103 
Q 1125 4000 978 4000 
Q 831 4000 726 4103 
Q 622 4206 622 4353 
z
M 1356 331 
L 1900 331 
L 1900 0 
L 231 0 
L 231 331 
L 781 331 
L 781 2988 
L 231 2988 
L 231 3322 
L 1356 3322 
L 1356 331 
z
" transform="scale(0.015625)"/>
       <path id="DejaVuSerif-79" d="M 1381 -609 
L 1600 -56 
L 359 2988 
L -19 2988 
L -19 3322 
L 1509 3322 
L 1509 2988 
L 978 2988 
L 1913 703 
L 2847 2988 
L 2350 2988 
L 2350 3322 
L 3597 3322 
L 3597 2988 
L 3225 2988 
L 1703 -750 
Q 1547 -1138 1356 -1280 
Q 1166 -1422 819 -1422 
Q 672 -1422 517 -1397 
Q 363 -1372 206 -1325 
L 206 -691 
L 500 -691 
Q 519 -903 608 -995 
Q 697 -1088 884 -1088 
Q 1056 -1088 1161 -992 
Q 1266 -897 1381 -609 
z
" transform="scale(0.015625)"/>
      </defs>
      <use xlink:href="#DejaVuSerif-43"/>
      <use xlink:href="#DejaVuSerif-75" transform="translate(76.513672 0)"/>
      <use xlink:href="#DejaVuSerif-72" transform="translate(140.917969 0)"/>
      <use xlink:href="#DejaVuSerif-72" transform="translate(188.720703 0)"/>
      <use xlink:href="#DejaVuSerif-65" transform="translate(236.523438 0)"/>
      <use xlink:href="#DejaVuSerif-6e" transform="translate(295.703125 0)"/>
      <use xlink:href="#DejaVuSerif-74" transform="translate(360.107422 0)"/>
      <use xlink:href="#DejaVuSerif-20" transform="translate(400.292969 0)"/>
      <use xlink:href="#DejaVuSerif-63" transform="translate(432.080078 0)"/>
      <use xlink:href="#DejaVuSerif-61" transform="translate(488.085938 0)"/>
      <use xlink:href="#DejaVuSerif-70" transform="translate(547.705078 0)"/>
      <use xlink:href="#DejaVuSerif-61" transform="translate(611.71875 0)"/>
      <use xlink:href="#DejaVuSerif-63" transform="translate(671.337891 0)"/>
      <use xlink:href="#DejaVuSerif-69" transform="translate(727.34375 0)"/>
      <use xlink:href="#DejaVuSerif-74" transform="translate(759.326172 0)"/>
      <use xlink:href="#DejaVuSerif-79" transform="translate(799.511719 0)"/>
     </g>
    </g>
    <g id="line2d_26">
     <path d="M 366.76 33.135 
L 374.76 33.135 
L 382.76 33.135 
" style="fill: none; stroke-dasharray: 9.25,4; stroke-dashoffset: 0; stroke: #dc2626; stroke-width: 2.5"/>
    </g>
    <g id="text_5">
     <!-- Reduced (warming) -->
     <g style="fill: #262626" transform="translate(389.16 35.935) scale(0.08 -0.08)">
      <defs>
       <path id="DejaVuSerif-52" d="M 3066 2316 
Q 3284 2256 3442 2114 
Q 3600 1972 3725 1716 
L 4403 331 
L 4972 331 
L 4972 0 
L 3872 0 
L 3144 1484 
Q 2934 1916 2759 2042 
Q 2584 2169 2278 2169 
L 1581 2169 
L 1581 331 
L 2241 331 
L 2241 0 
L 353 0 
L 353 331 
L 947 331 
L 947 4331 
L 353 4331 
L 353 4666 
L 2719 4666 
Q 3400 4666 3770 4341 
Q 4141 4016 4141 3419 
Q 4141 2938 3870 2661 
Q 3600 2384 3066 2316 
z
M 1581 2503 
L 2503 2503 
Q 2975 2503 3200 2726 
Q 3425 2950 3425 3419 
Q 3425 3888 3200 4109 
Q 2975 4331 2503 4331 
L 1581 4331 
L 1581 2503 
z
" transform="scale(0.015625)"/>
       <path id="DejaVuSerif-64" d="M 3359 331 
L 3909 331 
L 3909 0 
L 2784 0 
L 2784 519 
Q 2616 206 2355 57 
Q 2094 -91 1709 -91 
Q 1097 -91 708 395 
Q 319 881 319 1663 
Q 319 2444 706 2928 
Q 1094 3413 1709 3413 
Q 2094 3413 2355 3264 
Q 2616 3116 2784 2803 
L 2784 4531 
L 2241 4531 
L 2241 4863 
L 3359 4863 
L 3359 331 
z
M 2784 1497 
L 2784 1825 
Q 2784 2422 2554 2737 
Q 2325 3053 1888 3053 
Q 1444 3053 1217 2703 
Q 991 2353 991 1663 
Q 991 975 1217 622 
Q 1444 269 1888 269 
Q 2325 269 2554 583 
Q 2784 897 2784 1497 
z
" transform="scale(0.015625)"/>
       <path id="DejaVuSerif-6d" d="M 3316 2675 
Q 3481 3041 3739 3227 
Q 3997 3413 4341 3413 
Q 4863 3413 5119 3089 
Q 5375 2766 5375 2113 
L 5375 331 
L 5894 331 
L 5894 0 
L 4300 0 
L 4300 331 
L 4800 331 
L 4800 2047 
Q 4800 2556 4650 2772 
Q 4500 2988 4153 2988 
Q 3769 2988 3567 2697 
Q 3366 2406 3366 1850 
L 3366 331 
L 3866 331 
L 3866 0 
L 2291 0 
L 2291 331 
L 2791 331 
L 2791 2069 
Q 2791 2566 2641 2777 
Q 2491 2988 2144 2988 
Q 1759 2988 1557 2697 
Q 1356 2406 1356 1850 
L 1356 331 
L 1856 331 
L 1856 0 
L 263 0 
L 263 331 
L 781 331 
L 781 2994 
L 231 2994 
L 231 3322 
L 1356 3322 
L 1356 2731 
Q 1516 3063 1762 3238 
Q 2009 3413 2322 3413 
Q 2709 3413 2968 3220 
Q 3228 3028 3316 2675 
z
" transform="scale(0.015625)"/>
       <path id="DejaVuSerif-67" d="M 3359 2988 
L 3359 72 
Q 3359 -644 2965 -1033 
Q 2572 -1422 1844 -1422 
Q 1516 -1422 1216 -1362 
Q 916 -1303 641 -1184 
L 641 -488 
L 941 -488 
Q 997 -813 1206 -963 
Q 1416 -1113 1806 -1113 
Q 2313 -1113 2548 -827 
Q 2784 -541 2784 72 
L 2784 519 
Q 2616 206 2355 57 
Q 2094 -91 1709 -91 
Q 1097 -91 708 395 
Q 319 881 319 1663 
Q 319 2444 706 2928 
Q 1094 3413 1709 3413 
Q 2094 3413 2355 3264 
Q 2616 3116 2784 2803 
L 2784 3322 
L 3909 3322 
L 3909 2988 
L 3359 2988 
z
M 2784 1825 
Q 2784 2422 2554 2737 
Q 2325 3053 1888 3053 
Q 1444 3053 1217 2703 
Q 991 2353 991 1663 
Q 991 975 1217 622 
Q 1444 269 1888 269 
Q 2325 269 2554 583 
Q 2784 897 2784 1497 
L 2784 1825 
z
" transform="scale(0.015625)"/>
      </defs>
      <use xlink:href="#DejaVuSerif-52"/>
      <use xlink:href="#DejaVuSerif-65" transform="translate(75.292969 0)"/>
      <use xlink:href="#DejaVuSerif-64" transform="translate(134.472656 0)"/>
      <use xlink:href="#DejaVuSerif-75" transform="translate(198.486328 0)"/>
      <use xlink:href="#DejaVuSerif-63" transform="translate(262.890625 0)"/>
      <use xlink:href="#DejaVuSerif-65" transform="translate(318.896484 0)"/>
      <use xlink:href="#DejaVuSerif-64" transform="translate(378.076172 0)"/>
      <use xlink:href="#DejaVuSerif-20" transform="translate(442.089844 0)"/>
      <use xlink:href="#DejaVuSerif-28" transform="translate(473.876953 0)"/>
      <use xlink:href="#DejaVuSerif-77" transform="translate(512.890625 0)"/>
      <use xlink:href="#DejaVuSerif-61" transform="translate(598.486328 0)"/>
      <use xlink:href="#DejaVuSerif-72" transform="translate(658.105469 0)"/>
      <use xlink:href="#DejaVuSerif-6d" transform="translate(705.908203 0)"/>
      <use xlink:href="#DejaVuSerif-69" transform="translate(800.732422 0)"/>
      <use xlink:href="#DejaVuSerif-6e" transform="translate(832.714844 0)"/>
      <use xlink:href="#DejaVuSerif-67" transform="translate(897.119141 0)"/>
      <use xlink:href="#DejaVuSerif-29" transform="translate(961.132812 0)"/>
     </g>
    </g>
    <g id="line2d_27">
     <path d="M 366.76 44.99125 
L 374.76 44.99125 
L 382.76 44.99125 
" style="fill: none; stroke-dasharray: 5.55,2.4; stroke-dashoffset: 0; stroke: #f59e0b; stroke-width: 1.5"/>
    </g>
    <g id="text_6">
     <!-- Proposed harvest -->
     <g style="fill: #262626" transform="translate(389.16 47.79125) scale(0.08 -0.08)">
      <defs>
       <path id="DejaVuSerif-50" d="M 1581 2375 
L 2406 2375 
Q 2872 2375 3115 2626 
Q 3359 2878 3359 3353 
Q 3359 3831 3115 4081 
Q 2872 4331 2406 4331 
L 1581 4331 
L 1581 2375 
z
M 353 0 
L 353 331 
L 947 331 
L 947 4331 
L 353 4331 
L 353 4666 
L 2559 4666 
Q 3259 4666 3668 4311 
Q 4078 3956 4078 3353 
Q 4078 2753 3668 2397 
Q 3259 2041 2559 2041 
L 1581 2041 
L 1581 331 
L 2303 331 
L 2303 0 
L 353 0 
z
" transform="scale(0.015625)"/>
       <path id="DejaVuSerif-76" d="M 1581 0 
L 359 2988 
L -19 2988 
L -19 3322 
L 1509 3322 
L 1509 2988 
L 978 2988 
L 1913 703 
L 2847 2988 
L 2350 2988 
L 2350 3322 
L 3597 3322 
L 3597 2988 
L 3225 2988 
L 2003 0 
L 1581 0 
z
" transform="scale(0.015625)"/>
      </defs>
      <use xlink:href="#DejaVuSerif-50"/>
      <use xlink:href="#DejaVuSerif-72" transform="translate(67.285156 0)"/>
      <use xlink:href="#DejaVuSerif-6f" transform="translate(115.087891 0)"/>
      <use xlink:href="#DejaVuSerif-70" transform="translate(175.292969 0)"/>
      <use xlink:href="#DejaVuSerif-6f" transform="translate(239.306641 0)"/>
      <use xlink:href="#DejaVuSerif-73" transform="translate(299.511719 0)"/>
      <use xlink:href="#DejaVuSerif-65" transform="translate(350.830078 0)"/>
      <use xlink:href="#DejaVuSerif-64" transform="translate(410.009766 0)"/>
      <use xlink:href="#DejaVuSerif-20" transform="translate(474.023438 0)"/>
      <use xlink:href="#DejaVuSerif-68" transform="translate(505.810547 0)"/>
      <use xlink:href="#DejaVuSerif-61" transform="translate(570.214844 0)"/>
      <use xlink:href="#DejaVuSerif-72" transform="translate(629.833984 0)"/>
      <use xlink:href="#DejaVuSerif-76" transform="translate(677.636719 0)"/>
      <use xlink:href="#DejaVuSerif-65" transform="translate(734.130859 0)"/>
      <use xlink:href="#DejaVuSerif-73" transform="translate(793.310547 0)"/>
      <use xlink:href="#DejaVuSerif-74" transform="translate(844.628906 0)"/>
     </g>
    </g>
   </g>
  </g>
 </g>
 <defs>
  <clipPath id="p345629c36f">
   <rect x="29.91375" y="10.8" width="446.46" height="270.42"/>
  </clipPath>
 </defs>
</svg>
