<?xml version="1.0" encoding="utf-8" standalone="no"?>
<!DOCTYPE svg PUBLIC "-//W3C//DTD SVG 1.1//EN"
  "http://www.w3.org/Graphics/SVG/1.1/DTD/svg11.dtd">
<svg xmlns:xlink="http://www.w3.org/1999/xlink" width="768.15375pt" height="310.740469pt" viewBox="0 0 768.15375 310.740469" xmlns="http://www.w3.org/2000/svg" version="1.1">
 <metadata>
  <rdf:RDF xmlns:dc="http://purl.org/dc/elements/1.1/" xmlns:cc="http://creativecommons.org/ns#" xmlns:rdf="http://www.w3.org/1999/02/22-rdf-syntax-ns#">
   <cc:Work>
    <dc:type rdf:resource="http://purl.org/dc/dcmitype/StillImage"/>
    <dc:date>2026-02-19T08:27:09.725879</dc:date>
    <dc:format>image/svg+xml</dc:format>
    <dc:creator>
     <cc:Agent>
      <dc:title>Matplotlib v3.10.1, https://matplotlib.org/</dc:title>
     </cc:Agent>
    </dc:creator>
   </cc:Work>
  </rdf:RDF>
 </metadata>
 <defs>
  <style type="text/css">*{stroke-linejoin: round; stroke-linecap: butt}</style>
 </defs>
 <g id="figure_1">
  <g id="patch_1">
   <path d="M 0 310.740469 
L 768.15375 310.740469 
L 768.15375 0 
L 0 0 
z
" style="fill: #ffffff"/>
  </g>
  <g id="axes_1">
   <g id="patch_2">
    <path d="M 29.91375 280.826719 
L 369.72375 280.826719 
L 369.72375 26.677969 
L 29.91375 26.677969 
z
" style="fill: #ffffff"/>
   </g>
   <g id="matplotlib.axis_1">
    <g id="xtick_1">
     <g id="line2d_1">
      <path d="M 45.359659 280.826719 
L 45.359659 26.677969 
" clip-path="url(#pf54233bca0)" style="fill: none; stroke: #cccccc; stroke-width: 0.8; stroke-linecap: round"/>
     </g>
     <g id="line2d_2"/>
    </g>
    <g id="xtick_2">
     <g id="line2d_3">
      <path d="M 96.846023 280.826719 
L 96.846023 26.677969 
" clip-path="url(#pf54233bca0)" style="fill: none; stroke: #cccccc; stroke-width: 0.8; stroke-linecap: round"/>
     </g>
     <g id="line2d_4"/>
    </g>
    <g id="xtick_3">
     <g id="line2d_5">
      <path d="M 148.332386 280.826719 
L 148.332386 26.677969 
" clip-path="url(#pf54233bca0)" style="fill: none; stroke: #cccccc; stroke-width: 0.8; stroke-linecap: round"/>
     </g>
     <g id="line2d_6"/>
    </g>
    <g id="xtick_4">
     <g id="line2d_7">
      <path d="M 199.81875 280.826719 
L 199.81875 26.677969 
" clip-path="url(#pf54233bca0)" style="fill: none; stroke: #cccccc; stroke-width: 0.8; stroke-linecap: round"/>
     </g>
     <g id="line2d_8"/>
    </g>
    <g id="xtick_5">
     <g id="line2d_9">
      <path d="M 251.305114 280.826719 
L 251.305114 26.677969 
" clip-path="url(#pf54233bca0)" style="fill: none; stroke: #cccccc; stroke-width: 0.8; stroke-linecap: round"/>
     </g>
     <g id="line2d_10"/>
    </g>
    <g id="xtick_6">
     <g id="line2d_11">
      <path d="M 302.791477 280.826719 
L 302.791477 26.677969 
" clip-path="url(#pf54233bca0)" style="fill: none; stroke: #cccccc; stroke-width: 0.8; stroke-linecap: round"/>
     </g>
     <g id="line2d_12"/>
    </g>
    <g id="xtick_7">
     <g id="line2d_13">
      <path d="M 354.277841 280.826719 
L 354.277841 26.677969 
" clip-path="url(#pf54233bca0)" style="fill: none; stroke: #cccccc; stroke-width: 0.8; stroke-linecap: round"/>
     </g>
     <g id="line2d_14"/>
    </g>
    <g id="text_1">
     <!-- Temperature -->
     <g style="fill: #262626" transform="translate(160.508437 297.444844) scale(0.12 -0.12)">
      <defs>
       <path id="DejaVuSerif-54" d="M 1222 0 
L 1222 331 
L 1819 331 
L 1819 4294 
L 447 4294 
L 447 3566 
L 63 3566 
L 63 4666 
L 4206 4666 
L 4206 3566 
L 3822 3566 
L 3822 4294 
L 2450 4294 
L 2450 331 
L 3047 331 
L 3047 0 
L 1222 0 
z
" transform="scale(0.015625)"/>
       <path id="DejaVuSerif-65" d="M 3469 1600 
L 991 1600 
L 991 1575 
Q 991 903 1244 561 
Q 1497 219 1991 219 
Q 2369 219 2611 417 
Q 2853 616 2950 1006 
L 3413 1006 
Q 3275 459 2904 184 
Q 2534 -91 1931 -91 
Q 1203 -91 761 389 
Q 319 869 319 1663 
Q 319 2450 753 2931 
Q 1188 3413 1894 3413 
Q 2647 3413 3050 2948 
Q 3453 2484 3469 1600 
z
M 2791 1931 
Q 2772 2513 2545 2808 
Q 2319 3103 1894 3103 
Q 1497 3103 1269 2806 
Q 1041 2509 991 1931 
L 2791 1931 
z
" transform="scale(0.015625)"/>
       <path id="DejaVuSerif-6d" d="M 3316 2675 
Q 3481 3041 3739 3227 
Q 3997 3413 4341 3413 
Q 4863 3413 5119 3089 
Q 5375 2766 5375 2113 
L 5375 331 
L 5894 331 
L 5894 0 
L 4300 0 
L 4300 331 
L 4800 331 
L 4800 2047 
Q 4800 2556 4650 2772 
Q 4500 2988 4153 2988 
Q 3769 2988 3567 2697 
Q 3366 2406 3366 1850 
L 3366 331 
L 3866 331 
L 3866 0 
L 2291 0 
L 2291 331 
L 2791 331 
L 2791 2069 
Q 2791 2566 2641 2777 
Q 2491 2988 2144 2988 
Q 1759 2988 1557 2697 
Q 1356 2406 1356 1850 
L 1356 331 
L 1856 331 
L 1856 0 
L 263 0 
L 263 331 
L 781 331 
L 781 2994 
L 231 2994 
L 231 3322 
L 1356 3322 
L 1356 2731 
Q 1516 3063 1762 3238 
Q 2009 3413 2322 3413 
Q 2709 3413 2968 3220 
Q 3228 3028 3316 2675 
z
" transform="scale(0.015625)"/>
       <path id="DejaVuSerif-70" d="M 1313 1825 
L 1313 1497 
Q 1313 897 1542 583 
Q 1772 269 2209 269 
Q 2650 269 2876 622 
Q 3103 975 3103 1663 
Q 3103 2353 2876 2703 
Q 2650 3053 2209 3053 
Q 1772 3053 1542 2737 
Q 1313 2422 1313 1825 
z
M 738 2988 
L 184 2988 
L 184 3322 
L 1313 3322 
L 1313 2803 
Q 1481 3116 1742 3264 
Q 2003 3413 2388 3413 
Q 3000 3413 3387 2928 
Q 3775 2444 3775 1663 
Q 3775 881 3387 395 
Q 3000 -91 2388 -91 
Q 2003 -91 1742 57 
Q 1481 206 1313 519 
L 1313 -997 
L 1856 -997 
L 1856 -1331 
L 184 -1331 
L 184 -997 
L 738 -997 
L 738 2988 
z
" transform="scale(0.015625)"/>
       <path id="DejaVuSerif-72" d="M 3059 3328 
L 3059 2497 
L 2728 2497 
Q 2713 2744 2591 2866 
Q 2469 2988 2234 2988 
Q 1809 2988 1582 2694 
Q 1356 2400 1356 1850 
L 1356 331 
L 2022 331 
L 2022 0 
L 263 0 
L 263 331 
L 781 331 
L 781 2994 
L 231 2994 
L 231 3322 
L 1356 3322 
L 1356 2731 
Q 1525 3078 1790 3245 
Q 2056 3413 2438 3413 
Q 2578 3413 2733 3391 
Q 2888 3369 3059 3328 
z
" transform="scale(0.015625)"/>
       <path id="DejaVuSerif-61" d="M 2547 1044 
L 2547 1747 
L 1806 1747 
Q 1378 1747 1168 1562 
Q 959 1378 959 997 
Q 959 650 1171 447 
Q 1384 244 1747 244 
Q 2106 244 2326 466 
Q 2547 688 2547 1044 
z
M 3122 2075 
L 3122 331 
L 3634 331 
L 3634 0 
L 2547 0 
L 2547 359 
Q 2356 128 2106 18 
Q 1856 -91 1522 -91 
Q 969 -91 644 203 
Q 319 497 319 997 
Q 319 1513 691 1797 
Q 1063 2081 1741 2081 
L 2547 2081 
L 2547 2309 
Q 2547 2688 2317 2895 
Q 2088 3103 1672 3103 
Q 1328 3103 1125 2947 
Q 922 2791 872 2484 
L 575 2484 
L 575 3156 
Q 875 3284 1158 3348 
Q 1441 3413 1709 3413 
Q 2400 3413 2761 3070 
Q 3122 2728 3122 2075 
z
" transform="scale(0.015625)"/>
       <path id="DejaVuSerif-74" d="M 691 2988 
L 184 2988 
L 184 3322 
L 691 3322 
L 691 4353 
L 1269 4353 
L 1269 3322 
L 2350 3322 
L 2350 2988 
L 1269 2988 
L 1269 878 
Q 1269 456 1350 337 
Q 1431 219 1650 219 
Q 1875 219 1978 351 
Q 2081 484 2088 781 
L 2522 781 
Q 2497 328 2275 118 
Q 2053 -91 1600 -91 
Q 1103 -91 897 129 
Q 691 350 691 878 
L 691 2988 
z
" transform="scale(0.015625)"/>
       <path id="DejaVuSerif-75" d="M 2266 3322 
L 3341 3322 
L 3341 331 
L 3884 331 
L 3884 0 
L 2766 0 
L 2766 588 
Q 2606 256 2353 82 
Q 2100 -91 1766 -91 
Q 1213 -91 952 223 
Q 691 538 691 1209 
L 691 2988 
L 172 2988 
L 172 3322 
L 1269 3322 
L 1269 1388 
Q 1269 781 1417 556 
Q 1566 331 1947 331 
Q 2347 331 2556 625 
Q 2766 919 2766 1478 
L 2766 2988 
L 2266 2988 
L 2266 3322 
z
" transform="scale(0.015625)"/>
      </defs>
      <use xlink:href="#DejaVuSerif-54"/>
      <use xlink:href="#DejaVuSerif-65" transform="translate(58.949219 0)"/>
      <use xlink:href="#DejaVuSerif-6d" transform="translate(118.128906 0)"/>
      <use xlink:href="#DejaVuSerif-70" transform="translate(212.953125 0)"/>
      <use xlink:href="#DejaVuSerif-65" transform="translate(276.966797 0)"/>
      <use xlink:href="#DejaVuSerif-72" transform="translate(336.146484 0)"/>
      <use xlink:href="#DejaVuSerif-61" transform="translate(383.949219 0)"/>
      <use xlink:href="#DejaVuSerif-74" transform="translate(443.568359 0)"/>
      <use xlink:href="#DejaVuSerif-75" transform="translate(483.753906 0)"/>
      <use xlink:href="#DejaVuSerif-72" transform="translate(548.158203 0)"/>
      <use xlink:href="#DejaVuSerif-65" transform="translate(595.960938 0)"/>
     </g>
    </g>
   </g>
   <g id="matplotlib.axis_2">
    <g id="ytick_1">
     <g id="line2d_15">
      <path d="M 29.91375 269.274503 
L 369.72375 269.274503 
" clip-path="url(#pf54233bca0)" style="fill: none; stroke: #cccccc; stroke-width: 0.8; stroke-linecap: round"/>
     </g>
     <g id="line2d_16"/>
    </g>
    <g id="ytick_2">
     <g id="line2d_17">
      <path d="M 29.91375 230.767116 
L 369.72375 230.767116 
" clip-path="url(#pf54233bca0)" style="fill: none; stroke: #cccccc; stroke-width: 0.8; stroke-linecap: round"/>
     </g>
     <g id="line2d_18"/>
    </g>
    <g id="ytick_3">
     <g id="line2d_19">
      <path d="M 29.91375 192.25973 
L 369.72375 192.25973 
" clip-path="url(#pf54233bca0)" style="fill: none; stroke: #cccccc; stroke-width: 0.8; stroke-linecap: round"/>
     </g>
     <g id="line2d_20"/>
    </g>
    <g id="ytick_4">
     <g id="line2d_21">
      <path d="M 29.91375 153.752344 
L 369.72375 153.752344 
" clip-path="url(#pf54233bca0)" style="fill: none; stroke: #cccccc; stroke-width: 0.8; stroke-linecap: round"/>
     </g>
     <g id="line2d_22"/>
    </g>
    <g id="ytick_5">
     <g id="line2d_23">
      <path d="M 29.91375 115.244957 
L 369.72375 115.244957 
" clip-path="url(#pf54233bca0)" style="fill: none; stroke: #cccccc; stroke-width: 0.8; stroke-linecap: round"/>
     </g>
     <g id="line2d_24"/>
    </g>
    <g id="ytick_6">
     <g id="line2d_25">
      <path d="M 29.91375 76.737571 
L 369.72375 76.737571 
" clip-path="url(#pf54233bca0)" style="fill: none; stroke: #cccccc; stroke-width: 0.8; stroke-linecap: round"/>
     </g>
     <g id="line2d_26"/>
    </g>
    <g id="ytick_7">
     <g id="line2d_27">
      <path d="M 29.91375 38.230185 
L 369.72375 38.230185 
" clip-path="url(#pf54233bca0)" style="fill: none; stroke: #cccccc; stroke-width: 0.8; stroke-linecap: round"/>
     </g>
     <g id="line2d_28"/>
    </g>
    <g id="text_2">
     <!-- Yield Y(T) -->
     <g style="fill: #262626" transform="translate(19.918125 183.390469) rotate(-90) scale(0.12 -0.12)">
      <defs>
       <path id="DejaVuSerif-59" d="M 1209 0 
L 1209 331 
L 1806 331 
L 1806 2009 
L 366 4331 
L -72 4331 
L -72 4666 
L 1663 4666 
L 1663 4331 
L 1119 4331 
L 2284 2444 
L 3450 4331 
L 2925 4331 
L 2925 4666 
L 4281 4666 
L 4281 4331 
L 3841 4331 
L 2438 2069 
L 2438 331 
L 3034 331 
L 3034 0 
L 1209 0 
z
" transform="scale(0.015625)"/>
       <path id="DejaVuSerif-69" d="M 622 4353 
Q 622 4497 726 4603 
Q 831 4709 978 4709 
Q 1122 4709 1226 4603 
Q 1331 4497 1331 4353 
Q 1331 4206 1228 4103 
Q 1125 4000 978 4000 
Q 831 4000 726 4103 
Q 622 4206 622 4353 
z
M 1356 331 
L 1900 331 
L 1900 0 
L 231 0 
L 231 331 
L 781 331 
L 781 2988 
L 231 2988 
L 231 3322 
L 1356 3322 
L 1356 331 
z
" transform="scale(0.015625)"/>
       <path id="DejaVuSerif-6c" d="M 1313 331 
L 1856 331 
L 1856 0 
L 184 0 
L 184 331 
L 738 331 
L 738 4531 
L 184 4531 
L 184 4863 
L 1313 4863 
L 1313 331 
z
" transform="scale(0.015625)"/>
       <path id="DejaVuSerif-64" d="M 3359 331 
L 3909 331 
L 3909 0 
L 2784 0 
L 2784 519 
Q 2616 206 2355 57 
Q 2094 -91 1709 -91 
Q 1097 -91 708 395 
Q 319 881 319 1663 
Q 319 2444 706 2928 
Q 1094 3413 1709 3413 
Q 2094 3413 2355 3264 
Q 2616 3116 2784 2803 
L 2784 4531 
L 2241 4531 
L 2241 4863 
L 3359 4863 
L 3359 331 
z
M 2784 1497 
L 2784 1825 
Q 2784 2422 2554 2737 
Q 2325 3053 1888 3053 
Q 1444 3053 1217 2703 
Q 991 2353 991 1663 
Q 991 975 1217 622 
Q 1444 269 1888 269 
Q 2325 269 2554 583 
Q 2784 897 2784 1497 
z
" transform="scale(0.015625)"/>
       <path id="DejaVuSerif-20" transform="scale(0.015625)"/>
       <path id="DejaVuSerif-28" d="M 2041 -997 
Q 1281 -656 893 83 
Q 506 822 506 1931 
Q 506 3044 893 3783 
Q 1281 4522 2041 4863 
L 2041 4556 
Q 1559 4225 1350 3623 
Q 1141 3022 1141 1931 
Q 1141 844 1350 242 
Q 1559 -359 2041 -691 
L 2041 -997 
z
" transform="scale(0.015625)"/>
       <path id="DejaVuSerif-29" d="M 453 -997 
L 453 -691 
Q 934 -359 1145 242 
Q 1356 844 1356 1931 
Q 1356 3022 1145 3623 
Q 934 4225 453 4556 
L 453 4863 
Q 1216 4522 1603 3783 
Q 1991 3044 1991 1931 
Q 1991 822 1603 83 
Q 1216 -656 453 -997 
z
" transform="scale(0.015625)"/>
      </defs>
      <use xlink:href="#DejaVuSerif-59"/>
      <use xlink:href="#DejaVuSerif-69" transform="translate(64.265625 0)"/>
      <use xlink:href="#DejaVuSerif-65" transform="translate(96.248047 0)"/>
      <use xlink:href="#DejaVuSerif-6c" transform="translate(155.427734 0)"/>
      <use xlink:href="#DejaVuSerif-64" transform="translate(187.410156 0)"/>
      <use xlink:href="#DejaVuSerif-20" transform="translate(251.423828 0)"/>
      <use xlink:href="#DejaVuSerif-59" transform="translate(283.210938 0)"/>
      <use xlink:href="#DejaVuSerif-28" transform="translate(349.226562 0)"/>
      <use xlink:href="#DejaVuSerif-54" transform="translate(388.240234 0)"/>
      <use xlink:href="#DejaVuSerif-29" transform="translate(454.939453 0)"/>
     </g>
    </g>
   </g>
   <g id="patch_3">
    <path d="M 184.372841 280.826719 
L 215.264659 280.826719 
L 215.264659 26.677969 
L 184.372841 26.677969 
z
" clip-path="url(#pf54233bca0)" style="fill: #f59e0b; opacity: 0.12; stroke: #f59e0b; stroke-linejoin: miter"/>
   </g>
   <g id="line2d_29">
    <path d="M 45.359659 124.871804 
L 51.56907 118.045667 
L 57.77848 111.499577 
L 63.987891 105.233533 
L 70.197302 99.247536 
L 76.406713 93.541585 
L 82.616123 88.115682 
L 88.825534 82.969824 
L 95.034945 78.104014 
L 101.244355 73.51825 
L 107.453766 69.212533 
L 113.663177 65.186862 
L 119.872587 61.441238 
L 126.081998 57.975661 
L 132.291409 54.790131 
L 138.500819 51.884647 
L 144.71023 49.259209 
L 150.919641 46.913819 
L 157.129052 44.848475 
L 163.338462 43.063177 
L 169.547873 41.557926 
L 175.757284 40.332722 
L 181.966694 39.387565 
L 188.176105 38.722454 
L 194.385516 38.33739 
L 200.594926 38.232373 
L 206.804337 38.407402 
L 213.013748 38.862477 
L 219.223158 39.5976 
L 225.432569 40.612769 
L 231.64198 41.907985 
L 237.85139 43.483247 
L 244.060801 45.338556 
L 250.270212 47.473912 
L 256.479623 49.889314 
L 262.689033 52.584763 
L 268.898444 55.560259 
L 275.107855 58.815801 
L 281.317265 62.35139 
L 287.526676 66.167026 
L 293.736087 70.262708 
L 299.945497 74.638437 
L 306.154908 79.294212 
L 312.364319 84.230034 
L 318.573729 89.445903 
L 324.78314 94.941819 
L 330.992551 100.717781 
L 337.201962 106.773789 
L 343.411372 113.109845 
L 349.620783 119.725947 
L 354.277841 124.871804 
L 354.277841 124.871804 
" clip-path="url(#pf54233bca0)" style="fill: none; stroke: #2563eb; stroke-width: 2.5; stroke-linecap: round"/>
   </g>
   <g id="line2d_30">
    <path d="M 29.91375 269.274503 
L 369.72375 269.274503 
" clip-path="url(#pf54233bca0)" style="fill: none; stroke: #000000; stroke-width: 0.5; stroke-linecap: round"/>
   </g>
   <g id="patch_4">
    <path d="M 29.91375 280.826719 
L 29.91375 26.677969 
" style="fill: none; stroke: #cccccc; stroke-linejoin: miter; stroke-linecap: square"/>
   </g>
   <g id="patch_5">
    <path d="M 369.72375 280.826719 
L 369.72375 26.677969 
" style="fill: none; stroke: #cccccc; stroke-linejoin: miter; stroke-linecap: square"/>
   </g>
   <g id="patch_6">
    <path d="M 29.91375 280.826719 
L 369.72375 280.826719 
" style="fill: none; stroke: #cccccc; stroke-linejoin: miter; stroke-linecap: square"/>
   </g>
   <g id="patch_7">
    <path d="M 29.91375 26.677969 
L 369.72375 26.677969 
" style="fill: none; stroke: #cccccc; stroke-linejoin: miter; stroke-linecap: square"/>
   </g>
   <g id="patch_8">
    <path d="M 252.853082 56.850733 
Q 227.27949 47.871751 202.760799 39.263149 
" style="fill: none; stroke: #dc2626; stroke-linecap: round"/>
    <path d="M 205.872376 42.475327 
L 202.760799 39.263149 
L 207.197488 38.701194 
" style="fill: none; stroke: #dc2626; stroke-linecap: round"/>
   </g>
   <g id="text_3">
    <!-- Optimal? -->
    <g style="fill: #dc2626" transform="translate(251.305114 67.110724) scale(0.1 -0.1)">
     <defs>
      <path id="DejaVuSerif-Italic-4f" d="M 2219 244 
Q 2984 244 3478 770 
Q 3972 1297 4172 2328 
Q 4372 3363 4084 3889 
Q 3797 4416 3031 4416 
Q 2263 4416 1769 3889 
Q 1275 3363 1075 2328 
Q 875 1297 1162 770 
Q 1450 244 2219 244 
z
M 2153 -91 
Q 1678 -91 1311 65 
Q 944 222 700 525 
Q 419 875 334 1319 
Q 250 1763 359 2328 
Q 469 2894 725 3339 
Q 981 3784 1400 4134 
Q 1766 4441 2191 4595 
Q 2616 4750 3097 4750 
Q 4113 4750 4608 4084 
Q 5103 3419 4891 2328 
Q 4781 1769 4522 1320 
Q 4263 872 3847 525 
Q 3481 219 3056 64 
Q 2631 -91 2153 -91 
z
" transform="scale(0.015625)"/>
      <path id="DejaVuSerif-Italic-70" d="M 1466 1825 
L 1400 1497 
Q 1353 1250 1353 1053 
Q 1353 769 1453 581 
Q 1622 269 2059 269 
Q 2500 269 2795 622 
Q 3091 975 3225 1663 
Q 3284 1978 3284 2225 
Q 3284 2513 3200 2703 
Q 3041 3053 2600 3053 
Q 2163 3053 1872 2737 
Q 1581 2422 1466 1825 
z
M 1116 2988 
L 563 2988 
L 628 3322 
L 1756 3322 
L 1656 2803 
Q 1884 3116 2175 3264 
Q 2466 3413 2850 3413 
Q 3463 3413 3753 2928 
Q 3947 2609 3947 2163 
Q 3947 1928 3897 1663 
Q 3744 881 3262 395 
Q 2781 -91 2169 -91 
Q 1784 -91 1551 57 
Q 1319 206 1213 519 
L 850 -1331 
L 275 -1331 
L 1116 2988 
z
" transform="scale(0.015625)"/>
      <path id="DejaVuSerif-Italic-74" d="M 856 2988 
L 350 2988 
L 416 3322 
L 922 3322 
L 1122 4353 
L 1700 4353 
L 1500 3322 
L 2581 3322 
L 2516 2988 
L 1434 2988 
L 1025 878 
Q 978 631 978 488 
Q 978 388 1000 338 
Q 1059 219 1278 219 
Q 1503 219 1633 351 
Q 1763 484 1825 781 
L 2259 781 
Q 2147 328 1884 118 
Q 1622 -91 1169 -91 
Q 672 -91 506 131 
Q 406 266 406 516 
Q 406 675 447 878 
L 856 2988 
z
" transform="scale(0.015625)"/>
      <path id="DejaVuSerif-Italic-69" d="M 1009 4353 
Q 1038 4497 1163 4603 
Q 1288 4709 1434 4709 
Q 1578 4709 1663 4603 
Q 1728 4522 1728 4422 
Q 1728 4388 1719 4353 
Q 1691 4206 1567 4103 
Q 1444 4000 1297 4000 
Q 1150 4000 1066 4103 
Q 1003 4181 1003 4281 
Q 1003 4316 1009 4353 
z
M 963 331 
L 1506 331 
L 1444 0 
L 325 0 
L 903 2988 
L 353 2988 
L 419 3322 
L 1544 3322 
L 963 331 
z
" transform="scale(0.015625)"/>
      <path id="DejaVuSerif-Italic-6d" d="M 3503 2675 
Q 3741 3041 4034 3227 
Q 4328 3413 4672 3413 
Q 5194 3413 5388 3088 
Q 5503 2894 5503 2578 
Q 5503 2372 5453 2113 
L 5106 331 
L 5625 331 
L 5563 0 
L 4469 0 
L 4866 2047 
Q 4913 2291 4913 2466 
Q 4913 2659 4856 2772 
Q 4750 2988 4403 2988 
Q 4019 2988 3761 2697 
Q 3503 2406 3394 1850 
L 3034 0 
L 2459 0 
L 2863 2069 
Q 2906 2303 2906 2472 
Q 2906 2666 2850 2775 
Q 2741 2988 2394 2988 
Q 2009 2988 1751 2697 
Q 1494 2406 1384 1850 
L 1025 0 
L 450 0 
L 1031 2994 
L 481 2994 
L 544 3322 
L 1669 3322 
L 1556 2731 
Q 1778 3063 2059 3238 
Q 2341 3413 2653 3413 
Q 3041 3413 3262 3220 
Q 3484 3028 3503 2675 
z
" transform="scale(0.015625)"/>
      <path id="DejaVuSerif-Italic-61" d="M 2325 519 
Q 1909 -91 1238 -91 
Q 688 -91 409 281 
Q 216 544 216 919 
Q 216 1078 250 1256 
Q 463 2359 1231 2928 
Q 1884 3413 2675 3413 
Q 3206 3413 3388 3322 
L 2806 331 
L 3300 331 
L 3238 0 
L 2225 0 
L 2325 519 
z
M 822 938 
Q 822 269 1469 269 
Q 1863 269 2130 583 
Q 2397 897 2516 1497 
L 2806 3003 
L 2806 3003 
Q 2806 3094 2556 3094 
Q 1956 3094 1491 2625 
Q 1028 2153 863 1297 
Q 822 1097 822 938 
z
" transform="scale(0.015625)"/>
      <path id="DejaVuSerif-Italic-6c" d="M 903 331 
L 1447 331 
L 1384 0 
L 266 0 
L 1147 4531 
L 594 4531 
L 656 4863 
L 1784 4863 
L 903 331 
z
" transform="scale(0.015625)"/>
      <path id="DejaVuSerif-Italic-3f" d="M 797 29 
Q 700 150 734 325 
Q 769 500 912 622 
Q 1056 744 1234 744 
Q 1406 744 1504 622 
Q 1603 500 1569 325 
Q 1538 153 1391 31 
Q 1244 -91 1072 -91 
Q 894 -91 797 29 
z
M 847 4459 
Q 1209 4606 1521 4678 
Q 1834 4750 2097 4750 
Q 2791 4750 3127 4415 
Q 3463 4081 3353 3513 
Q 3238 2931 2822 2562 
Q 2406 2194 1678 2034 
L 1522 1241 
L 1138 1241 
L 1338 2266 
Q 1916 2400 2258 2715 
Q 2600 3031 2694 3519 
Q 2778 3947 2597 4194 
Q 2416 4441 2022 4441 
Q 1666 4441 1400 4236 
Q 1134 4031 994 3647 
L 691 3647 
L 847 4459 
z
" transform="scale(0.015625)"/>
     </defs>
     <use xlink:href="#DejaVuSerif-Italic-4f"/>
     <use xlink:href="#DejaVuSerif-Italic-70" transform="translate(81.982422 0)"/>
     <use xlink:href="#DejaVuSerif-Italic-74" transform="translate(145.996094 0)"/>
     <use xlink:href="#DejaVuSerif-Italic-69" transform="translate(186.181641 0)"/>
     <use xlink:href="#DejaVuSerif-Italic-6d" transform="translate(218.164062 0)"/>
     <use xlink:href="#DejaVuSerif-Italic-61" transform="translate(312.988281 0)"/>
     <use xlink:href="#DejaVuSerif-Italic-6c" transform="translate(372.607422 0)"/>
     <use xlink:href="#DejaVuSerif-Italic-3f" transform="translate(404.589844 0)"/>
    </g>
   </g>
   <g id="text_4">
    <!-- Yield vs Temperature -->
    <g style="fill: #262626" transform="translate(123.002969 20.677969) scale(0.13 -0.13)">
     <defs>
      <path id="DejaVuSerif-Bold-59" d="M 1100 0 
L 1100 378 
L 1728 378 
L 1728 1931 
L 341 4288 
L -56 4288 
L -56 4666 
L 2181 4666 
L 2181 4288 
L 1663 4288 
L 2713 2509 
L 3756 4288 
L 3291 4288 
L 3291 4666 
L 4628 4666 
L 4628 4288 
L 4231 4288 
L 2938 2094 
L 2938 378 
L 3566 378 
L 3566 0 
L 1100 0 
z
" transform="scale(0.015625)"/>
      <path id="DejaVuSerif-Bold-69" d="M 588 4263 
Q 588 4516 763 4689 
Q 938 4863 1191 4863 
Q 1438 4863 1611 4689 
Q 1784 4516 1784 4263 
Q 1784 4016 1611 3842 
Q 1438 3669 1191 3669 
Q 938 3669 763 3841 
Q 588 4013 588 4263 
z
M 1797 378 
L 2272 378 
L 2272 0 
L 219 0 
L 219 378 
L 691 378 
L 691 2944 
L 219 2944 
L 219 3322 
L 1797 3322 
L 1797 378 
z
" transform="scale(0.015625)"/>
      <path id="DejaVuSerif-Bold-65" d="M 2566 1875 
Q 2566 2531 2444 2795 
Q 2322 3059 2028 3059 
Q 1744 3059 1620 2800 
Q 1497 2541 1497 1931 
L 1497 1875 
L 2566 1875 
z
M 3781 1503 
L 1497 1503 
L 1497 1478 
Q 1497 834 1690 548 
Q 1884 263 2316 263 
Q 2675 263 2897 453 
Q 3119 644 3181 1006 
L 3700 1006 
Q 3566 441 3166 175 
Q 2766 -91 2047 -91 
Q 1184 -91 723 364 
Q 263 819 263 1663 
Q 263 2488 734 2950 
Q 1206 3413 2047 3413 
Q 2872 3413 3312 2927 
Q 3753 2441 3781 1503 
z
" transform="scale(0.015625)"/>
      <path id="DejaVuSerif-Bold-6c" d="M 1797 378 
L 2272 378 
L 2272 0 
L 219 0 
L 219 378 
L 691 378 
L 691 4488 
L 219 4488 
L 219 4863 
L 1797 4863 
L 1797 378 
z
" transform="scale(0.015625)"/>
      <path id="DejaVuSerif-Bold-64" d="M 2747 1497 
L 2747 1825 
Q 2747 2406 2597 2665 
Q 2447 2925 2119 2925 
Q 1775 2925 1636 2651 
Q 1497 2378 1497 1663 
Q 1497 947 1637 672 
Q 1778 397 2119 397 
Q 2447 397 2597 656 
Q 2747 916 2747 1497 
z
M 3853 378 
L 4325 378 
L 4325 0 
L 2747 0 
L 2747 422 
Q 2606 163 2367 36 
Q 2128 -91 1778 -91 
Q 1072 -91 667 378 
Q 263 847 263 1663 
Q 263 2481 667 2947 
Q 1072 3413 1778 3413 
Q 2128 3413 2367 3286 
Q 2606 3159 2747 2900 
L 2747 4488 
L 2272 4488 
L 2272 4863 
L 3853 4863 
L 3853 378 
z
" transform="scale(0.015625)"/>
      <path id="DejaVuSerif-Bold-20" transform="scale(0.015625)"/>
      <path id="DejaVuSerif-Bold-76" d="M 1428 0 
L 250 2944 
L -116 2944 
L -116 3322 
L 1791 3322 
L 1791 2944 
L 1388 2944 
L 2228 844 
L 3066 2944 
L 2631 2944 
L 2631 3322 
L 3878 3322 
L 3878 2944 
L 3494 2944 
L 2316 0 
L 1428 0 
z
" transform="scale(0.015625)"/>
      <path id="DejaVuSerif-Bold-73" d="M 300 97 
L 300 1025 
L 653 1025 
Q 697 653 931 458 
Q 1166 263 1569 263 
Q 1906 263 2086 380 
Q 2266 497 2266 716 
Q 2266 916 2152 1025 
Q 2038 1134 1709 1216 
L 1253 1331 
Q 738 1459 506 1698 
Q 275 1938 275 2344 
Q 275 2884 650 3148 
Q 1025 3413 1806 3413 
Q 2100 3413 2433 3364 
Q 2766 3316 3169 3213 
L 3169 2375 
L 2816 2375 
Q 2788 2716 2573 2887 
Q 2359 3059 1959 3059 
Q 1622 3059 1448 2951 
Q 1275 2844 1275 2638 
Q 1275 2469 1375 2372 
Q 1475 2275 1734 2209 
L 2188 2094 
Q 2841 1928 3091 1684 
Q 3341 1441 3341 1006 
Q 3341 444 2939 176 
Q 2538 -91 1691 -91 
Q 1381 -91 1034 -44 
Q 688 3 300 97 
z
" transform="scale(0.015625)"/>
      <path id="DejaVuSerif-Bold-54" d="M 1159 0 
L 1159 378 
L 1778 378 
L 1778 4238 
L 500 4238 
L 500 3500 
L 72 3500 
L 72 4666 
L 4697 4666 
L 4697 3500 
L 4275 3500 
L 4275 4238 
L 2988 4238 
L 2988 378 
L 3609 378 
L 3609 0 
L 1159 0 
z
" transform="scale(0.015625)"/>
      <path id="DejaVuSerif-Bold-6d" d="M 3884 2778 
Q 4116 3109 4384 3261 
Q 4653 3413 5013 3413 
Q 5584 3413 5867 3089 
Q 6150 2766 6150 2113 
L 6150 378 
L 6625 378 
L 6625 0 
L 4647 0 
L 4647 378 
L 5044 378 
L 5044 1947 
Q 5044 2569 4948 2731 
Q 4853 2894 4594 2894 
Q 4300 2894 4137 2667 
Q 3975 2441 3975 2022 
L 3975 378 
L 4372 378 
L 4372 0 
L 2472 0 
L 2472 378 
L 2869 378 
L 2869 1947 
Q 2869 2569 2772 2731 
Q 2675 2894 2419 2894 
Q 2122 2894 1959 2667 
Q 1797 2441 1797 2022 
L 1797 378 
L 2194 378 
L 2194 0 
L 219 0 
L 219 378 
L 691 378 
L 691 2944 
L 219 2944 
L 219 3322 
L 1797 3322 
L 1797 2853 
Q 1991 3144 2241 3278 
Q 2491 3413 2834 3413 
Q 3241 3413 3494 3258 
Q 3747 3103 3884 2778 
z
" transform="scale(0.015625)"/>
      <path id="DejaVuSerif-Bold-70" d="M 1728 1825 
L 1728 1497 
Q 1728 916 1876 656 
Q 2025 397 2356 397 
Q 2697 397 2836 672 
Q 2975 947 2975 1663 
Q 2975 2378 2836 2651 
Q 2697 2925 2356 2925 
Q 2025 2925 1876 2665 
Q 1728 2406 1728 1825 
z
M 622 2944 
L 147 2944 
L 147 3322 
L 1728 3322 
L 1728 2900 
Q 1869 3159 2106 3286 
Q 2344 3413 2694 3413 
Q 3403 3413 3811 2945 
Q 4219 2478 4219 1663 
Q 4219 847 3811 378 
Q 3403 -91 2694 -91 
Q 2344 -91 2106 36 
Q 1869 163 1728 422 
L 1728 -953 
L 2241 -953 
L 2241 -1331 
L 147 -1331 
L 147 -953 
L 622 -953 
L 622 2944 
z
" transform="scale(0.015625)"/>
      <path id="DejaVuSerif-Bold-72" d="M 3438 3359 
L 3438 2369 
L 3084 2369 
Q 3066 2634 2941 2764 
Q 2816 2894 2578 2894 
Q 2216 2894 2006 2575 
Q 1797 2256 1797 1691 
L 1797 378 
L 2400 378 
L 2400 0 
L 219 0 
L 219 378 
L 691 378 
L 691 2944 
L 184 2944 
L 184 3322 
L 1797 3322 
L 1797 2731 
Q 1959 3078 2226 3245 
Q 2494 3413 2881 3413 
Q 2978 3413 3117 3398 
Q 3256 3384 3438 3359 
z
" transform="scale(0.015625)"/>
      <path id="DejaVuSerif-Bold-61" d="M 3525 2041 
L 3525 378 
L 4000 378 
L 4000 0 
L 2419 0 
L 2419 422 
Q 2200 159 1931 34 
Q 1663 -91 1319 -91 
Q 809 -91 536 182 
Q 263 456 263 966 
Q 263 1525 655 1803 
Q 1047 2081 1838 2081 
L 2419 2081 
L 2419 2278 
Q 2419 2681 2228 2873 
Q 2038 3066 1638 3066 
Q 1306 3066 1126 2930 
Q 947 2794 872 2484 
L 519 2484 
L 519 3200 
Q 816 3306 1134 3359 
Q 1453 3413 1806 3413 
Q 2697 3413 3111 3081 
Q 3525 2750 3525 2041 
z
M 2419 1044 
L 2419 1709 
L 2003 1709 
Q 1694 1709 1528 1540 
Q 1363 1372 1363 1056 
Q 1363 741 1483 584 
Q 1603 428 1850 428 
Q 2106 428 2262 597 
Q 2419 766 2419 1044 
z
" transform="scale(0.015625)"/>
      <path id="DejaVuSerif-Bold-74" d="M 634 2944 
L 153 2944 
L 153 3322 
L 634 3322 
L 634 4353 
L 1741 4353 
L 1741 3322 
L 2663 3322 
L 2663 2944 
L 1741 2944 
L 1741 909 
Q 1741 475 1809 369 
Q 1878 263 2059 263 
Q 2259 263 2356 397 
Q 2453 531 2459 813 
L 2925 813 
Q 2897 313 2651 111 
Q 2406 -91 1806 -91 
Q 1122 -91 878 123 
Q 634 338 634 909 
L 634 2944 
z
" transform="scale(0.015625)"/>
      <path id="DejaVuSerif-Bold-75" d="M 3963 3322 
L 3963 378 
L 4434 378 
L 4434 0 
L 2853 0 
L 2853 469 
Q 2656 172 2400 40 
Q 2144 -91 1753 -91 
Q 1194 -91 908 239 
Q 622 569 622 1209 
L 622 2944 
L 147 2944 
L 147 3322 
L 1728 3322 
L 1728 1381 
Q 1728 763 1831 595 
Q 1934 428 2209 428 
Q 2544 428 2698 675 
Q 2853 922 2853 1459 
L 2853 2944 
L 2450 2944 
L 2450 3322 
L 3963 3322 
z
" transform="scale(0.015625)"/>
     </defs>
     <use xlink:href="#DejaVuSerif-Bold-59"/>
     <use xlink:href="#DejaVuSerif-Bold-69" transform="translate(69.636719 0)"/>
     <use xlink:href="#DejaVuSerif-Bold-65" transform="translate(107.625 0)"/>
     <use xlink:href="#DejaVuSerif-Bold-6c" transform="translate(171.248047 0)"/>
     <use xlink:href="#DejaVuSerif-Bold-64" transform="translate(209.236328 0)"/>
     <use xlink:href="#DejaVuSerif-Bold-20" transform="translate(279.158203 0)"/>
     <use xlink:href="#DejaVuSerif-Bold-76" transform="translate(313.972656 0)"/>
     <use xlink:href="#DejaVuSerif-Bold-73" transform="translate(372.078125 0)"/>
     <use xlink:href="#DejaVuSerif-Bold-20" transform="translate(428.376953 0)"/>
     <use xlink:href="#DejaVuSerif-Bold-54" transform="translate(463.191406 0)"/>
     <use xlink:href="#DejaVuSerif-Bold-65" transform="translate(526.105469 0)"/>
     <use xlink:href="#DejaVuSerif-Bold-6d" transform="translate(589.728516 0)"/>
     <use xlink:href="#DejaVuSerif-Bold-70" transform="translate(695.539062 0)"/>
     <use xlink:href="#DejaVuSerif-Bold-65" transform="translate(765.460938 0)"/>
     <use xlink:href="#DejaVuSerif-Bold-72" transform="translate(829.083984 0)"/>
     <use xlink:href="#DejaVuSerif-Bold-61" transform="translate(881.769531 0)"/>
     <use xlink:href="#DejaVuSerif-Bold-74" transform="translate(946.564453 0)"/>
     <use xlink:href="#DejaVuSerif-Bold-75" transform="translate(992.755859 0)"/>
     <use xlink:href="#DejaVuSerif-Bold-72" transform="translate(1065.460938 0)"/>
     <use xlink:href="#DejaVuSerif-Bold-65" transform="translate(1118.146484 0)"/>
    </g>
   </g>
   <g id="line2d_31">
    <defs>
     <path id="m129e0a6000" d="M 0 -7.5 
L -1.683855 -2.317627 
L -7.132924 -2.317627 
L -2.724534 0.885255 
L -4.408389 6.067627 
L -0 2.864745 
L 4.408389 6.067627 
L 2.724534 0.885255 
L 7.132924 -2.317627 
L 1.683855 -2.317627 
z
" style="stroke: #dc2626; stroke-linejoin: bevel"/>
    </defs>
    <g clip-path="url(#pf54233bca0)">
     <use xlink:href="#m129e0a6000" x="199.81875" y="38.230185" style="fill: #dc2626; stroke: #dc2626; stroke-linejoin: bevel"/>
    </g>
   </g>
   <g id="legend_1">
    <g id="patch_9">
     <path d="M 37.11375 39.956719 
L 53.11375 39.956719 
L 53.11375 34.356719 
L 37.11375 34.356719 
z
" style="fill: #f59e0b; opacity: 0.12; stroke: #f59e0b; stroke-linejoin: miter"/>
    </g>
    <g id="text_5">
     <!-- Tolerance band -->
     <g style="fill: #262626" transform="translate(59.51375 39.956719) scale(0.08 -0.08)">
      <defs>
       <path id="DejaVuSerif-6f" d="M 1925 219 
Q 2388 219 2623 584 
Q 2859 950 2859 1663 
Q 2859 2375 2623 2739 
Q 2388 3103 1925 3103 
Q 1463 3103 1227 2739 
Q 991 2375 991 1663 
Q 991 950 1228 584 
Q 1466 219 1925 219 
z
M 1925 -91 
Q 1200 -91 759 389 
Q 319 869 319 1663 
Q 319 2456 758 2934 
Q 1197 3413 1925 3413 
Q 2653 3413 3092 2934 
Q 3531 2456 3531 1663 
Q 3531 869 3092 389 
Q 2653 -91 1925 -91 
z
" transform="scale(0.015625)"/>
       <path id="DejaVuSerif-6e" d="M 263 0 
L 263 331 
L 781 331 
L 781 2988 
L 231 2988 
L 231 3322 
L 1356 3322 
L 1356 2731 
Q 1516 3069 1770 3241 
Q 2025 3413 2363 3413 
Q 2913 3413 3172 3097 
Q 3431 2781 3431 2113 
L 3431 331 
L 3944 331 
L 3944 0 
L 2356 0 
L 2356 331 
L 2853 331 
L 2853 1931 
Q 2853 2541 2703 2767 
Q 2553 2994 2175 2994 
Q 1775 2994 1565 2701 
Q 1356 2409 1356 1850 
L 1356 331 
L 1856 331 
L 1856 0 
L 263 0 
z
" transform="scale(0.015625)"/>
       <path id="DejaVuSerif-63" d="M 3291 997 
Q 3169 466 2822 187 
Q 2475 -91 1925 -91 
Q 1200 -91 759 389 
Q 319 869 319 1663 
Q 319 2459 759 2936 
Q 1200 3413 1925 3413 
Q 2241 3413 2553 3339 
Q 2866 3266 3181 3116 
L 3181 2266 
L 2847 2266 
Q 2781 2703 2561 2903 
Q 2341 3103 1931 3103 
Q 1466 3103 1228 2742 
Q 991 2381 991 1663 
Q 991 944 1227 581 
Q 1463 219 1931 219 
Q 2303 219 2525 412 
Q 2747 606 2828 997 
L 3291 997 
z
" transform="scale(0.015625)"/>
       <path id="DejaVuSerif-62" d="M 738 331 
L 738 4531 
L 184 4531 
L 184 4863 
L 1313 4863 
L 1313 2803 
Q 1481 3116 1742 3264 
Q 2003 3413 2388 3413 
Q 3000 3413 3387 2928 
Q 3775 2444 3775 1663 
Q 3775 881 3387 395 
Q 3000 -91 2388 -91 
Q 2003 -91 1742 57 
Q 1481 206 1313 519 
L 1313 0 
L 184 0 
L 184 331 
L 738 331 
z
M 1313 1497 
Q 1313 897 1542 583 
Q 1772 269 2209 269 
Q 2650 269 2876 622 
Q 3103 975 3103 1663 
Q 3103 2353 2876 2703 
Q 2650 3053 2209 3053 
Q 1772 3053 1542 2737 
Q 1313 2422 1313 1825 
L 1313 1497 
z
" transform="scale(0.015625)"/>
      </defs>
      <use xlink:href="#DejaVuSerif-54"/>
      <use xlink:href="#DejaVuSerif-6f" transform="translate(58.949219 0)"/>
      <use xlink:href="#DejaVuSerif-6c" transform="translate(119.154297 0)"/>
      <use xlink:href="#DejaVuSerif-65" transform="translate(151.136719 0)"/>
      <use xlink:href="#DejaVuSerif-72" transform="translate(210.316406 0)"/>
      <use xlink:href="#DejaVuSerif-61" transform="translate(258.119141 0)"/>
      <use xlink:href="#DejaVuSerif-6e" transform="translate(317.738281 0)"/>
      <use xlink:href="#DejaVuSerif-63" transform="translate(382.142578 0)"/>
      <use xlink:href="#DejaVuSerif-65" transform="translate(438.148438 0)"/>
      <use xlink:href="#DejaVuSerif-20" transform="translate(497.328125 0)"/>
      <use xlink:href="#DejaVuSerif-62" transform="translate(529.115234 0)"/>
      <use xlink:href="#DejaVuSerif-61" transform="translate(593.128906 0)"/>
      <use xlink:href="#DejaVuSerif-6e" transform="translate(652.748047 0)"/>
      <use xlink:href="#DejaVuSerif-64" transform="translate(717.152344 0)"/>
     </g>
    </g>
   </g>
  </g>
  <g id="axes_2">
   <g id="patch_10">
    <path d="M 417.54375 280.826719 
L 757.35375 280.826719 
L 757.35375 26.677969 
L 417.54375 26.677969 
z
" style="fill: #ffffff"/>
   </g>
   <g id="matplotlib.axis_3">
    <g id="xtick_8">
     <g id="line2d_32">
      <path d="M 432.989659 280.826719 
L 432.989659 26.677969 
" clip-path="url(#p3b13639d38)" style="fill: none; stroke: #cccccc; stroke-width: 0.8; stroke-linecap: round"/>
     </g>
     <g id="line2d_33"/>
    </g>
    <g id="xtick_9">
     <g id="line2d_34">
      <path d="M 484.476023 280.826719 
L 484.476023 26.677969 
" clip-path="url(#p3b13639d38)" style="fill: none; stroke: #cccccc; stroke-width: 0.8; stroke-linecap: round"/>
     </g>
     <g id="line2d_35"/>
    </g>
    <g id="xtick_10">
     <g id="line2d_36">
      <path d="M 535.962386 280.826719 
L 535.962386 26.677969 
" clip-path="url(#p3b13639d38)" style="fill: none; stroke: #cccccc; stroke-width: 0.8; stroke-linecap: round"/>
     </g>
     <g id="line2d_37"/>
    </g>
    <g id="xtick_11">
     <g id="line2d_38">
      <path d="M 587.44875 280.826719 
L 587.44875 26.677969 
" clip-path="url(#p3b13639d38)" style="fill: none; stroke: #cccccc; stroke-width: 0.8; stroke-linecap: round"/>
     </g>
     <g id="line2d_39"/>
    </g>
    <g id="xtick_12">
     <g id="line2d_40">
      <path d="M 638.935114 280.826719 
L 638.935114 26.677969 
" clip-path="url(#p3b13639d38)" style="fill: none; stroke: #cccccc; stroke-width: 0.8; stroke-linecap: round"/>
     </g>
     <g id="line2d_41"/>
    </g>
    <g id="xtick_13">
     <g id="line2d_42">
      <path d="M 690.421477 280.826719 
L 690.421477 26.677969 
" clip-path="url(#p3b13639d38)" style="fill: none; stroke: #cccccc; stroke-width: 0.8; stroke-linecap: round"/>
     </g>
     <g id="line2d_43"/>
    </g>
    <g id="xtick_14">
     <g id="line2d_44">
      <path d="M 741.907841 280.826719 
L 741.907841 26.677969 
" clip-path="url(#p3b13639d38)" style="fill: none; stroke: #cccccc; stroke-width: 0.8; stroke-linecap: round"/>
     </g>
     <g id="line2d_45"/>
    </g>
    <g id="text_6">
     <!-- Temperature -->
     <g style="fill: #262626" transform="translate(548.138438 297.444844) scale(0.12 -0.12)">
      <use xlink:href="#DejaVuSerif-54"/>
      <use xlink:href="#DejaVuSerif-65" transform="translate(58.949219 0)"/>
      <use xlink:href="#DejaVuSerif-6d" transform="translate(118.128906 0)"/>
      <use xlink:href="#DejaVuSerif-70" transform="translate(212.953125 0)"/>
      <use xlink:href="#DejaVuSerif-65" transform="translate(276.966797 0)"/>
      <use xlink:href="#DejaVuSerif-72" transform="translate(336.146484 0)"/>
      <use xlink:href="#DejaVuSerif-61" transform="translate(383.949219 0)"/>
      <use xlink:href="#DejaVuSerif-74" transform="translate(443.568359 0)"/>
      <use xlink:href="#DejaVuSerif-75" transform="translate(483.753906 0)"/>
      <use xlink:href="#DejaVuSerif-72" transform="translate(548.158203 0)"/>
      <use xlink:href="#DejaVuSerif-65" transform="translate(595.960938 0)"/>
     </g>
    </g>
   </g>
   <g id="matplotlib.axis_4">
    <g id="ytick_8">
     <g id="line2d_46">
      <path d="M 417.54375 269.274503 
L 757.35375 269.274503 
" clip-path="url(#p3b13639d38)" style="fill: none; stroke: #cccccc; stroke-width: 0.8; stroke-linecap: round"/>
     </g>
     <g id="line2d_47"/>
    </g>
    <g id="ytick_9">
     <g id="line2d_48">
      <path d="M 417.54375 230.767116 
L 757.35375 230.767116 
" clip-path="url(#p3b13639d38)" style="fill: none; stroke: #cccccc; stroke-width: 0.8; stroke-linecap: round"/>
     </g>
     <g id="line2d_49"/>
    </g>
    <g id="ytick_10">
     <g id="line2d_50">
      <path d="M 417.54375 192.25973 
L 757.35375 192.25973 
" clip-path="url(#p3b13639d38)" style="fill: none; stroke: #cccccc; stroke-width: 0.8; stroke-linecap: round"/>
     </g>
     <g id="line2d_51"/>
    </g>
    <g id="ytick_11">
     <g id="line2d_52">
      <path d="M 417.54375 153.752344 
L 757.35375 153.752344 
" clip-path="url(#p3b13639d38)" style="fill: none; stroke: #cccccc; stroke-width: 0.8; stroke-linecap: round"/>
     </g>
     <g id="line2d_53"/>
    </g>
    <g id="ytick_12">
     <g id="line2d_54">
      <path d="M 417.54375 115.244957 
L 757.35375 115.244957 
" clip-path="url(#p3b13639d38)" style="fill: none; stroke: #cccccc; stroke-width: 0.8; stroke-linecap: round"/>
     </g>
     <g id="line2d_55"/>
    </g>
    <g id="ytick_13">
     <g id="line2d_56">
      <path d="M 417.54375 76.737571 
L 757.35375 76.737571 
" clip-path="url(#p3b13639d38)" style="fill: none; stroke: #cccccc; stroke-width: 0.8; stroke-linecap: round"/>
     </g>
     <g id="line2d_57"/>
    </g>
    <g id="ytick_14">
     <g id="line2d_58">
      <path d="M 417.54375 38.230185 
L 757.35375 38.230185 
" clip-path="url(#p3b13639d38)" style="fill: none; stroke: #cccccc; stroke-width: 0.8; stroke-linecap: round"/>
     </g>
     <g id="line2d_59"/>
    </g>
    <g id="text_7">
     <!-- Y'(T) -->
     <g style="fill: #262626" transform="translate(407.548125 168.046406) rotate(-90) scale(0.12 -0.12)">
      <defs>
       <path id="DejaVuSerif-27" d="M 1125 4666 
L 1125 2931 
L 628 2931 
L 628 4666 
L 1125 4666 
z
" transform="scale(0.015625)"/>
      </defs>
      <use xlink:href="#DejaVuSerif-59"/>
      <use xlink:href="#DejaVuSerif-27" transform="translate(66.015625 0)"/>
      <use xlink:href="#DejaVuSerif-28" transform="translate(93.505859 0)"/>
      <use xlink:href="#DejaVuSerif-54" transform="translate(132.519531 0)"/>
      <use xlink:href="#DejaVuSerif-29" transform="translate(199.21875 0)"/>
     </g>
    </g>
   </g>
   <g id="FillBetweenPolyCollection_1">
    <defs>
     <path id="m86b1143b2d" d="M 432.989659 -156.988125 
L 432.989659 -272.510284 
L 434.542012 -271.349257 
L 436.094364 -270.188231 
L 437.646717 -269.027204 
L 439.19907 -267.866177 
L 440.751422 -266.70515 
L 442.303775 -265.544124 
L 443.856128 -264.383097 
L 445.40848 -263.22207 
L 446.960833 -262.061044 
L 448.513186 -260.900017 
L 450.065538 -259.73899 
L 451.617891 -258.577963 
L 453.170244 -257.416937 
L 454.722597 -256.25591 
L 456.274949 -255.094883 
L 457.827302 -253.933856 
L 459.379655 -252.77283 
L 460.932007 -251.611803 
L 462.48436 -250.450776 
L 464.036713 -249.28975 
L 465.589065 -248.128723 
L 467.141418 -246.967696 
L 468.693771 -245.806669 
L 470.246123 -244.645643 
L 471.798476 -243.484616 
L 473.350829 -242.323589 
L 474.903181 -241.162563 
L 476.455534 -240.001536 
L 478.007887 -238.840509 
L 479.560239 -237.679482 
L 481.112592 -236.518456 
L 482.664945 -235.357429 
L 484.217297 -234.196402 
L 485.76965 -233.035375 
L 487.322003 -231.874349 
L 488.874355 -230.713322 
L 490.426708 -229.552295 
L 491.979061 -228.391269 
L 493.531413 -227.230242 
L 495.083766 -226.069215 
L 496.636119 -224.908188 
L 498.188471 -223.747162 
L 499.740824 -222.586135 
L 501.293177 -221.425108 
L 502.845529 -220.264081 
L 504.397882 -219.103055 
L 505.950235 -217.942028 
L 507.502587 -216.781001 
L 509.05494 -215.619975 
L 510.607293 -214.458948 
L 512.159645 -213.297921 
L 513.711998 -212.136894 
L 515.264351 -210.975868 
L 516.816703 -209.814841 
L 518.369056 -208.653814 
L 519.921409 -207.492788 
L 521.473761 -206.331761 
L 523.026114 -205.170734 
L 524.578467 -204.009707 
L 526.130819 -202.848681 
L 527.683172 -201.687654 
L 529.235525 -200.526627 
L 530.787877 -199.3656 
L 532.34023 -198.204574 
L 533.892583 -197.043547 
L 535.444935 -195.88252 
L 536.997288 -194.721494 
L 538.549641 -193.560467 
L 540.101993 -192.39944 
L 541.654346 -191.238413 
L 543.206699 -190.077387 
L 544.759052 -188.91636 
L 546.311404 -187.755333 
L 547.863757 -186.594306 
L 549.41611 -185.43328 
L 550.968462 -184.272253 
L 552.520815 -183.111226 
L 554.073168 -181.9502 
L 555.62552 -180.789173 
L 557.177873 -179.628146 
L 558.730226 -178.467119 
L 560.282578 -177.306093 
L 561.834931 -176.145066 
L 563.387284 -174.984039 
L 564.939636 -173.823013 
L 566.491989 -172.661986 
L 568.044342 -171.500959 
L 569.596694 -170.339932 
L 571.149047 -169.178906 
L 572.7014 -168.017879 
L 574.253752 -166.856852 
L 575.806105 -165.695825 
L 577.358458 -164.534799 
L 578.91081 -163.373772 
L 580.463163 -162.212745 
L 582.015516 -161.051719 
L 583.567868 -159.890692 
L 585.120221 -158.729665 
L 586.672574 -157.568638 
L 586.672574 -156.988125 
L 586.672574 -156.988125 
L 585.120221 -156.988125 
L 583.567868 -156.988125 
L 582.015516 -156.988125 
L 580.463163 -156.988125 
L 578.91081 -156.988125 
L 577.358458 -156.988125 
L 575.806105 -156.988125 
L 574.253752 -156.988125 
L 572.7014 -156.988125 
L 571.149047 -156.988125 
L 569.596694 -156.988125 
L 568.044342 -156.988125 
L 566.491989 -156.988125 
L 564.939636 -156.988125 
L 563.387284 -156.988125 
L 561.834931 -156.988125 
L 560.282578 -156.988125 
L 558.730226 -156.988125 
L 557.177873 -156.988125 
L 555.62552 -156.988125 
L 554.073168 -156.988125 
L 552.520815 -156.988125 
L 550.968462 -156.988125 
L 549.41611 -156.988125 
L 547.863757 -156.988125 
L 546.311404 -156.988125 
L 544.759052 -156.988125 
L 543.206699 -156.988125 
L 541.654346 -156.988125 
L 540.101993 -156.988125 
L 538.549641 -156.988125 
L 536.997288 -156.988125 
L 535.444935 -156.988125 
L 533.892583 -156.988125 
L 532.34023 -156.988125 
L 530.787877 -156.988125 
L 529.235525 -156.988125 
L 527.683172 -156.988125 
L 526.130819 -156.988125 
L 524.578467 -156.988125 
L 523.026114 -156.988125 
L 521.473761 -156.988125 
L 519.921409 -156.988125 
L 518.369056 -156.988125 
L 516.816703 -156.988125 
L 515.264351 -156.988125 
L 513.711998 -156.988125 
L 512.159645 -156.988125 
L 510.607293 -156.988125 
L 509.05494 -156.988125 
L 507.502587 -156.988125 
L 505.950235 -156.988125 
L 504.397882 -156.988125 
L 502.845529 -156.988125 
L 501.293177 -156.988125 
L 499.740824 -156.988125 
L 498.188471 -156.988125 
L 496.636119 -156.988125 
L 495.083766 -156.988125 
L 493.531413 -156.988125 
L 491.979061 -156.988125 
L 490.426708 -156.988125 
L 488.874355 -156.988125 
L 487.322003 -156.988125 
L 485.76965 -156.988125 
L 484.217297 -156.988125 
L 482.664945 -156.988125 
L 481.112592 -156.988125 
L 479.560239 -156.988125 
L 478.007887 -156.988125 
L 476.455534 -156.988125 
L 474.903181 -156.988125 
L 473.350829 -156.988125 
L 471.798476 -156.988125 
L 470.246123 -156.988125 
L 468.693771 -156.988125 
L 467.141418 -156.988125 
L 465.589065 -156.988125 
L 464.036713 -156.988125 
L 462.48436 -156.988125 
L 460.932007 -156.988125 
L 459.379655 -156.988125 
L 457.827302 -156.988125 
L 456.274949 -156.988125 
L 454.722597 -156.988125 
L 453.170244 -156.988125 
L 451.617891 -156.988125 
L 450.065538 -156.988125 
L 448.513186 -156.988125 
L 446.960833 -156.988125 
L 445.40848 -156.988125 
L 443.856128 -156.988125 
L 442.303775 -156.988125 
L 440.751422 -156.988125 
L 439.19907 -156.988125 
L 437.646717 -156.988125 
L 436.094364 -156.988125 
L 434.542012 -156.988125 
L 432.989659 -156.988125 
z
" style="stroke: #059669; stroke-opacity: 0.1"/>
    </defs>
    <g clip-path="url(#p3b13639d38)">
     <use xlink:href="#m86b1143b2d" x="0" y="310.740469" style="fill: #059669; fill-opacity: 0.1; stroke: #059669; stroke-opacity: 0.1"/>
    </g>
   </g>
   <g id="FillBetweenPolyCollection_2">
    <defs>
     <path id="maec33e013d" d="M 588.224926 -156.988125 
L 588.224926 -156.407612 
L 589.777279 -155.246585 
L 591.329632 -154.085558 
L 592.881984 -152.924531 
L 594.434337 -151.763505 
L 595.98669 -150.602478 
L 597.539042 -149.441451 
L 599.091395 -148.280425 
L 600.643748 -147.119398 
L 602.1961 -145.958371 
L 603.748453 -144.797344 
L 605.300806 -143.636318 
L 606.853158 -142.475291 
L 608.405511 -141.314264 
L 609.957864 -140.153237 
L 611.510216 -138.992211 
L 613.062569 -137.831184 
L 614.614922 -136.670157 
L 616.167274 -135.509131 
L 617.719627 -134.348104 
L 619.27198 -133.187077 
L 620.824332 -132.02605 
L 622.376685 -130.865024 
L 623.929038 -129.703997 
L 625.48139 -128.54297 
L 627.033743 -127.381944 
L 628.586096 -126.220917 
L 630.138448 -125.05989 
L 631.690801 -123.898863 
L 633.243154 -122.737837 
L 634.795507 -121.57681 
L 636.347859 -120.415783 
L 637.900212 -119.254756 
L 639.452565 -118.09373 
L 641.004917 -116.932703 
L 642.55727 -115.771676 
L 644.109623 -114.61065 
L 645.661975 -113.449623 
L 647.214328 -112.288596 
L 648.766681 -111.127569 
L 650.319033 -109.966543 
L 651.871386 -108.805516 
L 653.423739 -107.644489 
L 654.976091 -106.483462 
L 656.528444 -105.322436 
L 658.080797 -104.161409 
L 659.633149 -103.000382 
L 661.185502 -101.839356 
L 662.737855 -100.678329 
L 664.290207 -99.517302 
L 665.84256 -98.356275 
L 667.394913 -97.195249 
L 668.947265 -96.034222 
L 670.499618 -94.873195 
L 672.051971 -93.712169 
L 673.604323 -92.551142 
L 675.156676 -91.390115 
L 676.709029 -90.229088 
L 678.261381 -89.068062 
L 679.813734 -87.907035 
L 681.366087 -86.746008 
L 682.918439 -85.584981 
L 684.470792 -84.423955 
L 686.023145 -83.262928 
L 687.575497 -82.101901 
L 689.12785 -80.940875 
L 690.680203 -79.779848 
L 692.232555 -78.618821 
L 693.784908 -77.457794 
L 695.337261 -76.296768 
L 696.889613 -75.135741 
L 698.441966 -73.974714 
L 699.994319 -72.813687 
L 701.546671 -71.652661 
L 703.099024 -70.491634 
L 704.651377 -69.330607 
L 706.203729 -68.169581 
L 707.756082 -67.008554 
L 709.308435 -65.847527 
L 710.860787 -64.6865 
L 712.41314 -63.525474 
L 713.965493 -62.364447 
L 715.517845 -61.20342 
L 717.070198 -60.042394 
L 718.622551 -58.881367 
L 720.174903 -57.72034 
L 721.727256 -56.559313 
L 723.279609 -55.398287 
L 724.831962 -54.23726 
L 726.384314 -53.076233 
L 727.936667 -51.915206 
L 729.48902 -50.75418 
L 731.041372 -49.593153 
L 732.593725 -48.432126 
L 734.146078 -47.2711 
L 735.69843 -46.110073 
L 737.250783 -44.949046 
L 738.803136 -43.788019 
L 740.355488 -42.626993 
L 741.907841 -41.465966 
L 741.907841 -156.988125 
L 741.907841 -156.988125 
L 740.355488 -156.988125 
L 738.803136 -156.988125 
L 737.250783 -156.988125 
L 735.69843 -156.988125 
L 734.146078 -156.988125 
L 732.593725 -156.988125 
L 731.041372 -156.988125 
L 729.48902 -156.988125 
L 727.936667 -156.988125 
L 726.384314 -156.988125 
L 724.831962 -156.988125 
L 723.279609 -156.988125 
L 721.727256 -156.988125 
L 720.174903 -156.988125 
L 718.622551 -156.988125 
L 717.070198 -156.988125 
L 715.517845 -156.988125 
L 713.965493 -156.988125 
L 712.41314 -156.988125 
L 710.860787 -156.988125 
L 709.308435 -156.988125 
L 707.756082 -156.988125 
L 706.203729 -156.988125 
L 704.651377 -156.988125 
L 703.099024 -156.988125 
L 701.546671 -156.988125 
L 699.994319 -156.988125 
L 698.441966 -156.988125 
L 696.889613 -156.988125 
L 695.337261 -156.988125 
L 693.784908 -156.988125 
L 692.232555 -156.988125 
L 690.680203 -156.988125 
L 689.12785 -156.988125 
L 687.575497 -156.988125 
L 686.023145 -156.988125 
L 684.470792 -156.988125 
L 682.918439 -156.988125 
L 681.366087 -156.988125 
L 679.813734 -156.988125 
L 678.261381 -156.988125 
L 676.709029 -156.988125 
L 675.156676 -156.988125 
L 673.604323 -156.988125 
L 672.051971 -156.988125 
L 670.499618 -156.988125 
L 668.947265 -156.988125 
L 667.394913 -156.988125 
L 665.84256 -156.988125 
L 664.290207 -156.988125 
L 662.737855 -156.988125 
L 661.185502 -156.988125 
L 659.633149 -156.988125 
L 658.080797 -156.988125 
L 656.528444 -156.988125 
L 654.976091 -156.988125 
L 653.423739 -156.988125 
L 651.871386 -156.988125 
L 650.319033 -156.988125 
L 648.766681 -156.988125 
L 647.214328 -156.988125 
L 645.661975 -156.988125 
L 644.109623 -156.988125 
L 642.55727 -156.988125 
L 641.004917 -156.988125 
L 639.452565 -156.988125 
L 637.900212 -156.988125 
L 636.347859 -156.988125 
L 634.795507 -156.988125 
L 633.243154 -156.988125 
L 631.690801 -156.988125 
L 630.138448 -156.988125 
L 628.586096 -156.988125 
L 627.033743 -156.988125 
L 625.48139 -156.988125 
L 623.929038 -156.988125 
L 622.376685 -156.988125 
L 620.824332 -156.988125 
L 619.27198 -156.988125 
L 617.719627 -156.988125 
L 616.167274 -156.988125 
L 614.614922 -156.988125 
L 613.062569 -156.988125 
L 611.510216 -156.988125 
L 609.957864 -156.988125 
L 608.405511 -156.988125 
L 606.853158 -156.988125 
L 605.300806 -156.988125 
L 603.748453 -156.988125 
L 602.1961 -156.988125 
L 600.643748 -156.988125 
L 599.091395 -156.988125 
L 597.539042 -156.988125 
L 595.98669 -156.988125 
L 594.434337 -156.988125 
L 592.881984 -156.988125 
L 591.329632 -156.988125 
L 589.777279 -156.988125 
L 588.224926 -156.988125 
z
" style="stroke: #dc2626; stroke-opacity: 0.1"/>
    </defs>
    <g clip-path="url(#p3b13639d38)">
     <use xlink:href="#maec33e013d" x="0" y="310.740469" style="fill: #dc2626; fill-opacity: 0.1; stroke: #dc2626; stroke-opacity: 0.1"/>
    </g>
   </g>
   <g id="line2d_60">
    <path d="M 432.989659 38.230185 
L 741.907841 269.274503 
L 741.907841 269.274503 
" clip-path="url(#p3b13639d38)" style="fill: none; stroke: #059669; stroke-width: 2.5; stroke-linecap: round"/>
   </g>
   <g id="line2d_61">
    <path d="M 417.54375 153.752344 
L 757.35375 153.752344 
" clip-path="url(#p3b13639d38)" style="fill: none; stroke: #000000; stroke-linecap: round"/>
   </g>
   <g id="patch_11">
    <path d="M 417.54375 280.826719 
L 417.54375 26.677969 
" style="fill: none; stroke: #cccccc; stroke-linejoin: miter; stroke-linecap: square"/>
   </g>
   <g id="patch_12">
    <path d="M 757.35375 280.826719 
L 757.35375 26.677969 
" style="fill: none; stroke: #cccccc; stroke-linejoin: miter; stroke-linecap: square"/>
   </g>
   <g id="patch_13">
    <path d="M 417.54375 280.826719 
L 757.35375 280.826719 
" style="fill: none; stroke: #cccccc; stroke-linejoin: miter; stroke-linecap: square"/>
   </g>
   <g id="patch_14">
    <path d="M 417.54375 26.677969 
L 757.35375 26.677969 
" style="fill: none; stroke: #cccccc; stroke-linejoin: miter; stroke-linecap: square"/>
   </g>
   <g id="patch_15">
    <path d="M 665.575892 82.167817 
Q 627.250247 117.283951 589.748933 151.644785 
" style="fill: none; stroke: #dc2626; stroke-linecap: round"/>
    <path d="M 594.049272 150.417153 
L 589.748933 151.644785 
L 591.347031 147.467934 
" style="fill: none; stroke: #dc2626; stroke-linecap: round"/>
   </g>
   <g id="text_8">
    <!-- Y'(T) = 0 here -->
    <g style="fill: #dc2626" transform="translate(638.935114 76.737571) scale(0.1 -0.1)">
     <defs>
      <path id="DejaVuSerif-3d" d="M 678 2894 
L 4684 2894 
L 4684 2394 
L 678 2394 
L 678 2894 
z
M 678 1619 
L 4684 1619 
L 4684 1119 
L 678 1119 
L 678 1619 
z
" transform="scale(0.015625)"/>
      <path id="DejaVuSerif-30" d="M 2034 219 
Q 2513 219 2750 744 
Q 2988 1269 2988 2328 
Q 2988 3391 2750 3916 
Q 2513 4441 2034 4441 
Q 1556 4441 1318 3916 
Q 1081 3391 1081 2328 
Q 1081 1269 1318 744 
Q 1556 219 2034 219 
z
M 2034 -91 
Q 1275 -91 848 546 
Q 422 1184 422 2328 
Q 422 3475 848 4112 
Q 1275 4750 2034 4750 
Q 2797 4750 3222 4112 
Q 3647 3475 3647 2328 
Q 3647 1184 3222 546 
Q 2797 -91 2034 -91 
z
" transform="scale(0.015625)"/>
      <path id="DejaVuSerif-68" d="M 263 0 
L 263 331 
L 781 331 
L 781 4531 
L 231 4531 
L 231 4863 
L 1356 4863 
L 1356 2731 
Q 1516 3069 1770 3241 
Q 2025 3413 2363 3413 
Q 2913 3413 3172 3097 
Q 3431 2781 3431 2113 
L 3431 331 
L 3944 331 
L 3944 0 
L 2356 0 
L 2356 331 
L 2853 331 
L 2853 1931 
Q 2853 2541 2704 2764 
Q 2556 2988 2175 2988 
Q 1775 2988 1565 2697 
Q 1356 2406 1356 1850 
L 1356 331 
L 1856 331 
L 1856 0 
L 263 0 
z
" transform="scale(0.015625)"/>
     </defs>
     <use xlink:href="#DejaVuSerif-59"/>
     <use xlink:href="#DejaVuSerif-27" transform="translate(66.015625 0)"/>
     <use xlink:href="#DejaVuSerif-28" transform="translate(93.505859 0)"/>
     <use xlink:href="#DejaVuSerif-54" transform="translate(132.519531 0)"/>
     <use xlink:href="#DejaVuSerif-29" transform="translate(199.21875 0)"/>
     <use xlink:href="#DejaVuSerif-20" transform="translate(238.232422 0)"/>
     <use xlink:href="#DejaVuSerif-3d" transform="translate(270.019531 0)"/>
     <use xlink:href="#DejaVuSerif-20" transform="translate(353.808594 0)"/>
     <use xlink:href="#DejaVuSerif-30" transform="translate(385.595703 0)"/>
     <use xlink:href="#DejaVuSerif-20" transform="translate(449.21875 0)"/>
     <use xlink:href="#DejaVuSerif-68" transform="translate(481.005859 0)"/>
     <use xlink:href="#DejaVuSerif-65" transform="translate(545.410156 0)"/>
     <use xlink:href="#DejaVuSerif-72" transform="translate(604.589844 0)"/>
     <use xlink:href="#DejaVuSerif-65" transform="translate(652.392578 0)"/>
    </g>
   </g>
   <g id="text_9">
    <!-- Rate of Change (Derivative) -->
    <g style="fill: #262626" transform="translate(485.923828 20.677969) scale(0.13 -0.13)">
     <defs>
      <path id="DejaVuSerif-Bold-52" d="M 3397 2278 
Q 3675 2238 3865 2094 
Q 4056 1950 4197 1678 
L 4878 378 
L 5356 378 
L 5356 0 
L 3822 0 
L 3078 1409 
Q 2863 1847 2711 1967 
Q 2559 2088 2291 2088 
L 2100 2088 
L 2100 378 
L 2700 378 
L 2700 0 
L 300 0 
L 300 378 
L 897 378 
L 897 4288 
L 300 4288 
L 300 4666 
L 2963 4666 
Q 3775 4666 4217 4339 
Q 4659 4013 4659 3413 
Q 4659 2925 4345 2642 
Q 4031 2359 3397 2278 
z
M 2100 2463 
L 2509 2463 
Q 2947 2463 3183 2700 
Q 3419 2938 3419 3378 
Q 3419 3819 3183 4053 
Q 2947 4288 2509 4288 
L 2100 4288 
L 2100 2463 
z
" transform="scale(0.015625)"/>
      <path id="DejaVuSerif-Bold-6f" d="M 2138 263 
Q 2488 263 2630 563 
Q 2772 863 2772 1663 
Q 2772 2463 2631 2761 
Q 2491 3059 2138 3059 
Q 1784 3059 1640 2757 
Q 1497 2456 1497 1663 
Q 1497 869 1640 566 
Q 1784 263 2138 263 
z
M 2138 -91 
Q 1259 -91 761 376 
Q 263 844 263 1663 
Q 263 2484 761 2948 
Q 1259 3413 2138 3413 
Q 3019 3413 3516 2948 
Q 4013 2484 4013 1663 
Q 4013 844 3514 376 
Q 3016 -91 2138 -91 
z
" transform="scale(0.015625)"/>
      <path id="DejaVuSerif-Bold-66" d="M 3097 4031 
L 2747 4031 
Q 2722 4275 2605 4394 
Q 2488 4513 2272 4513 
Q 2022 4513 1909 4333 
Q 1797 4153 1797 3750 
L 1797 3322 
L 2631 3322 
L 2631 2944 
L 1797 2944 
L 1797 378 
L 2438 378 
L 2438 0 
L 219 0 
L 219 378 
L 691 378 
L 691 2944 
L 197 2944 
L 197 3322 
L 691 3322 
L 691 3738 
Q 691 4291 1044 4577 
Q 1397 4863 2081 4863 
Q 2347 4863 2600 4833 
Q 2853 4803 3097 4744 
L 3097 4031 
z
" transform="scale(0.015625)"/>
      <path id="DejaVuSerif-Bold-43" d="M 4769 1331 
Q 4584 609 4106 259 
Q 3628 -91 2822 -91 
Q 1641 -91 955 561 
Q 269 1213 269 2328 
Q 269 3447 955 4098 
Q 1641 4750 2822 4750 
Q 3238 4750 3688 4650 
Q 4138 4550 4641 4347 
L 4641 3200 
L 4244 3200 
Q 4122 3788 3800 4080 
Q 3478 4372 2950 4372 
Q 2269 4372 1937 3870 
Q 1606 3369 1606 2328 
Q 1606 1288 1937 788 
Q 2269 288 2956 288 
Q 3422 288 3717 547 
Q 4013 806 4147 1331 
L 4769 1331 
z
" transform="scale(0.015625)"/>
      <path id="DejaVuSerif-Bold-68" d="M 219 0 
L 219 378 
L 691 378 
L 691 4488 
L 197 4488 
L 197 4863 
L 1797 4863 
L 1797 2853 
Q 1997 3150 2253 3281 
Q 2509 3413 2900 3413 
Q 3459 3413 3745 3083 
Q 4031 2753 4031 2113 
L 4031 378 
L 4506 378 
L 4506 0 
L 2522 0 
L 2522 378 
L 2925 378 
L 2925 2144 
Q 2925 2566 2817 2730 
Q 2709 2894 2444 2894 
Q 2109 2894 1953 2648 
Q 1797 2403 1797 1869 
L 1797 378 
L 2203 378 
L 2203 0 
L 219 0 
z
" transform="scale(0.015625)"/>
      <path id="DejaVuSerif-Bold-6e" d="M 219 0 
L 219 378 
L 691 378 
L 691 2944 
L 219 2944 
L 219 3322 
L 1797 3322 
L 1797 2853 
Q 1997 3150 2253 3281 
Q 2509 3413 2900 3413 
Q 3459 3413 3745 3083 
Q 4031 2753 4031 2113 
L 4031 378 
L 4506 378 
L 4506 0 
L 2522 0 
L 2522 378 
L 2925 378 
L 2925 2144 
Q 2925 2566 2817 2730 
Q 2709 2894 2444 2894 
Q 2109 2894 1953 2648 
Q 1797 2403 1797 1869 
L 1797 378 
L 2203 378 
L 2203 0 
L 219 0 
z
" transform="scale(0.015625)"/>
      <path id="DejaVuSerif-Bold-67" d="M 3853 2944 
L 3853 44 
Q 3853 -656 3354 -1039 
Q 2856 -1422 1947 -1422 
Q 1616 -1422 1275 -1370 
Q 934 -1319 575 -1216 
L 575 -422 
L 928 -422 
Q 975 -750 1192 -909 
Q 1409 -1069 1813 -1069 
Q 2325 -1069 2536 -823 
Q 2747 -578 2747 44 
L 2747 422 
Q 2606 163 2367 36 
Q 2128 -91 1778 -91 
Q 1072 -91 667 378 
Q 263 847 263 1663 
Q 263 2481 667 2947 
Q 1072 3413 1778 3413 
Q 2128 3413 2367 3286 
Q 2606 3159 2747 2900 
L 2747 3322 
L 4325 3322 
L 4325 2944 
L 3853 2944 
z
M 2747 1825 
Q 2747 2406 2597 2665 
Q 2447 2925 2119 2925 
Q 1775 2925 1636 2651 
Q 1497 2378 1497 1663 
Q 1497 947 1637 672 
Q 1778 397 2119 397 
Q 2447 397 2597 656 
Q 2747 916 2747 1497 
L 2747 1825 
z
" transform="scale(0.015625)"/>
      <path id="DejaVuSerif-Bold-28" d="M 2694 -997 
Q 1641 -606 1122 122 
Q 603 850 603 1931 
Q 603 3013 1115 3731 
Q 1628 4450 2694 4863 
L 2694 4488 
Q 2200 4188 1983 3598 
Q 1766 3009 1766 1931 
Q 1766 856 1983 267 
Q 2200 -322 2694 -622 
L 2694 -997 
z
" transform="scale(0.015625)"/>
      <path id="DejaVuSerif-Bold-44" d="M 2100 378 
L 2534 378 
Q 3266 378 3605 847 
Q 3944 1316 3944 2338 
Q 3944 3353 3606 3820 
Q 3269 4288 2534 4288 
L 2100 4288 
L 2100 378 
z
M 300 0 
L 300 378 
L 897 378 
L 897 4288 
L 300 4288 
L 300 4666 
L 2694 4666 
Q 3950 4666 4615 4066 
Q 5281 3466 5281 2338 
Q 5281 1203 4614 601 
Q 3947 0 2694 0 
L 300 0 
z
" transform="scale(0.015625)"/>
      <path id="DejaVuSerif-Bold-29" d="M 325 -997 
L 325 -622 
Q 819 -322 1036 267 
Q 1253 856 1253 1931 
Q 1253 3009 1036 3598 
Q 819 4188 325 4488 
L 325 4863 
Q 1391 4450 1905 3731 
Q 2419 3013 2419 1931 
Q 2419 850 1898 122 
Q 1378 -606 325 -997 
z
" transform="scale(0.015625)"/>
     </defs>
     <use xlink:href="#DejaVuSerif-Bold-52"/>
     <use xlink:href="#DejaVuSerif-Bold-61" transform="translate(85.355469 0)"/>
     <use xlink:href="#DejaVuSerif-Bold-74" transform="translate(150.150391 0)"/>
     <use xlink:href="#DejaVuSerif-Bold-65" transform="translate(196.341797 0)"/>
     <use xlink:href="#DejaVuSerif-Bold-20" transform="translate(259.964844 0)"/>
     <use xlink:href="#DejaVuSerif-Bold-6f" transform="translate(294.779297 0)"/>
     <use xlink:href="#DejaVuSerif-Bold-66" transform="translate(361.478516 0)"/>
     <use xlink:href="#DejaVuSerif-Bold-20" transform="translate(404.496094 0)"/>
     <use xlink:href="#DejaVuSerif-Bold-43" transform="translate(439.310547 0)"/>
     <use xlink:href="#DejaVuSerif-Bold-68" transform="translate(518.900391 0)"/>
     <use xlink:href="#DejaVuSerif-Bold-61" transform="translate(591.605469 0)"/>
     <use xlink:href="#DejaVuSerif-Bold-6e" transform="translate(656.400391 0)"/>
     <use xlink:href="#DejaVuSerif-Bold-67" transform="translate(729.105469 0)"/>
     <use xlink:href="#DejaVuSerif-Bold-65" transform="translate(799.027344 0)"/>
     <use xlink:href="#DejaVuSerif-Bold-20" transform="translate(862.650391 0)"/>
     <use xlink:href="#DejaVuSerif-Bold-28" transform="translate(897.464844 0)"/>
     <use xlink:href="#DejaVuSerif-Bold-44" transform="translate(944.779297 0)"/>
     <use xlink:href="#DejaVuSerif-Bold-65" transform="translate(1031.498047 0)"/>
     <use xlink:href="#DejaVuSerif-Bold-72" transform="translate(1095.121094 0)"/>
     <use xlink:href="#DejaVuSerif-Bold-69" transform="translate(1147.806641 0)"/>
     <use xlink:href="#DejaVuSerif-Bold-76" transform="translate(1185.794922 0)"/>
     <use xlink:href="#DejaVuSerif-Bold-61" transform="translate(1243.900391 0)"/>
     <use xlink:href="#DejaVuSerif-Bold-74" transform="translate(1308.695312 0)"/>
     <use xlink:href="#DejaVuSerif-Bold-69" transform="translate(1354.886719 0)"/>
     <use xlink:href="#DejaVuSerif-Bold-76" transform="translate(1392.875 0)"/>
     <use xlink:href="#DejaVuSerif-Bold-65" transform="translate(1450.980469 0)"/>
     <use xlink:href="#DejaVuSerif-Bold-29" transform="translate(1514.603516 0)"/>
    </g>
   </g>
   <g id="line2d_62">
    <defs>
     <path id="m819d844bc5" d="M 0 5 
C 1.326016 5 2.597899 4.473168 3.535534 3.535534 
C 4.473168 2.597899 5 1.326016 5 0 
C 5 -1.326016 4.473168 -2.597899 3.535534 -3.535534 
C 2.597899 -4.473168 1.326016 -5 0 -5 
C -1.326016 -5 -2.597899 -4.473168 -3.535534 -3.535534 
C -4.473168 -2.597899 -5 -1.326016 -5 0 
C -5 1.326016 -4.473168 2.597899 -3.535534 3.535534 
C -2.597899 4.473168 -1.326016 5 0 5 
z
" style="stroke: #dc2626"/>
    </defs>
    <g clip-path="url(#p3b13639d38)">
     <use xlink:href="#m819d844bc5" x="587.44875" y="153.752344" style="fill: #dc2626; stroke: #dc2626"/>
    </g>
   </g>
   <g id="legend_2">
    <g id="patch_16">
     <path d="M 681.85875 39.956719 
L 697.85875 39.956719 
L 697.85875 34.356719 
L 681.85875 34.356719 
z
" style="fill: #059669; fill-opacity: 0.1; stroke: #059669; stroke-opacity: 0.1; stroke-linejoin: miter"/>
    </g>
    <g id="text_10">
     <!-- Increasing -->
     <g style="fill: #262626" transform="translate(704.25875 39.956719) scale(0.08 -0.08)">
      <defs>
       <path id="DejaVuSerif-49" d="M 1581 331 
L 2175 331 
L 2175 0 
L 353 0 
L 353 331 
L 947 331 
L 947 4331 
L 353 4331 
L 353 4666 
L 2175 4666 
L 2175 4331 
L 1581 4331 
L 1581 331 
z
" transform="scale(0.015625)"/>
       <path id="DejaVuSerif-73" d="M 359 184 
L 359 959 
L 691 959 
Q 703 588 923 403 
Q 1144 219 1575 219 
Q 1963 219 2166 364 
Q 2369 509 2369 788 
Q 2369 1006 2220 1140 
Q 2072 1275 1594 1428 
L 1178 1569 
Q 750 1706 558 1912 
Q 366 2119 366 2438 
Q 366 2894 700 3153 
Q 1034 3413 1625 3413 
Q 1888 3413 2178 3344 
Q 2469 3275 2778 3144 
L 2778 2419 
L 2447 2419 
Q 2434 2741 2221 2922 
Q 2009 3103 1644 3103 
Q 1281 3103 1095 2975 
Q 909 2847 909 2591 
Q 909 2381 1050 2254 
Q 1191 2128 1613 1997 
L 2069 1856 
Q 2541 1709 2748 1489 
Q 2956 1269 2956 922 
Q 2956 450 2595 179 
Q 2234 -91 1600 -91 
Q 1278 -91 972 -22 
Q 666 47 359 184 
z
" transform="scale(0.015625)"/>
       <path id="DejaVuSerif-67" d="M 3359 2988 
L 3359 72 
Q 3359 -644 2965 -1033 
Q 2572 -1422 1844 -1422 
Q 1516 -1422 1216 -1362 
Q 916 -1303 641 -1184 
L 641 -488 
L 941 -488 
Q 997 -813 1206 -963 
Q 1416 -1113 1806 -1113 
Q 2313 -1113 2548 -827 
Q 2784 -541 2784 72 
L 2784 519 
Q 2616 206 2355 57 
Q 2094 -91 1709 -91 
Q 1097 -91 708 395 
Q 319 881 319 1663 
Q 319 2444 706 2928 
Q 1094 3413 1709 3413 
Q 2094 3413 2355 3264 
Q 2616 3116 2784 2803 
L 2784 3322 
L 3909 3322 
L 3909 2988 
L 3359 2988 
z
M 2784 1825 
Q 2784 2422 2554 2737 
Q 2325 3053 1888 3053 
Q 1444 3053 1217 2703 
Q 991 2353 991 1663 
Q 991 975 1217 622 
Q 1444 269 1888 269 
Q 2325 269 2554 583 
Q 2784 897 2784 1497 
L 2784 1825 
z
" transform="scale(0.015625)"/>
      </defs>
      <use xlink:href="#DejaVuSerif-49"/>
      <use xlink:href="#DejaVuSerif-6e" transform="translate(39.501953 0)"/>
      <use xlink:href="#DejaVuSerif-63" transform="translate(103.90625 0)"/>
      <use xlink:href="#DejaVuSerif-72" transform="translate(159.912109 0)"/>
      <use xlink:href="#DejaVuSerif-65" transform="translate(207.714844 0)"/>
      <use xlink:href="#DejaVuSerif-61" transform="translate(266.894531 0)"/>
      <use xlink:href="#DejaVuSerif-73" transform="translate(326.513672 0)"/>
      <use xlink:href="#DejaVuSerif-69" transform="translate(377.832031 0)"/>
      <use xlink:href="#DejaVuSerif-6e" transform="translate(409.814453 0)"/>
      <use xlink:href="#DejaVuSerif-67" transform="translate(474.21875 0)"/>
     </g>
    </g>
    <g id="patch_17">
     <path d="M 681.85875 51.812969 
L 697.85875 51.812969 
L 697.85875 46.212969 
L 681.85875 46.212969 
z
" style="fill: #dc2626; fill-opacity: 0.1; stroke: #dc2626; stroke-opacity: 0.1; stroke-linejoin: miter"/>
    </g>
    <g id="text_11">
     <!-- Decreasing -->
     <g style="fill: #262626" transform="translate(704.25875 51.812969) scale(0.08 -0.08)">
      <defs>
       <path id="DejaVuSerif-44" d="M 1581 331 
L 2163 331 
Q 3072 331 3558 850 
Q 4044 1369 4044 2338 
Q 4044 3306 3559 3818 
Q 3075 4331 2163 4331 
L 1581 4331 
L 1581 331 
z
M 353 0 
L 353 331 
L 947 331 
L 947 4331 
L 353 4331 
L 353 4666 
L 2209 4666 
Q 3416 4666 4089 4050 
Q 4763 3434 4763 2338 
Q 4763 1238 4088 619 
Q 3413 0 2209 0 
L 353 0 
z
" transform="scale(0.015625)"/>
      </defs>
      <use xlink:href="#DejaVuSerif-44"/>
      <use xlink:href="#DejaVuSerif-65" transform="translate(80.175781 0)"/>
      <use xlink:href="#DejaVuSerif-63" transform="translate(139.355469 0)"/>
      <use xlink:href="#DejaVuSerif-72" transform="translate(195.361328 0)"/>
      <use xlink:href="#DejaVuSerif-65" transform="translate(243.164062 0)"/>
      <use xlink:href="#DejaVuSerif-61" transform="translate(302.34375 0)"/>
      <use xlink:href="#DejaVuSerif-73" transform="translate(361.962891 0)"/>
      <use xlink:href="#DejaVuSerif-69" transform="translate(413.28125 0)"/>
      <use xlink:href="#DejaVuSerif-6e" transform="translate(445.263672 0)"/>
      <use xlink:href="#DejaVuSerif-67" transform="translate(509.667969 0)"/>
     </g>
    </g>
   </g>
  </g>
 </g>
 <defs>
  <clipPath id="pf54233bca0">
   <rect x="29.91375" y="26.677969" width="339.81" height="254.14875"/>
  </clipPath>
  <clipPath id="p3b13639d38">
   <rect x="417.54375" y="26.677969" width="339.81" height="254.14875"/>
  </clipPath>
 </defs>
</svg>
