<?xml version="1.0" encoding="utf-8" standalone="no"?>
<!DOCTYPE svg PUBLIC "-//W3C//DTD SVG 1.1//EN"
  "http://www.w3.org/Graphics/SVG/1.1/DTD/svg11.dtd">
<svg xmlns:xlink="http://www.w3.org/1999/xlink" width="552.15375pt" height="491.102344pt" viewBox="0 0 552.15375 491.102344" xmlns="http://www.w3.org/2000/svg" version="1.1">
 <metadata>
  <rdf:RDF xmlns:dc="http://purl.org/dc/elements/1.1/" xmlns:cc="http://creativecommons.org/ns#" xmlns:rdf="http://www.w3.org/1999/02/22-rdf-syntax-ns#">
   <cc:Work>
    <dc:type rdf:resource="http://purl.org/dc/dcmitype/StillImage"/>
    <dc:date>2026-02-19T08:27:10.289756</dc:date>
    <dc:format>image/svg+xml</dc:format>
    <dc:creator>
     <cc:Agent>
      <dc:title>Matplotlib v3.10.1, https://matplotlib.org/</dc:title>
     </cc:Agent>
    </dc:creator>
   </cc:Work>
  </rdf:RDF>
 </metadata>
 <defs>
  <style type="text/css">*{stroke-linejoin: round; stroke-linecap: butt}</style>
 </defs>
 <g id="figure_1">
  <g id="patch_1">
   <path d="M 0 491.102344 
L 552.15375 491.102344 
L 552.15375 0 
L 0 0 
z
" style="fill: #ffffff"/>
  </g>
  <g id="axes_1">
   <g id="patch_2">
    <path d="M 29.91375 229.867969 
L 541.35375 229.867969 
L 541.35375 26.677969 
L 29.91375 26.677969 
z
" style="fill: #ffffff"/>
   </g>
   <g id="matplotlib.axis_1">
    <g id="xtick_1">
     <g id="line2d_1">
      <path d="M 53.161023 229.867969 
L 53.161023 26.677969 
" clip-path="url(#p03493538a8)" style="fill: none; stroke: #cccccc; stroke-width: 0.8; stroke-linecap: round"/>
     </g>
     <g id="line2d_2"/>
    </g>
    <g id="xtick_2">
     <g id="line2d_3">
      <path d="M 111.279205 229.867969 
L 111.279205 26.677969 
" clip-path="url(#p03493538a8)" style="fill: none; stroke: #cccccc; stroke-width: 0.8; stroke-linecap: round"/>
     </g>
     <g id="line2d_4"/>
    </g>
    <g id="xtick_3">
     <g id="line2d_5">
      <path d="M 169.397386 229.867969 
L 169.397386 26.677969 
" clip-path="url(#p03493538a8)" style="fill: none; stroke: #cccccc; stroke-width: 0.8; stroke-linecap: round"/>
     </g>
     <g id="line2d_6"/>
    </g>
    <g id="xtick_4">
     <g id="line2d_7">
      <path d="M 227.515568 229.867969 
L 227.515568 26.677969 
" clip-path="url(#p03493538a8)" style="fill: none; stroke: #cccccc; stroke-width: 0.8; stroke-linecap: round"/>
     </g>
     <g id="line2d_8"/>
    </g>
    <g id="xtick_5">
     <g id="line2d_9">
      <path d="M 285.63375 229.867969 
L 285.63375 26.677969 
" clip-path="url(#p03493538a8)" style="fill: none; stroke: #cccccc; stroke-width: 0.8; stroke-linecap: round"/>
     </g>
     <g id="line2d_10"/>
    </g>
    <g id="xtick_6">
     <g id="line2d_11">
      <path d="M 343.751932 229.867969 
L 343.751932 26.677969 
" clip-path="url(#p03493538a8)" style="fill: none; stroke: #cccccc; stroke-width: 0.8; stroke-linecap: round"/>
     </g>
     <g id="line2d_12"/>
    </g>
    <g id="xtick_7">
     <g id="line2d_13">
      <path d="M 401.870114 229.867969 
L 401.870114 26.677969 
" clip-path="url(#p03493538a8)" style="fill: none; stroke: #cccccc; stroke-width: 0.8; stroke-linecap: round"/>
     </g>
     <g id="line2d_14"/>
    </g>
    <g id="xtick_8">
     <g id="line2d_15">
      <path d="M 459.988295 229.867969 
L 459.988295 26.677969 
" clip-path="url(#p03493538a8)" style="fill: none; stroke: #cccccc; stroke-width: 0.8; stroke-linecap: round"/>
     </g>
     <g id="line2d_16"/>
    </g>
    <g id="xtick_9">
     <g id="line2d_17">
      <path d="M 518.106477 229.867969 
L 518.106477 26.677969 
" clip-path="url(#p03493538a8)" style="fill: none; stroke: #cccccc; stroke-width: 0.8; stroke-linecap: round"/>
     </g>
     <g id="line2d_18"/>
    </g>
   </g>
   <g id="matplotlib.axis_2">
    <g id="ytick_1">
     <g id="line2d_19">
      <path d="M 29.91375 220.63206 
L 541.35375 220.63206 
" clip-path="url(#p03493538a8)" style="fill: none; stroke: #cccccc; stroke-width: 0.8; stroke-linecap: round"/>
     </g>
     <g id="line2d_20"/>
    </g>
    <g id="ytick_2">
     <g id="line2d_21">
      <path d="M 29.91375 189.845696 
L 541.35375 189.845696 
" clip-path="url(#p03493538a8)" style="fill: none; stroke: #cccccc; stroke-width: 0.8; stroke-linecap: round"/>
     </g>
     <g id="line2d_22"/>
    </g>
    <g id="ytick_3">
     <g id="line2d_23">
      <path d="M 29.91375 159.059332 
L 541.35375 159.059332 
" clip-path="url(#p03493538a8)" style="fill: none; stroke: #cccccc; stroke-width: 0.8; stroke-linecap: round"/>
     </g>
     <g id="line2d_24"/>
    </g>
    <g id="ytick_4">
     <g id="line2d_25">
      <path d="M 29.91375 128.272969 
L 541.35375 128.272969 
" clip-path="url(#p03493538a8)" style="fill: none; stroke: #cccccc; stroke-width: 0.8; stroke-linecap: round"/>
     </g>
     <g id="line2d_26"/>
    </g>
    <g id="ytick_5">
     <g id="line2d_27">
      <path d="M 29.91375 97.486605 
L 541.35375 97.486605 
" clip-path="url(#p03493538a8)" style="fill: none; stroke: #cccccc; stroke-width: 0.8; stroke-linecap: round"/>
     </g>
     <g id="line2d_28"/>
    </g>
    <g id="ytick_6">
     <g id="line2d_29">
      <path d="M 29.91375 66.700241 
L 541.35375 66.700241 
" clip-path="url(#p03493538a8)" style="fill: none; stroke: #cccccc; stroke-width: 0.8; stroke-linecap: round"/>
     </g>
     <g id="line2d_30"/>
    </g>
    <g id="ytick_7">
     <g id="line2d_31">
      <path d="M 29.91375 35.913878 
L 541.35375 35.913878 
" clip-path="url(#p03493538a8)" style="fill: none; stroke: #cccccc; stroke-width: 0.8; stroke-linecap: round"/>
     </g>
     <g id="line2d_32"/>
    </g>
    <g id="text_1">
     <!-- Sequestration rate -->
     <g style="fill: #262626" transform="translate(19.918125 185.247656) rotate(-90) scale(0.12 -0.12)">
      <defs>
       <path id="DejaVuSerif-53" d="M 594 225 
L 594 1288 
L 953 1284 
Q 969 753 1261 498 
Q 1553 244 2150 244 
Q 2706 244 2998 464 
Q 3291 684 3291 1106 
Q 3291 1444 3114 1625 
Q 2938 1806 2369 1978 
L 1753 2163 
Q 1084 2366 811 2669 
Q 538 2972 538 3500 
Q 538 4094 959 4422 
Q 1381 4750 2144 4750 
Q 2469 4750 2856 4679 
Q 3244 4609 3681 4475 
L 3681 3481 
L 3328 3481 
Q 3275 3975 2998 4195 
Q 2722 4416 2156 4416 
Q 1663 4416 1405 4214 
Q 1147 4013 1147 3628 
Q 1147 3294 1340 3103 
Q 1534 2913 2163 2725 
L 2741 2553 
Q 3375 2363 3645 2067 
Q 3916 1772 3916 1275 
Q 3916 597 3481 253 
Q 3047 -91 2188 -91 
Q 1803 -91 1404 -12 
Q 1006 66 594 225 
z
" transform="scale(0.015625)"/>
       <path id="DejaVuSerif-65" d="M 3469 1600 
L 991 1600 
L 991 1575 
Q 991 903 1244 561 
Q 1497 219 1991 219 
Q 2369 219 2611 417 
Q 2853 616 2950 1006 
L 3413 1006 
Q 3275 459 2904 184 
Q 2534 -91 1931 -91 
Q 1203 -91 761 389 
Q 319 869 319 1663 
Q 319 2450 753 2931 
Q 1188 3413 1894 3413 
Q 2647 3413 3050 2948 
Q 3453 2484 3469 1600 
z
M 2791 1931 
Q 2772 2513 2545 2808 
Q 2319 3103 1894 3103 
Q 1497 3103 1269 2806 
Q 1041 2509 991 1931 
L 2791 1931 
z
" transform="scale(0.015625)"/>
       <path id="DejaVuSerif-71" d="M 3359 2988 
L 3359 -997 
L 3909 -997 
L 3909 -1331 
L 2241 -1331 
L 2241 -997 
L 2784 -997 
L 2784 519 
Q 2616 206 2355 57 
Q 2094 -91 1709 -91 
Q 1097 -91 708 395 
Q 319 881 319 1663 
Q 319 2444 706 2928 
Q 1094 3413 1709 3413 
Q 2094 3413 2355 3264 
Q 2616 3116 2784 2803 
L 2784 3322 
L 3909 3322 
L 3909 2988 
L 3359 2988 
z
M 2784 1825 
Q 2784 2422 2554 2737 
Q 2325 3053 1888 3053 
Q 1444 3053 1217 2703 
Q 991 2353 991 1663 
Q 991 975 1217 622 
Q 1444 269 1888 269 
Q 2325 269 2554 583 
Q 2784 897 2784 1497 
L 2784 1825 
z
" transform="scale(0.015625)"/>
       <path id="DejaVuSerif-75" d="M 2266 3322 
L 3341 3322 
L 3341 331 
L 3884 331 
L 3884 0 
L 2766 0 
L 2766 588 
Q 2606 256 2353 82 
Q 2100 -91 1766 -91 
Q 1213 -91 952 223 
Q 691 538 691 1209 
L 691 2988 
L 172 2988 
L 172 3322 
L 1269 3322 
L 1269 1388 
Q 1269 781 1417 556 
Q 1566 331 1947 331 
Q 2347 331 2556 625 
Q 2766 919 2766 1478 
L 2766 2988 
L 2266 2988 
L 2266 3322 
z
" transform="scale(0.015625)"/>
       <path id="DejaVuSerif-73" d="M 359 184 
L 359 959 
L 691 959 
Q 703 588 923 403 
Q 1144 219 1575 219 
Q 1963 219 2166 364 
Q 2369 509 2369 788 
Q 2369 1006 2220 1140 
Q 2072 1275 1594 1428 
L 1178 1569 
Q 750 1706 558 1912 
Q 366 2119 366 2438 
Q 366 2894 700 3153 
Q 1034 3413 1625 3413 
Q 1888 3413 2178 3344 
Q 2469 3275 2778 3144 
L 2778 2419 
L 2447 2419 
Q 2434 2741 2221 2922 
Q 2009 3103 1644 3103 
Q 1281 3103 1095 2975 
Q 909 2847 909 2591 
Q 909 2381 1050 2254 
Q 1191 2128 1613 1997 
L 2069 1856 
Q 2541 1709 2748 1489 
Q 2956 1269 2956 922 
Q 2956 450 2595 179 
Q 2234 -91 1600 -91 
Q 1278 -91 972 -22 
Q 666 47 359 184 
z
" transform="scale(0.015625)"/>
       <path id="DejaVuSerif-74" d="M 691 2988 
L 184 2988 
L 184 3322 
L 691 3322 
L 691 4353 
L 1269 4353 
L 1269 3322 
L 2350 3322 
L 2350 2988 
L 1269 2988 
L 1269 878 
Q 1269 456 1350 337 
Q 1431 219 1650 219 
Q 1875 219 1978 351 
Q 2081 484 2088 781 
L 2522 781 
Q 2497 328 2275 118 
Q 2053 -91 1600 -91 
Q 1103 -91 897 129 
Q 691 350 691 878 
L 691 2988 
z
" transform="scale(0.015625)"/>
       <path id="DejaVuSerif-72" d="M 3059 3328 
L 3059 2497 
L 2728 2497 
Q 2713 2744 2591 2866 
Q 2469 2988 2234 2988 
Q 1809 2988 1582 2694 
Q 1356 2400 1356 1850 
L 1356 331 
L 2022 331 
L 2022 0 
L 263 0 
L 263 331 
L 781 331 
L 781 2994 
L 231 2994 
L 231 3322 
L 1356 3322 
L 1356 2731 
Q 1525 3078 1790 3245 
Q 2056 3413 2438 3413 
Q 2578 3413 2733 3391 
Q 2888 3369 3059 3328 
z
" transform="scale(0.015625)"/>
       <path id="DejaVuSerif-61" d="M 2547 1044 
L 2547 1747 
L 1806 1747 
Q 1378 1747 1168 1562 
Q 959 1378 959 997 
Q 959 650 1171 447 
Q 1384 244 1747 244 
Q 2106 244 2326 466 
Q 2547 688 2547 1044 
z
M 3122 2075 
L 3122 331 
L 3634 331 
L 3634 0 
L 2547 0 
L 2547 359 
Q 2356 128 2106 18 
Q 1856 -91 1522 -91 
Q 969 -91 644 203 
Q 319 497 319 997 
Q 319 1513 691 1797 
Q 1063 2081 1741 2081 
L 2547 2081 
L 2547 2309 
Q 2547 2688 2317 2895 
Q 2088 3103 1672 3103 
Q 1328 3103 1125 2947 
Q 922 2791 872 2484 
L 575 2484 
L 575 3156 
Q 875 3284 1158 3348 
Q 1441 3413 1709 3413 
Q 2400 3413 2761 3070 
Q 3122 2728 3122 2075 
z
" transform="scale(0.015625)"/>
       <path id="DejaVuSerif-69" d="M 622 4353 
Q 622 4497 726 4603 
Q 831 4709 978 4709 
Q 1122 4709 1226 4603 
Q 1331 4497 1331 4353 
Q 1331 4206 1228 4103 
Q 1125 4000 978 4000 
Q 831 4000 726 4103 
Q 622 4206 622 4353 
z
M 1356 331 
L 1900 331 
L 1900 0 
L 231 0 
L 231 331 
L 781 331 
L 781 2988 
L 231 2988 
L 231 3322 
L 1356 3322 
L 1356 331 
z
" transform="scale(0.015625)"/>
       <path id="DejaVuSerif-6f" d="M 1925 219 
Q 2388 219 2623 584 
Q 2859 950 2859 1663 
Q 2859 2375 2623 2739 
Q 2388 3103 1925 3103 
Q 1463 3103 1227 2739 
Q 991 2375 991 1663 
Q 991 950 1228 584 
Q 1466 219 1925 219 
z
M 1925 -91 
Q 1200 -91 759 389 
Q 319 869 319 1663 
Q 319 2456 758 2934 
Q 1197 3413 1925 3413 
Q 2653 3413 3092 2934 
Q 3531 2456 3531 1663 
Q 3531 869 3092 389 
Q 2653 -91 1925 -91 
z
" transform="scale(0.015625)"/>
       <path id="DejaVuSerif-6e" d="M 263 0 
L 263 331 
L 781 331 
L 781 2988 
L 231 2988 
L 231 3322 
L 1356 3322 
L 1356 2731 
Q 1516 3069 1770 3241 
Q 2025 3413 2363 3413 
Q 2913 3413 3172 3097 
Q 3431 2781 3431 2113 
L 3431 331 
L 3944 331 
L 3944 0 
L 2356 0 
L 2356 331 
L 2853 331 
L 2853 1931 
Q 2853 2541 2703 2767 
Q 2553 2994 2175 2994 
Q 1775 2994 1565 2701 
Q 1356 2409 1356 1850 
L 1356 331 
L 1856 331 
L 1856 0 
L 263 0 
z
" transform="scale(0.015625)"/>
       <path id="DejaVuSerif-20" transform="scale(0.015625)"/>
      </defs>
      <use xlink:href="#DejaVuSerif-53"/>
      <use xlink:href="#DejaVuSerif-65" transform="translate(68.505859 0)"/>
      <use xlink:href="#DejaVuSerif-71" transform="translate(127.685547 0)"/>
      <use xlink:href="#DejaVuSerif-75" transform="translate(191.699219 0)"/>
      <use xlink:href="#DejaVuSerif-65" transform="translate(256.103516 0)"/>
      <use xlink:href="#DejaVuSerif-73" transform="translate(315.283203 0)"/>
      <use xlink:href="#DejaVuSerif-74" transform="translate(366.601562 0)"/>
      <use xlink:href="#DejaVuSerif-72" transform="translate(406.787109 0)"/>
      <use xlink:href="#DejaVuSerif-61" transform="translate(454.589844 0)"/>
      <use xlink:href="#DejaVuSerif-74" transform="translate(514.208984 0)"/>
      <use xlink:href="#DejaVuSerif-69" transform="translate(554.394531 0)"/>
      <use xlink:href="#DejaVuSerif-6f" transform="translate(586.376953 0)"/>
      <use xlink:href="#DejaVuSerif-6e" transform="translate(646.582031 0)"/>
      <use xlink:href="#DejaVuSerif-20" transform="translate(710.986328 0)"/>
      <use xlink:href="#DejaVuSerif-72" transform="translate(742.773438 0)"/>
      <use xlink:href="#DejaVuSerif-61" transform="translate(790.576172 0)"/>
      <use xlink:href="#DejaVuSerif-74" transform="translate(850.195312 0)"/>
      <use xlink:href="#DejaVuSerif-65" transform="translate(890.380859 0)"/>
     </g>
    </g>
   </g>
   <g id="FillBetweenPolyCollection_1">
    <defs>
     <path id="m5795b8ccdd" d="M 53.161023 -455.188466 
L 53.161023 -270.470284 
L 54.092777 -270.470284 
L 55.024532 -270.470284 
L 55.956286 -270.470284 
L 56.88804 -270.470284 
L 57.819795 -270.470284 
L 58.751549 -270.470284 
L 59.683304 -270.470284 
L 60.615058 -270.470284 
L 61.546812 -270.470284 
L 62.478567 -270.470284 
L 63.410321 -270.470284 
L 64.342076 -270.470284 
L 65.27383 -270.470284 
L 66.205585 -270.470284 
L 67.137339 -270.470284 
L 68.069093 -270.470284 
L 69.000848 -270.470284 
L 69.932602 -270.470284 
L 70.864357 -270.470284 
L 71.796111 -270.470284 
L 72.727866 -270.470284 
L 73.65962 -270.470284 
L 74.591374 -270.470284 
L 75.523129 -270.470284 
L 76.454883 -270.470284 
L 77.386638 -270.470284 
L 78.318392 -270.470284 
L 79.250146 -270.470284 
L 80.181901 -270.470284 
L 81.113655 -270.470284 
L 82.04541 -270.470284 
L 82.977164 -270.470284 
L 83.908919 -270.470284 
L 84.840673 -270.470284 
L 85.772427 -270.470284 
L 86.704182 -270.470284 
L 87.635936 -270.470284 
L 88.567691 -270.470284 
L 89.499445 -270.470284 
L 90.431199 -270.470284 
L 91.362954 -270.470284 
L 92.294708 -270.470284 
L 93.226463 -270.470284 
L 94.158217 -270.470284 
L 95.089972 -270.470284 
L 96.021726 -270.470284 
L 96.95348 -270.470284 
L 97.885235 -270.470284 
L 98.816989 -270.470284 
L 99.748744 -270.470284 
L 100.680498 -270.470284 
L 101.612252 -270.470284 
L 102.544007 -270.470284 
L 103.475761 -270.470284 
L 104.407516 -270.470284 
L 105.33927 -270.470284 
L 106.271025 -270.470284 
L 107.202779 -270.470284 
L 108.134533 -270.470284 
L 109.066288 -270.470284 
L 109.998042 -270.470284 
L 110.929797 -270.470284 
L 111.861551 -270.470284 
L 112.793305 -270.470284 
L 113.72506 -270.470284 
L 114.656814 -270.470284 
L 115.588569 -270.470284 
L 116.520323 -270.470284 
L 117.452078 -270.470284 
L 118.383832 -270.470284 
L 119.315586 -270.470284 
L 120.247341 -270.470284 
L 121.179095 -270.470284 
L 122.11085 -270.470284 
L 123.042604 -270.470284 
L 123.974358 -270.470284 
L 124.906113 -270.470284 
L 125.837867 -270.470284 
L 126.769622 -270.470284 
L 127.701376 -270.470284 
L 128.633131 -270.470284 
L 129.564885 -270.470284 
L 130.496639 -270.470284 
L 131.428394 -270.470284 
L 132.360148 -270.470284 
L 133.291903 -270.470284 
L 134.223657 -270.470284 
L 135.155412 -270.470284 
L 136.087166 -270.470284 
L 137.01892 -270.470284 
L 137.950675 -270.470284 
L 138.882429 -270.470284 
L 139.814184 -270.470284 
L 140.745938 -270.470284 
L 141.677692 -270.470284 
L 142.609447 -270.470284 
L 143.541201 -270.470284 
L 144.472956 -270.470284 
L 145.40471 -270.470284 
L 146.336465 -270.470284 
L 147.268219 -270.470284 
L 148.199973 -270.470284 
L 149.131728 -270.470284 
L 150.063482 -270.470284 
L 150.995237 -270.470284 
L 151.926991 -270.470284 
L 152.858745 -270.470284 
L 153.7905 -270.470284 
L 154.722254 -270.470284 
L 155.654009 -270.470284 
L 156.585763 -270.470284 
L 157.517518 -270.470284 
L 158.449272 -270.470284 
L 159.381026 -270.470284 
L 160.312781 -270.470284 
L 161.244535 -270.470284 
L 162.17629 -270.470284 
L 163.108044 -270.470284 
L 164.039798 -270.470284 
L 164.971553 -270.470284 
L 165.903307 -270.470284 
L 166.835062 -270.470284 
L 167.766816 -270.470284 
L 168.698571 -270.470284 
L 169.630325 -270.470284 
L 170.562079 -270.470284 
L 171.493834 -270.470284 
L 172.425588 -270.470284 
L 173.357343 -270.470284 
L 174.289097 -270.470284 
L 175.220851 -270.470284 
L 176.152606 -270.470284 
L 177.08436 -270.470284 
L 178.016115 -270.470284 
L 178.947869 -270.470284 
L 179.879624 -270.470284 
L 180.811378 -270.470284 
L 181.743132 -270.470284 
L 182.674887 -270.470284 
L 183.606641 -270.470284 
L 184.538396 -270.470284 
L 185.47015 -270.470284 
L 186.401904 -270.470284 
L 187.333659 -270.470284 
L 188.265413 -270.470284 
L 189.197168 -270.470284 
L 190.128922 -270.470284 
L 191.060677 -270.470284 
L 191.992431 -270.470284 
L 192.924185 -270.470284 
L 193.85594 -270.470284 
L 194.787694 -270.470284 
L 195.719449 -270.470284 
L 196.651203 -270.470284 
L 197.582958 -270.470284 
L 198.514712 -270.470284 
L 199.446466 -270.470284 
L 200.378221 -270.470284 
L 201.309975 -270.470284 
L 202.24173 -270.470284 
L 203.173484 -270.470284 
L 204.105238 -270.470284 
L 205.036993 -270.470284 
L 205.968747 -270.470284 
L 206.900502 -270.470284 
L 207.832256 -270.470284 
L 208.764011 -270.470284 
L 209.695765 -270.470284 
L 210.627519 -270.470284 
L 211.559274 -270.470284 
L 212.491028 -270.470284 
L 213.422783 -270.470284 
L 214.354537 -270.470284 
L 215.286291 -270.470284 
L 216.218046 -270.470284 
L 217.1498 -270.470284 
L 218.081555 -270.470284 
L 219.013309 -270.470284 
L 219.945064 -270.470284 
L 220.876818 -270.470284 
L 221.808572 -270.470284 
L 222.740327 -270.470284 
L 223.672081 -270.470284 
L 224.603836 -270.470284 
L 225.53559 -270.470284 
L 226.467344 -270.470284 
L 227.399099 -270.470284 
L 228.330853 -270.470284 
L 229.262608 -270.470284 
L 230.194362 -270.470284 
L 231.126117 -270.470284 
L 232.057871 -270.470284 
L 232.989625 -270.470284 
L 233.92138 -270.470284 
L 234.853134 -270.470284 
L 235.784889 -270.470284 
L 236.716643 -270.470284 
L 237.648397 -270.470284 
L 238.580152 -270.470284 
L 239.511906 -270.470284 
L 240.443661 -270.470284 
L 241.375415 -270.470284 
L 242.30717 -270.470284 
L 243.238924 -270.470284 
L 244.170678 -270.470284 
L 245.102433 -270.470284 
L 246.034187 -270.470284 
L 246.965942 -270.470284 
L 247.897696 -270.470284 
L 248.82945 -270.470284 
L 249.761205 -270.470284 
L 250.692959 -270.470284 
L 251.624714 -270.470284 
L 252.556468 -270.470284 
L 253.488223 -270.470284 
L 254.419977 -270.470284 
L 255.351731 -270.470284 
L 256.283486 -270.470284 
L 257.21524 -270.470284 
L 258.146995 -270.470284 
L 259.078749 -270.470284 
L 260.010504 -270.470284 
L 260.942258 -270.470284 
L 261.874012 -270.470284 
L 262.805767 -270.470284 
L 263.737521 -270.470284 
L 264.669276 -270.470284 
L 265.60103 -270.470284 
L 266.532784 -270.470284 
L 267.464539 -270.470284 
L 268.396293 -270.470284 
L 269.328048 -270.470284 
L 270.259802 -270.470284 
L 271.191557 -270.470284 
L 272.123311 -270.470284 
L 273.055065 -270.470284 
L 273.98682 -270.470284 
L 274.918574 -270.470284 
L 275.850329 -270.470284 
L 276.782083 -270.470284 
L 277.713837 -270.470284 
L 278.645592 -270.470284 
L 279.577346 -270.470284 
L 280.509101 -270.470284 
L 281.440855 -270.470284 
L 282.37261 -270.470284 
L 283.304364 -270.470284 
L 284.236118 -270.470284 
L 285.167873 -270.470284 
L 286.099627 -270.470284 
L 287.031382 -270.470284 
L 287.963136 -270.470284 
L 288.89489 -270.470284 
L 289.826645 -270.470284 
L 290.758399 -270.470284 
L 291.690154 -270.470284 
L 292.621908 -270.470284 
L 293.553663 -270.470284 
L 294.485417 -270.470284 
L 295.417171 -270.470284 
L 296.348926 -270.470284 
L 297.28068 -270.470284 
L 298.212435 -270.470284 
L 299.144189 -270.470284 
L 300.075943 -270.470284 
L 301.007698 -270.470284 
L 301.939452 -270.470284 
L 302.871207 -270.470284 
L 303.802961 -270.470284 
L 304.734716 -270.470284 
L 305.66647 -270.470284 
L 306.598224 -270.470284 
L 307.529979 -270.470284 
L 308.461733 -270.470284 
L 309.393488 -270.470284 
L 310.325242 -270.470284 
L 311.256996 -270.470284 
L 312.188751 -270.470284 
L 313.120505 -270.470284 
L 314.05226 -270.470284 
L 314.984014 -270.470284 
L 315.915769 -270.470284 
L 316.847523 -270.470284 
L 317.779277 -270.470284 
L 318.711032 -270.470284 
L 319.642786 -270.470284 
L 320.574541 -270.470284 
L 321.506295 -270.470284 
L 322.43805 -270.470284 
L 323.369804 -270.470284 
L 324.301558 -270.470284 
L 325.233313 -270.470284 
L 326.165067 -270.470284 
L 327.096822 -270.470284 
L 328.028576 -270.470284 
L 328.96033 -270.470284 
L 329.892085 -270.470284 
L 330.823839 -270.470284 
L 331.755594 -270.470284 
L 332.687348 -270.470284 
L 333.619103 -270.470284 
L 334.550857 -270.470284 
L 335.482611 -270.470284 
L 336.414366 -270.470284 
L 337.34612 -270.470284 
L 338.277875 -270.470284 
L 339.209629 -270.470284 
L 340.141383 -270.470284 
L 341.073138 -270.470284 
L 342.004892 -270.470284 
L 342.936647 -270.470284 
L 343.868401 -270.470284 
L 344.800156 -270.470284 
L 345.73191 -270.470284 
L 346.663664 -270.470284 
L 347.595419 -270.470284 
L 348.527173 -270.470284 
L 349.458928 -270.470284 
L 350.390682 -270.470284 
L 351.322436 -270.470284 
L 352.254191 -270.470284 
L 353.185945 -270.470284 
L 354.1177 -270.470284 
L 355.049454 -270.470284 
L 355.981209 -270.470284 
L 356.912963 -270.470284 
L 357.844717 -270.470284 
L 358.776472 -270.470284 
L 359.708226 -270.470284 
L 360.639981 -270.470284 
L 361.571735 -270.470284 
L 362.503489 -270.470284 
L 363.435244 -270.470284 
L 364.366998 -270.470284 
L 365.298753 -270.470284 
L 366.230507 -270.470284 
L 367.162262 -270.470284 
L 368.094016 -270.470284 
L 369.02577 -270.470284 
L 369.957525 -270.470284 
L 370.889279 -270.470284 
L 371.821034 -270.470284 
L 372.752788 -270.470284 
L 373.684542 -270.470284 
L 374.616297 -270.470284 
L 375.548051 -270.470284 
L 376.479806 -270.470284 
L 377.41156 -270.470284 
L 378.343315 -270.470284 
L 379.275069 -270.470284 
L 380.206823 -270.470284 
L 381.138578 -270.470284 
L 382.070332 -270.470284 
L 383.002087 -270.470284 
L 383.933841 -270.470284 
L 384.865596 -270.470284 
L 385.79735 -270.470284 
L 386.729104 -270.470284 
L 387.660859 -270.470284 
L 388.592613 -270.470284 
L 389.524368 -270.470284 
L 390.456122 -270.470284 
L 391.387876 -270.470284 
L 392.319631 -270.470284 
L 393.251385 -270.470284 
L 394.18314 -270.470284 
L 395.114894 -270.470284 
L 396.046649 -270.470284 
L 396.978403 -270.470284 
L 397.910157 -270.470284 
L 398.841912 -270.470284 
L 399.773666 -270.470284 
L 400.705421 -270.470284 
L 401.637175 -270.470284 
L 402.568929 -270.470284 
L 403.500684 -270.470284 
L 404.432438 -270.470284 
L 405.364193 -270.470284 
L 406.295947 -270.470284 
L 407.227702 -270.470284 
L 408.159456 -270.470284 
L 409.09121 -270.470284 
L 410.022965 -270.470284 
L 410.954719 -270.470284 
L 411.886474 -270.470284 
L 412.818228 -270.470284 
L 413.749982 -270.470284 
L 414.681737 -270.470284 
L 415.613491 -270.470284 
L 416.545246 -270.470284 
L 417.477 -270.470284 
L 418.408755 -270.470284 
L 419.340509 -270.470284 
L 420.272263 -270.470284 
L 421.204018 -270.470284 
L 422.135772 -270.470284 
L 423.067527 -270.470284 
L 423.999281 -270.470284 
L 424.931035 -270.470284 
L 425.86279 -270.470284 
L 426.794544 -270.470284 
L 427.726299 -270.470284 
L 428.658053 -270.470284 
L 429.589808 -270.470284 
L 430.521562 -270.470284 
L 431.453316 -270.470284 
L 432.385071 -270.470284 
L 433.316825 -270.470284 
L 434.24858 -270.470284 
L 435.180334 -270.470284 
L 436.112088 -270.470284 
L 437.043843 -270.470284 
L 437.975597 -270.470284 
L 438.907352 -270.470284 
L 439.839106 -270.470284 
L 440.770861 -270.470284 
L 441.702615 -270.470284 
L 442.634369 -270.470284 
L 443.566124 -270.470284 
L 444.497878 -270.470284 
L 445.429633 -270.470284 
L 446.361387 -270.470284 
L 447.293142 -270.470284 
L 448.224896 -270.470284 
L 449.15665 -270.470284 
L 450.088405 -270.470284 
L 451.020159 -270.470284 
L 451.951914 -270.470284 
L 452.883668 -270.470284 
L 453.815422 -270.470284 
L 454.747177 -270.470284 
L 455.678931 -270.470284 
L 456.610686 -270.470284 
L 457.54244 -270.470284 
L 458.474195 -270.470284 
L 459.405949 -270.470284 
L 460.337703 -270.470284 
L 461.269458 -270.470284 
L 462.201212 -270.470284 
L 463.132967 -270.470284 
L 464.064721 -270.470284 
L 464.996475 -270.470284 
L 465.92823 -270.470284 
L 466.859984 -270.470284 
L 467.791739 -270.470284 
L 468.723493 -270.470284 
L 469.655248 -270.470284 
L 470.587002 -270.470284 
L 471.518756 -270.470284 
L 472.450511 -270.470284 
L 473.382265 -270.470284 
L 474.31402 -270.470284 
L 475.245774 -270.470284 
L 476.177528 -270.470284 
L 477.109283 -270.470284 
L 478.041037 -270.470284 
L 478.972792 -270.470284 
L 479.904546 -270.470284 
L 480.836301 -270.470284 
L 481.768055 -270.470284 
L 482.699809 -270.470284 
L 483.631564 -270.470284 
L 484.563318 -270.470284 
L 485.495073 -270.470284 
L 486.426827 -270.470284 
L 487.358581 -270.470284 
L 488.290336 -270.470284 
L 489.22209 -270.470284 
L 490.153845 -270.470284 
L 491.085599 -270.470284 
L 492.017354 -270.470284 
L 492.949108 -270.470284 
L 493.880862 -270.470284 
L 494.812617 -270.470284 
L 495.744371 -270.470284 
L 496.676126 -270.470284 
L 497.60788 -270.470284 
L 498.539634 -270.470284 
L 499.471389 -270.470284 
L 500.403143 -270.470284 
L 501.334898 -270.470284 
L 502.266652 -270.470284 
L 503.198407 -270.470284 
L 504.130161 -270.470284 
L 505.061915 -270.470284 
L 505.99367 -270.470284 
L 506.925424 -270.470284 
L 507.857179 -270.470284 
L 508.788933 -270.470284 
L 509.720688 -270.470284 
L 510.652442 -270.470284 
L 511.584196 -270.470284 
L 512.515951 -270.470284 
L 513.447705 -270.470284 
L 514.37946 -270.470284 
L 515.311214 -270.470284 
L 516.242968 -270.470284 
L 517.174723 -270.470284 
L 518.106477 -270.470284 
L 518.106477 -295.469172 
L 518.106477 -295.469172 
L 517.174723 -295.569569 
L 516.242968 -295.670369 
L 515.311214 -295.771574 
L 514.37946 -295.873185 
L 513.447705 -295.975205 
L 512.515951 -296.077634 
L 511.584196 -296.180475 
L 510.652442 -296.283728 
L 509.720688 -296.387397 
L 508.788933 -296.491481 
L 507.857179 -296.595984 
L 506.925424 -296.700906 
L 505.99367 -296.80625 
L 505.061915 -296.912017 
L 504.130161 -297.018208 
L 503.198407 -297.124826 
L 502.266652 -297.231873 
L 501.334898 -297.339349 
L 500.403143 -297.447256 
L 499.471389 -297.555598 
L 498.539634 -297.664374 
L 497.60788 -297.773587 
L 496.676126 -297.883239 
L 495.744371 -297.993331 
L 494.812617 -298.103865 
L 493.880862 -298.214843 
L 492.949108 -298.326267 
L 492.017354 -298.438138 
L 491.085599 -298.550458 
L 490.153845 -298.66323 
L 489.22209 -298.776455 
L 488.290336 -298.890134 
L 487.358581 -299.00427 
L 486.426827 -299.118864 
L 485.495073 -299.233918 
L 484.563318 -299.349435 
L 483.631564 -299.465415 
L 482.699809 -299.581861 
L 481.768055 -299.698775 
L 480.836301 -299.816158 
L 479.904546 -299.934013 
L 478.972792 -300.052341 
L 478.041037 -300.171144 
L 477.109283 -300.290425 
L 476.177528 -300.410184 
L 475.245774 -300.530425 
L 474.31402 -300.651148 
L 473.382265 -300.772356 
L 472.450511 -300.894051 
L 471.518756 -301.016235 
L 470.587002 -301.138909 
L 469.655248 -301.262076 
L 468.723493 -301.385738 
L 467.791739 -301.509896 
L 466.859984 -301.634553 
L 465.92823 -301.75971 
L 464.996475 -301.88537 
L 464.064721 -302.011535 
L 463.132967 -302.138207 
L 462.201212 -302.265387 
L 461.269458 -302.393078 
L 460.337703 -302.521282 
L 459.405949 -302.650001 
L 458.474195 -302.779236 
L 457.54244 -302.908991 
L 456.610686 -303.039267 
L 455.678931 -303.170066 
L 454.747177 -303.30139 
L 453.815422 -303.433242 
L 452.883668 -303.565623 
L 451.951914 -303.698536 
L 451.020159 -303.831982 
L 450.088405 -303.965965 
L 449.15665 -304.100485 
L 448.224896 -304.235546 
L 447.293142 -304.371149 
L 446.361387 -304.507297 
L 445.429633 -304.643992 
L 444.497878 -304.781236 
L 443.566124 -304.91903 
L 442.634369 -305.057379 
L 441.702615 -305.196282 
L 440.770861 -305.335744 
L 439.839106 -305.475766 
L 438.907352 -305.61635 
L 437.975597 -305.757499 
L 437.043843 -305.899214 
L 436.112088 -306.041499 
L 435.180334 -306.184355 
L 434.24858 -306.327785 
L 433.316825 -306.47179 
L 432.385071 -306.616375 
L 431.453316 -306.761539 
L 430.521562 -306.907287 
L 429.589808 -307.05362 
L 428.658053 -307.200541 
L 427.726299 -307.348052 
L 426.794544 -307.496155 
L 425.86279 -307.644853 
L 424.931035 -307.794149 
L 423.999281 -307.944044 
L 423.067527 -308.09454 
L 422.135772 -308.245642 
L 421.204018 -308.39735 
L 420.272263 -308.549667 
L 419.340509 -308.702596 
L 418.408755 -308.856139 
L 417.477 -309.010299 
L 416.545246 -309.165078 
L 415.613491 -309.320479 
L 414.681737 -309.476503 
L 413.749982 -309.633155 
L 412.818228 -309.790435 
L 411.886474 -309.948347 
L 410.954719 -310.106893 
L 410.022965 -310.266076 
L 409.09121 -310.425898 
L 408.159456 -310.586363 
L 407.227702 -310.747471 
L 406.295947 -310.909227 
L 405.364193 -311.071632 
L 404.432438 -311.234689 
L 403.500684 -311.398401 
L 402.568929 -311.562771 
L 401.637175 -311.727801 
L 400.705421 -311.893494 
L 399.773666 -312.059852 
L 398.841912 -312.226878 
L 397.910157 -312.394575 
L 396.978403 -312.562945 
L 396.046649 -312.731992 
L 395.114894 -312.901717 
L 394.18314 -313.072124 
L 393.251385 -313.243216 
L 392.319631 -313.414995 
L 391.387876 -313.587463 
L 390.456122 -313.760624 
L 389.524368 -313.934481 
L 388.592613 -314.109036 
L 387.660859 -314.284291 
L 386.729104 -314.460251 
L 385.79735 -314.636917 
L 384.865596 -314.814293 
L 383.933841 -314.992381 
L 383.002087 -315.171185 
L 382.070332 -315.350706 
L 381.138578 -315.530948 
L 380.206823 -315.711915 
L 379.275069 -315.893608 
L 378.343315 -316.076031 
L 377.41156 -316.259186 
L 376.479806 -316.443077 
L 375.548051 -316.627706 
L 374.616297 -316.813077 
L 373.684542 -316.999193 
L 372.752788 -317.186055 
L 371.821034 -317.373669 
L 370.889279 -317.562035 
L 369.957525 -317.751159 
L 369.02577 -317.941041 
L 368.094016 -318.131687 
L 367.162262 -318.323098 
L 366.230507 -318.515278 
L 365.298753 -318.708229 
L 364.366998 -318.901955 
L 363.435244 -319.09646 
L 362.503489 -319.291746 
L 361.571735 -319.487815 
L 360.639981 -319.684673 
L 359.708226 -319.882321 
L 358.776472 -320.080762 
L 357.844717 -320.280001 
L 356.912963 -320.48004 
L 355.981209 -320.680882 
L 355.049454 -320.88253 
L 354.1177 -321.084989 
L 353.185945 -321.288261 
L 352.254191 -321.492349 
L 351.322436 -321.697256 
L 350.390682 -321.902987 
L 349.458928 -322.109543 
L 348.527173 -322.31693 
L 347.595419 -322.525149 
L 346.663664 -322.734204 
L 345.73191 -322.944099 
L 344.800156 -323.154837 
L 343.868401 -323.366422 
L 342.936647 -323.578856 
L 342.004892 -323.792143 
L 341.073138 -324.006286 
L 340.141383 -324.22129 
L 339.209629 -324.437157 
L 338.277875 -324.653891 
L 337.34612 -324.871496 
L 336.414366 -325.089975 
L 335.482611 -325.30933 
L 334.550857 -325.529567 
L 333.619103 -325.750689 
L 332.687348 -325.972698 
L 331.755594 -326.195599 
L 330.823839 -326.419395 
L 329.892085 -326.64409 
L 328.96033 -326.869687 
L 328.028576 -327.096191 
L 327.096822 -327.323604 
L 326.165067 -327.55193 
L 325.233313 -327.781173 
L 324.301558 -328.011337 
L 323.369804 -328.242425 
L 322.43805 -328.474442 
L 321.506295 -328.70739 
L 320.574541 -328.941273 
L 319.642786 -329.176096 
L 318.711032 -329.411862 
L 317.779277 -329.648575 
L 316.847523 -329.886239 
L 315.915769 -330.124857 
L 314.984014 -330.364433 
L 314.05226 -330.604971 
L 313.120505 -330.846476 
L 312.188751 -331.08895 
L 311.256996 -331.332398 
L 310.325242 -331.576824 
L 309.393488 -331.822232 
L 308.461733 -332.068625 
L 307.529979 -332.316007 
L 306.598224 -332.564383 
L 305.66647 -332.813757 
L 304.734716 -333.064132 
L 303.802961 -333.315512 
L 302.871207 -333.567902 
L 301.939452 -333.821306 
L 301.007698 -334.075728 
L 300.075943 -334.331171 
L 299.144189 -334.58764 
L 298.212435 -334.845139 
L 297.28068 -335.103672 
L 296.348926 -335.363244 
L 295.417171 -335.623858 
L 294.485417 -335.885518 
L 293.553663 -336.14823 
L 292.621908 -336.411996 
L 291.690154 -336.676822 
L 290.758399 -336.942711 
L 289.826645 -337.209669 
L 288.89489 -337.477698 
L 287.963136 -337.746804 
L 287.031382 -338.01699 
L 286.099627 -338.288262 
L 285.167873 -338.560623 
L 284.236118 -338.834077 
L 283.304364 -339.10863 
L 282.37261 -339.384286 
L 281.440855 -339.661049 
L 280.509101 -339.938923 
L 279.577346 -340.217913 
L 278.645592 -340.498024 
L 277.713837 -340.779259 
L 276.782083 -341.061624 
L 275.850329 -341.345123 
L 274.918574 -341.629761 
L 273.98682 -341.915541 
L 273.055065 -342.20247 
L 272.123311 -342.49055 
L 271.191557 -342.779788 
L 270.259802 -343.070187 
L 269.328048 -343.361753 
L 268.396293 -343.654489 
L 267.464539 -343.948401 
L 266.532784 -344.243494 
L 265.60103 -344.539771 
L 264.669276 -344.837239 
L 263.737521 -345.135901 
L 262.805767 -345.435762 
L 261.874012 -345.736828 
L 260.942258 -346.039103 
L 260.010504 -346.342592 
L 259.078749 -346.647299 
L 258.146995 -346.953231 
L 257.21524 -347.260391 
L 256.283486 -347.568784 
L 255.351731 -347.878416 
L 254.419977 -348.189292 
L 253.488223 -348.501416 
L 252.556468 -348.814794 
L 251.624714 -349.12943 
L 250.692959 -349.44533 
L 249.761205 -349.762498 
L 248.82945 -350.08094 
L 247.897696 -350.400661 
L 246.965942 -350.721666 
L 246.034187 -351.043961 
L 245.102433 -351.367549 
L 244.170678 -351.692438 
L 243.238924 -352.01863 
L 242.30717 -352.346133 
L 241.375415 -352.674952 
L 240.443661 -353.00509 
L 239.511906 -353.336555 
L 238.580152 -353.669351 
L 237.648397 -354.003483 
L 236.716643 -354.338958 
L 235.784889 -354.675779 
L 234.853134 -355.013953 
L 233.92138 -355.353486 
L 232.989625 -355.694382 
L 232.057871 -356.036647 
L 231.126117 -356.380286 
L 230.194362 -356.725306 
L 229.262608 -357.071711 
L 228.330853 -357.419507 
L 227.399099 -357.768701 
L 226.467344 -358.119296 
L 225.53559 -358.4713 
L 224.603836 -358.824717 
L 223.672081 -359.179554 
L 222.740327 -359.535815 
L 221.808572 -359.893508 
L 220.876818 -360.252637 
L 219.945064 -360.613208 
L 219.013309 -360.975227 
L 218.081555 -361.3387 
L 217.1498 -361.703633 
L 216.218046 -362.070032 
L 215.286291 -362.437902 
L 214.354537 -362.807249 
L 213.422783 -363.17808 
L 212.491028 -363.5504 
L 211.559274 -363.924215 
L 210.627519 -364.299531 
L 209.695765 -364.676355 
L 208.764011 -365.054692 
L 207.832256 -365.434549 
L 206.900502 -365.815931 
L 205.968747 -366.198845 
L 205.036993 -366.583296 
L 204.105238 -366.969292 
L 203.173484 -367.356837 
L 202.24173 -367.74594 
L 201.309975 -368.136604 
L 200.378221 -368.528838 
L 199.446466 -368.922647 
L 198.514712 -369.318037 
L 197.582958 -369.715016 
L 196.651203 -370.113588 
L 195.719449 -370.513762 
L 194.787694 -370.915542 
L 193.85594 -371.318936 
L 192.924185 -371.723951 
L 191.992431 -372.130591 
L 191.060677 -372.538865 
L 190.128922 -372.948778 
L 189.197168 -373.360338 
L 188.265413 -373.773551 
L 187.333659 -374.188423 
L 186.401904 -374.604961 
L 185.47015 -375.023172 
L 184.538396 -375.443062 
L 183.606641 -375.864639 
L 182.674887 -376.287909 
L 181.743132 -376.712879 
L 180.811378 -377.139555 
L 179.879624 -377.567946 
L 178.947869 -377.998056 
L 178.016115 -378.429894 
L 177.08436 -378.863466 
L 176.152606 -379.298779 
L 175.220851 -379.735841 
L 174.289097 -380.174658 
L 173.357343 -380.615237 
L 172.425588 -381.057586 
L 171.493834 -381.501711 
L 170.562079 -381.94762 
L 169.630325 -382.395319 
L 168.698571 -382.844817 
L 167.766816 -383.296119 
L 166.835062 -383.749235 
L 165.903307 -384.20417 
L 164.971553 -384.660932 
L 164.039798 -385.119528 
L 163.108044 -385.579966 
L 162.17629 -386.042253 
L 161.244535 -386.506397 
L 160.312781 -386.972405 
L 159.381026 -387.440284 
L 158.449272 -387.910043 
L 157.517518 -388.381688 
L 156.585763 -388.855227 
L 155.654009 -389.330668 
L 154.722254 -389.808018 
L 153.7905 -390.287286 
L 152.858745 -390.768478 
L 151.926991 -391.251602 
L 150.995237 -391.736667 
L 150.063482 -392.22368 
L 149.131728 -392.712649 
L 148.199973 -393.203581 
L 147.268219 -393.696486 
L 146.336465 -394.191369 
L 145.40471 -394.68824 
L 144.472956 -395.187107 
L 143.541201 -395.687977 
L 142.609447 -396.190859 
L 141.677692 -396.69576 
L 140.745938 -397.202689 
L 139.814184 -397.711654 
L 138.882429 -398.222663 
L 137.950675 -398.735724 
L 137.01892 -399.250845 
L 136.087166 -399.768036 
L 135.155412 -400.287303 
L 134.223657 -400.808656 
L 133.291903 -401.332102 
L 132.360148 -401.857651 
L 131.428394 -402.38531 
L 130.496639 -402.915089 
L 129.564885 -403.446995 
L 128.633131 -403.981037 
L 127.701376 -404.517224 
L 126.769622 -405.055565 
L 125.837867 -405.596067 
L 124.906113 -406.13874 
L 123.974358 -406.683593 
L 123.042604 -407.230634 
L 122.11085 -407.779871 
L 121.179095 -408.331315 
L 120.247341 -408.884973 
L 119.315586 -409.440854 
L 118.383832 -409.998968 
L 117.452078 -410.559323 
L 116.520323 -411.121929 
L 115.588569 -411.686795 
L 114.656814 -412.253928 
L 113.72506 -412.82334 
L 112.793305 -413.395038 
L 111.861551 -413.969032 
L 110.929797 -414.545332 
L 109.998042 -415.123946 
L 109.066288 -415.704883 
L 108.134533 -416.288154 
L 107.202779 -416.873767 
L 106.271025 -417.461732 
L 105.33927 -418.052058 
L 104.407516 -418.644756 
L 103.475761 -419.239833 
L 102.544007 -419.8373 
L 101.612252 -420.437167 
L 100.680498 -421.039443 
L 99.748744 -421.644137 
L 98.816989 -422.25126 
L 97.885235 -422.860822 
L 96.95348 -423.472831 
L 96.021726 -424.087298 
L 95.089972 -424.704233 
L 94.158217 -425.323646 
L 93.226463 -425.945546 
L 92.294708 -426.569944 
L 91.362954 -427.196849 
L 90.431199 -427.826273 
L 89.499445 -428.458223 
L 88.567691 -429.092712 
L 87.635936 -429.729749 
L 86.704182 -430.369345 
L 85.772427 -431.011509 
L 84.840673 -431.656252 
L 83.908919 -432.303584 
L 82.977164 -432.953516 
L 82.04541 -433.606058 
L 81.113655 -434.261221 
L 80.181901 -434.919015 
L 79.250146 -435.579451 
L 78.318392 -436.242539 
L 77.386638 -436.90829 
L 76.454883 -437.576715 
L 75.523129 -438.247824 
L 74.591374 -438.921629 
L 73.65962 -439.598139 
L 72.727866 -440.277367 
L 71.796111 -440.959322 
L 70.864357 -441.644016 
L 69.932602 -442.33146 
L 69.000848 -443.021664 
L 68.069093 -443.714641 
L 67.137339 -444.410401 
L 66.205585 -445.108954 
L 65.27383 -445.810313 
L 64.342076 -446.514489 
L 63.410321 -447.221493 
L 62.478567 -447.931336 
L 61.546812 -448.644031 
L 60.615058 -449.359587 
L 59.683304 -450.078017 
L 58.751549 -450.799332 
L 57.819795 -451.523544 
L 56.88804 -452.250665 
L 55.956286 -452.980705 
L 55.024532 -453.713678 
L 54.092777 -454.449594 
L 53.161023 -455.188466 
z
" style="stroke: #059669; stroke-opacity: 0.15"/>
    </defs>
    <g clip-path="url(#p03493538a8)">
     <use xlink:href="#m5795b8ccdd" x="0" y="491.102344" style="fill: #059669; fill-opacity: 0.15; stroke: #059669; stroke-opacity: 0.15"/>
    </g>
   </g>
   <g id="line2d_33">
    <path d="M 53.161023 35.913878 
L 62.478567 43.171007 
L 71.796111 50.143022 
L 81.113655 56.841123 
L 90.431199 63.276071 
L 99.748744 69.458206 
L 109.998042 75.978398 
L 120.247341 82.217371 
L 130.496639 88.187255 
L 140.745938 93.899655 
L 150.995237 99.365677 
L 161.244535 104.595947 
L 172.425588 110.044758 
L 183.606641 115.237705 
L 194.787694 120.186801 
L 205.968747 124.903499 
L 218.081555 129.763643 
L 230.194362 134.377038 
L 242.30717 138.75621 
L 255.351731 143.223927 
L 268.396293 147.447855 
L 281.440855 151.441295 
L 295.417171 155.478486 
L 309.393488 159.280112 
L 323.369804 162.859918 
L 338.277875 166.448452 
L 353.185945 169.814083 
L 369.02577 173.161302 
L 384.865596 176.288051 
L 401.637175 179.374543 
L 419.340509 182.399748 
L 437.043843 185.20313 
L 455.678931 187.932278 
L 475.245774 190.571919 
L 495.744371 193.109013 
L 517.174723 195.532775 
L 518.106477 195.633172 
L 518.106477 195.633172 
" clip-path="url(#p03493538a8)" style="fill: none; stroke: #059669; stroke-width: 2.5; stroke-linecap: round"/>
   </g>
   <g id="patch_3">
    <path d="M 29.91375 229.867969 
L 29.91375 26.677969 
" style="fill: none; stroke: #cccccc; stroke-linejoin: miter; stroke-linecap: square"/>
   </g>
   <g id="patch_4">
    <path d="M 541.35375 229.867969 
L 541.35375 26.677969 
" style="fill: none; stroke: #cccccc; stroke-linejoin: miter; stroke-linecap: square"/>
   </g>
   <g id="patch_5">
    <path d="M 29.91375 229.867969 
L 541.35375 229.867969 
" style="fill: none; stroke: #cccccc; stroke-linejoin: miter; stroke-linecap: square"/>
   </g>
   <g id="patch_6">
    <path d="M 29.91375 26.677969 
L 541.35375 26.677969 
" style="fill: none; stroke: #cccccc; stroke-linejoin: miter; stroke-linecap: square"/>
   </g>
   <g id="text_2">
    <g id="patch_7">
     <path d="M 343.751932 172.34358 
L 387.145213 172.34358 
Q 390.445213 172.34358 390.445213 169.04358 
L 390.445213 158.397642 
Q 390.445213 155.097642 387.145213 155.097642 
L 343.751932 155.097642 
Q 340.451932 155.097642 340.451932 158.397642 
L 340.451932 169.04358 
Q 340.451932 172.34358 343.751932 172.34358 
z
" style="fill: #ffffff; stroke: #059669; stroke-linejoin: miter"/>
    </g>
    <!-- R(t) = ? -->
    <g style="fill: #262626" transform="translate(343.751932 166.755923) scale(0.11 -0.11)">
     <defs>
      <path id="DejaVuSerif-Italic-52" d="M 3066 2316 
Q 3272 2256 3403 2114 
Q 3534 1972 3609 1716 
L 4016 331 
L 4584 331 
L 4522 0 
L 3422 0 
L 2981 1484 
Q 2856 1916 2706 2042 
Q 2556 2169 2250 2169 
L 1553 2169 
L 1194 331 
L 1853 331 
L 1791 0 
L -97 0 
L -34 331 
L 559 331 
L 1338 4331 
L 744 4331 
L 809 4666 
L 3175 4666 
Q 3856 4666 4164 4341 
Q 4472 4016 4356 3419 
Q 4263 2938 3938 2661 
Q 3613 2384 3066 2316 
z
M 1619 2503 
L 2541 2503 
Q 3013 2503 3280 2726 
Q 3547 2950 3639 3419 
Q 3731 3888 3548 4109 
Q 3366 4331 2894 4331 
L 1972 4331 
L 1619 2503 
z
" transform="scale(0.015625)"/>
      <path id="DejaVuSerif-Italic-28" d="M 1472 -997 
Q 778 -656 534 83 
Q 291 822 506 1931 
Q 722 3044 1253 3783 
Q 1784 4522 2609 4863 
L 2550 4556 
Q 2006 4225 1679 3623 
Q 1353 3022 1141 1931 
Q 928 844 1020 242 
Q 1113 -359 1531 -691 
L 1472 -997 
z
" transform="scale(0.015625)"/>
      <path id="DejaVuSerif-Italic-74" d="M 856 2988 
L 350 2988 
L 416 3322 
L 922 3322 
L 1122 4353 
L 1700 4353 
L 1500 3322 
L 2581 3322 
L 2516 2988 
L 1434 2988 
L 1025 878 
Q 978 631 978 488 
Q 978 388 1000 338 
Q 1059 219 1278 219 
Q 1503 219 1633 351 
Q 1763 484 1825 781 
L 2259 781 
Q 2147 328 1884 118 
Q 1622 -91 1169 -91 
Q 672 -91 506 131 
Q 406 266 406 516 
Q 406 675 447 878 
L 856 2988 
z
" transform="scale(0.015625)"/>
      <path id="DejaVuSerif-Italic-29" d="M -113 -997 
L -53 -691 
Q 491 -359 819 242 
Q 1147 844 1359 1931 
Q 1572 3022 1478 3623 
Q 1384 4225 966 4556 
L 1025 4863 
Q 1722 4522 1965 3783 
Q 2209 3044 1994 1931 
Q 1778 822 1247 83 
Q 716 -656 -113 -997 
z
" transform="scale(0.015625)"/>
      <path id="DejaVuSerif-Italic-20" transform="scale(0.015625)"/>
      <path id="DejaVuSerif-Italic-3d" d="M 678 2894 
L 4684 2894 
L 4684 2394 
L 678 2394 
L 678 2894 
z
M 678 1619 
L 4684 1619 
L 4684 1119 
L 678 1119 
L 678 1619 
z
" transform="scale(0.015625)"/>
      <path id="DejaVuSerif-Italic-3f" d="M 797 29 
Q 700 150 734 325 
Q 769 500 912 622 
Q 1056 744 1234 744 
Q 1406 744 1504 622 
Q 1603 500 1569 325 
Q 1538 153 1391 31 
Q 1244 -91 1072 -91 
Q 894 -91 797 29 
z
M 847 4459 
Q 1209 4606 1521 4678 
Q 1834 4750 2097 4750 
Q 2791 4750 3127 4415 
Q 3463 4081 3353 3513 
Q 3238 2931 2822 2562 
Q 2406 2194 1678 2034 
L 1522 1241 
L 1138 1241 
L 1338 2266 
Q 1916 2400 2258 2715 
Q 2600 3031 2694 3519 
Q 2778 3947 2597 4194 
Q 2416 4441 2022 4441 
Q 1666 4441 1400 4236 
Q 1134 4031 994 3647 
L 691 3647 
L 847 4459 
z
" transform="scale(0.015625)"/>
     </defs>
     <use xlink:href="#DejaVuSerif-Italic-52"/>
     <use xlink:href="#DejaVuSerif-Italic-28" transform="translate(75.292969 0)"/>
     <use xlink:href="#DejaVuSerif-Italic-74" transform="translate(114.306641 0)"/>
     <use xlink:href="#DejaVuSerif-Italic-29" transform="translate(154.492188 0)"/>
     <use xlink:href="#DejaVuSerif-Italic-20" transform="translate(193.505859 0)"/>
     <use xlink:href="#DejaVuSerif-Italic-3d" transform="translate(225.292969 0)"/>
     <use xlink:href="#DejaVuSerif-Italic-20" transform="translate(309.082031 0)"/>
     <use xlink:href="#DejaVuSerif-Italic-3f" transform="translate(340.869141 0)"/>
    </g>
   </g>
   <g id="text_3">
    <!-- Rate: shaded area = total carbon captured -->
    <g style="fill: #262626" transform="translate(130.736719 20.677969) scale(0.13 -0.13)">
     <defs>
      <path id="DejaVuSerif-Bold-52" d="M 3397 2278 
Q 3675 2238 3865 2094 
Q 4056 1950 4197 1678 
L 4878 378 
L 5356 378 
L 5356 0 
L 3822 0 
L 3078 1409 
Q 2863 1847 2711 1967 
Q 2559 2088 2291 2088 
L 2100 2088 
L 2100 378 
L 2700 378 
L 2700 0 
L 300 0 
L 300 378 
L 897 378 
L 897 4288 
L 300 4288 
L 300 4666 
L 2963 4666 
Q 3775 4666 4217 4339 
Q 4659 4013 4659 3413 
Q 4659 2925 4345 2642 
Q 4031 2359 3397 2278 
z
M 2100 2463 
L 2509 2463 
Q 2947 2463 3183 2700 
Q 3419 2938 3419 3378 
Q 3419 3819 3183 4053 
Q 2947 4288 2509 4288 
L 2100 4288 
L 2100 2463 
z
" transform="scale(0.015625)"/>
      <path id="DejaVuSerif-Bold-61" d="M 3525 2041 
L 3525 378 
L 4000 378 
L 4000 0 
L 2419 0 
L 2419 422 
Q 2200 159 1931 34 
Q 1663 -91 1319 -91 
Q 809 -91 536 182 
Q 263 456 263 966 
Q 263 1525 655 1803 
Q 1047 2081 1838 2081 
L 2419 2081 
L 2419 2278 
Q 2419 2681 2228 2873 
Q 2038 3066 1638 3066 
Q 1306 3066 1126 2930 
Q 947 2794 872 2484 
L 519 2484 
L 519 3200 
Q 816 3306 1134 3359 
Q 1453 3413 1806 3413 
Q 2697 3413 3111 3081 
Q 3525 2750 3525 2041 
z
M 2419 1044 
L 2419 1709 
L 2003 1709 
Q 1694 1709 1528 1540 
Q 1363 1372 1363 1056 
Q 1363 741 1483 584 
Q 1603 428 1850 428 
Q 2106 428 2262 597 
Q 2419 766 2419 1044 
z
" transform="scale(0.015625)"/>
      <path id="DejaVuSerif-Bold-74" d="M 634 2944 
L 153 2944 
L 153 3322 
L 634 3322 
L 634 4353 
L 1741 4353 
L 1741 3322 
L 2663 3322 
L 2663 2944 
L 1741 2944 
L 1741 909 
Q 1741 475 1809 369 
Q 1878 263 2059 263 
Q 2259 263 2356 397 
Q 2453 531 2459 813 
L 2925 813 
Q 2897 313 2651 111 
Q 2406 -91 1806 -91 
Q 1122 -91 878 123 
Q 634 338 634 909 
L 634 2944 
z
" transform="scale(0.015625)"/>
      <path id="DejaVuSerif-Bold-65" d="M 2566 1875 
Q 2566 2531 2444 2795 
Q 2322 3059 2028 3059 
Q 1744 3059 1620 2800 
Q 1497 2541 1497 1931 
L 1497 1875 
L 2566 1875 
z
M 3781 1503 
L 1497 1503 
L 1497 1478 
Q 1497 834 1690 548 
Q 1884 263 2316 263 
Q 2675 263 2897 453 
Q 3119 644 3181 1006 
L 3700 1006 
Q 3566 441 3166 175 
Q 2766 -91 2047 -91 
Q 1184 -91 723 364 
Q 263 819 263 1663 
Q 263 2488 734 2950 
Q 1206 3413 2047 3413 
Q 2872 3413 3312 2927 
Q 3753 2441 3781 1503 
z
" transform="scale(0.015625)"/>
      <path id="DejaVuSerif-Bold-3a" d="M 588 2541 
Q 588 2788 761 2963 
Q 934 3138 1178 3138 
Q 1422 3138 1597 2961 
Q 1772 2784 1772 2541 
Q 1772 2297 1598 2125 
Q 1425 1953 1178 1953 
Q 931 1953 759 2125 
Q 588 2297 588 2541 
z
M 588 506 
Q 588 750 761 925 
Q 934 1100 1178 1100 
Q 1422 1100 1597 925 
Q 1772 750 1772 506 
Q 1772 259 1597 84 
Q 1422 -91 1178 -91 
Q 934 -91 761 84 
Q 588 259 588 506 
z
" transform="scale(0.015625)"/>
      <path id="DejaVuSerif-Bold-20" transform="scale(0.015625)"/>
      <path id="DejaVuSerif-Bold-73" d="M 300 97 
L 300 1025 
L 653 1025 
Q 697 653 931 458 
Q 1166 263 1569 263 
Q 1906 263 2086 380 
Q 2266 497 2266 716 
Q 2266 916 2152 1025 
Q 2038 1134 1709 1216 
L 1253 1331 
Q 738 1459 506 1698 
Q 275 1938 275 2344 
Q 275 2884 650 3148 
Q 1025 3413 1806 3413 
Q 2100 3413 2433 3364 
Q 2766 3316 3169 3213 
L 3169 2375 
L 2816 2375 
Q 2788 2716 2573 2887 
Q 2359 3059 1959 3059 
Q 1622 3059 1448 2951 
Q 1275 2844 1275 2638 
Q 1275 2469 1375 2372 
Q 1475 2275 1734 2209 
L 2188 2094 
Q 2841 1928 3091 1684 
Q 3341 1441 3341 1006 
Q 3341 444 2939 176 
Q 2538 -91 1691 -91 
Q 1381 -91 1034 -44 
Q 688 3 300 97 
z
" transform="scale(0.015625)"/>
      <path id="DejaVuSerif-Bold-68" d="M 219 0 
L 219 378 
L 691 378 
L 691 4488 
L 197 4488 
L 197 4863 
L 1797 4863 
L 1797 2853 
Q 1997 3150 2253 3281 
Q 2509 3413 2900 3413 
Q 3459 3413 3745 3083 
Q 4031 2753 4031 2113 
L 4031 378 
L 4506 378 
L 4506 0 
L 2522 0 
L 2522 378 
L 2925 378 
L 2925 2144 
Q 2925 2566 2817 2730 
Q 2709 2894 2444 2894 
Q 2109 2894 1953 2648 
Q 1797 2403 1797 1869 
L 1797 378 
L 2203 378 
L 2203 0 
L 219 0 
z
" transform="scale(0.015625)"/>
      <path id="DejaVuSerif-Bold-64" d="M 2747 1497 
L 2747 1825 
Q 2747 2406 2597 2665 
Q 2447 2925 2119 2925 
Q 1775 2925 1636 2651 
Q 1497 2378 1497 1663 
Q 1497 947 1637 672 
Q 1778 397 2119 397 
Q 2447 397 2597 656 
Q 2747 916 2747 1497 
z
M 3853 378 
L 4325 378 
L 4325 0 
L 2747 0 
L 2747 422 
Q 2606 163 2367 36 
Q 2128 -91 1778 -91 
Q 1072 -91 667 378 
Q 263 847 263 1663 
Q 263 2481 667 2947 
Q 1072 3413 1778 3413 
Q 2128 3413 2367 3286 
Q 2606 3159 2747 2900 
L 2747 4488 
L 2272 4488 
L 2272 4863 
L 3853 4863 
L 3853 378 
z
" transform="scale(0.015625)"/>
      <path id="DejaVuSerif-Bold-72" d="M 3438 3359 
L 3438 2369 
L 3084 2369 
Q 3066 2634 2941 2764 
Q 2816 2894 2578 2894 
Q 2216 2894 2006 2575 
Q 1797 2256 1797 1691 
L 1797 378 
L 2400 378 
L 2400 0 
L 219 0 
L 219 378 
L 691 378 
L 691 2944 
L 184 2944 
L 184 3322 
L 1797 3322 
L 1797 2731 
Q 1959 3078 2226 3245 
Q 2494 3413 2881 3413 
Q 2978 3413 3117 3398 
Q 3256 3384 3438 3359 
z
" transform="scale(0.015625)"/>
      <path id="DejaVuSerif-Bold-3d" d="M 678 1650 
L 4684 1650 
L 4684 941 
L 678 941 
L 678 1650 
z
M 678 3072 
L 4684 3072 
L 4684 2363 
L 678 2363 
L 678 3072 
z
" transform="scale(0.015625)"/>
      <path id="DejaVuSerif-Bold-6f" d="M 2138 263 
Q 2488 263 2630 563 
Q 2772 863 2772 1663 
Q 2772 2463 2631 2761 
Q 2491 3059 2138 3059 
Q 1784 3059 1640 2757 
Q 1497 2456 1497 1663 
Q 1497 869 1640 566 
Q 1784 263 2138 263 
z
M 2138 -91 
Q 1259 -91 761 376 
Q 263 844 263 1663 
Q 263 2484 761 2948 
Q 1259 3413 2138 3413 
Q 3019 3413 3516 2948 
Q 4013 2484 4013 1663 
Q 4013 844 3514 376 
Q 3016 -91 2138 -91 
z
" transform="scale(0.015625)"/>
      <path id="DejaVuSerif-Bold-6c" d="M 1797 378 
L 2272 378 
L 2272 0 
L 219 0 
L 219 378 
L 691 378 
L 691 4488 
L 219 4488 
L 219 4863 
L 1797 4863 
L 1797 378 
z
" transform="scale(0.015625)"/>
      <path id="DejaVuSerif-Bold-63" d="M 3609 1038 
Q 3491 469 3123 189 
Q 2756 -91 2125 -91 
Q 1238 -91 750 368 
Q 263 828 263 1663 
Q 263 2488 744 2950 
Q 1225 3413 2081 3413 
Q 2428 3413 2781 3347 
Q 3134 3281 3500 3150 
L 3500 2228 
L 3150 2228 
Q 3100 2650 2903 2854 
Q 2706 3059 2350 3059 
Q 1888 3059 1692 2746 
Q 1497 2434 1497 1663 
Q 1497 909 1687 586 
Q 1878 263 2309 263 
Q 2644 263 2845 463 
Q 3047 663 3091 1038 
L 3609 1038 
z
" transform="scale(0.015625)"/>
      <path id="DejaVuSerif-Bold-62" d="M 622 378 
L 622 4488 
L 147 4488 
L 147 4863 
L 1728 4863 
L 1728 2900 
Q 1869 3159 2106 3286 
Q 2344 3413 2694 3413 
Q 3403 3413 3811 2945 
Q 4219 2478 4219 1663 
Q 4219 847 3811 378 
Q 3403 -91 2694 -91 
Q 2344 -91 2106 36 
Q 1869 163 1728 422 
L 1728 0 
L 147 0 
L 147 378 
L 622 378 
z
M 1728 1497 
Q 1728 916 1876 656 
Q 2025 397 2356 397 
Q 2697 397 2836 672 
Q 2975 947 2975 1663 
Q 2975 2378 2836 2651 
Q 2697 2925 2356 2925 
Q 2025 2925 1876 2665 
Q 1728 2406 1728 1825 
L 1728 1497 
z
" transform="scale(0.015625)"/>
      <path id="DejaVuSerif-Bold-6e" d="M 219 0 
L 219 378 
L 691 378 
L 691 2944 
L 219 2944 
L 219 3322 
L 1797 3322 
L 1797 2853 
Q 1997 3150 2253 3281 
Q 2509 3413 2900 3413 
Q 3459 3413 3745 3083 
Q 4031 2753 4031 2113 
L 4031 378 
L 4506 378 
L 4506 0 
L 2522 0 
L 2522 378 
L 2925 378 
L 2925 2144 
Q 2925 2566 2817 2730 
Q 2709 2894 2444 2894 
Q 2109 2894 1953 2648 
Q 1797 2403 1797 1869 
L 1797 378 
L 2203 378 
L 2203 0 
L 219 0 
z
" transform="scale(0.015625)"/>
      <path id="DejaVuSerif-Bold-70" d="M 1728 1825 
L 1728 1497 
Q 1728 916 1876 656 
Q 2025 397 2356 397 
Q 2697 397 2836 672 
Q 2975 947 2975 1663 
Q 2975 2378 2836 2651 
Q 2697 2925 2356 2925 
Q 2025 2925 1876 2665 
Q 1728 2406 1728 1825 
z
M 622 2944 
L 147 2944 
L 147 3322 
L 1728 3322 
L 1728 2900 
Q 1869 3159 2106 3286 
Q 2344 3413 2694 3413 
Q 3403 3413 3811 2945 
Q 4219 2478 4219 1663 
Q 4219 847 3811 378 
Q 3403 -91 2694 -91 
Q 2344 -91 2106 36 
Q 1869 163 1728 422 
L 1728 -953 
L 2241 -953 
L 2241 -1331 
L 147 -1331 
L 147 -953 
L 622 -953 
L 622 2944 
z
" transform="scale(0.015625)"/>
      <path id="DejaVuSerif-Bold-75" d="M 3963 3322 
L 3963 378 
L 4434 378 
L 4434 0 
L 2853 0 
L 2853 469 
Q 2656 172 2400 40 
Q 2144 -91 1753 -91 
Q 1194 -91 908 239 
Q 622 569 622 1209 
L 622 2944 
L 147 2944 
L 147 3322 
L 1728 3322 
L 1728 1381 
Q 1728 763 1831 595 
Q 1934 428 2209 428 
Q 2544 428 2698 675 
Q 2853 922 2853 1459 
L 2853 2944 
L 2450 2944 
L 2450 3322 
L 3963 3322 
z
" transform="scale(0.015625)"/>
     </defs>
     <use xlink:href="#DejaVuSerif-Bold-52"/>
     <use xlink:href="#DejaVuSerif-Bold-61" transform="translate(85.355469 0)"/>
     <use xlink:href="#DejaVuSerif-Bold-74" transform="translate(150.150391 0)"/>
     <use xlink:href="#DejaVuSerif-Bold-65" transform="translate(196.341797 0)"/>
     <use xlink:href="#DejaVuSerif-Bold-3a" transform="translate(259.964844 0)"/>
     <use xlink:href="#DejaVuSerif-Bold-20" transform="translate(296.878906 0)"/>
     <use xlink:href="#DejaVuSerif-Bold-73" transform="translate(331.693359 0)"/>
     <use xlink:href="#DejaVuSerif-Bold-68" transform="translate(387.992188 0)"/>
     <use xlink:href="#DejaVuSerif-Bold-61" transform="translate(460.697266 0)"/>
     <use xlink:href="#DejaVuSerif-Bold-64" transform="translate(525.492188 0)"/>
     <use xlink:href="#DejaVuSerif-Bold-65" transform="translate(595.414062 0)"/>
     <use xlink:href="#DejaVuSerif-Bold-64" transform="translate(659.037109 0)"/>
     <use xlink:href="#DejaVuSerif-Bold-20" transform="translate(728.958984 0)"/>
     <use xlink:href="#DejaVuSerif-Bold-61" transform="translate(763.773438 0)"/>
     <use xlink:href="#DejaVuSerif-Bold-72" transform="translate(828.568359 0)"/>
     <use xlink:href="#DejaVuSerif-Bold-65" transform="translate(881.253906 0)"/>
     <use xlink:href="#DejaVuSerif-Bold-61" transform="translate(944.876953 0)"/>
     <use xlink:href="#DejaVuSerif-Bold-20" transform="translate(1009.671875 0)"/>
     <use xlink:href="#DejaVuSerif-Bold-3d" transform="translate(1044.486328 0)"/>
     <use xlink:href="#DejaVuSerif-Bold-20" transform="translate(1128.275391 0)"/>
     <use xlink:href="#DejaVuSerif-Bold-74" transform="translate(1163.089844 0)"/>
     <use xlink:href="#DejaVuSerif-Bold-6f" transform="translate(1209.28125 0)"/>
     <use xlink:href="#DejaVuSerif-Bold-74" transform="translate(1275.980469 0)"/>
     <use xlink:href="#DejaVuSerif-Bold-61" transform="translate(1322.171875 0)"/>
     <use xlink:href="#DejaVuSerif-Bold-6c" transform="translate(1386.966797 0)"/>
     <use xlink:href="#DejaVuSerif-Bold-20" transform="translate(1424.955078 0)"/>
     <use xlink:href="#DejaVuSerif-Bold-63" transform="translate(1459.769531 0)"/>
     <use xlink:href="#DejaVuSerif-Bold-61" transform="translate(1520.658203 0)"/>
     <use xlink:href="#DejaVuSerif-Bold-72" transform="translate(1585.453125 0)"/>
     <use xlink:href="#DejaVuSerif-Bold-62" transform="translate(1638.138672 0)"/>
     <use xlink:href="#DejaVuSerif-Bold-6f" transform="translate(1708.060547 0)"/>
     <use xlink:href="#DejaVuSerif-Bold-6e" transform="translate(1774.759766 0)"/>
     <use xlink:href="#DejaVuSerif-Bold-20" transform="translate(1847.464844 0)"/>
     <use xlink:href="#DejaVuSerif-Bold-63" transform="translate(1882.279297 0)"/>
     <use xlink:href="#DejaVuSerif-Bold-61" transform="translate(1943.167969 0)"/>
     <use xlink:href="#DejaVuSerif-Bold-70" transform="translate(2007.962891 0)"/>
     <use xlink:href="#DejaVuSerif-Bold-74" transform="translate(2077.884766 0)"/>
     <use xlink:href="#DejaVuSerif-Bold-75" transform="translate(2124.076172 0)"/>
     <use xlink:href="#DejaVuSerif-Bold-72" transform="translate(2196.78125 0)"/>
     <use xlink:href="#DejaVuSerif-Bold-65" transform="translate(2249.466797 0)"/>
     <use xlink:href="#DejaVuSerif-Bold-64" transform="translate(2313.089844 0)"/>
    </g>
   </g>
  </g>
  <g id="axes_2">
   <g id="patch_8">
    <path d="M 29.91375 461.017969 
L 541.35375 461.017969 
L 541.35375 257.827969 
L 29.91375 257.827969 
z
" style="fill: #ffffff"/>
   </g>
   <g id="matplotlib.axis_3">
    <g id="xtick_10">
     <g id="line2d_34">
      <path d="M 53.161023 461.017969 
L 53.161023 257.827969 
" clip-path="url(#p34e92b5c4c)" style="fill: none; stroke: #cccccc; stroke-width: 0.8; stroke-linecap: round"/>
     </g>
     <g id="line2d_35"/>
    </g>
    <g id="xtick_11">
     <g id="line2d_36">
      <path d="M 111.279205 461.017969 
L 111.279205 257.827969 
" clip-path="url(#p34e92b5c4c)" style="fill: none; stroke: #cccccc; stroke-width: 0.8; stroke-linecap: round"/>
     </g>
     <g id="line2d_37"/>
    </g>
    <g id="xtick_12">
     <g id="line2d_38">
      <path d="M 169.397386 461.017969 
L 169.397386 257.827969 
" clip-path="url(#p34e92b5c4c)" style="fill: none; stroke: #cccccc; stroke-width: 0.8; stroke-linecap: round"/>
     </g>
     <g id="line2d_39"/>
    </g>
    <g id="xtick_13">
     <g id="line2d_40">
      <path d="M 227.515568 461.017969 
L 227.515568 257.827969 
" clip-path="url(#p34e92b5c4c)" style="fill: none; stroke: #cccccc; stroke-width: 0.8; stroke-linecap: round"/>
     </g>
     <g id="line2d_41"/>
    </g>
    <g id="xtick_14">
     <g id="line2d_42">
      <path d="M 285.63375 461.017969 
L 285.63375 257.827969 
" clip-path="url(#p34e92b5c4c)" style="fill: none; stroke: #cccccc; stroke-width: 0.8; stroke-linecap: round"/>
     </g>
     <g id="line2d_43"/>
    </g>
    <g id="xtick_15">
     <g id="line2d_44">
      <path d="M 343.751932 461.017969 
L 343.751932 257.827969 
" clip-path="url(#p34e92b5c4c)" style="fill: none; stroke: #cccccc; stroke-width: 0.8; stroke-linecap: round"/>
     </g>
     <g id="line2d_45"/>
    </g>
    <g id="xtick_16">
     <g id="line2d_46">
      <path d="M 401.870114 461.017969 
L 401.870114 257.827969 
" clip-path="url(#p34e92b5c4c)" style="fill: none; stroke: #cccccc; stroke-width: 0.8; stroke-linecap: round"/>
     </g>
     <g id="line2d_47"/>
    </g>
    <g id="xtick_17">
     <g id="line2d_48">
      <path d="M 459.988295 461.017969 
L 459.988295 257.827969 
" clip-path="url(#p34e92b5c4c)" style="fill: none; stroke: #cccccc; stroke-width: 0.8; stroke-linecap: round"/>
     </g>
     <g id="line2d_49"/>
    </g>
    <g id="xtick_18">
     <g id="line2d_50">
      <path d="M 518.106477 461.017969 
L 518.106477 257.827969 
" clip-path="url(#p34e92b5c4c)" style="fill: none; stroke: #cccccc; stroke-width: 0.8; stroke-linecap: round"/>
     </g>
     <g id="line2d_51"/>
    </g>
    <g id="text_4">
     <!-- Time (years) -->
     <g style="fill: #262626" transform="translate(247.4175 477.636094) scale(0.12 -0.12)">
      <defs>
       <path id="DejaVuSerif-54" d="M 1222 0 
L 1222 331 
L 1819 331 
L 1819 4294 
L 447 4294 
L 447 3566 
L 63 3566 
L 63 4666 
L 4206 4666 
L 4206 3566 
L 3822 3566 
L 3822 4294 
L 2450 4294 
L 2450 331 
L 3047 331 
L 3047 0 
L 1222 0 
z
" transform="scale(0.015625)"/>
       <path id="DejaVuSerif-6d" d="M 3316 2675 
Q 3481 3041 3739 3227 
Q 3997 3413 4341 3413 
Q 4863 3413 5119 3089 
Q 5375 2766 5375 2113 
L 5375 331 
L 5894 331 
L 5894 0 
L 4300 0 
L 4300 331 
L 4800 331 
L 4800 2047 
Q 4800 2556 4650 2772 
Q 4500 2988 4153 2988 
Q 3769 2988 3567 2697 
Q 3366 2406 3366 1850 
L 3366 331 
L 3866 331 
L 3866 0 
L 2291 0 
L 2291 331 
L 2791 331 
L 2791 2069 
Q 2791 2566 2641 2777 
Q 2491 2988 2144 2988 
Q 1759 2988 1557 2697 
Q 1356 2406 1356 1850 
L 1356 331 
L 1856 331 
L 1856 0 
L 263 0 
L 263 331 
L 781 331 
L 781 2994 
L 231 2994 
L 231 3322 
L 1356 3322 
L 1356 2731 
Q 1516 3063 1762 3238 
Q 2009 3413 2322 3413 
Q 2709 3413 2968 3220 
Q 3228 3028 3316 2675 
z
" transform="scale(0.015625)"/>
       <path id="DejaVuSerif-28" d="M 2041 -997 
Q 1281 -656 893 83 
Q 506 822 506 1931 
Q 506 3044 893 3783 
Q 1281 4522 2041 4863 
L 2041 4556 
Q 1559 4225 1350 3623 
Q 1141 3022 1141 1931 
Q 1141 844 1350 242 
Q 1559 -359 2041 -691 
L 2041 -997 
z
" transform="scale(0.015625)"/>
       <path id="DejaVuSerif-79" d="M 1381 -609 
L 1600 -56 
L 359 2988 
L -19 2988 
L -19 3322 
L 1509 3322 
L 1509 2988 
L 978 2988 
L 1913 703 
L 2847 2988 
L 2350 2988 
L 2350 3322 
L 3597 3322 
L 3597 2988 
L 3225 2988 
L 1703 -750 
Q 1547 -1138 1356 -1280 
Q 1166 -1422 819 -1422 
Q 672 -1422 517 -1397 
Q 363 -1372 206 -1325 
L 206 -691 
L 500 -691 
Q 519 -903 608 -995 
Q 697 -1088 884 -1088 
Q 1056 -1088 1161 -992 
Q 1266 -897 1381 -609 
z
" transform="scale(0.015625)"/>
       <path id="DejaVuSerif-29" d="M 453 -997 
L 453 -691 
Q 934 -359 1145 242 
Q 1356 844 1356 1931 
Q 1356 3022 1145 3623 
Q 934 4225 453 4556 
L 453 4863 
Q 1216 4522 1603 3783 
Q 1991 3044 1991 1931 
Q 1991 822 1603 83 
Q 1216 -656 453 -997 
z
" transform="scale(0.015625)"/>
      </defs>
      <use xlink:href="#DejaVuSerif-54"/>
      <use xlink:href="#DejaVuSerif-69" transform="translate(66.699219 0)"/>
      <use xlink:href="#DejaVuSerif-6d" transform="translate(98.681641 0)"/>
      <use xlink:href="#DejaVuSerif-65" transform="translate(193.505859 0)"/>
      <use xlink:href="#DejaVuSerif-20" transform="translate(252.685547 0)"/>
      <use xlink:href="#DejaVuSerif-28" transform="translate(284.472656 0)"/>
      <use xlink:href="#DejaVuSerif-79" transform="translate(323.486328 0)"/>
      <use xlink:href="#DejaVuSerif-65" transform="translate(379.980469 0)"/>
      <use xlink:href="#DejaVuSerif-61" transform="translate(439.160156 0)"/>
      <use xlink:href="#DejaVuSerif-72" transform="translate(498.779297 0)"/>
      <use xlink:href="#DejaVuSerif-73" transform="translate(546.582031 0)"/>
      <use xlink:href="#DejaVuSerif-29" transform="translate(597.900391 0)"/>
     </g>
    </g>
   </g>
   <g id="matplotlib.axis_4">
    <g id="ytick_8">
     <g id="line2d_52">
      <path d="M 29.91375 451.78206 
L 541.35375 451.78206 
" clip-path="url(#p34e92b5c4c)" style="fill: none; stroke: #cccccc; stroke-width: 0.8; stroke-linecap: round"/>
     </g>
     <g id="line2d_53"/>
    </g>
    <g id="ytick_9">
     <g id="line2d_54">
      <path d="M 29.91375 413.299105 
L 541.35375 413.299105 
" clip-path="url(#p34e92b5c4c)" style="fill: none; stroke: #cccccc; stroke-width: 0.8; stroke-linecap: round"/>
     </g>
     <g id="line2d_55"/>
    </g>
    <g id="ytick_10">
     <g id="line2d_56">
      <path d="M 29.91375 374.816151 
L 541.35375 374.816151 
" clip-path="url(#p34e92b5c4c)" style="fill: none; stroke: #cccccc; stroke-width: 0.8; stroke-linecap: round"/>
     </g>
     <g id="line2d_57"/>
    </g>
    <g id="ytick_11">
     <g id="line2d_58">
      <path d="M 29.91375 336.333196 
L 541.35375 336.333196 
" clip-path="url(#p34e92b5c4c)" style="fill: none; stroke: #cccccc; stroke-width: 0.8; stroke-linecap: round"/>
     </g>
     <g id="line2d_59"/>
    </g>
    <g id="ytick_12">
     <g id="line2d_60">
      <path d="M 29.91375 297.850241 
L 541.35375 297.850241 
" clip-path="url(#p34e92b5c4c)" style="fill: none; stroke: #cccccc; stroke-width: 0.8; stroke-linecap: round"/>
     </g>
     <g id="line2d_61"/>
    </g>
    <g id="ytick_13">
     <g id="line2d_62">
      <path d="M 29.91375 259.367287 
L 541.35375 259.367287 
" clip-path="url(#p34e92b5c4c)" style="fill: none; stroke: #cccccc; stroke-width: 0.8; stroke-linecap: round"/>
     </g>
     <g id="line2d_63"/>
    </g>
    <g id="text_5">
     <!-- Cumulative CO₂ -->
     <g style="fill: #262626" transform="translate(19.918125 408.022969) rotate(-90) scale(0.12 -0.12)">
      <defs>
       <path id="DejaVuSerif-43" d="M 4513 1234 
Q 4306 581 3820 245 
Q 3334 -91 2591 -91 
Q 2134 -91 1743 65 
Q 1353 222 1050 525 
Q 700 875 529 1320 
Q 359 1766 359 2328 
Q 359 3416 987 4083 
Q 1616 4750 2644 4750 
Q 3025 4750 3456 4650 
Q 3888 4550 4384 4347 
L 4384 3272 
L 4031 3272 
Q 3916 3859 3567 4137 
Q 3219 4416 2591 4416 
Q 1844 4416 1459 3886 
Q 1075 3356 1075 2328 
Q 1075 1303 1459 773 
Q 1844 244 2591 244 
Q 3113 244 3450 492 
Q 3788 741 3938 1234 
L 4513 1234 
z
" transform="scale(0.015625)"/>
       <path id="DejaVuSerif-6c" d="M 1313 331 
L 1856 331 
L 1856 0 
L 184 0 
L 184 331 
L 738 331 
L 738 4531 
L 184 4531 
L 184 4863 
L 1313 4863 
L 1313 331 
z
" transform="scale(0.015625)"/>
       <path id="DejaVuSerif-76" d="M 1581 0 
L 359 2988 
L -19 2988 
L -19 3322 
L 1509 3322 
L 1509 2988 
L 978 2988 
L 1913 703 
L 2847 2988 
L 2350 2988 
L 2350 3322 
L 3597 3322 
L 3597 2988 
L 3225 2988 
L 2003 0 
L 1581 0 
z
" transform="scale(0.015625)"/>
       <path id="DejaVuSerif-4f" d="M 2625 244 
Q 3391 244 3781 770 
Q 4172 1297 4172 2328 
Q 4172 3363 3781 3889 
Q 3391 4416 2625 4416 
Q 1856 4416 1465 3889 
Q 1075 3363 1075 2328 
Q 1075 1297 1465 770 
Q 1856 244 2625 244 
z
M 2625 -91 
Q 2150 -91 1751 65 
Q 1353 222 1050 525 
Q 700 875 529 1319 
Q 359 1763 359 2328 
Q 359 2894 529 3339 
Q 700 3784 1050 4134 
Q 1356 4441 1750 4595 
Q 2144 4750 2625 4750 
Q 3641 4750 4266 4084 
Q 4891 3419 4891 2328 
Q 4891 1769 4719 1320 
Q 4547 872 4197 525 
Q 3891 219 3497 64 
Q 3103 -91 2625 -91 
z
" transform="scale(0.015625)"/>
       <path id="DejaVuSerif-2082" d="M 531 1962 
L 313 1962 
L 313 2456 
Q 519 2556 737 2609 
Q 956 2662 1172 2662 
Q 1603 2662 1870 2456 
Q 2138 2250 2138 1925 
Q 2138 1543 1531 1000 
L 1472 946 
L 728 275 
L 1931 275 
L 1931 612 
L 2163 612 
L 2163 0 
L 281 0 
L 281 234 
L 1172 1028 
Q 1441 1268 1556 1459 
Q 1672 1650 1672 1856 
Q 1672 2121 1520 2276 
Q 1369 2431 1106 2431 
Q 863 2431 716 2312 
Q 569 2193 531 1962 
z
" transform="scale(0.015625)"/>
      </defs>
      <use xlink:href="#DejaVuSerif-43"/>
      <use xlink:href="#DejaVuSerif-75" transform="translate(76.513672 0)"/>
      <use xlink:href="#DejaVuSerif-6d" transform="translate(140.917969 0)"/>
      <use xlink:href="#DejaVuSerif-75" transform="translate(235.742188 0)"/>
      <use xlink:href="#DejaVuSerif-6c" transform="translate(300.146484 0)"/>
      <use xlink:href="#DejaVuSerif-61" transform="translate(332.128906 0)"/>
      <use xlink:href="#DejaVuSerif-74" transform="translate(391.748047 0)"/>
      <use xlink:href="#DejaVuSerif-69" transform="translate(431.933594 0)"/>
      <use xlink:href="#DejaVuSerif-76" transform="translate(463.916016 0)"/>
      <use xlink:href="#DejaVuSerif-65" transform="translate(520.410156 0)"/>
      <use xlink:href="#DejaVuSerif-20" transform="translate(579.589844 0)"/>
      <use xlink:href="#DejaVuSerif-43" transform="translate(611.376953 0)"/>
      <use xlink:href="#DejaVuSerif-4f" transform="translate(687.890625 0)"/>
      <use xlink:href="#DejaVuSerif-2082" transform="translate(769.873047 0)"/>
     </g>
    </g>
   </g>
   <g id="line2d_64">
    <path d="M 53.161023 451.78206 
L 62.478567 444.52493 
L 71.796111 437.552916 
L 81.113655 430.854815 
L 90.431199 424.419866 
L 99.748744 418.237731 
L 109.998042 411.717539 
L 120.247341 405.478566 
L 130.496639 399.508683 
L 140.745938 393.796283 
L 150.995237 388.330261 
L 161.244535 383.099991 
L 172.425588 377.65118 
L 183.606641 372.458233 
L 194.787694 367.509136 
L 205.968747 362.792438 
L 218.081555 357.932294 
L 230.194362 353.318899 
L 242.30717 348.939727 
L 255.351731 344.47201 
L 268.396293 340.248083 
L 281.440855 336.254642 
L 295.417171 332.217451 
L 309.393488 328.415825 
L 323.369804 324.836019 
L 338.277875 321.247485 
L 353.185945 317.881854 
L 369.02577 314.534635 
L 384.865596 311.407887 
L 401.637175 308.321395 
L 419.340509 305.29619 
L 437.043843 302.492808 
L 455.678931 299.763659 
L 475.245774 297.124018 
L 495.744371 294.586924 
L 517.174723 292.163162 
L 518.106477 292.062765 
L 518.106477 292.062765 
" clip-path="url(#p34e92b5c4c)" style="fill: none; stroke: #2563eb; stroke-width: 2.5; stroke-linecap: round"/>
   </g>
   <g id="line2d_65">
    <path d="M 29.91375 267.063878 
L 541.35375 267.063878 
" clip-path="url(#p34e92b5c4c)" style="fill: none; stroke-dasharray: 1.5,2.475; stroke-dashoffset: 0; stroke: #475569; stroke-opacity: 0.6; stroke-width: 1.5"/>
   </g>
   <g id="patch_9">
    <path d="M 29.91375 461.017969 
L 29.91375 257.827969 
" style="fill: none; stroke: #cccccc; stroke-linejoin: miter; stroke-linecap: square"/>
   </g>
   <g id="patch_10">
    <path d="M 541.35375 461.017969 
L 541.35375 257.827969 
" style="fill: none; stroke: #cccccc; stroke-linejoin: miter; stroke-linecap: square"/>
   </g>
   <g id="patch_11">
    <path d="M 29.91375 461.017969 
L 541.35375 461.017969 
" style="fill: none; stroke: #cccccc; stroke-linejoin: miter; stroke-linecap: square"/>
   </g>
   <g id="patch_12">
    <path d="M 29.91375 257.827969 
L 541.35375 257.827969 
" style="fill: none; stroke: #cccccc; stroke-linejoin: miter; stroke-linecap: square"/>
   </g>
   <g id="text_6">
    <!-- Asymptote = ? -->
    <g style="fill: #475569" transform="translate(401.870114 263.215582) scale(0.09 -0.09)">
     <defs>
      <path id="DejaVuSerif-Italic-41" d="M 1159 1691 
L 2872 1691 
L 2447 3909 
L 1159 1691 
z
M -488 0 
L -425 331 
L -16 331 
L 2491 4666 
L 3016 4666 
L 3841 331 
L 4297 331 
L 4234 0 
L 2538 0 
L 2600 331 
L 3119 331 
L 2928 1356 
L 966 1356 
L 375 331 
L 888 331 
L 825 0 
L -488 0 
z
" transform="scale(0.015625)"/>
      <path id="DejaVuSerif-Italic-73" d="M 222 959 
L 553 959 
Q 541 869 541 788 
Q 541 219 1313 219 
Q 2088 219 2200 788 
Q 2209 844 2209 944 
Q 2209 1041 2103 1158 
Q 1997 1275 1550 1428 
L 1159 1569 
Q 759 1706 629 1882 
Q 500 2059 500 2263 
Q 500 2344 516 2438 
Q 606 2894 990 3153 
Q 1375 3413 1931 3413 
Q 2484 3413 3066 3144 
L 2925 2419 
L 2594 2419 
Q 2606 2491 2606 2553 
Q 2606 2781 2448 2942 
Q 2291 3103 1925 3103 
Q 1191 3103 1091 2591 
Q 1078 2538 1078 2444 
Q 1078 2347 1179 2237 
Q 1281 2128 1678 1997 
L 2106 1856 
Q 2550 1709 2716 1488 
Q 2831 1331 2831 1178 
Q 2831 522 2306 181 
Q 1894 -91 1262 -91 
Q 631 -91 72 184 
L 222 959 
z
" transform="scale(0.015625)"/>
      <path id="DejaVuSerif-Italic-79" d="M 3681 3294 
Q 3372 1506 2828 563 
Q 2031 -822 1391 -1238 
Q 1106 -1422 356 -1422 
Q 209 -1422 60 -1397 
Q -88 -1372 -238 -1325 
L -113 -691 
L 181 -691 
Q 175 -741 175 -788 
Q 175 -919 231 -994 
Q 309 -1100 513 -1100 
Q 1063 -1100 1541 -622 
L 756 2988 
L 378 2988 
L 444 3322 
L 1303 3322 
L 2041 25 
Q 2544 778 2666 1088 
Q 3059 2059 3138 2959 
L 2759 2959 
L 2825 3294 
L 3681 3294 
z
" transform="scale(0.015625)"/>
      <path id="DejaVuSerif-Italic-6d" d="M 3503 2675 
Q 3741 3041 4034 3227 
Q 4328 3413 4672 3413 
Q 5194 3413 5388 3088 
Q 5503 2894 5503 2578 
Q 5503 2372 5453 2113 
L 5106 331 
L 5625 331 
L 5563 0 
L 4469 0 
L 4866 2047 
Q 4913 2291 4913 2466 
Q 4913 2659 4856 2772 
Q 4750 2988 4403 2988 
Q 4019 2988 3761 2697 
Q 3503 2406 3394 1850 
L 3034 0 
L 2459 0 
L 2863 2069 
Q 2906 2303 2906 2472 
Q 2906 2666 2850 2775 
Q 2741 2988 2394 2988 
Q 2009 2988 1751 2697 
Q 1494 2406 1384 1850 
L 1025 0 
L 450 0 
L 1031 2994 
L 481 2994 
L 544 3322 
L 1669 3322 
L 1556 2731 
Q 1778 3063 2059 3238 
Q 2341 3413 2653 3413 
Q 3041 3413 3262 3220 
Q 3484 3028 3503 2675 
z
" transform="scale(0.015625)"/>
      <path id="DejaVuSerif-Italic-70" d="M 1466 1825 
L 1400 1497 
Q 1353 1250 1353 1053 
Q 1353 769 1453 581 
Q 1622 269 2059 269 
Q 2500 269 2795 622 
Q 3091 975 3225 1663 
Q 3284 1978 3284 2225 
Q 3284 2513 3200 2703 
Q 3041 3053 2600 3053 
Q 2163 3053 1872 2737 
Q 1581 2422 1466 1825 
z
M 1116 2988 
L 563 2988 
L 628 3322 
L 1756 3322 
L 1656 2803 
Q 1884 3116 2175 3264 
Q 2466 3413 2850 3413 
Q 3463 3413 3753 2928 
Q 3947 2609 3947 2163 
Q 3947 1928 3897 1663 
Q 3744 881 3262 395 
Q 2781 -91 2169 -91 
Q 1784 -91 1551 57 
Q 1319 206 1213 519 
L 850 -1331 
L 275 -1331 
L 1116 2988 
z
" transform="scale(0.015625)"/>
      <path id="DejaVuSerif-Italic-6f" d="M 1644 219 
Q 2106 219 2414 584 
Q 2722 950 2859 1663 
Q 2922 1988 2922 2241 
Q 2922 2541 2834 2738 
Q 2669 3103 2206 3103 
Q 1744 3103 1436 2739 
Q 1128 2375 991 1663 
Q 928 1338 928 1088 
Q 928 784 1019 584 
Q 1184 219 1644 219 
z
M 1584 -91 
Q 859 -91 513 388 
Q 272 722 272 1203 
Q 272 1419 319 1663 
Q 472 2456 1005 2934 
Q 1538 3413 2266 3413 
Q 2994 3413 3341 2934 
Q 3578 2603 3578 2122 
Q 3578 1906 3531 1663 
Q 3378 869 2845 389 
Q 2313 -91 1584 -91 
z
" transform="scale(0.015625)"/>
      <path id="DejaVuSerif-Italic-65" d="M 938 1275 
Q 925 1156 925 1050 
Q 925 756 1031 563 
Q 1216 219 1709 219 
Q 2072 219 2250 328 
Q 2569 525 2644 778 
L 3066 778 
Q 2941 381 2475 103 
Q 2150 -91 1506 -91 
Q 863 -91 516 388 
Q 272 722 272 1206 
Q 272 1419 319 1659 
Q 472 2450 1000 2931 
Q 1528 3413 2278 3413 
Q 3500 3413 3500 2547 
Q 3500 1913 2859 1603 
Q 2206 1288 938 1275 
z
M 2541 1975 
Q 2891 2181 2891 2569 
Q 2891 3103 2181 3103 
Q 1763 3103 1472 2784 
Q 1181 2466 1003 1606 
Q 2006 1653 2541 1975 
z
" transform="scale(0.015625)"/>
     </defs>
     <use xlink:href="#DejaVuSerif-Italic-41"/>
     <use xlink:href="#DejaVuSerif-Italic-73" transform="translate(72.216797 0)"/>
     <use xlink:href="#DejaVuSerif-Italic-79" transform="translate(123.535156 0)"/>
     <use xlink:href="#DejaVuSerif-Italic-6d" transform="translate(180.029297 0)"/>
     <use xlink:href="#DejaVuSerif-Italic-70" transform="translate(274.853516 0)"/>
     <use xlink:href="#DejaVuSerif-Italic-74" transform="translate(338.867188 0)"/>
     <use xlink:href="#DejaVuSerif-Italic-6f" transform="translate(379.052734 0)"/>
     <use xlink:href="#DejaVuSerif-Italic-74" transform="translate(439.257812 0)"/>
     <use xlink:href="#DejaVuSerif-Italic-65" transform="translate(479.443359 0)"/>
     <use xlink:href="#DejaVuSerif-Italic-20" transform="translate(538.623047 0)"/>
     <use xlink:href="#DejaVuSerif-Italic-3d" transform="translate(570.410156 0)"/>
     <use xlink:href="#DejaVuSerif-Italic-20" transform="translate(654.199219 0)"/>
     <use xlink:href="#DejaVuSerif-Italic-3f" transform="translate(685.986328 0)"/>
    </g>
   </g>
   <g id="text_7">
    <!-- Cumulative: total carbon sequestered over time -->
    <g style="fill: #262626" transform="translate(111.869453 251.827969) scale(0.13 -0.13)">
     <defs>
      <path id="DejaVuSerif-Bold-43" d="M 4769 1331 
Q 4584 609 4106 259 
Q 3628 -91 2822 -91 
Q 1641 -91 955 561 
Q 269 1213 269 2328 
Q 269 3447 955 4098 
Q 1641 4750 2822 4750 
Q 3238 4750 3688 4650 
Q 4138 4550 4641 4347 
L 4641 3200 
L 4244 3200 
Q 4122 3788 3800 4080 
Q 3478 4372 2950 4372 
Q 2269 4372 1937 3870 
Q 1606 3369 1606 2328 
Q 1606 1288 1937 788 
Q 2269 288 2956 288 
Q 3422 288 3717 547 
Q 4013 806 4147 1331 
L 4769 1331 
z
" transform="scale(0.015625)"/>
      <path id="DejaVuSerif-Bold-6d" d="M 3884 2778 
Q 4116 3109 4384 3261 
Q 4653 3413 5013 3413 
Q 5584 3413 5867 3089 
Q 6150 2766 6150 2113 
L 6150 378 
L 6625 378 
L 6625 0 
L 4647 0 
L 4647 378 
L 5044 378 
L 5044 1947 
Q 5044 2569 4948 2731 
Q 4853 2894 4594 2894 
Q 4300 2894 4137 2667 
Q 3975 2441 3975 2022 
L 3975 378 
L 4372 378 
L 4372 0 
L 2472 0 
L 2472 378 
L 2869 378 
L 2869 1947 
Q 2869 2569 2772 2731 
Q 2675 2894 2419 2894 
Q 2122 2894 1959 2667 
Q 1797 2441 1797 2022 
L 1797 378 
L 2194 378 
L 2194 0 
L 219 0 
L 219 378 
L 691 378 
L 691 2944 
L 219 2944 
L 219 3322 
L 1797 3322 
L 1797 2853 
Q 1991 3144 2241 3278 
Q 2491 3413 2834 3413 
Q 3241 3413 3494 3258 
Q 3747 3103 3884 2778 
z
" transform="scale(0.015625)"/>
      <path id="DejaVuSerif-Bold-69" d="M 588 4263 
Q 588 4516 763 4689 
Q 938 4863 1191 4863 
Q 1438 4863 1611 4689 
Q 1784 4516 1784 4263 
Q 1784 4016 1611 3842 
Q 1438 3669 1191 3669 
Q 938 3669 763 3841 
Q 588 4013 588 4263 
z
M 1797 378 
L 2272 378 
L 2272 0 
L 219 0 
L 219 378 
L 691 378 
L 691 2944 
L 219 2944 
L 219 3322 
L 1797 3322 
L 1797 378 
z
" transform="scale(0.015625)"/>
      <path id="DejaVuSerif-Bold-76" d="M 1428 0 
L 250 2944 
L -116 2944 
L -116 3322 
L 1791 3322 
L 1791 2944 
L 1388 2944 
L 2228 844 
L 3066 2944 
L 2631 2944 
L 2631 3322 
L 3878 3322 
L 3878 2944 
L 3494 2944 
L 2316 0 
L 1428 0 
z
" transform="scale(0.015625)"/>
      <path id="DejaVuSerif-Bold-71" d="M 3853 2944 
L 3853 -953 
L 4325 -953 
L 4325 -1331 
L 2234 -1331 
L 2234 -953 
L 2747 -953 
L 2747 422 
Q 2606 163 2367 36 
Q 2128 -91 1778 -91 
Q 1072 -91 667 378 
Q 263 847 263 1663 
Q 263 2481 667 2947 
Q 1072 3413 1778 3413 
Q 2128 3413 2367 3286 
Q 2606 3159 2747 2900 
L 2747 3322 
L 4325 3322 
L 4325 2944 
L 3853 2944 
z
M 2747 1825 
Q 2747 2406 2597 2665 
Q 2447 2925 2119 2925 
Q 1775 2925 1636 2651 
Q 1497 2378 1497 1663 
Q 1497 947 1637 672 
Q 1778 397 2119 397 
Q 2447 397 2597 656 
Q 2747 916 2747 1497 
L 2747 1825 
z
" transform="scale(0.015625)"/>
     </defs>
     <use xlink:href="#DejaVuSerif-Bold-43"/>
     <use xlink:href="#DejaVuSerif-Bold-75" transform="translate(79.589844 0)"/>
     <use xlink:href="#DejaVuSerif-Bold-6d" transform="translate(152.294922 0)"/>
     <use xlink:href="#DejaVuSerif-Bold-75" transform="translate(258.105469 0)"/>
     <use xlink:href="#DejaVuSerif-Bold-6c" transform="translate(330.810547 0)"/>
     <use xlink:href="#DejaVuSerif-Bold-61" transform="translate(368.798828 0)"/>
     <use xlink:href="#DejaVuSerif-Bold-74" transform="translate(433.59375 0)"/>
     <use xlink:href="#DejaVuSerif-Bold-69" transform="translate(479.785156 0)"/>
     <use xlink:href="#DejaVuSerif-Bold-76" transform="translate(517.773438 0)"/>
     <use xlink:href="#DejaVuSerif-Bold-65" transform="translate(575.878906 0)"/>
     <use xlink:href="#DejaVuSerif-Bold-3a" transform="translate(639.501953 0)"/>
     <use xlink:href="#DejaVuSerif-Bold-20" transform="translate(676.416016 0)"/>
     <use xlink:href="#DejaVuSerif-Bold-74" transform="translate(711.230469 0)"/>
     <use xlink:href="#DejaVuSerif-Bold-6f" transform="translate(757.421875 0)"/>
     <use xlink:href="#DejaVuSerif-Bold-74" transform="translate(824.121094 0)"/>
     <use xlink:href="#DejaVuSerif-Bold-61" transform="translate(870.3125 0)"/>
     <use xlink:href="#DejaVuSerif-Bold-6c" transform="translate(935.107422 0)"/>
     <use xlink:href="#DejaVuSerif-Bold-20" transform="translate(973.095703 0)"/>
     <use xlink:href="#DejaVuSerif-Bold-63" transform="translate(1007.910156 0)"/>
     <use xlink:href="#DejaVuSerif-Bold-61" transform="translate(1068.798828 0)"/>
     <use xlink:href="#DejaVuSerif-Bold-72" transform="translate(1133.59375 0)"/>
     <use xlink:href="#DejaVuSerif-Bold-62" transform="translate(1186.279297 0)"/>
     <use xlink:href="#DejaVuSerif-Bold-6f" transform="translate(1256.201172 0)"/>
     <use xlink:href="#DejaVuSerif-Bold-6e" transform="translate(1322.900391 0)"/>
     <use xlink:href="#DejaVuSerif-Bold-20" transform="translate(1395.605469 0)"/>
     <use xlink:href="#DejaVuSerif-Bold-73" transform="translate(1430.419922 0)"/>
     <use xlink:href="#DejaVuSerif-Bold-65" transform="translate(1486.71875 0)"/>
     <use xlink:href="#DejaVuSerif-Bold-71" transform="translate(1550.341797 0)"/>
     <use xlink:href="#DejaVuSerif-Bold-75" transform="translate(1620.263672 0)"/>
     <use xlink:href="#DejaVuSerif-Bold-65" transform="translate(1692.96875 0)"/>
     <use xlink:href="#DejaVuSerif-Bold-73" transform="translate(1756.591797 0)"/>
     <use xlink:href="#DejaVuSerif-Bold-74" transform="translate(1812.890625 0)"/>
     <use xlink:href="#DejaVuSerif-Bold-65" transform="translate(1859.082031 0)"/>
     <use xlink:href="#DejaVuSerif-Bold-72" transform="translate(1922.705078 0)"/>
     <use xlink:href="#DejaVuSerif-Bold-65" transform="translate(1975.390625 0)"/>
     <use xlink:href="#DejaVuSerif-Bold-64" transform="translate(2039.013672 0)"/>
     <use xlink:href="#DejaVuSerif-Bold-20" transform="translate(2108.935547 0)"/>
     <use xlink:href="#DejaVuSerif-Bold-6f" transform="translate(2143.75 0)"/>
     <use xlink:href="#DejaVuSerif-Bold-76" transform="translate(2210.449219 0)"/>
     <use xlink:href="#DejaVuSerif-Bold-65" transform="translate(2268.554688 0)"/>
     <use xlink:href="#DejaVuSerif-Bold-72" transform="translate(2332.177734 0)"/>
     <use xlink:href="#DejaVuSerif-Bold-20" transform="translate(2384.863281 0)"/>
     <use xlink:href="#DejaVuSerif-Bold-74" transform="translate(2419.677734 0)"/>
     <use xlink:href="#DejaVuSerif-Bold-69" transform="translate(2465.869141 0)"/>
     <use xlink:href="#DejaVuSerif-Bold-6d" transform="translate(2503.857422 0)"/>
     <use xlink:href="#DejaVuSerif-Bold-65" transform="translate(2609.667969 0)"/>
    </g>
   </g>
  </g>
 </g>
 <defs>
  <clipPath id="p03493538a8">
   <rect x="29.91375" y="26.677969" width="511.44" height="203.19"/>
  </clipPath>
  <clipPath id="p34e92b5c4c">
   <rect x="29.91375" y="257.827969" width="511.44" height="203.19"/>
  </clipPath>
 </defs>
</svg>
