<?xml version="1.0" encoding="utf-8" standalone="no"?>
<!DOCTYPE svg PUBLIC "-//W3C//DTD SVG 1.1//EN"
  "http://www.w3.org/Graphics/SVG/1.1/DTD/svg11.dtd">
<svg xmlns:xlink="http://www.w3.org/1999/xlink" width="465.4875pt" height="311.13375pt" viewBox="0 0 465.4875 311.13375" xmlns="http://www.w3.org/2000/svg" version="1.1">
 <metadata>
  <rdf:RDF xmlns:dc="http://purl.org/dc/elements/1.1/" xmlns:cc="http://creativecommons.org/ns#" xmlns:rdf="http://www.w3.org/1999/02/22-rdf-syntax-ns#">
   <cc:Work>
    <dc:type rdf:resource="http://purl.org/dc/dcmitype/StillImage"/>
    <dc:date>2026-02-19T08:27:10.351488</dc:date>
    <dc:format>image/svg+xml</dc:format>
    <dc:creator>
     <cc:Agent>
      <dc:title>Matplotlib v3.10.1, https://matplotlib.org/</dc:title>
     </cc:Agent>
    </dc:creator>
   </cc:Work>
  </rdf:RDF>
 </metadata>
 <defs>
  <style type="text/css">*{stroke-linejoin: round; stroke-linecap: butt}</style>
 </defs>
 <g id="figure_1">
  <g id="patch_1">
   <path d="M 0 311.13375 
L 465.4875 311.13375 
L 465.4875 0 
L 0 0 
z
" style="fill: #ffffff"/>
  </g>
  <g id="axes_1">
   <g id="patch_2">
    <path d="M 29.91375 281.22 
L 435.57375 281.22 
L 435.57375 10.8 
L 29.91375 10.8 
z
" style="fill: #ffffff"/>
   </g>
   <g id="matplotlib.axis_1">
    <g id="xtick_1">
     <g id="line2d_1">
      <path d="M 48.352841 281.22 
L 48.352841 10.8 
" clip-path="url(#p8e33c555a8)" style="fill: none; stroke: #cccccc; stroke-width: 0.8; stroke-linecap: round"/>
     </g>
     <g id="line2d_2"/>
    </g>
    <g id="xtick_2">
     <g id="line2d_3">
      <path d="M 109.816477 281.22 
L 109.816477 10.8 
" clip-path="url(#p8e33c555a8)" style="fill: none; stroke: #cccccc; stroke-width: 0.8; stroke-linecap: round"/>
     </g>
     <g id="line2d_4"/>
    </g>
    <g id="xtick_3">
     <g id="line2d_5">
      <path d="M 171.280114 281.22 
L 171.280114 10.8 
" clip-path="url(#p8e33c555a8)" style="fill: none; stroke: #cccccc; stroke-width: 0.8; stroke-linecap: round"/>
     </g>
     <g id="line2d_6"/>
    </g>
    <g id="xtick_4">
     <g id="line2d_7">
      <path d="M 232.74375 281.22 
L 232.74375 10.8 
" clip-path="url(#p8e33c555a8)" style="fill: none; stroke: #cccccc; stroke-width: 0.8; stroke-linecap: round"/>
     </g>
     <g id="line2d_8"/>
    </g>
    <g id="xtick_5">
     <g id="line2d_9">
      <path d="M 294.207386 281.22 
L 294.207386 10.8 
" clip-path="url(#p8e33c555a8)" style="fill: none; stroke: #cccccc; stroke-width: 0.8; stroke-linecap: round"/>
     </g>
     <g id="line2d_10"/>
    </g>
    <g id="xtick_6">
     <g id="line2d_11">
      <path d="M 355.671023 281.22 
L 355.671023 10.8 
" clip-path="url(#p8e33c555a8)" style="fill: none; stroke: #cccccc; stroke-width: 0.8; stroke-linecap: round"/>
     </g>
     <g id="line2d_12"/>
    </g>
    <g id="xtick_7">
     <g id="line2d_13">
      <path d="M 417.134659 281.22 
L 417.134659 10.8 
" clip-path="url(#p8e33c555a8)" style="fill: none; stroke: #cccccc; stroke-width: 0.8; stroke-linecap: round"/>
     </g>
     <g id="line2d_14"/>
    </g>
    <g id="text_1">
     <!-- Years since transition -->
     <g style="fill: #262626" transform="translate(167.119688 297.838125) scale(0.12 -0.12)">
      <defs>
       <path id="DejaVuSerif-59" d="M 1209 0 
L 1209 331 
L 1806 331 
L 1806 2009 
L 366 4331 
L -72 4331 
L -72 4666 
L 1663 4666 
L 1663 4331 
L 1119 4331 
L 2284 2444 
L 3450 4331 
L 2925 4331 
L 2925 4666 
L 4281 4666 
L 4281 4331 
L 3841 4331 
L 2438 2069 
L 2438 331 
L 3034 331 
L 3034 0 
L 1209 0 
z
" transform="scale(0.015625)"/>
       <path id="DejaVuSerif-65" d="M 3469 1600 
L 991 1600 
L 991 1575 
Q 991 903 1244 561 
Q 1497 219 1991 219 
Q 2369 219 2611 417 
Q 2853 616 2950 1006 
L 3413 1006 
Q 3275 459 2904 184 
Q 2534 -91 1931 -91 
Q 1203 -91 761 389 
Q 319 869 319 1663 
Q 319 2450 753 2931 
Q 1188 3413 1894 3413 
Q 2647 3413 3050 2948 
Q 3453 2484 3469 1600 
z
M 2791 1931 
Q 2772 2513 2545 2808 
Q 2319 3103 1894 3103 
Q 1497 3103 1269 2806 
Q 1041 2509 991 1931 
L 2791 1931 
z
" transform="scale(0.015625)"/>
       <path id="DejaVuSerif-61" d="M 2547 1044 
L 2547 1747 
L 1806 1747 
Q 1378 1747 1168 1562 
Q 959 1378 959 997 
Q 959 650 1171 447 
Q 1384 244 1747 244 
Q 2106 244 2326 466 
Q 2547 688 2547 1044 
z
M 3122 2075 
L 3122 331 
L 3634 331 
L 3634 0 
L 2547 0 
L 2547 359 
Q 2356 128 2106 18 
Q 1856 -91 1522 -91 
Q 969 -91 644 203 
Q 319 497 319 997 
Q 319 1513 691 1797 
Q 1063 2081 1741 2081 
L 2547 2081 
L 2547 2309 
Q 2547 2688 2317 2895 
Q 2088 3103 1672 3103 
Q 1328 3103 1125 2947 
Q 922 2791 872 2484 
L 575 2484 
L 575 3156 
Q 875 3284 1158 3348 
Q 1441 3413 1709 3413 
Q 2400 3413 2761 3070 
Q 3122 2728 3122 2075 
z
" transform="scale(0.015625)"/>
       <path id="DejaVuSerif-72" d="M 3059 3328 
L 3059 2497 
L 2728 2497 
Q 2713 2744 2591 2866 
Q 2469 2988 2234 2988 
Q 1809 2988 1582 2694 
Q 1356 2400 1356 1850 
L 1356 331 
L 2022 331 
L 2022 0 
L 263 0 
L 263 331 
L 781 331 
L 781 2994 
L 231 2994 
L 231 3322 
L 1356 3322 
L 1356 2731 
Q 1525 3078 1790 3245 
Q 2056 3413 2438 3413 
Q 2578 3413 2733 3391 
Q 2888 3369 3059 3328 
z
" transform="scale(0.015625)"/>
       <path id="DejaVuSerif-73" d="M 359 184 
L 359 959 
L 691 959 
Q 703 588 923 403 
Q 1144 219 1575 219 
Q 1963 219 2166 364 
Q 2369 509 2369 788 
Q 2369 1006 2220 1140 
Q 2072 1275 1594 1428 
L 1178 1569 
Q 750 1706 558 1912 
Q 366 2119 366 2438 
Q 366 2894 700 3153 
Q 1034 3413 1625 3413 
Q 1888 3413 2178 3344 
Q 2469 3275 2778 3144 
L 2778 2419 
L 2447 2419 
Q 2434 2741 2221 2922 
Q 2009 3103 1644 3103 
Q 1281 3103 1095 2975 
Q 909 2847 909 2591 
Q 909 2381 1050 2254 
Q 1191 2128 1613 1997 
L 2069 1856 
Q 2541 1709 2748 1489 
Q 2956 1269 2956 922 
Q 2956 450 2595 179 
Q 2234 -91 1600 -91 
Q 1278 -91 972 -22 
Q 666 47 359 184 
z
" transform="scale(0.015625)"/>
       <path id="DejaVuSerif-20" transform="scale(0.015625)"/>
       <path id="DejaVuSerif-69" d="M 622 4353 
Q 622 4497 726 4603 
Q 831 4709 978 4709 
Q 1122 4709 1226 4603 
Q 1331 4497 1331 4353 
Q 1331 4206 1228 4103 
Q 1125 4000 978 4000 
Q 831 4000 726 4103 
Q 622 4206 622 4353 
z
M 1356 331 
L 1900 331 
L 1900 0 
L 231 0 
L 231 331 
L 781 331 
L 781 2988 
L 231 2988 
L 231 3322 
L 1356 3322 
L 1356 331 
z
" transform="scale(0.015625)"/>
       <path id="DejaVuSerif-6e" d="M 263 0 
L 263 331 
L 781 331 
L 781 2988 
L 231 2988 
L 231 3322 
L 1356 3322 
L 1356 2731 
Q 1516 3069 1770 3241 
Q 2025 3413 2363 3413 
Q 2913 3413 3172 3097 
Q 3431 2781 3431 2113 
L 3431 331 
L 3944 331 
L 3944 0 
L 2356 0 
L 2356 331 
L 2853 331 
L 2853 1931 
Q 2853 2541 2703 2767 
Q 2553 2994 2175 2994 
Q 1775 2994 1565 2701 
Q 1356 2409 1356 1850 
L 1356 331 
L 1856 331 
L 1856 0 
L 263 0 
z
" transform="scale(0.015625)"/>
       <path id="DejaVuSerif-63" d="M 3291 997 
Q 3169 466 2822 187 
Q 2475 -91 1925 -91 
Q 1200 -91 759 389 
Q 319 869 319 1663 
Q 319 2459 759 2936 
Q 1200 3413 1925 3413 
Q 2241 3413 2553 3339 
Q 2866 3266 3181 3116 
L 3181 2266 
L 2847 2266 
Q 2781 2703 2561 2903 
Q 2341 3103 1931 3103 
Q 1466 3103 1228 2742 
Q 991 2381 991 1663 
Q 991 944 1227 581 
Q 1463 219 1931 219 
Q 2303 219 2525 412 
Q 2747 606 2828 997 
L 3291 997 
z
" transform="scale(0.015625)"/>
       <path id="DejaVuSerif-74" d="M 691 2988 
L 184 2988 
L 184 3322 
L 691 3322 
L 691 4353 
L 1269 4353 
L 1269 3322 
L 2350 3322 
L 2350 2988 
L 1269 2988 
L 1269 878 
Q 1269 456 1350 337 
Q 1431 219 1650 219 
Q 1875 219 1978 351 
Q 2081 484 2088 781 
L 2522 781 
Q 2497 328 2275 118 
Q 2053 -91 1600 -91 
Q 1103 -91 897 129 
Q 691 350 691 878 
L 691 2988 
z
" transform="scale(0.015625)"/>
       <path id="DejaVuSerif-6f" d="M 1925 219 
Q 2388 219 2623 584 
Q 2859 950 2859 1663 
Q 2859 2375 2623 2739 
Q 2388 3103 1925 3103 
Q 1463 3103 1227 2739 
Q 991 2375 991 1663 
Q 991 950 1228 584 
Q 1466 219 1925 219 
z
M 1925 -91 
Q 1200 -91 759 389 
Q 319 869 319 1663 
Q 319 2456 758 2934 
Q 1197 3413 1925 3413 
Q 2653 3413 3092 2934 
Q 3531 2456 3531 1663 
Q 3531 869 3092 389 
Q 2653 -91 1925 -91 
z
" transform="scale(0.015625)"/>
      </defs>
      <use xlink:href="#DejaVuSerif-59"/>
      <use xlink:href="#DejaVuSerif-65" transform="translate(57.265625 0)"/>
      <use xlink:href="#DejaVuSerif-61" transform="translate(116.445312 0)"/>
      <use xlink:href="#DejaVuSerif-72" transform="translate(176.064453 0)"/>
      <use xlink:href="#DejaVuSerif-73" transform="translate(223.867188 0)"/>
      <use xlink:href="#DejaVuSerif-20" transform="translate(275.185547 0)"/>
      <use xlink:href="#DejaVuSerif-73" transform="translate(306.972656 0)"/>
      <use xlink:href="#DejaVuSerif-69" transform="translate(358.291016 0)"/>
      <use xlink:href="#DejaVuSerif-6e" transform="translate(390.273438 0)"/>
      <use xlink:href="#DejaVuSerif-63" transform="translate(454.677734 0)"/>
      <use xlink:href="#DejaVuSerif-65" transform="translate(510.683594 0)"/>
      <use xlink:href="#DejaVuSerif-20" transform="translate(569.863281 0)"/>
      <use xlink:href="#DejaVuSerif-74" transform="translate(601.650391 0)"/>
      <use xlink:href="#DejaVuSerif-72" transform="translate(641.835938 0)"/>
      <use xlink:href="#DejaVuSerif-61" transform="translate(689.638672 0)"/>
      <use xlink:href="#DejaVuSerif-6e" transform="translate(749.257812 0)"/>
      <use xlink:href="#DejaVuSerif-73" transform="translate(813.662109 0)"/>
      <use xlink:href="#DejaVuSerif-69" transform="translate(864.980469 0)"/>
      <use xlink:href="#DejaVuSerif-74" transform="translate(896.962891 0)"/>
      <use xlink:href="#DejaVuSerif-69" transform="translate(937.148438 0)"/>
      <use xlink:href="#DejaVuSerif-6f" transform="translate(969.130859 0)"/>
      <use xlink:href="#DejaVuSerif-6e" transform="translate(1029.335938 0)"/>
     </g>
    </g>
   </g>
   <g id="matplotlib.axis_2">
    <g id="ytick_1">
     <g id="line2d_15">
      <path d="M 29.91375 268.928182 
L 435.57375 268.928182 
" clip-path="url(#p8e33c555a8)" style="fill: none; stroke: #cccccc; stroke-width: 0.8; stroke-linecap: round"/>
     </g>
     <g id="line2d_16"/>
    </g>
    <g id="ytick_2">
     <g id="line2d_17">
      <path d="M 29.91375 236.15 
L 435.57375 236.15 
" clip-path="url(#p8e33c555a8)" style="fill: none; stroke: #cccccc; stroke-width: 0.8; stroke-linecap: round"/>
     </g>
     <g id="line2d_18"/>
    </g>
    <g id="ytick_3">
     <g id="line2d_19">
      <path d="M 29.91375 203.371818 
L 435.57375 203.371818 
" clip-path="url(#p8e33c555a8)" style="fill: none; stroke: #cccccc; stroke-width: 0.8; stroke-linecap: round"/>
     </g>
     <g id="line2d_20"/>
    </g>
    <g id="ytick_4">
     <g id="line2d_21">
      <path d="M 29.91375 170.593636 
L 435.57375 170.593636 
" clip-path="url(#p8e33c555a8)" style="fill: none; stroke: #cccccc; stroke-width: 0.8; stroke-linecap: round"/>
     </g>
     <g id="line2d_22"/>
    </g>
    <g id="ytick_5">
     <g id="line2d_23">
      <path d="M 29.91375 137.815455 
L 435.57375 137.815455 
" clip-path="url(#p8e33c555a8)" style="fill: none; stroke: #cccccc; stroke-width: 0.8; stroke-linecap: round"/>
     </g>
     <g id="line2d_24"/>
    </g>
    <g id="ytick_6">
     <g id="line2d_25">
      <path d="M 29.91375 105.037273 
L 435.57375 105.037273 
" clip-path="url(#p8e33c555a8)" style="fill: none; stroke: #cccccc; stroke-width: 0.8; stroke-linecap: round"/>
     </g>
     <g id="line2d_26"/>
    </g>
    <g id="ytick_7">
     <g id="line2d_27">
      <path d="M 29.91375 72.259091 
L 435.57375 72.259091 
" clip-path="url(#p8e33c555a8)" style="fill: none; stroke: #cccccc; stroke-width: 0.8; stroke-linecap: round"/>
     </g>
     <g id="line2d_28"/>
    </g>
    <g id="ytick_8">
     <g id="line2d_29">
      <path d="M 29.91375 39.480909 
L 435.57375 39.480909 
" clip-path="url(#p8e33c555a8)" style="fill: none; stroke: #cccccc; stroke-width: 0.8; stroke-linecap: round"/>
     </g>
     <g id="line2d_30"/>
    </g>
    <g id="text_2">
     <!-- Rate -->
     <g style="fill: #059669" transform="translate(19.918125 160.202813) rotate(-90) scale(0.12 -0.12)">
      <defs>
       <path id="DejaVuSerif-52" d="M 3066 2316 
Q 3284 2256 3442 2114 
Q 3600 1972 3725 1716 
L 4403 331 
L 4972 331 
L 4972 0 
L 3872 0 
L 3144 1484 
Q 2934 1916 2759 2042 
Q 2584 2169 2278 2169 
L 1581 2169 
L 1581 331 
L 2241 331 
L 2241 0 
L 353 0 
L 353 331 
L 947 331 
L 947 4331 
L 353 4331 
L 353 4666 
L 2719 4666 
Q 3400 4666 3770 4341 
Q 4141 4016 4141 3419 
Q 4141 2938 3870 2661 
Q 3600 2384 3066 2316 
z
M 1581 2503 
L 2503 2503 
Q 2975 2503 3200 2726 
Q 3425 2950 3425 3419 
Q 3425 3888 3200 4109 
Q 2975 4331 2503 4331 
L 1581 4331 
L 1581 2503 
z
" transform="scale(0.015625)"/>
      </defs>
      <use xlink:href="#DejaVuSerif-52"/>
      <use xlink:href="#DejaVuSerif-61" transform="translate(77.542969 0)"/>
      <use xlink:href="#DejaVuSerif-74" transform="translate(137.162109 0)"/>
      <use xlink:href="#DejaVuSerif-65" transform="translate(177.347656 0)"/>
     </g>
    </g>
   </g>
   <g id="FillBetweenPolyCollection_1">
    <defs>
     <path id="ma45db2ff09" d="M 48.352841 -288.041932 
L 48.352841 -42.205568 
L 49.586225 -42.205568 
L 50.819609 -42.205568 
L 52.052993 -42.205568 
L 53.286377 -42.205568 
L 54.519761 -42.205568 
L 55.753145 -42.205568 
L 56.986529 -42.205568 
L 58.219913 -42.205568 
L 59.453297 -42.205568 
L 60.686681 -42.205568 
L 61.920065 -42.205568 
L 63.153449 -42.205568 
L 64.386833 -42.205568 
L 65.620217 -42.205568 
L 66.853601 -42.205568 
L 68.086985 -42.205568 
L 69.320369 -42.205568 
L 70.553753 -42.205568 
L 71.787137 -42.205568 
L 73.020521 -42.205568 
L 74.253905 -42.205568 
L 75.487289 -42.205568 
L 76.720673 -42.205568 
L 77.954057 -42.205568 
L 79.187441 -42.205568 
L 80.420825 -42.205568 
L 81.654209 -42.205568 
L 82.887593 -42.205568 
L 84.120977 -42.205568 
L 85.354361 -42.205568 
L 86.587745 -42.205568 
L 87.821129 -42.205568 
L 89.054513 -42.205568 
L 90.287897 -42.205568 
L 91.521281 -42.205568 
L 92.754665 -42.205568 
L 93.988049 -42.205568 
L 95.221433 -42.205568 
L 96.454817 -42.205568 
L 97.688201 -42.205568 
L 98.921585 -42.205568 
L 100.154969 -42.205568 
L 101.388353 -42.205568 
L 102.621737 -42.205568 
L 103.855121 -42.205568 
L 105.088505 -42.205568 
L 106.321889 -42.205568 
L 107.555273 -42.205568 
L 108.788657 -42.205568 
L 110.022041 -42.205568 
L 111.255425 -42.205568 
L 112.488809 -42.205568 
L 113.722193 -42.205568 
L 114.955577 -42.205568 
L 116.188961 -42.205568 
L 117.422345 -42.205568 
L 118.655729 -42.205568 
L 119.889113 -42.205568 
L 121.122497 -42.205568 
L 122.355881 -42.205568 
L 123.589265 -42.205568 
L 124.822649 -42.205568 
L 126.056033 -42.205568 
L 127.289417 -42.205568 
L 128.522801 -42.205568 
L 129.756185 -42.205568 
L 130.989569 -42.205568 
L 132.222953 -42.205568 
L 133.456337 -42.205568 
L 134.689721 -42.205568 
L 135.923105 -42.205568 
L 137.156489 -42.205568 
L 138.389873 -42.205568 
L 139.623257 -42.205568 
L 140.856641 -42.205568 
L 142.090025 -42.205568 
L 143.323409 -42.205568 
L 144.556793 -42.205568 
L 145.790177 -42.205568 
L 147.023561 -42.205568 
L 148.256946 -42.205568 
L 149.49033 -42.205568 
L 150.723714 -42.205568 
L 151.957098 -42.205568 
L 153.190482 -42.205568 
L 154.423866 -42.205568 
L 155.65725 -42.205568 
L 156.890634 -42.205568 
L 158.124018 -42.205568 
L 159.357402 -42.205568 
L 160.590786 -42.205568 
L 161.82417 -42.205568 
L 163.057554 -42.205568 
L 164.290938 -42.205568 
L 165.524322 -42.205568 
L 166.757706 -42.205568 
L 167.99109 -42.205568 
L 169.224474 -42.205568 
L 170.457858 -42.205568 
L 171.691242 -42.205568 
L 172.924626 -42.205568 
L 174.15801 -42.205568 
L 175.391394 -42.205568 
L 176.624778 -42.205568 
L 177.858162 -42.205568 
L 179.091546 -42.205568 
L 180.32493 -42.205568 
L 181.558314 -42.205568 
L 182.791698 -42.205568 
L 184.025082 -42.205568 
L 185.258466 -42.205568 
L 186.49185 -42.205568 
L 187.725234 -42.205568 
L 188.958618 -42.205568 
L 190.192002 -42.205568 
L 191.425386 -42.205568 
L 192.65877 -42.205568 
L 193.892154 -42.205568 
L 195.125538 -42.205568 
L 196.358922 -42.205568 
L 197.592306 -42.205568 
L 198.82569 -42.205568 
L 200.059074 -42.205568 
L 201.292458 -42.205568 
L 202.525842 -42.205568 
L 203.759226 -42.205568 
L 204.99261 -42.205568 
L 206.225994 -42.205568 
L 207.459378 -42.205568 
L 208.692762 -42.205568 
L 209.926146 -42.205568 
L 211.15953 -42.205568 
L 212.392914 -42.205568 
L 213.626298 -42.205568 
L 214.859682 -42.205568 
L 216.093066 -42.205568 
L 217.32645 -42.205568 
L 218.559834 -42.205568 
L 219.793218 -42.205568 
L 221.026602 -42.205568 
L 222.259986 -42.205568 
L 223.49337 -42.205568 
L 224.726754 -42.205568 
L 225.960138 -42.205568 
L 227.193522 -42.205568 
L 228.426906 -42.205568 
L 229.66029 -42.205568 
L 230.893674 -42.205568 
L 232.127058 -42.205568 
L 233.360442 -42.205568 
L 234.593826 -42.205568 
L 235.82721 -42.205568 
L 237.060594 -42.205568 
L 238.293978 -42.205568 
L 239.527362 -42.205568 
L 240.760746 -42.205568 
L 241.99413 -42.205568 
L 243.227514 -42.205568 
L 244.460898 -42.205568 
L 245.694282 -42.205568 
L 246.927666 -42.205568 
L 248.16105 -42.205568 
L 249.394434 -42.205568 
L 250.627818 -42.205568 
L 251.861202 -42.205568 
L 253.094586 -42.205568 
L 254.32797 -42.205568 
L 255.561354 -42.205568 
L 256.794738 -42.205568 
L 258.028122 -42.205568 
L 259.261506 -42.205568 
L 260.49489 -42.205568 
L 261.728274 -42.205568 
L 262.961658 -42.205568 
L 264.195042 -42.205568 
L 265.428426 -42.205568 
L 266.66181 -42.205568 
L 267.895194 -42.205568 
L 269.128578 -42.205568 
L 270.361962 -42.205568 
L 271.595346 -42.205568 
L 272.82873 -42.205568 
L 274.062114 -42.205568 
L 275.295498 -42.205568 
L 276.528882 -42.205568 
L 277.762266 -42.205568 
L 278.99565 -42.205568 
L 280.229034 -42.205568 
L 281.462418 -42.205568 
L 282.695802 -42.205568 
L 283.929186 -42.205568 
L 285.16257 -42.205568 
L 286.395954 -42.205568 
L 287.629338 -42.205568 
L 288.862722 -42.205568 
L 290.096106 -42.205568 
L 291.32949 -42.205568 
L 292.562874 -42.205568 
L 293.796258 -42.205568 
L 295.029642 -42.205568 
L 296.263026 -42.205568 
L 297.49641 -42.205568 
L 298.729794 -42.205568 
L 299.963178 -42.205568 
L 301.196562 -42.205568 
L 302.429946 -42.205568 
L 303.66333 -42.205568 
L 304.896714 -42.205568 
L 306.130098 -42.205568 
L 307.363482 -42.205568 
L 308.596866 -42.205568 
L 309.83025 -42.205568 
L 311.063634 -42.205568 
L 312.297018 -42.205568 
L 313.530402 -42.205568 
L 314.763786 -42.205568 
L 315.99717 -42.205568 
L 317.230554 -42.205568 
L 318.463939 -42.205568 
L 319.697323 -42.205568 
L 320.930707 -42.205568 
L 322.164091 -42.205568 
L 323.397475 -42.205568 
L 324.630859 -42.205568 
L 325.864243 -42.205568 
L 327.097627 -42.205568 
L 328.331011 -42.205568 
L 329.564395 -42.205568 
L 330.797779 -42.205568 
L 332.031163 -42.205568 
L 333.264547 -42.205568 
L 334.497931 -42.205568 
L 335.731315 -42.205568 
L 336.964699 -42.205568 
L 338.198083 -42.205568 
L 339.431467 -42.205568 
L 340.664851 -42.205568 
L 341.898235 -42.205568 
L 343.131619 -42.205568 
L 344.365003 -42.205568 
L 345.598387 -42.205568 
L 346.831771 -42.205568 
L 348.065155 -42.205568 
L 349.298539 -42.205568 
L 350.531923 -42.205568 
L 351.765307 -42.205568 
L 352.998691 -42.205568 
L 354.232075 -42.205568 
L 355.465459 -42.205568 
L 356.698843 -42.205568 
L 357.932227 -42.205568 
L 359.165611 -42.205568 
L 360.398995 -42.205568 
L 361.632379 -42.205568 
L 362.865763 -42.205568 
L 364.099147 -42.205568 
L 365.332531 -42.205568 
L 366.565915 -42.205568 
L 367.799299 -42.205568 
L 369.032683 -42.205568 
L 370.266067 -42.205568 
L 371.499451 -42.205568 
L 372.732835 -42.205568 
L 373.966219 -42.205568 
L 375.199603 -42.205568 
L 376.432987 -42.205568 
L 377.666371 -42.205568 
L 378.899755 -42.205568 
L 380.133139 -42.205568 
L 381.366523 -42.205568 
L 382.599907 -42.205568 
L 383.833291 -42.205568 
L 385.066675 -42.205568 
L 386.300059 -42.205568 
L 387.533443 -42.205568 
L 388.766827 -42.205568 
L 390.000211 -42.205568 
L 391.233595 -42.205568 
L 392.466979 -42.205568 
L 393.700363 -42.205568 
L 394.933747 -42.205568 
L 396.167131 -42.205568 
L 397.400515 -42.205568 
L 398.633899 -42.205568 
L 399.867283 -42.205568 
L 401.100667 -42.205568 
L 402.334051 -42.205568 
L 403.567435 -42.205568 
L 404.800819 -42.205568 
L 406.034203 -42.205568 
L 407.267587 -42.205568 
L 408.500971 -42.205568 
L 409.734355 -42.205568 
L 410.967739 -42.205568 
L 412.201123 -42.205568 
L 413.434507 -42.205568 
L 414.667891 -42.205568 
L 415.901275 -42.205568 
L 417.134659 -42.205568 
L 417.134659 -64.50734 
L 417.134659 -64.50734 
L 415.901275 -64.687071 
L 414.667891 -64.868251 
L 413.434507 -65.050891 
L 412.201123 -65.235002 
L 410.967739 -65.420598 
L 409.734355 -65.607689 
L 408.500971 -65.796288 
L 407.267587 -65.986407 
L 406.034203 -66.178058 
L 404.800819 -66.371254 
L 403.567435 -66.566007 
L 402.334051 -66.762329 
L 401.100667 -66.960233 
L 399.867283 -67.159732 
L 398.633899 -67.360839 
L 397.400515 -67.563567 
L 396.167131 -67.767929 
L 394.933747 -67.973937 
L 393.700363 -68.181606 
L 392.466979 -68.390948 
L 391.233595 -68.601978 
L 390.000211 -68.814708 
L 388.766827 -69.029152 
L 387.533443 -69.245325 
L 386.300059 -69.46324 
L 385.066675 -69.682911 
L 383.833291 -69.904353 
L 382.599907 -70.127579 
L 381.366523 -70.352604 
L 380.133139 -70.579442 
L 378.899755 -70.808109 
L 377.666371 -71.038619 
L 376.432987 -71.270986 
L 375.199603 -71.505226 
L 373.966219 -71.741353 
L 372.732835 -71.979384 
L 371.499451 -72.219333 
L 370.266067 -72.461215 
L 369.032683 -72.705047 
L 367.799299 -72.950844 
L 366.565915 -73.198622 
L 365.332531 -73.448397 
L 364.099147 -73.700185 
L 362.865763 -73.954002 
L 361.632379 -74.209864 
L 360.398995 -74.467788 
L 359.165611 -74.727792 
L 357.932227 -74.98989 
L 356.698843 -75.254101 
L 355.465459 -75.520441 
L 354.232075 -75.788927 
L 352.998691 -76.059577 
L 351.765307 -76.332409 
L 350.531923 -76.607439 
L 349.298539 -76.884685 
L 348.065155 -77.164166 
L 346.831771 -77.4459 
L 345.598387 -77.729904 
L 344.365003 -78.016196 
L 343.131619 -78.304796 
L 341.898235 -78.595722 
L 340.664851 -78.888992 
L 339.431467 -79.184626 
L 338.198083 -79.482642 
L 336.964699 -79.78306 
L 335.731315 -80.085899 
L 334.497931 -80.391179 
L 333.264547 -80.698919 
L 332.031163 -81.009139 
L 330.797779 -81.321859 
L 329.564395 -81.6371 
L 328.331011 -81.954881 
L 327.097627 -82.275223 
L 325.864243 -82.598146 
L 324.630859 -82.923672 
L 323.397475 -83.251822 
L 322.164091 -83.582616 
L 320.930707 -83.916076 
L 319.697323 -84.252223 
L 318.463939 -84.59108 
L 317.230554 -84.932667 
L 315.99717 -85.277007 
L 314.763786 -85.624122 
L 313.530402 -85.974035 
L 312.297018 -86.326767 
L 311.063634 -86.682343 
L 309.83025 -87.040783 
L 308.596866 -87.402113 
L 307.363482 -87.766354 
L 306.130098 -88.133531 
L 304.896714 -88.503667 
L 303.66333 -88.876787 
L 302.429946 -89.252912 
L 301.196562 -89.63207 
L 299.963178 -90.014283 
L 298.729794 -90.399576 
L 297.49641 -90.787974 
L 296.263026 -91.179502 
L 295.029642 -91.574186 
L 293.796258 -91.97205 
L 292.562874 -92.373121 
L 291.32949 -92.777425 
L 290.096106 -93.184986 
L 288.862722 -93.595832 
L 287.629338 -94.009989 
L 286.395954 -94.427484 
L 285.16257 -94.848343 
L 283.929186 -95.272594 
L 282.695802 -95.700264 
L 281.462418 -96.131381 
L 280.229034 -96.565972 
L 278.99565 -97.004066 
L 277.762266 -97.44569 
L 276.528882 -97.890873 
L 275.295498 -98.339645 
L 274.062114 -98.792032 
L 272.82873 -99.248066 
L 271.595346 -99.707774 
L 270.361962 -100.171188 
L 269.128578 -100.638336 
L 267.895194 -101.109249 
L 266.66181 -101.583957 
L 265.428426 -102.062491 
L 264.195042 -102.544881 
L 262.961658 -103.031159 
L 261.728274 -103.521356 
L 260.49489 -104.015504 
L 259.261506 -104.513633 
L 258.028122 -105.015778 
L 256.794738 -105.521969 
L 255.561354 -106.032239 
L 254.32797 -106.546622 
L 253.094586 -107.06515 
L 251.861202 -107.587857 
L 250.627818 -108.114777 
L 249.394434 -108.645943 
L 248.16105 -109.181389 
L 246.927666 -109.721151 
L 245.694282 -110.265263 
L 244.460898 -110.81376 
L 243.227514 -111.366678 
L 241.99413 -111.924051 
L 240.760746 -112.485916 
L 239.527362 -113.052309 
L 238.293978 -113.623267 
L 237.060594 -114.198827 
L 235.82721 -114.779024 
L 234.593826 -115.363898 
L 233.360442 -115.953485 
L 232.127058 -116.547824 
L 230.893674 -117.146952 
L 229.66029 -117.750909 
L 228.426906 -118.359733 
L 227.193522 -118.973464 
L 225.960138 -119.592141 
L 224.726754 -120.215803 
L 223.49337 -120.844492 
L 222.259986 -121.478248 
L 221.026602 -122.117111 
L 219.793218 -122.761123 
L 218.559834 -123.410324 
L 217.32645 -124.064758 
L 216.093066 -124.724466 
L 214.859682 -125.38949 
L 213.626298 -126.059874 
L 212.392914 -126.735661 
L 211.15953 -127.416894 
L 209.926146 -128.103617 
L 208.692762 -128.795874 
L 207.459378 -129.49371 
L 206.225994 -130.19717 
L 204.99261 -130.906299 
L 203.759226 -131.621144 
L 202.525842 -132.341749 
L 201.292458 -133.068161 
L 200.059074 -133.800428 
L 198.82569 -134.538596 
L 197.592306 -135.282713 
L 196.358922 -136.032827 
L 195.125538 -136.788987 
L 193.892154 -137.55124 
L 192.65877 -138.319636 
L 191.425386 -139.094225 
L 190.192002 -139.875056 
L 188.958618 -140.66218 
L 187.725234 -141.455647 
L 186.49185 -142.255509 
L 185.258466 -143.061817 
L 184.025082 -143.874623 
L 182.791698 -144.69398 
L 181.558314 -145.51994 
L 180.32493 -146.352556 
L 179.091546 -147.191883 
L 177.858162 -148.037974 
L 176.624778 -148.890883 
L 175.391394 -149.750666 
L 174.15801 -150.617378 
L 172.924626 -151.491075 
L 171.691242 -152.371813 
L 170.457858 -153.259649 
L 169.224474 -154.15464 
L 167.99109 -155.056844 
L 166.757706 -155.966319 
L 165.524322 -156.883123 
L 164.290938 -157.807316 
L 163.057554 -158.738957 
L 161.82417 -159.678106 
L 160.590786 -160.624824 
L 159.357402 -161.579172 
L 158.124018 -162.54121 
L 156.890634 -163.511002 
L 155.65725 -164.488609 
L 154.423866 -165.474095 
L 153.190482 -166.467523 
L 151.957098 -167.468957 
L 150.723714 -168.478462 
L 149.49033 -169.496103 
L 148.256946 -170.521944 
L 147.023561 -171.556053 
L 145.790177 -172.598496 
L 144.556793 -173.64934 
L 143.323409 -174.708653 
L 142.090025 -175.776503 
L 140.856641 -176.852958 
L 139.623257 -177.938089 
L 138.389873 -179.031965 
L 137.156489 -180.134657 
L 135.923105 -181.246235 
L 134.689721 -182.366772 
L 133.456337 -183.496339 
L 132.222953 -184.635009 
L 130.989569 -185.782856 
L 129.756185 -186.939954 
L 128.522801 -188.106376 
L 127.289417 -189.282199 
L 126.056033 -190.467498 
L 124.822649 -191.66235 
L 123.589265 -192.86683 
L 122.355881 -194.081018 
L 121.122497 -195.304991 
L 119.889113 -196.538828 
L 118.655729 -197.782608 
L 117.422345 -199.036412 
L 116.188961 -200.300321 
L 114.955577 -201.574415 
L 113.722193 -202.858778 
L 112.488809 -204.153491 
L 111.255425 -205.458639 
L 110.022041 -206.774305 
L 108.788657 -208.100573 
L 107.555273 -209.437531 
L 106.321889 -210.785262 
L 105.088505 -212.143856 
L 103.855121 -213.513398 
L 102.621737 -214.893978 
L 101.388353 -216.285683 
L 100.154969 -217.688605 
L 98.921585 -219.102832 
L 97.688201 -220.528458 
L 96.454817 -221.965572 
L 95.221433 -223.414268 
L 93.988049 -224.874639 
L 92.754665 -226.346779 
L 91.521281 -227.830784 
L 90.287897 -229.326748 
L 89.054513 -230.834768 
L 87.821129 -232.354942 
L 86.587745 -233.887366 
L 85.354361 -235.432141 
L 84.120977 -236.989364 
L 82.887593 -238.559138 
L 81.654209 -240.141563 
L 80.420825 -241.73674 
L 79.187441 -243.344773 
L 77.954057 -244.965765 
L 76.720673 -246.599821 
L 75.487289 -248.247046 
L 74.253905 -249.907546 
L 73.020521 -251.581428 
L 71.787137 -253.2688 
L 70.553753 -254.96977 
L 69.320369 -256.684449 
L 68.086985 -258.412947 
L 66.853601 -260.155374 
L 65.620217 -261.911844 
L 64.386833 -263.682469 
L 63.153449 -265.467364 
L 61.920065 -267.266644 
L 60.686681 -269.080424 
L 59.453297 -270.908821 
L 58.219913 -272.751953 
L 56.986529 -274.60994 
L 55.753145 -276.4829 
L 54.519761 -278.370954 
L 53.286377 -280.274224 
L 52.052993 -282.192833 
L 50.819609 -284.126904 
L 49.586225 -286.076562 
L 48.352841 -288.041932 
z
" style="stroke: #059669; stroke-opacity: 0.1"/>
    </defs>
    <g clip-path="url(#p8e33c555a8)">
     <use xlink:href="#ma45db2ff09" x="0" y="311.13375" style="fill: #059669; fill-opacity: 0.1; stroke: #059669; stroke-opacity: 0.1"/>
    </g>
   </g>
   <g id="line2d_31">
    <path d="M 48.352841 23.091818 
L 54.519761 32.762796 
L 60.686681 42.053326 
L 66.853601 50.978376 
L 73.020521 59.552322 
L 79.187441 67.788977 
L 85.354361 75.701609 
L 91.521281 83.302966 
L 97.688201 90.605292 
L 105.088505 98.989894 
L 112.488809 106.980259 
L 119.889113 114.594922 
L 127.289417 121.851551 
L 134.689721 128.766978 
L 142.090025 135.357247 
L 149.49033 141.637647 
L 156.890634 147.622748 
L 164.290938 153.326434 
L 171.691242 158.761937 
L 179.091546 163.941867 
L 186.49185 168.878241 
L 193.892154 173.58251 
L 202.525842 178.792001 
L 211.15953 183.716856 
L 219.793218 188.372627 
L 228.426906 192.774017 
L 237.060594 196.934923 
L 245.694282 200.868487 
L 255.561354 205.101511 
L 265.428426 209.071259 
L 275.295498 212.794105 
L 285.16257 216.285407 
L 295.029642 219.559564 
L 306.130098 223.000219 
L 317.230554 226.201083 
L 328.331011 229.178869 
L 340.664851 232.244758 
L 352.998691 235.074173 
L 365.332531 237.685353 
L 378.899755 240.325641 
L 392.466979 242.742802 
L 407.267587 245.147343 
L 417.134659 246.62641 
L 417.134659 246.62641 
" clip-path="url(#p8e33c555a8)" style="fill: none; stroke: #059669; stroke-width: 2.5; stroke-linecap: round"/>
   </g>
   <g id="patch_3">
    <path d="M 29.91375 281.22 
L 29.91375 10.8 
" style="fill: none; stroke: #cccccc; stroke-linejoin: miter; stroke-linecap: square"/>
   </g>
   <g id="patch_4">
    <path d="M 435.57375 281.22 
L 435.57375 10.8 
" style="fill: none; stroke: #cccccc; stroke-linejoin: miter; stroke-linecap: square"/>
   </g>
   <g id="patch_5">
    <path d="M 29.91375 281.22 
L 435.57375 281.22 
" style="fill: none; stroke: #cccccc; stroke-linejoin: miter; stroke-linecap: square"/>
   </g>
   <g id="patch_6">
    <path d="M 29.91375 10.8 
L 435.57375 10.8 
" style="fill: none; stroke: #cccccc; stroke-linejoin: miter; stroke-linecap: square"/>
   </g>
   <g id="legend_1">
    <g id="line2d_32">
     <path d="M 342.0525 139.54625 
L 350.0525 139.54625 
L 358.0525 139.54625 
" style="fill: none; stroke: #059669; stroke-width: 2.5; stroke-linecap: round"/>
    </g>
    <g id="text_3">
     <!-- Rate R(t) -->
     <g style="fill: #262626" transform="translate(364.4525 142.34625) scale(0.08 -0.08)">
      <defs>
       <path id="DejaVuSerif-28" d="M 2041 -997 
Q 1281 -656 893 83 
Q 506 822 506 1931 
Q 506 3044 893 3783 
Q 1281 4522 2041 4863 
L 2041 4556 
Q 1559 4225 1350 3623 
Q 1141 3022 1141 1931 
Q 1141 844 1350 242 
Q 1559 -359 2041 -691 
L 2041 -997 
z
" transform="scale(0.015625)"/>
       <path id="DejaVuSerif-29" d="M 453 -997 
L 453 -691 
Q 934 -359 1145 242 
Q 1356 844 1356 1931 
Q 1356 3022 1145 3623 
Q 934 4225 453 4556 
L 453 4863 
Q 1216 4522 1603 3783 
Q 1991 3044 1991 1931 
Q 1991 822 1603 83 
Q 1216 -656 453 -997 
z
" transform="scale(0.015625)"/>
      </defs>
      <use xlink:href="#DejaVuSerif-52"/>
      <use xlink:href="#DejaVuSerif-61" transform="translate(77.542969 0)"/>
      <use xlink:href="#DejaVuSerif-74" transform="translate(137.162109 0)"/>
      <use xlink:href="#DejaVuSerif-65" transform="translate(177.347656 0)"/>
      <use xlink:href="#DejaVuSerif-20" transform="translate(236.527344 0)"/>
      <use xlink:href="#DejaVuSerif-52" transform="translate(268.314453 0)"/>
      <use xlink:href="#DejaVuSerif-28" transform="translate(343.607422 0)"/>
      <use xlink:href="#DejaVuSerif-74" transform="translate(382.621094 0)"/>
      <use xlink:href="#DejaVuSerif-29" transform="translate(422.806641 0)"/>
     </g>
    </g>
    <g id="line2d_33">
     <path d="M 342.0525 151.28875 
L 350.0525 151.28875 
L 358.0525 151.28875 
" style="fill: none; stroke-dasharray: 9.25,4; stroke-dashoffset: 0; stroke: #2563eb; stroke-width: 2.5"/>
    </g>
    <g id="text_4">
     <!-- Cumulative F(t) -->
     <g style="fill: #262626" transform="translate(364.4525 154.08875) scale(0.08 -0.08)">
      <defs>
       <path id="DejaVuSerif-43" d="M 4513 1234 
Q 4306 581 3820 245 
Q 3334 -91 2591 -91 
Q 2134 -91 1743 65 
Q 1353 222 1050 525 
Q 700 875 529 1320 
Q 359 1766 359 2328 
Q 359 3416 987 4083 
Q 1616 4750 2644 4750 
Q 3025 4750 3456 4650 
Q 3888 4550 4384 4347 
L 4384 3272 
L 4031 3272 
Q 3916 3859 3567 4137 
Q 3219 4416 2591 4416 
Q 1844 4416 1459 3886 
Q 1075 3356 1075 2328 
Q 1075 1303 1459 773 
Q 1844 244 2591 244 
Q 3113 244 3450 492 
Q 3788 741 3938 1234 
L 4513 1234 
z
" transform="scale(0.015625)"/>
       <path id="DejaVuSerif-75" d="M 2266 3322 
L 3341 3322 
L 3341 331 
L 3884 331 
L 3884 0 
L 2766 0 
L 2766 588 
Q 2606 256 2353 82 
Q 2100 -91 1766 -91 
Q 1213 -91 952 223 
Q 691 538 691 1209 
L 691 2988 
L 172 2988 
L 172 3322 
L 1269 3322 
L 1269 1388 
Q 1269 781 1417 556 
Q 1566 331 1947 331 
Q 2347 331 2556 625 
Q 2766 919 2766 1478 
L 2766 2988 
L 2266 2988 
L 2266 3322 
z
" transform="scale(0.015625)"/>
       <path id="DejaVuSerif-6d" d="M 3316 2675 
Q 3481 3041 3739 3227 
Q 3997 3413 4341 3413 
Q 4863 3413 5119 3089 
Q 5375 2766 5375 2113 
L 5375 331 
L 5894 331 
L 5894 0 
L 4300 0 
L 4300 331 
L 4800 331 
L 4800 2047 
Q 4800 2556 4650 2772 
Q 4500 2988 4153 2988 
Q 3769 2988 3567 2697 
Q 3366 2406 3366 1850 
L 3366 331 
L 3866 331 
L 3866 0 
L 2291 0 
L 2291 331 
L 2791 331 
L 2791 2069 
Q 2791 2566 2641 2777 
Q 2491 2988 2144 2988 
Q 1759 2988 1557 2697 
Q 1356 2406 1356 1850 
L 1356 331 
L 1856 331 
L 1856 0 
L 263 0 
L 263 331 
L 781 331 
L 781 2994 
L 231 2994 
L 231 3322 
L 1356 3322 
L 1356 2731 
Q 1516 3063 1762 3238 
Q 2009 3413 2322 3413 
Q 2709 3413 2968 3220 
Q 3228 3028 3316 2675 
z
" transform="scale(0.015625)"/>
       <path id="DejaVuSerif-6c" d="M 1313 331 
L 1856 331 
L 1856 0 
L 184 0 
L 184 331 
L 738 331 
L 738 4531 
L 184 4531 
L 184 4863 
L 1313 4863 
L 1313 331 
z
" transform="scale(0.015625)"/>
       <path id="DejaVuSerif-76" d="M 1581 0 
L 359 2988 
L -19 2988 
L -19 3322 
L 1509 3322 
L 1509 2988 
L 978 2988 
L 1913 703 
L 2847 2988 
L 2350 2988 
L 2350 3322 
L 3597 3322 
L 3597 2988 
L 3225 2988 
L 2003 0 
L 1581 0 
z
" transform="scale(0.015625)"/>
       <path id="DejaVuSerif-46" d="M 353 0 
L 353 331 
L 947 331 
L 947 4331 
L 353 4331 
L 353 4666 
L 4172 4666 
L 4172 3628 
L 3788 3628 
L 3788 4281 
L 1581 4281 
L 1581 2719 
L 3175 2719 
L 3175 3303 
L 3559 3303 
L 3559 1753 
L 3175 1753 
L 3175 2338 
L 1581 2338 
L 1581 331 
L 2328 331 
L 2328 0 
L 353 0 
z
" transform="scale(0.015625)"/>
      </defs>
      <use xlink:href="#DejaVuSerif-43"/>
      <use xlink:href="#DejaVuSerif-75" transform="translate(76.513672 0)"/>
      <use xlink:href="#DejaVuSerif-6d" transform="translate(140.917969 0)"/>
      <use xlink:href="#DejaVuSerif-75" transform="translate(235.742188 0)"/>
      <use xlink:href="#DejaVuSerif-6c" transform="translate(300.146484 0)"/>
      <use xlink:href="#DejaVuSerif-61" transform="translate(332.128906 0)"/>
      <use xlink:href="#DejaVuSerif-74" transform="translate(391.748047 0)"/>
      <use xlink:href="#DejaVuSerif-69" transform="translate(431.933594 0)"/>
      <use xlink:href="#DejaVuSerif-76" transform="translate(463.916016 0)"/>
      <use xlink:href="#DejaVuSerif-65" transform="translate(520.410156 0)"/>
      <use xlink:href="#DejaVuSerif-20" transform="translate(579.589844 0)"/>
      <use xlink:href="#DejaVuSerif-46" transform="translate(611.376953 0)"/>
      <use xlink:href="#DejaVuSerif-28" transform="translate(680.761719 0)"/>
      <use xlink:href="#DejaVuSerif-74" transform="translate(719.775391 0)"/>
      <use xlink:href="#DejaVuSerif-29" transform="translate(759.960938 0)"/>
     </g>
    </g>
   </g>
  </g>
  <g id="axes_2">
   <g id="matplotlib.axis_3">
    <g id="ytick_9">
     <g id="line2d_34">
      <path d="M 29.91375 268.928182 
L 435.57375 268.928182 
" clip-path="url(#p8e33c555a8)" style="fill: none; stroke: #cccccc; stroke-width: 0.8; stroke-linecap: round"/>
     </g>
     <g id="line2d_35"/>
    </g>
    <g id="ytick_10">
     <g id="line2d_36">
      <path d="M 29.91375 232.879761 
L 435.57375 232.879761 
" clip-path="url(#p8e33c555a8)" style="fill: none; stroke: #cccccc; stroke-width: 0.8; stroke-linecap: round"/>
     </g>
     <g id="line2d_37"/>
    </g>
    <g id="ytick_11">
     <g id="line2d_38">
      <path d="M 29.91375 196.83134 
L 435.57375 196.83134 
" clip-path="url(#p8e33c555a8)" style="fill: none; stroke: #cccccc; stroke-width: 0.8; stroke-linecap: round"/>
     </g>
     <g id="line2d_39"/>
    </g>
    <g id="ytick_12">
     <g id="line2d_40">
      <path d="M 29.91375 160.78292 
L 435.57375 160.78292 
" clip-path="url(#p8e33c555a8)" style="fill: none; stroke: #cccccc; stroke-width: 0.8; stroke-linecap: round"/>
     </g>
     <g id="line2d_41"/>
    </g>
    <g id="ytick_13">
     <g id="line2d_42">
      <path d="M 29.91375 124.734499 
L 435.57375 124.734499 
" clip-path="url(#p8e33c555a8)" style="fill: none; stroke: #cccccc; stroke-width: 0.8; stroke-linecap: round"/>
     </g>
     <g id="line2d_43"/>
    </g>
    <g id="ytick_14">
     <g id="line2d_44">
      <path d="M 29.91375 88.686078 
L 435.57375 88.686078 
" clip-path="url(#p8e33c555a8)" style="fill: none; stroke: #cccccc; stroke-width: 0.8; stroke-linecap: round"/>
     </g>
     <g id="line2d_45"/>
    </g>
    <g id="ytick_15">
     <g id="line2d_46">
      <path d="M 29.91375 52.637657 
L 435.57375 52.637657 
" clip-path="url(#p8e33c555a8)" style="fill: none; stroke: #cccccc; stroke-width: 0.8; stroke-linecap: round"/>
     </g>
     <g id="line2d_47"/>
    </g>
    <g id="ytick_16">
     <g id="line2d_48">
      <path d="M 29.91375 16.589236 
L 435.57375 16.589236 
" clip-path="url(#p8e33c555a8)" style="fill: none; stroke: #cccccc; stroke-width: 0.8; stroke-linecap: round"/>
     </g>
     <g id="line2d_49"/>
    </g>
    <g id="text_5">
     <!-- Cumulative -->
     <g style="fill: #2563eb" transform="translate(452.191875 180.7875) rotate(-90) scale(0.12 -0.12)">
      <use xlink:href="#DejaVuSerif-43"/>
      <use xlink:href="#DejaVuSerif-75" transform="translate(76.513672 0)"/>
      <use xlink:href="#DejaVuSerif-6d" transform="translate(140.917969 0)"/>
      <use xlink:href="#DejaVuSerif-75" transform="translate(235.742188 0)"/>
      <use xlink:href="#DejaVuSerif-6c" transform="translate(300.146484 0)"/>
      <use xlink:href="#DejaVuSerif-61" transform="translate(332.128906 0)"/>
      <use xlink:href="#DejaVuSerif-74" transform="translate(391.748047 0)"/>
      <use xlink:href="#DejaVuSerif-69" transform="translate(431.933594 0)"/>
      <use xlink:href="#DejaVuSerif-76" transform="translate(463.916016 0)"/>
      <use xlink:href="#DejaVuSerif-65" transform="translate(520.410156 0)"/>
     </g>
    </g>
   </g>
   <g id="line2d_50">
    <path d="M 48.352841 268.928182 
L 54.519761 258.292342 
L 60.686681 248.074907 
L 66.853601 238.259417 
L 73.020521 228.830058 
L 79.187441 219.771642 
L 85.354361 211.069576 
L 91.521281 202.709842 
L 97.688201 194.678971 
L 103.855121 186.964028 
L 110.022041 179.552583 
L 116.188961 172.432698 
L 123.589265 164.257577 
L 130.989569 156.466844 
L 138.389873 149.042425 
L 145.790177 141.967096 
L 153.190482 135.224444 
L 160.590786 128.798826 
L 167.99109 122.675335 
L 175.391394 116.839766 
L 182.791698 111.278581 
L 190.192002 105.978878 
L 197.592306 100.928364 
L 204.99261 96.11532 
L 213.626298 90.785373 
L 222.259986 85.746644 
L 230.893674 80.98322 
L 239.527362 76.48006 
L 248.16105 72.222943 
L 256.794738 68.198426 
L 265.428426 64.393801 
L 275.295498 60.29953 
L 285.16257 56.459906 
L 295.029642 52.85909 
L 304.896714 49.48223 
L 315.99717 45.933649 
L 327.097627 42.632381 
L 338.198083 39.561188 
L 349.298539 36.704036 
L 361.632379 33.762351 
L 373.966219 31.04756 
L 387.533443 28.302506 
L 401.100667 25.789433 
L 415.901275 23.289481 
L 417.134659 23.091818 
L 417.134659 23.091818 
" clip-path="url(#p8e33c555a8)" style="fill: none; stroke-dasharray: 9.25,4; stroke-dashoffset: 0; stroke: #2563eb; stroke-width: 2.5"/>
   </g>
   <g id="patch_7">
    <path d="M 29.91375 281.22 
L 29.91375 10.8 
" style="fill: none; stroke: #cccccc; stroke-linejoin: miter; stroke-linecap: square"/>
   </g>
   <g id="patch_8">
    <path d="M 435.57375 281.22 
L 435.57375 10.8 
" style="fill: none; stroke: #cccccc; stroke-linejoin: miter; stroke-linecap: square"/>
   </g>
   <g id="patch_9">
    <path d="M 29.91375 281.22 
L 435.57375 281.22 
" style="fill: none; stroke: #cccccc; stroke-linejoin: miter; stroke-linecap: square"/>
   </g>
   <g id="patch_10">
    <path d="M 29.91375 10.8 
L 435.57375 10.8 
" style="fill: none; stroke: #cccccc; stroke-linejoin: miter; stroke-linecap: square"/>
   </g>
  </g>
 </g>
 <defs>
  <clipPath id="p8e33c555a8">
   <rect x="29.91375" y="10.8" width="405.66" height="270.42"/>
  </clipPath>
 </defs>
</svg>
