<?xml version="1.0" encoding="utf-8" standalone="no"?>
<!DOCTYPE svg PUBLIC "-//W3C//DTD SVG 1.1//EN"
  "http://www.w3.org/Graphics/SVG/1.1/DTD/svg11.dtd">
<svg xmlns:xlink="http://www.w3.org/1999/xlink" width="447.9375pt" height="311.13375pt" viewBox="0 0 447.9375 311.13375" xmlns="http://www.w3.org/2000/svg" version="1.1">
 <metadata>
  <rdf:RDF xmlns:dc="http://purl.org/dc/elements/1.1/" xmlns:cc="http://creativecommons.org/ns#" xmlns:rdf="http://www.w3.org/1999/02/22-rdf-syntax-ns#">
   <cc:Work>
    <dc:type rdf:resource="http://purl.org/dc/dcmitype/StillImage"/>
    <dc:date>2026-02-19T08:27:10.453410</dc:date>
    <dc:format>image/svg+xml</dc:format>
    <dc:creator>
     <cc:Agent>
      <dc:title>Matplotlib v3.10.1, https://matplotlib.org/</dc:title>
     </cc:Agent>
    </dc:creator>
   </cc:Work>
  </rdf:RDF>
 </metadata>
 <defs>
  <style type="text/css">*{stroke-linejoin: round; stroke-linecap: butt}</style>
 </defs>
 <g id="figure_1">
  <g id="patch_1">
   <path d="M 0 311.13375 
L 447.9375 311.13375 
L 447.9375 0 
L 0 0 
z
" style="fill: #ffffff"/>
  </g>
  <g id="axes_1">
   <g id="patch_2">
    <path d="M 29.91375 281.22 
L 418.02375 281.22 
L 418.02375 10.8 
L 29.91375 10.8 
z
" style="fill: #ffffff"/>
   </g>
   <g id="matplotlib.axis_1">
    <g id="xtick_1">
     <g id="line2d_1">
      <path d="M 47.555114 281.22 
L 47.555114 10.8 
" clip-path="url(#p1be7c488c0)" style="fill: none; stroke: #cccccc; stroke-width: 0.8; stroke-linecap: round"/>
     </g>
     <g id="line2d_2"/>
    </g>
    <g id="xtick_2">
     <g id="line2d_3">
      <path d="M 106.359659 281.22 
L 106.359659 10.8 
" clip-path="url(#p1be7c488c0)" style="fill: none; stroke: #cccccc; stroke-width: 0.8; stroke-linecap: round"/>
     </g>
     <g id="line2d_4"/>
    </g>
    <g id="xtick_3">
     <g id="line2d_5">
      <path d="M 165.164205 281.22 
L 165.164205 10.8 
" clip-path="url(#p1be7c488c0)" style="fill: none; stroke: #cccccc; stroke-width: 0.8; stroke-linecap: round"/>
     </g>
     <g id="line2d_6"/>
    </g>
    <g id="xtick_4">
     <g id="line2d_7">
      <path d="M 223.96875 281.22 
L 223.96875 10.8 
" clip-path="url(#p1be7c488c0)" style="fill: none; stroke: #cccccc; stroke-width: 0.8; stroke-linecap: round"/>
     </g>
     <g id="line2d_8"/>
    </g>
    <g id="xtick_5">
     <g id="line2d_9">
      <path d="M 282.773295 281.22 
L 282.773295 10.8 
" clip-path="url(#p1be7c488c0)" style="fill: none; stroke: #cccccc; stroke-width: 0.8; stroke-linecap: round"/>
     </g>
     <g id="line2d_10"/>
    </g>
    <g id="xtick_6">
     <g id="line2d_11">
      <path d="M 341.577841 281.22 
L 341.577841 10.8 
" clip-path="url(#p1be7c488c0)" style="fill: none; stroke: #cccccc; stroke-width: 0.8; stroke-linecap: round"/>
     </g>
     <g id="line2d_12"/>
    </g>
    <g id="xtick_7">
     <g id="line2d_13">
      <path d="M 400.382386 281.22 
L 400.382386 10.8 
" clip-path="url(#p1be7c488c0)" style="fill: none; stroke: #cccccc; stroke-width: 0.8; stroke-linecap: round"/>
     </g>
     <g id="line2d_14"/>
    </g>
    <g id="text_1">
     <!-- Days into winter season -->
     <g style="fill: #262626" transform="translate(151.0725 297.6675) scale(0.12 -0.12)">
      <defs>
       <path id="DejaVuSerif-44" d="M 1581 331 
L 2163 331 
Q 3072 331 3558 850 
Q 4044 1369 4044 2338 
Q 4044 3306 3559 3818 
Q 3075 4331 2163 4331 
L 1581 4331 
L 1581 331 
z
M 353 0 
L 353 331 
L 947 331 
L 947 4331 
L 353 4331 
L 353 4666 
L 2209 4666 
Q 3416 4666 4089 4050 
Q 4763 3434 4763 2338 
Q 4763 1238 4088 619 
Q 3413 0 2209 0 
L 353 0 
z
" transform="scale(0.015625)"/>
       <path id="DejaVuSerif-61" d="M 2547 1044 
L 2547 1747 
L 1806 1747 
Q 1378 1747 1168 1562 
Q 959 1378 959 997 
Q 959 650 1171 447 
Q 1384 244 1747 244 
Q 2106 244 2326 466 
Q 2547 688 2547 1044 
z
M 3122 2075 
L 3122 331 
L 3634 331 
L 3634 0 
L 2547 0 
L 2547 359 
Q 2356 128 2106 18 
Q 1856 -91 1522 -91 
Q 969 -91 644 203 
Q 319 497 319 997 
Q 319 1513 691 1797 
Q 1063 2081 1741 2081 
L 2547 2081 
L 2547 2309 
Q 2547 2688 2317 2895 
Q 2088 3103 1672 3103 
Q 1328 3103 1125 2947 
Q 922 2791 872 2484 
L 575 2484 
L 575 3156 
Q 875 3284 1158 3348 
Q 1441 3413 1709 3413 
Q 2400 3413 2761 3070 
Q 3122 2728 3122 2075 
z
" transform="scale(0.015625)"/>
       <path id="DejaVuSerif-79" d="M 1381 -609 
L 1600 -56 
L 359 2988 
L -19 2988 
L -19 3322 
L 1509 3322 
L 1509 2988 
L 978 2988 
L 1913 703 
L 2847 2988 
L 2350 2988 
L 2350 3322 
L 3597 3322 
L 3597 2988 
L 3225 2988 
L 1703 -750 
Q 1547 -1138 1356 -1280 
Q 1166 -1422 819 -1422 
Q 672 -1422 517 -1397 
Q 363 -1372 206 -1325 
L 206 -691 
L 500 -691 
Q 519 -903 608 -995 
Q 697 -1088 884 -1088 
Q 1056 -1088 1161 -992 
Q 1266 -897 1381 -609 
z
" transform="scale(0.015625)"/>
       <path id="DejaVuSerif-73" d="M 359 184 
L 359 959 
L 691 959 
Q 703 588 923 403 
Q 1144 219 1575 219 
Q 1963 219 2166 364 
Q 2369 509 2369 788 
Q 2369 1006 2220 1140 
Q 2072 1275 1594 1428 
L 1178 1569 
Q 750 1706 558 1912 
Q 366 2119 366 2438 
Q 366 2894 700 3153 
Q 1034 3413 1625 3413 
Q 1888 3413 2178 3344 
Q 2469 3275 2778 3144 
L 2778 2419 
L 2447 2419 
Q 2434 2741 2221 2922 
Q 2009 3103 1644 3103 
Q 1281 3103 1095 2975 
Q 909 2847 909 2591 
Q 909 2381 1050 2254 
Q 1191 2128 1613 1997 
L 2069 1856 
Q 2541 1709 2748 1489 
Q 2956 1269 2956 922 
Q 2956 450 2595 179 
Q 2234 -91 1600 -91 
Q 1278 -91 972 -22 
Q 666 47 359 184 
z
" transform="scale(0.015625)"/>
       <path id="DejaVuSerif-20" transform="scale(0.015625)"/>
       <path id="DejaVuSerif-69" d="M 622 4353 
Q 622 4497 726 4603 
Q 831 4709 978 4709 
Q 1122 4709 1226 4603 
Q 1331 4497 1331 4353 
Q 1331 4206 1228 4103 
Q 1125 4000 978 4000 
Q 831 4000 726 4103 
Q 622 4206 622 4353 
z
M 1356 331 
L 1900 331 
L 1900 0 
L 231 0 
L 231 331 
L 781 331 
L 781 2988 
L 231 2988 
L 231 3322 
L 1356 3322 
L 1356 331 
z
" transform="scale(0.015625)"/>
       <path id="DejaVuSerif-6e" d="M 263 0 
L 263 331 
L 781 331 
L 781 2988 
L 231 2988 
L 231 3322 
L 1356 3322 
L 1356 2731 
Q 1516 3069 1770 3241 
Q 2025 3413 2363 3413 
Q 2913 3413 3172 3097 
Q 3431 2781 3431 2113 
L 3431 331 
L 3944 331 
L 3944 0 
L 2356 0 
L 2356 331 
L 2853 331 
L 2853 1931 
Q 2853 2541 2703 2767 
Q 2553 2994 2175 2994 
Q 1775 2994 1565 2701 
Q 1356 2409 1356 1850 
L 1356 331 
L 1856 331 
L 1856 0 
L 263 0 
z
" transform="scale(0.015625)"/>
       <path id="DejaVuSerif-74" d="M 691 2988 
L 184 2988 
L 184 3322 
L 691 3322 
L 691 4353 
L 1269 4353 
L 1269 3322 
L 2350 3322 
L 2350 2988 
L 1269 2988 
L 1269 878 
Q 1269 456 1350 337 
Q 1431 219 1650 219 
Q 1875 219 1978 351 
Q 2081 484 2088 781 
L 2522 781 
Q 2497 328 2275 118 
Q 2053 -91 1600 -91 
Q 1103 -91 897 129 
Q 691 350 691 878 
L 691 2988 
z
" transform="scale(0.015625)"/>
       <path id="DejaVuSerif-6f" d="M 1925 219 
Q 2388 219 2623 584 
Q 2859 950 2859 1663 
Q 2859 2375 2623 2739 
Q 2388 3103 1925 3103 
Q 1463 3103 1227 2739 
Q 991 2375 991 1663 
Q 991 950 1228 584 
Q 1466 219 1925 219 
z
M 1925 -91 
Q 1200 -91 759 389 
Q 319 869 319 1663 
Q 319 2456 758 2934 
Q 1197 3413 1925 3413 
Q 2653 3413 3092 2934 
Q 3531 2456 3531 1663 
Q 3531 869 3092 389 
Q 2653 -91 1925 -91 
z
" transform="scale(0.015625)"/>
       <path id="DejaVuSerif-77" d="M 3072 3322 
L 3922 728 
L 4672 2988 
L 4191 2988 
L 4191 3322 
L 5394 3322 
L 5394 2988 
L 5025 2988 
L 4038 0 
L 3559 0 
L 2741 2484 
L 1919 0 
L 1459 0 
L 475 2988 
L 103 2988 
L 103 3322 
L 1606 3322 
L 1606 2988 
L 1069 2988 
L 1813 728 
L 2669 3322 
L 3072 3322 
z
" transform="scale(0.015625)"/>
       <path id="DejaVuSerif-65" d="M 3469 1600 
L 991 1600 
L 991 1575 
Q 991 903 1244 561 
Q 1497 219 1991 219 
Q 2369 219 2611 417 
Q 2853 616 2950 1006 
L 3413 1006 
Q 3275 459 2904 184 
Q 2534 -91 1931 -91 
Q 1203 -91 761 389 
Q 319 869 319 1663 
Q 319 2450 753 2931 
Q 1188 3413 1894 3413 
Q 2647 3413 3050 2948 
Q 3453 2484 3469 1600 
z
M 2791 1931 
Q 2772 2513 2545 2808 
Q 2319 3103 1894 3103 
Q 1497 3103 1269 2806 
Q 1041 2509 991 1931 
L 2791 1931 
z
" transform="scale(0.015625)"/>
       <path id="DejaVuSerif-72" d="M 3059 3328 
L 3059 2497 
L 2728 2497 
Q 2713 2744 2591 2866 
Q 2469 2988 2234 2988 
Q 1809 2988 1582 2694 
Q 1356 2400 1356 1850 
L 1356 331 
L 2022 331 
L 2022 0 
L 263 0 
L 263 331 
L 781 331 
L 781 2994 
L 231 2994 
L 231 3322 
L 1356 3322 
L 1356 2731 
Q 1525 3078 1790 3245 
Q 2056 3413 2438 3413 
Q 2578 3413 2733 3391 
Q 2888 3369 3059 3328 
z
" transform="scale(0.015625)"/>
      </defs>
      <use xlink:href="#DejaVuSerif-44"/>
      <use xlink:href="#DejaVuSerif-61" transform="translate(80.175781 0)"/>
      <use xlink:href="#DejaVuSerif-79" transform="translate(139.794922 0)"/>
      <use xlink:href="#DejaVuSerif-73" transform="translate(196.289062 0)"/>
      <use xlink:href="#DejaVuSerif-20" transform="translate(247.607422 0)"/>
      <use xlink:href="#DejaVuSerif-69" transform="translate(279.394531 0)"/>
      <use xlink:href="#DejaVuSerif-6e" transform="translate(311.376953 0)"/>
      <use xlink:href="#DejaVuSerif-74" transform="translate(375.78125 0)"/>
      <use xlink:href="#DejaVuSerif-6f" transform="translate(415.966797 0)"/>
      <use xlink:href="#DejaVuSerif-20" transform="translate(476.171875 0)"/>
      <use xlink:href="#DejaVuSerif-77" transform="translate(507.958984 0)"/>
      <use xlink:href="#DejaVuSerif-69" transform="translate(593.554688 0)"/>
      <use xlink:href="#DejaVuSerif-6e" transform="translate(625.537109 0)"/>
      <use xlink:href="#DejaVuSerif-74" transform="translate(689.941406 0)"/>
      <use xlink:href="#DejaVuSerif-65" transform="translate(730.126953 0)"/>
      <use xlink:href="#DejaVuSerif-72" transform="translate(789.306641 0)"/>
      <use xlink:href="#DejaVuSerif-20" transform="translate(837.109375 0)"/>
      <use xlink:href="#DejaVuSerif-73" transform="translate(868.896484 0)"/>
      <use xlink:href="#DejaVuSerif-65" transform="translate(920.214844 0)"/>
      <use xlink:href="#DejaVuSerif-61" transform="translate(979.394531 0)"/>
      <use xlink:href="#DejaVuSerif-73" transform="translate(1039.013672 0)"/>
      <use xlink:href="#DejaVuSerif-6f" transform="translate(1090.332031 0)"/>
      <use xlink:href="#DejaVuSerif-6e" transform="translate(1150.537109 0)"/>
     </g>
    </g>
   </g>
   <g id="matplotlib.axis_2">
    <g id="ytick_1">
     <g id="line2d_15">
      <path d="M 29.91375 268.928182 
L 418.02375 268.928182 
" clip-path="url(#p1be7c488c0)" style="fill: none; stroke: #cccccc; stroke-width: 0.8; stroke-linecap: round"/>
     </g>
     <g id="line2d_16"/>
    </g>
    <g id="ytick_2">
     <g id="line2d_17">
      <path d="M 29.91375 238.198636 
L 418.02375 238.198636 
" clip-path="url(#p1be7c488c0)" style="fill: none; stroke: #cccccc; stroke-width: 0.8; stroke-linecap: round"/>
     </g>
     <g id="line2d_18"/>
    </g>
    <g id="ytick_3">
     <g id="line2d_19">
      <path d="M 29.91375 207.469091 
L 418.02375 207.469091 
" clip-path="url(#p1be7c488c0)" style="fill: none; stroke: #cccccc; stroke-width: 0.8; stroke-linecap: round"/>
     </g>
     <g id="line2d_20"/>
    </g>
    <g id="ytick_4">
     <g id="line2d_21">
      <path d="M 29.91375 176.739545 
L 418.02375 176.739545 
" clip-path="url(#p1be7c488c0)" style="fill: none; stroke: #cccccc; stroke-width: 0.8; stroke-linecap: round"/>
     </g>
     <g id="line2d_22"/>
    </g>
    <g id="ytick_5">
     <g id="line2d_23">
      <path d="M 29.91375 146.01 
L 418.02375 146.01 
" clip-path="url(#p1be7c488c0)" style="fill: none; stroke: #cccccc; stroke-width: 0.8; stroke-linecap: round"/>
     </g>
     <g id="line2d_24"/>
    </g>
    <g id="ytick_6">
     <g id="line2d_25">
      <path d="M 29.91375 115.280455 
L 418.02375 115.280455 
" clip-path="url(#p1be7c488c0)" style="fill: none; stroke: #cccccc; stroke-width: 0.8; stroke-linecap: round"/>
     </g>
     <g id="line2d_26"/>
    </g>
    <g id="ytick_7">
     <g id="line2d_27">
      <path d="M 29.91375 84.550909 
L 418.02375 84.550909 
" clip-path="url(#p1be7c488c0)" style="fill: none; stroke: #cccccc; stroke-width: 0.8; stroke-linecap: round"/>
     </g>
     <g id="line2d_28"/>
    </g>
    <g id="ytick_8">
     <g id="line2d_29">
      <path d="M 29.91375 53.821364 
L 418.02375 53.821364 
" clip-path="url(#p1be7c488c0)" style="fill: none; stroke: #cccccc; stroke-width: 0.8; stroke-linecap: round"/>
     </g>
     <g id="line2d_30"/>
    </g>
    <g id="ytick_9">
     <g id="line2d_31">
      <path d="M 29.91375 23.091818 
L 418.02375 23.091818 
" clip-path="url(#p1be7c488c0)" style="fill: none; stroke: #cccccc; stroke-width: 0.8; stroke-linecap: round"/>
     </g>
     <g id="line2d_32"/>
    </g>
    <g id="text_2">
     <!-- Rate -->
     <g style="fill: #0ea5e9" transform="translate(19.918125 160.202813) rotate(-90) scale(0.12 -0.12)">
      <defs>
       <path id="DejaVuSerif-52" d="M 3066 2316 
Q 3284 2256 3442 2114 
Q 3600 1972 3725 1716 
L 4403 331 
L 4972 331 
L 4972 0 
L 3872 0 
L 3144 1484 
Q 2934 1916 2759 2042 
Q 2584 2169 2278 2169 
L 1581 2169 
L 1581 331 
L 2241 331 
L 2241 0 
L 353 0 
L 353 331 
L 947 331 
L 947 4331 
L 353 4331 
L 353 4666 
L 2719 4666 
Q 3400 4666 3770 4341 
Q 4141 4016 4141 3419 
Q 4141 2938 3870 2661 
Q 3600 2384 3066 2316 
z
M 1581 2503 
L 2503 2503 
Q 2975 2503 3200 2726 
Q 3425 2950 3425 3419 
Q 3425 3888 3200 4109 
Q 2975 4331 2503 4331 
L 1581 4331 
L 1581 2503 
z
" transform="scale(0.015625)"/>
      </defs>
      <use xlink:href="#DejaVuSerif-52"/>
      <use xlink:href="#DejaVuSerif-61" transform="translate(77.542969 0)"/>
      <use xlink:href="#DejaVuSerif-74" transform="translate(137.162109 0)"/>
      <use xlink:href="#DejaVuSerif-65" transform="translate(177.347656 0)"/>
     </g>
    </g>
   </g>
   <g id="FillBetweenPolyCollection_1">
    <defs>
     <path id="m91254979c9" d="M 47.555114 -288.041932 
L 47.555114 -42.205568 
L 48.262182 -42.205568 
L 48.969251 -42.205568 
L 49.67632 -42.205568 
L 50.383388 -42.205568 
L 51.090457 -42.205568 
L 51.797526 -42.205568 
L 52.504594 -42.205568 
L 53.211663 -42.205568 
L 53.918732 -42.205568 
L 54.6258 -42.205568 
L 55.332869 -42.205568 
L 56.039938 -42.205568 
L 56.747007 -42.205568 
L 57.454075 -42.205568 
L 58.161144 -42.205568 
L 58.868213 -42.205568 
L 59.575281 -42.205568 
L 60.28235 -42.205568 
L 60.989419 -42.205568 
L 61.696487 -42.205568 
L 62.403556 -42.205568 
L 63.110625 -42.205568 
L 63.817693 -42.205568 
L 64.524762 -42.205568 
L 65.231831 -42.205568 
L 65.938899 -42.205568 
L 66.645968 -42.205568 
L 67.353037 -42.205568 
L 68.060105 -42.205568 
L 68.767174 -42.205568 
L 69.474243 -42.205568 
L 70.181311 -42.205568 
L 70.88838 -42.205568 
L 71.595449 -42.205568 
L 72.302518 -42.205568 
L 73.009586 -42.205568 
L 73.716655 -42.205568 
L 74.423724 -42.205568 
L 75.130792 -42.205568 
L 75.837861 -42.205568 
L 76.54493 -42.205568 
L 77.251998 -42.205568 
L 77.959067 -42.205568 
L 78.666136 -42.205568 
L 79.373204 -42.205568 
L 80.080273 -42.205568 
L 80.787342 -42.205568 
L 81.49441 -42.205568 
L 82.201479 -42.205568 
L 82.908548 -42.205568 
L 83.615616 -42.205568 
L 84.322685 -42.205568 
L 85.029754 -42.205568 
L 85.736823 -42.205568 
L 86.443891 -42.205568 
L 87.15096 -42.205568 
L 87.858029 -42.205568 
L 88.565097 -42.205568 
L 89.272166 -42.205568 
L 89.979235 -42.205568 
L 90.686303 -42.205568 
L 91.393372 -42.205568 
L 92.100441 -42.205568 
L 92.807509 -42.205568 
L 93.514578 -42.205568 
L 94.221647 -42.205568 
L 94.928715 -42.205568 
L 95.635784 -42.205568 
L 96.342853 -42.205568 
L 97.049921 -42.205568 
L 97.75699 -42.205568 
L 98.464059 -42.205568 
L 99.171127 -42.205568 
L 99.878196 -42.205568 
L 100.585265 -42.205568 
L 101.292334 -42.205568 
L 101.999402 -42.205568 
L 102.706471 -42.205568 
L 103.41354 -42.205568 
L 104.120608 -42.205568 
L 104.827677 -42.205568 
L 105.534746 -42.205568 
L 106.241814 -42.205568 
L 106.948883 -42.205568 
L 107.655952 -42.205568 
L 108.36302 -42.205568 
L 109.070089 -42.205568 
L 109.777158 -42.205568 
L 110.484226 -42.205568 
L 111.191295 -42.205568 
L 111.898364 -42.205568 
L 112.605432 -42.205568 
L 113.312501 -42.205568 
L 114.01957 -42.205568 
L 114.726639 -42.205568 
L 115.433707 -42.205568 
L 116.140776 -42.205568 
L 116.847845 -42.205568 
L 117.554913 -42.205568 
L 118.261982 -42.205568 
L 118.969051 -42.205568 
L 119.676119 -42.205568 
L 120.383188 -42.205568 
L 121.090257 -42.205568 
L 121.797325 -42.205568 
L 122.504394 -42.205568 
L 123.211463 -42.205568 
L 123.918531 -42.205568 
L 124.6256 -42.205568 
L 125.332669 -42.205568 
L 126.039737 -42.205568 
L 126.746806 -42.205568 
L 127.453875 -42.205568 
L 128.160943 -42.205568 
L 128.868012 -42.205568 
L 129.575081 -42.205568 
L 130.28215 -42.205568 
L 130.989218 -42.205568 
L 131.696287 -42.205568 
L 132.403356 -42.205568 
L 133.110424 -42.205568 
L 133.817493 -42.205568 
L 134.524562 -42.205568 
L 135.23163 -42.205568 
L 135.938699 -42.205568 
L 136.645768 -42.205568 
L 137.352836 -42.205568 
L 138.059905 -42.205568 
L 138.766974 -42.205568 
L 139.474042 -42.205568 
L 140.181111 -42.205568 
L 140.88818 -42.205568 
L 141.595248 -42.205568 
L 142.302317 -42.205568 
L 143.009386 -42.205568 
L 143.716454 -42.205568 
L 144.423523 -42.205568 
L 145.130592 -42.205568 
L 145.837661 -42.205568 
L 146.544729 -42.205568 
L 147.251798 -42.205568 
L 147.958867 -42.205568 
L 148.665935 -42.205568 
L 149.373004 -42.205568 
L 150.080073 -42.205568 
L 150.787141 -42.205568 
L 151.49421 -42.205568 
L 152.201279 -42.205568 
L 152.908347 -42.205568 
L 153.615416 -42.205568 
L 154.322485 -42.205568 
L 155.029553 -42.205568 
L 155.736622 -42.205568 
L 156.443691 -42.205568 
L 157.150759 -42.205568 
L 157.857828 -42.205568 
L 158.564897 -42.205568 
L 159.271966 -42.205568 
L 159.979034 -42.205568 
L 160.686103 -42.205568 
L 161.393172 -42.205568 
L 162.10024 -42.205568 
L 162.807309 -42.205568 
L 163.514378 -42.205568 
L 164.221446 -42.205568 
L 164.928515 -42.205568 
L 165.635584 -42.205568 
L 166.342652 -42.205568 
L 167.049721 -42.205568 
L 167.75679 -42.205568 
L 168.463858 -42.205568 
L 169.170927 -42.205568 
L 169.877996 -42.205568 
L 170.585064 -42.205568 
L 171.292133 -42.205568 
L 171.999202 -42.205568 
L 172.70627 -42.205568 
L 173.413339 -42.205568 
L 174.120408 -42.205568 
L 174.827477 -42.205568 
L 175.534545 -42.205568 
L 176.241614 -42.205568 
L 176.948683 -42.205568 
L 177.655751 -42.205568 
L 178.36282 -42.205568 
L 179.069889 -42.205568 
L 179.776957 -42.205568 
L 180.484026 -42.205568 
L 181.191095 -42.205568 
L 181.898163 -42.205568 
L 182.605232 -42.205568 
L 183.312301 -42.205568 
L 184.019369 -42.205568 
L 184.726438 -42.205568 
L 185.433507 -42.205568 
L 186.140575 -42.205568 
L 186.847644 -42.205568 
L 187.554713 -42.205568 
L 188.261782 -42.205568 
L 188.96885 -42.205568 
L 189.675919 -42.205568 
L 190.382988 -42.205568 
L 191.090056 -42.205568 
L 191.797125 -42.205568 
L 192.504194 -42.205568 
L 193.211262 -42.205568 
L 193.918331 -42.205568 
L 194.6254 -42.205568 
L 195.332468 -42.205568 
L 196.039537 -42.205568 
L 196.746606 -42.205568 
L 197.453674 -42.205568 
L 198.160743 -42.205568 
L 198.867812 -42.205568 
L 199.57488 -42.205568 
L 200.281949 -42.205568 
L 200.989018 -42.205568 
L 201.696086 -42.205568 
L 202.403155 -42.205568 
L 203.110224 -42.205568 
L 203.817293 -42.205568 
L 204.524361 -42.205568 
L 205.23143 -42.205568 
L 205.938499 -42.205568 
L 206.645567 -42.205568 
L 207.352636 -42.205568 
L 208.059705 -42.205568 
L 208.766773 -42.205568 
L 209.473842 -42.205568 
L 210.180911 -42.205568 
L 210.887979 -42.205568 
L 211.595048 -42.205568 
L 212.302117 -42.205568 
L 213.009185 -42.205568 
L 213.716254 -42.205568 
L 214.423323 -42.205568 
L 215.130391 -42.205568 
L 215.83746 -42.205568 
L 216.544529 -42.205568 
L 217.251598 -42.205568 
L 217.958666 -42.205568 
L 218.665735 -42.205568 
L 219.372804 -42.205568 
L 220.079872 -42.205568 
L 220.786941 -42.205568 
L 221.49401 -42.205568 
L 222.201078 -42.205568 
L 222.908147 -42.205568 
L 223.615216 -42.205568 
L 224.322284 -42.205568 
L 225.029353 -42.205568 
L 225.736422 -42.205568 
L 226.44349 -42.205568 
L 227.150559 -42.205568 
L 227.857628 -42.205568 
L 228.564696 -42.205568 
L 229.271765 -42.205568 
L 229.978834 -42.205568 
L 230.685902 -42.205568 
L 231.392971 -42.205568 
L 232.10004 -42.205568 
L 232.807109 -42.205568 
L 233.514177 -42.205568 
L 234.221246 -42.205568 
L 234.928315 -42.205568 
L 235.635383 -42.205568 
L 236.342452 -42.205568 
L 237.049521 -42.205568 
L 237.756589 -42.205568 
L 238.463658 -42.205568 
L 239.170727 -42.205568 
L 239.877795 -42.205568 
L 240.584864 -42.205568 
L 241.291933 -42.205568 
L 241.999001 -42.205568 
L 242.70607 -42.205568 
L 243.413139 -42.205568 
L 244.120207 -42.205568 
L 244.827276 -42.205568 
L 245.534345 -42.205568 
L 246.241414 -42.205568 
L 246.948482 -42.205568 
L 247.655551 -42.205568 
L 248.36262 -42.205568 
L 249.069688 -42.205568 
L 249.776757 -42.205568 
L 250.483826 -42.205568 
L 251.190894 -42.205568 
L 251.897963 -42.205568 
L 252.605032 -42.205568 
L 253.3121 -42.205568 
L 254.019169 -42.205568 
L 254.726238 -42.205568 
L 255.433306 -42.205568 
L 256.140375 -42.205568 
L 256.847444 -42.205568 
L 257.554512 -42.205568 
L 258.261581 -42.205568 
L 258.96865 -42.205568 
L 259.675718 -42.205568 
L 260.382787 -42.205568 
L 261.089856 -42.205568 
L 261.796925 -42.205568 
L 262.503993 -42.205568 
L 263.211062 -42.205568 
L 263.918131 -42.205568 
L 264.625199 -42.205568 
L 265.332268 -42.205568 
L 266.039337 -42.205568 
L 266.746405 -42.205568 
L 267.453474 -42.205568 
L 268.160543 -42.205568 
L 268.867611 -42.205568 
L 269.57468 -42.205568 
L 270.281749 -42.205568 
L 270.988817 -42.205568 
L 271.695886 -42.205568 
L 272.402955 -42.205568 
L 273.110023 -42.205568 
L 273.817092 -42.205568 
L 274.524161 -42.205568 
L 275.23123 -42.205568 
L 275.938298 -42.205568 
L 276.645367 -42.205568 
L 277.352436 -42.205568 
L 278.059504 -42.205568 
L 278.766573 -42.205568 
L 279.473642 -42.205568 
L 280.18071 -42.205568 
L 280.887779 -42.205568 
L 281.594848 -42.205568 
L 282.301916 -42.205568 
L 283.008985 -42.205568 
L 283.716054 -42.205568 
L 284.423122 -42.205568 
L 285.130191 -42.205568 
L 285.83726 -42.205568 
L 286.544328 -42.205568 
L 287.251397 -42.205568 
L 287.958466 -42.205568 
L 288.665534 -42.205568 
L 289.372603 -42.205568 
L 290.079672 -42.205568 
L 290.786741 -42.205568 
L 291.493809 -42.205568 
L 292.200878 -42.205568 
L 292.907947 -42.205568 
L 293.615015 -42.205568 
L 294.322084 -42.205568 
L 295.029153 -42.205568 
L 295.736221 -42.205568 
L 296.44329 -42.205568 
L 297.150359 -42.205568 
L 297.857427 -42.205568 
L 298.564496 -42.205568 
L 299.271565 -42.205568 
L 299.978633 -42.205568 
L 300.685702 -42.205568 
L 301.392771 -42.205568 
L 302.099839 -42.205568 
L 302.806908 -42.205568 
L 303.513977 -42.205568 
L 304.221046 -42.205568 
L 304.928114 -42.205568 
L 305.635183 -42.205568 
L 306.342252 -42.205568 
L 307.04932 -42.205568 
L 307.756389 -42.205568 
L 308.463458 -42.205568 
L 309.170526 -42.205568 
L 309.877595 -42.205568 
L 310.584664 -42.205568 
L 311.291732 -42.205568 
L 311.998801 -42.205568 
L 312.70587 -42.205568 
L 313.412938 -42.205568 
L 314.120007 -42.205568 
L 314.827076 -42.205568 
L 315.534144 -42.205568 
L 316.241213 -42.205568 
L 316.948282 -42.205568 
L 317.65535 -42.205568 
L 318.362419 -42.205568 
L 319.069488 -42.205568 
L 319.776557 -42.205568 
L 320.483625 -42.205568 
L 321.190694 -42.205568 
L 321.897763 -42.205568 
L 322.604831 -42.205568 
L 323.3119 -42.205568 
L 324.018969 -42.205568 
L 324.726037 -42.205568 
L 325.433106 -42.205568 
L 326.140175 -42.205568 
L 326.847243 -42.205568 
L 327.554312 -42.205568 
L 328.261381 -42.205568 
L 328.968449 -42.205568 
L 329.675518 -42.205568 
L 330.382587 -42.205568 
L 331.089655 -42.205568 
L 331.796724 -42.205568 
L 332.503793 -42.205568 
L 333.210861 -42.205568 
L 333.91793 -42.205568 
L 334.624999 -42.205568 
L 335.332068 -42.205568 
L 336.039136 -42.205568 
L 336.746205 -42.205568 
L 337.453274 -42.205568 
L 338.160342 -42.205568 
L 338.867411 -42.205568 
L 339.57448 -42.205568 
L 340.281548 -42.205568 
L 340.988617 -42.205568 
L 341.695686 -42.205568 
L 342.402754 -42.205568 
L 343.109823 -42.205568 
L 343.816892 -42.205568 
L 344.52396 -42.205568 
L 345.231029 -42.205568 
L 345.938098 -42.205568 
L 346.645166 -42.205568 
L 347.352235 -42.205568 
L 348.059304 -42.205568 
L 348.766373 -42.205568 
L 349.473441 -42.205568 
L 350.18051 -42.205568 
L 350.887579 -42.205568 
L 351.594647 -42.205568 
L 352.301716 -42.205568 
L 353.008785 -42.205568 
L 353.715853 -42.205568 
L 354.422922 -42.205568 
L 355.129991 -42.205568 
L 355.837059 -42.205568 
L 356.544128 -42.205568 
L 357.251197 -42.205568 
L 357.958265 -42.205568 
L 358.665334 -42.205568 
L 359.372403 -42.205568 
L 360.079471 -42.205568 
L 360.78654 -42.205568 
L 361.493609 -42.205568 
L 362.200677 -42.205568 
L 362.907746 -42.205568 
L 363.614815 -42.205568 
L 364.321884 -42.205568 
L 365.028952 -42.205568 
L 365.736021 -42.205568 
L 366.44309 -42.205568 
L 367.150158 -42.205568 
L 367.857227 -42.205568 
L 368.564296 -42.205568 
L 369.271364 -42.205568 
L 369.978433 -42.205568 
L 370.685502 -42.205568 
L 371.39257 -42.205568 
L 372.099639 -42.205568 
L 372.806708 -42.205568 
L 373.513776 -42.205568 
L 374.220845 -42.205568 
L 374.927914 -42.205568 
L 375.634982 -42.205568 
L 376.342051 -42.205568 
L 377.04912 -42.205568 
L 377.756189 -42.205568 
L 378.463257 -42.205568 
L 379.170326 -42.205568 
L 379.877395 -42.205568 
L 380.584463 -42.205568 
L 381.291532 -42.205568 
L 381.998601 -42.205568 
L 382.705669 -42.205568 
L 383.412738 -42.205568 
L 384.119807 -42.205568 
L 384.826875 -42.205568 
L 385.533944 -42.205568 
L 386.241013 -42.205568 
L 386.948081 -42.205568 
L 387.65515 -42.205568 
L 388.362219 -42.205568 
L 389.069287 -42.205568 
L 389.776356 -42.205568 
L 390.483425 -42.205568 
L 391.190493 -42.205568 
L 391.897562 -42.205568 
L 392.604631 -42.205568 
L 393.3117 -42.205568 
L 394.018768 -42.205568 
L 394.725837 -42.205568 
L 395.432906 -42.205568 
L 396.139974 -42.205568 
L 396.847043 -42.205568 
L 397.554112 -42.205568 
L 398.26118 -42.205568 
L 398.968249 -42.205568 
L 399.675318 -42.205568 
L 400.382386 -42.205568 
L 400.382386 -42.205705 
L 400.382386 -42.205705 
L 399.675318 -42.205709 
L 398.968249 -42.205713 
L 398.26118 -42.205718 
L 397.554112 -42.205722 
L 396.847043 -42.205726 
L 396.139974 -42.205731 
L 395.432906 -42.205736 
L 394.725837 -42.205741 
L 394.018768 -42.205746 
L 393.3117 -42.205751 
L 392.604631 -42.205756 
L 391.897562 -42.205762 
L 391.190493 -42.205768 
L 390.483425 -42.205773 
L 389.776356 -42.205779 
L 389.069287 -42.205786 
L 388.362219 -42.205792 
L 387.65515 -42.205799 
L 386.948081 -42.205805 
L 386.241013 -42.205812 
L 385.533944 -42.205819 
L 384.826875 -42.205827 
L 384.119807 -42.205834 
L 383.412738 -42.205842 
L 382.705669 -42.20585 
L 381.998601 -42.205858 
L 381.291532 -42.205867 
L 380.584463 -42.205876 
L 379.877395 -42.205885 
L 379.170326 -42.205894 
L 378.463257 -42.205903 
L 377.756189 -42.205913 
L 377.04912 -42.205923 
L 376.342051 -42.205934 
L 375.634982 -42.205944 
L 374.927914 -42.205955 
L 374.220845 -42.205967 
L 373.513776 -42.205978 
L 372.806708 -42.20599 
L 372.099639 -42.206003 
L 371.39257 -42.206016 
L 370.685502 -42.206029 
L 369.978433 -42.206042 
L 369.271364 -42.206056 
L 368.564296 -42.20607 
L 367.857227 -42.206085 
L 367.150158 -42.2061 
L 366.44309 -42.206116 
L 365.736021 -42.206132 
L 365.028952 -42.206148 
L 364.321884 -42.206165 
L 363.614815 -42.206183 
L 362.907746 -42.206201 
L 362.200677 -42.206219 
L 361.493609 -42.206238 
L 360.78654 -42.206258 
L 360.079471 -42.206278 
L 359.372403 -42.206299 
L 358.665334 -42.20632 
L 357.958265 -42.206342 
L 357.251197 -42.206365 
L 356.544128 -42.206388 
L 355.837059 -42.206412 
L 355.129991 -42.206437 
L 354.422922 -42.206462 
L 353.715853 -42.206489 
L 353.008785 -42.206516 
L 352.301716 -42.206543 
L 351.594647 -42.206572 
L 350.887579 -42.206601 
L 350.18051 -42.206631 
L 349.473441 -42.206663 
L 348.766373 -42.206695 
L 348.059304 -42.206728 
L 347.352235 -42.206762 
L 346.645166 -42.206796 
L 345.938098 -42.206832 
L 345.231029 -42.206869 
L 344.52396 -42.206908 
L 343.816892 -42.206947 
L 343.109823 -42.206987 
L 342.402754 -42.207029 
L 341.695686 -42.207071 
L 340.988617 -42.207115 
L 340.281548 -42.207161 
L 339.57448 -42.207207 
L 338.867411 -42.207255 
L 338.160342 -42.207305 
L 337.453274 -42.207356 
L 336.746205 -42.207408 
L 336.039136 -42.207462 
L 335.332068 -42.207517 
L 334.624999 -42.207574 
L 333.91793 -42.207633 
L 333.210861 -42.207693 
L 332.503793 -42.207756 
L 331.796724 -42.20782 
L 331.089655 -42.207886 
L 330.382587 -42.207954 
L 329.675518 -42.208023 
L 328.968449 -42.208095 
L 328.261381 -42.208169 
L 327.554312 -42.208245 
L 326.847243 -42.208324 
L 326.140175 -42.208404 
L 325.433106 -42.208487 
L 324.726037 -42.208573 
L 324.018969 -42.208661 
L 323.3119 -42.208751 
L 322.604831 -42.208845 
L 321.897763 -42.208941 
L 321.190694 -42.209039 
L 320.483625 -42.209141 
L 319.776557 -42.209246 
L 319.069488 -42.209353 
L 318.362419 -42.209464 
L 317.65535 -42.209578 
L 316.948282 -42.209696 
L 316.241213 -42.209816 
L 315.534144 -42.209941 
L 314.827076 -42.210069 
L 314.120007 -42.210201 
L 313.412938 -42.210336 
L 312.70587 -42.210476 
L 311.998801 -42.210619 
L 311.291732 -42.210767 
L 310.584664 -42.21092 
L 309.877595 -42.211076 
L 309.170526 -42.211237 
L 308.463458 -42.211403 
L 307.756389 -42.211574 
L 307.04932 -42.21175 
L 306.342252 -42.211931 
L 305.635183 -42.212117 
L 304.928114 -42.212309 
L 304.221046 -42.212507 
L 303.513977 -42.21271 
L 302.806908 -42.212919 
L 302.099839 -42.213134 
L 301.392771 -42.213356 
L 300.685702 -42.213584 
L 299.978633 -42.213818 
L 299.271565 -42.21406 
L 298.564496 -42.214308 
L 297.857427 -42.214564 
L 297.150359 -42.214828 
L 296.44329 -42.215099 
L 295.736221 -42.215378 
L 295.029153 -42.215665 
L 294.322084 -42.215961 
L 293.615015 -42.216265 
L 292.907947 -42.216578 
L 292.200878 -42.2169 
L 291.493809 -42.217232 
L 290.786741 -42.217574 
L 290.079672 -42.217925 
L 289.372603 -42.218287 
L 288.665534 -42.218659 
L 287.958466 -42.219043 
L 287.251397 -42.219437 
L 286.544328 -42.219843 
L 285.83726 -42.220261 
L 285.130191 -42.220691 
L 284.423122 -42.221134 
L 283.716054 -42.22159 
L 283.008985 -42.222059 
L 282.301916 -42.222542 
L 281.594848 -42.223039 
L 280.887779 -42.22355 
L 280.18071 -42.224077 
L 279.473642 -42.224619 
L 278.766573 -42.225176 
L 278.059504 -42.22575 
L 277.352436 -42.226341 
L 276.645367 -42.22695 
L 275.938298 -42.227576 
L 275.23123 -42.22822 
L 274.524161 -42.228883 
L 273.817092 -42.229566 
L 273.110023 -42.230268 
L 272.402955 -42.230992 
L 271.695886 -42.231736 
L 270.988817 -42.232502 
L 270.281749 -42.233291 
L 269.57468 -42.234102 
L 268.867611 -42.234938 
L 268.160543 -42.235798 
L 267.453474 -42.236683 
L 266.746405 -42.237594 
L 266.039337 -42.238531 
L 265.332268 -42.239496 
L 264.625199 -42.24049 
L 263.918131 -42.241512 
L 263.211062 -42.242564 
L 262.503993 -42.243648 
L 261.796925 -42.244763 
L 261.089856 -42.24591 
L 260.382787 -42.247091 
L 259.675718 -42.248307 
L 258.96865 -42.249558 
L 258.261581 -42.250846 
L 257.554512 -42.252172 
L 256.847444 -42.253536 
L 256.140375 -42.254941 
L 255.433306 -42.256386 
L 254.726238 -42.257874 
L 254.019169 -42.259406 
L 253.3121 -42.260982 
L 252.605032 -42.262604 
L 251.897963 -42.264274 
L 251.190894 -42.265993 
L 250.483826 -42.267762 
L 249.776757 -42.269583 
L 249.069688 -42.271457 
L 248.36262 -42.273386 
L 247.655551 -42.275372 
L 246.948482 -42.277416 
L 246.241414 -42.279519 
L 245.534345 -42.281684 
L 244.827276 -42.283913 
L 244.120207 -42.286207 
L 243.413139 -42.288568 
L 242.70607 -42.290998 
L 241.999001 -42.293499 
L 241.291933 -42.296073 
L 240.584864 -42.298723 
L 239.877795 -42.301451 
L 239.170727 -42.304258 
L 238.463658 -42.307147 
L 237.756589 -42.310121 
L 237.049521 -42.313182 
L 236.342452 -42.316333 
L 235.635383 -42.319576 
L 234.928315 -42.322914 
L 234.221246 -42.32635 
L 233.514177 -42.329886 
L 232.807109 -42.333526 
L 232.10004 -42.337272 
L 231.392971 -42.341128 
L 230.685902 -42.345097 
L 229.978834 -42.349182 
L 229.271765 -42.353387 
L 228.564696 -42.357715 
L 227.857628 -42.36217 
L 227.150559 -42.366755 
L 226.44349 -42.371474 
L 225.736422 -42.376331 
L 225.029353 -42.381331 
L 224.322284 -42.386477 
L 223.615216 -42.391774 
L 222.908147 -42.397225 
L 222.201078 -42.402837 
L 221.49401 -42.408612 
L 220.786941 -42.414557 
L 220.079872 -42.420676 
L 219.372804 -42.426974 
L 218.665735 -42.433456 
L 217.958666 -42.440128 
L 217.251598 -42.446996 
L 216.544529 -42.454064 
L 215.83746 -42.46134 
L 215.130391 -42.468828 
L 214.423323 -42.476536 
L 213.716254 -42.48447 
L 213.009185 -42.492635 
L 212.302117 -42.50104 
L 211.595048 -42.509691 
L 210.887979 -42.518595 
L 210.180911 -42.52776 
L 209.473842 -42.537193 
L 208.766773 -42.546902 
L 208.059705 -42.556896 
L 207.352636 -42.567182 
L 206.645567 -42.57777 
L 205.938499 -42.588667 
L 205.23143 -42.599883 
L 204.524361 -42.611428 
L 203.817293 -42.623311 
L 203.110224 -42.635542 
L 202.403155 -42.648131 
L 201.696086 -42.661088 
L 200.989018 -42.674425 
L 200.281949 -42.688152 
L 199.57488 -42.702281 
L 198.867812 -42.716824 
L 198.160743 -42.731793 
L 197.453674 -42.7472 
L 196.746606 -42.763058 
L 196.039537 -42.77938 
L 195.332468 -42.79618 
L 194.6254 -42.813472 
L 193.918331 -42.83127 
L 193.211262 -42.84959 
L 192.504194 -42.868445 
L 191.797125 -42.887853 
L 191.090056 -42.907829 
L 190.382988 -42.92839 
L 189.675919 -42.949553 
L 188.96885 -42.971335 
L 188.261782 -42.993756 
L 187.554713 -43.016832 
L 186.847644 -43.040585 
L 186.140575 -43.065032 
L 185.433507 -43.090196 
L 184.726438 -43.116096 
L 184.019369 -43.142755 
L 183.312301 -43.170194 
L 182.605232 -43.198436 
L 181.898163 -43.227506 
L 181.191095 -43.257426 
L 180.484026 -43.288222 
L 179.776957 -43.31992 
L 179.069889 -43.352547 
L 178.36282 -43.386128 
L 177.655751 -43.420693 
L 176.948683 -43.456269 
L 176.241614 -43.492887 
L 175.534545 -43.530578 
L 174.827477 -43.569371 
L 174.120408 -43.609301 
L 173.413339 -43.6504 
L 172.70627 -43.692702 
L 171.999202 -43.736242 
L 171.292133 -43.781058 
L 170.585064 -43.827185 
L 169.877996 -43.874663 
L 169.170927 -43.923531 
L 168.463858 -43.97383 
L 167.75679 -44.025601 
L 167.049721 -44.078888 
L 166.342652 -44.133735 
L 165.635584 -44.190189 
L 164.928515 -44.248295 
L 164.221446 -44.308102 
L 163.514378 -44.36966 
L 162.807309 -44.433021 
L 162.10024 -44.498236 
L 161.393172 -44.565361 
L 160.686103 -44.634452 
L 159.979034 -44.705565 
L 159.271966 -44.77876 
L 158.564897 -44.854098 
L 157.857828 -44.931642 
L 157.150759 -45.011457 
L 156.443691 -45.093608 
L 155.736622 -45.178164 
L 155.029553 -45.265196 
L 154.322485 -45.354777 
L 153.615416 -45.446979 
L 152.908347 -45.541882 
L 152.201279 -45.639563 
L 151.49421 -45.740104 
L 150.787141 -45.843589 
L 150.080073 -45.950103 
L 149.373004 -46.059736 
L 148.665935 -46.172579 
L 147.958867 -46.288725 
L 147.251798 -46.408273 
L 146.544729 -46.53132 
L 145.837661 -46.65797 
L 145.130592 -46.788328 
L 144.423523 -46.922503 
L 143.716454 -47.060606 
L 143.009386 -47.202752 
L 142.302317 -47.34906 
L 141.595248 -47.499652 
L 140.88818 -47.654653 
L 140.181111 -47.814192 
L 139.474042 -47.978402 
L 138.766974 -48.14742 
L 138.059905 -48.321386 
L 137.352836 -48.500446 
L 136.645768 -48.684748 
L 135.938699 -48.874447 
L 135.23163 -49.069699 
L 134.524562 -49.270668 
L 133.817493 -49.477521 
L 133.110424 -49.69043 
L 132.403356 -49.909573 
L 131.696287 -50.135132 
L 130.989218 -50.367295 
L 130.28215 -50.606255 
L 129.575081 -50.852211 
L 128.868012 -51.105369 
L 128.160943 -51.365938 
L 127.453875 -51.634137 
L 126.746806 -51.910188 
L 126.039737 -52.194321 
L 125.332669 -52.486773 
L 124.6256 -52.787787 
L 123.918531 -53.097615 
L 123.211463 -53.416514 
L 122.504394 -53.744749 
L 121.797325 -54.082595 
L 121.090257 -54.430332 
L 120.383188 -54.78825 
L 119.676119 -55.156648 
L 118.969051 -55.535831 
L 118.261982 -55.926116 
L 117.554913 -56.327829 
L 116.847845 -56.741302 
L 116.140776 -57.166881 
L 115.433707 -57.60492 
L 114.726639 -58.055785 
L 114.01957 -58.519849 
L 113.312501 -58.997501 
L 112.605432 -59.489138 
L 111.898364 -59.995168 
L 111.191295 -60.516015 
L 110.484226 -61.05211 
L 109.777158 -61.603902 
L 109.070089 -62.171849 
L 108.36302 -62.756424 
L 107.655952 -63.358115 
L 106.948883 -63.977422 
L 106.241814 -64.614861 
L 105.534746 -65.270964 
L 104.827677 -65.946275 
L 104.120608 -66.641359 
L 103.41354 -67.356793 
L 102.706471 -68.093174 
L 101.999402 -68.851115 
L 101.292334 -69.631247 
L 100.585265 -70.43422 
L 99.878196 -71.260702 
L 99.171127 -72.111382 
L 98.464059 -72.986968 
L 97.75699 -73.88819 
L 97.049921 -74.815798 
L 96.342853 -75.770565 
L 95.635784 -76.753285 
L 94.928715 -77.764778 
L 94.221647 -78.805885 
L 93.514578 -79.877474 
L 92.807509 -80.980437 
L 92.100441 -82.115693 
L 91.393372 -83.284187 
L 90.686303 -84.486893 
L 89.979235 -85.724811 
L 89.272166 -86.998973 
L 88.565097 -88.31044 
L 87.858029 -89.660305 
L 87.15096 -91.049691 
L 86.443891 -92.479756 
L 85.736823 -93.95169 
L 85.029754 -95.46672 
L 84.322685 -97.026107 
L 83.615616 -98.63115 
L 82.908548 -100.283186 
L 82.201479 -101.98359 
L 81.49441 -103.733779 
L 80.787342 -105.53521 
L 80.080273 -107.389384 
L 79.373204 -109.297845 
L 78.666136 -111.262181 
L 77.959067 -113.28403 
L 77.251998 -115.365075 
L 76.54493 -117.507048 
L 75.837861 -119.711735 
L 75.130792 -121.980971 
L 74.423724 -124.316646 
L 73.716655 -126.720705 
L 73.009586 -129.195151 
L 72.302518 -131.742043 
L 71.595449 -134.363504 
L 70.88838 -137.061717 
L 70.181311 -139.838928 
L 69.474243 -142.69745 
L 68.767174 -145.639665 
L 68.060105 -148.668022 
L 67.353037 -151.785044 
L 66.645968 -154.993327 
L 65.938899 -158.295542 
L 65.231831 -161.69444 
L 64.524762 -165.192851 
L 63.817693 -168.793689 
L 63.110625 -172.499953 
L 62.403556 -176.314729 
L 61.696487 -180.241195 
L 60.989419 -184.282621 
L 60.28235 -188.442372 
L 59.575281 -192.723912 
L 58.868213 -197.130808 
L 58.161144 -201.66673 
L 57.454075 -206.335455 
L 56.747007 -211.140872 
L 56.039938 -216.086983 
L 55.332869 -221.177906 
L 54.6258 -226.417882 
L 53.918732 -231.811275 
L 53.211663 -237.362576 
L 52.504594 -243.076409 
L 51.797526 -248.957532 
L 51.090457 -255.010844 
L 50.383388 -261.241385 
L 49.67632 -267.654345 
L 48.969251 -274.255065 
L 48.262182 -281.049041 
L 47.555114 -288.041932 
z
" style="stroke: #0ea5e9; stroke-opacity: 0.15"/>
    </defs>
    <g clip-path="url(#p1be7c488c0)">
     <use xlink:href="#m91254979c9" x="0" y="311.13375" style="fill: #0ea5e9; fill-opacity: 0.15; stroke: #0ea5e9; stroke-opacity: 0.15"/>
    </g>
   </g>
   <g id="line2d_33">
    <path d="M 47.555114 23.091818 
L 49.67632 43.479405 
L 51.797526 62.176218 
L 53.918732 79.322475 
L 56.039938 95.046767 
L 58.161144 109.46702 
L 60.28235 122.691378 
L 62.403556 134.819021 
L 64.524762 145.940899 
L 66.645968 156.140423 
L 68.767174 165.494085 
L 70.88838 174.072033 
L 73.009586 181.938599 
L 75.130792 189.152779 
L 77.251998 195.768675 
L 79.373204 201.835905 
L 82.201479 209.15016 
L 85.029754 215.66703 
L 87.858029 221.473445 
L 90.686303 226.646857 
L 93.514578 231.256276 
L 96.342853 235.363185 
L 99.171127 239.022368 
L 101.999402 242.282635 
L 104.827677 245.187475 
L 107.655952 247.775635 
L 110.484226 250.08164 
L 113.312501 252.136249 
L 116.847845 254.392448 
L 120.383188 256.3455 
L 123.918531 258.036135 
L 127.453875 259.499613 
L 131.696287 260.998618 
L 135.938699 262.259303 
L 140.88818 263.479097 
L 145.837661 264.47578 
L 151.49421 265.393646 
L 157.857828 266.202108 
L 165.635584 266.943561 
L 174.120408 267.524449 
L 184.726438 268.017654 
L 198.160743 268.401957 
L 215.83746 268.67241 
L 243.413139 268.845182 
L 298.564496 268.919442 
L 400.382386 268.928045 
L 400.382386 268.928045 
" clip-path="url(#p1be7c488c0)" style="fill: none; stroke: #0ea5e9; stroke-width: 2.5; stroke-linecap: round"/>
   </g>
   <g id="patch_3">
    <path d="M 29.91375 281.22 
L 29.91375 10.8 
" style="fill: none; stroke: #cccccc; stroke-linejoin: miter; stroke-linecap: square"/>
   </g>
   <g id="patch_4">
    <path d="M 418.02375 281.22 
L 418.02375 10.8 
" style="fill: none; stroke: #cccccc; stroke-linejoin: miter; stroke-linecap: square"/>
   </g>
   <g id="patch_5">
    <path d="M 29.91375 281.22 
L 418.02375 281.22 
" style="fill: none; stroke: #cccccc; stroke-linejoin: miter; stroke-linecap: square"/>
   </g>
   <g id="patch_6">
    <path d="M 29.91375 10.8 
L 418.02375 10.8 
" style="fill: none; stroke: #cccccc; stroke-linejoin: miter; stroke-linecap: square"/>
   </g>
   <g id="legend_1">
    <g id="line2d_34">
     <path d="M 310.1425 139.54625 
L 318.1425 139.54625 
L 326.1425 139.54625 
" style="fill: none; stroke: #0ea5e9; stroke-width: 2.5; stroke-linecap: round"/>
    </g>
    <g id="text_3">
     <!-- Infiltration rate I(t) -->
     <g style="fill: #262626" transform="translate(332.5425 142.34625) scale(0.08 -0.08)">
      <defs>
       <path id="DejaVuSerif-49" d="M 1581 331 
L 2175 331 
L 2175 0 
L 353 0 
L 353 331 
L 947 331 
L 947 4331 
L 353 4331 
L 353 4666 
L 2175 4666 
L 2175 4331 
L 1581 4331 
L 1581 331 
z
" transform="scale(0.015625)"/>
       <path id="DejaVuSerif-66" d="M 2753 4078 
L 2450 4078 
Q 2447 4313 2317 4434 
Q 2188 4556 1941 4556 
Q 1619 4556 1487 4379 
Q 1356 4203 1356 3750 
L 1356 3322 
L 2284 3322 
L 2284 2988 
L 1356 2988 
L 1356 331 
L 2094 331 
L 2094 0 
L 231 0 
L 231 331 
L 781 331 
L 781 2988 
L 231 2988 
L 231 3322 
L 781 3322 
L 781 3738 
Q 781 4294 1070 4578 
Q 1359 4863 1919 4863 
Q 2128 4863 2337 4825 
Q 2547 4788 2753 4709 
L 2753 4078 
z
" transform="scale(0.015625)"/>
       <path id="DejaVuSerif-6c" d="M 1313 331 
L 1856 331 
L 1856 0 
L 184 0 
L 184 331 
L 738 331 
L 738 4531 
L 184 4531 
L 184 4863 
L 1313 4863 
L 1313 331 
z
" transform="scale(0.015625)"/>
       <path id="DejaVuSerif-28" d="M 2041 -997 
Q 1281 -656 893 83 
Q 506 822 506 1931 
Q 506 3044 893 3783 
Q 1281 4522 2041 4863 
L 2041 4556 
Q 1559 4225 1350 3623 
Q 1141 3022 1141 1931 
Q 1141 844 1350 242 
Q 1559 -359 2041 -691 
L 2041 -997 
z
" transform="scale(0.015625)"/>
       <path id="DejaVuSerif-29" d="M 453 -997 
L 453 -691 
Q 934 -359 1145 242 
Q 1356 844 1356 1931 
Q 1356 3022 1145 3623 
Q 934 4225 453 4556 
L 453 4863 
Q 1216 4522 1603 3783 
Q 1991 3044 1991 1931 
Q 1991 822 1603 83 
Q 1216 -656 453 -997 
z
" transform="scale(0.015625)"/>
      </defs>
      <use xlink:href="#DejaVuSerif-49"/>
      <use xlink:href="#DejaVuSerif-6e" transform="translate(39.501953 0)"/>
      <use xlink:href="#DejaVuSerif-66" transform="translate(103.90625 0)"/>
      <use xlink:href="#DejaVuSerif-69" transform="translate(140.917969 0)"/>
      <use xlink:href="#DejaVuSerif-6c" transform="translate(172.900391 0)"/>
      <use xlink:href="#DejaVuSerif-74" transform="translate(204.882812 0)"/>
      <use xlink:href="#DejaVuSerif-72" transform="translate(245.068359 0)"/>
      <use xlink:href="#DejaVuSerif-61" transform="translate(292.871094 0)"/>
      <use xlink:href="#DejaVuSerif-74" transform="translate(352.490234 0)"/>
      <use xlink:href="#DejaVuSerif-69" transform="translate(392.675781 0)"/>
      <use xlink:href="#DejaVuSerif-6f" transform="translate(424.658203 0)"/>
      <use xlink:href="#DejaVuSerif-6e" transform="translate(484.863281 0)"/>
      <use xlink:href="#DejaVuSerif-20" transform="translate(549.267578 0)"/>
      <use xlink:href="#DejaVuSerif-72" transform="translate(581.054688 0)"/>
      <use xlink:href="#DejaVuSerif-61" transform="translate(628.857422 0)"/>
      <use xlink:href="#DejaVuSerif-74" transform="translate(688.476562 0)"/>
      <use xlink:href="#DejaVuSerif-65" transform="translate(728.662109 0)"/>
      <use xlink:href="#DejaVuSerif-20" transform="translate(787.841797 0)"/>
      <use xlink:href="#DejaVuSerif-49" transform="translate(819.628906 0)"/>
      <use xlink:href="#DejaVuSerif-28" transform="translate(859.130859 0)"/>
      <use xlink:href="#DejaVuSerif-74" transform="translate(898.144531 0)"/>
      <use xlink:href="#DejaVuSerif-29" transform="translate(938.330078 0)"/>
     </g>
    </g>
    <g id="line2d_35">
     <path d="M 310.1425 151.28875 
L 318.1425 151.28875 
L 326.1425 151.28875 
" style="fill: none; stroke-dasharray: 9.25,4; stroke-dashoffset: 0; stroke: #2563eb; stroke-width: 2.5"/>
    </g>
    <g id="text_4">
     <!-- Cumulative volume -->
     <g style="fill: #262626" transform="translate(332.5425 154.08875) scale(0.08 -0.08)">
      <defs>
       <path id="DejaVuSerif-43" d="M 4513 1234 
Q 4306 581 3820 245 
Q 3334 -91 2591 -91 
Q 2134 -91 1743 65 
Q 1353 222 1050 525 
Q 700 875 529 1320 
Q 359 1766 359 2328 
Q 359 3416 987 4083 
Q 1616 4750 2644 4750 
Q 3025 4750 3456 4650 
Q 3888 4550 4384 4347 
L 4384 3272 
L 4031 3272 
Q 3916 3859 3567 4137 
Q 3219 4416 2591 4416 
Q 1844 4416 1459 3886 
Q 1075 3356 1075 2328 
Q 1075 1303 1459 773 
Q 1844 244 2591 244 
Q 3113 244 3450 492 
Q 3788 741 3938 1234 
L 4513 1234 
z
" transform="scale(0.015625)"/>
       <path id="DejaVuSerif-75" d="M 2266 3322 
L 3341 3322 
L 3341 331 
L 3884 331 
L 3884 0 
L 2766 0 
L 2766 588 
Q 2606 256 2353 82 
Q 2100 -91 1766 -91 
Q 1213 -91 952 223 
Q 691 538 691 1209 
L 691 2988 
L 172 2988 
L 172 3322 
L 1269 3322 
L 1269 1388 
Q 1269 781 1417 556 
Q 1566 331 1947 331 
Q 2347 331 2556 625 
Q 2766 919 2766 1478 
L 2766 2988 
L 2266 2988 
L 2266 3322 
z
" transform="scale(0.015625)"/>
       <path id="DejaVuSerif-6d" d="M 3316 2675 
Q 3481 3041 3739 3227 
Q 3997 3413 4341 3413 
Q 4863 3413 5119 3089 
Q 5375 2766 5375 2113 
L 5375 331 
L 5894 331 
L 5894 0 
L 4300 0 
L 4300 331 
L 4800 331 
L 4800 2047 
Q 4800 2556 4650 2772 
Q 4500 2988 4153 2988 
Q 3769 2988 3567 2697 
Q 3366 2406 3366 1850 
L 3366 331 
L 3866 331 
L 3866 0 
L 2291 0 
L 2291 331 
L 2791 331 
L 2791 2069 
Q 2791 2566 2641 2777 
Q 2491 2988 2144 2988 
Q 1759 2988 1557 2697 
Q 1356 2406 1356 1850 
L 1356 331 
L 1856 331 
L 1856 0 
L 263 0 
L 263 331 
L 781 331 
L 781 2994 
L 231 2994 
L 231 3322 
L 1356 3322 
L 1356 2731 
Q 1516 3063 1762 3238 
Q 2009 3413 2322 3413 
Q 2709 3413 2968 3220 
Q 3228 3028 3316 2675 
z
" transform="scale(0.015625)"/>
       <path id="DejaVuSerif-76" d="M 1581 0 
L 359 2988 
L -19 2988 
L -19 3322 
L 1509 3322 
L 1509 2988 
L 978 2988 
L 1913 703 
L 2847 2988 
L 2350 2988 
L 2350 3322 
L 3597 3322 
L 3597 2988 
L 3225 2988 
L 2003 0 
L 1581 0 
z
" transform="scale(0.015625)"/>
      </defs>
      <use xlink:href="#DejaVuSerif-43"/>
      <use xlink:href="#DejaVuSerif-75" transform="translate(76.513672 0)"/>
      <use xlink:href="#DejaVuSerif-6d" transform="translate(140.917969 0)"/>
      <use xlink:href="#DejaVuSerif-75" transform="translate(235.742188 0)"/>
      <use xlink:href="#DejaVuSerif-6c" transform="translate(300.146484 0)"/>
      <use xlink:href="#DejaVuSerif-61" transform="translate(332.128906 0)"/>
      <use xlink:href="#DejaVuSerif-74" transform="translate(391.748047 0)"/>
      <use xlink:href="#DejaVuSerif-69" transform="translate(431.933594 0)"/>
      <use xlink:href="#DejaVuSerif-76" transform="translate(463.916016 0)"/>
      <use xlink:href="#DejaVuSerif-65" transform="translate(520.410156 0)"/>
      <use xlink:href="#DejaVuSerif-20" transform="translate(579.589844 0)"/>
      <use xlink:href="#DejaVuSerif-76" transform="translate(611.376953 0)"/>
      <use xlink:href="#DejaVuSerif-6f" transform="translate(667.871094 0)"/>
      <use xlink:href="#DejaVuSerif-6c" transform="translate(728.076172 0)"/>
      <use xlink:href="#DejaVuSerif-75" transform="translate(760.058594 0)"/>
      <use xlink:href="#DejaVuSerif-6d" transform="translate(824.462891 0)"/>
      <use xlink:href="#DejaVuSerif-65" transform="translate(919.287109 0)"/>
     </g>
    </g>
   </g>
  </g>
  <g id="axes_2">
   <g id="matplotlib.axis_3">
    <g id="ytick_10">
     <g id="line2d_36">
      <path d="M 29.91375 268.928182 
L 418.02375 268.928182 
" clip-path="url(#p1be7c488c0)" style="fill: none; stroke: #cccccc; stroke-width: 0.8; stroke-linecap: round"/>
     </g>
     <g id="line2d_37"/>
    </g>
    <g id="ytick_11">
     <g id="line2d_38">
      <path d="M 29.91375 236.15 
L 418.02375 236.15 
" clip-path="url(#p1be7c488c0)" style="fill: none; stroke: #cccccc; stroke-width: 0.8; stroke-linecap: round"/>
     </g>
     <g id="line2d_39"/>
    </g>
    <g id="ytick_12">
     <g id="line2d_40">
      <path d="M 29.91375 203.371818 
L 418.02375 203.371818 
" clip-path="url(#p1be7c488c0)" style="fill: none; stroke: #cccccc; stroke-width: 0.8; stroke-linecap: round"/>
     </g>
     <g id="line2d_41"/>
    </g>
    <g id="ytick_13">
     <g id="line2d_42">
      <path d="M 29.91375 170.593636 
L 418.02375 170.593636 
" clip-path="url(#p1be7c488c0)" style="fill: none; stroke: #cccccc; stroke-width: 0.8; stroke-linecap: round"/>
     </g>
     <g id="line2d_43"/>
    </g>
    <g id="ytick_14">
     <g id="line2d_44">
      <path d="M 29.91375 137.815455 
L 418.02375 137.815455 
" clip-path="url(#p1be7c488c0)" style="fill: none; stroke: #cccccc; stroke-width: 0.8; stroke-linecap: round"/>
     </g>
     <g id="line2d_45"/>
    </g>
    <g id="ytick_15">
     <g id="line2d_46">
      <path d="M 29.91375 105.037273 
L 418.02375 105.037273 
" clip-path="url(#p1be7c488c0)" style="fill: none; stroke: #cccccc; stroke-width: 0.8; stroke-linecap: round"/>
     </g>
     <g id="line2d_47"/>
    </g>
    <g id="ytick_16">
     <g id="line2d_48">
      <path d="M 29.91375 72.259091 
L 418.02375 72.259091 
" clip-path="url(#p1be7c488c0)" style="fill: none; stroke: #cccccc; stroke-width: 0.8; stroke-linecap: round"/>
     </g>
     <g id="line2d_49"/>
    </g>
    <g id="ytick_17">
     <g id="line2d_50">
      <path d="M 29.91375 39.480909 
L 418.02375 39.480909 
" clip-path="url(#p1be7c488c0)" style="fill: none; stroke: #cccccc; stroke-width: 0.8; stroke-linecap: round"/>
     </g>
     <g id="line2d_51"/>
    </g>
    <g id="text_5">
     <!-- Cumulative -->
     <g style="fill: #2563eb" transform="translate(434.641875 180.7875) rotate(-90) scale(0.12 -0.12)">
      <use xlink:href="#DejaVuSerif-43"/>
      <use xlink:href="#DejaVuSerif-75" transform="translate(76.513672 0)"/>
      <use xlink:href="#DejaVuSerif-6d" transform="translate(140.917969 0)"/>
      <use xlink:href="#DejaVuSerif-75" transform="translate(235.742188 0)"/>
      <use xlink:href="#DejaVuSerif-6c" transform="translate(300.146484 0)"/>
      <use xlink:href="#DejaVuSerif-61" transform="translate(332.128906 0)"/>
      <use xlink:href="#DejaVuSerif-74" transform="translate(391.748047 0)"/>
      <use xlink:href="#DejaVuSerif-69" transform="translate(431.933594 0)"/>
      <use xlink:href="#DejaVuSerif-76" transform="translate(463.916016 0)"/>
      <use xlink:href="#DejaVuSerif-65" transform="translate(520.410156 0)"/>
     </g>
    </g>
   </g>
   <g id="line2d_52">
    <path d="M 47.555114 268.928182 
L 50.383388 265.950343 
L 53.211663 263.297142 
L 56.039938 260.933187 
L 58.868213 258.826946 
L 61.696487 256.950322 
L 65.231831 254.889572 
L 68.767174 253.105708 
L 72.302518 251.561528 
L 76.54493 249.979861 
L 80.787342 248.649657 
L 85.736823 247.362599 
L 90.686303 246.310955 
L 96.342853 245.342474 
L 102.706471 244.489431 
L 109.777158 243.768401 
L 118.261982 243.137536 
L 128.160943 242.630849 
L 140.88818 242.218484 
L 157.857828 241.915927 
L 182.605232 241.723349 
L 228.564696 241.629936 
L 400.382386 241.613046 
L 400.382386 241.613046 
" clip-path="url(#p1be7c488c0)" style="fill: none; stroke-dasharray: 9.25,4; stroke-dashoffset: 0; stroke: #2563eb; stroke-width: 2.5"/>
   </g>
   <g id="line2d_53">
    <path d="M 29.91375 23.091818 
L 418.02375 23.091818 
" clip-path="url(#p1be7c488c0)" style="fill: none; stroke-dasharray: 5.55,2.4; stroke-dashoffset: 0; stroke: #dc2626; stroke-width: 1.5"/>
   </g>
   <g id="patch_7">
    <path d="M 29.91375 281.22 
L 29.91375 10.8 
" style="fill: none; stroke: #cccccc; stroke-linejoin: miter; stroke-linecap: square"/>
   </g>
   <g id="patch_8">
    <path d="M 418.02375 281.22 
L 418.02375 10.8 
" style="fill: none; stroke: #cccccc; stroke-linejoin: miter; stroke-linecap: square"/>
   </g>
   <g id="patch_9">
    <path d="M 29.91375 281.22 
L 418.02375 281.22 
" style="fill: none; stroke: #cccccc; stroke-linejoin: miter; stroke-linecap: square"/>
   </g>
   <g id="patch_10">
    <path d="M 29.91375 10.8 
L 418.02375 10.8 
" style="fill: none; stroke: #cccccc; stroke-linejoin: miter; stroke-linecap: square"/>
   </g>
   <g id="text_6">
    <!-- Target level -->
    <g style="fill: #dc2626" transform="translate(282.773295 19.814) scale(0.09 -0.09)">
     <defs>
      <path id="DejaVuSerif-54" d="M 1222 0 
L 1222 331 
L 1819 331 
L 1819 4294 
L 447 4294 
L 447 3566 
L 63 3566 
L 63 4666 
L 4206 4666 
L 4206 3566 
L 3822 3566 
L 3822 4294 
L 2450 4294 
L 2450 331 
L 3047 331 
L 3047 0 
L 1222 0 
z
" transform="scale(0.015625)"/>
      <path id="DejaVuSerif-67" d="M 3359 2988 
L 3359 72 
Q 3359 -644 2965 -1033 
Q 2572 -1422 1844 -1422 
Q 1516 -1422 1216 -1362 
Q 916 -1303 641 -1184 
L 641 -488 
L 941 -488 
Q 997 -813 1206 -963 
Q 1416 -1113 1806 -1113 
Q 2313 -1113 2548 -827 
Q 2784 -541 2784 72 
L 2784 519 
Q 2616 206 2355 57 
Q 2094 -91 1709 -91 
Q 1097 -91 708 395 
Q 319 881 319 1663 
Q 319 2444 706 2928 
Q 1094 3413 1709 3413 
Q 2094 3413 2355 3264 
Q 2616 3116 2784 2803 
L 2784 3322 
L 3909 3322 
L 3909 2988 
L 3359 2988 
z
M 2784 1825 
Q 2784 2422 2554 2737 
Q 2325 3053 1888 3053 
Q 1444 3053 1217 2703 
Q 991 2353 991 1663 
Q 991 975 1217 622 
Q 1444 269 1888 269 
Q 2325 269 2554 583 
Q 2784 897 2784 1497 
L 2784 1825 
z
" transform="scale(0.015625)"/>
     </defs>
     <use xlink:href="#DejaVuSerif-54"/>
     <use xlink:href="#DejaVuSerif-61" transform="translate(58.949219 0)"/>
     <use xlink:href="#DejaVuSerif-72" transform="translate(118.568359 0)"/>
     <use xlink:href="#DejaVuSerif-67" transform="translate(166.371094 0)"/>
     <use xlink:href="#DejaVuSerif-65" transform="translate(230.384766 0)"/>
     <use xlink:href="#DejaVuSerif-74" transform="translate(289.564453 0)"/>
     <use xlink:href="#DejaVuSerif-20" transform="translate(329.75 0)"/>
     <use xlink:href="#DejaVuSerif-6c" transform="translate(361.537109 0)"/>
     <use xlink:href="#DejaVuSerif-65" transform="translate(393.519531 0)"/>
     <use xlink:href="#DejaVuSerif-76" transform="translate(452.699219 0)"/>
     <use xlink:href="#DejaVuSerif-65" transform="translate(509.193359 0)"/>
     <use xlink:href="#DejaVuSerif-6c" transform="translate(568.373047 0)"/>
    </g>
   </g>
  </g>
 </g>
 <defs>
  <clipPath id="p1be7c488c0">
   <rect x="29.91375" y="10.8" width="388.11" height="270.42"/>
  </clipPath>
 </defs>
</svg>
