<?xml version="1.0" encoding="utf-8" standalone="no"?>
<!DOCTYPE svg PUBLIC "-//W3C//DTD SVG 1.1//EN"
  "http://www.w3.org/Graphics/SVG/1.1/DTD/svg11.dtd">
<svg xmlns:xlink="http://www.w3.org/1999/xlink" width="469.62375pt" height="347.304375pt" viewBox="0 0 469.62375 347.304375" xmlns="http://www.w3.org/2000/svg" version="1.1">
 <metadata>
  <rdf:RDF xmlns:dc="http://purl.org/dc/elements/1.1/" xmlns:cc="http://creativecommons.org/ns#" xmlns:rdf="http://www.w3.org/1999/02/22-rdf-syntax-ns#">
   <cc:Work>
    <dc:type rdf:resource="http://purl.org/dc/dcmitype/StillImage"/>
    <dc:date>2026-02-19T08:27:10.661729</dc:date>
    <dc:format>image/svg+xml</dc:format>
    <dc:creator>
     <cc:Agent>
      <dc:title>Matplotlib v3.10.1, https://matplotlib.org/</dc:title>
     </cc:Agent>
    </dc:creator>
   </cc:Work>
  </rdf:RDF>
 </metadata>
 <defs>
  <style type="text/css">*{stroke-linejoin: round; stroke-linecap: butt}</style>
 </defs>
 <g id="figure_1">
  <g id="patch_1">
   <path d="M 0 347.304375 
L 469.62375 347.304375 
L 469.62375 0 
L 0 0 
z
" style="fill: #ffffff"/>
  </g>
  <g id="axes_1">
   <g id="patch_2">
    <path d="M 29.91375 317.22 
L 458.82375 317.22 
L 458.82375 10.8 
L 29.91375 10.8 
z
" style="fill: #ffffff"/>
   </g>
   <g id="matplotlib.axis_1">
    <g id="xtick_1">
     <g id="line2d_1">
      <path d="M 29.91375 317.22 
L 29.91375 10.8 
" clip-path="url(#pfdea811f63)" style="fill: none; stroke: #cccccc; stroke-width: 0.8; stroke-linecap: round"/>
     </g>
     <g id="line2d_2"/>
    </g>
    <g id="xtick_2">
     <g id="line2d_3">
      <path d="M 115.69575 317.22 
L 115.69575 10.8 
" clip-path="url(#pfdea811f63)" style="fill: none; stroke: #cccccc; stroke-width: 0.8; stroke-linecap: round"/>
     </g>
     <g id="line2d_4"/>
    </g>
    <g id="xtick_3">
     <g id="line2d_5">
      <path d="M 201.47775 317.22 
L 201.47775 10.8 
" clip-path="url(#pfdea811f63)" style="fill: none; stroke: #cccccc; stroke-width: 0.8; stroke-linecap: round"/>
     </g>
     <g id="line2d_6"/>
    </g>
    <g id="xtick_4">
     <g id="line2d_7">
      <path d="M 287.25975 317.22 
L 287.25975 10.8 
" clip-path="url(#pfdea811f63)" style="fill: none; stroke: #cccccc; stroke-width: 0.8; stroke-linecap: round"/>
     </g>
     <g id="line2d_8"/>
    </g>
    <g id="xtick_5">
     <g id="line2d_9">
      <path d="M 373.04175 317.22 
L 373.04175 10.8 
" clip-path="url(#pfdea811f63)" style="fill: none; stroke: #cccccc; stroke-width: 0.8; stroke-linecap: round"/>
     </g>
     <g id="line2d_10"/>
    </g>
    <g id="xtick_6">
     <g id="line2d_11">
      <path d="M 458.82375 317.22 
L 458.82375 10.8 
" clip-path="url(#pfdea811f63)" style="fill: none; stroke: #cccccc; stroke-width: 0.8; stroke-linecap: round"/>
     </g>
     <g id="line2d_12"/>
    </g>
    <g id="text_1">
     <!-- Quantity (cases) -->
     <g style="fill: #262626" transform="translate(194.776875 333.838125) scale(0.12 -0.12)">
      <defs>
       <path id="DejaVuSerif-51" d="M 2700 -91 
Q 1628 -91 993 567 
Q 359 1225 359 2328 
Q 359 2894 529 3339 
Q 700 3784 1050 4134 
Q 1356 4441 1750 4595 
Q 2144 4750 2625 4750 
Q 3641 4750 4266 4084 
Q 4891 3419 4891 2328 
Q 4891 1403 4422 773 
Q 3953 144 3128 -38 
Q 3297 -247 3539 -347 
Q 3781 -447 4122 -447 
L 4219 -447 
L 4219 -1025 
Q 3691 -1000 3314 -767 
Q 2938 -534 2700 -91 
z
M 2625 244 
Q 3391 244 3781 770 
Q 4172 1297 4172 2328 
Q 4172 3363 3781 3889 
Q 3391 4416 2625 4416 
Q 1856 4416 1465 3889 
Q 1075 3363 1075 2328 
Q 1075 1297 1465 770 
Q 1856 244 2625 244 
z
" transform="scale(0.015625)"/>
       <path id="DejaVuSerif-75" d="M 2266 3322 
L 3341 3322 
L 3341 331 
L 3884 331 
L 3884 0 
L 2766 0 
L 2766 588 
Q 2606 256 2353 82 
Q 2100 -91 1766 -91 
Q 1213 -91 952 223 
Q 691 538 691 1209 
L 691 2988 
L 172 2988 
L 172 3322 
L 1269 3322 
L 1269 1388 
Q 1269 781 1417 556 
Q 1566 331 1947 331 
Q 2347 331 2556 625 
Q 2766 919 2766 1478 
L 2766 2988 
L 2266 2988 
L 2266 3322 
z
" transform="scale(0.015625)"/>
       <path id="DejaVuSerif-61" d="M 2547 1044 
L 2547 1747 
L 1806 1747 
Q 1378 1747 1168 1562 
Q 959 1378 959 997 
Q 959 650 1171 447 
Q 1384 244 1747 244 
Q 2106 244 2326 466 
Q 2547 688 2547 1044 
z
M 3122 2075 
L 3122 331 
L 3634 331 
L 3634 0 
L 2547 0 
L 2547 359 
Q 2356 128 2106 18 
Q 1856 -91 1522 -91 
Q 969 -91 644 203 
Q 319 497 319 997 
Q 319 1513 691 1797 
Q 1063 2081 1741 2081 
L 2547 2081 
L 2547 2309 
Q 2547 2688 2317 2895 
Q 2088 3103 1672 3103 
Q 1328 3103 1125 2947 
Q 922 2791 872 2484 
L 575 2484 
L 575 3156 
Q 875 3284 1158 3348 
Q 1441 3413 1709 3413 
Q 2400 3413 2761 3070 
Q 3122 2728 3122 2075 
z
" transform="scale(0.015625)"/>
       <path id="DejaVuSerif-6e" d="M 263 0 
L 263 331 
L 781 331 
L 781 2988 
L 231 2988 
L 231 3322 
L 1356 3322 
L 1356 2731 
Q 1516 3069 1770 3241 
Q 2025 3413 2363 3413 
Q 2913 3413 3172 3097 
Q 3431 2781 3431 2113 
L 3431 331 
L 3944 331 
L 3944 0 
L 2356 0 
L 2356 331 
L 2853 331 
L 2853 1931 
Q 2853 2541 2703 2767 
Q 2553 2994 2175 2994 
Q 1775 2994 1565 2701 
Q 1356 2409 1356 1850 
L 1356 331 
L 1856 331 
L 1856 0 
L 263 0 
z
" transform="scale(0.015625)"/>
       <path id="DejaVuSerif-74" d="M 691 2988 
L 184 2988 
L 184 3322 
L 691 3322 
L 691 4353 
L 1269 4353 
L 1269 3322 
L 2350 3322 
L 2350 2988 
L 1269 2988 
L 1269 878 
Q 1269 456 1350 337 
Q 1431 219 1650 219 
Q 1875 219 1978 351 
Q 2081 484 2088 781 
L 2522 781 
Q 2497 328 2275 118 
Q 2053 -91 1600 -91 
Q 1103 -91 897 129 
Q 691 350 691 878 
L 691 2988 
z
" transform="scale(0.015625)"/>
       <path id="DejaVuSerif-69" d="M 622 4353 
Q 622 4497 726 4603 
Q 831 4709 978 4709 
Q 1122 4709 1226 4603 
Q 1331 4497 1331 4353 
Q 1331 4206 1228 4103 
Q 1125 4000 978 4000 
Q 831 4000 726 4103 
Q 622 4206 622 4353 
z
M 1356 331 
L 1900 331 
L 1900 0 
L 231 0 
L 231 331 
L 781 331 
L 781 2988 
L 231 2988 
L 231 3322 
L 1356 3322 
L 1356 331 
z
" transform="scale(0.015625)"/>
       <path id="DejaVuSerif-79" d="M 1381 -609 
L 1600 -56 
L 359 2988 
L -19 2988 
L -19 3322 
L 1509 3322 
L 1509 2988 
L 978 2988 
L 1913 703 
L 2847 2988 
L 2350 2988 
L 2350 3322 
L 3597 3322 
L 3597 2988 
L 3225 2988 
L 1703 -750 
Q 1547 -1138 1356 -1280 
Q 1166 -1422 819 -1422 
Q 672 -1422 517 -1397 
Q 363 -1372 206 -1325 
L 206 -691 
L 500 -691 
Q 519 -903 608 -995 
Q 697 -1088 884 -1088 
Q 1056 -1088 1161 -992 
Q 1266 -897 1381 -609 
z
" transform="scale(0.015625)"/>
       <path id="DejaVuSerif-20" transform="scale(0.015625)"/>
       <path id="DejaVuSerif-28" d="M 2041 -997 
Q 1281 -656 893 83 
Q 506 822 506 1931 
Q 506 3044 893 3783 
Q 1281 4522 2041 4863 
L 2041 4556 
Q 1559 4225 1350 3623 
Q 1141 3022 1141 1931 
Q 1141 844 1350 242 
Q 1559 -359 2041 -691 
L 2041 -997 
z
" transform="scale(0.015625)"/>
       <path id="DejaVuSerif-63" d="M 3291 997 
Q 3169 466 2822 187 
Q 2475 -91 1925 -91 
Q 1200 -91 759 389 
Q 319 869 319 1663 
Q 319 2459 759 2936 
Q 1200 3413 1925 3413 
Q 2241 3413 2553 3339 
Q 2866 3266 3181 3116 
L 3181 2266 
L 2847 2266 
Q 2781 2703 2561 2903 
Q 2341 3103 1931 3103 
Q 1466 3103 1228 2742 
Q 991 2381 991 1663 
Q 991 944 1227 581 
Q 1463 219 1931 219 
Q 2303 219 2525 412 
Q 2747 606 2828 997 
L 3291 997 
z
" transform="scale(0.015625)"/>
       <path id="DejaVuSerif-73" d="M 359 184 
L 359 959 
L 691 959 
Q 703 588 923 403 
Q 1144 219 1575 219 
Q 1963 219 2166 364 
Q 2369 509 2369 788 
Q 2369 1006 2220 1140 
Q 2072 1275 1594 1428 
L 1178 1569 
Q 750 1706 558 1912 
Q 366 2119 366 2438 
Q 366 2894 700 3153 
Q 1034 3413 1625 3413 
Q 1888 3413 2178 3344 
Q 2469 3275 2778 3144 
L 2778 2419 
L 2447 2419 
Q 2434 2741 2221 2922 
Q 2009 3103 1644 3103 
Q 1281 3103 1095 2975 
Q 909 2847 909 2591 
Q 909 2381 1050 2254 
Q 1191 2128 1613 1997 
L 2069 1856 
Q 2541 1709 2748 1489 
Q 2956 1269 2956 922 
Q 2956 450 2595 179 
Q 2234 -91 1600 -91 
Q 1278 -91 972 -22 
Q 666 47 359 184 
z
" transform="scale(0.015625)"/>
       <path id="DejaVuSerif-65" d="M 3469 1600 
L 991 1600 
L 991 1575 
Q 991 903 1244 561 
Q 1497 219 1991 219 
Q 2369 219 2611 417 
Q 2853 616 2950 1006 
L 3413 1006 
Q 3275 459 2904 184 
Q 2534 -91 1931 -91 
Q 1203 -91 761 389 
Q 319 869 319 1663 
Q 319 2450 753 2931 
Q 1188 3413 1894 3413 
Q 2647 3413 3050 2948 
Q 3453 2484 3469 1600 
z
M 2791 1931 
Q 2772 2513 2545 2808 
Q 2319 3103 1894 3103 
Q 1497 3103 1269 2806 
Q 1041 2509 991 1931 
L 2791 1931 
z
" transform="scale(0.015625)"/>
       <path id="DejaVuSerif-29" d="M 453 -997 
L 453 -691 
Q 934 -359 1145 242 
Q 1356 844 1356 1931 
Q 1356 3022 1145 3623 
Q 934 4225 453 4556 
L 453 4863 
Q 1216 4522 1603 3783 
Q 1991 3044 1991 1931 
Q 1991 822 1603 83 
Q 1216 -656 453 -997 
z
" transform="scale(0.015625)"/>
      </defs>
      <use xlink:href="#DejaVuSerif-51"/>
      <use xlink:href="#DejaVuSerif-75" transform="translate(81.982422 0)"/>
      <use xlink:href="#DejaVuSerif-61" transform="translate(146.386719 0)"/>
      <use xlink:href="#DejaVuSerif-6e" transform="translate(206.005859 0)"/>
      <use xlink:href="#DejaVuSerif-74" transform="translate(270.410156 0)"/>
      <use xlink:href="#DejaVuSerif-69" transform="translate(310.595703 0)"/>
      <use xlink:href="#DejaVuSerif-74" transform="translate(342.578125 0)"/>
      <use xlink:href="#DejaVuSerif-79" transform="translate(382.763672 0)"/>
      <use xlink:href="#DejaVuSerif-20" transform="translate(439.257812 0)"/>
      <use xlink:href="#DejaVuSerif-28" transform="translate(471.044922 0)"/>
      <use xlink:href="#DejaVuSerif-63" transform="translate(510.058594 0)"/>
      <use xlink:href="#DejaVuSerif-61" transform="translate(566.064453 0)"/>
      <use xlink:href="#DejaVuSerif-73" transform="translate(625.683594 0)"/>
      <use xlink:href="#DejaVuSerif-65" transform="translate(677.001953 0)"/>
      <use xlink:href="#DejaVuSerif-73" transform="translate(736.181641 0)"/>
      <use xlink:href="#DejaVuSerif-29" transform="translate(787.5 0)"/>
     </g>
    </g>
   </g>
   <g id="matplotlib.axis_2">
    <g id="ytick_1">
     <g id="line2d_13">
      <path d="M 29.91375 292.7064 
L 458.82375 292.7064 
" clip-path="url(#pfdea811f63)" style="fill: none; stroke: #cccccc; stroke-width: 0.8; stroke-linecap: round"/>
     </g>
     <g id="line2d_14"/>
    </g>
    <g id="ytick_2">
     <g id="line2d_15">
      <path d="M 29.91375 243.6792 
L 458.82375 243.6792 
" clip-path="url(#pfdea811f63)" style="fill: none; stroke: #cccccc; stroke-width: 0.8; stroke-linecap: round"/>
     </g>
     <g id="line2d_16"/>
    </g>
    <g id="ytick_3">
     <g id="line2d_17">
      <path d="M 29.91375 194.652 
L 458.82375 194.652 
" clip-path="url(#pfdea811f63)" style="fill: none; stroke: #cccccc; stroke-width: 0.8; stroke-linecap: round"/>
     </g>
     <g id="line2d_18"/>
    </g>
    <g id="ytick_4">
     <g id="line2d_19">
      <path d="M 29.91375 145.6248 
L 458.82375 145.6248 
" clip-path="url(#pfdea811f63)" style="fill: none; stroke: #cccccc; stroke-width: 0.8; stroke-linecap: round"/>
     </g>
     <g id="line2d_20"/>
    </g>
    <g id="ytick_5">
     <g id="line2d_21">
      <path d="M 29.91375 96.5976 
L 458.82375 96.5976 
" clip-path="url(#pfdea811f63)" style="fill: none; stroke: #cccccc; stroke-width: 0.8; stroke-linecap: round"/>
     </g>
     <g id="line2d_22"/>
    </g>
    <g id="ytick_6">
     <g id="line2d_23">
      <path d="M 29.91375 47.5704 
L 458.82375 47.5704 
" clip-path="url(#pfdea811f63)" style="fill: none; stroke: #cccccc; stroke-width: 0.8; stroke-linecap: round"/>
     </g>
     <g id="line2d_24"/>
    </g>
    <g id="text_2">
     <!-- Price -->
     <g style="fill: #262626" transform="translate(19.918125 179.745) rotate(-90) scale(0.12 -0.12)">
      <defs>
       <path id="DejaVuSerif-50" d="M 1581 2375 
L 2406 2375 
Q 2872 2375 3115 2626 
Q 3359 2878 3359 3353 
Q 3359 3831 3115 4081 
Q 2872 4331 2406 4331 
L 1581 4331 
L 1581 2375 
z
M 353 0 
L 353 331 
L 947 331 
L 947 4331 
L 353 4331 
L 353 4666 
L 2559 4666 
Q 3259 4666 3668 4311 
Q 4078 3956 4078 3353 
Q 4078 2753 3668 2397 
Q 3259 2041 2559 2041 
L 1581 2041 
L 1581 331 
L 2303 331 
L 2303 0 
L 353 0 
z
" transform="scale(0.015625)"/>
       <path id="DejaVuSerif-72" d="M 3059 3328 
L 3059 2497 
L 2728 2497 
Q 2713 2744 2591 2866 
Q 2469 2988 2234 2988 
Q 1809 2988 1582 2694 
Q 1356 2400 1356 1850 
L 1356 331 
L 2022 331 
L 2022 0 
L 263 0 
L 263 331 
L 781 331 
L 781 2994 
L 231 2994 
L 231 3322 
L 1356 3322 
L 1356 2731 
Q 1525 3078 1790 3245 
Q 2056 3413 2438 3413 
Q 2578 3413 2733 3391 
Q 2888 3369 3059 3328 
z
" transform="scale(0.015625)"/>
      </defs>
      <use xlink:href="#DejaVuSerif-50"/>
      <use xlink:href="#DejaVuSerif-72" transform="translate(67.285156 0)"/>
      <use xlink:href="#DejaVuSerif-69" transform="translate(115.087891 0)"/>
      <use xlink:href="#DejaVuSerif-63" transform="translate(147.070312 0)"/>
      <use xlink:href="#DejaVuSerif-65" transform="translate(203.076172 0)"/>
     </g>
    </g>
   </g>
   <g id="FillBetweenPolyCollection_1">
    <defs>
     <path id="m13692bae78" d="M 29.91375 -299.733975 
L 29.91375 -213.936375 
L 30.668114 -213.936375 
L 31.422479 -213.936375 
L 32.176843 -213.936375 
L 32.931207 -213.936375 
L 33.685572 -213.936375 
L 34.439936 -213.936375 
L 35.1943 -213.936375 
L 35.948665 -213.936375 
L 36.703029 -213.936375 
L 37.457393 -213.936375 
L 38.211758 -213.936375 
L 38.966122 -213.936375 
L 39.720486 -213.936375 
L 40.474851 -213.936375 
L 41.229215 -213.936375 
L 41.983579 -213.936375 
L 42.737943 -213.936375 
L 43.492308 -213.936375 
L 44.246672 -213.936375 
L 45.001036 -213.936375 
L 45.755401 -213.936375 
L 46.509765 -213.936375 
L 47.264129 -213.936375 
L 48.018494 -213.936375 
L 48.772858 -213.936375 
L 49.527222 -213.936375 
L 50.281587 -213.936375 
L 51.035951 -213.936375 
L 51.790315 -213.936375 
L 52.54468 -213.936375 
L 53.299044 -213.936375 
L 54.053408 -213.936375 
L 54.807773 -213.936375 
L 55.562137 -213.936375 
L 56.316501 -213.936375 
L 57.070866 -213.936375 
L 57.82523 -213.936375 
L 58.579594 -213.936375 
L 59.333959 -213.936375 
L 60.088323 -213.936375 
L 60.842687 -213.936375 
L 61.597052 -213.936375 
L 62.351416 -213.936375 
L 63.10578 -213.936375 
L 63.860144 -213.936375 
L 64.614509 -213.936375 
L 65.368873 -213.936375 
L 66.123237 -213.936375 
L 66.877602 -213.936375 
L 67.631966 -213.936375 
L 68.38633 -213.936375 
L 69.140695 -213.936375 
L 69.895059 -213.936375 
L 70.649423 -213.936375 
L 71.403788 -213.936375 
L 72.158152 -213.936375 
L 72.912516 -213.936375 
L 73.666881 -213.936375 
L 74.421245 -213.936375 
L 75.175609 -213.936375 
L 75.929974 -213.936375 
L 76.684338 -213.936375 
L 77.438702 -213.936375 
L 78.193067 -213.936375 
L 78.947431 -213.936375 
L 79.701795 -213.936375 
L 80.45616 -213.936375 
L 81.210524 -213.936375 
L 81.964888 -213.936375 
L 82.719253 -213.936375 
L 83.473617 -213.936375 
L 84.227981 -213.936375 
L 84.982345 -213.936375 
L 85.73671 -213.936375 
L 86.491074 -213.936375 
L 87.245438 -213.936375 
L 87.999803 -213.936375 
L 88.754167 -213.936375 
L 89.508531 -213.936375 
L 90.262896 -213.936375 
L 91.01726 -213.936375 
L 91.771624 -213.936375 
L 92.525989 -213.936375 
L 93.280353 -213.936375 
L 94.034717 -213.936375 
L 94.789082 -213.936375 
L 95.543446 -213.936375 
L 96.29781 -213.936375 
L 97.052175 -213.936375 
L 97.806539 -213.936375 
L 98.560903 -213.936375 
L 99.315268 -213.936375 
L 100.069632 -213.936375 
L 100.823996 -213.936375 
L 101.578361 -213.936375 
L 102.332725 -213.936375 
L 103.087089 -213.936375 
L 103.841454 -213.936375 
L 104.595818 -213.936375 
L 105.350182 -213.936375 
L 106.104546 -213.936375 
L 106.858911 -213.936375 
L 107.613275 -213.936375 
L 108.367639 -213.936375 
L 109.122004 -213.936375 
L 109.876368 -213.936375 
L 110.630732 -213.936375 
L 111.385097 -213.936375 
L 112.139461 -213.936375 
L 112.893825 -213.936375 
L 113.64819 -213.936375 
L 114.402554 -213.936375 
L 115.156918 -213.936375 
L 115.911283 -213.936375 
L 116.665647 -213.936375 
L 117.420011 -213.936375 
L 118.174376 -213.936375 
L 118.92874 -213.936375 
L 119.683104 -213.936375 
L 120.437469 -213.936375 
L 121.191833 -213.936375 
L 121.946197 -213.936375 
L 122.700562 -213.936375 
L 123.454926 -213.936375 
L 124.20929 -213.936375 
L 124.963655 -213.936375 
L 125.718019 -213.936375 
L 126.472383 -213.936375 
L 127.226747 -213.936375 
L 127.981112 -213.936375 
L 128.735476 -213.936375 
L 129.48984 -213.936375 
L 130.244205 -213.936375 
L 130.998569 -213.936375 
L 131.752933 -213.936375 
L 132.507298 -213.936375 
L 133.261662 -213.936375 
L 134.016026 -213.936375 
L 134.770391 -213.936375 
L 135.524755 -213.936375 
L 136.279119 -213.936375 
L 137.033484 -213.936375 
L 137.787848 -213.936375 
L 138.542212 -213.936375 
L 139.296577 -213.936375 
L 140.050941 -213.936375 
L 140.805305 -213.936375 
L 141.55967 -213.936375 
L 142.314034 -213.936375 
L 143.068398 -213.936375 
L 143.822763 -213.936375 
L 144.577127 -213.936375 
L 145.331491 -213.936375 
L 146.085856 -213.936375 
L 146.84022 -213.936375 
L 147.594584 -213.936375 
L 148.348948 -213.936375 
L 149.103313 -213.936375 
L 149.857677 -213.936375 
L 150.612041 -213.936375 
L 151.366406 -213.936375 
L 152.12077 -213.936375 
L 152.875134 -213.936375 
L 153.629499 -213.936375 
L 154.383863 -213.936375 
L 155.138227 -213.936375 
L 155.892592 -213.936375 
L 156.646956 -213.936375 
L 157.40132 -213.936375 
L 158.155685 -213.936375 
L 158.910049 -213.936375 
L 159.664413 -213.936375 
L 160.418778 -213.936375 
L 161.173142 -213.936375 
L 161.927506 -213.936375 
L 162.681871 -213.936375 
L 163.436235 -213.936375 
L 164.190599 -213.936375 
L 164.944964 -213.936375 
L 165.699328 -213.936375 
L 166.453692 -213.936375 
L 167.208057 -213.936375 
L 167.962421 -213.936375 
L 168.716785 -213.936375 
L 169.471149 -213.936375 
L 170.225514 -213.936375 
L 170.979878 -213.936375 
L 171.734242 -213.936375 
L 172.488607 -213.936375 
L 173.242971 -213.936375 
L 173.997335 -213.936375 
L 174.7517 -213.936375 
L 175.506064 -213.936375 
L 176.260428 -213.936375 
L 177.014793 -213.936375 
L 177.769157 -213.936375 
L 178.523521 -213.936375 
L 179.277886 -213.936375 
L 180.03225 -213.936375 
L 180.03225 -213.936375 
L 180.03225 -213.936375 
L 179.277886 -214.367519 
L 178.523521 -214.798662 
L 177.769157 -215.229806 
L 177.014793 -215.66095 
L 176.260428 -216.092094 
L 175.506064 -216.523237 
L 174.7517 -216.954381 
L 173.997335 -217.385525 
L 173.242971 -217.816668 
L 172.488607 -218.247812 
L 171.734242 -218.678956 
L 170.979878 -219.1101 
L 170.225514 -219.541243 
L 169.471149 -219.972387 
L 168.716785 -220.403531 
L 167.962421 -220.834674 
L 167.208057 -221.265818 
L 166.453692 -221.696962 
L 165.699328 -222.128106 
L 164.944964 -222.559249 
L 164.190599 -222.990393 
L 163.436235 -223.421537 
L 162.681871 -223.852681 
L 161.927506 -224.283824 
L 161.173142 -224.714968 
L 160.418778 -225.146112 
L 159.664413 -225.577255 
L 158.910049 -226.008399 
L 158.155685 -226.439543 
L 157.40132 -226.870687 
L 156.646956 -227.30183 
L 155.892592 -227.732974 
L 155.138227 -228.164118 
L 154.383863 -228.595261 
L 153.629499 -229.026405 
L 152.875134 -229.457549 
L 152.12077 -229.888693 
L 151.366406 -230.319836 
L 150.612041 -230.75098 
L 149.857677 -231.182124 
L 149.103313 -231.613267 
L 148.348948 -232.044411 
L 147.594584 -232.475555 
L 146.84022 -232.906699 
L 146.085856 -233.337842 
L 145.331491 -233.768986 
L 144.577127 -234.20013 
L 143.822763 -234.631273 
L 143.068398 -235.062417 
L 142.314034 -235.493561 
L 141.55967 -235.924705 
L 140.805305 -236.355848 
L 140.050941 -236.786992 
L 139.296577 -237.218136 
L 138.542212 -237.64928 
L 137.787848 -238.080423 
L 137.033484 -238.511567 
L 136.279119 -238.942711 
L 135.524755 -239.373854 
L 134.770391 -239.804998 
L 134.016026 -240.236142 
L 133.261662 -240.667286 
L 132.507298 -241.098429 
L 131.752933 -241.529573 
L 130.998569 -241.960717 
L 130.244205 -242.39186 
L 129.48984 -242.823004 
L 128.735476 -243.254148 
L 127.981112 -243.685292 
L 127.226747 -244.116435 
L 126.472383 -244.547579 
L 125.718019 -244.978723 
L 124.963655 -245.409866 
L 124.20929 -245.84101 
L 123.454926 -246.272154 
L 122.700562 -246.703298 
L 121.946197 -247.134441 
L 121.191833 -247.565585 
L 120.437469 -247.996729 
L 119.683104 -248.427872 
L 118.92874 -248.859016 
L 118.174376 -249.29016 
L 117.420011 -249.721304 
L 116.665647 -250.152447 
L 115.911283 -250.583591 
L 115.156918 -251.014735 
L 114.402554 -251.445879 
L 113.64819 -251.877022 
L 112.893825 -252.308166 
L 112.139461 -252.73931 
L 111.385097 -253.170453 
L 110.630732 -253.601597 
L 109.876368 -254.032741 
L 109.122004 -254.463885 
L 108.367639 -254.895028 
L 107.613275 -255.326172 
L 106.858911 -255.757316 
L 106.104546 -256.188459 
L 105.350182 -256.619603 
L 104.595818 -257.050747 
L 103.841454 -257.481891 
L 103.087089 -257.913034 
L 102.332725 -258.344178 
L 101.578361 -258.775322 
L 100.823996 -259.206465 
L 100.069632 -259.637609 
L 99.315268 -260.068753 
L 98.560903 -260.499897 
L 97.806539 -260.93104 
L 97.052175 -261.362184 
L 96.29781 -261.793328 
L 95.543446 -262.224471 
L 94.789082 -262.655615 
L 94.034717 -263.086759 
L 93.280353 -263.517903 
L 92.525989 -263.949046 
L 91.771624 -264.38019 
L 91.01726 -264.811334 
L 90.262896 -265.242478 
L 89.508531 -265.673621 
L 88.754167 -266.104765 
L 87.999803 -266.535909 
L 87.245438 -266.967052 
L 86.491074 -267.398196 
L 85.73671 -267.82934 
L 84.982345 -268.260484 
L 84.227981 -268.691627 
L 83.473617 -269.122771 
L 82.719253 -269.553915 
L 81.964888 -269.985058 
L 81.210524 -270.416202 
L 80.45616 -270.847346 
L 79.701795 -271.27849 
L 78.947431 -271.709633 
L 78.193067 -272.140777 
L 77.438702 -272.571921 
L 76.684338 -273.003064 
L 75.929974 -273.434208 
L 75.175609 -273.865352 
L 74.421245 -274.296496 
L 73.666881 -274.727639 
L 72.912516 -275.158783 
L 72.158152 -275.589927 
L 71.403788 -276.02107 
L 70.649423 -276.452214 
L 69.895059 -276.883358 
L 69.140695 -277.314502 
L 68.38633 -277.745645 
L 67.631966 -278.176789 
L 66.877602 -278.607933 
L 66.123237 -279.039077 
L 65.368873 -279.47022 
L 64.614509 -279.901364 
L 63.860144 -280.332508 
L 63.10578 -280.763651 
L 62.351416 -281.194795 
L 61.597052 -281.625939 
L 60.842687 -282.057083 
L 60.088323 -282.488226 
L 59.333959 -282.91937 
L 58.579594 -283.350514 
L 57.82523 -283.781657 
L 57.070866 -284.212801 
L 56.316501 -284.643945 
L 55.562137 -285.075089 
L 54.807773 -285.506232 
L 54.053408 -285.937376 
L 53.299044 -286.36852 
L 52.54468 -286.799663 
L 51.790315 -287.230807 
L 51.035951 -287.661951 
L 50.281587 -288.093095 
L 49.527222 -288.524238 
L 48.772858 -288.955382 
L 48.018494 -289.386526 
L 47.264129 -289.817669 
L 46.509765 -290.248813 
L 45.755401 -290.679957 
L 45.001036 -291.111101 
L 44.246672 -291.542244 
L 43.492308 -291.973388 
L 42.737943 -292.404532 
L 41.983579 -292.835676 
L 41.229215 -293.266819 
L 40.474851 -293.697963 
L 39.720486 -294.129107 
L 38.966122 -294.56025 
L 38.211758 -294.991394 
L 37.457393 -295.422538 
L 36.703029 -295.853682 
L 35.948665 -296.284825 
L 35.1943 -296.715969 
L 34.439936 -297.147113 
L 33.685572 -297.578256 
L 32.931207 -298.0094 
L 32.176843 -298.440544 
L 31.422479 -298.871688 
L 30.668114 -299.302831 
L 29.91375 -299.733975 
z
" style="stroke: #7c3aed; stroke-opacity: 0.15"/>
    </defs>
    <g clip-path="url(#pfdea811f63)">
     <use xlink:href="#m13692bae78" x="0" y="347.304375" style="fill: #7c3aed; fill-opacity: 0.15; stroke: #7c3aed; stroke-opacity: 0.15"/>
    </g>
   </g>
   <g id="FillBetweenPolyCollection_2">
    <defs>
     <path id="md4bf9e72a3" d="M 29.91375 -213.936375 
L 29.91375 -70.940375 
L 30.668114 -71.658948 
L 31.422479 -72.377521 
L 32.176843 -73.096094 
L 32.931207 -73.814666 
L 33.685572 -74.533239 
L 34.439936 -75.251812 
L 35.1943 -75.970385 
L 35.948665 -76.688958 
L 36.703029 -77.407531 
L 37.457393 -78.126104 
L 38.211758 -78.844677 
L 38.966122 -79.563249 
L 39.720486 -80.281822 
L 40.474851 -81.000395 
L 41.229215 -81.718968 
L 41.983579 -82.437541 
L 42.737943 -83.156114 
L 43.492308 -83.874687 
L 44.246672 -84.593259 
L 45.001036 -85.311832 
L 45.755401 -86.030405 
L 46.509765 -86.748978 
L 47.264129 -87.467551 
L 48.018494 -88.186124 
L 48.772858 -88.904697 
L 49.527222 -89.623269 
L 50.281587 -90.341842 
L 51.035951 -91.060415 
L 51.790315 -91.778988 
L 52.54468 -92.497561 
L 53.299044 -93.216134 
L 54.053408 -93.934707 
L 54.807773 -94.65328 
L 55.562137 -95.371852 
L 56.316501 -96.090425 
L 57.070866 -96.808998 
L 57.82523 -97.527571 
L 58.579594 -98.246144 
L 59.333959 -98.964717 
L 60.088323 -99.68329 
L 60.842687 -100.401862 
L 61.597052 -101.120435 
L 62.351416 -101.839008 
L 63.10578 -102.557581 
L 63.860144 -103.276154 
L 64.614509 -103.994727 
L 65.368873 -104.7133 
L 66.123237 -105.431872 
L 66.877602 -106.150445 
L 67.631966 -106.869018 
L 68.38633 -107.587591 
L 69.140695 -108.306164 
L 69.895059 -109.024737 
L 70.649423 -109.74331 
L 71.403788 -110.461883 
L 72.158152 -111.180455 
L 72.912516 -111.899028 
L 73.666881 -112.617601 
L 74.421245 -113.336174 
L 75.175609 -114.054747 
L 75.929974 -114.77332 
L 76.684338 -115.491893 
L 77.438702 -116.210465 
L 78.193067 -116.929038 
L 78.947431 -117.647611 
L 79.701795 -118.366184 
L 80.45616 -119.084757 
L 81.210524 -119.80333 
L 81.964888 -120.521903 
L 82.719253 -121.240476 
L 83.473617 -121.959048 
L 84.227981 -122.677621 
L 84.982345 -123.396194 
L 85.73671 -124.114767 
L 86.491074 -124.83334 
L 87.245438 -125.551913 
L 87.999803 -126.270486 
L 88.754167 -126.989058 
L 89.508531 -127.707631 
L 90.262896 -128.426204 
L 91.01726 -129.144777 
L 91.771624 -129.86335 
L 92.525989 -130.581923 
L 93.280353 -131.300496 
L 94.034717 -132.019068 
L 94.789082 -132.737641 
L 95.543446 -133.456214 
L 96.29781 -134.174787 
L 97.052175 -134.89336 
L 97.806539 -135.611933 
L 98.560903 -136.330506 
L 99.315268 -137.049079 
L 100.069632 -137.767651 
L 100.823996 -138.486224 
L 101.578361 -139.204797 
L 102.332725 -139.92337 
L 103.087089 -140.641943 
L 103.841454 -141.360516 
L 104.595818 -142.079089 
L 105.350182 -142.797661 
L 106.104546 -143.516234 
L 106.858911 -144.234807 
L 107.613275 -144.95338 
L 108.367639 -145.671953 
L 109.122004 -146.390526 
L 109.876368 -147.109099 
L 110.630732 -147.827671 
L 111.385097 -148.546244 
L 112.139461 -149.264817 
L 112.893825 -149.98339 
L 113.64819 -150.701963 
L 114.402554 -151.420536 
L 115.156918 -152.139109 
L 115.911283 -152.857682 
L 116.665647 -153.576254 
L 117.420011 -154.294827 
L 118.174376 -155.0134 
L 118.92874 -155.731973 
L 119.683104 -156.450546 
L 120.437469 -157.169119 
L 121.191833 -157.887692 
L 121.946197 -158.606264 
L 122.700562 -159.324837 
L 123.454926 -160.04341 
L 124.20929 -160.761983 
L 124.963655 -161.480556 
L 125.718019 -162.199129 
L 126.472383 -162.917702 
L 127.226747 -163.636274 
L 127.981112 -164.354847 
L 128.735476 -165.07342 
L 129.48984 -165.791993 
L 130.244205 -166.510566 
L 130.998569 -167.229139 
L 131.752933 -167.947712 
L 132.507298 -168.666285 
L 133.261662 -169.384857 
L 134.016026 -170.10343 
L 134.770391 -170.822003 
L 135.524755 -171.540576 
L 136.279119 -172.259149 
L 137.033484 -172.977722 
L 137.787848 -173.696295 
L 138.542212 -174.414867 
L 139.296577 -175.13344 
L 140.050941 -175.852013 
L 140.805305 -176.570586 
L 141.55967 -177.289159 
L 142.314034 -178.007732 
L 143.068398 -178.726305 
L 143.822763 -179.444878 
L 144.577127 -180.16345 
L 145.331491 -180.882023 
L 146.085856 -181.600596 
L 146.84022 -182.319169 
L 147.594584 -183.037742 
L 148.348948 -183.756315 
L 149.103313 -184.474888 
L 149.857677 -185.19346 
L 150.612041 -185.912033 
L 151.366406 -186.630606 
L 152.12077 -187.349179 
L 152.875134 -188.067752 
L 153.629499 -188.786325 
L 154.383863 -189.504898 
L 155.138227 -190.22347 
L 155.892592 -190.942043 
L 156.646956 -191.660616 
L 157.40132 -192.379189 
L 158.155685 -193.097762 
L 158.910049 -193.816335 
L 159.664413 -194.534908 
L 160.418778 -195.253481 
L 161.173142 -195.972053 
L 161.927506 -196.690626 
L 162.681871 -197.409199 
L 163.436235 -198.127772 
L 164.190599 -198.846345 
L 164.944964 -199.564918 
L 165.699328 -200.283491 
L 166.453692 -201.002063 
L 167.208057 -201.720636 
L 167.962421 -202.439209 
L 168.716785 -203.157782 
L 169.471149 -203.876355 
L 170.225514 -204.594928 
L 170.979878 -205.313501 
L 171.734242 -206.032073 
L 172.488607 -206.750646 
L 173.242971 -207.469219 
L 173.997335 -208.187792 
L 174.7517 -208.906365 
L 175.506064 -209.624938 
L 176.260428 -210.343511 
L 177.014793 -211.062084 
L 177.769157 -211.780656 
L 178.523521 -212.499229 
L 179.277886 -213.217802 
L 180.03225 -213.936375 
L 180.03225 -213.936375 
L 180.03225 -213.936375 
L 179.277886 -213.936375 
L 178.523521 -213.936375 
L 177.769157 -213.936375 
L 177.014793 -213.936375 
L 176.260428 -213.936375 
L 175.506064 -213.936375 
L 174.7517 -213.936375 
L 173.997335 -213.936375 
L 173.242971 -213.936375 
L 172.488607 -213.936375 
L 171.734242 -213.936375 
L 170.979878 -213.936375 
L 170.225514 -213.936375 
L 169.471149 -213.936375 
L 168.716785 -213.936375 
L 167.962421 -213.936375 
L 167.208057 -213.936375 
L 166.453692 -213.936375 
L 165.699328 -213.936375 
L 164.944964 -213.936375 
L 164.190599 -213.936375 
L 163.436235 -213.936375 
L 162.681871 -213.936375 
L 161.927506 -213.936375 
L 161.173142 -213.936375 
L 160.418778 -213.936375 
L 159.664413 -213.936375 
L 158.910049 -213.936375 
L 158.155685 -213.936375 
L 157.40132 -213.936375 
L 156.646956 -213.936375 
L 155.892592 -213.936375 
L 155.138227 -213.936375 
L 154.383863 -213.936375 
L 153.629499 -213.936375 
L 152.875134 -213.936375 
L 152.12077 -213.936375 
L 151.366406 -213.936375 
L 150.612041 -213.936375 
L 149.857677 -213.936375 
L 149.103313 -213.936375 
L 148.348948 -213.936375 
L 147.594584 -213.936375 
L 146.84022 -213.936375 
L 146.085856 -213.936375 
L 145.331491 -213.936375 
L 144.577127 -213.936375 
L 143.822763 -213.936375 
L 143.068398 -213.936375 
L 142.314034 -213.936375 
L 141.55967 -213.936375 
L 140.805305 -213.936375 
L 140.050941 -213.936375 
L 139.296577 -213.936375 
L 138.542212 -213.936375 
L 137.787848 -213.936375 
L 137.033484 -213.936375 
L 136.279119 -213.936375 
L 135.524755 -213.936375 
L 134.770391 -213.936375 
L 134.016026 -213.936375 
L 133.261662 -213.936375 
L 132.507298 -213.936375 
L 131.752933 -213.936375 
L 130.998569 -213.936375 
L 130.244205 -213.936375 
L 129.48984 -213.936375 
L 128.735476 -213.936375 
L 127.981112 -213.936375 
L 127.226747 -213.936375 
L 126.472383 -213.936375 
L 125.718019 -213.936375 
L 124.963655 -213.936375 
L 124.20929 -213.936375 
L 123.454926 -213.936375 
L 122.700562 -213.936375 
L 121.946197 -213.936375 
L 121.191833 -213.936375 
L 120.437469 -213.936375 
L 119.683104 -213.936375 
L 118.92874 -213.936375 
L 118.174376 -213.936375 
L 117.420011 -213.936375 
L 116.665647 -213.936375 
L 115.911283 -213.936375 
L 115.156918 -213.936375 
L 114.402554 -213.936375 
L 113.64819 -213.936375 
L 112.893825 -213.936375 
L 112.139461 -213.936375 
L 111.385097 -213.936375 
L 110.630732 -213.936375 
L 109.876368 -213.936375 
L 109.122004 -213.936375 
L 108.367639 -213.936375 
L 107.613275 -213.936375 
L 106.858911 -213.936375 
L 106.104546 -213.936375 
L 105.350182 -213.936375 
L 104.595818 -213.936375 
L 103.841454 -213.936375 
L 103.087089 -213.936375 
L 102.332725 -213.936375 
L 101.578361 -213.936375 
L 100.823996 -213.936375 
L 100.069632 -213.936375 
L 99.315268 -213.936375 
L 98.560903 -213.936375 
L 97.806539 -213.936375 
L 97.052175 -213.936375 
L 96.29781 -213.936375 
L 95.543446 -213.936375 
L 94.789082 -213.936375 
L 94.034717 -213.936375 
L 93.280353 -213.936375 
L 92.525989 -213.936375 
L 91.771624 -213.936375 
L 91.01726 -213.936375 
L 90.262896 -213.936375 
L 89.508531 -213.936375 
L 88.754167 -213.936375 
L 87.999803 -213.936375 
L 87.245438 -213.936375 
L 86.491074 -213.936375 
L 85.73671 -213.936375 
L 84.982345 -213.936375 
L 84.227981 -213.936375 
L 83.473617 -213.936375 
L 82.719253 -213.936375 
L 81.964888 -213.936375 
L 81.210524 -213.936375 
L 80.45616 -213.936375 
L 79.701795 -213.936375 
L 78.947431 -213.936375 
L 78.193067 -213.936375 
L 77.438702 -213.936375 
L 76.684338 -213.936375 
L 75.929974 -213.936375 
L 75.175609 -213.936375 
L 74.421245 -213.936375 
L 73.666881 -213.936375 
L 72.912516 -213.936375 
L 72.158152 -213.936375 
L 71.403788 -213.936375 
L 70.649423 -213.936375 
L 69.895059 -213.936375 
L 69.140695 -213.936375 
L 68.38633 -213.936375 
L 67.631966 -213.936375 
L 66.877602 -213.936375 
L 66.123237 -213.936375 
L 65.368873 -213.936375 
L 64.614509 -213.936375 
L 63.860144 -213.936375 
L 63.10578 -213.936375 
L 62.351416 -213.936375 
L 61.597052 -213.936375 
L 60.842687 -213.936375 
L 60.088323 -213.936375 
L 59.333959 -213.936375 
L 58.579594 -213.936375 
L 57.82523 -213.936375 
L 57.070866 -213.936375 
L 56.316501 -213.936375 
L 55.562137 -213.936375 
L 54.807773 -213.936375 
L 54.053408 -213.936375 
L 53.299044 -213.936375 
L 52.54468 -213.936375 
L 51.790315 -213.936375 
L 51.035951 -213.936375 
L 50.281587 -213.936375 
L 49.527222 -213.936375 
L 48.772858 -213.936375 
L 48.018494 -213.936375 
L 47.264129 -213.936375 
L 46.509765 -213.936375 
L 45.755401 -213.936375 
L 45.001036 -213.936375 
L 44.246672 -213.936375 
L 43.492308 -213.936375 
L 42.737943 -213.936375 
L 41.983579 -213.936375 
L 41.229215 -213.936375 
L 40.474851 -213.936375 
L 39.720486 -213.936375 
L 38.966122 -213.936375 
L 38.211758 -213.936375 
L 37.457393 -213.936375 
L 36.703029 -213.936375 
L 35.948665 -213.936375 
L 35.1943 -213.936375 
L 34.439936 -213.936375 
L 33.685572 -213.936375 
L 32.931207 -213.936375 
L 32.176843 -213.936375 
L 31.422479 -213.936375 
L 30.668114 -213.936375 
L 29.91375 -213.936375 
z
" style="stroke: #dc2626; stroke-opacity: 0.15"/>
    </defs>
    <g clip-path="url(#pfdea811f63)">
     <use xlink:href="#md4bf9e72a3" x="0" y="347.304375" style="fill: #dc2626; fill-opacity: 0.15; stroke: #dc2626; stroke-opacity: 0.15"/>
    </g>
   </g>
   <g id="line2d_25">
    <path d="M 29.91375 47.5704 
L 470.62375 299.450483 
L 470.62375 299.450483 
" clip-path="url(#pfdea811f63)" style="fill: none; stroke: #7c3aed; stroke-width: 2.5; stroke-linecap: round"/>
   </g>
   <g id="line2d_26">
    <path d="M 29.91375 276.364 
L 321.092997 -1 
L 321.092997 -1 
" clip-path="url(#pfdea811f63)" style="fill: none; stroke: #dc2626; stroke-width: 2.5; stroke-linecap: round"/>
   </g>
   <g id="line2d_27">
    <path d="M 29.91375 96.5976 
L 458.82375 96.5976 
" clip-path="url(#pfdea811f63)" style="fill: none; stroke-dasharray: 7.4,3.2; stroke-dashoffset: 0; stroke: #f59e0b; stroke-width: 2"/>
   </g>
   <g id="patch_3">
    <path d="M 29.91375 317.22 
L 29.91375 10.8 
" style="fill: none; stroke: #cccccc; stroke-linejoin: miter; stroke-linecap: square"/>
   </g>
   <g id="patch_4">
    <path d="M 458.82375 317.22 
L 458.82375 10.8 
" style="fill: none; stroke: #cccccc; stroke-linejoin: miter; stroke-linecap: square"/>
   </g>
   <g id="patch_5">
    <path d="M 29.91375 317.22 
L 458.82375 317.22 
" style="fill: none; stroke: #cccccc; stroke-linejoin: miter; stroke-linecap: square"/>
   </g>
   <g id="patch_6">
    <path d="M 29.91375 10.8 
L 458.82375 10.8 
" style="fill: none; stroke: #cccccc; stroke-linejoin: miter; stroke-linecap: square"/>
   </g>
   <g id="line2d_28">
    <defs>
     <path id="md3f1ad379d" d="M 0 5 
C 1.326016 5 2.597899 4.473168 3.535534 3.535534 
C 4.473168 2.597899 5 1.326016 5 0 
C 5 -1.326016 4.473168 -2.597899 3.535534 -3.535534 
C 2.597899 -4.473168 1.326016 -5 0 -5 
C -1.326016 -5 -2.597899 -4.473168 -3.535534 -3.535534 
C -4.473168 -2.597899 -5 -1.326016 -5 0 
C -5 1.326016 -4.473168 2.597899 -3.535534 3.535534 
C -2.597899 4.473168 -1.326016 5 0 5 
z
" style="stroke: #000000"/>
    </defs>
    <g clip-path="url(#pfdea811f63)">
     <use xlink:href="#md3f1ad379d" x="180.03225" y="133.368" style="stroke: #000000"/>
    </g>
   </g>
   <g id="legend_1">
    <g id="line2d_29">
     <path d="M 386.725 21.27875 
L 394.725 21.27875 
L 402.725 21.27875 
" style="fill: none; stroke: #7c3aed; stroke-width: 2.5; stroke-linecap: round"/>
    </g>
    <g id="text_3">
     <!-- Demand -->
     <g style="fill: #262626" transform="translate(409.125 24.07875) scale(0.08 -0.08)">
      <defs>
       <path id="DejaVuSerif-44" d="M 1581 331 
L 2163 331 
Q 3072 331 3558 850 
Q 4044 1369 4044 2338 
Q 4044 3306 3559 3818 
Q 3075 4331 2163 4331 
L 1581 4331 
L 1581 331 
z
M 353 0 
L 353 331 
L 947 331 
L 947 4331 
L 353 4331 
L 353 4666 
L 2209 4666 
Q 3416 4666 4089 4050 
Q 4763 3434 4763 2338 
Q 4763 1238 4088 619 
Q 3413 0 2209 0 
L 353 0 
z
" transform="scale(0.015625)"/>
       <path id="DejaVuSerif-6d" d="M 3316 2675 
Q 3481 3041 3739 3227 
Q 3997 3413 4341 3413 
Q 4863 3413 5119 3089 
Q 5375 2766 5375 2113 
L 5375 331 
L 5894 331 
L 5894 0 
L 4300 0 
L 4300 331 
L 4800 331 
L 4800 2047 
Q 4800 2556 4650 2772 
Q 4500 2988 4153 2988 
Q 3769 2988 3567 2697 
Q 3366 2406 3366 1850 
L 3366 331 
L 3866 331 
L 3866 0 
L 2291 0 
L 2291 331 
L 2791 331 
L 2791 2069 
Q 2791 2566 2641 2777 
Q 2491 2988 2144 2988 
Q 1759 2988 1557 2697 
Q 1356 2406 1356 1850 
L 1356 331 
L 1856 331 
L 1856 0 
L 263 0 
L 263 331 
L 781 331 
L 781 2994 
L 231 2994 
L 231 3322 
L 1356 3322 
L 1356 2731 
Q 1516 3063 1762 3238 
Q 2009 3413 2322 3413 
Q 2709 3413 2968 3220 
Q 3228 3028 3316 2675 
z
" transform="scale(0.015625)"/>
       <path id="DejaVuSerif-64" d="M 3359 331 
L 3909 331 
L 3909 0 
L 2784 0 
L 2784 519 
Q 2616 206 2355 57 
Q 2094 -91 1709 -91 
Q 1097 -91 708 395 
Q 319 881 319 1663 
Q 319 2444 706 2928 
Q 1094 3413 1709 3413 
Q 2094 3413 2355 3264 
Q 2616 3116 2784 2803 
L 2784 4531 
L 2241 4531 
L 2241 4863 
L 3359 4863 
L 3359 331 
z
M 2784 1497 
L 2784 1825 
Q 2784 2422 2554 2737 
Q 2325 3053 1888 3053 
Q 1444 3053 1217 2703 
Q 991 2353 991 1663 
Q 991 975 1217 622 
Q 1444 269 1888 269 
Q 2325 269 2554 583 
Q 2784 897 2784 1497 
z
" transform="scale(0.015625)"/>
      </defs>
      <use xlink:href="#DejaVuSerif-44"/>
      <use xlink:href="#DejaVuSerif-65" transform="translate(80.175781 0)"/>
      <use xlink:href="#DejaVuSerif-6d" transform="translate(139.355469 0)"/>
      <use xlink:href="#DejaVuSerif-61" transform="translate(234.179688 0)"/>
      <use xlink:href="#DejaVuSerif-6e" transform="translate(293.798828 0)"/>
      <use xlink:href="#DejaVuSerif-64" transform="translate(358.203125 0)"/>
     </g>
    </g>
    <g id="line2d_30">
     <path d="M 386.725 33.02125 
L 394.725 33.02125 
L 402.725 33.02125 
" style="fill: none; stroke: #dc2626; stroke-width: 2.5; stroke-linecap: round"/>
    </g>
    <g id="text_4">
     <!-- Supply -->
     <g style="fill: #262626" transform="translate(409.125 35.82125) scale(0.08 -0.08)">
      <defs>
       <path id="DejaVuSerif-53" d="M 594 225 
L 594 1288 
L 953 1284 
Q 969 753 1261 498 
Q 1553 244 2150 244 
Q 2706 244 2998 464 
Q 3291 684 3291 1106 
Q 3291 1444 3114 1625 
Q 2938 1806 2369 1978 
L 1753 2163 
Q 1084 2366 811 2669 
Q 538 2972 538 3500 
Q 538 4094 959 4422 
Q 1381 4750 2144 4750 
Q 2469 4750 2856 4679 
Q 3244 4609 3681 4475 
L 3681 3481 
L 3328 3481 
Q 3275 3975 2998 4195 
Q 2722 4416 2156 4416 
Q 1663 4416 1405 4214 
Q 1147 4013 1147 3628 
Q 1147 3294 1340 3103 
Q 1534 2913 2163 2725 
L 2741 2553 
Q 3375 2363 3645 2067 
Q 3916 1772 3916 1275 
Q 3916 597 3481 253 
Q 3047 -91 2188 -91 
Q 1803 -91 1404 -12 
Q 1006 66 594 225 
z
" transform="scale(0.015625)"/>
       <path id="DejaVuSerif-70" d="M 1313 1825 
L 1313 1497 
Q 1313 897 1542 583 
Q 1772 269 2209 269 
Q 2650 269 2876 622 
Q 3103 975 3103 1663 
Q 3103 2353 2876 2703 
Q 2650 3053 2209 3053 
Q 1772 3053 1542 2737 
Q 1313 2422 1313 1825 
z
M 738 2988 
L 184 2988 
L 184 3322 
L 1313 3322 
L 1313 2803 
Q 1481 3116 1742 3264 
Q 2003 3413 2388 3413 
Q 3000 3413 3387 2928 
Q 3775 2444 3775 1663 
Q 3775 881 3387 395 
Q 3000 -91 2388 -91 
Q 2003 -91 1742 57 
Q 1481 206 1313 519 
L 1313 -997 
L 1856 -997 
L 1856 -1331 
L 184 -1331 
L 184 -997 
L 738 -997 
L 738 2988 
z
" transform="scale(0.015625)"/>
       <path id="DejaVuSerif-6c" d="M 1313 331 
L 1856 331 
L 1856 0 
L 184 0 
L 184 331 
L 738 331 
L 738 4531 
L 184 4531 
L 184 4863 
L 1313 4863 
L 1313 331 
z
" transform="scale(0.015625)"/>
      </defs>
      <use xlink:href="#DejaVuSerif-53"/>
      <use xlink:href="#DejaVuSerif-75" transform="translate(68.505859 0)"/>
      <use xlink:href="#DejaVuSerif-70" transform="translate(132.910156 0)"/>
      <use xlink:href="#DejaVuSerif-70" transform="translate(196.923828 0)"/>
      <use xlink:href="#DejaVuSerif-6c" transform="translate(260.9375 0)"/>
      <use xlink:href="#DejaVuSerif-79" transform="translate(292.919922 0)"/>
     </g>
    </g>
    <g id="patch_7">
     <path d="M 386.725 47.6775 
L 402.725 47.6775 
L 402.725 42.0775 
L 386.725 42.0775 
z
" style="fill: #7c3aed; fill-opacity: 0.15; stroke: #7c3aed; stroke-opacity: 0.15; stroke-linejoin: miter"/>
    </g>
    <g id="text_5">
     <!-- CS -->
     <g style="fill: #262626" transform="translate(409.125 47.6775) scale(0.08 -0.08)">
      <defs>
       <path id="DejaVuSerif-43" d="M 4513 1234 
Q 4306 581 3820 245 
Q 3334 -91 2591 -91 
Q 2134 -91 1743 65 
Q 1353 222 1050 525 
Q 700 875 529 1320 
Q 359 1766 359 2328 
Q 359 3416 987 4083 
Q 1616 4750 2644 4750 
Q 3025 4750 3456 4650 
Q 3888 4550 4384 4347 
L 4384 3272 
L 4031 3272 
Q 3916 3859 3567 4137 
Q 3219 4416 2591 4416 
Q 1844 4416 1459 3886 
Q 1075 3356 1075 2328 
Q 1075 1303 1459 773 
Q 1844 244 2591 244 
Q 3113 244 3450 492 
Q 3788 741 3938 1234 
L 4513 1234 
z
" transform="scale(0.015625)"/>
      </defs>
      <use xlink:href="#DejaVuSerif-43"/>
      <use xlink:href="#DejaVuSerif-53" transform="translate(76.513672 0)"/>
     </g>
    </g>
    <g id="patch_8">
     <path d="M 386.725 59.42 
L 402.725 59.42 
L 402.725 53.82 
L 386.725 53.82 
z
" style="fill: #dc2626; fill-opacity: 0.15; stroke: #dc2626; stroke-opacity: 0.15; stroke-linejoin: miter"/>
    </g>
    <g id="text_6">
     <!-- PS -->
     <g style="fill: #262626" transform="translate(409.125 59.42) scale(0.08 -0.08)">
      <use xlink:href="#DejaVuSerif-50"/>
      <use xlink:href="#DejaVuSerif-53" transform="translate(67.285156 0)"/>
     </g>
    </g>
    <g id="line2d_31">
     <path d="M 386.725 68.3625 
L 394.725 68.3625 
L 402.725 68.3625 
" style="fill: none; stroke-dasharray: 7.4,3.2; stroke-dashoffset: 0; stroke: #f59e0b; stroke-width: 2"/>
    </g>
    <g id="text_7">
     <!-- Price floor -->
     <g style="fill: #262626" transform="translate(409.125 71.1625) scale(0.08 -0.08)">
      <defs>
       <path id="DejaVuSerif-66" d="M 2753 4078 
L 2450 4078 
Q 2447 4313 2317 4434 
Q 2188 4556 1941 4556 
Q 1619 4556 1487 4379 
Q 1356 4203 1356 3750 
L 1356 3322 
L 2284 3322 
L 2284 2988 
L 1356 2988 
L 1356 331 
L 2094 331 
L 2094 0 
L 231 0 
L 231 331 
L 781 331 
L 781 2988 
L 231 2988 
L 231 3322 
L 781 3322 
L 781 3738 
Q 781 4294 1070 4578 
Q 1359 4863 1919 4863 
Q 2128 4863 2337 4825 
Q 2547 4788 2753 4709 
L 2753 4078 
z
" transform="scale(0.015625)"/>
       <path id="DejaVuSerif-6f" d="M 1925 219 
Q 2388 219 2623 584 
Q 2859 950 2859 1663 
Q 2859 2375 2623 2739 
Q 2388 3103 1925 3103 
Q 1463 3103 1227 2739 
Q 991 2375 991 1663 
Q 991 950 1228 584 
Q 1466 219 1925 219 
z
M 1925 -91 
Q 1200 -91 759 389 
Q 319 869 319 1663 
Q 319 2456 758 2934 
Q 1197 3413 1925 3413 
Q 2653 3413 3092 2934 
Q 3531 2456 3531 1663 
Q 3531 869 3092 389 
Q 2653 -91 1925 -91 
z
" transform="scale(0.015625)"/>
      </defs>
      <use xlink:href="#DejaVuSerif-50"/>
      <use xlink:href="#DejaVuSerif-72" transform="translate(67.285156 0)"/>
      <use xlink:href="#DejaVuSerif-69" transform="translate(115.087891 0)"/>
      <use xlink:href="#DejaVuSerif-63" transform="translate(147.070312 0)"/>
      <use xlink:href="#DejaVuSerif-65" transform="translate(203.076172 0)"/>
      <use xlink:href="#DejaVuSerif-20" transform="translate(262.255859 0)"/>
      <use xlink:href="#DejaVuSerif-66" transform="translate(294.042969 0)"/>
      <use xlink:href="#DejaVuSerif-6c" transform="translate(331.054688 0)"/>
      <use xlink:href="#DejaVuSerif-6f" transform="translate(363.037109 0)"/>
      <use xlink:href="#DejaVuSerif-6f" transform="translate(423.242188 0)"/>
      <use xlink:href="#DejaVuSerif-72" transform="translate(483.447266 0)"/>
     </g>
    </g>
   </g>
  </g>
 </g>
 <defs>
  <clipPath id="pfdea811f63">
   <rect x="29.91375" y="10.8" width="428.91" height="306.42"/>
  </clipPath>
 </defs>
</svg>
