<?xml version="1.0" encoding="utf-8" standalone="no"?>
<!DOCTYPE svg PUBLIC "-//W3C//DTD SVG 1.1//EN"
  "http://www.w3.org/Graphics/SVG/1.1/DTD/svg11.dtd">
<svg xmlns:xlink="http://www.w3.org/1999/xlink" width="829.62375pt" height="347.572031pt" viewBox="0 0 829.62375 347.572031" xmlns="http://www.w3.org/2000/svg" version="1.1">
 <metadata>
  <rdf:RDF xmlns:dc="http://purl.org/dc/elements/1.1/" xmlns:cc="http://creativecommons.org/ns#" xmlns:rdf="http://www.w3.org/1999/02/22-rdf-syntax-ns#">
   <cc:Work>
    <dc:type rdf:resource="http://purl.org/dc/dcmitype/StillImage"/>
    <dc:date>2026-02-19T08:27:10.739804</dc:date>
    <dc:format>image/svg+xml</dc:format>
    <dc:creator>
     <cc:Agent>
      <dc:title>Matplotlib v3.10.1, https://matplotlib.org/</dc:title>
     </cc:Agent>
    </dc:creator>
   </cc:Work>
  </rdf:RDF>
 </metadata>
 <defs>
  <style type="text/css">*{stroke-linejoin: round; stroke-linecap: butt}</style>
 </defs>
 <g id="figure_1">
  <g id="patch_1">
   <path d="M 0 347.572031 
L 829.62375 347.572031 
L 829.62375 0 
L 0 0 
z
" style="fill: #ffffff"/>
  </g>
  <g id="axes_1">
   <g id="patch_2">
    <path d="M 29.91375 317.658281 
L 392.76375 317.658281 
L 392.76375 25.158281 
L 29.91375 25.158281 
z
" style="fill: #ffffff"/>
   </g>
   <g id="matplotlib.axis_1">
    <g id="xtick_1">
     <g id="line2d_1">
      <path d="M 29.91375 317.658281 
L 29.91375 25.158281 
" clip-path="url(#p5570ceab75)" style="fill: none; stroke: #cccccc; stroke-width: 0.8; stroke-linecap: round"/>
     </g>
     <g id="line2d_2"/>
    </g>
    <g id="xtick_2">
     <g id="line2d_3">
      <path d="M 75.27 317.658281 
L 75.27 25.158281 
" clip-path="url(#p5570ceab75)" style="fill: none; stroke: #cccccc; stroke-width: 0.8; stroke-linecap: round"/>
     </g>
     <g id="line2d_4"/>
    </g>
    <g id="xtick_3">
     <g id="line2d_5">
      <path d="M 120.62625 317.658281 
L 120.62625 25.158281 
" clip-path="url(#p5570ceab75)" style="fill: none; stroke: #cccccc; stroke-width: 0.8; stroke-linecap: round"/>
     </g>
     <g id="line2d_6"/>
    </g>
    <g id="xtick_4">
     <g id="line2d_7">
      <path d="M 165.9825 317.658281 
L 165.9825 25.158281 
" clip-path="url(#p5570ceab75)" style="fill: none; stroke: #cccccc; stroke-width: 0.8; stroke-linecap: round"/>
     </g>
     <g id="line2d_8"/>
    </g>
    <g id="xtick_5">
     <g id="line2d_9">
      <path d="M 211.33875 317.658281 
L 211.33875 25.158281 
" clip-path="url(#p5570ceab75)" style="fill: none; stroke: #cccccc; stroke-width: 0.8; stroke-linecap: round"/>
     </g>
     <g id="line2d_10"/>
    </g>
    <g id="xtick_6">
     <g id="line2d_11">
      <path d="M 256.695 317.658281 
L 256.695 25.158281 
" clip-path="url(#p5570ceab75)" style="fill: none; stroke: #cccccc; stroke-width: 0.8; stroke-linecap: round"/>
     </g>
     <g id="line2d_12"/>
    </g>
    <g id="xtick_7">
     <g id="line2d_13">
      <path d="M 302.05125 317.658281 
L 302.05125 25.158281 
" clip-path="url(#p5570ceab75)" style="fill: none; stroke: #cccccc; stroke-width: 0.8; stroke-linecap: round"/>
     </g>
     <g id="line2d_14"/>
    </g>
    <g id="xtick_8">
     <g id="line2d_15">
      <path d="M 347.4075 317.658281 
L 347.4075 25.158281 
" clip-path="url(#p5570ceab75)" style="fill: none; stroke: #cccccc; stroke-width: 0.8; stroke-linecap: round"/>
     </g>
     <g id="line2d_16"/>
    </g>
    <g id="xtick_9">
     <g id="line2d_17">
      <path d="M 392.76375 317.658281 
L 392.76375 25.158281 
" clip-path="url(#p5570ceab75)" style="fill: none; stroke: #cccccc; stroke-width: 0.8; stroke-linecap: round"/>
     </g>
     <g id="line2d_18"/>
    </g>
    <g id="text_1">
     <!-- Quantity -->
     <g style="fill: #262626" transform="translate(184.981875 334.105781) scale(0.12 -0.12)">
      <defs>
       <path id="DejaVuSerif-51" d="M 2700 -91 
Q 1628 -91 993 567 
Q 359 1225 359 2328 
Q 359 2894 529 3339 
Q 700 3784 1050 4134 
Q 1356 4441 1750 4595 
Q 2144 4750 2625 4750 
Q 3641 4750 4266 4084 
Q 4891 3419 4891 2328 
Q 4891 1403 4422 773 
Q 3953 144 3128 -38 
Q 3297 -247 3539 -347 
Q 3781 -447 4122 -447 
L 4219 -447 
L 4219 -1025 
Q 3691 -1000 3314 -767 
Q 2938 -534 2700 -91 
z
M 2625 244 
Q 3391 244 3781 770 
Q 4172 1297 4172 2328 
Q 4172 3363 3781 3889 
Q 3391 4416 2625 4416 
Q 1856 4416 1465 3889 
Q 1075 3363 1075 2328 
Q 1075 1297 1465 770 
Q 1856 244 2625 244 
z
" transform="scale(0.015625)"/>
       <path id="DejaVuSerif-75" d="M 2266 3322 
L 3341 3322 
L 3341 331 
L 3884 331 
L 3884 0 
L 2766 0 
L 2766 588 
Q 2606 256 2353 82 
Q 2100 -91 1766 -91 
Q 1213 -91 952 223 
Q 691 538 691 1209 
L 691 2988 
L 172 2988 
L 172 3322 
L 1269 3322 
L 1269 1388 
Q 1269 781 1417 556 
Q 1566 331 1947 331 
Q 2347 331 2556 625 
Q 2766 919 2766 1478 
L 2766 2988 
L 2266 2988 
L 2266 3322 
z
" transform="scale(0.015625)"/>
       <path id="DejaVuSerif-61" d="M 2547 1044 
L 2547 1747 
L 1806 1747 
Q 1378 1747 1168 1562 
Q 959 1378 959 997 
Q 959 650 1171 447 
Q 1384 244 1747 244 
Q 2106 244 2326 466 
Q 2547 688 2547 1044 
z
M 3122 2075 
L 3122 331 
L 3634 331 
L 3634 0 
L 2547 0 
L 2547 359 
Q 2356 128 2106 18 
Q 1856 -91 1522 -91 
Q 969 -91 644 203 
Q 319 497 319 997 
Q 319 1513 691 1797 
Q 1063 2081 1741 2081 
L 2547 2081 
L 2547 2309 
Q 2547 2688 2317 2895 
Q 2088 3103 1672 3103 
Q 1328 3103 1125 2947 
Q 922 2791 872 2484 
L 575 2484 
L 575 3156 
Q 875 3284 1158 3348 
Q 1441 3413 1709 3413 
Q 2400 3413 2761 3070 
Q 3122 2728 3122 2075 
z
" transform="scale(0.015625)"/>
       <path id="DejaVuSerif-6e" d="M 263 0 
L 263 331 
L 781 331 
L 781 2988 
L 231 2988 
L 231 3322 
L 1356 3322 
L 1356 2731 
Q 1516 3069 1770 3241 
Q 2025 3413 2363 3413 
Q 2913 3413 3172 3097 
Q 3431 2781 3431 2113 
L 3431 331 
L 3944 331 
L 3944 0 
L 2356 0 
L 2356 331 
L 2853 331 
L 2853 1931 
Q 2853 2541 2703 2767 
Q 2553 2994 2175 2994 
Q 1775 2994 1565 2701 
Q 1356 2409 1356 1850 
L 1356 331 
L 1856 331 
L 1856 0 
L 263 0 
z
" transform="scale(0.015625)"/>
       <path id="DejaVuSerif-74" d="M 691 2988 
L 184 2988 
L 184 3322 
L 691 3322 
L 691 4353 
L 1269 4353 
L 1269 3322 
L 2350 3322 
L 2350 2988 
L 1269 2988 
L 1269 878 
Q 1269 456 1350 337 
Q 1431 219 1650 219 
Q 1875 219 1978 351 
Q 2081 484 2088 781 
L 2522 781 
Q 2497 328 2275 118 
Q 2053 -91 1600 -91 
Q 1103 -91 897 129 
Q 691 350 691 878 
L 691 2988 
z
" transform="scale(0.015625)"/>
       <path id="DejaVuSerif-69" d="M 622 4353 
Q 622 4497 726 4603 
Q 831 4709 978 4709 
Q 1122 4709 1226 4603 
Q 1331 4497 1331 4353 
Q 1331 4206 1228 4103 
Q 1125 4000 978 4000 
Q 831 4000 726 4103 
Q 622 4206 622 4353 
z
M 1356 331 
L 1900 331 
L 1900 0 
L 231 0 
L 231 331 
L 781 331 
L 781 2988 
L 231 2988 
L 231 3322 
L 1356 3322 
L 1356 331 
z
" transform="scale(0.015625)"/>
       <path id="DejaVuSerif-79" d="M 1381 -609 
L 1600 -56 
L 359 2988 
L -19 2988 
L -19 3322 
L 1509 3322 
L 1509 2988 
L 978 2988 
L 1913 703 
L 2847 2988 
L 2350 2988 
L 2350 3322 
L 3597 3322 
L 3597 2988 
L 3225 2988 
L 1703 -750 
Q 1547 -1138 1356 -1280 
Q 1166 -1422 819 -1422 
Q 672 -1422 517 -1397 
Q 363 -1372 206 -1325 
L 206 -691 
L 500 -691 
Q 519 -903 608 -995 
Q 697 -1088 884 -1088 
Q 1056 -1088 1161 -992 
Q 1266 -897 1381 -609 
z
" transform="scale(0.015625)"/>
      </defs>
      <use xlink:href="#DejaVuSerif-51"/>
      <use xlink:href="#DejaVuSerif-75" transform="translate(81.982422 0)"/>
      <use xlink:href="#DejaVuSerif-61" transform="translate(146.386719 0)"/>
      <use xlink:href="#DejaVuSerif-6e" transform="translate(206.005859 0)"/>
      <use xlink:href="#DejaVuSerif-74" transform="translate(270.410156 0)"/>
      <use xlink:href="#DejaVuSerif-69" transform="translate(310.595703 0)"/>
      <use xlink:href="#DejaVuSerif-74" transform="translate(342.578125 0)"/>
      <use xlink:href="#DejaVuSerif-79" transform="translate(382.763672 0)"/>
     </g>
    </g>
   </g>
   <g id="matplotlib.axis_2">
    <g id="ytick_1">
     <g id="line2d_19">
      <path d="M 29.91375 317.658281 
L 392.76375 317.658281 
" clip-path="url(#p5570ceab75)" style="fill: none; stroke: #cccccc; stroke-width: 0.8; stroke-linecap: round"/>
     </g>
     <g id="line2d_20"/>
    </g>
    <g id="ytick_2">
     <g id="line2d_21">
      <path d="M 29.91375 272.658281 
L 392.76375 272.658281 
" clip-path="url(#p5570ceab75)" style="fill: none; stroke: #cccccc; stroke-width: 0.8; stroke-linecap: round"/>
     </g>
     <g id="line2d_22"/>
    </g>
    <g id="ytick_3">
     <g id="line2d_23">
      <path d="M 29.91375 227.658281 
L 392.76375 227.658281 
" clip-path="url(#p5570ceab75)" style="fill: none; stroke: #cccccc; stroke-width: 0.8; stroke-linecap: round"/>
     </g>
     <g id="line2d_24"/>
    </g>
    <g id="ytick_4">
     <g id="line2d_25">
      <path d="M 29.91375 182.658281 
L 392.76375 182.658281 
" clip-path="url(#p5570ceab75)" style="fill: none; stroke: #cccccc; stroke-width: 0.8; stroke-linecap: round"/>
     </g>
     <g id="line2d_26"/>
    </g>
    <g id="ytick_5">
     <g id="line2d_27">
      <path d="M 29.91375 137.658281 
L 392.76375 137.658281 
" clip-path="url(#p5570ceab75)" style="fill: none; stroke: #cccccc; stroke-width: 0.8; stroke-linecap: round"/>
     </g>
     <g id="line2d_28"/>
    </g>
    <g id="ytick_6">
     <g id="line2d_29">
      <path d="M 29.91375 92.658281 
L 392.76375 92.658281 
" clip-path="url(#p5570ceab75)" style="fill: none; stroke: #cccccc; stroke-width: 0.8; stroke-linecap: round"/>
     </g>
     <g id="line2d_30"/>
    </g>
    <g id="ytick_7">
     <g id="line2d_31">
      <path d="M 29.91375 47.658281 
L 392.76375 47.658281 
" clip-path="url(#p5570ceab75)" style="fill: none; stroke: #cccccc; stroke-width: 0.8; stroke-linecap: round"/>
     </g>
     <g id="line2d_32"/>
    </g>
    <g id="text_2">
     <!-- Price -->
     <g style="fill: #262626" transform="translate(19.918125 187.143281) rotate(-90) scale(0.12 -0.12)">
      <defs>
       <path id="DejaVuSerif-50" d="M 1581 2375 
L 2406 2375 
Q 2872 2375 3115 2626 
Q 3359 2878 3359 3353 
Q 3359 3831 3115 4081 
Q 2872 4331 2406 4331 
L 1581 4331 
L 1581 2375 
z
M 353 0 
L 353 331 
L 947 331 
L 947 4331 
L 353 4331 
L 353 4666 
L 2559 4666 
Q 3259 4666 3668 4311 
Q 4078 3956 4078 3353 
Q 4078 2753 3668 2397 
Q 3259 2041 2559 2041 
L 1581 2041 
L 1581 331 
L 2303 331 
L 2303 0 
L 353 0 
z
" transform="scale(0.015625)"/>
       <path id="DejaVuSerif-72" d="M 3059 3328 
L 3059 2497 
L 2728 2497 
Q 2713 2744 2591 2866 
Q 2469 2988 2234 2988 
Q 1809 2988 1582 2694 
Q 1356 2400 1356 1850 
L 1356 331 
L 2022 331 
L 2022 0 
L 263 0 
L 263 331 
L 781 331 
L 781 2994 
L 231 2994 
L 231 3322 
L 1356 3322 
L 1356 2731 
Q 1525 3078 1790 3245 
Q 2056 3413 2438 3413 
Q 2578 3413 2733 3391 
Q 2888 3369 3059 3328 
z
" transform="scale(0.015625)"/>
       <path id="DejaVuSerif-63" d="M 3291 997 
Q 3169 466 2822 187 
Q 2475 -91 1925 -91 
Q 1200 -91 759 389 
Q 319 869 319 1663 
Q 319 2459 759 2936 
Q 1200 3413 1925 3413 
Q 2241 3413 2553 3339 
Q 2866 3266 3181 3116 
L 3181 2266 
L 2847 2266 
Q 2781 2703 2561 2903 
Q 2341 3103 1931 3103 
Q 1466 3103 1228 2742 
Q 991 2381 991 1663 
Q 991 944 1227 581 
Q 1463 219 1931 219 
Q 2303 219 2525 412 
Q 2747 606 2828 997 
L 3291 997 
z
" transform="scale(0.015625)"/>
       <path id="DejaVuSerif-65" d="M 3469 1600 
L 991 1600 
L 991 1575 
Q 991 903 1244 561 
Q 1497 219 1991 219 
Q 2369 219 2611 417 
Q 2853 616 2950 1006 
L 3413 1006 
Q 3275 459 2904 184 
Q 2534 -91 1931 -91 
Q 1203 -91 761 389 
Q 319 869 319 1663 
Q 319 2450 753 2931 
Q 1188 3413 1894 3413 
Q 2647 3413 3050 2948 
Q 3453 2484 3469 1600 
z
M 2791 1931 
Q 2772 2513 2545 2808 
Q 2319 3103 1894 3103 
Q 1497 3103 1269 2806 
Q 1041 2509 991 1931 
L 2791 1931 
z
" transform="scale(0.015625)"/>
      </defs>
      <use xlink:href="#DejaVuSerif-50"/>
      <use xlink:href="#DejaVuSerif-72" transform="translate(67.285156 0)"/>
      <use xlink:href="#DejaVuSerif-69" transform="translate(115.087891 0)"/>
      <use xlink:href="#DejaVuSerif-63" transform="translate(147.070312 0)"/>
      <use xlink:href="#DejaVuSerif-65" transform="translate(203.076172 0)"/>
     </g>
    </g>
   </g>
   <g id="FillBetweenPolyCollection_1">
    <defs>
     <path id="mfb0f087607" d="M 29.91375 -277.41375 
L 29.91375 -202.41375 
L 30.521539 -202.41375 
L 31.129328 -202.41375 
L 31.737117 -202.41375 
L 32.344906 -202.41375 
L 32.952695 -202.41375 
L 33.560484 -202.41375 
L 34.168273 -202.41375 
L 34.776062 -202.41375 
L 35.383851 -202.41375 
L 35.991639 -202.41375 
L 36.599428 -202.41375 
L 37.207217 -202.41375 
L 37.815006 -202.41375 
L 38.422795 -202.41375 
L 39.030584 -202.41375 
L 39.638373 -202.41375 
L 40.246162 -202.41375 
L 40.853951 -202.41375 
L 41.46174 -202.41375 
L 42.069529 -202.41375 
L 42.677318 -202.41375 
L 43.285107 -202.41375 
L 43.892896 -202.41375 
L 44.500685 -202.41375 
L 45.108474 -202.41375 
L 45.716263 -202.41375 
L 46.324052 -202.41375 
L 46.93184 -202.41375 
L 47.539629 -202.41375 
L 48.147418 -202.41375 
L 48.755207 -202.41375 
L 49.362996 -202.41375 
L 49.970785 -202.41375 
L 50.578574 -202.41375 
L 51.186363 -202.41375 
L 51.794152 -202.41375 
L 52.401941 -202.41375 
L 53.00973 -202.41375 
L 53.617519 -202.41375 
L 54.225308 -202.41375 
L 54.833097 -202.41375 
L 55.440886 -202.41375 
L 56.048675 -202.41375 
L 56.656464 -202.41375 
L 57.264253 -202.41375 
L 57.872041 -202.41375 
L 58.47983 -202.41375 
L 59.087619 -202.41375 
L 59.695408 -202.41375 
L 60.303197 -202.41375 
L 60.910986 -202.41375 
L 61.518775 -202.41375 
L 62.126564 -202.41375 
L 62.734353 -202.41375 
L 63.342142 -202.41375 
L 63.949931 -202.41375 
L 64.55772 -202.41375 
L 65.165509 -202.41375 
L 65.773298 -202.41375 
L 66.381087 -202.41375 
L 66.988876 -202.41375 
L 67.596665 -202.41375 
L 68.204454 -202.41375 
L 68.812242 -202.41375 
L 69.420031 -202.41375 
L 70.02782 -202.41375 
L 70.635609 -202.41375 
L 71.243398 -202.41375 
L 71.851187 -202.41375 
L 72.458976 -202.41375 
L 73.066765 -202.41375 
L 73.674554 -202.41375 
L 74.282343 -202.41375 
L 74.890132 -202.41375 
L 75.497921 -202.41375 
L 76.10571 -202.41375 
L 76.713499 -202.41375 
L 77.321288 -202.41375 
L 77.929077 -202.41375 
L 78.536866 -202.41375 
L 79.144655 -202.41375 
L 79.752443 -202.41375 
L 80.360232 -202.41375 
L 80.968021 -202.41375 
L 81.57581 -202.41375 
L 82.183599 -202.41375 
L 82.791388 -202.41375 
L 83.399177 -202.41375 
L 84.006966 -202.41375 
L 84.614755 -202.41375 
L 85.222544 -202.41375 
L 85.830333 -202.41375 
L 86.438122 -202.41375 
L 87.045911 -202.41375 
L 87.6537 -202.41375 
L 88.261489 -202.41375 
L 88.869278 -202.41375 
L 89.477067 -202.41375 
L 90.084856 -202.41375 
L 90.692644 -202.41375 
L 91.300433 -202.41375 
L 91.908222 -202.41375 
L 92.516011 -202.41375 
L 93.1238 -202.41375 
L 93.731589 -202.41375 
L 94.339378 -202.41375 
L 94.947167 -202.41375 
L 95.554956 -202.41375 
L 96.162745 -202.41375 
L 96.770534 -202.41375 
L 97.378323 -202.41375 
L 97.986112 -202.41375 
L 98.593901 -202.41375 
L 99.20169 -202.41375 
L 99.809479 -202.41375 
L 100.417268 -202.41375 
L 101.025057 -202.41375 
L 101.632845 -202.41375 
L 102.240634 -202.41375 
L 102.848423 -202.41375 
L 103.456212 -202.41375 
L 104.064001 -202.41375 
L 104.67179 -202.41375 
L 105.279579 -202.41375 
L 105.887368 -202.41375 
L 106.495157 -202.41375 
L 107.102946 -202.41375 
L 107.710735 -202.41375 
L 108.318524 -202.41375 
L 108.926313 -202.41375 
L 109.534102 -202.41375 
L 110.141891 -202.41375 
L 110.74968 -202.41375 
L 111.357469 -202.41375 
L 111.965258 -202.41375 
L 112.573046 -202.41375 
L 113.180835 -202.41375 
L 113.788624 -202.41375 
L 114.396413 -202.41375 
L 115.004202 -202.41375 
L 115.611991 -202.41375 
L 116.21978 -202.41375 
L 116.827569 -202.41375 
L 117.435358 -202.41375 
L 118.043147 -202.41375 
L 118.650936 -202.41375 
L 119.258725 -202.41375 
L 119.866514 -202.41375 
L 120.474303 -202.41375 
L 121.082092 -202.41375 
L 121.689881 -202.41375 
L 122.29767 -202.41375 
L 122.905459 -202.41375 
L 123.513247 -202.41375 
L 124.121036 -202.41375 
L 124.728825 -202.41375 
L 125.336614 -202.41375 
L 125.944403 -202.41375 
L 126.552192 -202.41375 
L 127.159981 -202.41375 
L 127.76777 -202.41375 
L 128.375559 -202.41375 
L 128.983348 -202.41375 
L 129.591137 -202.41375 
L 130.198926 -202.41375 
L 130.806715 -202.41375 
L 131.414504 -202.41375 
L 132.022293 -202.41375 
L 132.630082 -202.41375 
L 133.237871 -202.41375 
L 133.84566 -202.41375 
L 134.453448 -202.41375 
L 135.061237 -202.41375 
L 135.669026 -202.41375 
L 136.276815 -202.41375 
L 136.884604 -202.41375 
L 137.492393 -202.41375 
L 138.100182 -202.41375 
L 138.707971 -202.41375 
L 139.31576 -202.41375 
L 139.923549 -202.41375 
L 140.531338 -202.41375 
L 141.139127 -202.41375 
L 141.746916 -202.41375 
L 142.354705 -202.41375 
L 142.962494 -202.41375 
L 143.570283 -202.41375 
L 144.178072 -202.41375 
L 144.785861 -202.41375 
L 145.393649 -202.41375 
L 146.001438 -202.41375 
L 146.609227 -202.41375 
L 147.217016 -202.41375 
L 147.824805 -202.41375 
L 148.432594 -202.41375 
L 149.040383 -202.41375 
L 149.648172 -202.41375 
L 150.255961 -202.41375 
L 150.86375 -202.41375 
L 150.86375 -202.41375 
L 150.86375 -202.41375 
L 150.255961 -202.790634 
L 149.648172 -203.167519 
L 149.040383 -203.544403 
L 148.432594 -203.921288 
L 147.824805 -204.298172 
L 147.217016 -204.675057 
L 146.609227 -205.051941 
L 146.001438 -205.428825 
L 145.393649 -205.80571 
L 144.785861 -206.182594 
L 144.178072 -206.559479 
L 143.570283 -206.936363 
L 142.962494 -207.313247 
L 142.354705 -207.690132 
L 141.746916 -208.067016 
L 141.139127 -208.443901 
L 140.531338 -208.820785 
L 139.923549 -209.19767 
L 139.31576 -209.574554 
L 138.707971 -209.951438 
L 138.100182 -210.328323 
L 137.492393 -210.705207 
L 136.884604 -211.082092 
L 136.276815 -211.458976 
L 135.669026 -211.835861 
L 135.061237 -212.212745 
L 134.453448 -212.589629 
L 133.84566 -212.966514 
L 133.237871 -213.343398 
L 132.630082 -213.720283 
L 132.022293 -214.097167 
L 131.414504 -214.474052 
L 130.806715 -214.850936 
L 130.198926 -215.22782 
L 129.591137 -215.604705 
L 128.983348 -215.981589 
L 128.375559 -216.358474 
L 127.76777 -216.735358 
L 127.159981 -217.112242 
L 126.552192 -217.489127 
L 125.944403 -217.866011 
L 125.336614 -218.242896 
L 124.728825 -218.61978 
L 124.121036 -218.996665 
L 123.513247 -219.373549 
L 122.905459 -219.750433 
L 122.29767 -220.127318 
L 121.689881 -220.504202 
L 121.082092 -220.881087 
L 120.474303 -221.257971 
L 119.866514 -221.634856 
L 119.258725 -222.01174 
L 118.650936 -222.388624 
L 118.043147 -222.765509 
L 117.435358 -223.142393 
L 116.827569 -223.519278 
L 116.21978 -223.896162 
L 115.611991 -224.273046 
L 115.004202 -224.649931 
L 114.396413 -225.026815 
L 113.788624 -225.4037 
L 113.180835 -225.780584 
L 112.573046 -226.157469 
L 111.965258 -226.534353 
L 111.357469 -226.911237 
L 110.74968 -227.288122 
L 110.141891 -227.665006 
L 109.534102 -228.041891 
L 108.926313 -228.418775 
L 108.318524 -228.79566 
L 107.710735 -229.172544 
L 107.102946 -229.549428 
L 106.495157 -229.926313 
L 105.887368 -230.303197 
L 105.279579 -230.680082 
L 104.67179 -231.056966 
L 104.064001 -231.433851 
L 103.456212 -231.810735 
L 102.848423 -232.187619 
L 102.240634 -232.564504 
L 101.632845 -232.941388 
L 101.025057 -233.318273 
L 100.417268 -233.695157 
L 99.809479 -234.072041 
L 99.20169 -234.448926 
L 98.593901 -234.82581 
L 97.986112 -235.202695 
L 97.378323 -235.579579 
L 96.770534 -235.956464 
L 96.162745 -236.333348 
L 95.554956 -236.710232 
L 94.947167 -237.087117 
L 94.339378 -237.464001 
L 93.731589 -237.840886 
L 93.1238 -238.21777 
L 92.516011 -238.594655 
L 91.908222 -238.971539 
L 91.300433 -239.348423 
L 90.692644 -239.725308 
L 90.084856 -240.102192 
L 89.477067 -240.479077 
L 88.869278 -240.855961 
L 88.261489 -241.232845 
L 87.6537 -241.60973 
L 87.045911 -241.986614 
L 86.438122 -242.363499 
L 85.830333 -242.740383 
L 85.222544 -243.117268 
L 84.614755 -243.494152 
L 84.006966 -243.871036 
L 83.399177 -244.247921 
L 82.791388 -244.624805 
L 82.183599 -245.00169 
L 81.57581 -245.378574 
L 80.968021 -245.755459 
L 80.360232 -246.132343 
L 79.752443 -246.509227 
L 79.144655 -246.886112 
L 78.536866 -247.262996 
L 77.929077 -247.639881 
L 77.321288 -248.016765 
L 76.713499 -248.393649 
L 76.10571 -248.770534 
L 75.497921 -249.147418 
L 74.890132 -249.524303 
L 74.282343 -249.901187 
L 73.674554 -250.278072 
L 73.066765 -250.654956 
L 72.458976 -251.03184 
L 71.851187 -251.408725 
L 71.243398 -251.785609 
L 70.635609 -252.162494 
L 70.02782 -252.539378 
L 69.420031 -252.916263 
L 68.812242 -253.293147 
L 68.204454 -253.670031 
L 67.596665 -254.046916 
L 66.988876 -254.4238 
L 66.381087 -254.800685 
L 65.773298 -255.177569 
L 65.165509 -255.554454 
L 64.55772 -255.931338 
L 63.949931 -256.308222 
L 63.342142 -256.685107 
L 62.734353 -257.061991 
L 62.126564 -257.438876 
L 61.518775 -257.81576 
L 60.910986 -258.192644 
L 60.303197 -258.569529 
L 59.695408 -258.946413 
L 59.087619 -259.323298 
L 58.47983 -259.700182 
L 57.872041 -260.077067 
L 57.264253 -260.453951 
L 56.656464 -260.830835 
L 56.048675 -261.20772 
L 55.440886 -261.584604 
L 54.833097 -261.961489 
L 54.225308 -262.338373 
L 53.617519 -262.715258 
L 53.00973 -263.092142 
L 52.401941 -263.469026 
L 51.794152 -263.845911 
L 51.186363 -264.222795 
L 50.578574 -264.59968 
L 49.970785 -264.976564 
L 49.362996 -265.353448 
L 48.755207 -265.730333 
L 48.147418 -266.107217 
L 47.539629 -266.484102 
L 46.93184 -266.860986 
L 46.324052 -267.237871 
L 45.716263 -267.614755 
L 45.108474 -267.991639 
L 44.500685 -268.368524 
L 43.892896 -268.745408 
L 43.285107 -269.122293 
L 42.677318 -269.499177 
L 42.069529 -269.876062 
L 41.46174 -270.252946 
L 40.853951 -270.62983 
L 40.246162 -271.006715 
L 39.638373 -271.383599 
L 39.030584 -271.760484 
L 38.422795 -272.137368 
L 37.815006 -272.514253 
L 37.207217 -272.891137 
L 36.599428 -273.268021 
L 35.991639 -273.644906 
L 35.383851 -274.02179 
L 34.776062 -274.398675 
L 34.168273 -274.775559 
L 33.560484 -275.152443 
L 32.952695 -275.529328 
L 32.344906 -275.906212 
L 31.737117 -276.283097 
L 31.129328 -276.659981 
L 30.521539 -277.036866 
L 29.91375 -277.41375 
z
" style="stroke: #2563eb; stroke-opacity: 0.15"/>
    </defs>
    <g clip-path="url(#p5570ceab75)">
     <use xlink:href="#mfb0f087607" x="0" y="347.572031" style="fill: #2563eb; fill-opacity: 0.15; stroke: #2563eb; stroke-opacity: 0.15"/>
    </g>
   </g>
   <g id="FillBetweenPolyCollection_2">
    <defs>
     <path id="m2f4b43da65" d="M 29.91375 -202.41375 
L 29.91375 -52.41375 
L 30.521539 -53.167519 
L 31.129328 -53.921288 
L 31.737117 -54.675057 
L 32.344906 -55.428825 
L 32.952695 -56.182594 
L 33.560484 -56.936363 
L 34.168273 -57.690132 
L 34.776062 -58.443901 
L 35.383851 -59.19767 
L 35.991639 -59.951438 
L 36.599428 -60.705207 
L 37.207217 -61.458976 
L 37.815006 -62.212745 
L 38.422795 -62.966514 
L 39.030584 -63.720283 
L 39.638373 -64.474052 
L 40.246162 -65.22782 
L 40.853951 -65.981589 
L 41.46174 -66.735358 
L 42.069529 -67.489127 
L 42.677318 -68.242896 
L 43.285107 -68.996665 
L 43.892896 -69.750433 
L 44.500685 -70.504202 
L 45.108474 -71.257971 
L 45.716263 -72.01174 
L 46.324052 -72.765509 
L 46.93184 -73.519278 
L 47.539629 -74.273046 
L 48.147418 -75.026815 
L 48.755207 -75.780584 
L 49.362996 -76.534353 
L 49.970785 -77.288122 
L 50.578574 -78.041891 
L 51.186363 -78.79566 
L 51.794152 -79.549428 
L 52.401941 -80.303197 
L 53.00973 -81.056966 
L 53.617519 -81.810735 
L 54.225308 -82.564504 
L 54.833097 -83.318273 
L 55.440886 -84.072041 
L 56.048675 -84.82581 
L 56.656464 -85.579579 
L 57.264253 -86.333348 
L 57.872041 -87.087117 
L 58.47983 -87.840886 
L 59.087619 -88.594655 
L 59.695408 -89.348423 
L 60.303197 -90.102192 
L 60.910986 -90.855961 
L 61.518775 -91.60973 
L 62.126564 -92.363499 
L 62.734353 -93.117268 
L 63.342142 -93.871036 
L 63.949931 -94.624805 
L 64.55772 -95.378574 
L 65.165509 -96.132343 
L 65.773298 -96.886112 
L 66.381087 -97.639881 
L 66.988876 -98.393649 
L 67.596665 -99.147418 
L 68.204454 -99.901187 
L 68.812242 -100.654956 
L 69.420031 -101.408725 
L 70.02782 -102.162494 
L 70.635609 -102.916263 
L 71.243398 -103.670031 
L 71.851187 -104.4238 
L 72.458976 -105.177569 
L 73.066765 -105.931338 
L 73.674554 -106.685107 
L 74.282343 -107.438876 
L 74.890132 -108.192644 
L 75.497921 -108.946413 
L 76.10571 -109.700182 
L 76.713499 -110.453951 
L 77.321288 -111.20772 
L 77.929077 -111.961489 
L 78.536866 -112.715258 
L 79.144655 -113.469026 
L 79.752443 -114.222795 
L 80.360232 -114.976564 
L 80.968021 -115.730333 
L 81.57581 -116.484102 
L 82.183599 -117.237871 
L 82.791388 -117.991639 
L 83.399177 -118.745408 
L 84.006966 -119.499177 
L 84.614755 -120.252946 
L 85.222544 -121.006715 
L 85.830333 -121.760484 
L 86.438122 -122.514253 
L 87.045911 -123.268021 
L 87.6537 -124.02179 
L 88.261489 -124.775559 
L 88.869278 -125.529328 
L 89.477067 -126.283097 
L 90.084856 -127.036866 
L 90.692644 -127.790634 
L 91.300433 -128.544403 
L 91.908222 -129.298172 
L 92.516011 -130.051941 
L 93.1238 -130.80571 
L 93.731589 -131.559479 
L 94.339378 -132.313247 
L 94.947167 -133.067016 
L 95.554956 -133.820785 
L 96.162745 -134.574554 
L 96.770534 -135.328323 
L 97.378323 -136.082092 
L 97.986112 -136.835861 
L 98.593901 -137.589629 
L 99.20169 -138.343398 
L 99.809479 -139.097167 
L 100.417268 -139.850936 
L 101.025057 -140.604705 
L 101.632845 -141.358474 
L 102.240634 -142.112242 
L 102.848423 -142.866011 
L 103.456212 -143.61978 
L 104.064001 -144.373549 
L 104.67179 -145.127318 
L 105.279579 -145.881087 
L 105.887368 -146.634856 
L 106.495157 -147.388624 
L 107.102946 -148.142393 
L 107.710735 -148.896162 
L 108.318524 -149.649931 
L 108.926313 -150.4037 
L 109.534102 -151.157469 
L 110.141891 -151.911237 
L 110.74968 -152.665006 
L 111.357469 -153.418775 
L 111.965258 -154.172544 
L 112.573046 -154.926313 
L 113.180835 -155.680082 
L 113.788624 -156.433851 
L 114.396413 -157.187619 
L 115.004202 -157.941388 
L 115.611991 -158.695157 
L 116.21978 -159.448926 
L 116.827569 -160.202695 
L 117.435358 -160.956464 
L 118.043147 -161.710232 
L 118.650936 -162.464001 
L 119.258725 -163.21777 
L 119.866514 -163.971539 
L 120.474303 -164.725308 
L 121.082092 -165.479077 
L 121.689881 -166.232845 
L 122.29767 -166.986614 
L 122.905459 -167.740383 
L 123.513247 -168.494152 
L 124.121036 -169.247921 
L 124.728825 -170.00169 
L 125.336614 -170.755459 
L 125.944403 -171.509227 
L 126.552192 -172.262996 
L 127.159981 -173.016765 
L 127.76777 -173.770534 
L 128.375559 -174.524303 
L 128.983348 -175.278072 
L 129.591137 -176.03184 
L 130.198926 -176.785609 
L 130.806715 -177.539378 
L 131.414504 -178.293147 
L 132.022293 -179.046916 
L 132.630082 -179.800685 
L 133.237871 -180.554454 
L 133.84566 -181.308222 
L 134.453448 -182.061991 
L 135.061237 -182.81576 
L 135.669026 -183.569529 
L 136.276815 -184.323298 
L 136.884604 -185.077067 
L 137.492393 -185.830835 
L 138.100182 -186.584604 
L 138.707971 -187.338373 
L 139.31576 -188.092142 
L 139.923549 -188.845911 
L 140.531338 -189.59968 
L 141.139127 -190.353448 
L 141.746916 -191.107217 
L 142.354705 -191.860986 
L 142.962494 -192.614755 
L 143.570283 -193.368524 
L 144.178072 -194.122293 
L 144.785861 -194.876062 
L 145.393649 -195.62983 
L 146.001438 -196.383599 
L 146.609227 -197.137368 
L 147.217016 -197.891137 
L 147.824805 -198.644906 
L 148.432594 -199.398675 
L 149.040383 -200.152443 
L 149.648172 -200.906212 
L 150.255961 -201.659981 
L 150.86375 -202.41375 
L 150.86375 -202.41375 
L 150.86375 -202.41375 
L 150.255961 -202.41375 
L 149.648172 -202.41375 
L 149.040383 -202.41375 
L 148.432594 -202.41375 
L 147.824805 -202.41375 
L 147.217016 -202.41375 
L 146.609227 -202.41375 
L 146.001438 -202.41375 
L 145.393649 -202.41375 
L 144.785861 -202.41375 
L 144.178072 -202.41375 
L 143.570283 -202.41375 
L 142.962494 -202.41375 
L 142.354705 -202.41375 
L 141.746916 -202.41375 
L 141.139127 -202.41375 
L 140.531338 -202.41375 
L 139.923549 -202.41375 
L 139.31576 -202.41375 
L 138.707971 -202.41375 
L 138.100182 -202.41375 
L 137.492393 -202.41375 
L 136.884604 -202.41375 
L 136.276815 -202.41375 
L 135.669026 -202.41375 
L 135.061237 -202.41375 
L 134.453448 -202.41375 
L 133.84566 -202.41375 
L 133.237871 -202.41375 
L 132.630082 -202.41375 
L 132.022293 -202.41375 
L 131.414504 -202.41375 
L 130.806715 -202.41375 
L 130.198926 -202.41375 
L 129.591137 -202.41375 
L 128.983348 -202.41375 
L 128.375559 -202.41375 
L 127.76777 -202.41375 
L 127.159981 -202.41375 
L 126.552192 -202.41375 
L 125.944403 -202.41375 
L 125.336614 -202.41375 
L 124.728825 -202.41375 
L 124.121036 -202.41375 
L 123.513247 -202.41375 
L 122.905459 -202.41375 
L 122.29767 -202.41375 
L 121.689881 -202.41375 
L 121.082092 -202.41375 
L 120.474303 -202.41375 
L 119.866514 -202.41375 
L 119.258725 -202.41375 
L 118.650936 -202.41375 
L 118.043147 -202.41375 
L 117.435358 -202.41375 
L 116.827569 -202.41375 
L 116.21978 -202.41375 
L 115.611991 -202.41375 
L 115.004202 -202.41375 
L 114.396413 -202.41375 
L 113.788624 -202.41375 
L 113.180835 -202.41375 
L 112.573046 -202.41375 
L 111.965258 -202.41375 
L 111.357469 -202.41375 
L 110.74968 -202.41375 
L 110.141891 -202.41375 
L 109.534102 -202.41375 
L 108.926313 -202.41375 
L 108.318524 -202.41375 
L 107.710735 -202.41375 
L 107.102946 -202.41375 
L 106.495157 -202.41375 
L 105.887368 -202.41375 
L 105.279579 -202.41375 
L 104.67179 -202.41375 
L 104.064001 -202.41375 
L 103.456212 -202.41375 
L 102.848423 -202.41375 
L 102.240634 -202.41375 
L 101.632845 -202.41375 
L 101.025057 -202.41375 
L 100.417268 -202.41375 
L 99.809479 -202.41375 
L 99.20169 -202.41375 
L 98.593901 -202.41375 
L 97.986112 -202.41375 
L 97.378323 -202.41375 
L 96.770534 -202.41375 
L 96.162745 -202.41375 
L 95.554956 -202.41375 
L 94.947167 -202.41375 
L 94.339378 -202.41375 
L 93.731589 -202.41375 
L 93.1238 -202.41375 
L 92.516011 -202.41375 
L 91.908222 -202.41375 
L 91.300433 -202.41375 
L 90.692644 -202.41375 
L 90.084856 -202.41375 
L 89.477067 -202.41375 
L 88.869278 -202.41375 
L 88.261489 -202.41375 
L 87.6537 -202.41375 
L 87.045911 -202.41375 
L 86.438122 -202.41375 
L 85.830333 -202.41375 
L 85.222544 -202.41375 
L 84.614755 -202.41375 
L 84.006966 -202.41375 
L 83.399177 -202.41375 
L 82.791388 -202.41375 
L 82.183599 -202.41375 
L 81.57581 -202.41375 
L 80.968021 -202.41375 
L 80.360232 -202.41375 
L 79.752443 -202.41375 
L 79.144655 -202.41375 
L 78.536866 -202.41375 
L 77.929077 -202.41375 
L 77.321288 -202.41375 
L 76.713499 -202.41375 
L 76.10571 -202.41375 
L 75.497921 -202.41375 
L 74.890132 -202.41375 
L 74.282343 -202.41375 
L 73.674554 -202.41375 
L 73.066765 -202.41375 
L 72.458976 -202.41375 
L 71.851187 -202.41375 
L 71.243398 -202.41375 
L 70.635609 -202.41375 
L 70.02782 -202.41375 
L 69.420031 -202.41375 
L 68.812242 -202.41375 
L 68.204454 -202.41375 
L 67.596665 -202.41375 
L 66.988876 -202.41375 
L 66.381087 -202.41375 
L 65.773298 -202.41375 
L 65.165509 -202.41375 
L 64.55772 -202.41375 
L 63.949931 -202.41375 
L 63.342142 -202.41375 
L 62.734353 -202.41375 
L 62.126564 -202.41375 
L 61.518775 -202.41375 
L 60.910986 -202.41375 
L 60.303197 -202.41375 
L 59.695408 -202.41375 
L 59.087619 -202.41375 
L 58.47983 -202.41375 
L 57.872041 -202.41375 
L 57.264253 -202.41375 
L 56.656464 -202.41375 
L 56.048675 -202.41375 
L 55.440886 -202.41375 
L 54.833097 -202.41375 
L 54.225308 -202.41375 
L 53.617519 -202.41375 
L 53.00973 -202.41375 
L 52.401941 -202.41375 
L 51.794152 -202.41375 
L 51.186363 -202.41375 
L 50.578574 -202.41375 
L 49.970785 -202.41375 
L 49.362996 -202.41375 
L 48.755207 -202.41375 
L 48.147418 -202.41375 
L 47.539629 -202.41375 
L 46.93184 -202.41375 
L 46.324052 -202.41375 
L 45.716263 -202.41375 
L 45.108474 -202.41375 
L 44.500685 -202.41375 
L 43.892896 -202.41375 
L 43.285107 -202.41375 
L 42.677318 -202.41375 
L 42.069529 -202.41375 
L 41.46174 -202.41375 
L 40.853951 -202.41375 
L 40.246162 -202.41375 
L 39.638373 -202.41375 
L 39.030584 -202.41375 
L 38.422795 -202.41375 
L 37.815006 -202.41375 
L 37.207217 -202.41375 
L 36.599428 -202.41375 
L 35.991639 -202.41375 
L 35.383851 -202.41375 
L 34.776062 -202.41375 
L 34.168273 -202.41375 
L 33.560484 -202.41375 
L 32.952695 -202.41375 
L 32.344906 -202.41375 
L 31.737117 -202.41375 
L 31.129328 -202.41375 
L 30.521539 -202.41375 
L 29.91375 -202.41375 
z
" style="stroke: #dc2626; stroke-opacity: 0.15"/>
    </defs>
    <g clip-path="url(#p5570ceab75)">
     <use xlink:href="#m2f4b43da65" x="0" y="347.572031" style="fill: #dc2626; fill-opacity: 0.15; stroke: #dc2626; stroke-opacity: 0.15"/>
    </g>
   </g>
   <g id="line2d_33">
    <path d="M 29.91375 70.158281 
L 478.902324 348.572031 
L 478.902324 348.572031 
" clip-path="url(#p5570ceab75)" style="fill: none; stroke: #2563eb; stroke-width: 2.5; stroke-linecap: round"/>
   </g>
   <g id="line2d_34">
    <path d="M 29.91375 295.158281 
L 268.716044 -1 
L 268.716044 -1 
" clip-path="url(#p5570ceab75)" style="fill: none; stroke: #dc2626; stroke-width: 2.5; stroke-linecap: round"/>
   </g>
   <g id="patch_3">
    <path d="M 29.91375 317.658281 
L 29.91375 25.158281 
" style="fill: none; stroke: #cccccc; stroke-linejoin: miter; stroke-linecap: square"/>
   </g>
   <g id="patch_4">
    <path d="M 392.76375 317.658281 
L 392.76375 25.158281 
" style="fill: none; stroke: #cccccc; stroke-linejoin: miter; stroke-linecap: square"/>
   </g>
   <g id="patch_5">
    <path d="M 29.91375 317.658281 
L 392.76375 317.658281 
" style="fill: none; stroke: #cccccc; stroke-linejoin: miter; stroke-linecap: square"/>
   </g>
   <g id="patch_6">
    <path d="M 29.91375 25.158281 
L 392.76375 25.158281 
" style="fill: none; stroke: #cccccc; stroke-linejoin: miter; stroke-linecap: square"/>
   </g>
   <g id="text_3">
    <!-- Domestic Only -->
    <g style="fill: #262626" transform="translate(166.517187 19.158281) scale(0.11 -0.11)">
     <defs>
      <path id="DejaVuSerif-Bold-44" d="M 2100 378 
L 2534 378 
Q 3266 378 3605 847 
Q 3944 1316 3944 2338 
Q 3944 3353 3606 3820 
Q 3269 4288 2534 4288 
L 2100 4288 
L 2100 378 
z
M 300 0 
L 300 378 
L 897 378 
L 897 4288 
L 300 4288 
L 300 4666 
L 2694 4666 
Q 3950 4666 4615 4066 
Q 5281 3466 5281 2338 
Q 5281 1203 4614 601 
Q 3947 0 2694 0 
L 300 0 
z
" transform="scale(0.015625)"/>
      <path id="DejaVuSerif-Bold-6f" d="M 2138 263 
Q 2488 263 2630 563 
Q 2772 863 2772 1663 
Q 2772 2463 2631 2761 
Q 2491 3059 2138 3059 
Q 1784 3059 1640 2757 
Q 1497 2456 1497 1663 
Q 1497 869 1640 566 
Q 1784 263 2138 263 
z
M 2138 -91 
Q 1259 -91 761 376 
Q 263 844 263 1663 
Q 263 2484 761 2948 
Q 1259 3413 2138 3413 
Q 3019 3413 3516 2948 
Q 4013 2484 4013 1663 
Q 4013 844 3514 376 
Q 3016 -91 2138 -91 
z
" transform="scale(0.015625)"/>
      <path id="DejaVuSerif-Bold-6d" d="M 3884 2778 
Q 4116 3109 4384 3261 
Q 4653 3413 5013 3413 
Q 5584 3413 5867 3089 
Q 6150 2766 6150 2113 
L 6150 378 
L 6625 378 
L 6625 0 
L 4647 0 
L 4647 378 
L 5044 378 
L 5044 1947 
Q 5044 2569 4948 2731 
Q 4853 2894 4594 2894 
Q 4300 2894 4137 2667 
Q 3975 2441 3975 2022 
L 3975 378 
L 4372 378 
L 4372 0 
L 2472 0 
L 2472 378 
L 2869 378 
L 2869 1947 
Q 2869 2569 2772 2731 
Q 2675 2894 2419 2894 
Q 2122 2894 1959 2667 
Q 1797 2441 1797 2022 
L 1797 378 
L 2194 378 
L 2194 0 
L 219 0 
L 219 378 
L 691 378 
L 691 2944 
L 219 2944 
L 219 3322 
L 1797 3322 
L 1797 2853 
Q 1991 3144 2241 3278 
Q 2491 3413 2834 3413 
Q 3241 3413 3494 3258 
Q 3747 3103 3884 2778 
z
" transform="scale(0.015625)"/>
      <path id="DejaVuSerif-Bold-65" d="M 2566 1875 
Q 2566 2531 2444 2795 
Q 2322 3059 2028 3059 
Q 1744 3059 1620 2800 
Q 1497 2541 1497 1931 
L 1497 1875 
L 2566 1875 
z
M 3781 1503 
L 1497 1503 
L 1497 1478 
Q 1497 834 1690 548 
Q 1884 263 2316 263 
Q 2675 263 2897 453 
Q 3119 644 3181 1006 
L 3700 1006 
Q 3566 441 3166 175 
Q 2766 -91 2047 -91 
Q 1184 -91 723 364 
Q 263 819 263 1663 
Q 263 2488 734 2950 
Q 1206 3413 2047 3413 
Q 2872 3413 3312 2927 
Q 3753 2441 3781 1503 
z
" transform="scale(0.015625)"/>
      <path id="DejaVuSerif-Bold-73" d="M 300 97 
L 300 1025 
L 653 1025 
Q 697 653 931 458 
Q 1166 263 1569 263 
Q 1906 263 2086 380 
Q 2266 497 2266 716 
Q 2266 916 2152 1025 
Q 2038 1134 1709 1216 
L 1253 1331 
Q 738 1459 506 1698 
Q 275 1938 275 2344 
Q 275 2884 650 3148 
Q 1025 3413 1806 3413 
Q 2100 3413 2433 3364 
Q 2766 3316 3169 3213 
L 3169 2375 
L 2816 2375 
Q 2788 2716 2573 2887 
Q 2359 3059 1959 3059 
Q 1622 3059 1448 2951 
Q 1275 2844 1275 2638 
Q 1275 2469 1375 2372 
Q 1475 2275 1734 2209 
L 2188 2094 
Q 2841 1928 3091 1684 
Q 3341 1441 3341 1006 
Q 3341 444 2939 176 
Q 2538 -91 1691 -91 
Q 1381 -91 1034 -44 
Q 688 3 300 97 
z
" transform="scale(0.015625)"/>
      <path id="DejaVuSerif-Bold-74" d="M 634 2944 
L 153 2944 
L 153 3322 
L 634 3322 
L 634 4353 
L 1741 4353 
L 1741 3322 
L 2663 3322 
L 2663 2944 
L 1741 2944 
L 1741 909 
Q 1741 475 1809 369 
Q 1878 263 2059 263 
Q 2259 263 2356 397 
Q 2453 531 2459 813 
L 2925 813 
Q 2897 313 2651 111 
Q 2406 -91 1806 -91 
Q 1122 -91 878 123 
Q 634 338 634 909 
L 634 2944 
z
" transform="scale(0.015625)"/>
      <path id="DejaVuSerif-Bold-69" d="M 588 4263 
Q 588 4516 763 4689 
Q 938 4863 1191 4863 
Q 1438 4863 1611 4689 
Q 1784 4516 1784 4263 
Q 1784 4016 1611 3842 
Q 1438 3669 1191 3669 
Q 938 3669 763 3841 
Q 588 4013 588 4263 
z
M 1797 378 
L 2272 378 
L 2272 0 
L 219 0 
L 219 378 
L 691 378 
L 691 2944 
L 219 2944 
L 219 3322 
L 1797 3322 
L 1797 378 
z
" transform="scale(0.015625)"/>
      <path id="DejaVuSerif-Bold-63" d="M 3609 1038 
Q 3491 469 3123 189 
Q 2756 -91 2125 -91 
Q 1238 -91 750 368 
Q 263 828 263 1663 
Q 263 2488 744 2950 
Q 1225 3413 2081 3413 
Q 2428 3413 2781 3347 
Q 3134 3281 3500 3150 
L 3500 2228 
L 3150 2228 
Q 3100 2650 2903 2854 
Q 2706 3059 2350 3059 
Q 1888 3059 1692 2746 
Q 1497 2434 1497 1663 
Q 1497 909 1687 586 
Q 1878 263 2309 263 
Q 2644 263 2845 463 
Q 3047 663 3091 1038 
L 3609 1038 
z
" transform="scale(0.015625)"/>
      <path id="DejaVuSerif-Bold-20" transform="scale(0.015625)"/>
      <path id="DejaVuSerif-Bold-4f" d="M 2784 288 
Q 3381 288 3672 791 
Q 3963 1294 3963 2328 
Q 3963 3366 3672 3869 
Q 3381 4372 2784 4372 
Q 2191 4372 1898 3864 
Q 1606 3356 1606 2328 
Q 1606 1303 1898 795 
Q 2191 288 2784 288 
z
M 2784 -91 
Q 1606 -91 937 553 
Q 269 1197 269 2328 
Q 269 3459 939 4104 
Q 1609 4750 2784 4750 
Q 3963 4750 4631 4106 
Q 5300 3463 5300 2328 
Q 5300 1197 4629 553 
Q 3959 -91 2784 -91 
z
" transform="scale(0.015625)"/>
      <path id="DejaVuSerif-Bold-6e" d="M 219 0 
L 219 378 
L 691 378 
L 691 2944 
L 219 2944 
L 219 3322 
L 1797 3322 
L 1797 2853 
Q 1997 3150 2253 3281 
Q 2509 3413 2900 3413 
Q 3459 3413 3745 3083 
Q 4031 2753 4031 2113 
L 4031 378 
L 4506 378 
L 4506 0 
L 2522 0 
L 2522 378 
L 2925 378 
L 2925 2144 
Q 2925 2566 2817 2730 
Q 2709 2894 2444 2894 
Q 2109 2894 1953 2648 
Q 1797 2403 1797 1869 
L 1797 378 
L 2203 378 
L 2203 0 
L 219 0 
z
" transform="scale(0.015625)"/>
      <path id="DejaVuSerif-Bold-6c" d="M 1797 378 
L 2272 378 
L 2272 0 
L 219 0 
L 219 378 
L 691 378 
L 691 4488 
L 219 4488 
L 219 4863 
L 1797 4863 
L 1797 378 
z
" transform="scale(0.015625)"/>
      <path id="DejaVuSerif-Bold-79" d="M 1997 -750 
Q 1847 -1116 1634 -1269 
Q 1422 -1422 1063 -1422 
Q 909 -1422 721 -1387 
Q 534 -1353 313 -1288 
L 313 -594 
L 666 -597 
Q 675 -838 779 -953 
Q 884 -1069 1094 -1069 
Q 1297 -1069 1422 -958 
Q 1547 -847 1672 -538 
L 1722 -422 
L 275 2944 
L -84 2944 
L -84 3322 
L 1831 3322 
L 1831 2944 
L 1434 2944 
L 2278 978 
L 3066 2944 
L 2625 2944 
L 2625 3322 
L 3872 3322 
L 3872 2944 
L 3469 2944 
L 1997 -750 
z
" transform="scale(0.015625)"/>
     </defs>
     <use xlink:href="#DejaVuSerif-Bold-44"/>
     <use xlink:href="#DejaVuSerif-Bold-6f" transform="translate(86.71875 0)"/>
     <use xlink:href="#DejaVuSerif-Bold-6d" transform="translate(153.417969 0)"/>
     <use xlink:href="#DejaVuSerif-Bold-65" transform="translate(259.228516 0)"/>
     <use xlink:href="#DejaVuSerif-Bold-73" transform="translate(322.851562 0)"/>
     <use xlink:href="#DejaVuSerif-Bold-74" transform="translate(379.150391 0)"/>
     <use xlink:href="#DejaVuSerif-Bold-69" transform="translate(425.341797 0)"/>
     <use xlink:href="#DejaVuSerif-Bold-63" transform="translate(463.330078 0)"/>
     <use xlink:href="#DejaVuSerif-Bold-20" transform="translate(524.21875 0)"/>
     <use xlink:href="#DejaVuSerif-Bold-4f" transform="translate(559.033203 0)"/>
     <use xlink:href="#DejaVuSerif-Bold-6e" transform="translate(646.142578 0)"/>
     <use xlink:href="#DejaVuSerif-Bold-6c" transform="translate(718.847656 0)"/>
     <use xlink:href="#DejaVuSerif-Bold-79" transform="translate(756.835938 0)"/>
    </g>
   </g>
   <g id="line2d_35">
    <defs>
     <path id="m4af9264cb5" d="M 0 4 
C 1.060812 4 2.078319 3.578535 2.828427 2.828427 
C 3.578535 2.078319 4 1.060812 4 0 
C 4 -1.060812 3.578535 -2.078319 2.828427 -2.828427 
C 2.078319 -3.578535 1.060812 -4 0 -4 
C -1.060812 -4 -2.078319 -3.578535 -2.828427 -2.828427 
C -3.578535 -2.078319 -4 -1.060812 -4 0 
C -4 1.060812 -3.578535 2.078319 -2.828427 2.828427 
C -2.078319 3.578535 -1.060812 4 0 4 
z
" style="stroke: #000000"/>
    </defs>
    <g clip-path="url(#p5570ceab75)">
     <use xlink:href="#m4af9264cb5" x="150.86375" y="145.158281" style="stroke: #000000"/>
    </g>
   </g>
   <g id="legend_1">
    <g id="line2d_36">
     <path d="M 290.225 35.637031 
L 298.225 35.637031 
L 306.225 35.637031 
" style="fill: none; stroke: #2563eb; stroke-width: 2.5; stroke-linecap: round"/>
    </g>
    <g id="text_4">
     <!-- Domestic demand -->
     <g style="fill: #262626" transform="translate(312.625 38.437031) scale(0.08 -0.08)">
      <defs>
       <path id="DejaVuSerif-44" d="M 1581 331 
L 2163 331 
Q 3072 331 3558 850 
Q 4044 1369 4044 2338 
Q 4044 3306 3559 3818 
Q 3075 4331 2163 4331 
L 1581 4331 
L 1581 331 
z
M 353 0 
L 353 331 
L 947 331 
L 947 4331 
L 353 4331 
L 353 4666 
L 2209 4666 
Q 3416 4666 4089 4050 
Q 4763 3434 4763 2338 
Q 4763 1238 4088 619 
Q 3413 0 2209 0 
L 353 0 
z
" transform="scale(0.015625)"/>
       <path id="DejaVuSerif-6f" d="M 1925 219 
Q 2388 219 2623 584 
Q 2859 950 2859 1663 
Q 2859 2375 2623 2739 
Q 2388 3103 1925 3103 
Q 1463 3103 1227 2739 
Q 991 2375 991 1663 
Q 991 950 1228 584 
Q 1466 219 1925 219 
z
M 1925 -91 
Q 1200 -91 759 389 
Q 319 869 319 1663 
Q 319 2456 758 2934 
Q 1197 3413 1925 3413 
Q 2653 3413 3092 2934 
Q 3531 2456 3531 1663 
Q 3531 869 3092 389 
Q 2653 -91 1925 -91 
z
" transform="scale(0.015625)"/>
       <path id="DejaVuSerif-6d" d="M 3316 2675 
Q 3481 3041 3739 3227 
Q 3997 3413 4341 3413 
Q 4863 3413 5119 3089 
Q 5375 2766 5375 2113 
L 5375 331 
L 5894 331 
L 5894 0 
L 4300 0 
L 4300 331 
L 4800 331 
L 4800 2047 
Q 4800 2556 4650 2772 
Q 4500 2988 4153 2988 
Q 3769 2988 3567 2697 
Q 3366 2406 3366 1850 
L 3366 331 
L 3866 331 
L 3866 0 
L 2291 0 
L 2291 331 
L 2791 331 
L 2791 2069 
Q 2791 2566 2641 2777 
Q 2491 2988 2144 2988 
Q 1759 2988 1557 2697 
Q 1356 2406 1356 1850 
L 1356 331 
L 1856 331 
L 1856 0 
L 263 0 
L 263 331 
L 781 331 
L 781 2994 
L 231 2994 
L 231 3322 
L 1356 3322 
L 1356 2731 
Q 1516 3063 1762 3238 
Q 2009 3413 2322 3413 
Q 2709 3413 2968 3220 
Q 3228 3028 3316 2675 
z
" transform="scale(0.015625)"/>
       <path id="DejaVuSerif-73" d="M 359 184 
L 359 959 
L 691 959 
Q 703 588 923 403 
Q 1144 219 1575 219 
Q 1963 219 2166 364 
Q 2369 509 2369 788 
Q 2369 1006 2220 1140 
Q 2072 1275 1594 1428 
L 1178 1569 
Q 750 1706 558 1912 
Q 366 2119 366 2438 
Q 366 2894 700 3153 
Q 1034 3413 1625 3413 
Q 1888 3413 2178 3344 
Q 2469 3275 2778 3144 
L 2778 2419 
L 2447 2419 
Q 2434 2741 2221 2922 
Q 2009 3103 1644 3103 
Q 1281 3103 1095 2975 
Q 909 2847 909 2591 
Q 909 2381 1050 2254 
Q 1191 2128 1613 1997 
L 2069 1856 
Q 2541 1709 2748 1489 
Q 2956 1269 2956 922 
Q 2956 450 2595 179 
Q 2234 -91 1600 -91 
Q 1278 -91 972 -22 
Q 666 47 359 184 
z
" transform="scale(0.015625)"/>
       <path id="DejaVuSerif-20" transform="scale(0.015625)"/>
       <path id="DejaVuSerif-64" d="M 3359 331 
L 3909 331 
L 3909 0 
L 2784 0 
L 2784 519 
Q 2616 206 2355 57 
Q 2094 -91 1709 -91 
Q 1097 -91 708 395 
Q 319 881 319 1663 
Q 319 2444 706 2928 
Q 1094 3413 1709 3413 
Q 2094 3413 2355 3264 
Q 2616 3116 2784 2803 
L 2784 4531 
L 2241 4531 
L 2241 4863 
L 3359 4863 
L 3359 331 
z
M 2784 1497 
L 2784 1825 
Q 2784 2422 2554 2737 
Q 2325 3053 1888 3053 
Q 1444 3053 1217 2703 
Q 991 2353 991 1663 
Q 991 975 1217 622 
Q 1444 269 1888 269 
Q 2325 269 2554 583 
Q 2784 897 2784 1497 
z
" transform="scale(0.015625)"/>
      </defs>
      <use xlink:href="#DejaVuSerif-44"/>
      <use xlink:href="#DejaVuSerif-6f" transform="translate(80.175781 0)"/>
      <use xlink:href="#DejaVuSerif-6d" transform="translate(140.380859 0)"/>
      <use xlink:href="#DejaVuSerif-65" transform="translate(235.205078 0)"/>
      <use xlink:href="#DejaVuSerif-73" transform="translate(294.384766 0)"/>
      <use xlink:href="#DejaVuSerif-74" transform="translate(345.703125 0)"/>
      <use xlink:href="#DejaVuSerif-69" transform="translate(385.888672 0)"/>
      <use xlink:href="#DejaVuSerif-63" transform="translate(417.871094 0)"/>
      <use xlink:href="#DejaVuSerif-20" transform="translate(473.876953 0)"/>
      <use xlink:href="#DejaVuSerif-64" transform="translate(505.664062 0)"/>
      <use xlink:href="#DejaVuSerif-65" transform="translate(569.677734 0)"/>
      <use xlink:href="#DejaVuSerif-6d" transform="translate(628.857422 0)"/>
      <use xlink:href="#DejaVuSerif-61" transform="translate(723.681641 0)"/>
      <use xlink:href="#DejaVuSerif-6e" transform="translate(783.300781 0)"/>
      <use xlink:href="#DejaVuSerif-64" transform="translate(847.705078 0)"/>
     </g>
    </g>
    <g id="line2d_37">
     <path d="M 290.225 47.379531 
L 298.225 47.379531 
L 306.225 47.379531 
" style="fill: none; stroke: #dc2626; stroke-width: 2.5; stroke-linecap: round"/>
    </g>
    <g id="text_5">
     <!-- Supply -->
     <g style="fill: #262626" transform="translate(312.625 50.179531) scale(0.08 -0.08)">
      <defs>
       <path id="DejaVuSerif-53" d="M 594 225 
L 594 1288 
L 953 1284 
Q 969 753 1261 498 
Q 1553 244 2150 244 
Q 2706 244 2998 464 
Q 3291 684 3291 1106 
Q 3291 1444 3114 1625 
Q 2938 1806 2369 1978 
L 1753 2163 
Q 1084 2366 811 2669 
Q 538 2972 538 3500 
Q 538 4094 959 4422 
Q 1381 4750 2144 4750 
Q 2469 4750 2856 4679 
Q 3244 4609 3681 4475 
L 3681 3481 
L 3328 3481 
Q 3275 3975 2998 4195 
Q 2722 4416 2156 4416 
Q 1663 4416 1405 4214 
Q 1147 4013 1147 3628 
Q 1147 3294 1340 3103 
Q 1534 2913 2163 2725 
L 2741 2553 
Q 3375 2363 3645 2067 
Q 3916 1772 3916 1275 
Q 3916 597 3481 253 
Q 3047 -91 2188 -91 
Q 1803 -91 1404 -12 
Q 1006 66 594 225 
z
" transform="scale(0.015625)"/>
       <path id="DejaVuSerif-70" d="M 1313 1825 
L 1313 1497 
Q 1313 897 1542 583 
Q 1772 269 2209 269 
Q 2650 269 2876 622 
Q 3103 975 3103 1663 
Q 3103 2353 2876 2703 
Q 2650 3053 2209 3053 
Q 1772 3053 1542 2737 
Q 1313 2422 1313 1825 
z
M 738 2988 
L 184 2988 
L 184 3322 
L 1313 3322 
L 1313 2803 
Q 1481 3116 1742 3264 
Q 2003 3413 2388 3413 
Q 3000 3413 3387 2928 
Q 3775 2444 3775 1663 
Q 3775 881 3387 395 
Q 3000 -91 2388 -91 
Q 2003 -91 1742 57 
Q 1481 206 1313 519 
L 1313 -997 
L 1856 -997 
L 1856 -1331 
L 184 -1331 
L 184 -997 
L 738 -997 
L 738 2988 
z
" transform="scale(0.015625)"/>
       <path id="DejaVuSerif-6c" d="M 1313 331 
L 1856 331 
L 1856 0 
L 184 0 
L 184 331 
L 738 331 
L 738 4531 
L 184 4531 
L 184 4863 
L 1313 4863 
L 1313 331 
z
" transform="scale(0.015625)"/>
      </defs>
      <use xlink:href="#DejaVuSerif-53"/>
      <use xlink:href="#DejaVuSerif-75" transform="translate(68.505859 0)"/>
      <use xlink:href="#DejaVuSerif-70" transform="translate(132.910156 0)"/>
      <use xlink:href="#DejaVuSerif-70" transform="translate(196.923828 0)"/>
      <use xlink:href="#DejaVuSerif-6c" transform="translate(260.9375 0)"/>
      <use xlink:href="#DejaVuSerif-79" transform="translate(292.919922 0)"/>
     </g>
    </g>
   </g>
  </g>
  <g id="axes_2">
   <g id="patch_7">
    <path d="M 455.97375 317.658281 
L 818.82375 317.658281 
L 818.82375 25.158281 
L 455.97375 25.158281 
z
" style="fill: #ffffff"/>
   </g>
   <g id="matplotlib.axis_3">
    <g id="xtick_10">
     <g id="line2d_38">
      <path d="M 455.97375 317.658281 
L 455.97375 25.158281 
" clip-path="url(#p196247f71e)" style="fill: none; stroke: #cccccc; stroke-width: 0.8; stroke-linecap: round"/>
     </g>
     <g id="line2d_39"/>
    </g>
    <g id="xtick_11">
     <g id="line2d_40">
      <path d="M 501.33 317.658281 
L 501.33 25.158281 
" clip-path="url(#p196247f71e)" style="fill: none; stroke: #cccccc; stroke-width: 0.8; stroke-linecap: round"/>
     </g>
     <g id="line2d_41"/>
    </g>
    <g id="xtick_12">
     <g id="line2d_42">
      <path d="M 546.68625 317.658281 
L 546.68625 25.158281 
" clip-path="url(#p196247f71e)" style="fill: none; stroke: #cccccc; stroke-width: 0.8; stroke-linecap: round"/>
     </g>
     <g id="line2d_43"/>
    </g>
    <g id="xtick_13">
     <g id="line2d_44">
      <path d="M 592.0425 317.658281 
L 592.0425 25.158281 
" clip-path="url(#p196247f71e)" style="fill: none; stroke: #cccccc; stroke-width: 0.8; stroke-linecap: round"/>
     </g>
     <g id="line2d_45"/>
    </g>
    <g id="xtick_14">
     <g id="line2d_46">
      <path d="M 637.39875 317.658281 
L 637.39875 25.158281 
" clip-path="url(#p196247f71e)" style="fill: none; stroke: #cccccc; stroke-width: 0.8; stroke-linecap: round"/>
     </g>
     <g id="line2d_47"/>
    </g>
    <g id="xtick_15">
     <g id="line2d_48">
      <path d="M 682.755 317.658281 
L 682.755 25.158281 
" clip-path="url(#p196247f71e)" style="fill: none; stroke: #cccccc; stroke-width: 0.8; stroke-linecap: round"/>
     </g>
     <g id="line2d_49"/>
    </g>
    <g id="xtick_16">
     <g id="line2d_50">
      <path d="M 728.11125 317.658281 
L 728.11125 25.158281 
" clip-path="url(#p196247f71e)" style="fill: none; stroke: #cccccc; stroke-width: 0.8; stroke-linecap: round"/>
     </g>
     <g id="line2d_51"/>
    </g>
    <g id="xtick_17">
     <g id="line2d_52">
      <path d="M 773.4675 317.658281 
L 773.4675 25.158281 
" clip-path="url(#p196247f71e)" style="fill: none; stroke: #cccccc; stroke-width: 0.8; stroke-linecap: round"/>
     </g>
     <g id="line2d_53"/>
    </g>
    <g id="xtick_18">
     <g id="line2d_54">
      <path d="M 818.82375 317.658281 
L 818.82375 25.158281 
" clip-path="url(#p196247f71e)" style="fill: none; stroke: #cccccc; stroke-width: 0.8; stroke-linecap: round"/>
     </g>
     <g id="line2d_55"/>
    </g>
    <g id="text_6">
     <!-- Quantity -->
     <g style="fill: #262626" transform="translate(611.041875 334.105781) scale(0.12 -0.12)">
      <use xlink:href="#DejaVuSerif-51"/>
      <use xlink:href="#DejaVuSerif-75" transform="translate(81.982422 0)"/>
      <use xlink:href="#DejaVuSerif-61" transform="translate(146.386719 0)"/>
      <use xlink:href="#DejaVuSerif-6e" transform="translate(206.005859 0)"/>
      <use xlink:href="#DejaVuSerif-74" transform="translate(270.410156 0)"/>
      <use xlink:href="#DejaVuSerif-69" transform="translate(310.595703 0)"/>
      <use xlink:href="#DejaVuSerif-74" transform="translate(342.578125 0)"/>
      <use xlink:href="#DejaVuSerif-79" transform="translate(382.763672 0)"/>
     </g>
    </g>
   </g>
   <g id="matplotlib.axis_4">
    <g id="ytick_8">
     <g id="line2d_56">
      <path d="M 455.97375 317.658281 
L 818.82375 317.658281 
" clip-path="url(#p196247f71e)" style="fill: none; stroke: #cccccc; stroke-width: 0.8; stroke-linecap: round"/>
     </g>
     <g id="line2d_57"/>
    </g>
    <g id="ytick_9">
     <g id="line2d_58">
      <path d="M 455.97375 279.916346 
L 818.82375 279.916346 
" clip-path="url(#p196247f71e)" style="fill: none; stroke: #cccccc; stroke-width: 0.8; stroke-linecap: round"/>
     </g>
     <g id="line2d_59"/>
    </g>
    <g id="ytick_10">
     <g id="line2d_60">
      <path d="M 455.97375 242.17441 
L 818.82375 242.17441 
" clip-path="url(#p196247f71e)" style="fill: none; stroke: #cccccc; stroke-width: 0.8; stroke-linecap: round"/>
     </g>
     <g id="line2d_61"/>
    </g>
    <g id="ytick_11">
     <g id="line2d_62">
      <path d="M 455.97375 204.432475 
L 818.82375 204.432475 
" clip-path="url(#p196247f71e)" style="fill: none; stroke: #cccccc; stroke-width: 0.8; stroke-linecap: round"/>
     </g>
     <g id="line2d_63"/>
    </g>
    <g id="ytick_12">
     <g id="line2d_64">
      <path d="M 455.97375 166.690539 
L 818.82375 166.690539 
" clip-path="url(#p196247f71e)" style="fill: none; stroke: #cccccc; stroke-width: 0.8; stroke-linecap: round"/>
     </g>
     <g id="line2d_65"/>
    </g>
    <g id="ytick_13">
     <g id="line2d_66">
      <path d="M 455.97375 128.948604 
L 818.82375 128.948604 
" clip-path="url(#p196247f71e)" style="fill: none; stroke: #cccccc; stroke-width: 0.8; stroke-linecap: round"/>
     </g>
     <g id="line2d_67"/>
    </g>
    <g id="ytick_14">
     <g id="line2d_68">
      <path d="M 455.97375 91.206668 
L 818.82375 91.206668 
" clip-path="url(#p196247f71e)" style="fill: none; stroke: #cccccc; stroke-width: 0.8; stroke-linecap: round"/>
     </g>
     <g id="line2d_69"/>
    </g>
    <g id="ytick_15">
     <g id="line2d_70">
      <path d="M 455.97375 53.464733 
L 818.82375 53.464733 
" clip-path="url(#p196247f71e)" style="fill: none; stroke: #cccccc; stroke-width: 0.8; stroke-linecap: round"/>
     </g>
     <g id="line2d_71"/>
    </g>
    <g id="text_7">
     <!-- Price -->
     <g style="fill: #262626" transform="translate(445.978125 187.143281) rotate(-90) scale(0.12 -0.12)">
      <use xlink:href="#DejaVuSerif-50"/>
      <use xlink:href="#DejaVuSerif-72" transform="translate(67.285156 0)"/>
      <use xlink:href="#DejaVuSerif-69" transform="translate(115.087891 0)"/>
      <use xlink:href="#DejaVuSerif-63" transform="translate(147.070312 0)"/>
      <use xlink:href="#DejaVuSerif-65" transform="translate(203.076172 0)"/>
     </g>
    </g>
   </g>
   <g id="FillBetweenPolyCollection_3">
    <defs>
     <path id="m776c20cddf" d="M 455.97375 -294.107298 
L 455.97375 -212.333105 
L 456.763876 -212.333105 
L 457.554001 -212.333105 
L 458.344127 -212.333105 
L 459.134253 -212.333105 
L 459.924378 -212.333105 
L 460.714504 -212.333105 
L 461.504629 -212.333105 
L 462.294755 -212.333105 
L 463.084881 -212.333105 
L 463.875006 -212.333105 
L 464.665132 -212.333105 
L 465.455258 -212.333105 
L 466.245383 -212.333105 
L 467.035509 -212.333105 
L 467.825634 -212.333105 
L 468.61576 -212.333105 
L 469.405886 -212.333105 
L 470.196011 -212.333105 
L 470.986137 -212.333105 
L 471.776263 -212.333105 
L 472.566388 -212.333105 
L 473.356514 -212.333105 
L 474.146639 -212.333105 
L 474.936765 -212.333105 
L 475.726891 -212.333105 
L 476.517016 -212.333105 
L 477.307142 -212.333105 
L 478.097268 -212.333105 
L 478.887393 -212.333105 
L 479.677519 -212.333105 
L 480.467644 -212.333105 
L 481.25777 -212.333105 
L 482.047896 -212.333105 
L 482.838021 -212.333105 
L 483.628147 -212.333105 
L 484.418273 -212.333105 
L 485.208398 -212.333105 
L 485.998524 -212.333105 
L 486.788649 -212.333105 
L 487.578775 -212.333105 
L 488.368901 -212.333105 
L 489.159026 -212.333105 
L 489.949152 -212.333105 
L 490.739278 -212.333105 
L 491.529403 -212.333105 
L 492.319529 -212.333105 
L 493.109655 -212.333105 
L 493.89978 -212.333105 
L 494.689906 -212.333105 
L 495.480031 -212.333105 
L 496.270157 -212.333105 
L 497.060283 -212.333105 
L 497.850408 -212.333105 
L 498.640534 -212.333105 
L 499.43066 -212.333105 
L 500.220785 -212.333105 
L 501.010911 -212.333105 
L 501.801036 -212.333105 
L 502.591162 -212.333105 
L 503.381288 -212.333105 
L 504.171413 -212.333105 
L 504.961539 -212.333105 
L 505.751665 -212.333105 
L 506.54179 -212.333105 
L 507.331916 -212.333105 
L 508.122041 -212.333105 
L 508.912167 -212.333105 
L 509.702293 -212.333105 
L 510.492418 -212.333105 
L 511.282544 -212.333105 
L 512.07267 -212.333105 
L 512.862795 -212.333105 
L 513.652921 -212.333105 
L 514.443046 -212.333105 
L 515.233172 -212.333105 
L 516.023298 -212.333105 
L 516.813423 -212.333105 
L 517.603549 -212.333105 
L 518.393675 -212.333105 
L 519.1838 -212.333105 
L 519.973926 -212.333105 
L 520.764052 -212.333105 
L 521.554177 -212.333105 
L 522.344303 -212.333105 
L 523.134428 -212.333105 
L 523.924554 -212.333105 
L 524.71468 -212.333105 
L 525.504805 -212.333105 
L 526.294931 -212.333105 
L 527.085057 -212.333105 
L 527.875182 -212.333105 
L 528.665308 -212.333105 
L 529.455433 -212.333105 
L 530.245559 -212.333105 
L 531.035685 -212.333105 
L 531.82581 -212.333105 
L 532.615936 -212.333105 
L 533.406062 -212.333105 
L 534.196187 -212.333105 
L 534.986313 -212.333105 
L 535.776438 -212.333105 
L 536.566564 -212.333105 
L 537.35669 -212.333105 
L 538.146815 -212.333105 
L 538.936941 -212.333105 
L 539.727067 -212.333105 
L 540.517192 -212.333105 
L 541.307318 -212.333105 
L 542.097443 -212.333105 
L 542.887569 -212.333105 
L 543.677695 -212.333105 
L 544.46782 -212.333105 
L 545.257946 -212.333105 
L 546.048072 -212.333105 
L 546.838197 -212.333105 
L 547.628323 -212.333105 
L 548.418448 -212.333105 
L 549.208574 -212.333105 
L 549.9987 -212.333105 
L 550.788825 -212.333105 
L 551.578951 -212.333105 
L 552.369077 -212.333105 
L 553.159202 -212.333105 
L 553.949328 -212.333105 
L 554.739454 -212.333105 
L 555.529579 -212.333105 
L 556.319705 -212.333105 
L 557.10983 -212.333105 
L 557.899956 -212.333105 
L 558.690082 -212.333105 
L 559.480207 -212.333105 
L 560.270333 -212.333105 
L 561.060459 -212.333105 
L 561.850584 -212.333105 
L 562.64071 -212.333105 
L 563.430835 -212.333105 
L 564.220961 -212.333105 
L 565.011087 -212.333105 
L 565.801212 -212.333105 
L 566.591338 -212.333105 
L 567.381464 -212.333105 
L 568.171589 -212.333105 
L 568.961715 -212.333105 
L 569.75184 -212.333105 
L 570.541966 -212.333105 
L 571.332092 -212.333105 
L 572.122217 -212.333105 
L 572.912343 -212.333105 
L 573.702469 -212.333105 
L 574.492594 -212.333105 
L 575.28272 -212.333105 
L 576.072845 -212.333105 
L 576.862971 -212.333105 
L 577.653097 -212.333105 
L 578.443222 -212.333105 
L 579.233348 -212.333105 
L 580.023474 -212.333105 
L 580.813599 -212.333105 
L 581.603725 -212.333105 
L 582.393851 -212.333105 
L 583.183976 -212.333105 
L 583.974102 -212.333105 
L 584.764227 -212.333105 
L 585.554353 -212.333105 
L 586.344479 -212.333105 
L 587.134604 -212.333105 
L 587.92473 -212.333105 
L 588.714856 -212.333105 
L 589.504981 -212.333105 
L 590.295107 -212.333105 
L 591.085232 -212.333105 
L 591.875358 -212.333105 
L 592.665484 -212.333105 
L 593.455609 -212.333105 
L 594.245735 -212.333105 
L 595.035861 -212.333105 
L 595.825986 -212.333105 
L 596.616112 -212.333105 
L 597.406237 -212.333105 
L 598.196363 -212.333105 
L 598.986489 -212.333105 
L 599.776614 -212.333105 
L 600.56674 -212.333105 
L 601.356866 -212.333105 
L 602.146991 -212.333105 
L 602.937117 -212.333105 
L 603.727242 -212.333105 
L 604.517368 -212.333105 
L 605.307494 -212.333105 
L 606.097619 -212.333105 
L 606.887745 -212.333105 
L 607.677871 -212.333105 
L 608.467996 -212.333105 
L 609.258122 -212.333105 
L 610.048247 -212.333105 
L 610.838373 -212.333105 
L 611.628499 -212.333105 
L 612.418624 -212.333105 
L 613.20875 -212.333105 
L 613.20875 -212.333105 
L 613.20875 -212.333105 
L 612.418624 -212.74403 
L 611.628499 -213.154956 
L 610.838373 -213.565882 
L 610.048247 -213.976807 
L 609.258122 -214.387733 
L 608.467996 -214.798658 
L 607.677871 -215.209584 
L 606.887745 -215.62051 
L 606.097619 -216.031435 
L 605.307494 -216.442361 
L 604.517368 -216.853286 
L 603.727242 -217.264212 
L 602.937117 -217.675138 
L 602.146991 -218.086063 
L 601.356866 -218.496989 
L 600.56674 -218.907914 
L 599.776614 -219.31884 
L 598.986489 -219.729766 
L 598.196363 -220.140691 
L 597.406237 -220.551617 
L 596.616112 -220.962542 
L 595.825986 -221.373468 
L 595.035861 -221.784394 
L 594.245735 -222.195319 
L 593.455609 -222.606245 
L 592.665484 -223.01717 
L 591.875358 -223.428096 
L 591.085232 -223.839022 
L 590.295107 -224.249947 
L 589.504981 -224.660873 
L 588.714856 -225.071798 
L 587.92473 -225.482724 
L 587.134604 -225.893649 
L 586.344479 -226.304575 
L 585.554353 -226.715501 
L 584.764227 -227.126426 
L 583.974102 -227.537352 
L 583.183976 -227.948277 
L 582.393851 -228.359203 
L 581.603725 -228.770129 
L 580.813599 -229.181054 
L 580.023474 -229.59198 
L 579.233348 -230.002905 
L 578.443222 -230.413831 
L 577.653097 -230.824757 
L 576.862971 -231.235682 
L 576.072845 -231.646608 
L 575.28272 -232.057533 
L 574.492594 -232.468459 
L 573.702469 -232.879385 
L 572.912343 -233.29031 
L 572.122217 -233.701236 
L 571.332092 -234.112161 
L 570.541966 -234.523087 
L 569.75184 -234.934013 
L 568.961715 -235.344938 
L 568.171589 -235.755864 
L 567.381464 -236.166789 
L 566.591338 -236.577715 
L 565.801212 -236.988641 
L 565.011087 -237.399566 
L 564.220961 -237.810492 
L 563.430835 -238.221417 
L 562.64071 -238.632343 
L 561.850584 -239.043269 
L 561.060459 -239.454194 
L 560.270333 -239.86512 
L 559.480207 -240.276045 
L 558.690082 -240.686971 
L 557.899956 -241.097897 
L 557.10983 -241.508822 
L 556.319705 -241.919748 
L 555.529579 -242.330673 
L 554.739454 -242.741599 
L 553.949328 -243.152525 
L 553.159202 -243.56345 
L 552.369077 -243.974376 
L 551.578951 -244.385301 
L 550.788825 -244.796227 
L 549.9987 -245.207152 
L 549.208574 -245.618078 
L 548.418448 -246.029004 
L 547.628323 -246.439929 
L 546.838197 -246.850855 
L 546.048072 -247.26178 
L 545.257946 -247.672706 
L 544.46782 -248.083632 
L 543.677695 -248.494557 
L 542.887569 -248.905483 
L 542.097443 -249.316408 
L 541.307318 -249.727334 
L 540.517192 -250.13826 
L 539.727067 -250.549185 
L 538.936941 -250.960111 
L 538.146815 -251.371036 
L 537.35669 -251.781962 
L 536.566564 -252.192888 
L 535.776438 -252.603813 
L 534.986313 -253.014739 
L 534.196187 -253.425664 
L 533.406062 -253.83659 
L 532.615936 -254.247516 
L 531.82581 -254.658441 
L 531.035685 -255.069367 
L 530.245559 -255.480292 
L 529.455433 -255.891218 
L 528.665308 -256.302144 
L 527.875182 -256.713069 
L 527.085057 -257.123995 
L 526.294931 -257.53492 
L 525.504805 -257.945846 
L 524.71468 -258.356772 
L 523.924554 -258.767697 
L 523.134428 -259.178623 
L 522.344303 -259.589548 
L 521.554177 -260.000474 
L 520.764052 -260.4114 
L 519.973926 -260.822325 
L 519.1838 -261.233251 
L 518.393675 -261.644176 
L 517.603549 -262.055102 
L 516.813423 -262.466028 
L 516.023298 -262.876953 
L 515.233172 -263.287879 
L 514.443046 -263.698804 
L 513.652921 -264.10973 
L 512.862795 -264.520655 
L 512.07267 -264.931581 
L 511.282544 -265.342507 
L 510.492418 -265.753432 
L 509.702293 -266.164358 
L 508.912167 -266.575283 
L 508.122041 -266.986209 
L 507.331916 -267.397135 
L 506.54179 -267.80806 
L 505.751665 -268.218986 
L 504.961539 -268.629911 
L 504.171413 -269.040837 
L 503.381288 -269.451763 
L 502.591162 -269.862688 
L 501.801036 -270.273614 
L 501.010911 -270.684539 
L 500.220785 -271.095465 
L 499.43066 -271.506391 
L 498.640534 -271.917316 
L 497.850408 -272.328242 
L 497.060283 -272.739167 
L 496.270157 -273.150093 
L 495.480031 -273.561019 
L 494.689906 -273.971944 
L 493.89978 -274.38287 
L 493.109655 -274.793795 
L 492.319529 -275.204721 
L 491.529403 -275.615647 
L 490.739278 -276.026572 
L 489.949152 -276.437498 
L 489.159026 -276.848423 
L 488.368901 -277.259349 
L 487.578775 -277.670275 
L 486.788649 -278.0812 
L 485.998524 -278.492126 
L 485.208398 -278.903051 
L 484.418273 -279.313977 
L 483.628147 -279.724903 
L 482.838021 -280.135828 
L 482.047896 -280.546754 
L 481.25777 -280.957679 
L 480.467644 -281.368605 
L 479.677519 -281.779531 
L 478.887393 -282.190456 
L 478.097268 -282.601382 
L 477.307142 -283.012307 
L 476.517016 -283.423233 
L 475.726891 -283.834158 
L 474.936765 -284.245084 
L 474.146639 -284.65601 
L 473.356514 -285.066935 
L 472.566388 -285.477861 
L 471.776263 -285.888786 
L 470.986137 -286.299712 
L 470.196011 -286.710638 
L 469.405886 -287.121563 
L 468.61576 -287.532489 
L 467.825634 -287.943414 
L 467.035509 -288.35434 
L 466.245383 -288.765266 
L 465.455258 -289.176191 
L 464.665132 -289.587117 
L 463.875006 -289.998042 
L 463.084881 -290.408968 
L 462.294755 -290.819894 
L 461.504629 -291.230819 
L 460.714504 -291.641745 
L 459.924378 -292.05267 
L 459.134253 -292.463596 
L 458.344127 -292.874522 
L 457.554001 -293.285447 
L 456.763876 -293.696373 
L 455.97375 -294.107298 
z
" style="stroke: #2563eb; stroke-opacity: 0.15"/>
    </defs>
    <g clip-path="url(#p196247f71e)">
     <use xlink:href="#m776c20cddf" x="0" y="347.572031" style="fill: #2563eb; fill-opacity: 0.15; stroke: #2563eb; stroke-opacity: 0.15"/>
    </g>
   </g>
   <g id="FillBetweenPolyCollection_4">
    <defs>
     <path id="m81a68dcff5" d="M 455.97375 -212.333105 
L 455.97375 -48.784718 
L 456.763876 -49.606569 
L 457.554001 -50.42842 
L 458.344127 -51.250271 
L 459.134253 -52.072123 
L 459.924378 -52.893974 
L 460.714504 -53.715825 
L 461.504629 -54.537676 
L 462.294755 -55.359527 
L 463.084881 -56.181378 
L 463.875006 -57.00323 
L 464.665132 -57.825081 
L 465.455258 -58.646932 
L 466.245383 -59.468783 
L 467.035509 -60.290634 
L 467.825634 -61.112486 
L 468.61576 -61.934337 
L 469.405886 -62.756188 
L 470.196011 -63.578039 
L 470.986137 -64.39989 
L 471.776263 -65.221742 
L 472.566388 -66.043593 
L 473.356514 -66.865444 
L 474.146639 -67.687295 
L 474.936765 -68.509146 
L 475.726891 -69.330998 
L 476.517016 -70.152849 
L 477.307142 -70.9747 
L 478.097268 -71.796551 
L 478.887393 -72.618402 
L 479.677519 -73.440253 
L 480.467644 -74.262105 
L 481.25777 -75.083956 
L 482.047896 -75.905807 
L 482.838021 -76.727658 
L 483.628147 -77.549509 
L 484.418273 -78.371361 
L 485.208398 -79.193212 
L 485.998524 -80.015063 
L 486.788649 -80.836914 
L 487.578775 -81.658765 
L 488.368901 -82.480617 
L 489.159026 -83.302468 
L 489.949152 -84.124319 
L 490.739278 -84.94617 
L 491.529403 -85.768021 
L 492.319529 -86.589873 
L 493.109655 -87.411724 
L 493.89978 -88.233575 
L 494.689906 -89.055426 
L 495.480031 -89.877277 
L 496.270157 -90.699129 
L 497.060283 -91.52098 
L 497.850408 -92.342831 
L 498.640534 -93.164682 
L 499.43066 -93.986533 
L 500.220785 -94.808384 
L 501.010911 -95.630236 
L 501.801036 -96.452087 
L 502.591162 -97.273938 
L 503.381288 -98.095789 
L 504.171413 -98.91764 
L 504.961539 -99.739492 
L 505.751665 -100.561343 
L 506.54179 -101.383194 
L 507.331916 -102.205045 
L 508.122041 -103.026896 
L 508.912167 -103.848748 
L 509.702293 -104.670599 
L 510.492418 -105.49245 
L 511.282544 -106.314301 
L 512.07267 -107.136152 
L 512.862795 -107.958004 
L 513.652921 -108.779855 
L 514.443046 -109.601706 
L 515.233172 -110.423557 
L 516.023298 -111.245408 
L 516.813423 -112.067259 
L 517.603549 -112.889111 
L 518.393675 -113.710962 
L 519.1838 -114.532813 
L 519.973926 -115.354664 
L 520.764052 -116.176515 
L 521.554177 -116.998367 
L 522.344303 -117.820218 
L 523.134428 -118.642069 
L 523.924554 -119.46392 
L 524.71468 -120.285771 
L 525.504805 -121.107623 
L 526.294931 -121.929474 
L 527.085057 -122.751325 
L 527.875182 -123.573176 
L 528.665308 -124.395027 
L 529.455433 -125.216879 
L 530.245559 -126.03873 
L 531.035685 -126.860581 
L 531.82581 -127.682432 
L 532.615936 -128.504283 
L 533.406062 -129.326135 
L 534.196187 -130.147986 
L 534.986313 -130.969837 
L 535.776438 -131.791688 
L 536.566564 -132.613539 
L 537.35669 -133.43539 
L 538.146815 -134.257242 
L 538.936941 -135.079093 
L 539.727067 -135.900944 
L 540.517192 -136.722795 
L 541.307318 -137.544646 
L 542.097443 -138.366498 
L 542.887569 -139.188349 
L 543.677695 -140.0102 
L 544.46782 -140.832051 
L 545.257946 -141.653902 
L 546.048072 -142.475754 
L 546.838197 -143.297605 
L 547.628323 -144.119456 
L 548.418448 -144.941307 
L 549.208574 -145.763158 
L 549.9987 -146.58501 
L 550.788825 -147.406861 
L 551.578951 -148.228712 
L 552.369077 -149.050563 
L 553.159202 -149.872414 
L 553.949328 -150.694265 
L 554.739454 -151.516117 
L 555.529579 -152.337968 
L 556.319705 -153.159819 
L 557.10983 -153.98167 
L 557.899956 -154.803521 
L 558.690082 -155.625373 
L 559.480207 -156.447224 
L 560.270333 -157.269075 
L 561.060459 -158.090926 
L 561.850584 -158.912777 
L 562.64071 -159.734629 
L 563.430835 -160.55648 
L 564.220961 -161.378331 
L 565.011087 -162.200182 
L 565.801212 -163.022033 
L 566.591338 -163.843885 
L 567.381464 -164.665736 
L 568.171589 -165.487587 
L 568.961715 -166.309438 
L 569.75184 -167.131289 
L 570.541966 -167.953141 
L 571.332092 -168.774992 
L 572.122217 -169.596843 
L 572.912343 -170.418694 
L 573.702469 -171.240545 
L 574.492594 -172.062396 
L 575.28272 -172.884248 
L 576.072845 -173.706099 
L 576.862971 -174.52795 
L 577.653097 -175.349801 
L 578.443222 -176.171652 
L 579.233348 -176.993504 
L 580.023474 -177.815355 
L 580.813599 -178.637206 
L 581.603725 -179.459057 
L 582.393851 -180.280908 
L 583.183976 -181.10276 
L 583.974102 -181.924611 
L 584.764227 -182.746462 
L 585.554353 -183.568313 
L 586.344479 -184.390164 
L 587.134604 -185.212016 
L 587.92473 -186.033867 
L 588.714856 -186.855718 
L 589.504981 -187.677569 
L 590.295107 -188.49942 
L 591.085232 -189.321271 
L 591.875358 -190.143123 
L 592.665484 -190.964974 
L 593.455609 -191.786825 
L 594.245735 -192.608676 
L 595.035861 -193.430527 
L 595.825986 -194.252379 
L 596.616112 -195.07423 
L 597.406237 -195.896081 
L 598.196363 -196.717932 
L 598.986489 -197.539783 
L 599.776614 -198.361635 
L 600.56674 -199.183486 
L 601.356866 -200.005337 
L 602.146991 -200.827188 
L 602.937117 -201.649039 
L 603.727242 -202.470891 
L 604.517368 -203.292742 
L 605.307494 -204.114593 
L 606.097619 -204.936444 
L 606.887745 -205.758295 
L 607.677871 -206.580146 
L 608.467996 -207.401998 
L 609.258122 -208.223849 
L 610.048247 -209.0457 
L 610.838373 -209.867551 
L 611.628499 -210.689402 
L 612.418624 -211.511254 
L 613.20875 -212.333105 
L 613.20875 -212.333105 
L 613.20875 -212.333105 
L 612.418624 -212.333105 
L 611.628499 -212.333105 
L 610.838373 -212.333105 
L 610.048247 -212.333105 
L 609.258122 -212.333105 
L 608.467996 -212.333105 
L 607.677871 -212.333105 
L 606.887745 -212.333105 
L 606.097619 -212.333105 
L 605.307494 -212.333105 
L 604.517368 -212.333105 
L 603.727242 -212.333105 
L 602.937117 -212.333105 
L 602.146991 -212.333105 
L 601.356866 -212.333105 
L 600.56674 -212.333105 
L 599.776614 -212.333105 
L 598.986489 -212.333105 
L 598.196363 -212.333105 
L 597.406237 -212.333105 
L 596.616112 -212.333105 
L 595.825986 -212.333105 
L 595.035861 -212.333105 
L 594.245735 -212.333105 
L 593.455609 -212.333105 
L 592.665484 -212.333105 
L 591.875358 -212.333105 
L 591.085232 -212.333105 
L 590.295107 -212.333105 
L 589.504981 -212.333105 
L 588.714856 -212.333105 
L 587.92473 -212.333105 
L 587.134604 -212.333105 
L 586.344479 -212.333105 
L 585.554353 -212.333105 
L 584.764227 -212.333105 
L 583.974102 -212.333105 
L 583.183976 -212.333105 
L 582.393851 -212.333105 
L 581.603725 -212.333105 
L 580.813599 -212.333105 
L 580.023474 -212.333105 
L 579.233348 -212.333105 
L 578.443222 -212.333105 
L 577.653097 -212.333105 
L 576.862971 -212.333105 
L 576.072845 -212.333105 
L 575.28272 -212.333105 
L 574.492594 -212.333105 
L 573.702469 -212.333105 
L 572.912343 -212.333105 
L 572.122217 -212.333105 
L 571.332092 -212.333105 
L 570.541966 -212.333105 
L 569.75184 -212.333105 
L 568.961715 -212.333105 
L 568.171589 -212.333105 
L 567.381464 -212.333105 
L 566.591338 -212.333105 
L 565.801212 -212.333105 
L 565.011087 -212.333105 
L 564.220961 -212.333105 
L 563.430835 -212.333105 
L 562.64071 -212.333105 
L 561.850584 -212.333105 
L 561.060459 -212.333105 
L 560.270333 -212.333105 
L 559.480207 -212.333105 
L 558.690082 -212.333105 
L 557.899956 -212.333105 
L 557.10983 -212.333105 
L 556.319705 -212.333105 
L 555.529579 -212.333105 
L 554.739454 -212.333105 
L 553.949328 -212.333105 
L 553.159202 -212.333105 
L 552.369077 -212.333105 
L 551.578951 -212.333105 
L 550.788825 -212.333105 
L 549.9987 -212.333105 
L 549.208574 -212.333105 
L 548.418448 -212.333105 
L 547.628323 -212.333105 
L 546.838197 -212.333105 
L 546.048072 -212.333105 
L 545.257946 -212.333105 
L 544.46782 -212.333105 
L 543.677695 -212.333105 
L 542.887569 -212.333105 
L 542.097443 -212.333105 
L 541.307318 -212.333105 
L 540.517192 -212.333105 
L 539.727067 -212.333105 
L 538.936941 -212.333105 
L 538.146815 -212.333105 
L 537.35669 -212.333105 
L 536.566564 -212.333105 
L 535.776438 -212.333105 
L 534.986313 -212.333105 
L 534.196187 -212.333105 
L 533.406062 -212.333105 
L 532.615936 -212.333105 
L 531.82581 -212.333105 
L 531.035685 -212.333105 
L 530.245559 -212.333105 
L 529.455433 -212.333105 
L 528.665308 -212.333105 
L 527.875182 -212.333105 
L 527.085057 -212.333105 
L 526.294931 -212.333105 
L 525.504805 -212.333105 
L 524.71468 -212.333105 
L 523.924554 -212.333105 
L 523.134428 -212.333105 
L 522.344303 -212.333105 
L 521.554177 -212.333105 
L 520.764052 -212.333105 
L 519.973926 -212.333105 
L 519.1838 -212.333105 
L 518.393675 -212.333105 
L 517.603549 -212.333105 
L 516.813423 -212.333105 
L 516.023298 -212.333105 
L 515.233172 -212.333105 
L 514.443046 -212.333105 
L 513.652921 -212.333105 
L 512.862795 -212.333105 
L 512.07267 -212.333105 
L 511.282544 -212.333105 
L 510.492418 -212.333105 
L 509.702293 -212.333105 
L 508.912167 -212.333105 
L 508.122041 -212.333105 
L 507.331916 -212.333105 
L 506.54179 -212.333105 
L 505.751665 -212.333105 
L 504.961539 -212.333105 
L 504.171413 -212.333105 
L 503.381288 -212.333105 
L 502.591162 -212.333105 
L 501.801036 -212.333105 
L 501.010911 -212.333105 
L 500.220785 -212.333105 
L 499.43066 -212.333105 
L 498.640534 -212.333105 
L 497.850408 -212.333105 
L 497.060283 -212.333105 
L 496.270157 -212.333105 
L 495.480031 -212.333105 
L 494.689906 -212.333105 
L 493.89978 -212.333105 
L 493.109655 -212.333105 
L 492.319529 -212.333105 
L 491.529403 -212.333105 
L 490.739278 -212.333105 
L 489.949152 -212.333105 
L 489.159026 -212.333105 
L 488.368901 -212.333105 
L 487.578775 -212.333105 
L 486.788649 -212.333105 
L 485.998524 -212.333105 
L 485.208398 -212.333105 
L 484.418273 -212.333105 
L 483.628147 -212.333105 
L 482.838021 -212.333105 
L 482.047896 -212.333105 
L 481.25777 -212.333105 
L 480.467644 -212.333105 
L 479.677519 -212.333105 
L 478.887393 -212.333105 
L 478.097268 -212.333105 
L 477.307142 -212.333105 
L 476.517016 -212.333105 
L 475.726891 -212.333105 
L 474.936765 -212.333105 
L 474.146639 -212.333105 
L 473.356514 -212.333105 
L 472.566388 -212.333105 
L 471.776263 -212.333105 
L 470.986137 -212.333105 
L 470.196011 -212.333105 
L 469.405886 -212.333105 
L 468.61576 -212.333105 
L 467.825634 -212.333105 
L 467.035509 -212.333105 
L 466.245383 -212.333105 
L 465.455258 -212.333105 
L 464.665132 -212.333105 
L 463.875006 -212.333105 
L 463.084881 -212.333105 
L 462.294755 -212.333105 
L 461.504629 -212.333105 
L 460.714504 -212.333105 
L 459.924378 -212.333105 
L 459.134253 -212.333105 
L 458.344127 -212.333105 
L 457.554001 -212.333105 
L 456.763876 -212.333105 
L 455.97375 -212.333105 
z
" style="stroke: #dc2626; stroke-opacity: 0.15"/>
    </defs>
    <g clip-path="url(#p196247f71e)">
     <use xlink:href="#m81a68dcff5" x="0" y="347.572031" style="fill: #dc2626; fill-opacity: 0.15; stroke: #dc2626; stroke-opacity: 0.15"/>
    </g>
   </g>
   <g id="line2d_72">
    <path d="M 455.97375 53.464733 
L 830.62375 248.31131 
L 830.62375 248.31131 
" clip-path="url(#p196247f71e)" style="fill: none; stroke: #2563eb; stroke-width: 2.5; stroke-linecap: round"/>
   </g>
   <g id="line2d_73">
    <path d="M 455.97375 298.787314 
L 744.188505 -1 
L 744.188505 -1 
" clip-path="url(#p196247f71e)" style="fill: none; stroke: #dc2626; stroke-width: 2.5; stroke-linecap: round"/>
   </g>
   <g id="patch_8">
    <path d="M 455.97375 317.658281 
L 455.97375 25.158281 
" style="fill: none; stroke: #cccccc; stroke-linejoin: miter; stroke-linecap: square"/>
   </g>
   <g id="patch_9">
    <path d="M 818.82375 317.658281 
L 818.82375 25.158281 
" style="fill: none; stroke: #cccccc; stroke-linejoin: miter; stroke-linecap: square"/>
   </g>
   <g id="patch_10">
    <path d="M 455.97375 317.658281 
L 818.82375 317.658281 
" style="fill: none; stroke: #cccccc; stroke-linejoin: miter; stroke-linecap: square"/>
   </g>
   <g id="patch_11">
    <path d="M 455.97375 25.158281 
L 818.82375 25.158281 
" style="fill: none; stroke: #cccccc; stroke-linejoin: miter; stroke-linecap: square"/>
   </g>
   <g id="text_8">
    <g id="patch_12">
     <path d="M 631.35125 139.810645 
L 710.492187 139.810645 
Q 713.192187 139.810645 713.192187 137.110645 
L 713.192187 107.988333 
Q 713.192187 105.288333 710.492187 105.288333 
L 631.35125 105.288333 
Q 628.65125 105.288333 628.65125 107.988333 
L 628.65125 137.110645 
Q 628.65125 139.810645 631.35125 139.810645 
z
" style="fill: #fef3c7; stroke: #f59e0b; stroke-linejoin: miter"/>
    </g>
    <!-- How does adding -->
    <g style="fill: #262626" transform="translate(631.35125 114.954895) scale(0.09 -0.09)">
     <defs>
      <path id="DejaVuSerif-Italic-48" d="M -97 0 
L -34 331 
L 559 331 
L 1338 4331 
L 744 4331 
L 809 4666 
L 2631 4666 
L 2566 4331 
L 1972 4331 
L 1659 2719 
L 4078 2719 
L 4391 4331 
L 3797 4331 
L 3863 4666 
L 5684 4666 
L 5619 4331 
L 5025 4331 
L 4247 331 
L 4841 331 
L 4778 0 
L 2956 0 
L 3019 331 
L 3616 331 
L 4003 2338 
L 1584 2338 
L 1194 331 
L 1788 331 
L 1725 0 
L -97 0 
z
" transform="scale(0.015625)"/>
      <path id="DejaVuSerif-Italic-6f" d="M 1644 219 
Q 2106 219 2414 584 
Q 2722 950 2859 1663 
Q 2922 1988 2922 2241 
Q 2922 2541 2834 2738 
Q 2669 3103 2206 3103 
Q 1744 3103 1436 2739 
Q 1128 2375 991 1663 
Q 928 1338 928 1088 
Q 928 784 1019 584 
Q 1184 219 1644 219 
z
M 1584 -91 
Q 859 -91 513 388 
Q 272 722 272 1203 
Q 272 1419 319 1663 
Q 472 2456 1005 2934 
Q 1538 3413 2266 3413 
Q 2994 3413 3341 2934 
Q 3578 2603 3578 2122 
Q 3578 1906 3531 1663 
Q 3378 869 2845 389 
Q 2313 -91 1584 -91 
z
" transform="scale(0.015625)"/>
      <path id="DejaVuSerif-Italic-77" d="M 3741 728 
Q 4156 1178 4250 1344 
Q 4594 1969 4931 2988 
L 4447 2984 
L 4513 3322 
L 5347 3322 
L 5281 2984 
L 5278 2984 
Q 4959 1825 4656 1266 
Q 4209 469 3719 0 
L 3241 0 
L 2900 2484 
L 1597 0 
L 1138 0 
L 734 2988 
L 359 2981 
L 425 3322 
L 1281 3322 
L 1631 728 
L 2991 3322 
L 3394 3322 
L 3741 728 
z
" transform="scale(0.015625)"/>
      <path id="DejaVuSerif-Italic-20" transform="scale(0.015625)"/>
      <path id="DejaVuSerif-Italic-64" d="M 3841 4863 
L 2897 0 
L 2322 0 
L 2422 519 
Q 2191 206 1902 57 
Q 1613 -91 1228 -91 
Q 616 -91 322 394 
Q 125 716 125 1166 
Q 125 1397 178 1663 
Q 331 2444 812 2928 
Q 1294 3413 1909 3413 
Q 2294 3413 2525 3264 
Q 2756 3116 2866 2803 
L 3200 4531 
L 2656 4531 
L 2722 4863 
L 3841 4863 
z
M 2613 1497 
L 2675 1825 
Q 2722 2069 2722 2266 
Q 2722 2550 2622 2738 
Q 2456 3053 2019 3053 
Q 1575 3053 1279 2703 
Q 984 2353 850 1663 
Q 788 1347 788 1103 
Q 788 813 875 622 
Q 1031 269 1475 269 
Q 1913 269 2203 583 
Q 2494 897 2613 1497 
z
" transform="scale(0.015625)"/>
      <path id="DejaVuSerif-Italic-65" d="M 938 1275 
Q 925 1156 925 1050 
Q 925 756 1031 563 
Q 1216 219 1709 219 
Q 2072 219 2250 328 
Q 2569 525 2644 778 
L 3066 778 
Q 2941 381 2475 103 
Q 2150 -91 1506 -91 
Q 863 -91 516 388 
Q 272 722 272 1206 
Q 272 1419 319 1659 
Q 472 2450 1000 2931 
Q 1528 3413 2278 3413 
Q 3500 3413 3500 2547 
Q 3500 1913 2859 1603 
Q 2206 1288 938 1275 
z
M 2541 1975 
Q 2891 2181 2891 2569 
Q 2891 3103 2181 3103 
Q 1763 3103 1472 2784 
Q 1181 2466 1003 1606 
Q 2006 1653 2541 1975 
z
" transform="scale(0.015625)"/>
      <path id="DejaVuSerif-Italic-73" d="M 222 959 
L 553 959 
Q 541 869 541 788 
Q 541 219 1313 219 
Q 2088 219 2200 788 
Q 2209 844 2209 944 
Q 2209 1041 2103 1158 
Q 1997 1275 1550 1428 
L 1159 1569 
Q 759 1706 629 1882 
Q 500 2059 500 2263 
Q 500 2344 516 2438 
Q 606 2894 990 3153 
Q 1375 3413 1931 3413 
Q 2484 3413 3066 3144 
L 2925 2419 
L 2594 2419 
Q 2606 2491 2606 2553 
Q 2606 2781 2448 2942 
Q 2291 3103 1925 3103 
Q 1191 3103 1091 2591 
Q 1078 2538 1078 2444 
Q 1078 2347 1179 2237 
Q 1281 2128 1678 1997 
L 2106 1856 
Q 2550 1709 2716 1488 
Q 2831 1331 2831 1178 
Q 2831 522 2306 181 
Q 1894 -91 1262 -91 
Q 631 -91 72 184 
L 222 959 
z
" transform="scale(0.015625)"/>
      <path id="DejaVuSerif-Italic-61" d="M 2325 519 
Q 1909 -91 1238 -91 
Q 688 -91 409 281 
Q 216 544 216 919 
Q 216 1078 250 1256 
Q 463 2359 1231 2928 
Q 1884 3413 2675 3413 
Q 3206 3413 3388 3322 
L 2806 331 
L 3300 331 
L 3238 0 
L 2225 0 
L 2325 519 
z
M 822 938 
Q 822 269 1469 269 
Q 1863 269 2130 583 
Q 2397 897 2516 1497 
L 2806 3003 
L 2806 3003 
Q 2806 3094 2556 3094 
Q 1956 3094 1491 2625 
Q 1028 2153 863 1297 
Q 822 1097 822 938 
z
" transform="scale(0.015625)"/>
      <path id="DejaVuSerif-Italic-69" d="M 1009 4353 
Q 1038 4497 1163 4603 
Q 1288 4709 1434 4709 
Q 1578 4709 1663 4603 
Q 1728 4522 1728 4422 
Q 1728 4388 1719 4353 
Q 1691 4206 1567 4103 
Q 1444 4000 1297 4000 
Q 1150 4000 1066 4103 
Q 1003 4181 1003 4281 
Q 1003 4316 1009 4353 
z
M 963 331 
L 1506 331 
L 1444 0 
L 325 0 
L 903 2988 
L 353 2988 
L 419 3322 
L 1544 3322 
L 963 331 
z
" transform="scale(0.015625)"/>
      <path id="DejaVuSerif-Italic-6e" d="M 450 0 
L 1031 2988 
L 481 2988 
L 544 3322 
L 1669 3322 
L 1556 2731 
Q 1781 3069 2068 3241 
Q 2356 3413 2694 3413 
Q 3244 3413 3444 3097 
Q 3563 2906 3563 2588 
Q 3563 2378 3509 2113 
L 3163 331 
L 3675 331 
L 3613 0 
L 2522 0 
L 2897 1931 
Q 2959 2253 2959 2469 
Q 2959 2659 2909 2769 
Q 2803 2994 2425 2994 
Q 2025 2994 1759 2701 
Q 1494 2409 1384 1850 
L 1025 0 
L 450 0 
z
" transform="scale(0.015625)"/>
      <path id="DejaVuSerif-Italic-67" d="M 3822 3322 
L 3188 72 
Q 3044 -672 2581 -1031 
Q 2078 -1422 1381 -1422 
Q 1053 -1422 765 -1362 
Q 478 -1303 225 -1184 
L 363 -488 
L 663 -488 
Q 653 -813 834 -963 
Q 1016 -1113 1406 -1113 
Q 1913 -1113 2203 -825 
Q 2494 -544 2613 72 
L 2700 519 
Q 2472 206 2181 57 
Q 1891 -91 1525 -91 
Q 975 -91 697 281 
Q 522 516 503 841 
Q 491 1031 534 1256 
Q 750 2359 1516 2928 
Q 2169 3409 2931 3413 
Q 3631 3416 3822 3322 
z
M 3184 2988 
Q 3181 3094 2844 3094 
Q 2234 3094 1775 2625 
Q 1316 2153 1147 1297 
Q 1100 1044 1113 853 
Q 1125 659 1203 528 
Q 1356 269 1756 269 
Q 2194 269 2484 583 
Q 2775 897 2891 1497 
L 2953 1825 
L 3184 2988 
z
" transform="scale(0.015625)"/>
     </defs>
     <use xlink:href="#DejaVuSerif-Italic-48"/>
     <use xlink:href="#DejaVuSerif-Italic-6f" transform="translate(87.207031 0)"/>
     <use xlink:href="#DejaVuSerif-Italic-77" transform="translate(147.412109 0)"/>
     <use xlink:href="#DejaVuSerif-Italic-20" transform="translate(233.007812 0)"/>
     <use xlink:href="#DejaVuSerif-Italic-64" transform="translate(264.794922 0)"/>
     <use xlink:href="#DejaVuSerif-Italic-6f" transform="translate(328.808594 0)"/>
     <use xlink:href="#DejaVuSerif-Italic-65" transform="translate(389.013672 0)"/>
     <use xlink:href="#DejaVuSerif-Italic-73" transform="translate(448.193359 0)"/>
     <use xlink:href="#DejaVuSerif-Italic-20" transform="translate(499.511719 0)"/>
     <use xlink:href="#DejaVuSerif-Italic-61" transform="translate(531.298828 0)"/>
     <use xlink:href="#DejaVuSerif-Italic-64" transform="translate(590.917969 0)"/>
     <use xlink:href="#DejaVuSerif-Italic-64" transform="translate(654.931641 0)"/>
     <use xlink:href="#DejaVuSerif-Italic-69" transform="translate(718.945312 0)"/>
     <use xlink:href="#DejaVuSerif-Italic-6e" transform="translate(750.927734 0)"/>
     <use xlink:href="#DejaVuSerif-Italic-67" transform="translate(815.332031 0)"/>
    </g>
    <!-- exports affect -->
    <g style="fill: #262626" transform="translate(631.35125 125.160895) scale(0.09 -0.09)">
     <defs>
      <path id="DejaVuSerif-Italic-78" d="M 409 0 
L 19 0 
L 1484 1594 
L 747 2988 
L 338 2988 
L 400 3322 
L 1244 3322 
L 1934 2028 
L 3125 3322 
L 3516 3322 
L 2078 1759 
L 2838 331 
L 3272 331 
L 3209 0 
L 2338 0 
L 1631 1325 
L 409 0 
z
" transform="scale(0.015625)"/>
      <path id="DejaVuSerif-Italic-70" d="M 1466 1825 
L 1400 1497 
Q 1353 1250 1353 1053 
Q 1353 769 1453 581 
Q 1622 269 2059 269 
Q 2500 269 2795 622 
Q 3091 975 3225 1663 
Q 3284 1978 3284 2225 
Q 3284 2513 3200 2703 
Q 3041 3053 2600 3053 
Q 2163 3053 1872 2737 
Q 1581 2422 1466 1825 
z
M 1116 2988 
L 563 2988 
L 628 3322 
L 1756 3322 
L 1656 2803 
Q 1884 3116 2175 3264 
Q 2466 3413 2850 3413 
Q 3463 3413 3753 2928 
Q 3947 2609 3947 2163 
Q 3947 1928 3897 1663 
Q 3744 881 3262 395 
Q 2781 -91 2169 -91 
Q 1784 -91 1551 57 
Q 1319 206 1213 519 
L 850 -1331 
L 275 -1331 
L 1116 2988 
z
" transform="scale(0.015625)"/>
      <path id="DejaVuSerif-Italic-72" d="M 3375 3328 
L 3213 2497 
L 2881 2497 
Q 2891 2559 2891 2613 
Q 2891 2775 2816 2866 
Q 2719 2988 2484 2988 
Q 2059 2988 1775 2694 
Q 1491 2400 1384 1850 
L 1025 0 
L 450 0 
L 1031 2994 
L 481 2994 
L 544 3322 
L 1669 3322 
L 1556 2731 
Q 1791 3078 2089 3245 
Q 2388 3413 2769 3413 
Q 2909 3413 3059 3391 
Q 3209 3369 3375 3328 
z
" transform="scale(0.015625)"/>
      <path id="DejaVuSerif-Italic-74" d="M 856 2988 
L 350 2988 
L 416 3322 
L 922 3322 
L 1122 4353 
L 1700 4353 
L 1500 3322 
L 2581 3322 
L 2516 2988 
L 1434 2988 
L 1025 878 
Q 978 631 978 488 
Q 978 388 1000 338 
Q 1059 219 1278 219 
Q 1503 219 1633 351 
Q 1763 484 1825 781 
L 2259 781 
Q 2147 328 1884 118 
Q 1622 -91 1169 -91 
Q 672 -91 506 131 
Q 406 266 406 516 
Q 406 675 447 878 
L 856 2988 
z
" transform="scale(0.015625)"/>
      <path id="DejaVuSerif-Italic-66" d="M 3191 4078 
L 2888 4078 
Q 2900 4144 2900 4203 
Q 2900 4347 2825 4434 
Q 2719 4556 2472 4556 
Q 2150 4556 1984 4379 
Q 1819 4203 1731 3750 
L 1647 3322 
L 2575 3322 
L 2509 2988 
L 1581 2988 
L 963 -206 
Q 853 -763 509 -1047 
Q 166 -1331 -394 -1331 
L -356 -1025 
Q -28 -1025 131 -850 
Q 297 -663 388 -206 
L 1006 2988 
L 456 2988 
L 522 3322 
L 1072 3322 
L 1153 3738 
Q 1263 4297 1606 4578 
Q 1950 4863 2509 4863 
Q 2719 4863 2920 4825 
Q 3122 4788 3316 4709 
L 3191 4078 
z
" transform="scale(0.015625)"/>
      <path id="DejaVuSerif-Italic-63" d="M 3163 997 
Q 2938 466 2536 187 
Q 2134 -91 1584 -91 
Q 859 -91 513 388 
Q 272 722 272 1203 
Q 272 1419 319 1663 
Q 475 2459 1008 2936 
Q 1541 3413 2266 3413 
Q 2581 3413 2879 3339 
Q 3178 3266 3463 3116 
L 3300 2266 
L 2966 2266 
Q 2966 2309 2966 2347 
Q 2966 2722 2803 2903 
Q 2622 3103 2213 3103 
Q 1747 3103 1439 2742 
Q 1131 2381 991 1663 
Q 928 1334 928 1078 
Q 928 778 1016 581 
Q 1181 219 1650 219 
Q 2022 219 2281 412 
Q 2541 606 2700 997 
L 3163 997 
z
" transform="scale(0.015625)"/>
     </defs>
     <use xlink:href="#DejaVuSerif-Italic-65"/>
     <use xlink:href="#DejaVuSerif-Italic-78" transform="translate(59.179688 0)"/>
     <use xlink:href="#DejaVuSerif-Italic-70" transform="translate(115.576172 0)"/>
     <use xlink:href="#DejaVuSerif-Italic-6f" transform="translate(179.589844 0)"/>
     <use xlink:href="#DejaVuSerif-Italic-72" transform="translate(239.794922 0)"/>
     <use xlink:href="#DejaVuSerif-Italic-74" transform="translate(287.597656 0)"/>
     <use xlink:href="#DejaVuSerif-Italic-73" transform="translate(327.783203 0)"/>
     <use xlink:href="#DejaVuSerif-Italic-20" transform="translate(379.101562 0)"/>
     <use xlink:href="#DejaVuSerif-Italic-61" transform="translate(410.888672 0)"/>
     <use xlink:href="#DejaVuSerif-Italic-66" transform="translate(470.507812 0)"/>
     <use xlink:href="#DejaVuSerif-Italic-66" transform="translate(507.519531 0)"/>
     <use xlink:href="#DejaVuSerif-Italic-65" transform="translate(544.53125 0)"/>
     <use xlink:href="#DejaVuSerif-Italic-63" transform="translate(603.710938 0)"/>
     <use xlink:href="#DejaVuSerif-Italic-74" transform="translate(659.716797 0)"/>
    </g>
    <!-- CS and PS? -->
    <g style="fill: #262626" transform="translate(631.35125 135.238926) scale(0.09 -0.09)">
     <defs>
      <path id="DejaVuSerif-Italic-43" d="M 4300 1234 
Q 3966 581 3414 245 
Q 2863 -91 2119 -91 
Q 1663 -91 1303 65 
Q 944 222 700 525 
Q 419 875 334 1320 
Q 250 1766 359 2328 
Q 572 3416 1330 4083 
Q 2088 4750 3116 4750 
Q 3497 4750 3908 4650 
Q 4319 4550 4775 4347 
L 4569 3272 
L 4216 3272 
Q 4213 3859 3919 4137 
Q 3625 4416 2997 4416 
Q 2250 4416 1762 3886 
Q 1275 3356 1075 2328 
Q 875 1303 1156 773 
Q 1438 244 2184 244 
Q 2706 244 3092 492 
Q 3478 741 3725 1234 
L 4300 1234 
z
" transform="scale(0.015625)"/>
      <path id="DejaVuSerif-Italic-53" d="M 184 225 
L 391 1288 
L 750 1284 
Q 663 753 905 498 
Q 1147 244 1744 244 
Q 2300 244 2636 464 
Q 2972 684 3053 1106 
Q 3119 1444 2976 1625 
Q 2834 1806 2300 1978 
L 1722 2163 
Q 1091 2366 877 2669 
Q 663 2972 766 3500 
Q 881 4094 1367 4422 
Q 1853 4750 2616 4750 
Q 2941 4750 3314 4679 
Q 3688 4609 4097 4475 
L 3906 3481 
L 3553 3481 
Q 3594 3975 3361 4195 
Q 3128 4416 2563 4416 
Q 2069 4416 1772 4214 
Q 1475 4013 1400 3628 
Q 1334 3294 1490 3103 
Q 1647 2913 2241 2725 
L 2784 2553 
Q 3381 2363 3593 2067 
Q 3806 1772 3709 1275 
Q 3578 597 3076 253 
Q 2575 -91 1716 -91 
Q 1331 -91 948 -12 
Q 566 66 184 225 
z
" transform="scale(0.015625)"/>
      <path id="DejaVuSerif-Italic-50" d="M 1594 2375 
L 2419 2375 
Q 2884 2375 3176 2626 
Q 3469 2878 3559 3353 
Q 3653 3831 3458 4081 
Q 3263 4331 2797 4331 
L 1972 4331 
L 1594 2375 
z
M -97 0 
L -34 331 
L 559 331 
L 1338 4331 
L 744 4331 
L 809 4666 
L 3016 4666 
Q 3716 4666 4056 4311 
Q 4397 3956 4278 3353 
Q 4163 2753 3684 2397 
Q 3206 2041 2506 2041 
L 1528 2041 
L 1194 331 
L 1916 331 
L 1853 0 
L -97 0 
z
" transform="scale(0.015625)"/>
      <path id="DejaVuSerif-Italic-3f" d="M 797 29 
Q 700 150 734 325 
Q 769 500 912 622 
Q 1056 744 1234 744 
Q 1406 744 1504 622 
Q 1603 500 1569 325 
Q 1538 153 1391 31 
Q 1244 -91 1072 -91 
Q 894 -91 797 29 
z
M 847 4459 
Q 1209 4606 1521 4678 
Q 1834 4750 2097 4750 
Q 2791 4750 3127 4415 
Q 3463 4081 3353 3513 
Q 3238 2931 2822 2562 
Q 2406 2194 1678 2034 
L 1522 1241 
L 1138 1241 
L 1338 2266 
Q 1916 2400 2258 2715 
Q 2600 3031 2694 3519 
Q 2778 3947 2597 4194 
Q 2416 4441 2022 4441 
Q 1666 4441 1400 4236 
Q 1134 4031 994 3647 
L 691 3647 
L 847 4459 
z
" transform="scale(0.015625)"/>
     </defs>
     <use xlink:href="#DejaVuSerif-Italic-43"/>
     <use xlink:href="#DejaVuSerif-Italic-53" transform="translate(76.513672 0)"/>
     <use xlink:href="#DejaVuSerif-Italic-20" transform="translate(145.019531 0)"/>
     <use xlink:href="#DejaVuSerif-Italic-61" transform="translate(176.806641 0)"/>
     <use xlink:href="#DejaVuSerif-Italic-6e" transform="translate(236.425781 0)"/>
     <use xlink:href="#DejaVuSerif-Italic-64" transform="translate(300.830078 0)"/>
     <use xlink:href="#DejaVuSerif-Italic-20" transform="translate(364.84375 0)"/>
     <use xlink:href="#DejaVuSerif-Italic-50" transform="translate(396.630859 0)"/>
     <use xlink:href="#DejaVuSerif-Italic-53" transform="translate(463.916016 0)"/>
     <use xlink:href="#DejaVuSerif-Italic-3f" transform="translate(532.421875 0)"/>
    </g>
   </g>
   <g id="text_9">
    <!-- With Exports -->
    <g style="fill: #262626" transform="translate(597.254766 19.158281) scale(0.11 -0.11)">
     <defs>
      <path id="DejaVuSerif-Bold-57" d="M 5453 0 
L 4647 0 
L 3591 3397 
L 2534 0 
L 1728 0 
L 397 4288 
L -56 4288 
L -56 4666 
L 2156 4666 
L 2156 4288 
L 1656 4288 
L 2547 1422 
L 3553 4666 
L 4441 4666 
L 5466 1369 
L 6375 4288 
L 5819 4288 
L 5819 4666 
L 7263 4666 
L 7263 4288 
L 6784 4288 
L 5453 0 
z
" transform="scale(0.015625)"/>
      <path id="DejaVuSerif-Bold-68" d="M 219 0 
L 219 378 
L 691 378 
L 691 4488 
L 197 4488 
L 197 4863 
L 1797 4863 
L 1797 2853 
Q 1997 3150 2253 3281 
Q 2509 3413 2900 3413 
Q 3459 3413 3745 3083 
Q 4031 2753 4031 2113 
L 4031 378 
L 4506 378 
L 4506 0 
L 2522 0 
L 2522 378 
L 2925 378 
L 2925 2144 
Q 2925 2566 2817 2730 
Q 2709 2894 2444 2894 
Q 2109 2894 1953 2648 
Q 1797 2403 1797 1869 
L 1797 378 
L 2203 378 
L 2203 0 
L 219 0 
z
" transform="scale(0.015625)"/>
      <path id="DejaVuSerif-Bold-45" d="M 300 0 
L 300 378 
L 897 378 
L 897 4288 
L 300 4288 
L 300 4666 
L 4494 4666 
L 4494 3566 
L 4063 3566 
L 4063 4238 
L 2100 4238 
L 2100 2741 
L 3322 2741 
L 3322 3334 
L 3750 3334 
L 3750 1722 
L 3322 1722 
L 3322 2316 
L 2100 2316 
L 2100 428 
L 4122 428 
L 4122 1100 
L 4550 1100 
L 4550 0 
L 300 0 
z
" transform="scale(0.015625)"/>
      <path id="DejaVuSerif-Bold-78" d="M 2247 2119 
L 2834 2944 
L 2425 2944 
L 2425 3322 
L 3719 3322 
L 3719 2944 
L 3278 2944 
L 2431 1759 
L 3419 378 
L 3859 378 
L 3859 0 
L 1747 0 
L 1747 378 
L 2175 378 
L 1550 1253 
L 922 378 
L 1369 378 
L 1369 0 
L 0 0 
L 0 378 
L 475 378 
L 1356 1619 
L 403 2944 
L 31 2944 
L 31 3322 
L 2059 3322 
L 2059 2944 
L 1656 2944 
L 2247 2119 
z
" transform="scale(0.015625)"/>
      <path id="DejaVuSerif-Bold-70" d="M 1728 1825 
L 1728 1497 
Q 1728 916 1876 656 
Q 2025 397 2356 397 
Q 2697 397 2836 672 
Q 2975 947 2975 1663 
Q 2975 2378 2836 2651 
Q 2697 2925 2356 2925 
Q 2025 2925 1876 2665 
Q 1728 2406 1728 1825 
z
M 622 2944 
L 147 2944 
L 147 3322 
L 1728 3322 
L 1728 2900 
Q 1869 3159 2106 3286 
Q 2344 3413 2694 3413 
Q 3403 3413 3811 2945 
Q 4219 2478 4219 1663 
Q 4219 847 3811 378 
Q 3403 -91 2694 -91 
Q 2344 -91 2106 36 
Q 1869 163 1728 422 
L 1728 -953 
L 2241 -953 
L 2241 -1331 
L 147 -1331 
L 147 -953 
L 622 -953 
L 622 2944 
z
" transform="scale(0.015625)"/>
      <path id="DejaVuSerif-Bold-72" d="M 3438 3359 
L 3438 2369 
L 3084 2369 
Q 3066 2634 2941 2764 
Q 2816 2894 2578 2894 
Q 2216 2894 2006 2575 
Q 1797 2256 1797 1691 
L 1797 378 
L 2400 378 
L 2400 0 
L 219 0 
L 219 378 
L 691 378 
L 691 2944 
L 184 2944 
L 184 3322 
L 1797 3322 
L 1797 2731 
Q 1959 3078 2226 3245 
Q 2494 3413 2881 3413 
Q 2978 3413 3117 3398 
Q 3256 3384 3438 3359 
z
" transform="scale(0.015625)"/>
     </defs>
     <use xlink:href="#DejaVuSerif-Bold-57"/>
     <use xlink:href="#DejaVuSerif-Bold-69" transform="translate(110.554688 0)"/>
     <use xlink:href="#DejaVuSerif-Bold-74" transform="translate(148.542969 0)"/>
     <use xlink:href="#DejaVuSerif-Bold-68" transform="translate(194.734375 0)"/>
     <use xlink:href="#DejaVuSerif-Bold-20" transform="translate(267.439453 0)"/>
     <use xlink:href="#DejaVuSerif-Bold-45" transform="translate(302.253906 0)"/>
     <use xlink:href="#DejaVuSerif-Bold-78" transform="translate(378.474609 0)"/>
     <use xlink:href="#DejaVuSerif-Bold-70" transform="translate(438.09375 0)"/>
     <use xlink:href="#DejaVuSerif-Bold-6f" transform="translate(508.015625 0)"/>
     <use xlink:href="#DejaVuSerif-Bold-72" transform="translate(574.714844 0)"/>
     <use xlink:href="#DejaVuSerif-Bold-74" transform="translate(627.400391 0)"/>
     <use xlink:href="#DejaVuSerif-Bold-73" transform="translate(673.591797 0)"/>
    </g>
   </g>
   <g id="line2d_74">
    <g clip-path="url(#p196247f71e)">
     <use xlink:href="#m4af9264cb5" x="613.20875" y="135.238926" style="stroke: #000000"/>
    </g>
   </g>
   <g id="legend_2">
    <g id="line2d_75">
     <path d="M 463.17375 35.637031 
L 471.17375 35.637031 
L 479.17375 35.637031 
" style="fill: none; stroke: #2563eb; stroke-width: 2.5; stroke-linecap: round"/>
    </g>
    <g id="text_10">
     <!-- Domestic + Export demand -->
     <g style="fill: #262626" transform="translate(485.57375 38.437031) scale(0.08 -0.08)">
      <defs>
       <path id="DejaVuSerif-2b" d="M 2931 4013 
L 2931 2259 
L 4684 2259 
L 4684 1753 
L 2931 1753 
L 2931 0 
L 2431 0 
L 2431 1753 
L 678 1753 
L 678 2259 
L 2431 2259 
L 2431 4013 
L 2931 4013 
z
" transform="scale(0.015625)"/>
       <path id="DejaVuSerif-45" d="M 353 0 
L 353 331 
L 947 331 
L 947 4331 
L 353 4331 
L 353 4666 
L 4109 4666 
L 4109 3628 
L 3725 3628 
L 3725 4281 
L 1581 4281 
L 1581 2719 
L 3109 2719 
L 3109 3303 
L 3494 3303 
L 3494 1753 
L 3109 1753 
L 3109 2338 
L 1581 2338 
L 1581 384 
L 3775 384 
L 3775 1038 
L 4159 1038 
L 4159 0 
L 353 0 
z
" transform="scale(0.015625)"/>
       <path id="DejaVuSerif-78" d="M 1863 2028 
L 2559 2988 
L 2113 2988 
L 2113 3322 
L 3391 3322 
L 3391 2988 
L 2950 2988 
L 2059 1759 
L 3097 331 
L 3531 331 
L 3531 0 
L 1997 0 
L 1997 331 
L 2419 331 
L 1697 1325 
L 972 331 
L 1403 331 
L 1403 0 
L 141 0 
L 141 331 
L 581 331 
L 1497 1594 
L 488 2988 
L 78 2988 
L 78 3322 
L 1563 3322 
L 1563 2988 
L 1166 2988 
L 1863 2028 
z
" transform="scale(0.015625)"/>
      </defs>
      <use xlink:href="#DejaVuSerif-44"/>
      <use xlink:href="#DejaVuSerif-6f" transform="translate(80.175781 0)"/>
      <use xlink:href="#DejaVuSerif-6d" transform="translate(140.380859 0)"/>
      <use xlink:href="#DejaVuSerif-65" transform="translate(235.205078 0)"/>
      <use xlink:href="#DejaVuSerif-73" transform="translate(294.384766 0)"/>
      <use xlink:href="#DejaVuSerif-74" transform="translate(345.703125 0)"/>
      <use xlink:href="#DejaVuSerif-69" transform="translate(385.888672 0)"/>
      <use xlink:href="#DejaVuSerif-63" transform="translate(417.871094 0)"/>
      <use xlink:href="#DejaVuSerif-20" transform="translate(473.876953 0)"/>
      <use xlink:href="#DejaVuSerif-2b" transform="translate(505.664062 0)"/>
      <use xlink:href="#DejaVuSerif-20" transform="translate(589.453125 0)"/>
      <use xlink:href="#DejaVuSerif-45" transform="translate(621.240234 0)"/>
      <use xlink:href="#DejaVuSerif-78" transform="translate(694.238281 0)"/>
      <use xlink:href="#DejaVuSerif-70" transform="translate(750.634766 0)"/>
      <use xlink:href="#DejaVuSerif-6f" transform="translate(814.648438 0)"/>
      <use xlink:href="#DejaVuSerif-72" transform="translate(874.853516 0)"/>
      <use xlink:href="#DejaVuSerif-74" transform="translate(922.65625 0)"/>
      <use xlink:href="#DejaVuSerif-20" transform="translate(962.841797 0)"/>
      <use xlink:href="#DejaVuSerif-64" transform="translate(994.628906 0)"/>
      <use xlink:href="#DejaVuSerif-65" transform="translate(1058.642578 0)"/>
      <use xlink:href="#DejaVuSerif-6d" transform="translate(1117.822266 0)"/>
      <use xlink:href="#DejaVuSerif-61" transform="translate(1212.646484 0)"/>
      <use xlink:href="#DejaVuSerif-6e" transform="translate(1272.265625 0)"/>
      <use xlink:href="#DejaVuSerif-64" transform="translate(1336.669922 0)"/>
     </g>
    </g>
    <g id="line2d_76">
     <path d="M 463.17375 47.379531 
L 471.17375 47.379531 
L 479.17375 47.379531 
" style="fill: none; stroke: #dc2626; stroke-width: 2.5; stroke-linecap: round"/>
    </g>
    <g id="text_11">
     <!-- Supply -->
     <g style="fill: #262626" transform="translate(485.57375 50.179531) scale(0.08 -0.08)">
      <use xlink:href="#DejaVuSerif-53"/>
      <use xlink:href="#DejaVuSerif-75" transform="translate(68.505859 0)"/>
      <use xlink:href="#DejaVuSerif-70" transform="translate(132.910156 0)"/>
      <use xlink:href="#DejaVuSerif-70" transform="translate(196.923828 0)"/>
      <use xlink:href="#DejaVuSerif-6c" transform="translate(260.9375 0)"/>
      <use xlink:href="#DejaVuSerif-79" transform="translate(292.919922 0)"/>
     </g>
    </g>
   </g>
  </g>
 </g>
 <defs>
  <clipPath id="p5570ceab75">
   <rect x="29.91375" y="25.158281" width="362.85" height="292.5"/>
  </clipPath>
  <clipPath id="p196247f71e">
   <rect x="455.97375" y="25.158281" width="362.85" height="292.5"/>
  </clipPath>
 </defs>
</svg>
