<?xml version="1.0" encoding="utf-8" standalone="no"?>
<!DOCTYPE svg PUBLIC "-//W3C//DTD SVG 1.1//EN"
  "http://www.w3.org/Graphics/SVG/1.1/DTD/svg11.dtd">
<svg xmlns:xlink="http://www.w3.org/1999/xlink" width="469.62375pt" height="343.17375pt" viewBox="0 0 469.62375 343.17375" xmlns="http://www.w3.org/2000/svg" version="1.1">
 <metadata>
  <rdf:RDF xmlns:dc="http://purl.org/dc/elements/1.1/" xmlns:cc="http://creativecommons.org/ns#" xmlns:rdf="http://www.w3.org/1999/02/22-rdf-syntax-ns#">
   <cc:Work>
    <dc:type rdf:resource="http://purl.org/dc/dcmitype/StillImage"/>
    <dc:date>2026-02-19T08:27:10.554876</dc:date>
    <dc:format>image/svg+xml</dc:format>
    <dc:creator>
     <cc:Agent>
      <dc:title>Matplotlib v3.10.1, https://matplotlib.org/</dc:title>
     </cc:Agent>
    </dc:creator>
   </cc:Work>
  </rdf:RDF>
 </metadata>
 <defs>
  <style type="text/css">*{stroke-linejoin: round; stroke-linecap: butt}</style>
 </defs>
 <g id="figure_1">
  <g id="patch_1">
   <path d="M 0 343.17375 
L 469.62375 343.17375 
L 469.62375 0 
L 0 0 
z
" style="fill: #ffffff"/>
  </g>
  <g id="axes_1">
   <g id="patch_2">
    <path d="M 29.91375 313.26 
L 458.82375 313.26 
L 458.82375 10.8 
L 29.91375 10.8 
z
" style="fill: #ffffff"/>
   </g>
   <g id="matplotlib.axis_1">
    <g id="xtick_1">
     <g id="line2d_1">
      <path d="M 29.91375 313.26 
L 29.91375 10.8 
" clip-path="url(#p9cf561026a)" style="fill: none; stroke: #cccccc; stroke-width: 0.8; stroke-linecap: round"/>
     </g>
     <g id="line2d_2"/>
    </g>
    <g id="xtick_2">
     <g id="line2d_3">
      <path d="M 91.186607 313.26 
L 91.186607 10.8 
" clip-path="url(#p9cf561026a)" style="fill: none; stroke: #cccccc; stroke-width: 0.8; stroke-linecap: round"/>
     </g>
     <g id="line2d_4"/>
    </g>
    <g id="xtick_3">
     <g id="line2d_5">
      <path d="M 152.459464 313.26 
L 152.459464 10.8 
" clip-path="url(#p9cf561026a)" style="fill: none; stroke: #cccccc; stroke-width: 0.8; stroke-linecap: round"/>
     </g>
     <g id="line2d_6"/>
    </g>
    <g id="xtick_4">
     <g id="line2d_7">
      <path d="M 213.732321 313.26 
L 213.732321 10.8 
" clip-path="url(#p9cf561026a)" style="fill: none; stroke: #cccccc; stroke-width: 0.8; stroke-linecap: round"/>
     </g>
     <g id="line2d_8"/>
    </g>
    <g id="xtick_5">
     <g id="line2d_9">
      <path d="M 275.005179 313.26 
L 275.005179 10.8 
" clip-path="url(#p9cf561026a)" style="fill: none; stroke: #cccccc; stroke-width: 0.8; stroke-linecap: round"/>
     </g>
     <g id="line2d_10"/>
    </g>
    <g id="xtick_6">
     <g id="line2d_11">
      <path d="M 336.278036 313.26 
L 336.278036 10.8 
" clip-path="url(#p9cf561026a)" style="fill: none; stroke: #cccccc; stroke-width: 0.8; stroke-linecap: round"/>
     </g>
     <g id="line2d_12"/>
    </g>
    <g id="xtick_7">
     <g id="line2d_13">
      <path d="M 397.550893 313.26 
L 397.550893 10.8 
" clip-path="url(#p9cf561026a)" style="fill: none; stroke: #cccccc; stroke-width: 0.8; stroke-linecap: round"/>
     </g>
     <g id="line2d_14"/>
    </g>
    <g id="xtick_8">
     <g id="line2d_15">
      <path d="M 458.82375 313.26 
L 458.82375 10.8 
" clip-path="url(#p9cf561026a)" style="fill: none; stroke: #cccccc; stroke-width: 0.8; stroke-linecap: round"/>
     </g>
     <g id="line2d_16"/>
    </g>
    <g id="text_1">
     <!-- Quantity -->
     <g style="fill: #262626" transform="translate(218.011875 329.7075) scale(0.12 -0.12)">
      <defs>
       <path id="DejaVuSerif-51" d="M 2700 -91 
Q 1628 -91 993 567 
Q 359 1225 359 2328 
Q 359 2894 529 3339 
Q 700 3784 1050 4134 
Q 1356 4441 1750 4595 
Q 2144 4750 2625 4750 
Q 3641 4750 4266 4084 
Q 4891 3419 4891 2328 
Q 4891 1403 4422 773 
Q 3953 144 3128 -38 
Q 3297 -247 3539 -347 
Q 3781 -447 4122 -447 
L 4219 -447 
L 4219 -1025 
Q 3691 -1000 3314 -767 
Q 2938 -534 2700 -91 
z
M 2625 244 
Q 3391 244 3781 770 
Q 4172 1297 4172 2328 
Q 4172 3363 3781 3889 
Q 3391 4416 2625 4416 
Q 1856 4416 1465 3889 
Q 1075 3363 1075 2328 
Q 1075 1297 1465 770 
Q 1856 244 2625 244 
z
" transform="scale(0.015625)"/>
       <path id="DejaVuSerif-75" d="M 2266 3322 
L 3341 3322 
L 3341 331 
L 3884 331 
L 3884 0 
L 2766 0 
L 2766 588 
Q 2606 256 2353 82 
Q 2100 -91 1766 -91 
Q 1213 -91 952 223 
Q 691 538 691 1209 
L 691 2988 
L 172 2988 
L 172 3322 
L 1269 3322 
L 1269 1388 
Q 1269 781 1417 556 
Q 1566 331 1947 331 
Q 2347 331 2556 625 
Q 2766 919 2766 1478 
L 2766 2988 
L 2266 2988 
L 2266 3322 
z
" transform="scale(0.015625)"/>
       <path id="DejaVuSerif-61" d="M 2547 1044 
L 2547 1747 
L 1806 1747 
Q 1378 1747 1168 1562 
Q 959 1378 959 997 
Q 959 650 1171 447 
Q 1384 244 1747 244 
Q 2106 244 2326 466 
Q 2547 688 2547 1044 
z
M 3122 2075 
L 3122 331 
L 3634 331 
L 3634 0 
L 2547 0 
L 2547 359 
Q 2356 128 2106 18 
Q 1856 -91 1522 -91 
Q 969 -91 644 203 
Q 319 497 319 997 
Q 319 1513 691 1797 
Q 1063 2081 1741 2081 
L 2547 2081 
L 2547 2309 
Q 2547 2688 2317 2895 
Q 2088 3103 1672 3103 
Q 1328 3103 1125 2947 
Q 922 2791 872 2484 
L 575 2484 
L 575 3156 
Q 875 3284 1158 3348 
Q 1441 3413 1709 3413 
Q 2400 3413 2761 3070 
Q 3122 2728 3122 2075 
z
" transform="scale(0.015625)"/>
       <path id="DejaVuSerif-6e" d="M 263 0 
L 263 331 
L 781 331 
L 781 2988 
L 231 2988 
L 231 3322 
L 1356 3322 
L 1356 2731 
Q 1516 3069 1770 3241 
Q 2025 3413 2363 3413 
Q 2913 3413 3172 3097 
Q 3431 2781 3431 2113 
L 3431 331 
L 3944 331 
L 3944 0 
L 2356 0 
L 2356 331 
L 2853 331 
L 2853 1931 
Q 2853 2541 2703 2767 
Q 2553 2994 2175 2994 
Q 1775 2994 1565 2701 
Q 1356 2409 1356 1850 
L 1356 331 
L 1856 331 
L 1856 0 
L 263 0 
z
" transform="scale(0.015625)"/>
       <path id="DejaVuSerif-74" d="M 691 2988 
L 184 2988 
L 184 3322 
L 691 3322 
L 691 4353 
L 1269 4353 
L 1269 3322 
L 2350 3322 
L 2350 2988 
L 1269 2988 
L 1269 878 
Q 1269 456 1350 337 
Q 1431 219 1650 219 
Q 1875 219 1978 351 
Q 2081 484 2088 781 
L 2522 781 
Q 2497 328 2275 118 
Q 2053 -91 1600 -91 
Q 1103 -91 897 129 
Q 691 350 691 878 
L 691 2988 
z
" transform="scale(0.015625)"/>
       <path id="DejaVuSerif-69" d="M 622 4353 
Q 622 4497 726 4603 
Q 831 4709 978 4709 
Q 1122 4709 1226 4603 
Q 1331 4497 1331 4353 
Q 1331 4206 1228 4103 
Q 1125 4000 978 4000 
Q 831 4000 726 4103 
Q 622 4206 622 4353 
z
M 1356 331 
L 1900 331 
L 1900 0 
L 231 0 
L 231 331 
L 781 331 
L 781 2988 
L 231 2988 
L 231 3322 
L 1356 3322 
L 1356 331 
z
" transform="scale(0.015625)"/>
       <path id="DejaVuSerif-79" d="M 1381 -609 
L 1600 -56 
L 359 2988 
L -19 2988 
L -19 3322 
L 1509 3322 
L 1509 2988 
L 978 2988 
L 1913 703 
L 2847 2988 
L 2350 2988 
L 2350 3322 
L 3597 3322 
L 3597 2988 
L 3225 2988 
L 1703 -750 
Q 1547 -1138 1356 -1280 
Q 1166 -1422 819 -1422 
Q 672 -1422 517 -1397 
Q 363 -1372 206 -1325 
L 206 -691 
L 500 -691 
Q 519 -903 608 -995 
Q 697 -1088 884 -1088 
Q 1056 -1088 1161 -992 
Q 1266 -897 1381 -609 
z
" transform="scale(0.015625)"/>
      </defs>
      <use xlink:href="#DejaVuSerif-51"/>
      <use xlink:href="#DejaVuSerif-75" transform="translate(81.982422 0)"/>
      <use xlink:href="#DejaVuSerif-61" transform="translate(146.386719 0)"/>
      <use xlink:href="#DejaVuSerif-6e" transform="translate(206.005859 0)"/>
      <use xlink:href="#DejaVuSerif-74" transform="translate(270.410156 0)"/>
      <use xlink:href="#DejaVuSerif-69" transform="translate(310.595703 0)"/>
      <use xlink:href="#DejaVuSerif-74" transform="translate(342.578125 0)"/>
      <use xlink:href="#DejaVuSerif-79" transform="translate(382.763672 0)"/>
     </g>
    </g>
   </g>
   <g id="matplotlib.axis_2">
    <g id="ytick_1">
     <g id="line2d_17">
      <path d="M 29.91375 313.26 
L 458.82375 313.26 
" clip-path="url(#p9cf561026a)" style="fill: none; stroke: #cccccc; stroke-width: 0.8; stroke-linecap: round"/>
     </g>
     <g id="line2d_18"/>
    </g>
    <g id="ytick_2">
     <g id="line2d_19">
      <path d="M 29.91375 252.768 
L 458.82375 252.768 
" clip-path="url(#p9cf561026a)" style="fill: none; stroke: #cccccc; stroke-width: 0.8; stroke-linecap: round"/>
     </g>
     <g id="line2d_20"/>
    </g>
    <g id="ytick_3">
     <g id="line2d_21">
      <path d="M 29.91375 192.276 
L 458.82375 192.276 
" clip-path="url(#p9cf561026a)" style="fill: none; stroke: #cccccc; stroke-width: 0.8; stroke-linecap: round"/>
     </g>
     <g id="line2d_22"/>
    </g>
    <g id="ytick_4">
     <g id="line2d_23">
      <path d="M 29.91375 131.784 
L 458.82375 131.784 
" clip-path="url(#p9cf561026a)" style="fill: none; stroke: #cccccc; stroke-width: 0.8; stroke-linecap: round"/>
     </g>
     <g id="line2d_24"/>
    </g>
    <g id="ytick_5">
     <g id="line2d_25">
      <path d="M 29.91375 71.292 
L 458.82375 71.292 
" clip-path="url(#p9cf561026a)" style="fill: none; stroke: #cccccc; stroke-width: 0.8; stroke-linecap: round"/>
     </g>
     <g id="line2d_26"/>
    </g>
    <g id="ytick_6">
     <g id="line2d_27">
      <path d="M 29.91375 10.8 
L 458.82375 10.8 
" clip-path="url(#p9cf561026a)" style="fill: none; stroke: #cccccc; stroke-width: 0.8; stroke-linecap: round"/>
     </g>
     <g id="line2d_28"/>
    </g>
    <g id="text_2">
     <!-- Price -->
     <g style="fill: #262626" transform="translate(19.918125 177.765) rotate(-90) scale(0.12 -0.12)">
      <defs>
       <path id="DejaVuSerif-50" d="M 1581 2375 
L 2406 2375 
Q 2872 2375 3115 2626 
Q 3359 2878 3359 3353 
Q 3359 3831 3115 4081 
Q 2872 4331 2406 4331 
L 1581 4331 
L 1581 2375 
z
M 353 0 
L 353 331 
L 947 331 
L 947 4331 
L 353 4331 
L 353 4666 
L 2559 4666 
Q 3259 4666 3668 4311 
Q 4078 3956 4078 3353 
Q 4078 2753 3668 2397 
Q 3259 2041 2559 2041 
L 1581 2041 
L 1581 331 
L 2303 331 
L 2303 0 
L 353 0 
z
" transform="scale(0.015625)"/>
       <path id="DejaVuSerif-72" d="M 3059 3328 
L 3059 2497 
L 2728 2497 
Q 2713 2744 2591 2866 
Q 2469 2988 2234 2988 
Q 1809 2988 1582 2694 
Q 1356 2400 1356 1850 
L 1356 331 
L 2022 331 
L 2022 0 
L 263 0 
L 263 331 
L 781 331 
L 781 2994 
L 231 2994 
L 231 3322 
L 1356 3322 
L 1356 2731 
Q 1525 3078 1790 3245 
Q 2056 3413 2438 3413 
Q 2578 3413 2733 3391 
Q 2888 3369 3059 3328 
z
" transform="scale(0.015625)"/>
       <path id="DejaVuSerif-63" d="M 3291 997 
Q 3169 466 2822 187 
Q 2475 -91 1925 -91 
Q 1200 -91 759 389 
Q 319 869 319 1663 
Q 319 2459 759 2936 
Q 1200 3413 1925 3413 
Q 2241 3413 2553 3339 
Q 2866 3266 3181 3116 
L 3181 2266 
L 2847 2266 
Q 2781 2703 2561 2903 
Q 2341 3103 1931 3103 
Q 1466 3103 1228 2742 
Q 991 2381 991 1663 
Q 991 944 1227 581 
Q 1463 219 1931 219 
Q 2303 219 2525 412 
Q 2747 606 2828 997 
L 3291 997 
z
" transform="scale(0.015625)"/>
       <path id="DejaVuSerif-65" d="M 3469 1600 
L 991 1600 
L 991 1575 
Q 991 903 1244 561 
Q 1497 219 1991 219 
Q 2369 219 2611 417 
Q 2853 616 2950 1006 
L 3413 1006 
Q 3275 459 2904 184 
Q 2534 -91 1931 -91 
Q 1203 -91 761 389 
Q 319 869 319 1663 
Q 319 2450 753 2931 
Q 1188 3413 1894 3413 
Q 2647 3413 3050 2948 
Q 3453 2484 3469 1600 
z
M 2791 1931 
Q 2772 2513 2545 2808 
Q 2319 3103 1894 3103 
Q 1497 3103 1269 2806 
Q 1041 2509 991 1931 
L 2791 1931 
z
" transform="scale(0.015625)"/>
      </defs>
      <use xlink:href="#DejaVuSerif-50"/>
      <use xlink:href="#DejaVuSerif-72" transform="translate(67.285156 0)"/>
      <use xlink:href="#DejaVuSerif-69" transform="translate(115.087891 0)"/>
      <use xlink:href="#DejaVuSerif-63" transform="translate(147.070312 0)"/>
      <use xlink:href="#DejaVuSerif-65" transform="translate(203.076172 0)"/>
     </g>
    </g>
   </g>
   <g id="FillBetweenPolyCollection_1">
    <defs>
     <path id="mba55373297" d="M 29.91375 -287.00475 
L 29.91375 -211.38975 
L 30.529558 -211.38975 
L 31.145365 -211.38975 
L 31.761173 -211.38975 
L 32.37698 -211.38975 
L 32.992788 -211.38975 
L 33.608596 -211.38975 
L 34.224403 -211.38975 
L 34.840211 -211.38975 
L 35.456018 -211.38975 
L 36.071826 -211.38975 
L 36.687634 -211.38975 
L 37.303441 -211.38975 
L 37.919249 -211.38975 
L 38.535057 -211.38975 
L 39.150864 -211.38975 
L 39.766672 -211.38975 
L 40.382479 -211.38975 
L 40.998287 -211.38975 
L 41.614095 -211.38975 
L 42.229902 -211.38975 
L 42.84571 -211.38975 
L 43.461517 -211.38975 
L 44.077325 -211.38975 
L 44.693133 -211.38975 
L 45.30894 -211.38975 
L 45.924748 -211.38975 
L 46.540555 -211.38975 
L 47.156363 -211.38975 
L 47.772171 -211.38975 
L 48.387978 -211.38975 
L 49.003786 -211.38975 
L 49.619594 -211.38975 
L 50.235401 -211.38975 
L 50.851209 -211.38975 
L 51.467016 -211.38975 
L 52.082824 -211.38975 
L 52.698632 -211.38975 
L 53.314439 -211.38975 
L 53.930247 -211.38975 
L 54.546054 -211.38975 
L 55.161862 -211.38975 
L 55.77767 -211.38975 
L 56.393477 -211.38975 
L 57.009285 -211.38975 
L 57.625092 -211.38975 
L 58.2409 -211.38975 
L 58.856708 -211.38975 
L 59.472515 -211.38975 
L 60.088323 -211.38975 
L 60.70413 -211.38975 
L 61.319938 -211.38975 
L 61.935746 -211.38975 
L 62.551553 -211.38975 
L 63.167361 -211.38975 
L 63.783169 -211.38975 
L 64.398976 -211.38975 
L 65.014784 -211.38975 
L 65.630591 -211.38975 
L 66.246399 -211.38975 
L 66.862207 -211.38975 
L 67.478014 -211.38975 
L 68.093822 -211.38975 
L 68.709629 -211.38975 
L 69.325437 -211.38975 
L 69.941245 -211.38975 
L 70.557052 -211.38975 
L 71.17286 -211.38975 
L 71.788667 -211.38975 
L 72.404475 -211.38975 
L 73.020283 -211.38975 
L 73.63609 -211.38975 
L 74.251898 -211.38975 
L 74.867705 -211.38975 
L 75.483513 -211.38975 
L 76.099321 -211.38975 
L 76.715128 -211.38975 
L 77.330936 -211.38975 
L 77.946744 -211.38975 
L 78.562551 -211.38975 
L 79.178359 -211.38975 
L 79.794166 -211.38975 
L 80.409974 -211.38975 
L 81.025782 -211.38975 
L 81.641589 -211.38975 
L 82.257397 -211.38975 
L 82.873204 -211.38975 
L 83.489012 -211.38975 
L 84.10482 -211.38975 
L 84.720627 -211.38975 
L 85.336435 -211.38975 
L 85.952242 -211.38975 
L 86.56805 -211.38975 
L 87.183858 -211.38975 
L 87.799665 -211.38975 
L 88.415473 -211.38975 
L 89.031281 -211.38975 
L 89.647088 -211.38975 
L 90.262896 -211.38975 
L 90.878703 -211.38975 
L 91.494511 -211.38975 
L 92.110319 -211.38975 
L 92.726126 -211.38975 
L 93.341934 -211.38975 
L 93.957741 -211.38975 
L 94.573549 -211.38975 
L 95.189357 -211.38975 
L 95.805164 -211.38975 
L 96.420972 -211.38975 
L 97.036779 -211.38975 
L 97.652587 -211.38975 
L 98.268395 -211.38975 
L 98.884202 -211.38975 
L 99.50001 -211.38975 
L 100.115817 -211.38975 
L 100.731625 -211.38975 
L 101.347433 -211.38975 
L 101.96324 -211.38975 
L 102.579048 -211.38975 
L 103.194856 -211.38975 
L 103.810663 -211.38975 
L 104.426471 -211.38975 
L 105.042278 -211.38975 
L 105.658086 -211.38975 
L 106.273894 -211.38975 
L 106.889701 -211.38975 
L 107.505509 -211.38975 
L 108.121316 -211.38975 
L 108.737124 -211.38975 
L 109.352932 -211.38975 
L 109.968739 -211.38975 
L 110.584547 -211.38975 
L 111.200354 -211.38975 
L 111.816162 -211.38975 
L 112.43197 -211.38975 
L 113.047777 -211.38975 
L 113.663585 -211.38975 
L 114.279392 -211.38975 
L 114.8952 -211.38975 
L 115.511008 -211.38975 
L 116.126815 -211.38975 
L 116.742623 -211.38975 
L 117.358431 -211.38975 
L 117.974238 -211.38975 
L 118.590046 -211.38975 
L 119.205853 -211.38975 
L 119.821661 -211.38975 
L 120.437469 -211.38975 
L 121.053276 -211.38975 
L 121.669084 -211.38975 
L 122.284891 -211.38975 
L 122.900699 -211.38975 
L 123.516507 -211.38975 
L 124.132314 -211.38975 
L 124.748122 -211.38975 
L 125.363929 -211.38975 
L 125.979737 -211.38975 
L 126.595545 -211.38975 
L 127.211352 -211.38975 
L 127.82716 -211.38975 
L 128.442968 -211.38975 
L 129.058775 -211.38975 
L 129.674583 -211.38975 
L 130.29039 -211.38975 
L 130.906198 -211.38975 
L 131.522006 -211.38975 
L 132.137813 -211.38975 
L 132.753621 -211.38975 
L 133.369428 -211.38975 
L 133.985236 -211.38975 
L 134.601044 -211.38975 
L 135.216851 -211.38975 
L 135.832659 -211.38975 
L 136.448466 -211.38975 
L 137.064274 -211.38975 
L 137.680082 -211.38975 
L 138.295889 -211.38975 
L 138.911697 -211.38975 
L 139.527504 -211.38975 
L 140.143312 -211.38975 
L 140.75912 -211.38975 
L 141.374927 -211.38975 
L 141.990735 -211.38975 
L 142.606543 -211.38975 
L 143.22235 -211.38975 
L 143.838158 -211.38975 
L 144.453965 -211.38975 
L 145.069773 -211.38975 
L 145.685581 -211.38975 
L 146.301388 -211.38975 
L 146.917196 -211.38975 
L 147.533003 -211.38975 
L 148.148811 -211.38975 
L 148.764619 -211.38975 
L 149.380426 -211.38975 
L 149.996234 -211.38975 
L 150.612041 -211.38975 
L 151.227849 -211.38975 
L 151.843657 -211.38975 
L 152.459464 -211.38975 
L 152.459464 -211.38975 
L 152.459464 -211.38975 
L 151.843657 -211.769725 
L 151.227849 -212.1497 
L 150.612041 -212.529675 
L 149.996234 -212.909649 
L 149.380426 -213.289624 
L 148.764619 -213.669599 
L 148.148811 -214.049574 
L 147.533003 -214.429549 
L 146.917196 -214.809524 
L 146.301388 -215.189499 
L 145.685581 -215.569474 
L 145.069773 -215.949448 
L 144.453965 -216.329423 
L 143.838158 -216.709398 
L 143.22235 -217.089373 
L 142.606543 -217.469348 
L 141.990735 -217.849323 
L 141.374927 -218.229298 
L 140.75912 -218.609273 
L 140.143312 -218.989247 
L 139.527504 -219.369222 
L 138.911697 -219.749197 
L 138.295889 -220.129172 
L 137.680082 -220.509147 
L 137.064274 -220.889122 
L 136.448466 -221.269097 
L 135.832659 -221.649072 
L 135.216851 -222.029046 
L 134.601044 -222.409021 
L 133.985236 -222.788996 
L 133.369428 -223.168971 
L 132.753621 -223.548946 
L 132.137813 -223.928921 
L 131.522006 -224.308896 
L 130.906198 -224.688871 
L 130.29039 -225.068845 
L 129.674583 -225.44882 
L 129.058775 -225.828795 
L 128.442968 -226.20877 
L 127.82716 -226.588745 
L 127.211352 -226.96872 
L 126.595545 -227.348695 
L 125.979737 -227.72867 
L 125.363929 -228.108644 
L 124.748122 -228.488619 
L 124.132314 -228.868594 
L 123.516507 -229.248569 
L 122.900699 -229.628544 
L 122.284891 -230.008519 
L 121.669084 -230.388494 
L 121.053276 -230.768469 
L 120.437469 -231.148443 
L 119.821661 -231.528418 
L 119.205853 -231.908393 
L 118.590046 -232.288368 
L 117.974238 -232.668343 
L 117.358431 -233.048318 
L 116.742623 -233.428293 
L 116.126815 -233.808268 
L 115.511008 -234.188242 
L 114.8952 -234.568217 
L 114.279392 -234.948192 
L 113.663585 -235.328167 
L 113.047777 -235.708142 
L 112.43197 -236.088117 
L 111.816162 -236.468092 
L 111.200354 -236.848067 
L 110.584547 -237.228041 
L 109.968739 -237.608016 
L 109.352932 -237.987991 
L 108.737124 -238.367966 
L 108.121316 -238.747941 
L 107.505509 -239.127916 
L 106.889701 -239.507891 
L 106.273894 -239.887866 
L 105.658086 -240.26784 
L 105.042278 -240.647815 
L 104.426471 -241.02779 
L 103.810663 -241.407765 
L 103.194856 -241.78774 
L 102.579048 -242.167715 
L 101.96324 -242.54769 
L 101.347433 -242.927665 
L 100.731625 -243.307639 
L 100.115817 -243.687614 
L 99.50001 -244.067589 
L 98.884202 -244.447564 
L 98.268395 -244.827539 
L 97.652587 -245.207514 
L 97.036779 -245.587489 
L 96.420972 -245.967464 
L 95.805164 -246.347438 
L 95.189357 -246.727413 
L 94.573549 -247.107388 
L 93.957741 -247.487363 
L 93.341934 -247.867338 
L 92.726126 -248.247313 
L 92.110319 -248.627288 
L 91.494511 -249.007263 
L 90.878703 -249.387237 
L 90.262896 -249.767212 
L 89.647088 -250.147187 
L 89.031281 -250.527162 
L 88.415473 -250.907137 
L 87.799665 -251.287112 
L 87.183858 -251.667087 
L 86.56805 -252.047062 
L 85.952242 -252.427036 
L 85.336435 -252.807011 
L 84.720627 -253.186986 
L 84.10482 -253.566961 
L 83.489012 -253.946936 
L 82.873204 -254.326911 
L 82.257397 -254.706886 
L 81.641589 -255.086861 
L 81.025782 -255.466835 
L 80.409974 -255.84681 
L 79.794166 -256.226785 
L 79.178359 -256.60676 
L 78.562551 -256.986735 
L 77.946744 -257.36671 
L 77.330936 -257.746685 
L 76.715128 -258.12666 
L 76.099321 -258.506634 
L 75.483513 -258.886609 
L 74.867705 -259.266584 
L 74.251898 -259.646559 
L 73.63609 -260.026534 
L 73.020283 -260.406509 
L 72.404475 -260.786484 
L 71.788667 -261.166459 
L 71.17286 -261.546433 
L 70.557052 -261.926408 
L 69.941245 -262.306383 
L 69.325437 -262.686358 
L 68.709629 -263.066333 
L 68.093822 -263.446308 
L 67.478014 -263.826283 
L 66.862207 -264.206258 
L 66.246399 -264.586232 
L 65.630591 -264.966207 
L 65.014784 -265.346182 
L 64.398976 -265.726157 
L 63.783169 -266.106132 
L 63.167361 -266.486107 
L 62.551553 -266.866082 
L 61.935746 -267.246057 
L 61.319938 -267.626031 
L 60.70413 -268.006006 
L 60.088323 -268.385981 
L 59.472515 -268.765956 
L 58.856708 -269.145931 
L 58.2409 -269.525906 
L 57.625092 -269.905881 
L 57.009285 -270.285856 
L 56.393477 -270.66583 
L 55.77767 -271.045805 
L 55.161862 -271.42578 
L 54.546054 -271.805755 
L 53.930247 -272.18573 
L 53.314439 -272.565705 
L 52.698632 -272.94568 
L 52.082824 -273.325655 
L 51.467016 -273.705629 
L 50.851209 -274.085604 
L 50.235401 -274.465579 
L 49.619594 -274.845554 
L 49.003786 -275.225529 
L 48.387978 -275.605504 
L 47.772171 -275.985479 
L 47.156363 -276.365454 
L 46.540555 -276.745428 
L 45.924748 -277.125403 
L 45.30894 -277.505378 
L 44.693133 -277.885353 
L 44.077325 -278.265328 
L 43.461517 -278.645303 
L 42.84571 -279.025278 
L 42.229902 -279.405253 
L 41.614095 -279.785227 
L 40.998287 -280.165202 
L 40.382479 -280.545177 
L 39.766672 -280.925152 
L 39.150864 -281.305127 
L 38.535057 -281.685102 
L 37.919249 -282.065077 
L 37.303441 -282.445052 
L 36.687634 -282.825026 
L 36.071826 -283.205001 
L 35.456018 -283.584976 
L 34.840211 -283.964951 
L 34.224403 -284.344926 
L 33.608596 -284.724901 
L 32.992788 -285.104876 
L 32.37698 -285.484851 
L 31.761173 -285.864825 
L 31.145365 -286.2448 
L 30.529558 -286.624775 
L 29.91375 -287.00475 
z
" style="stroke: #2563eb; stroke-opacity: 0.2"/>
    </defs>
    <g clip-path="url(#p9cf561026a)">
     <use xlink:href="#mba55373297" x="0" y="343.17375" style="fill: #2563eb; fill-opacity: 0.2; stroke: #2563eb; stroke-opacity: 0.2"/>
    </g>
   </g>
   <g id="FillBetweenPolyCollection_2">
    <defs>
     <path id="m360034e4fd" d="M 29.91375 -211.38975 
L 29.91375 -60.15975 
L 30.529558 -60.9197 
L 31.145365 -61.679649 
L 31.761173 -62.439599 
L 32.37698 -63.199549 
L 32.992788 -63.959499 
L 33.608596 -64.719448 
L 34.224403 -65.479398 
L 34.840211 -66.239348 
L 35.456018 -66.999298 
L 36.071826 -67.759247 
L 36.687634 -68.519197 
L 37.303441 -69.279147 
L 37.919249 -70.039097 
L 38.535057 -70.799046 
L 39.150864 -71.558996 
L 39.766672 -72.318946 
L 40.382479 -73.078896 
L 40.998287 -73.838845 
L 41.614095 -74.598795 
L 42.229902 -75.358745 
L 42.84571 -76.118695 
L 43.461517 -76.878644 
L 44.077325 -77.638594 
L 44.693133 -78.398544 
L 45.30894 -79.158494 
L 45.924748 -79.918443 
L 46.540555 -80.678393 
L 47.156363 -81.438343 
L 47.772171 -82.198293 
L 48.387978 -82.958242 
L 49.003786 -83.718192 
L 49.619594 -84.478142 
L 50.235401 -85.238092 
L 50.851209 -85.998041 
L 51.467016 -86.757991 
L 52.082824 -87.517941 
L 52.698632 -88.277891 
L 53.314439 -89.03784 
L 53.930247 -89.79779 
L 54.546054 -90.55774 
L 55.161862 -91.31769 
L 55.77767 -92.077639 
L 56.393477 -92.837589 
L 57.009285 -93.597539 
L 57.625092 -94.357489 
L 58.2409 -95.117438 
L 58.856708 -95.877388 
L 59.472515 -96.637338 
L 60.088323 -97.397288 
L 60.70413 -98.157237 
L 61.319938 -98.917187 
L 61.935746 -99.677137 
L 62.551553 -100.437087 
L 63.167361 -101.197036 
L 63.783169 -101.956986 
L 64.398976 -102.716936 
L 65.014784 -103.476886 
L 65.630591 -104.236835 
L 66.246399 -104.996785 
L 66.862207 -105.756735 
L 67.478014 -106.516685 
L 68.093822 -107.276634 
L 68.709629 -108.036584 
L 69.325437 -108.796534 
L 69.941245 -109.556484 
L 70.557052 -110.316433 
L 71.17286 -111.076383 
L 71.788667 -111.836333 
L 72.404475 -112.596283 
L 73.020283 -113.356232 
L 73.63609 -114.116182 
L 74.251898 -114.876132 
L 74.867705 -115.636082 
L 75.483513 -116.396031 
L 76.099321 -117.155981 
L 76.715128 -117.915931 
L 77.330936 -118.675881 
L 77.946744 -119.43583 
L 78.562551 -120.19578 
L 79.178359 -120.95573 
L 79.794166 -121.71568 
L 80.409974 -122.475629 
L 81.025782 -123.235579 
L 81.641589 -123.995529 
L 82.257397 -124.755479 
L 82.873204 -125.515428 
L 83.489012 -126.275378 
L 84.10482 -127.035328 
L 84.720627 -127.795278 
L 85.336435 -128.555227 
L 85.952242 -129.315177 
L 86.56805 -130.075127 
L 87.183858 -130.835077 
L 87.799665 -131.595026 
L 88.415473 -132.354976 
L 89.031281 -133.114926 
L 89.647088 -133.874876 
L 90.262896 -134.634825 
L 90.878703 -135.394775 
L 91.494511 -136.154725 
L 92.110319 -136.914675 
L 92.726126 -137.674624 
L 93.341934 -138.434574 
L 93.957741 -139.194524 
L 94.573549 -139.954474 
L 95.189357 -140.714423 
L 95.805164 -141.474373 
L 96.420972 -142.234323 
L 97.036779 -142.994273 
L 97.652587 -143.754222 
L 98.268395 -144.514172 
L 98.884202 -145.274122 
L 99.50001 -146.034072 
L 100.115817 -146.794021 
L 100.731625 -147.553971 
L 101.347433 -148.313921 
L 101.96324 -149.073871 
L 102.579048 -149.83382 
L 103.194856 -150.59377 
L 103.810663 -151.35372 
L 104.426471 -152.11367 
L 105.042278 -152.873619 
L 105.658086 -153.633569 
L 106.273894 -154.393519 
L 106.889701 -155.153469 
L 107.505509 -155.913418 
L 108.121316 -156.673368 
L 108.737124 -157.433318 
L 109.352932 -158.193268 
L 109.968739 -158.953217 
L 110.584547 -159.713167 
L 111.200354 -160.473117 
L 111.816162 -161.233067 
L 112.43197 -161.993016 
L 113.047777 -162.752966 
L 113.663585 -163.512916 
L 114.279392 -164.272866 
L 114.8952 -165.032815 
L 115.511008 -165.792765 
L 116.126815 -166.552715 
L 116.742623 -167.312665 
L 117.358431 -168.072614 
L 117.974238 -168.832564 
L 118.590046 -169.592514 
L 119.205853 -170.352464 
L 119.821661 -171.112413 
L 120.437469 -171.872363 
L 121.053276 -172.632313 
L 121.669084 -173.392263 
L 122.284891 -174.152212 
L 122.900699 -174.912162 
L 123.516507 -175.672112 
L 124.132314 -176.432062 
L 124.748122 -177.192011 
L 125.363929 -177.951961 
L 125.979737 -178.711911 
L 126.595545 -179.471861 
L 127.211352 -180.23181 
L 127.82716 -180.99176 
L 128.442968 -181.75171 
L 129.058775 -182.51166 
L 129.674583 -183.271609 
L 130.29039 -184.031559 
L 130.906198 -184.791509 
L 131.522006 -185.551459 
L 132.137813 -186.311408 
L 132.753621 -187.071358 
L 133.369428 -187.831308 
L 133.985236 -188.591258 
L 134.601044 -189.351207 
L 135.216851 -190.111157 
L 135.832659 -190.871107 
L 136.448466 -191.631057 
L 137.064274 -192.391006 
L 137.680082 -193.150956 
L 138.295889 -193.910906 
L 138.911697 -194.670856 
L 139.527504 -195.430805 
L 140.143312 -196.190755 
L 140.75912 -196.950705 
L 141.374927 -197.710655 
L 141.990735 -198.470604 
L 142.606543 -199.230554 
L 143.22235 -199.990504 
L 143.838158 -200.750454 
L 144.453965 -201.510403 
L 145.069773 -202.270353 
L 145.685581 -203.030303 
L 146.301388 -203.790253 
L 146.917196 -204.550202 
L 147.533003 -205.310152 
L 148.148811 -206.070102 
L 148.764619 -206.830052 
L 149.380426 -207.590001 
L 149.996234 -208.349951 
L 150.612041 -209.109901 
L 151.227849 -209.869851 
L 151.843657 -210.6298 
L 152.459464 -211.38975 
L 152.459464 -211.38975 
L 152.459464 -211.38975 
L 151.843657 -211.38975 
L 151.227849 -211.38975 
L 150.612041 -211.38975 
L 149.996234 -211.38975 
L 149.380426 -211.38975 
L 148.764619 -211.38975 
L 148.148811 -211.38975 
L 147.533003 -211.38975 
L 146.917196 -211.38975 
L 146.301388 -211.38975 
L 145.685581 -211.38975 
L 145.069773 -211.38975 
L 144.453965 -211.38975 
L 143.838158 -211.38975 
L 143.22235 -211.38975 
L 142.606543 -211.38975 
L 141.990735 -211.38975 
L 141.374927 -211.38975 
L 140.75912 -211.38975 
L 140.143312 -211.38975 
L 139.527504 -211.38975 
L 138.911697 -211.38975 
L 138.295889 -211.38975 
L 137.680082 -211.38975 
L 137.064274 -211.38975 
L 136.448466 -211.38975 
L 135.832659 -211.38975 
L 135.216851 -211.38975 
L 134.601044 -211.38975 
L 133.985236 -211.38975 
L 133.369428 -211.38975 
L 132.753621 -211.38975 
L 132.137813 -211.38975 
L 131.522006 -211.38975 
L 130.906198 -211.38975 
L 130.29039 -211.38975 
L 129.674583 -211.38975 
L 129.058775 -211.38975 
L 128.442968 -211.38975 
L 127.82716 -211.38975 
L 127.211352 -211.38975 
L 126.595545 -211.38975 
L 125.979737 -211.38975 
L 125.363929 -211.38975 
L 124.748122 -211.38975 
L 124.132314 -211.38975 
L 123.516507 -211.38975 
L 122.900699 -211.38975 
L 122.284891 -211.38975 
L 121.669084 -211.38975 
L 121.053276 -211.38975 
L 120.437469 -211.38975 
L 119.821661 -211.38975 
L 119.205853 -211.38975 
L 118.590046 -211.38975 
L 117.974238 -211.38975 
L 117.358431 -211.38975 
L 116.742623 -211.38975 
L 116.126815 -211.38975 
L 115.511008 -211.38975 
L 114.8952 -211.38975 
L 114.279392 -211.38975 
L 113.663585 -211.38975 
L 113.047777 -211.38975 
L 112.43197 -211.38975 
L 111.816162 -211.38975 
L 111.200354 -211.38975 
L 110.584547 -211.38975 
L 109.968739 -211.38975 
L 109.352932 -211.38975 
L 108.737124 -211.38975 
L 108.121316 -211.38975 
L 107.505509 -211.38975 
L 106.889701 -211.38975 
L 106.273894 -211.38975 
L 105.658086 -211.38975 
L 105.042278 -211.38975 
L 104.426471 -211.38975 
L 103.810663 -211.38975 
L 103.194856 -211.38975 
L 102.579048 -211.38975 
L 101.96324 -211.38975 
L 101.347433 -211.38975 
L 100.731625 -211.38975 
L 100.115817 -211.38975 
L 99.50001 -211.38975 
L 98.884202 -211.38975 
L 98.268395 -211.38975 
L 97.652587 -211.38975 
L 97.036779 -211.38975 
L 96.420972 -211.38975 
L 95.805164 -211.38975 
L 95.189357 -211.38975 
L 94.573549 -211.38975 
L 93.957741 -211.38975 
L 93.341934 -211.38975 
L 92.726126 -211.38975 
L 92.110319 -211.38975 
L 91.494511 -211.38975 
L 90.878703 -211.38975 
L 90.262896 -211.38975 
L 89.647088 -211.38975 
L 89.031281 -211.38975 
L 88.415473 -211.38975 
L 87.799665 -211.38975 
L 87.183858 -211.38975 
L 86.56805 -211.38975 
L 85.952242 -211.38975 
L 85.336435 -211.38975 
L 84.720627 -211.38975 
L 84.10482 -211.38975 
L 83.489012 -211.38975 
L 82.873204 -211.38975 
L 82.257397 -211.38975 
L 81.641589 -211.38975 
L 81.025782 -211.38975 
L 80.409974 -211.38975 
L 79.794166 -211.38975 
L 79.178359 -211.38975 
L 78.562551 -211.38975 
L 77.946744 -211.38975 
L 77.330936 -211.38975 
L 76.715128 -211.38975 
L 76.099321 -211.38975 
L 75.483513 -211.38975 
L 74.867705 -211.38975 
L 74.251898 -211.38975 
L 73.63609 -211.38975 
L 73.020283 -211.38975 
L 72.404475 -211.38975 
L 71.788667 -211.38975 
L 71.17286 -211.38975 
L 70.557052 -211.38975 
L 69.941245 -211.38975 
L 69.325437 -211.38975 
L 68.709629 -211.38975 
L 68.093822 -211.38975 
L 67.478014 -211.38975 
L 66.862207 -211.38975 
L 66.246399 -211.38975 
L 65.630591 -211.38975 
L 65.014784 -211.38975 
L 64.398976 -211.38975 
L 63.783169 -211.38975 
L 63.167361 -211.38975 
L 62.551553 -211.38975 
L 61.935746 -211.38975 
L 61.319938 -211.38975 
L 60.70413 -211.38975 
L 60.088323 -211.38975 
L 59.472515 -211.38975 
L 58.856708 -211.38975 
L 58.2409 -211.38975 
L 57.625092 -211.38975 
L 57.009285 -211.38975 
L 56.393477 -211.38975 
L 55.77767 -211.38975 
L 55.161862 -211.38975 
L 54.546054 -211.38975 
L 53.930247 -211.38975 
L 53.314439 -211.38975 
L 52.698632 -211.38975 
L 52.082824 -211.38975 
L 51.467016 -211.38975 
L 50.851209 -211.38975 
L 50.235401 -211.38975 
L 49.619594 -211.38975 
L 49.003786 -211.38975 
L 48.387978 -211.38975 
L 47.772171 -211.38975 
L 47.156363 -211.38975 
L 46.540555 -211.38975 
L 45.924748 -211.38975 
L 45.30894 -211.38975 
L 44.693133 -211.38975 
L 44.077325 -211.38975 
L 43.461517 -211.38975 
L 42.84571 -211.38975 
L 42.229902 -211.38975 
L 41.614095 -211.38975 
L 40.998287 -211.38975 
L 40.382479 -211.38975 
L 39.766672 -211.38975 
L 39.150864 -211.38975 
L 38.535057 -211.38975 
L 37.919249 -211.38975 
L 37.303441 -211.38975 
L 36.687634 -211.38975 
L 36.071826 -211.38975 
L 35.456018 -211.38975 
L 34.840211 -211.38975 
L 34.224403 -211.38975 
L 33.608596 -211.38975 
L 32.992788 -211.38975 
L 32.37698 -211.38975 
L 31.761173 -211.38975 
L 31.145365 -211.38975 
L 30.529558 -211.38975 
L 29.91375 -211.38975 
z
" style="stroke: #dc2626; stroke-opacity: 0.2"/>
    </defs>
    <g clip-path="url(#p9cf561026a)">
     <use xlink:href="#m360034e4fd" x="0" y="343.17375" style="fill: #dc2626; fill-opacity: 0.2; stroke: #dc2626; stroke-opacity: 0.2"/>
    </g>
   </g>
   <g id="line2d_29">
    <path d="M 29.91375 56.169 
L 470.62375 328.102513 
L 470.62375 328.102513 
" clip-path="url(#p9cf561026a)" style="fill: none; stroke: #2563eb; stroke-width: 2.5; stroke-linecap: round"/>
   </g>
   <g id="line2d_30">
    <path d="M 29.91375 283.014 
L 260.057891 -1 
L 260.057891 -1 
" clip-path="url(#p9cf561026a)" style="fill: none; stroke: #dc2626; stroke-width: 2.5; stroke-linecap: round"/>
   </g>
   <g id="line2d_31">
    <path d="M 29.91375 71.292 
L 458.82375 71.292 
" clip-path="url(#p9cf561026a)" style="fill: none; stroke-dasharray: 7.4,3.2; stroke-dashoffset: 0; stroke: #f59e0b; stroke-width: 2"/>
   </g>
   <g id="patch_3">
    <path d="M 29.91375 313.26 
L 29.91375 10.8 
" style="fill: none; stroke: #cccccc; stroke-linejoin: miter; stroke-linecap: square"/>
   </g>
   <g id="patch_4">
    <path d="M 458.82375 313.26 
L 458.82375 10.8 
" style="fill: none; stroke: #cccccc; stroke-linejoin: miter; stroke-linecap: square"/>
   </g>
   <g id="patch_5">
    <path d="M 29.91375 313.26 
L 458.82375 313.26 
" style="fill: none; stroke: #cccccc; stroke-linejoin: miter; stroke-linecap: square"/>
   </g>
   <g id="patch_6">
    <path d="M 29.91375 10.8 
L 458.82375 10.8 
" style="fill: none; stroke: #cccccc; stroke-linejoin: miter; stroke-linecap: square"/>
   </g>
   <g id="patch_7">
    <path d="M 230.04706 91.211267 
Q 192.139998 111.033934 155.223684 130.338512 
" style="fill: none; stroke: #000000; stroke-linecap: round"/>
    <path d="M 159.247942 130.265368 
L 155.223684 130.338512 
L 157.579724 127.075219 
" style="fill: none; stroke: #000000; stroke-linecap: round"/>
   </g>
   <g id="text_3">
    <!-- Equilibrium -->
    <g style="fill: #262626" transform="translate(213.732321 86.415) scale(0.09 -0.09)">
     <defs>
      <path id="DejaVuSerif-Bold-45" d="M 300 0 
L 300 378 
L 897 378 
L 897 4288 
L 300 4288 
L 300 4666 
L 4494 4666 
L 4494 3566 
L 4063 3566 
L 4063 4238 
L 2100 4238 
L 2100 2741 
L 3322 2741 
L 3322 3334 
L 3750 3334 
L 3750 1722 
L 3322 1722 
L 3322 2316 
L 2100 2316 
L 2100 428 
L 4122 428 
L 4122 1100 
L 4550 1100 
L 4550 0 
L 300 0 
z
" transform="scale(0.015625)"/>
      <path id="DejaVuSerif-Bold-71" d="M 3853 2944 
L 3853 -953 
L 4325 -953 
L 4325 -1331 
L 2234 -1331 
L 2234 -953 
L 2747 -953 
L 2747 422 
Q 2606 163 2367 36 
Q 2128 -91 1778 -91 
Q 1072 -91 667 378 
Q 263 847 263 1663 
Q 263 2481 667 2947 
Q 1072 3413 1778 3413 
Q 2128 3413 2367 3286 
Q 2606 3159 2747 2900 
L 2747 3322 
L 4325 3322 
L 4325 2944 
L 3853 2944 
z
M 2747 1825 
Q 2747 2406 2597 2665 
Q 2447 2925 2119 2925 
Q 1775 2925 1636 2651 
Q 1497 2378 1497 1663 
Q 1497 947 1637 672 
Q 1778 397 2119 397 
Q 2447 397 2597 656 
Q 2747 916 2747 1497 
L 2747 1825 
z
" transform="scale(0.015625)"/>
      <path id="DejaVuSerif-Bold-75" d="M 3963 3322 
L 3963 378 
L 4434 378 
L 4434 0 
L 2853 0 
L 2853 469 
Q 2656 172 2400 40 
Q 2144 -91 1753 -91 
Q 1194 -91 908 239 
Q 622 569 622 1209 
L 622 2944 
L 147 2944 
L 147 3322 
L 1728 3322 
L 1728 1381 
Q 1728 763 1831 595 
Q 1934 428 2209 428 
Q 2544 428 2698 675 
Q 2853 922 2853 1459 
L 2853 2944 
L 2450 2944 
L 2450 3322 
L 3963 3322 
z
" transform="scale(0.015625)"/>
      <path id="DejaVuSerif-Bold-69" d="M 588 4263 
Q 588 4516 763 4689 
Q 938 4863 1191 4863 
Q 1438 4863 1611 4689 
Q 1784 4516 1784 4263 
Q 1784 4016 1611 3842 
Q 1438 3669 1191 3669 
Q 938 3669 763 3841 
Q 588 4013 588 4263 
z
M 1797 378 
L 2272 378 
L 2272 0 
L 219 0 
L 219 378 
L 691 378 
L 691 2944 
L 219 2944 
L 219 3322 
L 1797 3322 
L 1797 378 
z
" transform="scale(0.015625)"/>
      <path id="DejaVuSerif-Bold-6c" d="M 1797 378 
L 2272 378 
L 2272 0 
L 219 0 
L 219 378 
L 691 378 
L 691 4488 
L 219 4488 
L 219 4863 
L 1797 4863 
L 1797 378 
z
" transform="scale(0.015625)"/>
      <path id="DejaVuSerif-Bold-62" d="M 622 378 
L 622 4488 
L 147 4488 
L 147 4863 
L 1728 4863 
L 1728 2900 
Q 1869 3159 2106 3286 
Q 2344 3413 2694 3413 
Q 3403 3413 3811 2945 
Q 4219 2478 4219 1663 
Q 4219 847 3811 378 
Q 3403 -91 2694 -91 
Q 2344 -91 2106 36 
Q 1869 163 1728 422 
L 1728 0 
L 147 0 
L 147 378 
L 622 378 
z
M 1728 1497 
Q 1728 916 1876 656 
Q 2025 397 2356 397 
Q 2697 397 2836 672 
Q 2975 947 2975 1663 
Q 2975 2378 2836 2651 
Q 2697 2925 2356 2925 
Q 2025 2925 1876 2665 
Q 1728 2406 1728 1825 
L 1728 1497 
z
" transform="scale(0.015625)"/>
      <path id="DejaVuSerif-Bold-72" d="M 3438 3359 
L 3438 2369 
L 3084 2369 
Q 3066 2634 2941 2764 
Q 2816 2894 2578 2894 
Q 2216 2894 2006 2575 
Q 1797 2256 1797 1691 
L 1797 378 
L 2400 378 
L 2400 0 
L 219 0 
L 219 378 
L 691 378 
L 691 2944 
L 184 2944 
L 184 3322 
L 1797 3322 
L 1797 2731 
Q 1959 3078 2226 3245 
Q 2494 3413 2881 3413 
Q 2978 3413 3117 3398 
Q 3256 3384 3438 3359 
z
" transform="scale(0.015625)"/>
      <path id="DejaVuSerif-Bold-6d" d="M 3884 2778 
Q 4116 3109 4384 3261 
Q 4653 3413 5013 3413 
Q 5584 3413 5867 3089 
Q 6150 2766 6150 2113 
L 6150 378 
L 6625 378 
L 6625 0 
L 4647 0 
L 4647 378 
L 5044 378 
L 5044 1947 
Q 5044 2569 4948 2731 
Q 4853 2894 4594 2894 
Q 4300 2894 4137 2667 
Q 3975 2441 3975 2022 
L 3975 378 
L 4372 378 
L 4372 0 
L 2472 0 
L 2472 378 
L 2869 378 
L 2869 1947 
Q 2869 2569 2772 2731 
Q 2675 2894 2419 2894 
Q 2122 2894 1959 2667 
Q 1797 2441 1797 2022 
L 1797 378 
L 2194 378 
L 2194 0 
L 219 0 
L 219 378 
L 691 378 
L 691 2944 
L 219 2944 
L 219 3322 
L 1797 3322 
L 1797 2853 
Q 1991 3144 2241 3278 
Q 2491 3413 2834 3413 
Q 3241 3413 3494 3258 
Q 3747 3103 3884 2778 
z
" transform="scale(0.015625)"/>
     </defs>
     <use xlink:href="#DejaVuSerif-Bold-45"/>
     <use xlink:href="#DejaVuSerif-Bold-71" transform="translate(76.220703 0)"/>
     <use xlink:href="#DejaVuSerif-Bold-75" transform="translate(146.142578 0)"/>
     <use xlink:href="#DejaVuSerif-Bold-69" transform="translate(218.847656 0)"/>
     <use xlink:href="#DejaVuSerif-Bold-6c" transform="translate(256.835938 0)"/>
     <use xlink:href="#DejaVuSerif-Bold-69" transform="translate(294.824219 0)"/>
     <use xlink:href="#DejaVuSerif-Bold-62" transform="translate(332.8125 0)"/>
     <use xlink:href="#DejaVuSerif-Bold-72" transform="translate(402.734375 0)"/>
     <use xlink:href="#DejaVuSerif-Bold-69" transform="translate(455.419922 0)"/>
     <use xlink:href="#DejaVuSerif-Bold-75" transform="translate(493.408203 0)"/>
     <use xlink:href="#DejaVuSerif-Bold-6d" transform="translate(566.113281 0)"/>
    </g>
   </g>
   <g id="line2d_32">
    <defs>
     <path id="ma6e72530e2" d="M 0 5 
C 1.326016 5 2.597899 4.473168 3.535534 3.535534 
C 4.473168 2.597899 5 1.326016 5 0 
C 5 -1.326016 4.473168 -2.597899 3.535534 -3.535534 
C 2.597899 -4.473168 1.326016 -5 0 -5 
C -1.326016 -5 -2.597899 -4.473168 -3.535534 -3.535534 
C -4.473168 -2.597899 -5 -1.326016 -5 0 
C -5 1.326016 -4.473168 2.597899 -3.535534 3.535534 
C -2.597899 4.473168 -1.326016 5 0 5 
z
" style="stroke: #000000"/>
    </defs>
    <g clip-path="url(#p9cf561026a)">
     <use xlink:href="#ma6e72530e2" x="152.459464" y="131.784" style="stroke: #000000"/>
    </g>
   </g>
   <g id="legend_1">
    <g id="line2d_33">
     <path d="M 353.795 21.27875 
L 361.795 21.27875 
L 369.795 21.27875 
" style="fill: none; stroke: #2563eb; stroke-width: 2.5; stroke-linecap: round"/>
    </g>
    <g id="text_4">
     <!-- Demand -->
     <g style="fill: #262626" transform="translate(376.195 24.07875) scale(0.08 -0.08)">
      <defs>
       <path id="DejaVuSerif-44" d="M 1581 331 
L 2163 331 
Q 3072 331 3558 850 
Q 4044 1369 4044 2338 
Q 4044 3306 3559 3818 
Q 3075 4331 2163 4331 
L 1581 4331 
L 1581 331 
z
M 353 0 
L 353 331 
L 947 331 
L 947 4331 
L 353 4331 
L 353 4666 
L 2209 4666 
Q 3416 4666 4089 4050 
Q 4763 3434 4763 2338 
Q 4763 1238 4088 619 
Q 3413 0 2209 0 
L 353 0 
z
" transform="scale(0.015625)"/>
       <path id="DejaVuSerif-6d" d="M 3316 2675 
Q 3481 3041 3739 3227 
Q 3997 3413 4341 3413 
Q 4863 3413 5119 3089 
Q 5375 2766 5375 2113 
L 5375 331 
L 5894 331 
L 5894 0 
L 4300 0 
L 4300 331 
L 4800 331 
L 4800 2047 
Q 4800 2556 4650 2772 
Q 4500 2988 4153 2988 
Q 3769 2988 3567 2697 
Q 3366 2406 3366 1850 
L 3366 331 
L 3866 331 
L 3866 0 
L 2291 0 
L 2291 331 
L 2791 331 
L 2791 2069 
Q 2791 2566 2641 2777 
Q 2491 2988 2144 2988 
Q 1759 2988 1557 2697 
Q 1356 2406 1356 1850 
L 1356 331 
L 1856 331 
L 1856 0 
L 263 0 
L 263 331 
L 781 331 
L 781 2994 
L 231 2994 
L 231 3322 
L 1356 3322 
L 1356 2731 
Q 1516 3063 1762 3238 
Q 2009 3413 2322 3413 
Q 2709 3413 2968 3220 
Q 3228 3028 3316 2675 
z
" transform="scale(0.015625)"/>
       <path id="DejaVuSerif-64" d="M 3359 331 
L 3909 331 
L 3909 0 
L 2784 0 
L 2784 519 
Q 2616 206 2355 57 
Q 2094 -91 1709 -91 
Q 1097 -91 708 395 
Q 319 881 319 1663 
Q 319 2444 706 2928 
Q 1094 3413 1709 3413 
Q 2094 3413 2355 3264 
Q 2616 3116 2784 2803 
L 2784 4531 
L 2241 4531 
L 2241 4863 
L 3359 4863 
L 3359 331 
z
M 2784 1497 
L 2784 1825 
Q 2784 2422 2554 2737 
Q 2325 3053 1888 3053 
Q 1444 3053 1217 2703 
Q 991 2353 991 1663 
Q 991 975 1217 622 
Q 1444 269 1888 269 
Q 2325 269 2554 583 
Q 2784 897 2784 1497 
z
" transform="scale(0.015625)"/>
      </defs>
      <use xlink:href="#DejaVuSerif-44"/>
      <use xlink:href="#DejaVuSerif-65" transform="translate(80.175781 0)"/>
      <use xlink:href="#DejaVuSerif-6d" transform="translate(139.355469 0)"/>
      <use xlink:href="#DejaVuSerif-61" transform="translate(234.179688 0)"/>
      <use xlink:href="#DejaVuSerif-6e" transform="translate(293.798828 0)"/>
      <use xlink:href="#DejaVuSerif-64" transform="translate(358.203125 0)"/>
     </g>
    </g>
    <g id="line2d_34">
     <path d="M 353.795 33.02125 
L 361.795 33.02125 
L 369.795 33.02125 
" style="fill: none; stroke: #dc2626; stroke-width: 2.5; stroke-linecap: round"/>
    </g>
    <g id="text_5">
     <!-- Supply -->
     <g style="fill: #262626" transform="translate(376.195 35.82125) scale(0.08 -0.08)">
      <defs>
       <path id="DejaVuSerif-53" d="M 594 225 
L 594 1288 
L 953 1284 
Q 969 753 1261 498 
Q 1553 244 2150 244 
Q 2706 244 2998 464 
Q 3291 684 3291 1106 
Q 3291 1444 3114 1625 
Q 2938 1806 2369 1978 
L 1753 2163 
Q 1084 2366 811 2669 
Q 538 2972 538 3500 
Q 538 4094 959 4422 
Q 1381 4750 2144 4750 
Q 2469 4750 2856 4679 
Q 3244 4609 3681 4475 
L 3681 3481 
L 3328 3481 
Q 3275 3975 2998 4195 
Q 2722 4416 2156 4416 
Q 1663 4416 1405 4214 
Q 1147 4013 1147 3628 
Q 1147 3294 1340 3103 
Q 1534 2913 2163 2725 
L 2741 2553 
Q 3375 2363 3645 2067 
Q 3916 1772 3916 1275 
Q 3916 597 3481 253 
Q 3047 -91 2188 -91 
Q 1803 -91 1404 -12 
Q 1006 66 594 225 
z
" transform="scale(0.015625)"/>
       <path id="DejaVuSerif-70" d="M 1313 1825 
L 1313 1497 
Q 1313 897 1542 583 
Q 1772 269 2209 269 
Q 2650 269 2876 622 
Q 3103 975 3103 1663 
Q 3103 2353 2876 2703 
Q 2650 3053 2209 3053 
Q 1772 3053 1542 2737 
Q 1313 2422 1313 1825 
z
M 738 2988 
L 184 2988 
L 184 3322 
L 1313 3322 
L 1313 2803 
Q 1481 3116 1742 3264 
Q 2003 3413 2388 3413 
Q 3000 3413 3387 2928 
Q 3775 2444 3775 1663 
Q 3775 881 3387 395 
Q 3000 -91 2388 -91 
Q 2003 -91 1742 57 
Q 1481 206 1313 519 
L 1313 -997 
L 1856 -997 
L 1856 -1331 
L 184 -1331 
L 184 -997 
L 738 -997 
L 738 2988 
z
" transform="scale(0.015625)"/>
       <path id="DejaVuSerif-6c" d="M 1313 331 
L 1856 331 
L 1856 0 
L 184 0 
L 184 331 
L 738 331 
L 738 4531 
L 184 4531 
L 184 4863 
L 1313 4863 
L 1313 331 
z
" transform="scale(0.015625)"/>
      </defs>
      <use xlink:href="#DejaVuSerif-53"/>
      <use xlink:href="#DejaVuSerif-75" transform="translate(68.505859 0)"/>
      <use xlink:href="#DejaVuSerif-70" transform="translate(132.910156 0)"/>
      <use xlink:href="#DejaVuSerif-70" transform="translate(196.923828 0)"/>
      <use xlink:href="#DejaVuSerif-6c" transform="translate(260.9375 0)"/>
      <use xlink:href="#DejaVuSerif-79" transform="translate(292.919922 0)"/>
     </g>
    </g>
    <g id="patch_8">
     <path d="M 353.795 47.6775 
L 369.795 47.6775 
L 369.795 42.0775 
L 353.795 42.0775 
z
" style="fill: #2563eb; fill-opacity: 0.2; stroke: #2563eb; stroke-opacity: 0.2; stroke-linejoin: miter"/>
    </g>
    <g id="text_6">
     <!-- Consumer Surplus -->
     <g style="fill: #262626" transform="translate(376.195 47.6775) scale(0.08 -0.08)">
      <defs>
       <path id="DejaVuSerif-43" d="M 4513 1234 
Q 4306 581 3820 245 
Q 3334 -91 2591 -91 
Q 2134 -91 1743 65 
Q 1353 222 1050 525 
Q 700 875 529 1320 
Q 359 1766 359 2328 
Q 359 3416 987 4083 
Q 1616 4750 2644 4750 
Q 3025 4750 3456 4650 
Q 3888 4550 4384 4347 
L 4384 3272 
L 4031 3272 
Q 3916 3859 3567 4137 
Q 3219 4416 2591 4416 
Q 1844 4416 1459 3886 
Q 1075 3356 1075 2328 
Q 1075 1303 1459 773 
Q 1844 244 2591 244 
Q 3113 244 3450 492 
Q 3788 741 3938 1234 
L 4513 1234 
z
" transform="scale(0.015625)"/>
       <path id="DejaVuSerif-6f" d="M 1925 219 
Q 2388 219 2623 584 
Q 2859 950 2859 1663 
Q 2859 2375 2623 2739 
Q 2388 3103 1925 3103 
Q 1463 3103 1227 2739 
Q 991 2375 991 1663 
Q 991 950 1228 584 
Q 1466 219 1925 219 
z
M 1925 -91 
Q 1200 -91 759 389 
Q 319 869 319 1663 
Q 319 2456 758 2934 
Q 1197 3413 1925 3413 
Q 2653 3413 3092 2934 
Q 3531 2456 3531 1663 
Q 3531 869 3092 389 
Q 2653 -91 1925 -91 
z
" transform="scale(0.015625)"/>
       <path id="DejaVuSerif-73" d="M 359 184 
L 359 959 
L 691 959 
Q 703 588 923 403 
Q 1144 219 1575 219 
Q 1963 219 2166 364 
Q 2369 509 2369 788 
Q 2369 1006 2220 1140 
Q 2072 1275 1594 1428 
L 1178 1569 
Q 750 1706 558 1912 
Q 366 2119 366 2438 
Q 366 2894 700 3153 
Q 1034 3413 1625 3413 
Q 1888 3413 2178 3344 
Q 2469 3275 2778 3144 
L 2778 2419 
L 2447 2419 
Q 2434 2741 2221 2922 
Q 2009 3103 1644 3103 
Q 1281 3103 1095 2975 
Q 909 2847 909 2591 
Q 909 2381 1050 2254 
Q 1191 2128 1613 1997 
L 2069 1856 
Q 2541 1709 2748 1489 
Q 2956 1269 2956 922 
Q 2956 450 2595 179 
Q 2234 -91 1600 -91 
Q 1278 -91 972 -22 
Q 666 47 359 184 
z
" transform="scale(0.015625)"/>
       <path id="DejaVuSerif-20" transform="scale(0.015625)"/>
      </defs>
      <use xlink:href="#DejaVuSerif-43"/>
      <use xlink:href="#DejaVuSerif-6f" transform="translate(76.513672 0)"/>
      <use xlink:href="#DejaVuSerif-6e" transform="translate(136.71875 0)"/>
      <use xlink:href="#DejaVuSerif-73" transform="translate(201.123047 0)"/>
      <use xlink:href="#DejaVuSerif-75" transform="translate(252.441406 0)"/>
      <use xlink:href="#DejaVuSerif-6d" transform="translate(316.845703 0)"/>
      <use xlink:href="#DejaVuSerif-65" transform="translate(411.669922 0)"/>
      <use xlink:href="#DejaVuSerif-72" transform="translate(470.849609 0)"/>
      <use xlink:href="#DejaVuSerif-20" transform="translate(518.652344 0)"/>
      <use xlink:href="#DejaVuSerif-53" transform="translate(550.439453 0)"/>
      <use xlink:href="#DejaVuSerif-75" transform="translate(618.945312 0)"/>
      <use xlink:href="#DejaVuSerif-72" transform="translate(683.349609 0)"/>
      <use xlink:href="#DejaVuSerif-70" transform="translate(731.152344 0)"/>
      <use xlink:href="#DejaVuSerif-6c" transform="translate(795.166016 0)"/>
      <use xlink:href="#DejaVuSerif-75" transform="translate(827.148438 0)"/>
      <use xlink:href="#DejaVuSerif-73" transform="translate(891.552734 0)"/>
     </g>
    </g>
    <g id="patch_9">
     <path d="M 353.795 59.42 
L 369.795 59.42 
L 369.795 53.82 
L 353.795 53.82 
z
" style="fill: #dc2626; fill-opacity: 0.2; stroke: #dc2626; stroke-opacity: 0.2; stroke-linejoin: miter"/>
    </g>
    <g id="text_7">
     <!-- Producer Surplus -->
     <g style="fill: #262626" transform="translate(376.195 59.42) scale(0.08 -0.08)">
      <use xlink:href="#DejaVuSerif-50"/>
      <use xlink:href="#DejaVuSerif-72" transform="translate(67.285156 0)"/>
      <use xlink:href="#DejaVuSerif-6f" transform="translate(115.087891 0)"/>
      <use xlink:href="#DejaVuSerif-64" transform="translate(175.292969 0)"/>
      <use xlink:href="#DejaVuSerif-75" transform="translate(239.306641 0)"/>
      <use xlink:href="#DejaVuSerif-63" transform="translate(303.710938 0)"/>
      <use xlink:href="#DejaVuSerif-65" transform="translate(359.716797 0)"/>
      <use xlink:href="#DejaVuSerif-72" transform="translate(418.896484 0)"/>
      <use xlink:href="#DejaVuSerif-20" transform="translate(466.699219 0)"/>
      <use xlink:href="#DejaVuSerif-53" transform="translate(498.486328 0)"/>
      <use xlink:href="#DejaVuSerif-75" transform="translate(566.992188 0)"/>
      <use xlink:href="#DejaVuSerif-72" transform="translate(631.396484 0)"/>
      <use xlink:href="#DejaVuSerif-70" transform="translate(679.199219 0)"/>
      <use xlink:href="#DejaVuSerif-6c" transform="translate(743.212891 0)"/>
      <use xlink:href="#DejaVuSerif-75" transform="translate(775.195312 0)"/>
      <use xlink:href="#DejaVuSerif-73" transform="translate(839.599609 0)"/>
     </g>
    </g>
    <g id="line2d_35">
     <path d="M 353.795 68.3625 
L 361.795 68.3625 
L 369.795 68.3625 
" style="fill: none; stroke-dasharray: 7.4,3.2; stroke-dashoffset: 0; stroke: #f59e0b; stroke-width: 2"/>
    </g>
    <g id="text_8">
     <!-- Price floor -->
     <g style="fill: #262626" transform="translate(376.195 71.1625) scale(0.08 -0.08)">
      <defs>
       <path id="DejaVuSerif-66" d="M 2753 4078 
L 2450 4078 
Q 2447 4313 2317 4434 
Q 2188 4556 1941 4556 
Q 1619 4556 1487 4379 
Q 1356 4203 1356 3750 
L 1356 3322 
L 2284 3322 
L 2284 2988 
L 1356 2988 
L 1356 331 
L 2094 331 
L 2094 0 
L 231 0 
L 231 331 
L 781 331 
L 781 2988 
L 231 2988 
L 231 3322 
L 781 3322 
L 781 3738 
Q 781 4294 1070 4578 
Q 1359 4863 1919 4863 
Q 2128 4863 2337 4825 
Q 2547 4788 2753 4709 
L 2753 4078 
z
" transform="scale(0.015625)"/>
      </defs>
      <use xlink:href="#DejaVuSerif-50"/>
      <use xlink:href="#DejaVuSerif-72" transform="translate(67.285156 0)"/>
      <use xlink:href="#DejaVuSerif-69" transform="translate(115.087891 0)"/>
      <use xlink:href="#DejaVuSerif-63" transform="translate(147.070312 0)"/>
      <use xlink:href="#DejaVuSerif-65" transform="translate(203.076172 0)"/>
      <use xlink:href="#DejaVuSerif-20" transform="translate(262.255859 0)"/>
      <use xlink:href="#DejaVuSerif-66" transform="translate(294.042969 0)"/>
      <use xlink:href="#DejaVuSerif-6c" transform="translate(331.054688 0)"/>
      <use xlink:href="#DejaVuSerif-6f" transform="translate(363.037109 0)"/>
      <use xlink:href="#DejaVuSerif-6f" transform="translate(423.242188 0)"/>
      <use xlink:href="#DejaVuSerif-72" transform="translate(483.447266 0)"/>
     </g>
    </g>
   </g>
  </g>
 </g>
 <defs>
  <clipPath id="p9cf561026a">
   <rect x="29.91375" y="10.8" width="428.91" height="302.46"/>
  </clipPath>
 </defs>
</svg>
