<?xml version="1.0" encoding="utf-8" standalone="no"?>
<!DOCTYPE svg PUBLIC "-//W3C//DTD SVG 1.1//EN"
  "http://www.w3.org/Graphics/SVG/1.1/DTD/svg11.dtd">
<svg xmlns:xlink="http://www.w3.org/1999/xlink" width="998.030156pt" height="314.377656pt" viewBox="0 0 998.030156 314.377656" xmlns="http://www.w3.org/2000/svg" version="1.1">
 <metadata>
  <rdf:RDF xmlns:dc="http://purl.org/dc/elements/1.1/" xmlns:cc="http://creativecommons.org/ns#" xmlns:rdf="http://www.w3.org/1999/02/22-rdf-syntax-ns#">
   <cc:Work>
    <dc:type rdf:resource="http://purl.org/dc/dcmitype/StillImage"/>
    <dc:date>2026-01-30T14:53:29.300916</dc:date>
    <dc:format>image/svg+xml</dc:format>
    <dc:creator>
     <cc:Agent>
      <dc:title>Matplotlib v3.10.1, https://matplotlib.org/</dc:title>
     </cc:Agent>
    </dc:creator>
   </cc:Work>
  </rdf:RDF>
 </metadata>
 <defs>
  <style type="text/css">*{stroke-linejoin: round; stroke-linecap: butt}</style>
 </defs>
 <g id="figure_1">
  <g id="patch_1">
   <path d="M 0 314.377656 
L 998.030156 314.377656 
L 998.030156 0 
L 0 0 
z
" style="fill: #ffffff"/>
  </g>
  <g id="axes_1">
   <g id="patch_2">
    <path d="M 42.530156 277.417969 
L 311.840118 277.417969 
L 311.840118 23.077969 
L 42.530156 23.077969 
z
" style="fill: #ffffff"/>
   </g>
   <g id="matplotlib.axis_1">
    <g id="xtick_1">
     <g id="line2d_1">
      <path d="M 61.766582 277.417969 
L 61.766582 23.077969 
" clip-path="url(#pff69c7e6da)" style="fill: none; stroke: #cccccc; stroke-width: 0.8; stroke-linecap: round"/>
     </g>
     <g id="line2d_2"/>
     <g id="text_1">
      <!-- −2 -->
      <g style="fill: #262626" transform="translate(53.658379 289.27625) scale(0.11 -0.11)">
       <defs>
        <path id="DejaVuSerif-2212" d="M 678 2259 
L 4684 2259 
L 4684 1753 
L 678 1753 
L 678 2259 
z
" transform="scale(0.015625)"/>
        <path id="DejaVuSerif-32" d="M 819 3553 
L 469 3553 
L 469 4384 
Q 803 4563 1142 4656 
Q 1481 4750 1806 4750 
Q 2534 4750 2956 4397 
Q 3378 4044 3378 3438 
Q 3378 2753 2422 1800 
Q 2347 1728 2309 1691 
L 1131 513 
L 3078 513 
L 3078 1088 
L 3444 1088 
L 3444 0 
L 434 0 
L 434 341 
L 1850 1753 
Q 2319 2222 2519 2614 
Q 2719 3006 2719 3438 
Q 2719 3909 2473 4175 
Q 2228 4441 1797 4441 
Q 1350 4441 1106 4219 
Q 863 3997 819 3553 
z
" transform="scale(0.015625)"/>
       </defs>
       <use xlink:href="#DejaVuSerif-2212"/>
       <use xlink:href="#DejaVuSerif-32" transform="translate(83.789062 0)"/>
      </g>
     </g>
    </g>
    <g id="xtick_2">
     <g id="line2d_3">
      <path d="M 100.239434 277.417969 
L 100.239434 23.077969 
" clip-path="url(#pff69c7e6da)" style="fill: none; stroke: #cccccc; stroke-width: 0.8; stroke-linecap: round"/>
     </g>
     <g id="line2d_4"/>
     <g id="text_2">
      <!-- −1 -->
      <g style="fill: #262626" transform="translate(92.131231 289.27625) scale(0.11 -0.11)">
       <defs>
        <path id="DejaVuSerif-31" d="M 909 0 
L 909 331 
L 1722 331 
L 1722 4213 
L 781 3603 
L 781 4013 
L 1919 4750 
L 2350 4750 
L 2350 331 
L 3163 331 
L 3163 0 
L 909 0 
z
" transform="scale(0.015625)"/>
       </defs>
       <use xlink:href="#DejaVuSerif-2212"/>
       <use xlink:href="#DejaVuSerif-31" transform="translate(83.789062 0)"/>
      </g>
     </g>
    </g>
    <g id="xtick_3">
     <g id="line2d_5">
      <path d="M 138.712286 277.417969 
L 138.712286 23.077969 
" clip-path="url(#pff69c7e6da)" style="fill: none; stroke: #cccccc; stroke-width: 0.8; stroke-linecap: round"/>
     </g>
     <g id="line2d_6"/>
     <g id="text_3">
      <!-- 0 -->
      <g style="fill: #262626" transform="translate(135.212911 289.27625) scale(0.11 -0.11)">
       <defs>
        <path id="DejaVuSerif-30" d="M 2034 219 
Q 2513 219 2750 744 
Q 2988 1269 2988 2328 
Q 2988 3391 2750 3916 
Q 2513 4441 2034 4441 
Q 1556 4441 1318 3916 
Q 1081 3391 1081 2328 
Q 1081 1269 1318 744 
Q 1556 219 2034 219 
z
M 2034 -91 
Q 1275 -91 848 546 
Q 422 1184 422 2328 
Q 422 3475 848 4112 
Q 1275 4750 2034 4750 
Q 2797 4750 3222 4112 
Q 3647 3475 3647 2328 
Q 3647 1184 3222 546 
Q 2797 -91 2034 -91 
z
" transform="scale(0.015625)"/>
       </defs>
       <use xlink:href="#DejaVuSerif-30"/>
      </g>
     </g>
    </g>
    <g id="xtick_4">
     <g id="line2d_7">
      <path d="M 177.185137 277.417969 
L 177.185137 23.077969 
" clip-path="url(#pff69c7e6da)" style="fill: none; stroke: #cccccc; stroke-width: 0.8; stroke-linecap: round"/>
     </g>
     <g id="line2d_8"/>
     <g id="text_4">
      <!-- 1 -->
      <g style="fill: #262626" transform="translate(173.685762 289.27625) scale(0.11 -0.11)">
       <use xlink:href="#DejaVuSerif-31"/>
      </g>
     </g>
    </g>
    <g id="xtick_5">
     <g id="line2d_9">
      <path d="M 215.657989 277.417969 
L 215.657989 23.077969 
" clip-path="url(#pff69c7e6da)" style="fill: none; stroke: #cccccc; stroke-width: 0.8; stroke-linecap: round"/>
     </g>
     <g id="line2d_10"/>
     <g id="text_5">
      <!-- 2 -->
      <g style="fill: #262626" transform="translate(212.158614 289.27625) scale(0.11 -0.11)">
       <use xlink:href="#DejaVuSerif-32"/>
      </g>
     </g>
    </g>
    <g id="xtick_6">
     <g id="line2d_11">
      <path d="M 254.130841 277.417969 
L 254.130841 23.077969 
" clip-path="url(#pff69c7e6da)" style="fill: none; stroke: #cccccc; stroke-width: 0.8; stroke-linecap: round"/>
     </g>
     <g id="line2d_12"/>
     <g id="text_6">
      <!-- 3 -->
      <g style="fill: #262626" transform="translate(250.631466 289.27625) scale(0.11 -0.11)">
       <defs>
        <path id="DejaVuSerif-33" d="M 622 4469 
Q 988 4606 1323 4678 
Q 1659 4750 1953 4750 
Q 2638 4750 3022 4454 
Q 3406 4159 3406 3634 
Q 3406 3213 3140 2930 
Q 2875 2647 2388 2547 
Q 2963 2466 3280 2130 
Q 3597 1794 3597 1259 
Q 3597 606 3158 257 
Q 2719 -91 1894 -91 
Q 1528 -91 1179 -12 
Q 831 66 488 225 
L 488 1131 
L 838 1131 
Q 869 681 1141 450 
Q 1413 219 1906 219 
Q 2384 219 2661 495 
Q 2938 772 2938 1253 
Q 2938 1803 2653 2086 
Q 2369 2369 1819 2369 
L 1522 2369 
L 1522 2688 
L 1678 2688 
Q 2225 2688 2498 2914 
Q 2772 3141 2772 3597 
Q 2772 4006 2547 4223 
Q 2322 4441 1900 4441 
Q 1478 4441 1245 4241 
Q 1013 4041 972 3647 
L 622 3647 
L 622 4469 
z
" transform="scale(0.015625)"/>
       </defs>
       <use xlink:href="#DejaVuSerif-33"/>
      </g>
     </g>
    </g>
    <g id="xtick_7">
     <g id="line2d_13">
      <path d="M 292.603692 277.417969 
L 292.603692 23.077969 
" clip-path="url(#pff69c7e6da)" style="fill: none; stroke: #cccccc; stroke-width: 0.8; stroke-linecap: round"/>
     </g>
     <g id="line2d_14"/>
     <g id="text_7">
      <!-- 4 -->
      <g style="fill: #262626" transform="translate(289.104317 289.27625) scale(0.11 -0.11)">
       <defs>
        <path id="DejaVuSerif-34" d="M 2234 1581 
L 2234 4063 
L 641 1581 
L 2234 1581 
z
M 3609 0 
L 1484 0 
L 1484 331 
L 2234 331 
L 2234 1247 
L 197 1247 
L 197 1588 
L 2241 4750 
L 2859 4750 
L 2859 1581 
L 3750 1581 
L 3750 1247 
L 2859 1247 
L 2859 331 
L 3609 331 
L 3609 0 
z
" transform="scale(0.015625)"/>
       </defs>
       <use xlink:href="#DejaVuSerif-34"/>
      </g>
     </g>
    </g>
    <g id="text_8">
     <!-- $x$ -->
     <g style="fill: #262626" transform="translate(173.705137 304.682031) scale(0.12 -0.12)">
      <defs>
       <path id="Cmmi10-78" d="M 500 184 
Q 613 97 819 97 
Q 1019 97 1172 289 
Q 1325 481 1381 709 
L 1672 1844 
Q 1741 2153 1741 2266 
Q 1741 2425 1652 2544 
Q 1563 2663 1403 2663 
Q 1200 2663 1022 2536 
Q 844 2409 722 2214 
Q 600 2019 550 1819 
Q 538 1778 500 1778 
L 422 1778 
Q 372 1778 372 1838 
L 372 1856 
Q 434 2094 584 2320 
Q 734 2547 951 2687 
Q 1169 2828 1416 2828 
Q 1650 2828 1839 2703 
Q 2028 2578 2106 2363 
Q 2216 2559 2386 2693 
Q 2556 2828 2759 2828 
Q 2897 2828 3040 2779 
Q 3184 2731 3275 2631 
Q 3366 2531 3366 2381 
Q 3366 2219 3261 2101 
Q 3156 1984 2994 1984 
Q 2891 1984 2822 2050 
Q 2753 2116 2753 2216 
Q 2753 2350 2845 2451 
Q 2938 2553 3066 2572 
Q 2950 2663 2747 2663 
Q 2541 2663 2389 2472 
Q 2238 2281 2175 2047 
L 1894 916 
Q 1825 659 1825 494 
Q 1825 331 1917 214 
Q 2009 97 2163 97 
Q 2463 97 2698 361 
Q 2934 625 3009 941 
Q 3022 978 3059 978 
L 3138 978 
Q 3163 978 3178 961 
Q 3194 944 3194 922 
Q 3194 916 3188 903 
Q 3097 522 2806 225 
Q 2516 -72 2150 -72 
Q 1916 -72 1727 54 
Q 1538 181 1459 397 
Q 1359 209 1182 68 
Q 1006 -72 806 -72 
Q 669 -72 523 -23 
Q 378 25 287 125 
Q 197 225 197 378 
Q 197 528 301 651 
Q 406 775 563 775 
Q 669 775 741 711 
Q 813 647 813 544 
Q 813 409 723 309 
Q 634 209 500 184 
z
" transform="scale(0.015625)"/>
      </defs>
      <use xlink:href="#Cmmi10-78" transform="translate(0 0.8125)"/>
     </g>
    </g>
   </g>
   <g id="matplotlib.axis_2">
    <g id="ytick_1">
     <g id="line2d_15">
      <path d="M 42.530156 257.853353 
L 311.840118 257.853353 
" clip-path="url(#pff69c7e6da)" style="fill: none; stroke: #cccccc; stroke-width: 0.8; stroke-linecap: round"/>
     </g>
     <g id="line2d_16"/>
     <g id="text_9">
      <!-- −2 -->
      <g style="fill: #262626" transform="translate(22.81375 262.032494) scale(0.11 -0.11)">
       <use xlink:href="#DejaVuSerif-2212"/>
       <use xlink:href="#DejaVuSerif-32" transform="translate(83.789062 0)"/>
      </g>
     </g>
    </g>
    <g id="ytick_2">
     <g id="line2d_17">
      <path d="M 42.530156 218.724123 
L 311.840118 218.724123 
" clip-path="url(#pff69c7e6da)" style="fill: none; stroke: #cccccc; stroke-width: 0.8; stroke-linecap: round"/>
     </g>
     <g id="line2d_18"/>
     <g id="text_10">
      <!-- 0 -->
      <g style="fill: #262626" transform="translate(32.031406 222.903263) scale(0.11 -0.11)">
       <use xlink:href="#DejaVuSerif-30"/>
      </g>
     </g>
    </g>
    <g id="ytick_3">
     <g id="line2d_19">
      <path d="M 42.530156 179.594892 
L 311.840118 179.594892 
" clip-path="url(#pff69c7e6da)" style="fill: none; stroke: #cccccc; stroke-width: 0.8; stroke-linecap: round"/>
     </g>
     <g id="line2d_20"/>
     <g id="text_11">
      <!-- 2 -->
      <g style="fill: #262626" transform="translate(32.031406 183.774032) scale(0.11 -0.11)">
       <use xlink:href="#DejaVuSerif-32"/>
      </g>
     </g>
    </g>
    <g id="ytick_4">
     <g id="line2d_21">
      <path d="M 42.530156 140.465661 
L 311.840118 140.465661 
" clip-path="url(#pff69c7e6da)" style="fill: none; stroke: #cccccc; stroke-width: 0.8; stroke-linecap: round"/>
     </g>
     <g id="line2d_22"/>
     <g id="text_12">
      <!-- 4 -->
      <g style="fill: #262626" transform="translate(32.031406 144.644802) scale(0.11 -0.11)">
       <use xlink:href="#DejaVuSerif-34"/>
      </g>
     </g>
    </g>
    <g id="ytick_5">
     <g id="line2d_23">
      <path d="M 42.530156 101.33643 
L 311.840118 101.33643 
" clip-path="url(#pff69c7e6da)" style="fill: none; stroke: #cccccc; stroke-width: 0.8; stroke-linecap: round"/>
     </g>
     <g id="line2d_24"/>
     <g id="text_13">
      <!-- 6 -->
      <g style="fill: #262626" transform="translate(32.031406 105.515571) scale(0.11 -0.11)">
       <defs>
        <path id="DejaVuSerif-36" d="M 2094 219 
Q 2534 219 2771 542 
Q 3009 866 3009 1472 
Q 3009 2078 2771 2401 
Q 2534 2725 2094 2725 
Q 1647 2725 1412 2412 
Q 1178 2100 1178 1509 
Q 1178 888 1415 553 
Q 1653 219 2094 219 
z
M 1075 2569 
Q 1288 2803 1556 2918 
Q 1825 3034 2163 3034 
Q 2859 3034 3264 2615 
Q 3669 2197 3669 1472 
Q 3669 763 3233 336 
Q 2797 -91 2069 -91 
Q 1278 -91 853 498 
Q 428 1088 428 2181 
Q 428 3406 931 4078 
Q 1434 4750 2350 4750 
Q 2597 4750 2869 4703 
Q 3141 4656 3425 4563 
L 3425 3794 
L 3072 3794 
Q 3034 4109 2831 4275 
Q 2628 4441 2284 4441 
Q 1678 4441 1381 3981 
Q 1084 3522 1075 2569 
z
" transform="scale(0.015625)"/>
       </defs>
       <use xlink:href="#DejaVuSerif-36"/>
      </g>
     </g>
    </g>
    <g id="ytick_6">
     <g id="line2d_25">
      <path d="M 42.530156 62.2072 
L 311.840118 62.2072 
" clip-path="url(#pff69c7e6da)" style="fill: none; stroke: #cccccc; stroke-width: 0.8; stroke-linecap: round"/>
     </g>
     <g id="line2d_26"/>
     <g id="text_14">
      <!-- 8 -->
      <g style="fill: #262626" transform="translate(32.031406 66.38634) scale(0.11 -0.11)">
       <defs>
        <path id="DejaVuSerif-38" d="M 2981 1275 
Q 2981 1775 2732 2051 
Q 2484 2328 2034 2328 
Q 1584 2328 1336 2051 
Q 1088 1775 1088 1275 
Q 1088 772 1336 495 
Q 1584 219 2034 219 
Q 2484 219 2732 495 
Q 2981 772 2981 1275 
z
M 2853 3541 
Q 2853 3966 2637 4203 
Q 2422 4441 2034 4441 
Q 1650 4441 1433 4203 
Q 1216 3966 1216 3541 
Q 1216 3113 1433 2875 
Q 1650 2638 2034 2638 
Q 2422 2638 2637 2875 
Q 2853 3113 2853 3541 
z
M 2516 2484 
Q 3047 2413 3344 2092 
Q 3641 1772 3641 1275 
Q 3641 619 3225 264 
Q 2809 -91 2034 -91 
Q 1263 -91 845 264 
Q 428 619 428 1275 
Q 428 1772 725 2092 
Q 1022 2413 1556 2484 
Q 1084 2569 832 2842 
Q 581 3116 581 3541 
Q 581 4103 968 4426 
Q 1356 4750 2034 4750 
Q 2713 4750 3100 4426 
Q 3488 4103 3488 3541 
Q 3488 3116 3236 2842 
Q 2984 2569 2516 2484 
z
" transform="scale(0.015625)"/>
       </defs>
       <use xlink:href="#DejaVuSerif-38"/>
      </g>
     </g>
    </g>
    <g id="ytick_7">
     <g id="line2d_27">
      <path d="M 42.530156 23.077969 
L 311.840118 23.077969 
" clip-path="url(#pff69c7e6da)" style="fill: none; stroke: #cccccc; stroke-width: 0.8; stroke-linecap: round"/>
     </g>
     <g id="line2d_28"/>
     <g id="text_15">
      <!-- 10 -->
      <g style="fill: #262626" transform="translate(25.032656 27.257109) scale(0.11 -0.11)">
       <use xlink:href="#DejaVuSerif-31"/>
       <use xlink:href="#DejaVuSerif-30" transform="translate(63.623047 0)"/>
      </g>
     </g>
    </g>
    <g id="text_16">
     <!-- $y$ -->
     <g style="fill: #262626" transform="translate(16.29375 153.247969) rotate(-90) scale(0.12 -0.12)">
      <defs>
       <path id="Cmmi10-79" d="M 538 -916 
Q 672 -1147 1006 -1147 
Q 1309 -1147 1531 -934 
Q 1753 -722 1889 -420 
Q 2025 -119 2100 197 
Q 1816 -72 1484 -72 
Q 1231 -72 1053 15 
Q 875 103 776 276 
Q 678 450 678 697 
Q 678 906 734 1126 
Q 791 1347 892 1617 
Q 994 1888 1069 2088 
Q 1153 2322 1153 2472 
Q 1153 2663 1013 2663 
Q 759 2663 595 2402 
Q 431 2141 353 1819 
Q 341 1778 300 1778 
L 225 1778 
Q 172 1778 172 1838 
L 172 1856 
Q 275 2238 487 2533 
Q 700 2828 1025 2828 
Q 1253 2828 1411 2678 
Q 1569 2528 1569 2297 
Q 1569 2178 1516 2047 
Q 1488 1969 1388 1706 
Q 1288 1444 1234 1272 
Q 1181 1100 1147 934 
Q 1113 769 1113 603 
Q 1113 391 1203 244 
Q 1294 97 1491 97 
Q 1888 97 2203 581 
L 2688 2553 
Q 2709 2638 2787 2698 
Q 2866 2759 2956 2759 
Q 3034 2759 3092 2709 
Q 3150 2659 3150 2578 
Q 3150 2541 3144 2528 
L 2509 -19 
Q 2425 -347 2200 -647 
Q 1975 -947 1658 -1130 
Q 1341 -1313 997 -1313 
Q 831 -1313 668 -1248 
Q 506 -1184 406 -1056 
Q 306 -928 306 -756 
Q 306 -581 409 -453 
Q 513 -325 684 -325 
Q 788 -325 858 -389 
Q 928 -453 928 -556 
Q 928 -703 818 -812 
Q 709 -922 563 -922 
Q 556 -919 550 -917 
Q 544 -916 538 -916 
z
" transform="scale(0.015625)"/>
      </defs>
      <use xlink:href="#Cmmi10-79" transform="translate(0 0.8125)"/>
     </g>
    </g>
   </g>
   <g id="line2d_29">
    <path d="M 61.766582 277.417969 
L 64.09827 275.0465 
L 66.429958 272.675032 
L 68.761646 270.303563 
L 71.093334 267.932095 
L 73.425022 265.560626 
L 75.75671 263.189158 
L 78.088398 260.817689 
L 80.420086 258.44622 
L 82.751774 256.074752 
L 85.083462 253.703283 
L 87.41515 251.331815 
L 89.746838 248.960346 
L 92.078526 246.588878 
L 94.410214 244.217409 
L 96.741902 241.845941 
L 99.07359 239.474472 
L 101.405278 237.103004 
L 103.736966 234.731535 
L 106.068654 232.360067 
L 108.400342 229.988598 
L 110.73203 227.61713 
L 113.063718 225.245661 
L 115.395406 222.874193 
L 117.727094 220.502724 
L 120.058782 218.131255 
L 122.39047 215.759787 
L 124.722158 213.388318 
L 127.053846 211.01685 
L 129.385534 208.645381 
L 131.717222 206.273913 
L 134.04891 203.902444 
L 136.380598 201.530976 
L 138.712286 199.159507 
L 141.043973 196.788039 
L 143.375661 194.41657 
L 145.707349 192.045102 
L 148.039037 189.673633 
L 150.370725 187.302165 
L 152.702413 184.930696 
L 155.034101 182.559227 
L 157.365789 180.187759 
L 159.697477 177.81629 
L 162.029165 175.444822 
L 164.360853 173.073353 
L 166.692541 170.701885 
L 169.024229 168.330416 
L 171.355917 165.958948 
L 173.687605 163.587479 
L 176.019293 161.216011 
L 178.350981 158.844542 
L 180.682669 156.473074 
L 183.014357 154.101605 
L 185.346045 151.730137 
L 187.677733 149.358668 
L 190.009421 146.9872 
L 192.341109 144.615731 
L 194.672797 142.244262 
L 197.004485 139.872794 
L 199.336173 137.501325 
L 201.667861 135.129857 
L 203.999549 132.758388 
L 206.331237 130.38692 
L 208.662925 128.015451 
L 210.994613 125.643983 
L 213.326301 123.272514 
L 215.657989 120.901046 
L 217.989677 118.529577 
L 220.321365 116.158109 
L 222.653053 113.78664 
L 224.984741 111.415172 
L 227.316429 109.043703 
L 229.648117 106.672234 
L 231.979805 104.300766 
L 234.311493 101.929297 
L 236.643181 99.557829 
L 238.974869 97.18636 
L 241.306557 94.814892 
L 243.638245 92.443423 
L 245.969933 90.071955 
L 248.301621 87.700486 
L 250.633309 85.329018 
L 252.964997 82.957549 
L 255.296685 80.586081 
L 257.628373 78.214612 
L 259.960061 75.843144 
L 262.291749 73.471675 
L 264.623437 71.100207 
L 266.955125 68.728738 
L 269.286812 66.357269 
L 271.6185 63.985801 
L 273.950188 61.614332 
L 276.281876 59.242864 
L 278.613564 56.871395 
L 280.945252 54.499927 
L 283.27694 52.128458 
L 285.608628 49.75699 
L 287.940316 47.385521 
L 290.272004 45.014053 
L 292.603692 42.642584 
" clip-path="url(#pff69c7e6da)" style="fill: none; stroke: #2563eb; stroke-width: 2.5; stroke-linecap: round"/>
   </g>
   <g id="line2d_30">
    <path d="M 42.530156 218.724123 
L 311.840118 218.724123 
" clip-path="url(#pff69c7e6da)" style="fill: none; stroke: #000000; stroke-opacity: 0.5; stroke-width: 0.8; stroke-linecap: round"/>
   </g>
   <g id="line2d_31">
    <path d="M 138.712286 277.417969 
L 138.712286 23.077969 
" clip-path="url(#pff69c7e6da)" style="fill: none; stroke: #000000; stroke-opacity: 0.5; stroke-width: 0.8; stroke-linecap: round"/>
   </g>
   <g id="line2d_32">
    <path d="M 177.185137 160.030276 
L 215.657989 160.030276 
" clip-path="url(#pff69c7e6da)" style="fill: none; stroke-dasharray: 5.55,2.4; stroke-dashoffset: 0; stroke: #000000; stroke-opacity: 0.7; stroke-width: 1.5"/>
   </g>
   <g id="line2d_33">
    <path d="M 215.657989 160.030276 
L 215.657989 120.901046 
" clip-path="url(#pff69c7e6da)" style="fill: none; stroke-dasharray: 5.55,2.4; stroke-dashoffset: 0; stroke: #000000; stroke-opacity: 0.7; stroke-width: 1.5"/>
   </g>
   <g id="patch_3">
    <path d="M 42.530156 277.417969 
L 42.530156 23.077969 
" style="fill: none; stroke: #cccccc; stroke-linejoin: miter; stroke-linecap: square"/>
   </g>
   <g id="patch_4">
    <path d="M 42.530156 277.417969 
L 311.840118 277.417969 
" style="fill: none; stroke: #cccccc; stroke-linejoin: miter; stroke-linecap: square"/>
   </g>
   <g id="patch_5">
    <path d="M 117.605517 165.801256 
Q 127.624275 181.635431 137.045234 196.524812 
" style="fill: none; stroke: #dc2626; stroke-linecap: round"/>
    <path d="M 136.59658 192.075238 
L 137.045234 196.524812 
L 133.216383 194.21399 
" style="fill: none; stroke: #dc2626; stroke-linecap: round"/>
   </g>
   <g id="text_17">
    <!-- y-intercept -->
    <g style="fill: #dc2626" transform="translate(81.003008 148.690276) scale(0.1 -0.1)">
     <defs>
      <path id="DejaVuSerif-79" d="M 1381 -609 
L 1600 -56 
L 359 2988 
L -19 2988 
L -19 3322 
L 1509 3322 
L 1509 2988 
L 978 2988 
L 1913 703 
L 2847 2988 
L 2350 2988 
L 2350 3322 
L 3597 3322 
L 3597 2988 
L 3225 2988 
L 1703 -750 
Q 1547 -1138 1356 -1280 
Q 1166 -1422 819 -1422 
Q 672 -1422 517 -1397 
Q 363 -1372 206 -1325 
L 206 -691 
L 500 -691 
Q 519 -903 608 -995 
Q 697 -1088 884 -1088 
Q 1056 -1088 1161 -992 
Q 1266 -897 1381 -609 
z
" transform="scale(0.015625)"/>
      <path id="DejaVuSerif-2d" d="M 281 1959 
L 1881 1959 
L 1881 1472 
L 281 1472 
L 281 1959 
z
" transform="scale(0.015625)"/>
      <path id="DejaVuSerif-69" d="M 622 4353 
Q 622 4497 726 4603 
Q 831 4709 978 4709 
Q 1122 4709 1226 4603 
Q 1331 4497 1331 4353 
Q 1331 4206 1228 4103 
Q 1125 4000 978 4000 
Q 831 4000 726 4103 
Q 622 4206 622 4353 
z
M 1356 331 
L 1900 331 
L 1900 0 
L 231 0 
L 231 331 
L 781 331 
L 781 2988 
L 231 2988 
L 231 3322 
L 1356 3322 
L 1356 331 
z
" transform="scale(0.015625)"/>
      <path id="DejaVuSerif-6e" d="M 263 0 
L 263 331 
L 781 331 
L 781 2988 
L 231 2988 
L 231 3322 
L 1356 3322 
L 1356 2731 
Q 1516 3069 1770 3241 
Q 2025 3413 2363 3413 
Q 2913 3413 3172 3097 
Q 3431 2781 3431 2113 
L 3431 331 
L 3944 331 
L 3944 0 
L 2356 0 
L 2356 331 
L 2853 331 
L 2853 1931 
Q 2853 2541 2703 2767 
Q 2553 2994 2175 2994 
Q 1775 2994 1565 2701 
Q 1356 2409 1356 1850 
L 1356 331 
L 1856 331 
L 1856 0 
L 263 0 
z
" transform="scale(0.015625)"/>
      <path id="DejaVuSerif-74" d="M 691 2988 
L 184 2988 
L 184 3322 
L 691 3322 
L 691 4353 
L 1269 4353 
L 1269 3322 
L 2350 3322 
L 2350 2988 
L 1269 2988 
L 1269 878 
Q 1269 456 1350 337 
Q 1431 219 1650 219 
Q 1875 219 1978 351 
Q 2081 484 2088 781 
L 2522 781 
Q 2497 328 2275 118 
Q 2053 -91 1600 -91 
Q 1103 -91 897 129 
Q 691 350 691 878 
L 691 2988 
z
" transform="scale(0.015625)"/>
      <path id="DejaVuSerif-65" d="M 3469 1600 
L 991 1600 
L 991 1575 
Q 991 903 1244 561 
Q 1497 219 1991 219 
Q 2369 219 2611 417 
Q 2853 616 2950 1006 
L 3413 1006 
Q 3275 459 2904 184 
Q 2534 -91 1931 -91 
Q 1203 -91 761 389 
Q 319 869 319 1663 
Q 319 2450 753 2931 
Q 1188 3413 1894 3413 
Q 2647 3413 3050 2948 
Q 3453 2484 3469 1600 
z
M 2791 1931 
Q 2772 2513 2545 2808 
Q 2319 3103 1894 3103 
Q 1497 3103 1269 2806 
Q 1041 2509 991 1931 
L 2791 1931 
z
" transform="scale(0.015625)"/>
      <path id="DejaVuSerif-72" d="M 3059 3328 
L 3059 2497 
L 2728 2497 
Q 2713 2744 2591 2866 
Q 2469 2988 2234 2988 
Q 1809 2988 1582 2694 
Q 1356 2400 1356 1850 
L 1356 331 
L 2022 331 
L 2022 0 
L 263 0 
L 263 331 
L 781 331 
L 781 2994 
L 231 2994 
L 231 3322 
L 1356 3322 
L 1356 2731 
Q 1525 3078 1790 3245 
Q 2056 3413 2438 3413 
Q 2578 3413 2733 3391 
Q 2888 3369 3059 3328 
z
" transform="scale(0.015625)"/>
      <path id="DejaVuSerif-63" d="M 3291 997 
Q 3169 466 2822 187 
Q 2475 -91 1925 -91 
Q 1200 -91 759 389 
Q 319 869 319 1663 
Q 319 2459 759 2936 
Q 1200 3413 1925 3413 
Q 2241 3413 2553 3339 
Q 2866 3266 3181 3116 
L 3181 2266 
L 2847 2266 
Q 2781 2703 2561 2903 
Q 2341 3103 1931 3103 
Q 1466 3103 1228 2742 
Q 991 2381 991 1663 
Q 991 944 1227 581 
Q 1463 219 1931 219 
Q 2303 219 2525 412 
Q 2747 606 2828 997 
L 3291 997 
z
" transform="scale(0.015625)"/>
      <path id="DejaVuSerif-70" d="M 1313 1825 
L 1313 1497 
Q 1313 897 1542 583 
Q 1772 269 2209 269 
Q 2650 269 2876 622 
Q 3103 975 3103 1663 
Q 3103 2353 2876 2703 
Q 2650 3053 2209 3053 
Q 1772 3053 1542 2737 
Q 1313 2422 1313 1825 
z
M 738 2988 
L 184 2988 
L 184 3322 
L 1313 3322 
L 1313 2803 
Q 1481 3116 1742 3264 
Q 2003 3413 2388 3413 
Q 3000 3413 3387 2928 
Q 3775 2444 3775 1663 
Q 3775 881 3387 395 
Q 3000 -91 2388 -91 
Q 2003 -91 1742 57 
Q 1481 206 1313 519 
L 1313 -997 
L 1856 -997 
L 1856 -1331 
L 184 -1331 
L 184 -997 
L 738 -997 
L 738 2988 
z
" transform="scale(0.015625)"/>
     </defs>
     <use xlink:href="#DejaVuSerif-79"/>
     <use xlink:href="#DejaVuSerif-2d" transform="translate(56.494141 0)"/>
     <use xlink:href="#DejaVuSerif-69" transform="translate(90.283203 0)"/>
     <use xlink:href="#DejaVuSerif-6e" transform="translate(122.265625 0)"/>
     <use xlink:href="#DejaVuSerif-74" transform="translate(186.669922 0)"/>
     <use xlink:href="#DejaVuSerif-65" transform="translate(226.855469 0)"/>
     <use xlink:href="#DejaVuSerif-72" transform="translate(286.035156 0)"/>
     <use xlink:href="#DejaVuSerif-63" transform="translate(333.837891 0)"/>
     <use xlink:href="#DejaVuSerif-65" transform="translate(389.84375 0)"/>
     <use xlink:href="#DejaVuSerif-70" transform="translate(449.023438 0)"/>
     <use xlink:href="#DejaVuSerif-74" transform="translate(513.037109 0)"/>
    </g>
    <!-- $c = 1$ -->
    <g style="fill: #dc2626" transform="translate(81.003008 160.030276) scale(0.1 -0.1)">
     <defs>
      <path id="Cmmi10-63" d="M 750 763 
Q 750 484 892 290 
Q 1034 97 1300 97 
Q 1681 97 2032 272 
Q 2384 447 2606 756 
Q 2625 775 2656 775 
Q 2688 775 2720 739 
Q 2753 703 2753 672 
Q 2753 647 2741 634 
Q 2506 306 2109 117 
Q 1713 -72 1288 -72 
Q 981 -72 747 73 
Q 513 219 384 462 
Q 256 706 256 1013 
Q 256 1444 497 1869 
Q 738 2294 1138 2561 
Q 1538 2828 1978 2828 
Q 2266 2828 2495 2689 
Q 2725 2550 2725 2278 
Q 2725 2103 2623 1979 
Q 2522 1856 2350 1856 
Q 2247 1856 2176 1920 
Q 2106 1984 2106 2088 
Q 2106 2238 2215 2344 
Q 2325 2450 2472 2450 
L 2484 2450 
Q 2409 2559 2267 2611 
Q 2125 2663 1972 2663 
Q 1597 2663 1315 2342 
Q 1034 2022 892 1576 
Q 750 1131 750 763 
z
" transform="scale(0.015625)"/>
      <path id="Cmr10-3d" d="M 481 850 
Q 428 850 393 890 
Q 359 931 359 978 
Q 359 1031 393 1068 
Q 428 1106 481 1106 
L 4500 1106 
Q 4547 1106 4581 1068 
Q 4616 1031 4616 978 
Q 4616 931 4581 890 
Q 4547 850 4500 850 
L 481 850 
z
M 481 2094 
Q 428 2094 393 2131 
Q 359 2169 359 2222 
Q 359 2269 393 2309 
Q 428 2350 481 2350 
L 4500 2350 
Q 4547 2350 4581 2309 
Q 4616 2269 4616 2222 
Q 4616 2169 4581 2131 
Q 4547 2094 4500 2094 
L 481 2094 
z
" transform="scale(0.015625)"/>
      <path id="Cmr10-31" d="M 594 0 
L 594 225 
Q 1394 225 1394 428 
L 1394 3788 
Q 1063 3628 556 3628 
L 556 3853 
Q 1341 3853 1741 4263 
L 1831 4263 
Q 1853 4263 1873 4245 
Q 1894 4228 1894 4206 
L 1894 428 
Q 1894 225 2694 225 
L 2694 0 
L 594 0 
z
" transform="scale(0.015625)"/>
     </defs>
     <use xlink:href="#Cmmi10-63" transform="translate(0 0.390625)"/>
     <use xlink:href="#Cmr10-3d" transform="translate(60.771484 0.390625)"/>
     <use xlink:href="#Cmr10-31" transform="translate(156.015625 0.390625)"/>
    </g>
   </g>
   <g id="text_18">
    <!-- $\Delta x = 1$ -->
    <g style="fill: #262626" transform="translate(182.741563 169.812584) scale(0.09 -0.09)">
     <defs>
      <path id="Cmr10-a2" d="M 347 0 
Q 294 0 294 50 
Q 297 56 298 59 
Q 300 63 300 72 
L 2503 4513 
Q 2531 4581 2619 4581 
L 2706 4581 
Q 2794 4581 2822 4513 
L 5025 72 
Q 5028 66 5029 61 
Q 5031 56 5031 50 
Q 5031 0 4978 0 
L 347 0 
z
M 769 513 
L 4141 513 
L 2456 3909 
L 769 513 
z
" transform="scale(0.015625)"/>
     </defs>
     <use xlink:href="#Cmr10-a2" transform="translate(0 0.421875)"/>
     <use xlink:href="#Cmmi10-78" transform="translate(83.300781 0.421875)"/>
     <use xlink:href="#Cmr10-3d" transform="translate(157.939453 0.421875)"/>
     <use xlink:href="#Cmr10-31" transform="translate(253.183594 0.421875)"/>
    </g>
   </g>
   <g id="text_19">
    <!-- $\Delta y = 2$ -->
    <g style="fill: #262626" transform="translate(227.199844 142.930817) scale(0.09 -0.09)">
     <defs>
      <path id="Cmr10-32" d="M 319 0 
L 319 172 
Q 319 188 331 206 
L 1325 1306 
Q 1550 1550 1690 1715 
Q 1831 1881 1968 2097 
Q 2106 2313 2186 2536 
Q 2266 2759 2266 3009 
Q 2266 3272 2169 3511 
Q 2072 3750 1880 3894 
Q 1688 4038 1416 4038 
Q 1138 4038 916 3870 
Q 694 3703 603 3438 
Q 628 3444 672 3444 
Q 816 3444 917 3347 
Q 1019 3250 1019 3097 
Q 1019 2950 917 2848 
Q 816 2747 672 2747 
Q 522 2747 420 2851 
Q 319 2956 319 3097 
Q 319 3338 409 3548 
Q 500 3759 670 3923 
Q 841 4088 1055 4175 
Q 1269 4263 1509 4263 
Q 1875 4263 2190 4108 
Q 2506 3953 2690 3670 
Q 2875 3388 2875 3009 
Q 2875 2731 2753 2481 
Q 2631 2231 2440 2026 
Q 2250 1822 1953 1562 
Q 1656 1303 1563 1216 
L 838 519 
L 1453 519 
Q 1906 519 2211 526 
Q 2516 534 2534 550 
Q 2609 631 2688 1141 
L 2875 1141 
L 2694 0 
L 319 0 
z
" transform="scale(0.015625)"/>
     </defs>
     <use xlink:href="#Cmr10-a2" transform="translate(0 0.421875)"/>
     <use xlink:href="#Cmmi10-79" transform="translate(83.300781 0.421875)"/>
     <use xlink:href="#Cmr10-3d" transform="translate(149.882812 0.421875)"/>
     <use xlink:href="#Cmr10-32" transform="translate(245.126953 0.421875)"/>
    </g>
   </g>
   <g id="text_20">
    <!-- Slope $m = 2$ -->
    <g style="fill: #2563eb" transform="translate(246.43627 91.554123) scale(0.1 -0.1)">
     <defs>
      <path id="DejaVuSerif-Bold-53" d="M 494 225 
L 494 1331 
L 891 1331 
Q 981 806 1318 547 
Q 1656 288 2253 288 
Q 2738 288 2991 472 
Q 3244 656 3244 1013 
Q 3244 1294 3072 1450 
Q 2900 1606 2363 1741 
L 1663 1913 
Q 978 2088 700 2398 
Q 422 2709 422 3284 
Q 422 3978 883 4364 
Q 1344 4750 2175 4750 
Q 2584 4750 3026 4681 
Q 3469 4613 3944 4475 
L 3944 3444 
L 3547 3444 
Q 3456 3925 3150 4148 
Q 2844 4372 2278 4372 
Q 1816 4372 1580 4211 
Q 1344 4050 1344 3731 
Q 1344 3441 1506 3289 
Q 1669 3138 2303 2975 
L 3003 2803 
Q 3653 2641 3945 2297 
Q 4238 1953 4238 1350 
Q 4238 644 3750 276 
Q 3263 -91 2316 -91 
Q 1859 -91 1409 -12 
Q 959 66 494 225 
z
" transform="scale(0.015625)"/>
      <path id="DejaVuSerif-Bold-6c" d="M 1797 378 
L 2272 378 
L 2272 0 
L 219 0 
L 219 378 
L 691 378 
L 691 4488 
L 219 4488 
L 219 4863 
L 1797 4863 
L 1797 378 
z
" transform="scale(0.015625)"/>
      <path id="DejaVuSerif-Bold-6f" d="M 2138 263 
Q 2488 263 2630 563 
Q 2772 863 2772 1663 
Q 2772 2463 2631 2761 
Q 2491 3059 2138 3059 
Q 1784 3059 1640 2757 
Q 1497 2456 1497 1663 
Q 1497 869 1640 566 
Q 1784 263 2138 263 
z
M 2138 -91 
Q 1259 -91 761 376 
Q 263 844 263 1663 
Q 263 2484 761 2948 
Q 1259 3413 2138 3413 
Q 3019 3413 3516 2948 
Q 4013 2484 4013 1663 
Q 4013 844 3514 376 
Q 3016 -91 2138 -91 
z
" transform="scale(0.015625)"/>
      <path id="DejaVuSerif-Bold-70" d="M 1728 1825 
L 1728 1497 
Q 1728 916 1876 656 
Q 2025 397 2356 397 
Q 2697 397 2836 672 
Q 2975 947 2975 1663 
Q 2975 2378 2836 2651 
Q 2697 2925 2356 2925 
Q 2025 2925 1876 2665 
Q 1728 2406 1728 1825 
z
M 622 2944 
L 147 2944 
L 147 3322 
L 1728 3322 
L 1728 2900 
Q 1869 3159 2106 3286 
Q 2344 3413 2694 3413 
Q 3403 3413 3811 2945 
Q 4219 2478 4219 1663 
Q 4219 847 3811 378 
Q 3403 -91 2694 -91 
Q 2344 -91 2106 36 
Q 1869 163 1728 422 
L 1728 -953 
L 2241 -953 
L 2241 -1331 
L 147 -1331 
L 147 -953 
L 622 -953 
L 622 2944 
z
" transform="scale(0.015625)"/>
      <path id="DejaVuSerif-Bold-65" d="M 2566 1875 
Q 2566 2531 2444 2795 
Q 2322 3059 2028 3059 
Q 1744 3059 1620 2800 
Q 1497 2541 1497 1931 
L 1497 1875 
L 2566 1875 
z
M 3781 1503 
L 1497 1503 
L 1497 1478 
Q 1497 834 1690 548 
Q 1884 263 2316 263 
Q 2675 263 2897 453 
Q 3119 644 3181 1006 
L 3700 1006 
Q 3566 441 3166 175 
Q 2766 -91 2047 -91 
Q 1184 -91 723 364 
Q 263 819 263 1663 
Q 263 2488 734 2950 
Q 1206 3413 2047 3413 
Q 2872 3413 3312 2927 
Q 3753 2441 3781 1503 
z
" transform="scale(0.015625)"/>
      <path id="DejaVuSerif-Bold-20" transform="scale(0.015625)"/>
      <path id="Cmmi10-6d" d="M 494 109 
Q 494 147 500 166 
L 978 2075 
Q 1025 2253 1025 2388 
Q 1025 2663 838 2663 
Q 638 2663 541 2423 
Q 444 2184 353 1819 
Q 353 1800 334 1789 
Q 316 1778 300 1778 
L 225 1778 
Q 203 1778 187 1801 
Q 172 1825 172 1844 
Q 241 2122 305 2315 
Q 369 2509 505 2668 
Q 641 2828 844 2828 
Q 1084 2828 1268 2676 
Q 1453 2525 1453 2291 
Q 1644 2541 1900 2684 
Q 2156 2828 2444 2828 
Q 2747 2828 2967 2673 
Q 3188 2519 3188 2234 
Q 3384 2513 3648 2670 
Q 3913 2828 4225 2828 
Q 4556 2828 4757 2648 
Q 4959 2469 4959 2138 
Q 4959 1875 4842 1503 
Q 4725 1131 4550 672 
Q 4459 450 4459 288 
Q 4459 97 4609 97 
Q 4859 97 5025 365 
Q 5191 634 5259 941 
Q 5278 978 5313 978 
L 5388 978 
Q 5413 978 5430 961 
Q 5447 944 5447 922 
Q 5447 916 5441 903 
Q 5353 541 5136 234 
Q 4919 -72 4594 -72 
Q 4369 -72 4209 83 
Q 4050 238 4050 459 
Q 4050 572 4103 709 
Q 4284 1191 4404 1569 
Q 4525 1947 4525 2234 
Q 4525 2413 4453 2538 
Q 4381 2663 4213 2663 
Q 3863 2663 3606 2448 
Q 3350 2234 3163 1881 
Q 3150 1819 3144 1784 
L 2731 141 
Q 2709 53 2632 -9 
Q 2556 -72 2463 -72 
Q 2388 -72 2330 -22 
Q 2272 28 2272 109 
Q 2272 147 2278 166 
L 2688 1797 
Q 2753 2059 2753 2234 
Q 2753 2413 2679 2538 
Q 2606 2663 2431 2663 
Q 2197 2663 2000 2559 
Q 1803 2456 1656 2286 
Q 1509 2116 1388 1881 
L 953 141 
Q 931 53 854 -9 
Q 778 -72 684 -72 
Q 606 -72 550 -22 
Q 494 28 494 109 
z
" transform="scale(0.015625)"/>
     </defs>
     <use xlink:href="#DejaVuSerif-Bold-53" transform="translate(0 0.015625)"/>
     <use xlink:href="#DejaVuSerif-Bold-6c" transform="translate(72.216797 0.015625)"/>
     <use xlink:href="#DejaVuSerif-Bold-6f" transform="translate(110.205078 0.015625)"/>
     <use xlink:href="#DejaVuSerif-Bold-70" transform="translate(176.904297 0.015625)"/>
     <use xlink:href="#DejaVuSerif-Bold-65" transform="translate(246.826172 0.015625)"/>
     <use xlink:href="#DejaVuSerif-Bold-20" transform="translate(310.449219 0.015625)"/>
     <use xlink:href="#Cmmi10-6d" transform="translate(345.263672 0.015625)"/>
     <use xlink:href="#Cmr10-3d" transform="translate(450.615234 0.015625)"/>
     <use xlink:href="#Cmr10-32" transform="translate(545.859375 0.015625)"/>
    </g>
   </g>
   <g id="text_21">
    <!-- Linear Function -->
    <g style="fill: #262626" transform="translate(118.94209 17.077969) scale(0.13 -0.13)">
     <defs>
      <path id="DejaVuSerif-Bold-4c" d="M 300 0 
L 300 378 
L 897 378 
L 897 4288 
L 300 4288 
L 300 4666 
L 2700 4666 
L 2700 4288 
L 2100 4288 
L 2100 428 
L 3938 428 
L 3938 1166 
L 4359 1166 
L 4359 0 
L 300 0 
z
" transform="scale(0.015625)"/>
      <path id="DejaVuSerif-Bold-69" d="M 588 4263 
Q 588 4516 763 4689 
Q 938 4863 1191 4863 
Q 1438 4863 1611 4689 
Q 1784 4516 1784 4263 
Q 1784 4016 1611 3842 
Q 1438 3669 1191 3669 
Q 938 3669 763 3841 
Q 588 4013 588 4263 
z
M 1797 378 
L 2272 378 
L 2272 0 
L 219 0 
L 219 378 
L 691 378 
L 691 2944 
L 219 2944 
L 219 3322 
L 1797 3322 
L 1797 378 
z
" transform="scale(0.015625)"/>
      <path id="DejaVuSerif-Bold-6e" d="M 219 0 
L 219 378 
L 691 378 
L 691 2944 
L 219 2944 
L 219 3322 
L 1797 3322 
L 1797 2853 
Q 1997 3150 2253 3281 
Q 2509 3413 2900 3413 
Q 3459 3413 3745 3083 
Q 4031 2753 4031 2113 
L 4031 378 
L 4506 378 
L 4506 0 
L 2522 0 
L 2522 378 
L 2925 378 
L 2925 2144 
Q 2925 2566 2817 2730 
Q 2709 2894 2444 2894 
Q 2109 2894 1953 2648 
Q 1797 2403 1797 1869 
L 1797 378 
L 2203 378 
L 2203 0 
L 219 0 
z
" transform="scale(0.015625)"/>
      <path id="DejaVuSerif-Bold-61" d="M 3525 2041 
L 3525 378 
L 4000 378 
L 4000 0 
L 2419 0 
L 2419 422 
Q 2200 159 1931 34 
Q 1663 -91 1319 -91 
Q 809 -91 536 182 
Q 263 456 263 966 
Q 263 1525 655 1803 
Q 1047 2081 1838 2081 
L 2419 2081 
L 2419 2278 
Q 2419 2681 2228 2873 
Q 2038 3066 1638 3066 
Q 1306 3066 1126 2930 
Q 947 2794 872 2484 
L 519 2484 
L 519 3200 
Q 816 3306 1134 3359 
Q 1453 3413 1806 3413 
Q 2697 3413 3111 3081 
Q 3525 2750 3525 2041 
z
M 2419 1044 
L 2419 1709 
L 2003 1709 
Q 1694 1709 1528 1540 
Q 1363 1372 1363 1056 
Q 1363 741 1483 584 
Q 1603 428 1850 428 
Q 2106 428 2262 597 
Q 2419 766 2419 1044 
z
" transform="scale(0.015625)"/>
      <path id="DejaVuSerif-Bold-72" d="M 3438 3359 
L 3438 2369 
L 3084 2369 
Q 3066 2634 2941 2764 
Q 2816 2894 2578 2894 
Q 2216 2894 2006 2575 
Q 1797 2256 1797 1691 
L 1797 378 
L 2400 378 
L 2400 0 
L 219 0 
L 219 378 
L 691 378 
L 691 2944 
L 184 2944 
L 184 3322 
L 1797 3322 
L 1797 2731 
Q 1959 3078 2226 3245 
Q 2494 3413 2881 3413 
Q 2978 3413 3117 3398 
Q 3256 3384 3438 3359 
z
" transform="scale(0.015625)"/>
      <path id="DejaVuSerif-Bold-46" d="M 300 0 
L 300 378 
L 897 378 
L 897 4288 
L 300 4288 
L 300 4666 
L 4459 4666 
L 4459 3566 
L 4031 3566 
L 4031 4238 
L 2106 4238 
L 2106 2741 
L 3291 2741 
L 3291 3334 
L 3719 3334 
L 3719 1722 
L 3291 1722 
L 3291 2316 
L 2106 2316 
L 2106 378 
L 2841 378 
L 2841 0 
L 300 0 
z
" transform="scale(0.015625)"/>
      <path id="DejaVuSerif-Bold-75" d="M 3963 3322 
L 3963 378 
L 4434 378 
L 4434 0 
L 2853 0 
L 2853 469 
Q 2656 172 2400 40 
Q 2144 -91 1753 -91 
Q 1194 -91 908 239 
Q 622 569 622 1209 
L 622 2944 
L 147 2944 
L 147 3322 
L 1728 3322 
L 1728 1381 
Q 1728 763 1831 595 
Q 1934 428 2209 428 
Q 2544 428 2698 675 
Q 2853 922 2853 1459 
L 2853 2944 
L 2450 2944 
L 2450 3322 
L 3963 3322 
z
" transform="scale(0.015625)"/>
      <path id="DejaVuSerif-Bold-63" d="M 3609 1038 
Q 3491 469 3123 189 
Q 2756 -91 2125 -91 
Q 1238 -91 750 368 
Q 263 828 263 1663 
Q 263 2488 744 2950 
Q 1225 3413 2081 3413 
Q 2428 3413 2781 3347 
Q 3134 3281 3500 3150 
L 3500 2228 
L 3150 2228 
Q 3100 2650 2903 2854 
Q 2706 3059 2350 3059 
Q 1888 3059 1692 2746 
Q 1497 2434 1497 1663 
Q 1497 909 1687 586 
Q 1878 263 2309 263 
Q 2644 263 2845 463 
Q 3047 663 3091 1038 
L 3609 1038 
z
" transform="scale(0.015625)"/>
      <path id="DejaVuSerif-Bold-74" d="M 634 2944 
L 153 2944 
L 153 3322 
L 634 3322 
L 634 4353 
L 1741 4353 
L 1741 3322 
L 2663 3322 
L 2663 2944 
L 1741 2944 
L 1741 909 
Q 1741 475 1809 369 
Q 1878 263 2059 263 
Q 2259 263 2356 397 
Q 2453 531 2459 813 
L 2925 813 
Q 2897 313 2651 111 
Q 2406 -91 1806 -91 
Q 1122 -91 878 123 
Q 634 338 634 909 
L 634 2944 
z
" transform="scale(0.015625)"/>
     </defs>
     <use xlink:href="#DejaVuSerif-Bold-4c"/>
     <use xlink:href="#DejaVuSerif-Bold-69" transform="translate(70.3125 0)"/>
     <use xlink:href="#DejaVuSerif-Bold-6e" transform="translate(108.300781 0)"/>
     <use xlink:href="#DejaVuSerif-Bold-65" transform="translate(181.005859 0)"/>
     <use xlink:href="#DejaVuSerif-Bold-61" transform="translate(244.628906 0)"/>
     <use xlink:href="#DejaVuSerif-Bold-72" transform="translate(309.423828 0)"/>
     <use xlink:href="#DejaVuSerif-Bold-20" transform="translate(362.109375 0)"/>
     <use xlink:href="#DejaVuSerif-Bold-46" transform="translate(396.923828 0)"/>
     <use xlink:href="#DejaVuSerif-Bold-75" transform="translate(466.169922 0)"/>
     <use xlink:href="#DejaVuSerif-Bold-6e" transform="translate(538.875 0)"/>
     <use xlink:href="#DejaVuSerif-Bold-63" transform="translate(611.580078 0)"/>
     <use xlink:href="#DejaVuSerif-Bold-74" transform="translate(672.46875 0)"/>
     <use xlink:href="#DejaVuSerif-Bold-69" transform="translate(718.660156 0)"/>
     <use xlink:href="#DejaVuSerif-Bold-6f" transform="translate(756.648438 0)"/>
     <use xlink:href="#DejaVuSerif-Bold-6e" transform="translate(823.347656 0)"/>
    </g>
   </g>
   <g id="line2d_34">
    <defs>
     <path id="me64c35878a" d="M 0 5 
C 1.326016 5 2.597899 4.473168 3.535534 3.535534 
C 4.473168 2.597899 5 1.326016 5 0 
C 5 -1.326016 4.473168 -2.597899 3.535534 -3.535534 
C 2.597899 -4.473168 1.326016 -5 0 -5 
C -1.326016 -5 -2.597899 -4.473168 -3.535534 -3.535534 
C -4.473168 -2.597899 -5 -1.326016 -5 0 
C -5 1.326016 -4.473168 2.597899 -3.535534 3.535534 
C -2.597899 4.473168 -1.326016 5 0 5 
z
" style="stroke: #dc2626"/>
    </defs>
    <g clip-path="url(#pff69c7e6da)">
     <use xlink:href="#me64c35878a" x="138.712286" y="199.159507" style="fill: #dc2626; stroke: #dc2626"/>
    </g>
   </g>
   <g id="legend_1">
    <g id="line2d_35">
     <path d="M 51.530156 36.176406 
L 61.530156 36.176406 
L 71.530156 36.176406 
" style="fill: none; stroke: #2563eb; stroke-width: 2.5; stroke-linecap: round"/>
    </g>
    <g id="text_22">
     <!-- $f(x) = 2x + 1$ -->
     <g style="fill: #262626" transform="translate(79.530156 39.676406) scale(0.1 -0.1)">
      <defs>
       <path id="Cmmi10-66" d="M 622 -1056 
Q 741 -1147 909 -1147 
Q 1138 -1147 1281 -641 
Q 1341 -397 1606 966 
L 1900 2534 
L 1350 2534 
Q 1288 2534 1288 2619 
Q 1313 2759 1369 2759 
L 1941 2759 
L 2016 3175 
Q 2053 3369 2084 3508 
Q 2116 3647 2152 3765 
Q 2188 3884 2259 4031 
Q 2369 4241 2555 4377 
Q 2741 4513 2956 4513 
Q 3097 4513 3230 4461 
Q 3363 4409 3447 4306 
Q 3531 4203 3531 4063 
Q 3531 3900 3423 3779 
Q 3316 3659 3163 3659 
Q 3059 3659 2986 3723 
Q 2913 3788 2913 3891 
Q 2913 4031 3008 4136 
Q 3103 4241 3244 4256 
Q 3125 4347 2950 4347 
Q 2853 4347 2767 4256 
Q 2681 4166 2656 4063 
Q 2616 3900 2478 3181 
L 2400 2759 
L 3059 2759 
Q 3122 2759 3122 2675 
Q 3119 2659 3109 2620 
Q 3100 2581 3083 2557 
Q 3066 2534 3041 2534 
L 2356 2534 
L 2059 972 
Q 2003 631 1929 279 
Q 1856 -72 1723 -442 
Q 1591 -813 1384 -1063 
Q 1178 -1313 897 -1313 
Q 681 -1313 511 -1189 
Q 341 -1066 341 -863 
Q 341 -700 445 -579 
Q 550 -459 709 -459 
Q 816 -459 887 -523 
Q 959 -588 959 -691 
Q 959 -828 857 -942 
Q 756 -1056 622 -1056 
z
" transform="scale(0.015625)"/>
       <path id="Cmr10-28" d="M 1984 -1588 
Q 1628 -1306 1370 -942 
Q 1113 -578 948 -165 
Q 784 247 703 697 
Q 622 1147 622 1600 
Q 622 2059 703 2509 
Q 784 2959 951 3375 
Q 1119 3791 1378 4153 
Q 1638 4516 1984 4788 
Q 1984 4800 2016 4800 
L 2075 4800 
Q 2094 4800 2109 4783 
Q 2125 4766 2125 4744 
Q 2125 4716 2113 4703 
Q 1800 4397 1592 4047 
Q 1384 3697 1257 3301 
Q 1131 2906 1075 2482 
Q 1019 2059 1019 1600 
Q 1019 -434 2106 -1491 
Q 2125 -1509 2125 -1544 
Q 2125 -1559 2108 -1579 
Q 2091 -1600 2075 -1600 
L 2016 -1600 
Q 1984 -1600 1984 -1588 
z
" transform="scale(0.015625)"/>
       <path id="Cmr10-29" d="M 416 -1600 
Q 359 -1600 359 -1544 
Q 359 -1516 372 -1503 
Q 1466 -434 1466 1600 
Q 1466 3634 384 4691 
Q 359 4706 359 4744 
Q 359 4766 376 4783 
Q 394 4800 416 4800 
L 475 4800 
Q 494 4800 506 4788 
Q 966 4425 1272 3906 
Q 1578 3388 1720 2800 
Q 1863 2213 1863 1600 
Q 1863 1147 1786 708 
Q 1709 269 1542 -157 
Q 1375 -584 1119 -945 
Q 863 -1306 506 -1588 
Q 494 -1600 475 -1600 
L 416 -1600 
z
" transform="scale(0.015625)"/>
       <path id="Cmr10-2b" d="M 481 1472 
Q 428 1472 393 1512 
Q 359 1553 359 1600 
Q 359 1647 393 1687 
Q 428 1728 481 1728 
L 2363 1728 
L 2363 3616 
Q 2363 3666 2400 3698 
Q 2438 3731 2491 3731 
Q 2538 3731 2578 3698 
Q 2619 3666 2619 3616 
L 2619 1728 
L 4500 1728 
Q 4547 1728 4581 1687 
Q 4616 1647 4616 1600 
Q 4616 1553 4581 1512 
Q 4547 1472 4500 1472 
L 2619 1472 
L 2619 -416 
Q 2619 -466 2578 -498 
Q 2538 -531 2491 -531 
Q 2438 -531 2400 -498 
Q 2363 -466 2363 -416 
L 2363 1472 
L 481 1472 
z
" transform="scale(0.015625)"/>
      </defs>
      <use xlink:href="#Cmmi10-66"/>
      <use xlink:href="#Cmr10-28" transform="translate(48.876953 0)"/>
      <use xlink:href="#Cmmi10-78" transform="translate(87.695312 0)"/>
      <use xlink:href="#Cmr10-29" transform="translate(144.775391 0)"/>
      <use xlink:href="#Cmr10-3d" transform="translate(201.152344 0)"/>
      <use xlink:href="#Cmr10-32" transform="translate(296.396484 0)"/>
      <use xlink:href="#Cmmi10-78" transform="translate(346.396484 0)"/>
      <use xlink:href="#Cmr10-2b" transform="translate(421.035156 0)"/>
      <use xlink:href="#Cmr10-31" transform="translate(516.279297 0)"/>
     </g>
    </g>
   </g>
  </g>
  <g id="axes_2">
   <g id="patch_6">
    <path d="M 382.025175 277.417969 
L 651.335137 277.417969 
L 651.335137 23.077969 
L 382.025175 23.077969 
z
" style="fill: #ffffff"/>
   </g>
   <g id="matplotlib.axis_3">
    <g id="xtick_8">
     <g id="line2d_36">
      <path d="M 398.857048 277.417969 
L 398.857048 23.077969 
" clip-path="url(#p215c3ca97e)" style="fill: none; stroke: #cccccc; stroke-width: 0.8; stroke-linecap: round"/>
     </g>
     <g id="line2d_37"/>
     <g id="text_23">
      <!-- −2 -->
      <g style="fill: #262626" transform="translate(390.748845 289.27625) scale(0.11 -0.11)">
       <use xlink:href="#DejaVuSerif-2212"/>
       <use xlink:href="#DejaVuSerif-32" transform="translate(83.789062 0)"/>
      </g>
     </g>
    </g>
    <g id="xtick_9">
     <g id="line2d_38">
      <path d="M 432.520793 277.417969 
L 432.520793 23.077969 
" clip-path="url(#p215c3ca97e)" style="fill: none; stroke: #cccccc; stroke-width: 0.8; stroke-linecap: round"/>
     </g>
     <g id="line2d_39"/>
     <g id="text_24">
      <!-- −1 -->
      <g style="fill: #262626" transform="translate(424.41259 289.27625) scale(0.11 -0.11)">
       <use xlink:href="#DejaVuSerif-2212"/>
       <use xlink:href="#DejaVuSerif-31" transform="translate(83.789062 0)"/>
      </g>
     </g>
    </g>
    <g id="xtick_10">
     <g id="line2d_40">
      <path d="M 466.184538 277.417969 
L 466.184538 23.077969 
" clip-path="url(#p215c3ca97e)" style="fill: none; stroke: #cccccc; stroke-width: 0.8; stroke-linecap: round"/>
     </g>
     <g id="line2d_41"/>
     <g id="text_25">
      <!-- 0 -->
      <g style="fill: #262626" transform="translate(462.685163 289.27625) scale(0.11 -0.11)">
       <use xlink:href="#DejaVuSerif-30"/>
      </g>
     </g>
    </g>
    <g id="xtick_11">
     <g id="line2d_42">
      <path d="M 499.848284 277.417969 
L 499.848284 23.077969 
" clip-path="url(#p215c3ca97e)" style="fill: none; stroke: #cccccc; stroke-width: 0.8; stroke-linecap: round"/>
     </g>
     <g id="line2d_43"/>
     <g id="text_26">
      <!-- 1 -->
      <g style="fill: #262626" transform="translate(496.348909 289.27625) scale(0.11 -0.11)">
       <use xlink:href="#DejaVuSerif-31"/>
      </g>
     </g>
    </g>
    <g id="xtick_12">
     <g id="line2d_44">
      <path d="M 533.512029 277.417969 
L 533.512029 23.077969 
" clip-path="url(#p215c3ca97e)" style="fill: none; stroke: #cccccc; stroke-width: 0.8; stroke-linecap: round"/>
     </g>
     <g id="line2d_45"/>
     <g id="text_27">
      <!-- 2 -->
      <g style="fill: #262626" transform="translate(530.012654 289.27625) scale(0.11 -0.11)">
       <use xlink:href="#DejaVuSerif-32"/>
      </g>
     </g>
    </g>
    <g id="xtick_13">
     <g id="line2d_46">
      <path d="M 567.175774 277.417969 
L 567.175774 23.077969 
" clip-path="url(#p215c3ca97e)" style="fill: none; stroke: #cccccc; stroke-width: 0.8; stroke-linecap: round"/>
     </g>
     <g id="line2d_47"/>
     <g id="text_28">
      <!-- 3 -->
      <g style="fill: #262626" transform="translate(563.676399 289.27625) scale(0.11 -0.11)">
       <use xlink:href="#DejaVuSerif-33"/>
      </g>
     </g>
    </g>
    <g id="xtick_14">
     <g id="line2d_48">
      <path d="M 600.839519 277.417969 
L 600.839519 23.077969 
" clip-path="url(#p215c3ca97e)" style="fill: none; stroke: #cccccc; stroke-width: 0.8; stroke-linecap: round"/>
     </g>
     <g id="line2d_49"/>
     <g id="text_29">
      <!-- 4 -->
      <g style="fill: #262626" transform="translate(597.340144 289.27625) scale(0.11 -0.11)">
       <use xlink:href="#DejaVuSerif-34"/>
      </g>
     </g>
    </g>
    <g id="xtick_15">
     <g id="line2d_50">
      <path d="M 634.503265 277.417969 
L 634.503265 23.077969 
" clip-path="url(#p215c3ca97e)" style="fill: none; stroke: #cccccc; stroke-width: 0.8; stroke-linecap: round"/>
     </g>
     <g id="line2d_51"/>
     <g id="text_30">
      <!-- 5 -->
      <g style="fill: #262626" transform="translate(631.00389 289.27625) scale(0.11 -0.11)">
       <defs>
        <path id="DejaVuSerif-35" d="M 3219 4666 
L 3219 4153 
L 1081 4153 
L 1081 2816 
Q 1244 2928 1461 2984 
Q 1678 3041 1947 3041 
Q 2703 3041 3140 2622 
Q 3578 2203 3578 1478 
Q 3578 738 3136 323 
Q 2694 -91 1894 -91 
Q 1572 -91 1234 -12 
Q 897 66 544 225 
L 544 1131 
L 897 1131 
Q 925 688 1179 453 
Q 1434 219 1894 219 
Q 2388 219 2653 544 
Q 2919 869 2919 1478 
Q 2919 2084 2655 2407 
Q 2391 2731 1894 2731 
Q 1613 2731 1398 2631 
Q 1184 2531 1019 2322 
L 750 2322 
L 750 4666 
L 3219 4666 
z
" transform="scale(0.015625)"/>
       </defs>
       <use xlink:href="#DejaVuSerif-35"/>
      </g>
     </g>
    </g>
    <g id="text_31">
     <!-- $x$ -->
     <g style="fill: #262626" transform="translate(513.200156 304.682031) scale(0.12 -0.12)">
      <use xlink:href="#Cmmi10-78" transform="translate(0 0.8125)"/>
     </g>
    </g>
   </g>
   <g id="matplotlib.axis_4">
    <g id="ytick_8">
     <g id="line2d_52">
      <path d="M 382.025175 264.031653 
L 651.335137 264.031653 
" clip-path="url(#p215c3ca97e)" style="fill: none; stroke: #cccccc; stroke-width: 0.8; stroke-linecap: round"/>
     </g>
     <g id="line2d_53"/>
     <g id="text_32">
      <!-- −10.0 -->
      <g style="fill: #262626" transform="translate(344.815332 268.210794) scale(0.11 -0.11)">
       <defs>
        <path id="DejaVuSerif-2e" d="M 603 325 
Q 603 500 722 622 
Q 841 744 1019 744 
Q 1191 744 1312 622 
Q 1434 500 1434 325 
Q 1434 153 1312 31 
Q 1191 -91 1019 -91 
Q 841 -91 722 29 
Q 603 150 603 325 
z
" transform="scale(0.015625)"/>
       </defs>
       <use xlink:href="#DejaVuSerif-2212"/>
       <use xlink:href="#DejaVuSerif-31" transform="translate(83.789062 0)"/>
       <use xlink:href="#DejaVuSerif-30" transform="translate(147.412109 0)"/>
       <use xlink:href="#DejaVuSerif-2e" transform="translate(211.035156 0)"/>
       <use xlink:href="#DejaVuSerif-30" transform="translate(242.822266 0)"/>
      </g>
     </g>
    </g>
    <g id="ytick_9">
     <g id="line2d_54">
      <path d="M 382.025175 230.565863 
L 651.335137 230.565863 
" clip-path="url(#p215c3ca97e)" style="fill: none; stroke: #cccccc; stroke-width: 0.8; stroke-linecap: round"/>
     </g>
     <g id="line2d_55"/>
     <g id="text_33">
      <!-- −7.5 -->
      <g style="fill: #262626" transform="translate(351.814082 234.745004) scale(0.11 -0.11)">
       <defs>
        <path id="DejaVuSerif-37" d="M 3609 4347 
L 1784 0 
L 1319 0 
L 3059 4153 
L 903 4153 
L 903 3578 
L 538 3578 
L 538 4666 
L 3609 4666 
L 3609 4347 
z
" transform="scale(0.015625)"/>
       </defs>
       <use xlink:href="#DejaVuSerif-2212"/>
       <use xlink:href="#DejaVuSerif-37" transform="translate(83.789062 0)"/>
       <use xlink:href="#DejaVuSerif-2e" transform="translate(147.412109 0)"/>
       <use xlink:href="#DejaVuSerif-35" transform="translate(179.199219 0)"/>
      </g>
     </g>
    </g>
    <g id="ytick_10">
     <g id="line2d_56">
      <path d="M 382.025175 197.100074 
L 651.335137 197.100074 
" clip-path="url(#p215c3ca97e)" style="fill: none; stroke: #cccccc; stroke-width: 0.8; stroke-linecap: round"/>
     </g>
     <g id="line2d_57"/>
     <g id="text_34">
      <!-- −5.0 -->
      <g style="fill: #262626" transform="translate(351.814082 201.279215) scale(0.11 -0.11)">
       <use xlink:href="#DejaVuSerif-2212"/>
       <use xlink:href="#DejaVuSerif-35" transform="translate(83.789062 0)"/>
       <use xlink:href="#DejaVuSerif-2e" transform="translate(147.412109 0)"/>
       <use xlink:href="#DejaVuSerif-30" transform="translate(179.199219 0)"/>
      </g>
     </g>
    </g>
    <g id="ytick_11">
     <g id="line2d_58">
      <path d="M 382.025175 163.634285 
L 651.335137 163.634285 
" clip-path="url(#p215c3ca97e)" style="fill: none; stroke: #cccccc; stroke-width: 0.8; stroke-linecap: round"/>
     </g>
     <g id="line2d_59"/>
     <g id="text_35">
      <!-- −2.5 -->
      <g style="fill: #262626" transform="translate(351.814082 167.813425) scale(0.11 -0.11)">
       <use xlink:href="#DejaVuSerif-2212"/>
       <use xlink:href="#DejaVuSerif-32" transform="translate(83.789062 0)"/>
       <use xlink:href="#DejaVuSerif-2e" transform="translate(147.412109 0)"/>
       <use xlink:href="#DejaVuSerif-35" transform="translate(179.199219 0)"/>
      </g>
     </g>
    </g>
    <g id="ytick_12">
     <g id="line2d_60">
      <path d="M 382.025175 130.168495 
L 651.335137 130.168495 
" clip-path="url(#p215c3ca97e)" style="fill: none; stroke: #cccccc; stroke-width: 0.8; stroke-linecap: round"/>
     </g>
     <g id="line2d_61"/>
     <g id="text_36">
      <!-- 0.0 -->
      <g style="fill: #262626" transform="translate(361.031738 134.347636) scale(0.11 -0.11)">
       <use xlink:href="#DejaVuSerif-30"/>
       <use xlink:href="#DejaVuSerif-2e" transform="translate(63.623047 0)"/>
       <use xlink:href="#DejaVuSerif-30" transform="translate(95.410156 0)"/>
      </g>
     </g>
    </g>
    <g id="ytick_13">
     <g id="line2d_62">
      <path d="M 382.025175 96.702706 
L 651.335137 96.702706 
" clip-path="url(#p215c3ca97e)" style="fill: none; stroke: #cccccc; stroke-width: 0.8; stroke-linecap: round"/>
     </g>
     <g id="line2d_63"/>
     <g id="text_37">
      <!-- 2.5 -->
      <g style="fill: #262626" transform="translate(361.031738 100.881846) scale(0.11 -0.11)">
       <use xlink:href="#DejaVuSerif-32"/>
       <use xlink:href="#DejaVuSerif-2e" transform="translate(63.623047 0)"/>
       <use xlink:href="#DejaVuSerif-35" transform="translate(95.410156 0)"/>
      </g>
     </g>
    </g>
    <g id="ytick_14">
     <g id="line2d_64">
      <path d="M 382.025175 63.236916 
L 651.335137 63.236916 
" clip-path="url(#p215c3ca97e)" style="fill: none; stroke: #cccccc; stroke-width: 0.8; stroke-linecap: round"/>
     </g>
     <g id="line2d_65"/>
     <g id="text_38">
      <!-- 5.0 -->
      <g style="fill: #262626" transform="translate(361.031738 67.416057) scale(0.11 -0.11)">
       <use xlink:href="#DejaVuSerif-35"/>
       <use xlink:href="#DejaVuSerif-2e" transform="translate(63.623047 0)"/>
       <use xlink:href="#DejaVuSerif-30" transform="translate(95.410156 0)"/>
      </g>
     </g>
    </g>
    <g id="ytick_15">
     <g id="line2d_66">
      <path d="M 382.025175 29.771127 
L 651.335137 29.771127 
" clip-path="url(#p215c3ca97e)" style="fill: none; stroke: #cccccc; stroke-width: 0.8; stroke-linecap: round"/>
     </g>
     <g id="line2d_67"/>
     <g id="text_39">
      <!-- 7.5 -->
      <g style="fill: #262626" transform="translate(361.031738 33.950267) scale(0.11 -0.11)">
       <use xlink:href="#DejaVuSerif-37"/>
       <use xlink:href="#DejaVuSerif-2e" transform="translate(63.623047 0)"/>
       <use xlink:href="#DejaVuSerif-35" transform="translate(95.410156 0)"/>
      </g>
     </g>
    </g>
    <g id="text_40">
     <!-- $y$ -->
     <g style="fill: #262626" transform="translate(338.295332 153.247969) rotate(-90) scale(0.12 -0.12)">
      <use xlink:href="#Cmmi10-79" transform="translate(0 0.8125)"/>
     </g>
    </g>
   </g>
   <g id="line2d_68">
    <path d="M 415.688921 166.980863 
L 417.729148 170.988154 
L 419.769375 174.897105 
L 421.809601 178.707719 
L 423.849828 182.419994 
L 425.890055 186.03393 
L 427.930282 189.549528 
L 429.970509 192.966788 
L 432.010736 196.285709 
L 434.050963 199.506292 
L 436.09119 202.628536 
L 438.131417 205.652442 
L 440.171644 208.57801 
L 442.211871 211.405239 
L 444.252098 214.13413 
L 446.292325 216.764683 
L 448.332552 219.296897 
L 450.372779 221.730772 
L 452.413006 224.066309 
L 454.453233 226.303508 
L 456.49346 228.442368 
L 458.533687 230.48289 
L 460.573914 232.425074 
L 462.614141 234.268919 
L 464.654368 236.014426 
L 466.694595 237.661594 
L 468.734822 239.210424 
L 470.775049 240.660916 
L 472.815276 242.013069 
L 474.855503 243.266883 
L 476.89573 244.42236 
L 478.935957 245.479498 
L 480.976184 246.438297 
L 483.016411 247.298758 
L 485.056638 248.060881 
L 487.096865 248.724665 
L 489.137092 249.290111 
L 491.177319 249.757218 
L 493.217546 250.125987 
L 495.257773 250.396418 
L 497.298 250.56851 
L 499.338227 250.642264 
L 501.378454 250.617679 
L 503.418681 250.494756 
L 505.458908 250.273495 
L 507.499135 249.953895 
L 509.539362 249.535957 
L 511.579589 249.01968 
L 513.619816 248.405065 
L 515.660043 247.692112 
L 517.70027 246.88082 
L 519.740497 245.97119 
L 521.780724 244.963221 
L 523.820951 243.856914 
L 525.861178 242.652268 
L 527.901405 241.349285 
L 529.941632 239.947962 
L 531.981859 238.448302 
L 534.022086 236.850302 
L 536.062313 235.153965 
L 538.10254 233.359289 
L 540.142767 231.466275 
L 542.182994 229.474922 
L 544.223221 227.385231 
L 546.263448 225.197201 
L 548.303675 222.910833 
L 550.343901 220.526127 
L 552.384128 218.043082 
L 554.424355 215.461699 
L 556.464582 212.781977 
L 558.504809 210.003917 
L 560.545036 207.127519 
L 562.585263 204.152782 
L 564.62549 201.079706 
L 566.665717 197.908293 
L 568.705944 194.638541 
L 570.746171 191.27045 
L 572.786398 187.804021 
L 574.826625 184.239254 
L 576.866852 180.576148 
L 578.907079 176.814704 
L 580.947306 172.954922 
L 582.987533 168.996801 
L 585.02776 164.940342 
L 587.067987 160.785544 
L 589.108214 156.532408 
L 591.148441 152.180933 
L 593.188668 147.73112 
L 595.228895 143.182969 
L 597.269122 138.536479 
L 599.309349 133.791651 
L 601.349576 128.948484 
L 603.389803 124.006979 
L 605.43003 118.967136 
L 607.470257 113.828954 
L 609.510484 108.592434 
L 611.550711 103.257575 
L 613.590938 97.824378 
L 615.631165 92.292843 
L 617.671392 86.662969 
" clip-path="url(#p215c3ca97e)" style="fill: none; stroke: #059669; stroke-width: 2.5; stroke-linecap: round"/>
   </g>
   <g id="line2d_69">
    <path d="M 382.025175 130.168495 
L 651.335137 130.168495 
" clip-path="url(#p215c3ca97e)" style="fill: none; stroke: #000000; stroke-opacity: 0.5; stroke-width: 0.8; stroke-linecap: round"/>
   </g>
   <g id="line2d_70">
    <path d="M 466.184538 277.417969 
L 466.184538 23.077969 
" clip-path="url(#p215c3ca97e)" style="fill: none; stroke: #000000; stroke-opacity: 0.5; stroke-width: 0.8; stroke-linecap: round"/>
   </g>
   <g id="patch_7">
    <path d="M 382.025175 277.417969 
L 382.025175 23.077969 
" style="fill: none; stroke: #cccccc; stroke-linejoin: miter; stroke-linecap: square"/>
   </g>
   <g id="patch_8">
    <path d="M 382.025175 277.417969 
L 651.335137 277.417969 
" style="fill: none; stroke: #cccccc; stroke-linejoin: miter; stroke-linecap: square"/>
   </g>
   <g id="patch_9">
    <path d="M 587.024338 69.058482 
Q 593.711429 98.63813 600.151986 127.127264 
" style="fill: none; stroke: #dc2626; stroke-linecap: round"/>
    <path d="M 601.113859 123.218965 
L 600.151986 127.127264 
L 597.60247 124.012787 
" style="fill: none; stroke: #dc2626; stroke-linecap: round"/>
   </g>
   <g id="text_41">
    <!-- x-intercepts -->
    <g style="fill: #dc2626" transform="translate(556.886006 53.158885) scale(0.09 -0.09)">
     <defs>
      <path id="DejaVuSerif-78" d="M 1863 2028 
L 2559 2988 
L 2113 2988 
L 2113 3322 
L 3391 3322 
L 3391 2988 
L 2950 2988 
L 2059 1759 
L 3097 331 
L 3531 331 
L 3531 0 
L 1997 0 
L 1997 331 
L 2419 331 
L 1697 1325 
L 972 331 
L 1403 331 
L 1403 0 
L 141 0 
L 141 331 
L 581 331 
L 1497 1594 
L 488 2988 
L 78 2988 
L 78 3322 
L 1563 3322 
L 1563 2988 
L 1166 2988 
L 1863 2028 
z
" transform="scale(0.015625)"/>
      <path id="DejaVuSerif-73" d="M 359 184 
L 359 959 
L 691 959 
Q 703 588 923 403 
Q 1144 219 1575 219 
Q 1963 219 2166 364 
Q 2369 509 2369 788 
Q 2369 1006 2220 1140 
Q 2072 1275 1594 1428 
L 1178 1569 
Q 750 1706 558 1912 
Q 366 2119 366 2438 
Q 366 2894 700 3153 
Q 1034 3413 1625 3413 
Q 1888 3413 2178 3344 
Q 2469 3275 2778 3144 
L 2778 2419 
L 2447 2419 
Q 2434 2741 2221 2922 
Q 2009 3103 1644 3103 
Q 1281 3103 1095 2975 
Q 909 2847 909 2591 
Q 909 2381 1050 2254 
Q 1191 2128 1613 1997 
L 2069 1856 
Q 2541 1709 2748 1489 
Q 2956 1269 2956 922 
Q 2956 450 2595 179 
Q 2234 -91 1600 -91 
Q 1278 -91 972 -22 
Q 666 47 359 184 
z
" transform="scale(0.015625)"/>
     </defs>
     <use xlink:href="#DejaVuSerif-78"/>
     <use xlink:href="#DejaVuSerif-2d" transform="translate(54.646484 0)"/>
     <use xlink:href="#DejaVuSerif-69" transform="translate(88.435547 0)"/>
     <use xlink:href="#DejaVuSerif-6e" transform="translate(120.417969 0)"/>
     <use xlink:href="#DejaVuSerif-74" transform="translate(184.822266 0)"/>
     <use xlink:href="#DejaVuSerif-65" transform="translate(225.007812 0)"/>
     <use xlink:href="#DejaVuSerif-72" transform="translate(284.1875 0)"/>
     <use xlink:href="#DejaVuSerif-63" transform="translate(331.990234 0)"/>
     <use xlink:href="#DejaVuSerif-65" transform="translate(387.996094 0)"/>
     <use xlink:href="#DejaVuSerif-70" transform="translate(447.175781 0)"/>
     <use xlink:href="#DejaVuSerif-74" transform="translate(511.189453 0)"/>
     <use xlink:href="#DejaVuSerif-73" transform="translate(551.375 0)"/>
    </g>
    <!-- $x = -2, 4$ -->
    <g style="fill: #dc2626" transform="translate(566.322647 63.236916) scale(0.09 -0.09)">
     <defs>
      <path id="Cmsy10-a1" d="M 653 1472 
Q 600 1472 565 1512 
Q 531 1553 531 1600 
Q 531 1647 565 1687 
Q 600 1728 653 1728 
L 4325 1728 
Q 4375 1728 4408 1687 
Q 4441 1647 4441 1600 
Q 4441 1553 4408 1512 
Q 4375 1472 4325 1472 
L 653 1472 
z
" transform="scale(0.015625)"/>
      <path id="Cmmi10-3b" d="M 634 -1153 
Q 634 -1125 659 -1100 
Q 891 -878 1019 -587 
Q 1147 -297 1147 25 
L 1147 103 
Q 1044 0 891 0 
Q 744 0 641 103 
Q 538 206 538 353 
Q 538 503 641 603 
Q 744 703 891 703 
Q 1119 703 1216 492 
Q 1313 281 1313 25 
Q 1313 -331 1170 -651 
Q 1028 -972 769 -1228 
Q 744 -1241 728 -1241 
Q 697 -1241 665 -1212 
Q 634 -1184 634 -1153 
z
" transform="scale(0.015625)"/>
      <path id="Cmr10-34" d="M 178 1056 
L 178 1281 
L 2156 4231 
Q 2178 4263 2222 4263 
L 2316 4263 
Q 2388 4263 2388 4191 
L 2388 1281 
L 3016 1281 
L 3016 1056 
L 2388 1056 
L 2388 428 
Q 2388 297 2575 261 
Q 2763 225 3009 225 
L 3009 0 
L 1247 0 
L 1247 225 
Q 1494 225 1681 261 
Q 1869 297 1869 428 
L 1869 1056 
L 178 1056 
z
M 391 1281 
L 1906 1281 
L 1906 3547 
L 391 1281 
z
" transform="scale(0.015625)"/>
     </defs>
     <use xlink:href="#Cmmi10-78" transform="translate(0 0.390625)"/>
     <use xlink:href="#Cmr10-3d" transform="translate(74.638672 0.390625)"/>
     <use xlink:href="#Cmsy10-a1" transform="translate(169.882812 0.390625)"/>
     <use xlink:href="#Cmr10-32" transform="translate(247.568359 0.390625)"/>
     <use xlink:href="#Cmmi10-3b" transform="translate(297.568359 0.390625)"/>
     <use xlink:href="#Cmr10-34" transform="translate(342.8125 0.390625)"/>
    </g>
   </g>
   <g id="patch_10">
    <path d="M 441.728258 202.625734 
Q 453.379472 219.125376 464.385773 234.711734 
" style="fill: none; stroke: #f59e0b; stroke-linecap: round"/>
    <path d="M 463.779546 230.732728 
L 464.385773 234.711734 
L 460.838832 232.809312 
" style="fill: none; stroke: #f59e0b; stroke-linecap: round"/>
   </g>
   <g id="text_42">
    <!-- y-intercept -->
    <g style="fill: #f59e0b" transform="translate(407.624543 186.894074) scale(0.09 -0.09)">
     <use xlink:href="#DejaVuSerif-79"/>
     <use xlink:href="#DejaVuSerif-2d" transform="translate(56.494141 0)"/>
     <use xlink:href="#DejaVuSerif-69" transform="translate(90.283203 0)"/>
     <use xlink:href="#DejaVuSerif-6e" transform="translate(122.265625 0)"/>
     <use xlink:href="#DejaVuSerif-74" transform="translate(186.669922 0)"/>
     <use xlink:href="#DejaVuSerif-65" transform="translate(226.855469 0)"/>
     <use xlink:href="#DejaVuSerif-72" transform="translate(286.035156 0)"/>
     <use xlink:href="#DejaVuSerif-63" transform="translate(333.837891 0)"/>
     <use xlink:href="#DejaVuSerif-65" transform="translate(389.84375 0)"/>
     <use xlink:href="#DejaVuSerif-70" transform="translate(449.023438 0)"/>
     <use xlink:href="#DejaVuSerif-74" transform="translate(513.037109 0)"/>
    </g>
    <!-- $y = -8$ -->
    <g style="fill: #f59e0b" transform="translate(419.470793 197.100074) scale(0.09 -0.09)">
     <defs>
      <path id="Cmr10-38" d="M 269 972 
Q 269 1356 522 1651 
Q 775 1947 1172 2144 
L 934 2297 
Q 716 2441 578 2680 
Q 441 2919 441 3181 
Q 441 3488 602 3734 
Q 763 3981 1030 4122 
Q 1297 4263 1600 4263 
Q 1884 4263 2148 4147 
Q 2413 4031 2583 3815 
Q 2753 3600 2753 3303 
Q 2753 3088 2651 2903 
Q 2550 2719 2373 2572 
Q 2197 2425 1997 2322 
L 2363 2088 
Q 2616 1922 2770 1653 
Q 2925 1384 2925 1088 
Q 2925 741 2739 456 
Q 2553 172 2247 15 
Q 1941 -141 1600 -141 
Q 1269 -141 961 -6 
Q 653 128 461 383 
Q 269 638 269 972 
z
M 616 972 
Q 616 719 755 509 
Q 894 300 1122 181 
Q 1350 63 1600 63 
Q 1972 63 2275 280 
Q 2578 497 2578 856 
Q 2578 978 2529 1098 
Q 2481 1219 2395 1317 
Q 2309 1416 2203 1478 
L 1344 2034 
Q 1144 1928 976 1765 
Q 809 1603 712 1400 
Q 616 1197 616 972 
z
M 1056 2925 
L 1831 2425 
Q 2100 2581 2272 2803 
Q 2444 3025 2444 3303 
Q 2444 3519 2323 3698 
Q 2203 3878 2009 3978 
Q 1816 4078 1594 4078 
Q 1400 4078 1203 4003 
Q 1006 3928 878 3779 
Q 750 3631 750 3431 
Q 750 3131 1056 2925 
z
" transform="scale(0.015625)"/>
     </defs>
     <use xlink:href="#Cmmi10-79" transform="translate(0 0.390625)"/>
     <use xlink:href="#Cmr10-3d" transform="translate(66.582031 0.390625)"/>
     <use xlink:href="#Cmsy10-a1" transform="translate(161.826172 0.390625)"/>
     <use xlink:href="#Cmr10-38" transform="translate(239.511719 0.390625)"/>
    </g>
   </g>
   <g id="patch_11">
    <path d="M 531.565187 229.222985 
Q 516.537213 239.373236 502.435738 248.897708 
" style="fill: none; stroke: #7c3aed; stroke-linecap: round"/>
    <path d="M 506.426493 248.374372 
L 502.435738 248.897708 
L 504.411522 245.391103 
" style="fill: none; stroke: #7c3aed; stroke-linecap: round"/>
   </g>
   <g id="text_43">
    <!-- Vertex -->
    <g style="fill: #7c3aed" transform="translate(535.680933 213.794674) scale(0.09 -0.09)">
     <defs>
      <path id="DejaVuSerif-56" d="M 1119 4331 
L 2497 750 
L 3872 4331 
L 3347 4331 
L 3347 4666 
L 4716 4666 
L 4716 4331 
L 4263 4331 
L 2597 0 
L 2059 0 
L 403 4331 
L -63 4331 
L -63 4666 
L 1638 4666 
L 1638 4331 
L 1119 4331 
z
" transform="scale(0.015625)"/>
     </defs>
     <use xlink:href="#DejaVuSerif-56"/>
     <use xlink:href="#DejaVuSerif-65" transform="translate(63.091797 0)"/>
     <use xlink:href="#DejaVuSerif-72" transform="translate(122.271484 0)"/>
     <use xlink:href="#DejaVuSerif-74" transform="translate(170.074219 0)"/>
     <use xlink:href="#DejaVuSerif-65" transform="translate(210.259766 0)"/>
     <use xlink:href="#DejaVuSerif-78" transform="translate(269.439453 0)"/>
    </g>
    <!-- $(1, -9)$ -->
    <g style="fill: #7c3aed" transform="translate(535.223901 223.872706) scale(0.09 -0.09)">
     <defs>
      <path id="Cmr10-39" d="M 722 269 
Q 897 63 1331 63 
Q 1575 63 1786 228 
Q 1997 394 2113 634 
Q 2247 906 2284 1214 
Q 2322 1522 2322 1978 
Q 2213 1719 2008 1553 
Q 1803 1388 1538 1388 
Q 1166 1388 873 1589 
Q 581 1791 425 2120 
Q 269 2450 269 2822 
Q 269 3206 444 3539 
Q 619 3872 928 4067 
Q 1238 4263 1631 4263 
Q 2019 4263 2280 4052 
Q 2541 3841 2678 3508 
Q 2816 3175 2870 2803 
Q 2925 2431 2925 2069 
Q 2925 1575 2744 1061 
Q 2563 547 2202 203 
Q 1841 -141 1331 -141 
Q 953 -141 690 37 
Q 428 216 428 575 
Q 428 706 517 795 
Q 606 884 738 884 
Q 866 884 955 795 
Q 1044 706 1044 575 
Q 1044 450 953 359 
Q 863 269 738 269 
L 722 269 
z
M 1563 1556 
Q 1825 1556 1992 1732 
Q 2159 1909 2234 2171 
Q 2309 2434 2309 2694 
L 2309 2816 
L 2309 2841 
Q 2309 3322 2168 3700 
Q 2028 4078 1631 4078 
Q 1378 4078 1220 3967 
Q 1063 3856 988 3672 
Q 913 3488 892 3278 
Q 872 3069 872 2822 
Q 872 2459 906 2203 
Q 941 1947 1094 1751 
Q 1247 1556 1563 1556 
z
" transform="scale(0.015625)"/>
     </defs>
     <use xlink:href="#Cmr10-28"/>
     <use xlink:href="#Cmr10-31" transform="translate(38.818359 0)"/>
     <use xlink:href="#Cmmi10-3b" transform="translate(88.818359 0)"/>
     <use xlink:href="#Cmsy10-a1" transform="translate(151.621094 0)"/>
     <use xlink:href="#Cmr10-39" transform="translate(246.865234 0)"/>
     <use xlink:href="#Cmr10-29" transform="translate(296.865234 0)"/>
    </g>
   </g>
   <g id="text_44">
    <!-- Quadratic Function -->
    <g style="fill: #262626" transform="translate(445.764141 17.077969) scale(0.13 -0.13)">
     <defs>
      <path id="DejaVuSerif-Bold-51" d="M 2766 -91 
Q 1584 -72 926 565 
Q 269 1203 269 2328 
Q 269 3459 939 4104 
Q 1609 4750 2784 4750 
Q 3963 4750 4631 4106 
Q 5300 3463 5300 2328 
Q 5300 1334 4786 715 
Q 4272 97 3322 -50 
Q 3488 -228 3725 -306 
Q 3963 -384 4341 -384 
L 4500 -384 
L 4500 -1153 
L 4409 -1153 
Q 3816 -1153 3419 -897 
Q 3022 -641 2766 -91 
z
M 2784 288 
Q 3381 288 3672 791 
Q 3963 1294 3963 2328 
Q 3963 3366 3672 3869 
Q 3381 4372 2784 4372 
Q 2191 4372 1898 3864 
Q 1606 3356 1606 2328 
Q 1606 1303 1898 795 
Q 2191 288 2784 288 
z
" transform="scale(0.015625)"/>
      <path id="DejaVuSerif-Bold-64" d="M 2747 1497 
L 2747 1825 
Q 2747 2406 2597 2665 
Q 2447 2925 2119 2925 
Q 1775 2925 1636 2651 
Q 1497 2378 1497 1663 
Q 1497 947 1637 672 
Q 1778 397 2119 397 
Q 2447 397 2597 656 
Q 2747 916 2747 1497 
z
M 3853 378 
L 4325 378 
L 4325 0 
L 2747 0 
L 2747 422 
Q 2606 163 2367 36 
Q 2128 -91 1778 -91 
Q 1072 -91 667 378 
Q 263 847 263 1663 
Q 263 2481 667 2947 
Q 1072 3413 1778 3413 
Q 2128 3413 2367 3286 
Q 2606 3159 2747 2900 
L 2747 4488 
L 2272 4488 
L 2272 4863 
L 3853 4863 
L 3853 378 
z
" transform="scale(0.015625)"/>
     </defs>
     <use xlink:href="#DejaVuSerif-Bold-51"/>
     <use xlink:href="#DejaVuSerif-Bold-75" transform="translate(87.109375 0)"/>
     <use xlink:href="#DejaVuSerif-Bold-61" transform="translate(159.814453 0)"/>
     <use xlink:href="#DejaVuSerif-Bold-64" transform="translate(224.609375 0)"/>
     <use xlink:href="#DejaVuSerif-Bold-72" transform="translate(294.53125 0)"/>
     <use xlink:href="#DejaVuSerif-Bold-61" transform="translate(347.216797 0)"/>
     <use xlink:href="#DejaVuSerif-Bold-74" transform="translate(412.011719 0)"/>
     <use xlink:href="#DejaVuSerif-Bold-69" transform="translate(458.203125 0)"/>
     <use xlink:href="#DejaVuSerif-Bold-63" transform="translate(496.191406 0)"/>
     <use xlink:href="#DejaVuSerif-Bold-20" transform="translate(557.080078 0)"/>
     <use xlink:href="#DejaVuSerif-Bold-46" transform="translate(591.894531 0)"/>
     <use xlink:href="#DejaVuSerif-Bold-75" transform="translate(661.140625 0)"/>
     <use xlink:href="#DejaVuSerif-Bold-6e" transform="translate(733.845703 0)"/>
     <use xlink:href="#DejaVuSerif-Bold-63" transform="translate(806.550781 0)"/>
     <use xlink:href="#DejaVuSerif-Bold-74" transform="translate(867.439453 0)"/>
     <use xlink:href="#DejaVuSerif-Bold-69" transform="translate(913.630859 0)"/>
     <use xlink:href="#DejaVuSerif-Bold-6f" transform="translate(951.619141 0)"/>
     <use xlink:href="#DejaVuSerif-Bold-6e" transform="translate(1018.318359 0)"/>
    </g>
   </g>
   <g id="line2d_71">
    <defs>
     <path id="m5a6e440f49" d="M 0 4 
C 1.060812 4 2.078319 3.578535 2.828427 2.828427 
C 3.578535 2.078319 4 1.060812 4 0 
C 4 -1.060812 3.578535 -2.078319 2.828427 -2.828427 
C 2.078319 -3.578535 1.060812 -4 0 -4 
C -1.060812 -4 -2.078319 -3.578535 -2.828427 -2.828427 
C -3.578535 -2.078319 -4 -1.060812 -4 0 
C -4 1.060812 -3.578535 2.078319 -2.828427 2.828427 
C -2.078319 3.578535 -1.060812 4 0 4 
z
" style="stroke: #dc2626"/>
    </defs>
    <g clip-path="url(#p215c3ca97e)">
     <use xlink:href="#m5a6e440f49" x="398.857048" y="130.168495" style="fill: #dc2626; stroke: #dc2626"/>
     <use xlink:href="#m5a6e440f49" x="600.839519" y="130.168495" style="fill: #dc2626; stroke: #dc2626"/>
    </g>
   </g>
   <g id="line2d_72">
    <defs>
     <path id="m19b420922a" d="M 0 4 
C 1.060812 4 2.078319 3.578535 2.828427 2.828427 
C 3.578535 2.078319 4 1.060812 4 0 
C 4 -1.060812 3.578535 -2.078319 2.828427 -2.828427 
C 2.078319 -3.578535 1.060812 -4 0 -4 
C -1.060812 -4 -2.078319 -3.578535 -2.828427 -2.828427 
C -3.578535 -2.078319 -4 -1.060812 -4 0 
C -4 1.060812 -3.578535 2.078319 -2.828427 2.828427 
C -2.078319 3.578535 -1.060812 4 0 4 
z
" style="stroke: #f59e0b"/>
    </defs>
    <g clip-path="url(#p215c3ca97e)">
     <use xlink:href="#m19b420922a" x="466.184538" y="237.259021" style="fill: #f59e0b; stroke: #f59e0b"/>
    </g>
   </g>
   <g id="line2d_73">
    <defs>
     <path id="m8ca9ed5405" d="M 0 -7 
L -1.571598 -2.163119 
L -6.657396 -2.163119 
L -2.542899 0.826238 
L -4.114497 5.663119 
L -0 2.673762 
L 4.114497 5.663119 
L 2.542899 0.826238 
L 6.657396 -2.163119 
L 1.571598 -2.163119 
z
" style="stroke: #7c3aed; stroke-linejoin: bevel"/>
    </defs>
    <g clip-path="url(#p215c3ca97e)">
     <use xlink:href="#m8ca9ed5405" x="499.848284" y="250.645337" style="fill: #7c3aed; stroke: #7c3aed; stroke-linejoin: bevel"/>
    </g>
   </g>
   <g id="legend_2">
    <g id="line2d_74">
     <path d="M 547.475137 35.677969 
L 556.475137 35.677969 
L 565.475137 35.677969 
" style="fill: none; stroke: #059669; stroke-width: 2.5; stroke-linecap: round"/>
    </g>
    <g id="text_45">
     <!-- $f(x) = x^2 - 2x - 8$ -->
     <g style="fill: #262626" transform="translate(572.675137 38.827969) scale(0.09 -0.09)">
      <use xlink:href="#Cmmi10-66" transform="translate(0 0.109375)"/>
      <use xlink:href="#Cmr10-28" transform="translate(48.876953 0.109375)"/>
      <use xlink:href="#Cmmi10-78" transform="translate(87.695312 0.109375)"/>
      <use xlink:href="#Cmr10-29" transform="translate(144.775391 0.109375)"/>
      <use xlink:href="#Cmr10-3d" transform="translate(201.152344 0.109375)"/>
      <use xlink:href="#Cmmi10-78" transform="translate(296.396484 0.109375)"/>
      <use xlink:href="#Cmr10-32" transform="translate(359.779844 38.373438) scale(0.7)"/>
      <use xlink:href="#Cmsy10-a1" transform="translate(418.715781 0.109375)"/>
      <use xlink:href="#Cmr10-32" transform="translate(513.959922 0.109375)"/>
      <use xlink:href="#Cmmi10-78" transform="translate(563.959922 0.109375)"/>
      <use xlink:href="#Cmsy10-a1" transform="translate(638.598594 0.109375)"/>
      <use xlink:href="#Cmr10-38" transform="translate(733.842734 0.109375)"/>
     </g>
    </g>
   </g>
  </g>
  <g id="axes_3">
   <g id="patch_12">
    <path d="M 721.520194 277.417969 
L 990.830156 277.417969 
L 990.830156 23.077969 
L 721.520194 23.077969 
z
" style="fill: #ffffff"/>
   </g>
   <g id="matplotlib.axis_5">
    <g id="xtick_16">
     <g id="line2d_75">
      <path d="M 729.559298 277.417969 
L 729.559298 23.077969 
" clip-path="url(#p413998cd15)" style="fill: none; stroke: #cccccc; stroke-width: 0.8; stroke-linecap: round"/>
     </g>
     <g id="line2d_76"/>
     <g id="text_46">
      <!-- −1 -->
      <g style="fill: #262626" transform="translate(721.451095 289.27625) scale(0.11 -0.11)">
       <use xlink:href="#DejaVuSerif-2212"/>
       <use xlink:href="#DejaVuSerif-31" transform="translate(83.789062 0)"/>
      </g>
     </g>
    </g>
    <g id="xtick_17">
     <g id="line2d_77">
      <path d="M 769.754814 277.417969 
L 769.754814 23.077969 
" clip-path="url(#p413998cd15)" style="fill: none; stroke: #cccccc; stroke-width: 0.8; stroke-linecap: round"/>
     </g>
     <g id="line2d_78"/>
     <g id="text_47">
      <!-- 0 -->
      <g style="fill: #262626" transform="translate(766.255439 289.27625) scale(0.11 -0.11)">
       <use xlink:href="#DejaVuSerif-30"/>
      </g>
     </g>
    </g>
    <g id="xtick_18">
     <g id="line2d_79">
      <path d="M 809.950331 277.417969 
L 809.950331 23.077969 
" clip-path="url(#p413998cd15)" style="fill: none; stroke: #cccccc; stroke-width: 0.8; stroke-linecap: round"/>
     </g>
     <g id="line2d_80"/>
     <g id="text_48">
      <!-- 1 -->
      <g style="fill: #262626" transform="translate(806.450956 289.27625) scale(0.11 -0.11)">
       <use xlink:href="#DejaVuSerif-31"/>
      </g>
     </g>
    </g>
    <g id="xtick_19">
     <g id="line2d_81">
      <path d="M 850.145848 277.417969 
L 850.145848 23.077969 
" clip-path="url(#p413998cd15)" style="fill: none; stroke: #cccccc; stroke-width: 0.8; stroke-linecap: round"/>
     </g>
     <g id="line2d_82"/>
     <g id="text_49">
      <!-- 2 -->
      <g style="fill: #262626" transform="translate(846.646473 289.27625) scale(0.11 -0.11)">
       <use xlink:href="#DejaVuSerif-32"/>
      </g>
     </g>
    </g>
    <g id="xtick_20">
     <g id="line2d_83">
      <path d="M 890.341364 277.417969 
L 890.341364 23.077969 
" clip-path="url(#p413998cd15)" style="fill: none; stroke: #cccccc; stroke-width: 0.8; stroke-linecap: round"/>
     </g>
     <g id="line2d_84"/>
     <g id="text_50">
      <!-- 3 -->
      <g style="fill: #262626" transform="translate(886.841989 289.27625) scale(0.11 -0.11)">
       <use xlink:href="#DejaVuSerif-33"/>
      </g>
     </g>
    </g>
    <g id="xtick_21">
     <g id="line2d_85">
      <path d="M 930.536881 277.417969 
L 930.536881 23.077969 
" clip-path="url(#p413998cd15)" style="fill: none; stroke: #cccccc; stroke-width: 0.8; stroke-linecap: round"/>
     </g>
     <g id="line2d_86"/>
     <g id="text_51">
      <!-- 4 -->
      <g style="fill: #262626" transform="translate(927.037506 289.27625) scale(0.11 -0.11)">
       <use xlink:href="#DejaVuSerif-34"/>
      </g>
     </g>
    </g>
    <g id="xtick_22">
     <g id="line2d_87">
      <path d="M 970.732398 277.417969 
L 970.732398 23.077969 
" clip-path="url(#p413998cd15)" style="fill: none; stroke: #cccccc; stroke-width: 0.8; stroke-linecap: round"/>
     </g>
     <g id="line2d_88"/>
     <g id="text_52">
      <!-- 5 -->
      <g style="fill: #262626" transform="translate(967.233023 289.27625) scale(0.11 -0.11)">
       <use xlink:href="#DejaVuSerif-35"/>
      </g>
     </g>
    </g>
    <g id="text_53">
     <!-- $x$ -->
     <g style="fill: #262626" transform="translate(852.695175 304.682031) scale(0.12 -0.12)">
      <use xlink:href="#Cmmi10-78" transform="translate(0 0.8125)"/>
     </g>
    </g>
   </g>
   <g id="matplotlib.axis_6">
    <g id="ytick_16">
     <g id="line2d_89">
      <path d="M 721.520194 277.417969 
L 990.830156 277.417969 
" clip-path="url(#p413998cd15)" style="fill: none; stroke: #cccccc; stroke-width: 0.8; stroke-linecap: round"/>
     </g>
     <g id="line2d_90"/>
     <g id="text_54">
      <!-- −1.0 -->
      <g style="fill: #262626" transform="translate(691.309101 281.597109) scale(0.11 -0.11)">
       <use xlink:href="#DejaVuSerif-2212"/>
       <use xlink:href="#DejaVuSerif-31" transform="translate(83.789062 0)"/>
       <use xlink:href="#DejaVuSerif-2e" transform="translate(147.412109 0)"/>
       <use xlink:href="#DejaVuSerif-30" transform="translate(179.199219 0)"/>
      </g>
     </g>
    </g>
    <g id="ytick_17">
     <g id="line2d_91">
      <path d="M 721.520194 245.625469 
L 990.830156 245.625469 
" clip-path="url(#p413998cd15)" style="fill: none; stroke: #cccccc; stroke-width: 0.8; stroke-linecap: round"/>
     </g>
     <g id="line2d_92"/>
     <g id="text_55">
      <!-- −0.5 -->
      <g style="fill: #262626" transform="translate(691.309101 249.804609) scale(0.11 -0.11)">
       <use xlink:href="#DejaVuSerif-2212"/>
       <use xlink:href="#DejaVuSerif-30" transform="translate(83.789062 0)"/>
       <use xlink:href="#DejaVuSerif-2e" transform="translate(147.412109 0)"/>
       <use xlink:href="#DejaVuSerif-35" transform="translate(179.199219 0)"/>
      </g>
     </g>
    </g>
    <g id="ytick_18">
     <g id="line2d_93">
      <path d="M 721.520194 213.832969 
L 990.830156 213.832969 
" clip-path="url(#p413998cd15)" style="fill: none; stroke: #cccccc; stroke-width: 0.8; stroke-linecap: round"/>
     </g>
     <g id="line2d_94"/>
     <g id="text_56">
      <!-- 0.0 -->
      <g style="fill: #262626" transform="translate(700.526757 218.012109) scale(0.11 -0.11)">
       <use xlink:href="#DejaVuSerif-30"/>
       <use xlink:href="#DejaVuSerif-2e" transform="translate(63.623047 0)"/>
       <use xlink:href="#DejaVuSerif-30" transform="translate(95.410156 0)"/>
      </g>
     </g>
    </g>
    <g id="ytick_19">
     <g id="line2d_95">
      <path d="M 721.520194 182.040469 
L 990.830156 182.040469 
" clip-path="url(#p413998cd15)" style="fill: none; stroke: #cccccc; stroke-width: 0.8; stroke-linecap: round"/>
     </g>
     <g id="line2d_96"/>
     <g id="text_57">
      <!-- 0.5 -->
      <g style="fill: #262626" transform="translate(700.526757 186.219609) scale(0.11 -0.11)">
       <use xlink:href="#DejaVuSerif-30"/>
       <use xlink:href="#DejaVuSerif-2e" transform="translate(63.623047 0)"/>
       <use xlink:href="#DejaVuSerif-35" transform="translate(95.410156 0)"/>
      </g>
     </g>
    </g>
    <g id="ytick_20">
     <g id="line2d_97">
      <path d="M 721.520194 150.247969 
L 990.830156 150.247969 
" clip-path="url(#p413998cd15)" style="fill: none; stroke: #cccccc; stroke-width: 0.8; stroke-linecap: round"/>
     </g>
     <g id="line2d_98"/>
     <g id="text_58">
      <!-- 1.0 -->
      <g style="fill: #262626" transform="translate(700.526757 154.427109) scale(0.11 -0.11)">
       <use xlink:href="#DejaVuSerif-31"/>
       <use xlink:href="#DejaVuSerif-2e" transform="translate(63.623047 0)"/>
       <use xlink:href="#DejaVuSerif-30" transform="translate(95.410156 0)"/>
      </g>
     </g>
    </g>
    <g id="ytick_21">
     <g id="line2d_99">
      <path d="M 721.520194 118.455469 
L 990.830156 118.455469 
" clip-path="url(#p413998cd15)" style="fill: none; stroke: #cccccc; stroke-width: 0.8; stroke-linecap: round"/>
     </g>
     <g id="line2d_100"/>
     <g id="text_59">
      <!-- 1.5 -->
      <g style="fill: #262626" transform="translate(700.526757 122.634609) scale(0.11 -0.11)">
       <use xlink:href="#DejaVuSerif-31"/>
       <use xlink:href="#DejaVuSerif-2e" transform="translate(63.623047 0)"/>
       <use xlink:href="#DejaVuSerif-35" transform="translate(95.410156 0)"/>
      </g>
     </g>
    </g>
    <g id="ytick_22">
     <g id="line2d_101">
      <path d="M 721.520194 86.662969 
L 990.830156 86.662969 
" clip-path="url(#p413998cd15)" style="fill: none; stroke: #cccccc; stroke-width: 0.8; stroke-linecap: round"/>
     </g>
     <g id="line2d_102"/>
     <g id="text_60">
      <!-- 2.0 -->
      <g style="fill: #262626" transform="translate(700.526757 90.842109) scale(0.11 -0.11)">
       <use xlink:href="#DejaVuSerif-32"/>
       <use xlink:href="#DejaVuSerif-2e" transform="translate(63.623047 0)"/>
       <use xlink:href="#DejaVuSerif-30" transform="translate(95.410156 0)"/>
      </g>
     </g>
    </g>
    <g id="ytick_23">
     <g id="line2d_103">
      <path d="M 721.520194 54.870469 
L 990.830156 54.870469 
" clip-path="url(#p413998cd15)" style="fill: none; stroke: #cccccc; stroke-width: 0.8; stroke-linecap: round"/>
     </g>
     <g id="line2d_104"/>
     <g id="text_61">
      <!-- 2.5 -->
      <g style="fill: #262626" transform="translate(700.526757 59.049609) scale(0.11 -0.11)">
       <use xlink:href="#DejaVuSerif-32"/>
       <use xlink:href="#DejaVuSerif-2e" transform="translate(63.623047 0)"/>
       <use xlink:href="#DejaVuSerif-35" transform="translate(95.410156 0)"/>
      </g>
     </g>
    </g>
    <g id="ytick_24">
     <g id="line2d_105">
      <path d="M 721.520194 23.077969 
L 990.830156 23.077969 
" clip-path="url(#p413998cd15)" style="fill: none; stroke: #cccccc; stroke-width: 0.8; stroke-linecap: round"/>
     </g>
     <g id="line2d_106"/>
     <g id="text_62">
      <!-- 3.0 -->
      <g style="fill: #262626" transform="translate(700.526757 27.257109) scale(0.11 -0.11)">
       <use xlink:href="#DejaVuSerif-33"/>
       <use xlink:href="#DejaVuSerif-2e" transform="translate(63.623047 0)"/>
       <use xlink:href="#DejaVuSerif-30" transform="translate(95.410156 0)"/>
      </g>
     </g>
    </g>
    <g id="text_63">
     <!-- $y$ -->
     <g style="fill: #262626" transform="translate(684.789101 153.247969) rotate(-90) scale(0.12 -0.12)">
      <use xlink:href="#Cmmi10-79" transform="translate(0 0.8125)"/>
     </g>
    </g>
   </g>
   <g id="FillBetweenPolyCollection_1">
    <defs>
     <path id="m9965c6bd92" d="M 970.732398 -100.544688 
L 769.754814 -100.544688 
L 769.754814 -259.507187 
L 970.732398 -259.507187 
L 970.732398 -259.507187 
L 970.732398 -100.544688 
z
" style="stroke: #2563eb; stroke-opacity: 0.15"/>
    </defs>
    <g clip-path="url(#p413998cd15)">
     <use xlink:href="#m9965c6bd92" x="0" y="314.377656" style="fill: #2563eb; fill-opacity: 0.15; stroke: #2563eb; stroke-opacity: 0.15"/>
    </g>
   </g>
   <g id="FillBetweenPolyCollection_2">
    <defs>
     <path id="m51448aaf86" d="M 769.754814 -259.507187 
L 769.754814 -100.544688 
L 970.732398 -100.544688 
L 970.732398 -259.507187 
L 970.732398 -259.507187 
L 769.754814 -259.507187 
z
" style="stroke: #059669; stroke-opacity: 0.08"/>
    </defs>
    <g clip-path="url(#p413998cd15)">
     <use xlink:href="#m51448aaf86" x="0" y="314.377656" style="fill: #059669; fill-opacity: 0.08; stroke: #059669; stroke-opacity: 0.08"/>
    </g>
   </g>
   <g id="line2d_107">
    <path d="M 769.754814 213.832969 
L 771.784891 199.543303 
L 773.814968 193.624329 
L 775.845044 189.082541 
L 777.875121 185.253637 
L 779.905197 181.880304 
L 781.935274 178.830578 
L 783.965351 176.026066 
L 785.995427 173.41569 
L 788.025504 170.96397 
L 790.05558 168.645077 
L 792.085657 166.439508 
L 794.115734 164.332113 
L 796.14581 162.310845 
L 798.175887 160.365934 
L 800.205963 158.48933 
L 802.23604 156.674304 
L 804.266117 154.915166 
L 806.296193 153.20705 
L 808.32627 151.545758 
L 810.356346 149.927639 
L 812.386423 148.349492 
L 814.4165 146.808494 
L 816.446576 145.302138 
L 818.476653 143.828188 
L 820.506729 142.384638 
L 822.536806 140.969683 
L 824.566883 139.581686 
L 826.596959 138.219163 
L 828.627036 136.880762 
L 830.657112 135.565244 
L 832.687189 134.271475 
L 834.717266 132.99841 
L 836.747342 131.745087 
L 838.777419 130.510613 
L 840.807495 129.294164 
L 842.837572 128.094972 
L 844.867649 126.912323 
L 846.897725 125.745551 
L 848.927802 124.594033 
L 850.957878 123.457185 
L 852.987955 122.334461 
L 855.018032 121.225348 
L 857.048108 120.129362 
L 859.078185 119.046047 
L 861.108261 117.974975 
L 863.138338 116.915738 
L 865.168415 115.867954 
L 867.198491 114.831258 
L 869.228568 113.805306 
L 871.258644 112.789771 
L 873.288721 111.784341 
L 875.318798 110.788721 
L 877.348874 109.802629 
L 879.378951 108.825797 
L 881.409027 107.857969 
L 883.439104 106.898899 
L 885.469181 105.948356 
L 887.499257 105.006114 
L 889.529334 104.071961 
L 891.55941 103.145691 
L 893.589487 102.227109 
L 895.619564 101.316025 
L 897.64964 100.41226 
L 899.679717 99.51564 
L 901.709793 98.625998 
L 903.73987 97.743173 
L 905.769947 96.867011 
L 907.800023 95.997364 
L 909.8301 95.134087 
L 911.860176 94.277045 
L 913.890253 93.426102 
L 915.92033 92.581131 
L 917.950406 91.742008 
L 919.980483 90.908613 
L 922.010559 90.08083 
L 924.040636 89.258548 
L 926.070713 88.441658 
L 928.100789 87.630055 
L 930.130866 86.823638 
L 932.160942 86.02231 
L 934.191019 85.225974 
L 936.221096 84.434539 
L 938.251172 83.647915 
L 940.281249 82.866016 
L 942.311325 82.088757 
L 944.341402 81.316057 
L 946.371479 80.547837 
L 948.401555 79.784019 
L 950.431632 79.024529 
L 952.461708 78.269293 
L 954.491785 77.518242 
L 956.521862 76.771307 
L 958.551938 76.02842 
L 960.582015 75.289516 
L 962.612091 74.554532 
L 964.642168 73.823407 
L 966.672245 73.096079 
L 968.702321 72.372492 
L 970.732398 71.652586 
" clip-path="url(#p413998cd15)" style="fill: none; stroke: #7c3aed; stroke-width: 2.5; stroke-linecap: round"/>
   </g>
   <g id="line2d_108">
    <path d="M 721.520194 213.832969 
L 990.830156 213.832969 
" clip-path="url(#p413998cd15)" style="fill: none; stroke: #000000; stroke-opacity: 0.5; stroke-width: 0.8; stroke-linecap: round"/>
   </g>
   <g id="line2d_109">
    <path d="M 769.754814 277.417969 
L 769.754814 23.077969 
" clip-path="url(#p413998cd15)" style="fill: none; stroke: #000000; stroke-opacity: 0.5; stroke-width: 0.8; stroke-linecap: round"/>
   </g>
   <g id="patch_13">
    <path d="M 721.520194 277.417969 
L 721.520194 23.077969 
" style="fill: none; stroke: #cccccc; stroke-linejoin: miter; stroke-linecap: square"/>
   </g>
   <g id="patch_14">
    <path d="M 721.520194 277.417969 
L 990.830156 277.417969 
" style="fill: none; stroke: #cccccc; stroke-linejoin: miter; stroke-linecap: square"/>
   </g>
   <g id="patch_15">
    <path d="M 773.989863 232.908469 
Q 866.222756 232.908469 958.455648 232.908469 
" style="fill: none; stroke: #2563eb; stroke-width: 2; stroke-linecap: round"/>
    <path d="M 778.389863 235.108469 
L 773.989863 232.908469 
L 778.389863 230.708469 
" style="fill: none; stroke: #2563eb; stroke-width: 2; stroke-linecap: round"/>
    <path d="M 954.055648 230.708469 
L 958.455648 232.908469 
L 954.055648 235.108469 
" style="fill: none; stroke: #2563eb; stroke-width: 2; stroke-linecap: round"/>
   </g>
   <g id="text_64">
    <!-- Domain: $x \geq 0$ -->
    <g style="fill: #2563eb" transform="translate(833.893606 251.983969) scale(0.1 -0.1)">
     <defs>
      <path id="DejaVuSerif-Bold-44" d="M 2100 378 
L 2534 378 
Q 3266 378 3605 847 
Q 3944 1316 3944 2338 
Q 3944 3353 3606 3820 
Q 3269 4288 2534 4288 
L 2100 4288 
L 2100 378 
z
M 300 0 
L 300 378 
L 897 378 
L 897 4288 
L 300 4288 
L 300 4666 
L 2694 4666 
Q 3950 4666 4615 4066 
Q 5281 3466 5281 2338 
Q 5281 1203 4614 601 
Q 3947 0 2694 0 
L 300 0 
z
" transform="scale(0.015625)"/>
      <path id="DejaVuSerif-Bold-6d" d="M 3884 2778 
Q 4116 3109 4384 3261 
Q 4653 3413 5013 3413 
Q 5584 3413 5867 3089 
Q 6150 2766 6150 2113 
L 6150 378 
L 6625 378 
L 6625 0 
L 4647 0 
L 4647 378 
L 5044 378 
L 5044 1947 
Q 5044 2569 4948 2731 
Q 4853 2894 4594 2894 
Q 4300 2894 4137 2667 
Q 3975 2441 3975 2022 
L 3975 378 
L 4372 378 
L 4372 0 
L 2472 0 
L 2472 378 
L 2869 378 
L 2869 1947 
Q 2869 2569 2772 2731 
Q 2675 2894 2419 2894 
Q 2122 2894 1959 2667 
Q 1797 2441 1797 2022 
L 1797 378 
L 2194 378 
L 2194 0 
L 219 0 
L 219 378 
L 691 378 
L 691 2944 
L 219 2944 
L 219 3322 
L 1797 3322 
L 1797 2853 
Q 1991 3144 2241 3278 
Q 2491 3413 2834 3413 
Q 3241 3413 3494 3258 
Q 3747 3103 3884 2778 
z
" transform="scale(0.015625)"/>
      <path id="DejaVuSerif-Bold-3a" d="M 588 2541 
Q 588 2788 761 2963 
Q 934 3138 1178 3138 
Q 1422 3138 1597 2961 
Q 1772 2784 1772 2541 
Q 1772 2297 1598 2125 
Q 1425 1953 1178 1953 
Q 931 1953 759 2125 
Q 588 2297 588 2541 
z
M 588 506 
Q 588 750 761 925 
Q 934 1100 1178 1100 
Q 1422 1100 1597 925 
Q 1772 750 1772 506 
Q 1772 259 1597 84 
Q 1422 -91 1178 -91 
Q 934 -91 761 84 
Q 588 259 588 506 
z
" transform="scale(0.015625)"/>
      <path id="Cmsy10-b8" d="M 653 -878 
Q 600 -878 565 -837 
Q 531 -797 531 -750 
Q 531 -697 565 -659 
Q 600 -622 653 -622 
L 4325 -622 
Q 4375 -622 4408 -659 
Q 4441 -697 4441 -750 
Q 4441 -797 4408 -837 
Q 4375 -878 4325 -878 
L 653 -878 
z
M 531 494 
Q 531 572 616 616 
L 4013 2222 
L 594 3834 
Q 531 3863 531 3944 
Q 531 3991 568 4031 
Q 606 4072 659 4072 
Q 691 4072 709 4063 
L 4384 2328 
Q 4441 2300 4441 2222 
Q 4441 2144 4366 2100 
L 709 378 
Q 691 366 659 366 
Q 606 366 568 403 
Q 531 441 531 494 
z
" transform="scale(0.015625)"/>
      <path id="Cmr10-30" d="M 1600 -141 
Q 816 -141 533 504 
Q 250 1150 250 2041 
Q 250 2597 351 3087 
Q 453 3578 754 3920 
Q 1056 4263 1600 4263 
Q 2022 4263 2290 4056 
Q 2559 3850 2700 3523 
Q 2841 3197 2892 2823 
Q 2944 2450 2944 2041 
Q 2944 1491 2842 1011 
Q 2741 531 2444 195 
Q 2147 -141 1600 -141 
z
M 1600 25 
Q 1956 25 2131 390 
Q 2306 756 2347 1200 
Q 2388 1644 2388 2144 
Q 2388 2625 2347 3031 
Q 2306 3438 2132 3767 
Q 1959 4097 1600 4097 
Q 1238 4097 1063 3765 
Q 888 3434 847 3029 
Q 806 2625 806 2144 
Q 806 1788 823 1472 
Q 841 1156 916 820 
Q 991 484 1158 254 
Q 1325 25 1600 25 
z
" transform="scale(0.015625)"/>
     </defs>
     <use xlink:href="#DejaVuSerif-Bold-44" transform="translate(0 0.015625)"/>
     <use xlink:href="#DejaVuSerif-Bold-6f" transform="translate(86.71875 0.015625)"/>
     <use xlink:href="#DejaVuSerif-Bold-6d" transform="translate(153.417969 0.015625)"/>
     <use xlink:href="#DejaVuSerif-Bold-61" transform="translate(259.228516 0.015625)"/>
     <use xlink:href="#DejaVuSerif-Bold-69" transform="translate(324.023438 0.015625)"/>
     <use xlink:href="#DejaVuSerif-Bold-6e" transform="translate(362.011719 0.015625)"/>
     <use xlink:href="#DejaVuSerif-Bold-3a" transform="translate(434.716797 0.015625)"/>
     <use xlink:href="#DejaVuSerif-Bold-20" transform="translate(471.630859 0.015625)"/>
     <use xlink:href="#Cmmi10-78" transform="translate(506.445312 0.015625)"/>
     <use xlink:href="#Cmsy10-b8" transform="translate(581.083984 0.015625)"/>
     <use xlink:href="#Cmr10-30" transform="translate(676.328125 0.015625)"/>
    </g>
   </g>
   <g id="patch_16">
    <path d="M 753.676608 209.592988 
Q 753.676608 140.709695 753.676608 71.826403 
" style="fill: none; stroke: #059669; stroke-width: 2; stroke-linecap: round"/>
    <path d="M 755.876608 205.192988 
L 753.676608 209.592988 
L 751.476608 205.192988 
" style="fill: none; stroke: #059669; stroke-width: 2; stroke-linecap: round"/>
    <path d="M 751.476608 76.226403 
L 753.676608 71.826403 
L 755.876608 76.226403 
" style="fill: none; stroke: #059669; stroke-width: 2; stroke-linecap: round"/>
   </g>
   <g id="text_65">
    <!-- Range: -->
    <g style="fill: #059669" transform="translate(717.931995 129.370219) scale(0.1 -0.1)">
     <defs>
      <path id="DejaVuSerif-Bold-52" d="M 3397 2278 
Q 3675 2238 3865 2094 
Q 4056 1950 4197 1678 
L 4878 378 
L 5356 378 
L 5356 0 
L 3822 0 
L 3078 1409 
Q 2863 1847 2711 1967 
Q 2559 2088 2291 2088 
L 2100 2088 
L 2100 378 
L 2700 378 
L 2700 0 
L 300 0 
L 300 378 
L 897 378 
L 897 4288 
L 300 4288 
L 300 4666 
L 2963 4666 
Q 3775 4666 4217 4339 
Q 4659 4013 4659 3413 
Q 4659 2925 4345 2642 
Q 4031 2359 3397 2278 
z
M 2100 2463 
L 2509 2463 
Q 2947 2463 3183 2700 
Q 3419 2938 3419 3378 
Q 3419 3819 3183 4053 
Q 2947 4288 2509 4288 
L 2100 4288 
L 2100 2463 
z
" transform="scale(0.015625)"/>
      <path id="DejaVuSerif-Bold-67" d="M 3853 2944 
L 3853 44 
Q 3853 -656 3354 -1039 
Q 2856 -1422 1947 -1422 
Q 1616 -1422 1275 -1370 
Q 934 -1319 575 -1216 
L 575 -422 
L 928 -422 
Q 975 -750 1192 -909 
Q 1409 -1069 1813 -1069 
Q 2325 -1069 2536 -823 
Q 2747 -578 2747 44 
L 2747 422 
Q 2606 163 2367 36 
Q 2128 -91 1778 -91 
Q 1072 -91 667 378 
Q 263 847 263 1663 
Q 263 2481 667 2947 
Q 1072 3413 1778 3413 
Q 2128 3413 2367 3286 
Q 2606 3159 2747 2900 
L 2747 3322 
L 4325 3322 
L 4325 2944 
L 3853 2944 
z
M 2747 1825 
Q 2747 2406 2597 2665 
Q 2447 2925 2119 2925 
Q 1775 2925 1636 2651 
Q 1497 2378 1497 1663 
Q 1497 947 1637 672 
Q 1778 397 2119 397 
Q 2447 397 2597 656 
Q 2747 916 2747 1497 
L 2747 1825 
z
" transform="scale(0.015625)"/>
     </defs>
     <use xlink:href="#DejaVuSerif-Bold-52"/>
     <use xlink:href="#DejaVuSerif-Bold-61" transform="translate(85.355469 0)"/>
     <use xlink:href="#DejaVuSerif-Bold-6e" transform="translate(150.150391 0)"/>
     <use xlink:href="#DejaVuSerif-Bold-67" transform="translate(222.855469 0)"/>
     <use xlink:href="#DejaVuSerif-Bold-65" transform="translate(292.777344 0)"/>
     <use xlink:href="#DejaVuSerif-Bold-3a" transform="translate(356.400391 0)"/>
    </g>
    <!-- $y \geq 0$ -->
    <g style="fill: #059669" transform="translate(726.998401 140.710219) scale(0.1 -0.1)">
     <use xlink:href="#Cmmi10-79" transform="translate(0 0.390625)"/>
     <use xlink:href="#Cmsy10-b8" transform="translate(66.582031 0.390625)"/>
     <use xlink:href="#Cmr10-30" transform="translate(161.826172 0.390625)"/>
    </g>
   </g>
   <g id="text_66">
    <!-- $(0, 0)$ -->
    <g style="fill: #262626" transform="translate(781.813469 194.757469) scale(0.09 -0.09)">
     <use xlink:href="#Cmr10-28"/>
     <use xlink:href="#Cmr10-30" transform="translate(38.818359 0)"/>
     <use xlink:href="#Cmmi10-3b" transform="translate(88.818359 0)"/>
     <use xlink:href="#Cmr10-30" transform="translate(134.0625 0)"/>
     <use xlink:href="#Cmr10-29" transform="translate(184.0625 0)"/>
    </g>
   </g>
   <g id="text_67">
    <!-- Domain and Range -->
    <g style="fill: #262626" transform="translate(786.744003 17.077969) scale(0.13 -0.13)">
     <use xlink:href="#DejaVuSerif-Bold-44"/>
     <use xlink:href="#DejaVuSerif-Bold-6f" transform="translate(86.71875 0)"/>
     <use xlink:href="#DejaVuSerif-Bold-6d" transform="translate(153.417969 0)"/>
     <use xlink:href="#DejaVuSerif-Bold-61" transform="translate(259.228516 0)"/>
     <use xlink:href="#DejaVuSerif-Bold-69" transform="translate(324.023438 0)"/>
     <use xlink:href="#DejaVuSerif-Bold-6e" transform="translate(362.011719 0)"/>
     <use xlink:href="#DejaVuSerif-Bold-20" transform="translate(434.716797 0)"/>
     <use xlink:href="#DejaVuSerif-Bold-61" transform="translate(469.53125 0)"/>
     <use xlink:href="#DejaVuSerif-Bold-6e" transform="translate(534.326172 0)"/>
     <use xlink:href="#DejaVuSerif-Bold-64" transform="translate(607.03125 0)"/>
     <use xlink:href="#DejaVuSerif-Bold-20" transform="translate(676.953125 0)"/>
     <use xlink:href="#DejaVuSerif-Bold-52" transform="translate(711.767578 0)"/>
     <use xlink:href="#DejaVuSerif-Bold-61" transform="translate(797.123047 0)"/>
     <use xlink:href="#DejaVuSerif-Bold-6e" transform="translate(861.917969 0)"/>
     <use xlink:href="#DejaVuSerif-Bold-67" transform="translate(934.623047 0)"/>
     <use xlink:href="#DejaVuSerif-Bold-65" transform="translate(1004.544922 0)"/>
    </g>
   </g>
   <g id="line2d_110">
    <g clip-path="url(#p413998cd15)">
     <use xlink:href="#me64c35878a" x="769.754814" y="213.832969" style="fill: #dc2626; stroke: #dc2626"/>
    </g>
   </g>
   <g id="legend_3">
    <g id="line2d_111">
     <path d="M 730.520194 36.777969 
L 740.520194 36.777969 
L 750.520194 36.777969 
" style="fill: none; stroke: #7c3aed; stroke-width: 2.5; stroke-linecap: round"/>
    </g>
    <g id="text_68">
     <!-- $f(x) = \sqrt{x}$ -->
     <g style="fill: #262626" transform="translate(758.520194 40.277969) scale(0.1 -0.1)">
      <defs>
       <path id="Cmex10-70" d="M 2713 -7425 
L 1269 -4063 
L 819 -4409 
L 703 -4294 
L 1619 -3584 
L 2969 -6725 
L 6291 197 
Q 6322 256 6400 256 
Q 6453 256 6490 218 
Q 6528 181 6528 128 
Q 6528 97 6522 84 
L 2950 -7366 
Q 2925 -7425 2853 -7425 
L 2713 -7425 
z
" transform="scale(0.015625)"/>
      </defs>
      <use xlink:href="#Cmmi10-66" transform="translate(0 0.578125)"/>
      <use xlink:href="#Cmr10-28" transform="translate(48.876953 0.578125)"/>
      <use xlink:href="#Cmmi10-78" transform="translate(87.695312 0.578125)"/>
      <use xlink:href="#Cmr10-29" transform="translate(144.775391 0.578125)"/>
      <use xlink:href="#Cmr10-3d" transform="translate(201.152344 0.578125)"/>
      <use xlink:href="#Cmex10-70" transform="translate(296.396484 73.453125) scale(0.637938)"/>
      <use xlink:href="#Cmmi10-78" transform="translate(372.677734 0.5625)"/>
      <path d="M 360.177734 69.5 
L 360.177734 75.75 
L 442.257812 75.75 
L 442.257812 69.5 
L 360.177734 69.5 
z
"/>
     </g>
    </g>
   </g>
  </g>
 </g>
 <defs>
  <clipPath id="pff69c7e6da">
   <rect x="42.530156" y="23.077969" width="269.309962" height="254.34"/>
  </clipPath>
  <clipPath id="p215c3ca97e">
   <rect x="382.025175" y="23.077969" width="269.309962" height="254.34"/>
  </clipPath>
  <clipPath id="p413998cd15">
   <rect x="721.520194" y="23.077969" width="269.309962" height="254.34"/>
  </clipPath>
 </defs>
</svg>
