<?xml version="1.0" encoding="utf-8" standalone="no"?>
<!DOCTYPE svg PUBLIC "-//W3C//DTD SVG 1.1//EN"
  "http://www.w3.org/Graphics/SVG/1.1/DTD/svg11.dtd">
<svg xmlns:xlink="http://www.w3.org/1999/xlink" width="905.13375pt" height="275.742656pt" viewBox="0 0 905.13375 275.742656" xmlns="http://www.w3.org/2000/svg" version="1.1">
 <metadata>
  <rdf:RDF xmlns:dc="http://purl.org/dc/elements/1.1/" xmlns:cc="http://creativecommons.org/ns#" xmlns:rdf="http://www.w3.org/1999/02/22-rdf-syntax-ns#">
   <cc:Work>
    <dc:type rdf:resource="http://purl.org/dc/dcmitype/StillImage"/>
    <dc:date>2026-02-19T08:27:09.398443</dc:date>
    <dc:format>image/svg+xml</dc:format>
    <dc:creator>
     <cc:Agent>
      <dc:title>Matplotlib v3.10.1, https://matplotlib.org/</dc:title>
     </cc:Agent>
    </dc:creator>
   </cc:Work>
  </rdf:RDF>
 </metadata>
 <defs>
  <style type="text/css">*{stroke-linejoin: round; stroke-linecap: butt}</style>
 </defs>
 <g id="figure_1">
  <g id="patch_1">
   <path d="M 0 275.742656 
L 905.13375 275.742656 
L 905.13375 0 
L 0 0 
z
" style="fill: #ffffff"/>
  </g>
  <g id="axes_1">
   <g id="patch_2">
    <path d="M 29.91375 245.658281 
L 273.57375 245.658281 
L 273.57375 25.158281 
L 29.91375 25.158281 
z
" style="fill: #ffffff"/>
   </g>
   <g id="matplotlib.axis_1">
    <g id="xtick_1">
     <g id="line2d_1">
      <path d="M 70.52375 245.658281 
L 70.52375 25.158281 
" clip-path="url(#p4547ec0f7c)" style="fill: none; stroke: #cccccc; stroke-width: 0.8; stroke-linecap: round"/>
     </g>
     <g id="line2d_2"/>
    </g>
    <g id="xtick_2">
     <g id="line2d_3">
      <path d="M 129.592841 245.658281 
L 129.592841 25.158281 
" clip-path="url(#p4547ec0f7c)" style="fill: none; stroke: #cccccc; stroke-width: 0.8; stroke-linecap: round"/>
     </g>
     <g id="line2d_4"/>
    </g>
    <g id="xtick_3">
     <g id="line2d_5">
      <path d="M 188.661932 245.658281 
L 188.661932 25.158281 
" clip-path="url(#p4547ec0f7c)" style="fill: none; stroke: #cccccc; stroke-width: 0.8; stroke-linecap: round"/>
     </g>
     <g id="line2d_6"/>
    </g>
    <g id="xtick_4">
     <g id="line2d_7">
      <path d="M 247.731023 245.658281 
L 247.731023 25.158281 
" clip-path="url(#p4547ec0f7c)" style="fill: none; stroke: #cccccc; stroke-width: 0.8; stroke-linecap: round"/>
     </g>
     <g id="line2d_8"/>
    </g>
    <g id="text_1">
     <!-- Year -->
     <g style="fill: #262626" transform="translate(138.31125 262.276406) scale(0.12 -0.12)">
      <defs>
       <path id="DejaVuSerif-59" d="M 1209 0 
L 1209 331 
L 1806 331 
L 1806 2009 
L 366 4331 
L -72 4331 
L -72 4666 
L 1663 4666 
L 1663 4331 
L 1119 4331 
L 2284 2444 
L 3450 4331 
L 2925 4331 
L 2925 4666 
L 4281 4666 
L 4281 4331 
L 3841 4331 
L 2438 2069 
L 2438 331 
L 3034 331 
L 3034 0 
L 1209 0 
z
" transform="scale(0.015625)"/>
       <path id="DejaVuSerif-65" d="M 3469 1600 
L 991 1600 
L 991 1575 
Q 991 903 1244 561 
Q 1497 219 1991 219 
Q 2369 219 2611 417 
Q 2853 616 2950 1006 
L 3413 1006 
Q 3275 459 2904 184 
Q 2534 -91 1931 -91 
Q 1203 -91 761 389 
Q 319 869 319 1663 
Q 319 2450 753 2931 
Q 1188 3413 1894 3413 
Q 2647 3413 3050 2948 
Q 3453 2484 3469 1600 
z
M 2791 1931 
Q 2772 2513 2545 2808 
Q 2319 3103 1894 3103 
Q 1497 3103 1269 2806 
Q 1041 2509 991 1931 
L 2791 1931 
z
" transform="scale(0.015625)"/>
       <path id="DejaVuSerif-61" d="M 2547 1044 
L 2547 1747 
L 1806 1747 
Q 1378 1747 1168 1562 
Q 959 1378 959 997 
Q 959 650 1171 447 
Q 1384 244 1747 244 
Q 2106 244 2326 466 
Q 2547 688 2547 1044 
z
M 3122 2075 
L 3122 331 
L 3634 331 
L 3634 0 
L 2547 0 
L 2547 359 
Q 2356 128 2106 18 
Q 1856 -91 1522 -91 
Q 969 -91 644 203 
Q 319 497 319 997 
Q 319 1513 691 1797 
Q 1063 2081 1741 2081 
L 2547 2081 
L 2547 2309 
Q 2547 2688 2317 2895 
Q 2088 3103 1672 3103 
Q 1328 3103 1125 2947 
Q 922 2791 872 2484 
L 575 2484 
L 575 3156 
Q 875 3284 1158 3348 
Q 1441 3413 1709 3413 
Q 2400 3413 2761 3070 
Q 3122 2728 3122 2075 
z
" transform="scale(0.015625)"/>
       <path id="DejaVuSerif-72" d="M 3059 3328 
L 3059 2497 
L 2728 2497 
Q 2713 2744 2591 2866 
Q 2469 2988 2234 2988 
Q 1809 2988 1582 2694 
Q 1356 2400 1356 1850 
L 1356 331 
L 2022 331 
L 2022 0 
L 263 0 
L 263 331 
L 781 331 
L 781 2994 
L 231 2994 
L 231 3322 
L 1356 3322 
L 1356 2731 
Q 1525 3078 1790 3245 
Q 2056 3413 2438 3413 
Q 2578 3413 2733 3391 
Q 2888 3369 3059 3328 
z
" transform="scale(0.015625)"/>
      </defs>
      <use xlink:href="#DejaVuSerif-59"/>
      <use xlink:href="#DejaVuSerif-65" transform="translate(57.265625 0)"/>
      <use xlink:href="#DejaVuSerif-61" transform="translate(116.445312 0)"/>
      <use xlink:href="#DejaVuSerif-72" transform="translate(176.064453 0)"/>
     </g>
    </g>
   </g>
   <g id="matplotlib.axis_2">
    <g id="ytick_1">
     <g id="line2d_9">
      <path d="M 29.91375 236.037266 
L 273.57375 236.037266 
" clip-path="url(#p4547ec0f7c)" style="fill: none; stroke: #cccccc; stroke-width: 0.8; stroke-linecap: round"/>
     </g>
     <g id="line2d_10"/>
    </g>
    <g id="ytick_2">
     <g id="line2d_11">
      <path d="M 29.91375 195.866015 
L 273.57375 195.866015 
" clip-path="url(#p4547ec0f7c)" style="fill: none; stroke: #cccccc; stroke-width: 0.8; stroke-linecap: round"/>
     </g>
     <g id="line2d_12"/>
    </g>
    <g id="ytick_3">
     <g id="line2d_13">
      <path d="M 29.91375 155.694763 
L 273.57375 155.694763 
" clip-path="url(#p4547ec0f7c)" style="fill: none; stroke: #cccccc; stroke-width: 0.8; stroke-linecap: round"/>
     </g>
     <g id="line2d_14"/>
    </g>
    <g id="ytick_4">
     <g id="line2d_15">
      <path d="M 29.91375 115.523512 
L 273.57375 115.523512 
" clip-path="url(#p4547ec0f7c)" style="fill: none; stroke: #cccccc; stroke-width: 0.8; stroke-linecap: round"/>
     </g>
     <g id="line2d_16"/>
    </g>
    <g id="ytick_5">
     <g id="line2d_17">
      <path d="M 29.91375 75.35226 
L 273.57375 75.35226 
" clip-path="url(#p4547ec0f7c)" style="fill: none; stroke: #cccccc; stroke-width: 0.8; stroke-linecap: round"/>
     </g>
     <g id="line2d_18"/>
    </g>
    <g id="ytick_6">
     <g id="line2d_19">
      <path d="M 29.91375 35.181009 
L 273.57375 35.181009 
" clip-path="url(#p4547ec0f7c)" style="fill: none; stroke: #cccccc; stroke-width: 0.8; stroke-linecap: round"/>
     </g>
     <g id="line2d_20"/>
    </g>
    <g id="text_2">
     <!-- Million tonnes -->
     <g style="fill: #262626" transform="translate(19.918125 178.993594) rotate(-90) scale(0.12 -0.12)">
      <defs>
       <path id="DejaVuSerif-4d" d="M 353 0 
L 353 331 
L 947 331 
L 947 4331 
L 319 4331 
L 319 4666 
L 1678 4666 
L 3316 1344 
L 4953 4666 
L 6228 4666 
L 6228 4331 
L 5606 4331 
L 5606 331 
L 6203 331 
L 6203 0 
L 4378 0 
L 4378 331 
L 4972 331 
L 4972 3938 
L 3372 684 
L 2931 684 
L 1331 3938 
L 1331 331 
L 1925 331 
L 1925 0 
L 353 0 
z
" transform="scale(0.015625)"/>
       <path id="DejaVuSerif-69" d="M 622 4353 
Q 622 4497 726 4603 
Q 831 4709 978 4709 
Q 1122 4709 1226 4603 
Q 1331 4497 1331 4353 
Q 1331 4206 1228 4103 
Q 1125 4000 978 4000 
Q 831 4000 726 4103 
Q 622 4206 622 4353 
z
M 1356 331 
L 1900 331 
L 1900 0 
L 231 0 
L 231 331 
L 781 331 
L 781 2988 
L 231 2988 
L 231 3322 
L 1356 3322 
L 1356 331 
z
" transform="scale(0.015625)"/>
       <path id="DejaVuSerif-6c" d="M 1313 331 
L 1856 331 
L 1856 0 
L 184 0 
L 184 331 
L 738 331 
L 738 4531 
L 184 4531 
L 184 4863 
L 1313 4863 
L 1313 331 
z
" transform="scale(0.015625)"/>
       <path id="DejaVuSerif-6f" d="M 1925 219 
Q 2388 219 2623 584 
Q 2859 950 2859 1663 
Q 2859 2375 2623 2739 
Q 2388 3103 1925 3103 
Q 1463 3103 1227 2739 
Q 991 2375 991 1663 
Q 991 950 1228 584 
Q 1466 219 1925 219 
z
M 1925 -91 
Q 1200 -91 759 389 
Q 319 869 319 1663 
Q 319 2456 758 2934 
Q 1197 3413 1925 3413 
Q 2653 3413 3092 2934 
Q 3531 2456 3531 1663 
Q 3531 869 3092 389 
Q 2653 -91 1925 -91 
z
" transform="scale(0.015625)"/>
       <path id="DejaVuSerif-6e" d="M 263 0 
L 263 331 
L 781 331 
L 781 2988 
L 231 2988 
L 231 3322 
L 1356 3322 
L 1356 2731 
Q 1516 3069 1770 3241 
Q 2025 3413 2363 3413 
Q 2913 3413 3172 3097 
Q 3431 2781 3431 2113 
L 3431 331 
L 3944 331 
L 3944 0 
L 2356 0 
L 2356 331 
L 2853 331 
L 2853 1931 
Q 2853 2541 2703 2767 
Q 2553 2994 2175 2994 
Q 1775 2994 1565 2701 
Q 1356 2409 1356 1850 
L 1356 331 
L 1856 331 
L 1856 0 
L 263 0 
z
" transform="scale(0.015625)"/>
       <path id="DejaVuSerif-20" transform="scale(0.015625)"/>
       <path id="DejaVuSerif-74" d="M 691 2988 
L 184 2988 
L 184 3322 
L 691 3322 
L 691 4353 
L 1269 4353 
L 1269 3322 
L 2350 3322 
L 2350 2988 
L 1269 2988 
L 1269 878 
Q 1269 456 1350 337 
Q 1431 219 1650 219 
Q 1875 219 1978 351 
Q 2081 484 2088 781 
L 2522 781 
Q 2497 328 2275 118 
Q 2053 -91 1600 -91 
Q 1103 -91 897 129 
Q 691 350 691 878 
L 691 2988 
z
" transform="scale(0.015625)"/>
       <path id="DejaVuSerif-73" d="M 359 184 
L 359 959 
L 691 959 
Q 703 588 923 403 
Q 1144 219 1575 219 
Q 1963 219 2166 364 
Q 2369 509 2369 788 
Q 2369 1006 2220 1140 
Q 2072 1275 1594 1428 
L 1178 1569 
Q 750 1706 558 1912 
Q 366 2119 366 2438 
Q 366 2894 700 3153 
Q 1034 3413 1625 3413 
Q 1888 3413 2178 3344 
Q 2469 3275 2778 3144 
L 2778 2419 
L 2447 2419 
Q 2434 2741 2221 2922 
Q 2009 3103 1644 3103 
Q 1281 3103 1095 2975 
Q 909 2847 909 2591 
Q 909 2381 1050 2254 
Q 1191 2128 1613 1997 
L 2069 1856 
Q 2541 1709 2748 1489 
Q 2956 1269 2956 922 
Q 2956 450 2595 179 
Q 2234 -91 1600 -91 
Q 1278 -91 972 -22 
Q 666 47 359 184 
z
" transform="scale(0.015625)"/>
      </defs>
      <use xlink:href="#DejaVuSerif-4d"/>
      <use xlink:href="#DejaVuSerif-69" transform="translate(102.392578 0)"/>
      <use xlink:href="#DejaVuSerif-6c" transform="translate(134.375 0)"/>
      <use xlink:href="#DejaVuSerif-6c" transform="translate(166.357422 0)"/>
      <use xlink:href="#DejaVuSerif-69" transform="translate(198.339844 0)"/>
      <use xlink:href="#DejaVuSerif-6f" transform="translate(230.322266 0)"/>
      <use xlink:href="#DejaVuSerif-6e" transform="translate(290.527344 0)"/>
      <use xlink:href="#DejaVuSerif-20" transform="translate(354.931641 0)"/>
      <use xlink:href="#DejaVuSerif-74" transform="translate(386.71875 0)"/>
      <use xlink:href="#DejaVuSerif-6f" transform="translate(426.904297 0)"/>
      <use xlink:href="#DejaVuSerif-6e" transform="translate(487.109375 0)"/>
      <use xlink:href="#DejaVuSerif-6e" transform="translate(551.513672 0)"/>
      <use xlink:href="#DejaVuSerif-65" transform="translate(615.917969 0)"/>
      <use xlink:href="#DejaVuSerif-73" transform="translate(675.097656 0)"/>
     </g>
    </g>
   </g>
   <g id="line2d_21">
    <path d="M 40.989205 235.635554 
L 65.477647 235.252915 
L 83.287423 234.76126 
L 97.757866 234.142445 
L 110.002087 233.389583 
L 120.020086 232.555931 
L 128.924974 231.596919 
L 136.716751 230.543387 
L 143.395417 229.443517 
L 150.074083 228.123455 
L 155.639639 226.82365 
L 161.205194 225.310359 
L 166.770749 223.548518 
L 171.223193 221.932872 
L 175.675637 220.108213 
L 180.128081 218.047501 
L 184.580525 215.720199 
L 189.032969 213.091818 
L 192.372302 210.899702 
L 195.711635 208.49816 
L 199.050968 205.867185 
L 202.390301 202.984856 
L 205.729634 199.827162 
L 209.068967 196.367795 
L 212.4083 192.577933 
L 215.747633 188.426003 
L 219.086966 183.877415 
L 222.426299 178.894272 
L 225.765632 173.435061 
L 229.104965 167.454298 
L 232.444298 160.902157 
L 235.783631 153.724051 
L 239.122964 145.860178 
L 242.462297 137.245022 
L 245.80163 127.806808 
L 249.140963 117.466906 
L 252.480296 106.139171 
L 255.819629 93.72923 
L 259.158962 80.133692 
L 262.498295 65.239293 
L 262.498295 65.239293 
" clip-path="url(#p4547ec0f7c)" style="fill: none; stroke: #2563eb; stroke-width: 2.5; stroke-linecap: round"/>
   </g>
   <g id="line2d_22">
    <path d="M 29.91375 35.181009 
L 273.57375 35.181009 
" clip-path="url(#p4547ec0f7c)" style="fill: none; stroke-dasharray: 5.55,2.4; stroke-dashoffset: 0; stroke: #dc2626; stroke-opacity: 0.6; stroke-width: 1.5"/>
   </g>
   <g id="patch_3">
    <path d="M 29.91375 245.658281 
L 29.91375 25.158281 
" style="fill: none; stroke: #cccccc; stroke-linejoin: miter; stroke-linecap: square"/>
   </g>
   <g id="patch_4">
    <path d="M 273.57375 245.658281 
L 273.57375 25.158281 
" style="fill: none; stroke: #cccccc; stroke-linejoin: miter; stroke-linecap: square"/>
   </g>
   <g id="patch_5">
    <path d="M 29.91375 245.658281 
L 273.57375 245.658281 
" style="fill: none; stroke: #cccccc; stroke-linejoin: miter; stroke-linecap: square"/>
   </g>
   <g id="patch_6">
    <path d="M 29.91375 25.158281 
L 273.57375 25.158281 
" style="fill: none; stroke: #cccccc; stroke-linejoin: miter; stroke-linecap: square"/>
   </g>
   <g id="text_3">
    <g id="patch_7">
     <path d="M 85.291023 120.223199 
L 168.102273 120.223199 
Q 170.802273 120.223199 170.802273 117.523199 
L 170.802273 108.684918 
Q 170.802273 105.984918 168.102273 105.984918 
L 85.291023 105.984918 
Q 82.591023 105.984918 82.591023 108.684918 
L 82.591023 117.523199 
Q 82.591023 120.223199 85.291023 120.223199 
z
" style="fill: #fef3c7; stroke: #f59e0b; stroke-linejoin: miter"/>
    </g>
    <!-- Doubling time = ? -->
    <g style="fill: #262626" transform="translate(85.291023 115.523512) scale(0.09 -0.09)">
     <defs>
      <path id="DejaVuSerif-44" d="M 1581 331 
L 2163 331 
Q 3072 331 3558 850 
Q 4044 1369 4044 2338 
Q 4044 3306 3559 3818 
Q 3075 4331 2163 4331 
L 1581 4331 
L 1581 331 
z
M 353 0 
L 353 331 
L 947 331 
L 947 4331 
L 353 4331 
L 353 4666 
L 2209 4666 
Q 3416 4666 4089 4050 
Q 4763 3434 4763 2338 
Q 4763 1238 4088 619 
Q 3413 0 2209 0 
L 353 0 
z
" transform="scale(0.015625)"/>
      <path id="DejaVuSerif-75" d="M 2266 3322 
L 3341 3322 
L 3341 331 
L 3884 331 
L 3884 0 
L 2766 0 
L 2766 588 
Q 2606 256 2353 82 
Q 2100 -91 1766 -91 
Q 1213 -91 952 223 
Q 691 538 691 1209 
L 691 2988 
L 172 2988 
L 172 3322 
L 1269 3322 
L 1269 1388 
Q 1269 781 1417 556 
Q 1566 331 1947 331 
Q 2347 331 2556 625 
Q 2766 919 2766 1478 
L 2766 2988 
L 2266 2988 
L 2266 3322 
z
" transform="scale(0.015625)"/>
      <path id="DejaVuSerif-62" d="M 738 331 
L 738 4531 
L 184 4531 
L 184 4863 
L 1313 4863 
L 1313 2803 
Q 1481 3116 1742 3264 
Q 2003 3413 2388 3413 
Q 3000 3413 3387 2928 
Q 3775 2444 3775 1663 
Q 3775 881 3387 395 
Q 3000 -91 2388 -91 
Q 2003 -91 1742 57 
Q 1481 206 1313 519 
L 1313 0 
L 184 0 
L 184 331 
L 738 331 
z
M 1313 1497 
Q 1313 897 1542 583 
Q 1772 269 2209 269 
Q 2650 269 2876 622 
Q 3103 975 3103 1663 
Q 3103 2353 2876 2703 
Q 2650 3053 2209 3053 
Q 1772 3053 1542 2737 
Q 1313 2422 1313 1825 
L 1313 1497 
z
" transform="scale(0.015625)"/>
      <path id="DejaVuSerif-67" d="M 3359 2988 
L 3359 72 
Q 3359 -644 2965 -1033 
Q 2572 -1422 1844 -1422 
Q 1516 -1422 1216 -1362 
Q 916 -1303 641 -1184 
L 641 -488 
L 941 -488 
Q 997 -813 1206 -963 
Q 1416 -1113 1806 -1113 
Q 2313 -1113 2548 -827 
Q 2784 -541 2784 72 
L 2784 519 
Q 2616 206 2355 57 
Q 2094 -91 1709 -91 
Q 1097 -91 708 395 
Q 319 881 319 1663 
Q 319 2444 706 2928 
Q 1094 3413 1709 3413 
Q 2094 3413 2355 3264 
Q 2616 3116 2784 2803 
L 2784 3322 
L 3909 3322 
L 3909 2988 
L 3359 2988 
z
M 2784 1825 
Q 2784 2422 2554 2737 
Q 2325 3053 1888 3053 
Q 1444 3053 1217 2703 
Q 991 2353 991 1663 
Q 991 975 1217 622 
Q 1444 269 1888 269 
Q 2325 269 2554 583 
Q 2784 897 2784 1497 
L 2784 1825 
z
" transform="scale(0.015625)"/>
      <path id="DejaVuSerif-6d" d="M 3316 2675 
Q 3481 3041 3739 3227 
Q 3997 3413 4341 3413 
Q 4863 3413 5119 3089 
Q 5375 2766 5375 2113 
L 5375 331 
L 5894 331 
L 5894 0 
L 4300 0 
L 4300 331 
L 4800 331 
L 4800 2047 
Q 4800 2556 4650 2772 
Q 4500 2988 4153 2988 
Q 3769 2988 3567 2697 
Q 3366 2406 3366 1850 
L 3366 331 
L 3866 331 
L 3866 0 
L 2291 0 
L 2291 331 
L 2791 331 
L 2791 2069 
Q 2791 2566 2641 2777 
Q 2491 2988 2144 2988 
Q 1759 2988 1557 2697 
Q 1356 2406 1356 1850 
L 1356 331 
L 1856 331 
L 1856 0 
L 263 0 
L 263 331 
L 781 331 
L 781 2994 
L 231 2994 
L 231 3322 
L 1356 3322 
L 1356 2731 
Q 1516 3063 1762 3238 
Q 2009 3413 2322 3413 
Q 2709 3413 2968 3220 
Q 3228 3028 3316 2675 
z
" transform="scale(0.015625)"/>
      <path id="DejaVuSerif-3d" d="M 678 2894 
L 4684 2894 
L 4684 2394 
L 678 2394 
L 678 2894 
z
M 678 1619 
L 4684 1619 
L 4684 1119 
L 678 1119 
L 678 1619 
z
" transform="scale(0.015625)"/>
      <path id="DejaVuSerif-3f" d="M 1125 325 
Q 1125 500 1245 622 
Q 1366 744 1544 744 
Q 1716 744 1837 622 
Q 1959 500 1959 325 
Q 1959 153 1837 31 
Q 1716 -91 1544 -91 
Q 1366 -91 1245 29 
Q 1125 150 1125 325 
z
M 434 4459 
Q 766 4606 1064 4678 
Q 1363 4750 1625 4750 
Q 2319 4750 2720 4415 
Q 3122 4081 3122 3513 
Q 3122 2931 2776 2562 
Q 2431 2194 1734 2034 
L 1734 1241 
L 1350 1241 
L 1350 2266 
Q 1903 2400 2183 2715 
Q 2463 3031 2463 3519 
Q 2463 3947 2234 4194 
Q 2006 4441 1613 4441 
Q 1256 4441 1029 4236 
Q 803 4031 738 3647 
L 434 3647 
L 434 4459 
z
" transform="scale(0.015625)"/>
     </defs>
     <use xlink:href="#DejaVuSerif-44"/>
     <use xlink:href="#DejaVuSerif-6f" transform="translate(80.175781 0)"/>
     <use xlink:href="#DejaVuSerif-75" transform="translate(140.380859 0)"/>
     <use xlink:href="#DejaVuSerif-62" transform="translate(204.785156 0)"/>
     <use xlink:href="#DejaVuSerif-6c" transform="translate(268.798828 0)"/>
     <use xlink:href="#DejaVuSerif-69" transform="translate(300.78125 0)"/>
     <use xlink:href="#DejaVuSerif-6e" transform="translate(332.763672 0)"/>
     <use xlink:href="#DejaVuSerif-67" transform="translate(397.167969 0)"/>
     <use xlink:href="#DejaVuSerif-20" transform="translate(461.181641 0)"/>
     <use xlink:href="#DejaVuSerif-74" transform="translate(492.96875 0)"/>
     <use xlink:href="#DejaVuSerif-69" transform="translate(533.154297 0)"/>
     <use xlink:href="#DejaVuSerif-6d" transform="translate(565.136719 0)"/>
     <use xlink:href="#DejaVuSerif-65" transform="translate(659.960938 0)"/>
     <use xlink:href="#DejaVuSerif-20" transform="translate(719.140625 0)"/>
     <use xlink:href="#DejaVuSerif-3d" transform="translate(750.927734 0)"/>
     <use xlink:href="#DejaVuSerif-20" transform="translate(834.716797 0)"/>
     <use xlink:href="#DejaVuSerif-3f" transform="translate(866.503906 0)"/>
    </g>
   </g>
   <g id="text_4">
    <!-- Plastic Production -->
    <g style="fill: #262626" transform="translate(94.772344 19.158281) scale(0.11 -0.11)">
     <defs>
      <path id="DejaVuSerif-Bold-50" d="M 300 0 
L 300 378 
L 897 378 
L 897 4288 
L 300 4288 
L 300 4666 
L 2956 4666 
Q 3734 4666 4193 4295 
Q 4653 3925 4653 3303 
Q 4653 2678 4192 2304 
Q 3731 1931 2956 1931 
L 2100 1931 
L 2100 378 
L 2853 378 
L 2853 0 
L 300 0 
z
M 2100 2309 
L 2450 2309 
Q 2856 2309 3098 2579 
Q 3341 2850 3341 3303 
Q 3341 3753 3100 4020 
Q 2859 4288 2450 4288 
L 2100 4288 
L 2100 2309 
z
" transform="scale(0.015625)"/>
      <path id="DejaVuSerif-Bold-6c" d="M 1797 378 
L 2272 378 
L 2272 0 
L 219 0 
L 219 378 
L 691 378 
L 691 4488 
L 219 4488 
L 219 4863 
L 1797 4863 
L 1797 378 
z
" transform="scale(0.015625)"/>
      <path id="DejaVuSerif-Bold-61" d="M 3525 2041 
L 3525 378 
L 4000 378 
L 4000 0 
L 2419 0 
L 2419 422 
Q 2200 159 1931 34 
Q 1663 -91 1319 -91 
Q 809 -91 536 182 
Q 263 456 263 966 
Q 263 1525 655 1803 
Q 1047 2081 1838 2081 
L 2419 2081 
L 2419 2278 
Q 2419 2681 2228 2873 
Q 2038 3066 1638 3066 
Q 1306 3066 1126 2930 
Q 947 2794 872 2484 
L 519 2484 
L 519 3200 
Q 816 3306 1134 3359 
Q 1453 3413 1806 3413 
Q 2697 3413 3111 3081 
Q 3525 2750 3525 2041 
z
M 2419 1044 
L 2419 1709 
L 2003 1709 
Q 1694 1709 1528 1540 
Q 1363 1372 1363 1056 
Q 1363 741 1483 584 
Q 1603 428 1850 428 
Q 2106 428 2262 597 
Q 2419 766 2419 1044 
z
" transform="scale(0.015625)"/>
      <path id="DejaVuSerif-Bold-73" d="M 300 97 
L 300 1025 
L 653 1025 
Q 697 653 931 458 
Q 1166 263 1569 263 
Q 1906 263 2086 380 
Q 2266 497 2266 716 
Q 2266 916 2152 1025 
Q 2038 1134 1709 1216 
L 1253 1331 
Q 738 1459 506 1698 
Q 275 1938 275 2344 
Q 275 2884 650 3148 
Q 1025 3413 1806 3413 
Q 2100 3413 2433 3364 
Q 2766 3316 3169 3213 
L 3169 2375 
L 2816 2375 
Q 2788 2716 2573 2887 
Q 2359 3059 1959 3059 
Q 1622 3059 1448 2951 
Q 1275 2844 1275 2638 
Q 1275 2469 1375 2372 
Q 1475 2275 1734 2209 
L 2188 2094 
Q 2841 1928 3091 1684 
Q 3341 1441 3341 1006 
Q 3341 444 2939 176 
Q 2538 -91 1691 -91 
Q 1381 -91 1034 -44 
Q 688 3 300 97 
z
" transform="scale(0.015625)"/>
      <path id="DejaVuSerif-Bold-74" d="M 634 2944 
L 153 2944 
L 153 3322 
L 634 3322 
L 634 4353 
L 1741 4353 
L 1741 3322 
L 2663 3322 
L 2663 2944 
L 1741 2944 
L 1741 909 
Q 1741 475 1809 369 
Q 1878 263 2059 263 
Q 2259 263 2356 397 
Q 2453 531 2459 813 
L 2925 813 
Q 2897 313 2651 111 
Q 2406 -91 1806 -91 
Q 1122 -91 878 123 
Q 634 338 634 909 
L 634 2944 
z
" transform="scale(0.015625)"/>
      <path id="DejaVuSerif-Bold-69" d="M 588 4263 
Q 588 4516 763 4689 
Q 938 4863 1191 4863 
Q 1438 4863 1611 4689 
Q 1784 4516 1784 4263 
Q 1784 4016 1611 3842 
Q 1438 3669 1191 3669 
Q 938 3669 763 3841 
Q 588 4013 588 4263 
z
M 1797 378 
L 2272 378 
L 2272 0 
L 219 0 
L 219 378 
L 691 378 
L 691 2944 
L 219 2944 
L 219 3322 
L 1797 3322 
L 1797 378 
z
" transform="scale(0.015625)"/>
      <path id="DejaVuSerif-Bold-63" d="M 3609 1038 
Q 3491 469 3123 189 
Q 2756 -91 2125 -91 
Q 1238 -91 750 368 
Q 263 828 263 1663 
Q 263 2488 744 2950 
Q 1225 3413 2081 3413 
Q 2428 3413 2781 3347 
Q 3134 3281 3500 3150 
L 3500 2228 
L 3150 2228 
Q 3100 2650 2903 2854 
Q 2706 3059 2350 3059 
Q 1888 3059 1692 2746 
Q 1497 2434 1497 1663 
Q 1497 909 1687 586 
Q 1878 263 2309 263 
Q 2644 263 2845 463 
Q 3047 663 3091 1038 
L 3609 1038 
z
" transform="scale(0.015625)"/>
      <path id="DejaVuSerif-Bold-20" transform="scale(0.015625)"/>
      <path id="DejaVuSerif-Bold-72" d="M 3438 3359 
L 3438 2369 
L 3084 2369 
Q 3066 2634 2941 2764 
Q 2816 2894 2578 2894 
Q 2216 2894 2006 2575 
Q 1797 2256 1797 1691 
L 1797 378 
L 2400 378 
L 2400 0 
L 219 0 
L 219 378 
L 691 378 
L 691 2944 
L 184 2944 
L 184 3322 
L 1797 3322 
L 1797 2731 
Q 1959 3078 2226 3245 
Q 2494 3413 2881 3413 
Q 2978 3413 3117 3398 
Q 3256 3384 3438 3359 
z
" transform="scale(0.015625)"/>
      <path id="DejaVuSerif-Bold-6f" d="M 2138 263 
Q 2488 263 2630 563 
Q 2772 863 2772 1663 
Q 2772 2463 2631 2761 
Q 2491 3059 2138 3059 
Q 1784 3059 1640 2757 
Q 1497 2456 1497 1663 
Q 1497 869 1640 566 
Q 1784 263 2138 263 
z
M 2138 -91 
Q 1259 -91 761 376 
Q 263 844 263 1663 
Q 263 2484 761 2948 
Q 1259 3413 2138 3413 
Q 3019 3413 3516 2948 
Q 4013 2484 4013 1663 
Q 4013 844 3514 376 
Q 3016 -91 2138 -91 
z
" transform="scale(0.015625)"/>
      <path id="DejaVuSerif-Bold-64" d="M 2747 1497 
L 2747 1825 
Q 2747 2406 2597 2665 
Q 2447 2925 2119 2925 
Q 1775 2925 1636 2651 
Q 1497 2378 1497 1663 
Q 1497 947 1637 672 
Q 1778 397 2119 397 
Q 2447 397 2597 656 
Q 2747 916 2747 1497 
z
M 3853 378 
L 4325 378 
L 4325 0 
L 2747 0 
L 2747 422 
Q 2606 163 2367 36 
Q 2128 -91 1778 -91 
Q 1072 -91 667 378 
Q 263 847 263 1663 
Q 263 2481 667 2947 
Q 1072 3413 1778 3413 
Q 2128 3413 2367 3286 
Q 2606 3159 2747 2900 
L 2747 4488 
L 2272 4488 
L 2272 4863 
L 3853 4863 
L 3853 378 
z
" transform="scale(0.015625)"/>
      <path id="DejaVuSerif-Bold-75" d="M 3963 3322 
L 3963 378 
L 4434 378 
L 4434 0 
L 2853 0 
L 2853 469 
Q 2656 172 2400 40 
Q 2144 -91 1753 -91 
Q 1194 -91 908 239 
Q 622 569 622 1209 
L 622 2944 
L 147 2944 
L 147 3322 
L 1728 3322 
L 1728 1381 
Q 1728 763 1831 595 
Q 1934 428 2209 428 
Q 2544 428 2698 675 
Q 2853 922 2853 1459 
L 2853 2944 
L 2450 2944 
L 2450 3322 
L 3963 3322 
z
" transform="scale(0.015625)"/>
      <path id="DejaVuSerif-Bold-6e" d="M 219 0 
L 219 378 
L 691 378 
L 691 2944 
L 219 2944 
L 219 3322 
L 1797 3322 
L 1797 2853 
Q 1997 3150 2253 3281 
Q 2509 3413 2900 3413 
Q 3459 3413 3745 3083 
Q 4031 2753 4031 2113 
L 4031 378 
L 4506 378 
L 4506 0 
L 2522 0 
L 2522 378 
L 2925 378 
L 2925 2144 
Q 2925 2566 2817 2730 
Q 2709 2894 2444 2894 
Q 2109 2894 1953 2648 
Q 1797 2403 1797 1869 
L 1797 378 
L 2203 378 
L 2203 0 
L 219 0 
z
" transform="scale(0.015625)"/>
     </defs>
     <use xlink:href="#DejaVuSerif-Bold-50"/>
     <use xlink:href="#DejaVuSerif-Bold-6c" transform="translate(75.195312 0)"/>
     <use xlink:href="#DejaVuSerif-Bold-61" transform="translate(113.183594 0)"/>
     <use xlink:href="#DejaVuSerif-Bold-73" transform="translate(177.978516 0)"/>
     <use xlink:href="#DejaVuSerif-Bold-74" transform="translate(234.277344 0)"/>
     <use xlink:href="#DejaVuSerif-Bold-69" transform="translate(280.46875 0)"/>
     <use xlink:href="#DejaVuSerif-Bold-63" transform="translate(318.457031 0)"/>
     <use xlink:href="#DejaVuSerif-Bold-20" transform="translate(379.345703 0)"/>
     <use xlink:href="#DejaVuSerif-Bold-50" transform="translate(414.160156 0)"/>
     <use xlink:href="#DejaVuSerif-Bold-72" transform="translate(489.355469 0)"/>
     <use xlink:href="#DejaVuSerif-Bold-6f" transform="translate(542.041016 0)"/>
     <use xlink:href="#DejaVuSerif-Bold-64" transform="translate(608.740234 0)"/>
     <use xlink:href="#DejaVuSerif-Bold-75" transform="translate(678.662109 0)"/>
     <use xlink:href="#DejaVuSerif-Bold-63" transform="translate(751.367188 0)"/>
     <use xlink:href="#DejaVuSerif-Bold-74" transform="translate(812.255859 0)"/>
     <use xlink:href="#DejaVuSerif-Bold-69" transform="translate(858.447266 0)"/>
     <use xlink:href="#DejaVuSerif-Bold-6f" transform="translate(896.435547 0)"/>
     <use xlink:href="#DejaVuSerif-Bold-6e" transform="translate(963.134766 0)"/>
    </g>
   </g>
   <g id="legend_1">
    <g id="line2d_23">
     <path d="M 195.9425 233.880781 
L 203.9425 233.880781 
L 211.9425 233.880781 
" style="fill: none; stroke-dasharray: 5.55,2.4; stroke-dashoffset: 0; stroke: #dc2626; stroke-opacity: 0.6; stroke-width: 1.5"/>
    </g>
    <g id="text_5">
     <!-- Target level -->
     <g style="fill: #262626" transform="translate(218.3425 236.680781) scale(0.08 -0.08)">
      <defs>
       <path id="DejaVuSerif-54" d="M 1222 0 
L 1222 331 
L 1819 331 
L 1819 4294 
L 447 4294 
L 447 3566 
L 63 3566 
L 63 4666 
L 4206 4666 
L 4206 3566 
L 3822 3566 
L 3822 4294 
L 2450 4294 
L 2450 331 
L 3047 331 
L 3047 0 
L 1222 0 
z
" transform="scale(0.015625)"/>
       <path id="DejaVuSerif-76" d="M 1581 0 
L 359 2988 
L -19 2988 
L -19 3322 
L 1509 3322 
L 1509 2988 
L 978 2988 
L 1913 703 
L 2847 2988 
L 2350 2988 
L 2350 3322 
L 3597 3322 
L 3597 2988 
L 3225 2988 
L 2003 0 
L 1581 0 
z
" transform="scale(0.015625)"/>
      </defs>
      <use xlink:href="#DejaVuSerif-54"/>
      <use xlink:href="#DejaVuSerif-61" transform="translate(58.949219 0)"/>
      <use xlink:href="#DejaVuSerif-72" transform="translate(118.568359 0)"/>
      <use xlink:href="#DejaVuSerif-67" transform="translate(166.371094 0)"/>
      <use xlink:href="#DejaVuSerif-65" transform="translate(230.384766 0)"/>
      <use xlink:href="#DejaVuSerif-74" transform="translate(289.564453 0)"/>
      <use xlink:href="#DejaVuSerif-20" transform="translate(329.75 0)"/>
      <use xlink:href="#DejaVuSerif-6c" transform="translate(361.537109 0)"/>
      <use xlink:href="#DejaVuSerif-65" transform="translate(393.519531 0)"/>
      <use xlink:href="#DejaVuSerif-76" transform="translate(452.699219 0)"/>
      <use xlink:href="#DejaVuSerif-65" transform="translate(509.193359 0)"/>
      <use xlink:href="#DejaVuSerif-6c" transform="translate(568.373047 0)"/>
     </g>
    </g>
   </g>
  </g>
  <g id="axes_2">
   <g id="patch_8">
    <path d="M 340.29375 245.658281 
L 583.95375 245.658281 
L 583.95375 25.158281 
L 340.29375 25.158281 
z
" style="fill: #ffffff"/>
   </g>
   <g id="matplotlib.axis_3">
    <g id="xtick_5">
     <g id="line2d_24">
      <path d="M 351.369205 245.658281 
L 351.369205 25.158281 
" clip-path="url(#p83f8da3909)" style="fill: none; stroke: #cccccc; stroke-width: 0.8; stroke-linecap: round"/>
     </g>
     <g id="line2d_25"/>
    </g>
    <g id="xtick_6">
     <g id="line2d_26">
      <path d="M 388.287386 245.658281 
L 388.287386 25.158281 
" clip-path="url(#p83f8da3909)" style="fill: none; stroke: #cccccc; stroke-width: 0.8; stroke-linecap: round"/>
     </g>
     <g id="line2d_27"/>
    </g>
    <g id="xtick_7">
     <g id="line2d_28">
      <path d="M 425.205568 245.658281 
L 425.205568 25.158281 
" clip-path="url(#p83f8da3909)" style="fill: none; stroke: #cccccc; stroke-width: 0.8; stroke-linecap: round"/>
     </g>
     <g id="line2d_29"/>
    </g>
    <g id="xtick_8">
     <g id="line2d_30">
      <path d="M 462.12375 245.658281 
L 462.12375 25.158281 
" clip-path="url(#p83f8da3909)" style="fill: none; stroke: #cccccc; stroke-width: 0.8; stroke-linecap: round"/>
     </g>
     <g id="line2d_31"/>
    </g>
    <g id="xtick_9">
     <g id="line2d_32">
      <path d="M 499.041932 245.658281 
L 499.041932 25.158281 
" clip-path="url(#p83f8da3909)" style="fill: none; stroke: #cccccc; stroke-width: 0.8; stroke-linecap: round"/>
     </g>
     <g id="line2d_33"/>
    </g>
    <g id="xtick_10">
     <g id="line2d_34">
      <path d="M 535.960114 245.658281 
L 535.960114 25.158281 
" clip-path="url(#p83f8da3909)" style="fill: none; stroke: #cccccc; stroke-width: 0.8; stroke-linecap: round"/>
     </g>
     <g id="line2d_35"/>
    </g>
    <g id="xtick_11">
     <g id="line2d_36">
      <path d="M 572.878295 245.658281 
L 572.878295 25.158281 
" clip-path="url(#p83f8da3909)" style="fill: none; stroke: #cccccc; stroke-width: 0.8; stroke-linecap: round"/>
     </g>
     <g id="line2d_37"/>
    </g>
    <g id="text_6">
     <!-- Time (minutes) -->
     <g style="fill: #262626" transform="translate(415.994062 262.276406) scale(0.12 -0.12)">
      <defs>
       <path id="DejaVuSerif-28" d="M 2041 -997 
Q 1281 -656 893 83 
Q 506 822 506 1931 
Q 506 3044 893 3783 
Q 1281 4522 2041 4863 
L 2041 4556 
Q 1559 4225 1350 3623 
Q 1141 3022 1141 1931 
Q 1141 844 1350 242 
Q 1559 -359 2041 -691 
L 2041 -997 
z
" transform="scale(0.015625)"/>
       <path id="DejaVuSerif-29" d="M 453 -997 
L 453 -691 
Q 934 -359 1145 242 
Q 1356 844 1356 1931 
Q 1356 3022 1145 3623 
Q 934 4225 453 4556 
L 453 4863 
Q 1216 4522 1603 3783 
Q 1991 3044 1991 1931 
Q 1991 822 1603 83 
Q 1216 -656 453 -997 
z
" transform="scale(0.015625)"/>
      </defs>
      <use xlink:href="#DejaVuSerif-54"/>
      <use xlink:href="#DejaVuSerif-69" transform="translate(66.699219 0)"/>
      <use xlink:href="#DejaVuSerif-6d" transform="translate(98.681641 0)"/>
      <use xlink:href="#DejaVuSerif-65" transform="translate(193.505859 0)"/>
      <use xlink:href="#DejaVuSerif-20" transform="translate(252.685547 0)"/>
      <use xlink:href="#DejaVuSerif-28" transform="translate(284.472656 0)"/>
      <use xlink:href="#DejaVuSerif-6d" transform="translate(323.486328 0)"/>
      <use xlink:href="#DejaVuSerif-69" transform="translate(418.310547 0)"/>
      <use xlink:href="#DejaVuSerif-6e" transform="translate(450.292969 0)"/>
      <use xlink:href="#DejaVuSerif-75" transform="translate(514.697266 0)"/>
      <use xlink:href="#DejaVuSerif-74" transform="translate(579.101562 0)"/>
      <use xlink:href="#DejaVuSerif-65" transform="translate(619.287109 0)"/>
      <use xlink:href="#DejaVuSerif-73" transform="translate(678.466797 0)"/>
      <use xlink:href="#DejaVuSerif-29" transform="translate(729.785156 0)"/>
     </g>
    </g>
   </g>
   <g id="matplotlib.axis_4">
    <g id="ytick_7">
     <g id="line2d_38">
      <path d="M 340.29375 238.817372 
L 583.95375 238.817372 
" clip-path="url(#p83f8da3909)" style="fill: none; stroke: #cccccc; stroke-width: 0.8; stroke-linecap: round"/>
     </g>
     <g id="line2d_39"/>
    </g>
    <g id="ytick_8">
     <g id="line2d_40">
      <path d="M 340.29375 206.99919 
L 583.95375 206.99919 
" clip-path="url(#p83f8da3909)" style="fill: none; stroke: #cccccc; stroke-width: 0.8; stroke-linecap: round"/>
     </g>
     <g id="line2d_41"/>
    </g>
    <g id="ytick_9">
     <g id="line2d_42">
      <path d="M 340.29375 175.181009 
L 583.95375 175.181009 
" clip-path="url(#p83f8da3909)" style="fill: none; stroke: #cccccc; stroke-width: 0.8; stroke-linecap: round"/>
     </g>
     <g id="line2d_43"/>
    </g>
    <g id="ytick_10">
     <g id="line2d_44">
      <path d="M 340.29375 143.362827 
L 583.95375 143.362827 
" clip-path="url(#p83f8da3909)" style="fill: none; stroke: #cccccc; stroke-width: 0.8; stroke-linecap: round"/>
     </g>
     <g id="line2d_45"/>
    </g>
    <g id="ytick_11">
     <g id="line2d_46">
      <path d="M 340.29375 111.544645 
L 583.95375 111.544645 
" clip-path="url(#p83f8da3909)" style="fill: none; stroke: #cccccc; stroke-width: 0.8; stroke-linecap: round"/>
     </g>
     <g id="line2d_47"/>
    </g>
    <g id="ytick_12">
     <g id="line2d_48">
      <path d="M 340.29375 79.726463 
L 583.95375 79.726463 
" clip-path="url(#p83f8da3909)" style="fill: none; stroke: #cccccc; stroke-width: 0.8; stroke-linecap: round"/>
     </g>
     <g id="line2d_49"/>
    </g>
    <g id="ytick_13">
     <g id="line2d_50">
      <path d="M 340.29375 47.908281 
L 583.95375 47.908281 
" clip-path="url(#p83f8da3909)" style="fill: none; stroke: #cccccc; stroke-width: 0.8; stroke-linecap: round"/>
     </g>
     <g id="line2d_51"/>
    </g>
    <g id="text_7">
     <!-- Cell count -->
     <g style="fill: #262626" transform="translate(330.298125 166.407656) rotate(-90) scale(0.12 -0.12)">
      <defs>
       <path id="DejaVuSerif-43" d="M 4513 1234 
Q 4306 581 3820 245 
Q 3334 -91 2591 -91 
Q 2134 -91 1743 65 
Q 1353 222 1050 525 
Q 700 875 529 1320 
Q 359 1766 359 2328 
Q 359 3416 987 4083 
Q 1616 4750 2644 4750 
Q 3025 4750 3456 4650 
Q 3888 4550 4384 4347 
L 4384 3272 
L 4031 3272 
Q 3916 3859 3567 4137 
Q 3219 4416 2591 4416 
Q 1844 4416 1459 3886 
Q 1075 3356 1075 2328 
Q 1075 1303 1459 773 
Q 1844 244 2591 244 
Q 3113 244 3450 492 
Q 3788 741 3938 1234 
L 4513 1234 
z
" transform="scale(0.015625)"/>
       <path id="DejaVuSerif-63" d="M 3291 997 
Q 3169 466 2822 187 
Q 2475 -91 1925 -91 
Q 1200 -91 759 389 
Q 319 869 319 1663 
Q 319 2459 759 2936 
Q 1200 3413 1925 3413 
Q 2241 3413 2553 3339 
Q 2866 3266 3181 3116 
L 3181 2266 
L 2847 2266 
Q 2781 2703 2561 2903 
Q 2341 3103 1931 3103 
Q 1466 3103 1228 2742 
Q 991 2381 991 1663 
Q 991 944 1227 581 
Q 1463 219 1931 219 
Q 2303 219 2525 412 
Q 2747 606 2828 997 
L 3291 997 
z
" transform="scale(0.015625)"/>
      </defs>
      <use xlink:href="#DejaVuSerif-43"/>
      <use xlink:href="#DejaVuSerif-65" transform="translate(76.513672 0)"/>
      <use xlink:href="#DejaVuSerif-6c" transform="translate(135.693359 0)"/>
      <use xlink:href="#DejaVuSerif-6c" transform="translate(167.675781 0)"/>
      <use xlink:href="#DejaVuSerif-20" transform="translate(199.658203 0)"/>
      <use xlink:href="#DejaVuSerif-63" transform="translate(231.445312 0)"/>
      <use xlink:href="#DejaVuSerif-6f" transform="translate(287.451172 0)"/>
      <use xlink:href="#DejaVuSerif-75" transform="translate(347.65625 0)"/>
      <use xlink:href="#DejaVuSerif-6e" transform="translate(412.060547 0)"/>
      <use xlink:href="#DejaVuSerif-74" transform="translate(476.464844 0)"/>
     </g>
    </g>
   </g>
   <g id="line2d_52">
    <path d="M 351.369205 235.635554 
L 364.726537 234.72862 
L 376.970758 233.671846 
L 388.101868 232.475863 
L 398.119867 231.163536 
L 407.024755 229.770688 
L 414.816532 228.345523 
L 422.608309 226.695844 
L 429.286975 225.076476 
L 435.965641 223.24077 
L 442.644307 221.159823 
L 448.209862 219.214856 
L 453.775417 217.055651 
L 459.340972 214.658612 
L 464.906528 211.99754 
L 470.472083 209.043354 
L 474.924527 206.447381 
L 479.376971 203.625068 
L 483.829415 200.556679 
L 488.281859 197.22076 
L 492.734303 193.593986 
L 497.186747 189.650995 
L 501.639191 185.364219 
L 506.091635 180.703682 
L 510.544079 175.636796 
L 514.996523 170.128133 
L 518.335856 165.683671 
L 521.675189 160.951636 
L 525.014522 155.913419 
L 528.353855 150.54921 
L 531.693188 144.837916 
L 535.032521 138.757079 
L 538.371854 132.282788 
L 541.711187 125.389586 
L 545.05052 118.050366 
L 548.389853 110.23627 
L 551.729186 101.916571 
L 555.068519 93.058556 
L 558.407852 83.627392 
L 561.747185 73.585996 
L 565.086518 62.894882 
L 568.425851 51.512011 
L 571.765184 39.392624 
L 572.878295 35.181009 
L 572.878295 35.181009 
" clip-path="url(#p83f8da3909)" style="fill: none; stroke: #059669; stroke-width: 2.5; stroke-linecap: round"/>
   </g>
   <g id="line2d_53">
    <defs>
     <path id="m6313b64b2e" d="M 0 2.5 
C 0.663008 2.5 1.29895 2.236584 1.767767 1.767767 
C 2.236584 1.29895 2.5 0.663008 2.5 0 
C 2.5 -0.663008 2.236584 -1.29895 1.767767 -1.767767 
C 1.29895 -2.236584 0.663008 -2.5 0 -2.5 
C -0.663008 -2.5 -1.29895 -2.236584 -1.767767 -1.767767 
C -2.236584 -1.29895 -2.5 -0.663008 -2.5 0 
C -2.5 0.663008 -2.236584 1.29895 -1.767767 1.767767 
C -1.29895 2.236584 -0.663008 2.5 0 2.5 
z
" style="stroke: #059669"/>
    </defs>
    <g clip-path="url(#p83f8da3909)">
     <use xlink:href="#m6313b64b2e" x="388.287386" y="232.453736" style="fill: #059669; stroke: #059669"/>
    </g>
   </g>
   <g id="line2d_54">
    <g clip-path="url(#p83f8da3909)">
     <use xlink:href="#m6313b64b2e" x="425.205568" y="226.090099" style="fill: #059669; stroke: #059669"/>
    </g>
   </g>
   <g id="line2d_55">
    <g clip-path="url(#p83f8da3909)">
     <use xlink:href="#m6313b64b2e" x="462.12375" y="213.362827" style="fill: #059669; stroke: #059669"/>
    </g>
   </g>
   <g id="line2d_56">
    <g clip-path="url(#p83f8da3909)">
     <use xlink:href="#m6313b64b2e" x="499.041932" y="187.908281" style="fill: #059669; stroke: #059669"/>
    </g>
   </g>
   <g id="line2d_57">
    <g clip-path="url(#p83f8da3909)">
     <use xlink:href="#m6313b64b2e" x="535.960114" y="136.99919" style="fill: #059669; stroke: #059669"/>
    </g>
   </g>
   <g id="line2d_58">
    <g clip-path="url(#p83f8da3909)">
     <use xlink:href="#m6313b64b2e" x="572.878295" y="35.181009" style="fill: #059669; stroke: #059669"/>
    </g>
   </g>
   <g id="patch_9">
    <path d="M 340.29375 245.658281 
L 340.29375 25.158281 
" style="fill: none; stroke: #cccccc; stroke-linejoin: miter; stroke-linecap: square"/>
   </g>
   <g id="patch_10">
    <path d="M 583.95375 245.658281 
L 583.95375 25.158281 
" style="fill: none; stroke: #cccccc; stroke-linejoin: miter; stroke-linecap: square"/>
   </g>
   <g id="patch_11">
    <path d="M 340.29375 245.658281 
L 583.95375 245.658281 
" style="fill: none; stroke: #cccccc; stroke-linejoin: miter; stroke-linecap: square"/>
   </g>
   <g id="patch_12">
    <path d="M 340.29375 25.158281 
L 583.95375 25.158281 
" style="fill: none; stroke: #cccccc; stroke-linejoin: miter; stroke-linecap: square"/>
   </g>
   <g id="text_8">
    <g id="patch_13">
     <path d="M 443.664659 179.880696 
L 526.475909 179.880696 
Q 529.175909 179.880696 529.175909 177.180696 
L 529.175909 168.342415 
Q 529.175909 165.642415 526.475909 165.642415 
L 443.664659 165.642415 
Q 440.964659 165.642415 440.964659 168.342415 
L 440.964659 177.180696 
Q 440.964659 179.880696 443.664659 179.880696 
z
" style="fill: #ecfdf5; stroke: #059669; stroke-linejoin: miter"/>
    </g>
    <!-- Doubling time = ? -->
    <g style="fill: #262626" transform="translate(443.664659 175.181009) scale(0.09 -0.09)">
     <use xlink:href="#DejaVuSerif-44"/>
     <use xlink:href="#DejaVuSerif-6f" transform="translate(80.175781 0)"/>
     <use xlink:href="#DejaVuSerif-75" transform="translate(140.380859 0)"/>
     <use xlink:href="#DejaVuSerif-62" transform="translate(204.785156 0)"/>
     <use xlink:href="#DejaVuSerif-6c" transform="translate(268.798828 0)"/>
     <use xlink:href="#DejaVuSerif-69" transform="translate(300.78125 0)"/>
     <use xlink:href="#DejaVuSerif-6e" transform="translate(332.763672 0)"/>
     <use xlink:href="#DejaVuSerif-67" transform="translate(397.167969 0)"/>
     <use xlink:href="#DejaVuSerif-20" transform="translate(461.181641 0)"/>
     <use xlink:href="#DejaVuSerif-74" transform="translate(492.96875 0)"/>
     <use xlink:href="#DejaVuSerif-69" transform="translate(533.154297 0)"/>
     <use xlink:href="#DejaVuSerif-6d" transform="translate(565.136719 0)"/>
     <use xlink:href="#DejaVuSerif-65" transform="translate(659.960938 0)"/>
     <use xlink:href="#DejaVuSerif-20" transform="translate(719.140625 0)"/>
     <use xlink:href="#DejaVuSerif-3d" transform="translate(750.927734 0)"/>
     <use xlink:href="#DejaVuSerif-20" transform="translate(834.716797 0)"/>
     <use xlink:href="#DejaVuSerif-3f" transform="translate(866.503906 0)"/>
    </g>
   </g>
   <g id="text_9">
    <!-- E. coli Growth -->
    <g style="fill: #262626" transform="translate(418.454609 19.158281) scale(0.11 -0.11)">
     <defs>
      <path id="DejaVuSerif-Bold-45" d="M 300 0 
L 300 378 
L 897 378 
L 897 4288 
L 300 4288 
L 300 4666 
L 4494 4666 
L 4494 3566 
L 4063 3566 
L 4063 4238 
L 2100 4238 
L 2100 2741 
L 3322 2741 
L 3322 3334 
L 3750 3334 
L 3750 1722 
L 3322 1722 
L 3322 2316 
L 2100 2316 
L 2100 428 
L 4122 428 
L 4122 1100 
L 4550 1100 
L 4550 0 
L 300 0 
z
" transform="scale(0.015625)"/>
      <path id="DejaVuSerif-Bold-2e" d="M 519 506 
Q 519 750 694 925 
Q 869 1100 1113 1100 
Q 1359 1100 1534 925 
Q 1709 750 1709 506 
Q 1709 259 1534 84 
Q 1359 -91 1113 -91 
Q 869 -91 694 84 
Q 519 259 519 506 
z
" transform="scale(0.015625)"/>
      <path id="DejaVuSerif-Bold-47" d="M 4403 3200 
Q 4263 3819 3934 4095 
Q 3606 4372 3009 4372 
Q 2284 4372 1945 3880 
Q 1606 3388 1606 2328 
Q 1606 1278 1931 783 
Q 2256 288 2944 288 
Q 3206 288 3431 347 
Q 3656 406 3841 525 
L 3841 1806 
L 3278 1806 
L 3278 2181 
L 4959 2181 
L 4959 391 
Q 4434 147 3911 28 
Q 3388 -91 2841 -91 
Q 1641 -91 955 556 
Q 269 1203 269 2328 
Q 269 3456 955 4103 
Q 1641 4750 2841 4750 
Q 3341 4750 3825 4650 
Q 4309 4550 4800 4347 
L 4800 3200 
L 4403 3200 
z
" transform="scale(0.015625)"/>
      <path id="DejaVuSerif-Bold-77" d="M 3450 3322 
L 4206 1106 
L 4831 2944 
L 4397 2944 
L 4397 3322 
L 5638 3322 
L 5638 2944 
L 5247 2944 
L 4244 0 
L 3481 0 
L 2778 2081 
L 2069 0 
L 1313 0 
L 306 2944 
L -56 2944 
L -56 3322 
L 1825 3322 
L 1825 2944 
L 1434 2944 
L 2047 1147 
L 2791 3322 
L 3450 3322 
z
" transform="scale(0.015625)"/>
      <path id="DejaVuSerif-Bold-68" d="M 219 0 
L 219 378 
L 691 378 
L 691 4488 
L 197 4488 
L 197 4863 
L 1797 4863 
L 1797 2853 
Q 1997 3150 2253 3281 
Q 2509 3413 2900 3413 
Q 3459 3413 3745 3083 
Q 4031 2753 4031 2113 
L 4031 378 
L 4506 378 
L 4506 0 
L 2522 0 
L 2522 378 
L 2925 378 
L 2925 2144 
Q 2925 2566 2817 2730 
Q 2709 2894 2444 2894 
Q 2109 2894 1953 2648 
Q 1797 2403 1797 1869 
L 1797 378 
L 2203 378 
L 2203 0 
L 219 0 
z
" transform="scale(0.015625)"/>
     </defs>
     <use xlink:href="#DejaVuSerif-Bold-45"/>
     <use xlink:href="#DejaVuSerif-Bold-2e" transform="translate(76.220703 0)"/>
     <use xlink:href="#DejaVuSerif-Bold-20" transform="translate(111.035156 0)"/>
     <use xlink:href="#DejaVuSerif-Bold-63" transform="translate(145.849609 0)"/>
     <use xlink:href="#DejaVuSerif-Bold-6f" transform="translate(206.738281 0)"/>
     <use xlink:href="#DejaVuSerif-Bold-6c" transform="translate(273.4375 0)"/>
     <use xlink:href="#DejaVuSerif-Bold-69" transform="translate(311.425781 0)"/>
     <use xlink:href="#DejaVuSerif-Bold-20" transform="translate(349.414062 0)"/>
     <use xlink:href="#DejaVuSerif-Bold-47" transform="translate(384.228516 0)"/>
     <use xlink:href="#DejaVuSerif-Bold-72" transform="translate(469.628906 0)"/>
     <use xlink:href="#DejaVuSerif-Bold-6f" transform="translate(522.314453 0)"/>
     <use xlink:href="#DejaVuSerif-Bold-77" transform="translate(589.013672 0)"/>
     <use xlink:href="#DejaVuSerif-Bold-74" transform="translate(675.097656 0)"/>
     <use xlink:href="#DejaVuSerif-Bold-68" transform="translate(721.289062 0)"/>
    </g>
   </g>
  </g>
  <g id="axes_3">
   <g id="patch_14">
    <path d="M 650.67375 245.658281 
L 894.33375 245.658281 
L 894.33375 25.158281 
L 650.67375 25.158281 
z
" style="fill: #ffffff"/>
   </g>
   <g id="matplotlib.axis_5">
    <g id="xtick_12">
     <g id="line2d_59">
      <path d="M 661.749205 245.658281 
L 661.749205 25.158281 
" clip-path="url(#p39a1818b0a)" style="fill: none; stroke: #cccccc; stroke-width: 0.8; stroke-linecap: round"/>
     </g>
     <g id="line2d_60"/>
    </g>
    <g id="xtick_13">
     <g id="line2d_61">
      <path d="M 706.051023 245.658281 
L 706.051023 25.158281 
" clip-path="url(#p39a1818b0a)" style="fill: none; stroke: #cccccc; stroke-width: 0.8; stroke-linecap: round"/>
     </g>
     <g id="line2d_62"/>
    </g>
    <g id="xtick_14">
     <g id="line2d_63">
      <path d="M 750.352841 245.658281 
L 750.352841 25.158281 
" clip-path="url(#p39a1818b0a)" style="fill: none; stroke: #cccccc; stroke-width: 0.8; stroke-linecap: round"/>
     </g>
     <g id="line2d_64"/>
    </g>
    <g id="xtick_15">
     <g id="line2d_65">
      <path d="M 794.654659 245.658281 
L 794.654659 25.158281 
" clip-path="url(#p39a1818b0a)" style="fill: none; stroke: #cccccc; stroke-width: 0.8; stroke-linecap: round"/>
     </g>
     <g id="line2d_66"/>
    </g>
    <g id="xtick_16">
     <g id="line2d_67">
      <path d="M 838.956477 245.658281 
L 838.956477 25.158281 
" clip-path="url(#p39a1818b0a)" style="fill: none; stroke: #cccccc; stroke-width: 0.8; stroke-linecap: round"/>
     </g>
     <g id="line2d_68"/>
    </g>
    <g id="xtick_17">
     <g id="line2d_69">
      <path d="M 883.258295 245.658281 
L 883.258295 25.158281 
" clip-path="url(#p39a1818b0a)" style="fill: none; stroke: #cccccc; stroke-width: 0.8; stroke-linecap: round"/>
     </g>
     <g id="line2d_70"/>
    </g>
    <g id="text_10">
     <!-- Time (thousand years) -->
     <g style="fill: #262626" transform="translate(704.266875 262.276406) scale(0.12 -0.12)">
      <defs>
       <path id="DejaVuSerif-68" d="M 263 0 
L 263 331 
L 781 331 
L 781 4531 
L 231 4531 
L 231 4863 
L 1356 4863 
L 1356 2731 
Q 1516 3069 1770 3241 
Q 2025 3413 2363 3413 
Q 2913 3413 3172 3097 
Q 3431 2781 3431 2113 
L 3431 331 
L 3944 331 
L 3944 0 
L 2356 0 
L 2356 331 
L 2853 331 
L 2853 1931 
Q 2853 2541 2704 2764 
Q 2556 2988 2175 2988 
Q 1775 2988 1565 2697 
Q 1356 2406 1356 1850 
L 1356 331 
L 1856 331 
L 1856 0 
L 263 0 
z
" transform="scale(0.015625)"/>
       <path id="DejaVuSerif-64" d="M 3359 331 
L 3909 331 
L 3909 0 
L 2784 0 
L 2784 519 
Q 2616 206 2355 57 
Q 2094 -91 1709 -91 
Q 1097 -91 708 395 
Q 319 881 319 1663 
Q 319 2444 706 2928 
Q 1094 3413 1709 3413 
Q 2094 3413 2355 3264 
Q 2616 3116 2784 2803 
L 2784 4531 
L 2241 4531 
L 2241 4863 
L 3359 4863 
L 3359 331 
z
M 2784 1497 
L 2784 1825 
Q 2784 2422 2554 2737 
Q 2325 3053 1888 3053 
Q 1444 3053 1217 2703 
Q 991 2353 991 1663 
Q 991 975 1217 622 
Q 1444 269 1888 269 
Q 2325 269 2554 583 
Q 2784 897 2784 1497 
z
" transform="scale(0.015625)"/>
       <path id="DejaVuSerif-79" d="M 1381 -609 
L 1600 -56 
L 359 2988 
L -19 2988 
L -19 3322 
L 1509 3322 
L 1509 2988 
L 978 2988 
L 1913 703 
L 2847 2988 
L 2350 2988 
L 2350 3322 
L 3597 3322 
L 3597 2988 
L 3225 2988 
L 1703 -750 
Q 1547 -1138 1356 -1280 
Q 1166 -1422 819 -1422 
Q 672 -1422 517 -1397 
Q 363 -1372 206 -1325 
L 206 -691 
L 500 -691 
Q 519 -903 608 -995 
Q 697 -1088 884 -1088 
Q 1056 -1088 1161 -992 
Q 1266 -897 1381 -609 
z
" transform="scale(0.015625)"/>
      </defs>
      <use xlink:href="#DejaVuSerif-54"/>
      <use xlink:href="#DejaVuSerif-69" transform="translate(66.699219 0)"/>
      <use xlink:href="#DejaVuSerif-6d" transform="translate(98.681641 0)"/>
      <use xlink:href="#DejaVuSerif-65" transform="translate(193.505859 0)"/>
      <use xlink:href="#DejaVuSerif-20" transform="translate(252.685547 0)"/>
      <use xlink:href="#DejaVuSerif-28" transform="translate(284.472656 0)"/>
      <use xlink:href="#DejaVuSerif-74" transform="translate(323.486328 0)"/>
      <use xlink:href="#DejaVuSerif-68" transform="translate(363.671875 0)"/>
      <use xlink:href="#DejaVuSerif-6f" transform="translate(428.076172 0)"/>
      <use xlink:href="#DejaVuSerif-75" transform="translate(488.28125 0)"/>
      <use xlink:href="#DejaVuSerif-73" transform="translate(552.685547 0)"/>
      <use xlink:href="#DejaVuSerif-61" transform="translate(604.003906 0)"/>
      <use xlink:href="#DejaVuSerif-6e" transform="translate(663.623047 0)"/>
      <use xlink:href="#DejaVuSerif-64" transform="translate(728.027344 0)"/>
      <use xlink:href="#DejaVuSerif-20" transform="translate(792.041016 0)"/>
      <use xlink:href="#DejaVuSerif-79" transform="translate(823.828125 0)"/>
      <use xlink:href="#DejaVuSerif-65" transform="translate(880.322266 0)"/>
      <use xlink:href="#DejaVuSerif-61" transform="translate(939.501953 0)"/>
      <use xlink:href="#DejaVuSerif-72" transform="translate(999.121094 0)"/>
      <use xlink:href="#DejaVuSerif-73" transform="translate(1046.923828 0)"/>
      <use xlink:href="#DejaVuSerif-29" transform="translate(1098.242188 0)"/>
     </g>
    </g>
   </g>
   <g id="matplotlib.axis_6">
    <g id="ytick_14">
     <g id="line2d_71">
      <path d="M 650.67375 203.735831 
L 894.33375 203.735831 
" clip-path="url(#p39a1818b0a)" style="fill: none; stroke: #cccccc; stroke-width: 0.8; stroke-linecap: round"/>
     </g>
     <g id="line2d_72"/>
    </g>
    <g id="ytick_15">
     <g id="line2d_73">
      <path d="M 650.67375 161.597125 
L 894.33375 161.597125 
" clip-path="url(#p39a1818b0a)" style="fill: none; stroke: #cccccc; stroke-width: 0.8; stroke-linecap: round"/>
     </g>
     <g id="line2d_74"/>
    </g>
    <g id="ytick_16">
     <g id="line2d_75">
      <path d="M 650.67375 119.45842 
L 894.33375 119.45842 
" clip-path="url(#p39a1818b0a)" style="fill: none; stroke: #cccccc; stroke-width: 0.8; stroke-linecap: round"/>
     </g>
     <g id="line2d_76"/>
    </g>
    <g id="ytick_17">
     <g id="line2d_77">
      <path d="M 650.67375 77.319714 
L 894.33375 77.319714 
" clip-path="url(#p39a1818b0a)" style="fill: none; stroke: #cccccc; stroke-width: 0.8; stroke-linecap: round"/>
     </g>
     <g id="line2d_78"/>
    </g>
    <g id="ytick_18">
     <g id="line2d_79">
      <path d="M 650.67375 35.181009 
L 894.33375 35.181009 
" clip-path="url(#p39a1818b0a)" style="fill: none; stroke: #cccccc; stroke-width: 0.8; stroke-linecap: round"/>
     </g>
     <g id="line2d_80"/>
    </g>
    <g id="text_11">
     <!-- % remaining -->
     <g style="fill: #262626" transform="translate(640.5075 174.110156) rotate(-90) scale(0.12 -0.12)">
      <defs>
       <path id="DejaVuSerif-25" d="M 1434 4459 
Q 1159 4459 1004 4200 
Q 850 3941 850 3475 
Q 850 3016 1008 2753 
Q 1166 2491 1434 2491 
Q 1700 2491 1854 2752 
Q 2009 3013 2009 3475 
Q 2009 3938 1854 4198 
Q 1700 4459 1434 4459 
z
M 4653 2169 
Q 4381 2169 4226 1906 
Q 4072 1644 4072 1178 
Q 4072 719 4228 458 
Q 4384 197 4653 197 
Q 4922 197 5075 458 
Q 5228 719 5228 1178 
Q 5228 1641 5073 1905 
Q 4919 2169 4653 2169 
z
M 4653 2450 
Q 5147 2450 5437 2106 
Q 5728 1763 5728 1178 
Q 5728 594 5436 251 
Q 5144 -91 4653 -91 
Q 4153 -91 3862 251 
Q 3572 594 3572 1178 
Q 3572 1766 3864 2108 
Q 4156 2450 4653 2450 
z
M 4263 4750 
L 4738 4750 
L 1819 -91 
L 1344 -91 
L 4263 4750 
z
M 1428 4750 
Q 1922 4750 2215 4408 
Q 2509 4066 2509 3481 
Q 2509 2891 2217 2550 
Q 1925 2209 1428 2209 
Q 931 2209 642 2551 
Q 353 2894 353 3481 
Q 353 4063 643 4406 
Q 934 4750 1428 4750 
z
" transform="scale(0.015625)"/>
      </defs>
      <use xlink:href="#DejaVuSerif-25"/>
      <use xlink:href="#DejaVuSerif-20" transform="translate(95.019531 0)"/>
      <use xlink:href="#DejaVuSerif-72" transform="translate(126.806641 0)"/>
      <use xlink:href="#DejaVuSerif-65" transform="translate(174.609375 0)"/>
      <use xlink:href="#DejaVuSerif-6d" transform="translate(233.789062 0)"/>
      <use xlink:href="#DejaVuSerif-61" transform="translate(328.613281 0)"/>
      <use xlink:href="#DejaVuSerif-69" transform="translate(388.232422 0)"/>
      <use xlink:href="#DejaVuSerif-6e" transform="translate(420.214844 0)"/>
      <use xlink:href="#DejaVuSerif-69" transform="translate(484.619141 0)"/>
      <use xlink:href="#DejaVuSerif-6e" transform="translate(516.601562 0)"/>
      <use xlink:href="#DejaVuSerif-67" transform="translate(581.005859 0)"/>
     </g>
    </g>
   </g>
   <g id="line2d_81">
    <path d="M 661.749205 35.181009 
L 666.201649 47.607138 
L 670.654093 59.300408 
L 675.106537 70.304042 
L 679.558981 80.658711 
L 684.011425 90.402689 
L 688.463869 99.571995 
L 692.916313 108.20052 
L 697.368757 116.320158 
L 701.821201 123.960922 
L 706.273645 131.151054 
L 710.726089 137.917132 
L 715.178533 144.284165 
L 719.630977 150.275688 
L 724.083421 155.913848 
L 728.535865 161.219484 
L 732.988309 166.212208 
L 737.440753 170.910475 
L 741.893197 175.331651 
L 746.345641 179.492078 
L 751.911196 184.349274 
L 757.476751 188.85107 
L 763.042306 193.02347 
L 768.607861 196.890576 
L 774.173417 200.474726 
L 779.738972 203.796625 
L 785.304527 206.87546 
L 790.870082 209.729018 
L 797.548748 212.879043 
L 804.227414 215.754548 
L 810.90608 218.379458 
L 817.584746 220.77561 
L 825.376523 223.308497 
L 833.1683 225.585775 
L 840.960077 227.633239 
L 849.864965 229.721434 
L 858.769853 231.57058 
L 868.787852 233.39908 
L 878.805851 234.99384 
L 883.258295 235.635554 
L 883.258295 235.635554 
" clip-path="url(#p39a1818b0a)" style="fill: none; stroke: #7c3aed; stroke-width: 2.5; stroke-linecap: round"/>
   </g>
   <g id="line2d_82">
    <path d="M 650.67375 140.527772 
L 894.33375 140.527772 
" clip-path="url(#p39a1818b0a)" style="fill: none; stroke-dasharray: 1.5,2.475; stroke-dashoffset: 0; stroke: #475569; stroke-opacity: 0.5; stroke-width: 1.5"/>
   </g>
   <g id="line2d_83">
    <path d="M 650.67375 193.201154 
L 894.33375 193.201154 
" clip-path="url(#p39a1818b0a)" style="fill: none; stroke-dasharray: 1.5,2.475; stroke-dashoffset: 0; stroke: #475569; stroke-opacity: 0.5; stroke-width: 1.5"/>
   </g>
   <g id="patch_15">
    <path d="M 650.67375 245.658281 
L 650.67375 25.158281 
" style="fill: none; stroke: #cccccc; stroke-linejoin: miter; stroke-linecap: square"/>
   </g>
   <g id="patch_16">
    <path d="M 894.33375 245.658281 
L 894.33375 25.158281 
" style="fill: none; stroke: #cccccc; stroke-linejoin: miter; stroke-linecap: square"/>
   </g>
   <g id="patch_17">
    <path d="M 650.67375 245.658281 
L 894.33375 245.658281 
" style="fill: none; stroke: #cccccc; stroke-linejoin: miter; stroke-linecap: square"/>
   </g>
   <g id="patch_18">
    <path d="M 650.67375 25.158281 
L 894.33375 25.158281 
" style="fill: none; stroke: #cccccc; stroke-linejoin: miter; stroke-linecap: square"/>
   </g>
   <g id="text_12">
    <g id="patch_19">
     <path d="M 768.073568 102.960786 
L 822.716224 102.960786 
Q 825.416224 102.960786 825.416224 100.260786 
L 825.416224 91.550473 
Q 825.416224 88.850473 822.716224 88.850473 
L 768.073568 88.850473 
Q 765.373568 88.850473 765.373568 91.550473 
L 765.373568 100.260786 
Q 765.373568 102.960786 768.073568 102.960786 
z
" style="fill: #f5f3ff; stroke: #7c3aed; stroke-linejoin: miter"/>
    </g>
    <!-- Half-life = ? -->
    <g style="fill: #262626" transform="translate(768.073568 98.389067) scale(0.09 -0.09)">
     <defs>
      <path id="DejaVuSerif-48" d="M 353 0 
L 353 331 
L 947 331 
L 947 4331 
L 353 4331 
L 353 4666 
L 2175 4666 
L 2175 4331 
L 1581 4331 
L 1581 2719 
L 4000 2719 
L 4000 4331 
L 3406 4331 
L 3406 4666 
L 5228 4666 
L 5228 4331 
L 4634 4331 
L 4634 331 
L 5228 331 
L 5228 0 
L 3406 0 
L 3406 331 
L 4000 331 
L 4000 2338 
L 1581 2338 
L 1581 331 
L 2175 331 
L 2175 0 
L 353 0 
z
" transform="scale(0.015625)"/>
      <path id="DejaVuSerif-66" d="M 2753 4078 
L 2450 4078 
Q 2447 4313 2317 4434 
Q 2188 4556 1941 4556 
Q 1619 4556 1487 4379 
Q 1356 4203 1356 3750 
L 1356 3322 
L 2284 3322 
L 2284 2988 
L 1356 2988 
L 1356 331 
L 2094 331 
L 2094 0 
L 231 0 
L 231 331 
L 781 331 
L 781 2988 
L 231 2988 
L 231 3322 
L 781 3322 
L 781 3738 
Q 781 4294 1070 4578 
Q 1359 4863 1919 4863 
Q 2128 4863 2337 4825 
Q 2547 4788 2753 4709 
L 2753 4078 
z
" transform="scale(0.015625)"/>
      <path id="DejaVuSerif-2d" d="M 281 1959 
L 1881 1959 
L 1881 1472 
L 281 1472 
L 281 1959 
z
" transform="scale(0.015625)"/>
     </defs>
     <use xlink:href="#DejaVuSerif-48"/>
     <use xlink:href="#DejaVuSerif-61" transform="translate(87.207031 0)"/>
     <use xlink:href="#DejaVuSerif-6c" transform="translate(146.826172 0)"/>
     <use xlink:href="#DejaVuSerif-66" transform="translate(178.808594 0)"/>
     <use xlink:href="#DejaVuSerif-2d" transform="translate(212.195312 0)"/>
     <use xlink:href="#DejaVuSerif-6c" transform="translate(245.984375 0)"/>
     <use xlink:href="#DejaVuSerif-69" transform="translate(277.966797 0)"/>
     <use xlink:href="#DejaVuSerif-66" transform="translate(309.949219 0)"/>
     <use xlink:href="#DejaVuSerif-65" transform="translate(346.960938 0)"/>
     <use xlink:href="#DejaVuSerif-20" transform="translate(406.140625 0)"/>
     <use xlink:href="#DejaVuSerif-3d" transform="translate(437.927734 0)"/>
     <use xlink:href="#DejaVuSerif-20" transform="translate(521.716797 0)"/>
     <use xlink:href="#DejaVuSerif-3f" transform="translate(553.503906 0)"/>
    </g>
   </g>
   <g id="text_13">
    <!-- C-14 Decay -->
    <g style="fill: #262626" transform="translate(737.897578 19.158281) scale(0.11 -0.11)">
     <defs>
      <path id="DejaVuSerif-Bold-43" d="M 4769 1331 
Q 4584 609 4106 259 
Q 3628 -91 2822 -91 
Q 1641 -91 955 561 
Q 269 1213 269 2328 
Q 269 3447 955 4098 
Q 1641 4750 2822 4750 
Q 3238 4750 3688 4650 
Q 4138 4550 4641 4347 
L 4641 3200 
L 4244 3200 
Q 4122 3788 3800 4080 
Q 3478 4372 2950 4372 
Q 2269 4372 1937 3870 
Q 1606 3369 1606 2328 
Q 1606 1288 1937 788 
Q 2269 288 2956 288 
Q 3422 288 3717 547 
Q 4013 806 4147 1331 
L 4769 1331 
z
" transform="scale(0.015625)"/>
      <path id="DejaVuSerif-Bold-2d" d="M 347 2138 
L 2309 2138 
L 2309 1294 
L 347 1294 
L 347 2138 
z
" transform="scale(0.015625)"/>
      <path id="DejaVuSerif-Bold-31" d="M 878 0 
L 878 378 
L 1753 378 
L 1753 4153 
L 781 3578 
L 781 4044 
L 1953 4750 
L 2938 4750 
L 2938 378 
L 3816 378 
L 3816 0 
L 878 0 
z
" transform="scale(0.015625)"/>
      <path id="DejaVuSerif-Bold-34" d="M 4084 0 
L 1516 0 
L 1516 378 
L 2209 378 
L 2209 1228 
L 263 1228 
L 263 1588 
L 2216 4750 
L 3391 4750 
L 3391 1631 
L 4191 1631 
L 4191 1228 
L 3391 1228 
L 3391 378 
L 4084 378 
L 4084 0 
z
M 2209 1631 
L 2209 3897 
L 819 1631 
L 2209 1631 
z
" transform="scale(0.015625)"/>
      <path id="DejaVuSerif-Bold-44" d="M 2100 378 
L 2534 378 
Q 3266 378 3605 847 
Q 3944 1316 3944 2338 
Q 3944 3353 3606 3820 
Q 3269 4288 2534 4288 
L 2100 4288 
L 2100 378 
z
M 300 0 
L 300 378 
L 897 378 
L 897 4288 
L 300 4288 
L 300 4666 
L 2694 4666 
Q 3950 4666 4615 4066 
Q 5281 3466 5281 2338 
Q 5281 1203 4614 601 
Q 3947 0 2694 0 
L 300 0 
z
" transform="scale(0.015625)"/>
      <path id="DejaVuSerif-Bold-65" d="M 2566 1875 
Q 2566 2531 2444 2795 
Q 2322 3059 2028 3059 
Q 1744 3059 1620 2800 
Q 1497 2541 1497 1931 
L 1497 1875 
L 2566 1875 
z
M 3781 1503 
L 1497 1503 
L 1497 1478 
Q 1497 834 1690 548 
Q 1884 263 2316 263 
Q 2675 263 2897 453 
Q 3119 644 3181 1006 
L 3700 1006 
Q 3566 441 3166 175 
Q 2766 -91 2047 -91 
Q 1184 -91 723 364 
Q 263 819 263 1663 
Q 263 2488 734 2950 
Q 1206 3413 2047 3413 
Q 2872 3413 3312 2927 
Q 3753 2441 3781 1503 
z
" transform="scale(0.015625)"/>
      <path id="DejaVuSerif-Bold-79" d="M 1997 -750 
Q 1847 -1116 1634 -1269 
Q 1422 -1422 1063 -1422 
Q 909 -1422 721 -1387 
Q 534 -1353 313 -1288 
L 313 -594 
L 666 -597 
Q 675 -838 779 -953 
Q 884 -1069 1094 -1069 
Q 1297 -1069 1422 -958 
Q 1547 -847 1672 -538 
L 1722 -422 
L 275 2944 
L -84 2944 
L -84 3322 
L 1831 3322 
L 1831 2944 
L 1434 2944 
L 2278 978 
L 3066 2944 
L 2625 2944 
L 2625 3322 
L 3872 3322 
L 3872 2944 
L 3469 2944 
L 1997 -750 
z
" transform="scale(0.015625)"/>
     </defs>
     <use xlink:href="#DejaVuSerif-Bold-43"/>
     <use xlink:href="#DejaVuSerif-Bold-2d" transform="translate(79.589844 0)"/>
     <use xlink:href="#DejaVuSerif-Bold-31" transform="translate(121.09375 0)"/>
     <use xlink:href="#DejaVuSerif-Bold-34" transform="translate(190.673828 0)"/>
     <use xlink:href="#DejaVuSerif-Bold-20" transform="translate(260.253906 0)"/>
     <use xlink:href="#DejaVuSerif-Bold-44" transform="translate(295.068359 0)"/>
     <use xlink:href="#DejaVuSerif-Bold-65" transform="translate(381.787109 0)"/>
     <use xlink:href="#DejaVuSerif-Bold-63" transform="translate(445.410156 0)"/>
     <use xlink:href="#DejaVuSerif-Bold-61" transform="translate(506.298828 0)"/>
     <use xlink:href="#DejaVuSerif-Bold-79" transform="translate(571.09375 0)"/>
    </g>
   </g>
  </g>
 </g>
 <defs>
  <clipPath id="p4547ec0f7c">
   <rect x="29.91375" y="25.158281" width="243.66" height="220.5"/>
  </clipPath>
  <clipPath id="p83f8da3909">
   <rect x="340.29375" y="25.158281" width="243.66" height="220.5"/>
  </clipPath>
  <clipPath id="p39a1818b0a">
   <rect x="650.67375" y="25.158281" width="243.66" height="220.5"/>
  </clipPath>
 </defs>
</svg>
