<?xml version="1.0" encoding="utf-8" standalone="no"?>
<!DOCTYPE svg PUBLIC "-//W3C//DTD SVG 1.1//EN"
  "http://www.w3.org/Graphics/SVG/1.1/DTD/svg11.dtd">
<svg xmlns:xlink="http://www.w3.org/1999/xlink" width="481.358155pt" height="305.76975pt" viewBox="0 0 481.358155 305.76975" xmlns="http://www.w3.org/2000/svg" version="1.1">
 <metadata>
  <rdf:RDF xmlns:dc="http://purl.org/dc/elements/1.1/" xmlns:cc="http://creativecommons.org/ns#" xmlns:rdf="http://www.w3.org/1999/02/22-rdf-syntax-ns#">
   <cc:Work>
    <dc:type rdf:resource="http://purl.org/dc/dcmitype/StillImage"/>
    <dc:date>2026-02-19T08:27:09.510910</dc:date>
    <dc:format>image/svg+xml</dc:format>
    <dc:creator>
     <cc:Agent>
      <dc:title>Matplotlib v3.10.1, https://matplotlib.org/</dc:title>
     </cc:Agent>
    </dc:creator>
   </cc:Work>
  </rdf:RDF>
 </metadata>
 <defs>
  <style type="text/css">*{stroke-linejoin: round; stroke-linecap: butt}</style>
 </defs>
 <g id="figure_1">
  <g id="patch_1">
   <path d="M 0 305.76975 
L 481.358155 305.76975 
L 481.358155 0 
L 0 0 
z
" style="fill: #ffffff"/>
  </g>
  <g id="axes_1">
   <g id="patch_2">
    <path d="M 30.084375 275.856 
L 470.558155 275.856 
L 470.558155 10.8 
L 30.084375 10.8 
z
" style="fill: #ffffff"/>
   </g>
   <g id="matplotlib.axis_1">
    <g id="xtick_1">
     <g id="line2d_1">
      <path d="M 50.10591 275.856 
L 50.10591 10.8 
" clip-path="url(#p6297ff4d5a)" style="fill: none; stroke: #cccccc; stroke-width: 0.8; stroke-linecap: round"/>
     </g>
     <g id="line2d_2"/>
    </g>
    <g id="xtick_2">
     <g id="line2d_3">
      <path d="M 116.844362 275.856 
L 116.844362 10.8 
" clip-path="url(#p6297ff4d5a)" style="fill: none; stroke: #cccccc; stroke-width: 0.8; stroke-linecap: round"/>
     </g>
     <g id="line2d_4"/>
    </g>
    <g id="xtick_3">
     <g id="line2d_5">
      <path d="M 183.582814 275.856 
L 183.582814 10.8 
" clip-path="url(#p6297ff4d5a)" style="fill: none; stroke: #cccccc; stroke-width: 0.8; stroke-linecap: round"/>
     </g>
     <g id="line2d_6"/>
    </g>
    <g id="xtick_4">
     <g id="line2d_7">
      <path d="M 250.321265 275.856 
L 250.321265 10.8 
" clip-path="url(#p6297ff4d5a)" style="fill: none; stroke: #cccccc; stroke-width: 0.8; stroke-linecap: round"/>
     </g>
     <g id="line2d_8"/>
    </g>
    <g id="xtick_5">
     <g id="line2d_9">
      <path d="M 317.059717 275.856 
L 317.059717 10.8 
" clip-path="url(#p6297ff4d5a)" style="fill: none; stroke: #cccccc; stroke-width: 0.8; stroke-linecap: round"/>
     </g>
     <g id="line2d_10"/>
    </g>
    <g id="xtick_6">
     <g id="line2d_11">
      <path d="M 383.798168 275.856 
L 383.798168 10.8 
" clip-path="url(#p6297ff4d5a)" style="fill: none; stroke: #cccccc; stroke-width: 0.8; stroke-linecap: round"/>
     </g>
     <g id="line2d_12"/>
    </g>
    <g id="xtick_7">
     <g id="line2d_13">
      <path d="M 450.53662 275.856 
L 450.53662 10.8 
" clip-path="url(#p6297ff4d5a)" style="fill: none; stroke: #cccccc; stroke-width: 0.8; stroke-linecap: round"/>
     </g>
     <g id="line2d_14"/>
    </g>
    <g id="text_1">
     <!-- Time (minutes) -->
     <g style="fill: #262626" transform="translate(204.191578 292.474125) scale(0.12 -0.12)">
      <defs>
       <path id="DejaVuSerif-54" d="M 1222 0 
L 1222 331 
L 1819 331 
L 1819 4294 
L 447 4294 
L 447 3566 
L 63 3566 
L 63 4666 
L 4206 4666 
L 4206 3566 
L 3822 3566 
L 3822 4294 
L 2450 4294 
L 2450 331 
L 3047 331 
L 3047 0 
L 1222 0 
z
" transform="scale(0.015625)"/>
       <path id="DejaVuSerif-69" d="M 622 4353 
Q 622 4497 726 4603 
Q 831 4709 978 4709 
Q 1122 4709 1226 4603 
Q 1331 4497 1331 4353 
Q 1331 4206 1228 4103 
Q 1125 4000 978 4000 
Q 831 4000 726 4103 
Q 622 4206 622 4353 
z
M 1356 331 
L 1900 331 
L 1900 0 
L 231 0 
L 231 331 
L 781 331 
L 781 2988 
L 231 2988 
L 231 3322 
L 1356 3322 
L 1356 331 
z
" transform="scale(0.015625)"/>
       <path id="DejaVuSerif-6d" d="M 3316 2675 
Q 3481 3041 3739 3227 
Q 3997 3413 4341 3413 
Q 4863 3413 5119 3089 
Q 5375 2766 5375 2113 
L 5375 331 
L 5894 331 
L 5894 0 
L 4300 0 
L 4300 331 
L 4800 331 
L 4800 2047 
Q 4800 2556 4650 2772 
Q 4500 2988 4153 2988 
Q 3769 2988 3567 2697 
Q 3366 2406 3366 1850 
L 3366 331 
L 3866 331 
L 3866 0 
L 2291 0 
L 2291 331 
L 2791 331 
L 2791 2069 
Q 2791 2566 2641 2777 
Q 2491 2988 2144 2988 
Q 1759 2988 1557 2697 
Q 1356 2406 1356 1850 
L 1356 331 
L 1856 331 
L 1856 0 
L 263 0 
L 263 331 
L 781 331 
L 781 2994 
L 231 2994 
L 231 3322 
L 1356 3322 
L 1356 2731 
Q 1516 3063 1762 3238 
Q 2009 3413 2322 3413 
Q 2709 3413 2968 3220 
Q 3228 3028 3316 2675 
z
" transform="scale(0.015625)"/>
       <path id="DejaVuSerif-65" d="M 3469 1600 
L 991 1600 
L 991 1575 
Q 991 903 1244 561 
Q 1497 219 1991 219 
Q 2369 219 2611 417 
Q 2853 616 2950 1006 
L 3413 1006 
Q 3275 459 2904 184 
Q 2534 -91 1931 -91 
Q 1203 -91 761 389 
Q 319 869 319 1663 
Q 319 2450 753 2931 
Q 1188 3413 1894 3413 
Q 2647 3413 3050 2948 
Q 3453 2484 3469 1600 
z
M 2791 1931 
Q 2772 2513 2545 2808 
Q 2319 3103 1894 3103 
Q 1497 3103 1269 2806 
Q 1041 2509 991 1931 
L 2791 1931 
z
" transform="scale(0.015625)"/>
       <path id="DejaVuSerif-20" transform="scale(0.015625)"/>
       <path id="DejaVuSerif-28" d="M 2041 -997 
Q 1281 -656 893 83 
Q 506 822 506 1931 
Q 506 3044 893 3783 
Q 1281 4522 2041 4863 
L 2041 4556 
Q 1559 4225 1350 3623 
Q 1141 3022 1141 1931 
Q 1141 844 1350 242 
Q 1559 -359 2041 -691 
L 2041 -997 
z
" transform="scale(0.015625)"/>
       <path id="DejaVuSerif-6e" d="M 263 0 
L 263 331 
L 781 331 
L 781 2988 
L 231 2988 
L 231 3322 
L 1356 3322 
L 1356 2731 
Q 1516 3069 1770 3241 
Q 2025 3413 2363 3413 
Q 2913 3413 3172 3097 
Q 3431 2781 3431 2113 
L 3431 331 
L 3944 331 
L 3944 0 
L 2356 0 
L 2356 331 
L 2853 331 
L 2853 1931 
Q 2853 2541 2703 2767 
Q 2553 2994 2175 2994 
Q 1775 2994 1565 2701 
Q 1356 2409 1356 1850 
L 1356 331 
L 1856 331 
L 1856 0 
L 263 0 
z
" transform="scale(0.015625)"/>
       <path id="DejaVuSerif-75" d="M 2266 3322 
L 3341 3322 
L 3341 331 
L 3884 331 
L 3884 0 
L 2766 0 
L 2766 588 
Q 2606 256 2353 82 
Q 2100 -91 1766 -91 
Q 1213 -91 952 223 
Q 691 538 691 1209 
L 691 2988 
L 172 2988 
L 172 3322 
L 1269 3322 
L 1269 1388 
Q 1269 781 1417 556 
Q 1566 331 1947 331 
Q 2347 331 2556 625 
Q 2766 919 2766 1478 
L 2766 2988 
L 2266 2988 
L 2266 3322 
z
" transform="scale(0.015625)"/>
       <path id="DejaVuSerif-74" d="M 691 2988 
L 184 2988 
L 184 3322 
L 691 3322 
L 691 4353 
L 1269 4353 
L 1269 3322 
L 2350 3322 
L 2350 2988 
L 1269 2988 
L 1269 878 
Q 1269 456 1350 337 
Q 1431 219 1650 219 
Q 1875 219 1978 351 
Q 2081 484 2088 781 
L 2522 781 
Q 2497 328 2275 118 
Q 2053 -91 1600 -91 
Q 1103 -91 897 129 
Q 691 350 691 878 
L 691 2988 
z
" transform="scale(0.015625)"/>
       <path id="DejaVuSerif-73" d="M 359 184 
L 359 959 
L 691 959 
Q 703 588 923 403 
Q 1144 219 1575 219 
Q 1963 219 2166 364 
Q 2369 509 2369 788 
Q 2369 1006 2220 1140 
Q 2072 1275 1594 1428 
L 1178 1569 
Q 750 1706 558 1912 
Q 366 2119 366 2438 
Q 366 2894 700 3153 
Q 1034 3413 1625 3413 
Q 1888 3413 2178 3344 
Q 2469 3275 2778 3144 
L 2778 2419 
L 2447 2419 
Q 2434 2741 2221 2922 
Q 2009 3103 1644 3103 
Q 1281 3103 1095 2975 
Q 909 2847 909 2591 
Q 909 2381 1050 2254 
Q 1191 2128 1613 1997 
L 2069 1856 
Q 2541 1709 2748 1489 
Q 2956 1269 2956 922 
Q 2956 450 2595 179 
Q 2234 -91 1600 -91 
Q 1278 -91 972 -22 
Q 666 47 359 184 
z
" transform="scale(0.015625)"/>
       <path id="DejaVuSerif-29" d="M 453 -997 
L 453 -691 
Q 934 -359 1145 242 
Q 1356 844 1356 1931 
Q 1356 3022 1145 3623 
Q 934 4225 453 4556 
L 453 4863 
Q 1216 4522 1603 3783 
Q 1991 3044 1991 1931 
Q 1991 822 1603 83 
Q 1216 -656 453 -997 
z
" transform="scale(0.015625)"/>
      </defs>
      <use xlink:href="#DejaVuSerif-54"/>
      <use xlink:href="#DejaVuSerif-69" transform="translate(66.699219 0)"/>
      <use xlink:href="#DejaVuSerif-6d" transform="translate(98.681641 0)"/>
      <use xlink:href="#DejaVuSerif-65" transform="translate(193.505859 0)"/>
      <use xlink:href="#DejaVuSerif-20" transform="translate(252.685547 0)"/>
      <use xlink:href="#DejaVuSerif-28" transform="translate(284.472656 0)"/>
      <use xlink:href="#DejaVuSerif-6d" transform="translate(323.486328 0)"/>
      <use xlink:href="#DejaVuSerif-69" transform="translate(418.310547 0)"/>
      <use xlink:href="#DejaVuSerif-6e" transform="translate(450.292969 0)"/>
      <use xlink:href="#DejaVuSerif-75" transform="translate(514.697266 0)"/>
      <use xlink:href="#DejaVuSerif-74" transform="translate(579.101562 0)"/>
      <use xlink:href="#DejaVuSerif-65" transform="translate(619.287109 0)"/>
      <use xlink:href="#DejaVuSerif-73" transform="translate(678.466797 0)"/>
      <use xlink:href="#DejaVuSerif-29" transform="translate(729.785156 0)"/>
     </g>
    </g>
   </g>
   <g id="matplotlib.axis_2">
    <g id="ytick_1">
     <g id="line2d_15">
      <path d="M 30.084375 275.856 
L 470.558155 275.856 
" clip-path="url(#p6297ff4d5a)" style="fill: none; stroke: #cccccc; stroke-width: 0.8; stroke-linecap: round"/>
     </g>
     <g id="line2d_16"/>
    </g>
    <g id="ytick_2">
     <g id="line2d_17">
      <path d="M 30.084375 231.68 
L 470.558155 231.68 
" clip-path="url(#p6297ff4d5a)" style="fill: none; stroke: #cccccc; stroke-width: 0.8; stroke-linecap: round"/>
     </g>
     <g id="line2d_18"/>
    </g>
    <g id="ytick_3">
     <g id="line2d_19">
      <path d="M 30.084375 187.504 
L 470.558155 187.504 
" clip-path="url(#p6297ff4d5a)" style="fill: none; stroke: #cccccc; stroke-width: 0.8; stroke-linecap: round"/>
     </g>
     <g id="line2d_20"/>
    </g>
    <g id="ytick_4">
     <g id="line2d_21">
      <path d="M 30.084375 143.328 
L 470.558155 143.328 
" clip-path="url(#p6297ff4d5a)" style="fill: none; stroke: #cccccc; stroke-width: 0.8; stroke-linecap: round"/>
     </g>
     <g id="line2d_22"/>
    </g>
    <g id="ytick_5">
     <g id="line2d_23">
      <path d="M 30.084375 99.152 
L 470.558155 99.152 
" clip-path="url(#p6297ff4d5a)" style="fill: none; stroke: #cccccc; stroke-width: 0.8; stroke-linecap: round"/>
     </g>
     <g id="line2d_24"/>
    </g>
    <g id="ytick_6">
     <g id="line2d_25">
      <path d="M 30.084375 54.976 
L 470.558155 54.976 
" clip-path="url(#p6297ff4d5a)" style="fill: none; stroke: #cccccc; stroke-width: 0.8; stroke-linecap: round"/>
     </g>
     <g id="line2d_26"/>
    </g>
    <g id="ytick_7">
     <g id="line2d_27">
      <path d="M 30.084375 10.8 
L 470.558155 10.8 
" clip-path="url(#p6297ff4d5a)" style="fill: none; stroke: #cccccc; stroke-width: 0.8; stroke-linecap: round"/>
     </g>
     <g id="line2d_28"/>
    </g>
    <g id="ytick_8">
     <g id="line2d_29"/>
    </g>
    <g id="ytick_9">
     <g id="line2d_30"/>
    </g>
    <g id="ytick_10">
     <g id="line2d_31"/>
    </g>
    <g id="ytick_11">
     <g id="line2d_32"/>
    </g>
    <g id="ytick_12">
     <g id="line2d_33"/>
    </g>
    <g id="ytick_13">
     <g id="line2d_34"/>
    </g>
    <g id="ytick_14">
     <g id="line2d_35"/>
    </g>
    <g id="ytick_15">
     <g id="line2d_36"/>
    </g>
    <g id="ytick_16">
     <g id="line2d_37"/>
    </g>
    <g id="ytick_17">
     <g id="line2d_38"/>
    </g>
    <g id="ytick_18">
     <g id="line2d_39"/>
    </g>
    <g id="ytick_19">
     <g id="line2d_40"/>
    </g>
    <g id="ytick_20">
     <g id="line2d_41"/>
    </g>
    <g id="ytick_21">
     <g id="line2d_42"/>
    </g>
    <g id="ytick_22">
     <g id="line2d_43"/>
    </g>
    <g id="ytick_23">
     <g id="line2d_44"/>
    </g>
    <g id="ytick_24">
     <g id="line2d_45"/>
    </g>
    <g id="ytick_25">
     <g id="line2d_46"/>
    </g>
    <g id="ytick_26">
     <g id="line2d_47"/>
    </g>
    <g id="ytick_27">
     <g id="line2d_48"/>
    </g>
    <g id="ytick_28">
     <g id="line2d_49"/>
    </g>
    <g id="ytick_29">
     <g id="line2d_50"/>
    </g>
    <g id="ytick_30">
     <g id="line2d_51"/>
    </g>
    <g id="ytick_31">
     <g id="line2d_52"/>
    </g>
    <g id="ytick_32">
     <g id="line2d_53"/>
    </g>
    <g id="ytick_33">
     <g id="line2d_54"/>
    </g>
    <g id="ytick_34">
     <g id="line2d_55"/>
    </g>
    <g id="ytick_35">
     <g id="line2d_56"/>
    </g>
    <g id="ytick_36">
     <g id="line2d_57"/>
    </g>
    <g id="ytick_37">
     <g id="line2d_58"/>
    </g>
    <g id="ytick_38">
     <g id="line2d_59"/>
    </g>
    <g id="ytick_39">
     <g id="line2d_60"/>
    </g>
    <g id="ytick_40">
     <g id="line2d_61"/>
    </g>
    <g id="ytick_41">
     <g id="line2d_62"/>
    </g>
    <g id="ytick_42">
     <g id="line2d_63"/>
    </g>
    <g id="ytick_43">
     <g id="line2d_64"/>
    </g>
    <g id="ytick_44">
     <g id="line2d_65"/>
    </g>
    <g id="ytick_45">
     <g id="line2d_66"/>
    </g>
    <g id="ytick_46">
     <g id="line2d_67"/>
    </g>
    <g id="ytick_47">
     <g id="line2d_68"/>
    </g>
    <g id="ytick_48">
     <g id="line2d_69"/>
    </g>
    <g id="ytick_49">
     <g id="line2d_70"/>
    </g>
    <g id="ytick_50">
     <g id="line2d_71"/>
    </g>
    <g id="ytick_51">
     <g id="line2d_72"/>
    </g>
    <g id="ytick_52">
     <g id="line2d_73"/>
    </g>
    <g id="ytick_53">
     <g id="line2d_74"/>
    </g>
    <g id="ytick_54">
     <g id="line2d_75"/>
    </g>
    <g id="ytick_55">
     <g id="line2d_76"/>
    </g>
    <g id="text_2">
     <!-- MRSA cell count (log scale) -->
     <g style="fill: #262626" transform="translate(19.918125 227.462063) rotate(-90) scale(0.12 -0.12)">
      <defs>
       <path id="DejaVuSerif-4d" d="M 353 0 
L 353 331 
L 947 331 
L 947 4331 
L 319 4331 
L 319 4666 
L 1678 4666 
L 3316 1344 
L 4953 4666 
L 6228 4666 
L 6228 4331 
L 5606 4331 
L 5606 331 
L 6203 331 
L 6203 0 
L 4378 0 
L 4378 331 
L 4972 331 
L 4972 3938 
L 3372 684 
L 2931 684 
L 1331 3938 
L 1331 331 
L 1925 331 
L 1925 0 
L 353 0 
z
" transform="scale(0.015625)"/>
       <path id="DejaVuSerif-52" d="M 3066 2316 
Q 3284 2256 3442 2114 
Q 3600 1972 3725 1716 
L 4403 331 
L 4972 331 
L 4972 0 
L 3872 0 
L 3144 1484 
Q 2934 1916 2759 2042 
Q 2584 2169 2278 2169 
L 1581 2169 
L 1581 331 
L 2241 331 
L 2241 0 
L 353 0 
L 353 331 
L 947 331 
L 947 4331 
L 353 4331 
L 353 4666 
L 2719 4666 
Q 3400 4666 3770 4341 
Q 4141 4016 4141 3419 
Q 4141 2938 3870 2661 
Q 3600 2384 3066 2316 
z
M 1581 2503 
L 2503 2503 
Q 2975 2503 3200 2726 
Q 3425 2950 3425 3419 
Q 3425 3888 3200 4109 
Q 2975 4331 2503 4331 
L 1581 4331 
L 1581 2503 
z
" transform="scale(0.015625)"/>
       <path id="DejaVuSerif-53" d="M 594 225 
L 594 1288 
L 953 1284 
Q 969 753 1261 498 
Q 1553 244 2150 244 
Q 2706 244 2998 464 
Q 3291 684 3291 1106 
Q 3291 1444 3114 1625 
Q 2938 1806 2369 1978 
L 1753 2163 
Q 1084 2366 811 2669 
Q 538 2972 538 3500 
Q 538 4094 959 4422 
Q 1381 4750 2144 4750 
Q 2469 4750 2856 4679 
Q 3244 4609 3681 4475 
L 3681 3481 
L 3328 3481 
Q 3275 3975 2998 4195 
Q 2722 4416 2156 4416 
Q 1663 4416 1405 4214 
Q 1147 4013 1147 3628 
Q 1147 3294 1340 3103 
Q 1534 2913 2163 2725 
L 2741 2553 
Q 3375 2363 3645 2067 
Q 3916 1772 3916 1275 
Q 3916 597 3481 253 
Q 3047 -91 2188 -91 
Q 1803 -91 1404 -12 
Q 1006 66 594 225 
z
" transform="scale(0.015625)"/>
       <path id="DejaVuSerif-41" d="M 1281 1691 
L 2994 1691 
L 2138 3909 
L 1281 1691 
z
M -38 0 
L -38 331 
L 372 331 
L 2034 4666 
L 2559 4666 
L 4225 331 
L 4684 331 
L 4684 0 
L 2988 0 
L 2988 331 
L 3506 331 
L 3116 1356 
L 1153 1356 
L 763 331 
L 1275 331 
L 1275 0 
L -38 0 
z
" transform="scale(0.015625)"/>
       <path id="DejaVuSerif-63" d="M 3291 997 
Q 3169 466 2822 187 
Q 2475 -91 1925 -91 
Q 1200 -91 759 389 
Q 319 869 319 1663 
Q 319 2459 759 2936 
Q 1200 3413 1925 3413 
Q 2241 3413 2553 3339 
Q 2866 3266 3181 3116 
L 3181 2266 
L 2847 2266 
Q 2781 2703 2561 2903 
Q 2341 3103 1931 3103 
Q 1466 3103 1228 2742 
Q 991 2381 991 1663 
Q 991 944 1227 581 
Q 1463 219 1931 219 
Q 2303 219 2525 412 
Q 2747 606 2828 997 
L 3291 997 
z
" transform="scale(0.015625)"/>
       <path id="DejaVuSerif-6c" d="M 1313 331 
L 1856 331 
L 1856 0 
L 184 0 
L 184 331 
L 738 331 
L 738 4531 
L 184 4531 
L 184 4863 
L 1313 4863 
L 1313 331 
z
" transform="scale(0.015625)"/>
       <path id="DejaVuSerif-6f" d="M 1925 219 
Q 2388 219 2623 584 
Q 2859 950 2859 1663 
Q 2859 2375 2623 2739 
Q 2388 3103 1925 3103 
Q 1463 3103 1227 2739 
Q 991 2375 991 1663 
Q 991 950 1228 584 
Q 1466 219 1925 219 
z
M 1925 -91 
Q 1200 -91 759 389 
Q 319 869 319 1663 
Q 319 2456 758 2934 
Q 1197 3413 1925 3413 
Q 2653 3413 3092 2934 
Q 3531 2456 3531 1663 
Q 3531 869 3092 389 
Q 2653 -91 1925 -91 
z
" transform="scale(0.015625)"/>
       <path id="DejaVuSerif-67" d="M 3359 2988 
L 3359 72 
Q 3359 -644 2965 -1033 
Q 2572 -1422 1844 -1422 
Q 1516 -1422 1216 -1362 
Q 916 -1303 641 -1184 
L 641 -488 
L 941 -488 
Q 997 -813 1206 -963 
Q 1416 -1113 1806 -1113 
Q 2313 -1113 2548 -827 
Q 2784 -541 2784 72 
L 2784 519 
Q 2616 206 2355 57 
Q 2094 -91 1709 -91 
Q 1097 -91 708 395 
Q 319 881 319 1663 
Q 319 2444 706 2928 
Q 1094 3413 1709 3413 
Q 2094 3413 2355 3264 
Q 2616 3116 2784 2803 
L 2784 3322 
L 3909 3322 
L 3909 2988 
L 3359 2988 
z
M 2784 1825 
Q 2784 2422 2554 2737 
Q 2325 3053 1888 3053 
Q 1444 3053 1217 2703 
Q 991 2353 991 1663 
Q 991 975 1217 622 
Q 1444 269 1888 269 
Q 2325 269 2554 583 
Q 2784 897 2784 1497 
L 2784 1825 
z
" transform="scale(0.015625)"/>
       <path id="DejaVuSerif-61" d="M 2547 1044 
L 2547 1747 
L 1806 1747 
Q 1378 1747 1168 1562 
Q 959 1378 959 997 
Q 959 650 1171 447 
Q 1384 244 1747 244 
Q 2106 244 2326 466 
Q 2547 688 2547 1044 
z
M 3122 2075 
L 3122 331 
L 3634 331 
L 3634 0 
L 2547 0 
L 2547 359 
Q 2356 128 2106 18 
Q 1856 -91 1522 -91 
Q 969 -91 644 203 
Q 319 497 319 997 
Q 319 1513 691 1797 
Q 1063 2081 1741 2081 
L 2547 2081 
L 2547 2309 
Q 2547 2688 2317 2895 
Q 2088 3103 1672 3103 
Q 1328 3103 1125 2947 
Q 922 2791 872 2484 
L 575 2484 
L 575 3156 
Q 875 3284 1158 3348 
Q 1441 3413 1709 3413 
Q 2400 3413 2761 3070 
Q 3122 2728 3122 2075 
z
" transform="scale(0.015625)"/>
      </defs>
      <use xlink:href="#DejaVuSerif-4d"/>
      <use xlink:href="#DejaVuSerif-52" transform="translate(102.392578 0)"/>
      <use xlink:href="#DejaVuSerif-53" transform="translate(177.685547 0)"/>
      <use xlink:href="#DejaVuSerif-41" transform="translate(246.191406 0)"/>
      <use xlink:href="#DejaVuSerif-20" transform="translate(318.408203 0)"/>
      <use xlink:href="#DejaVuSerif-63" transform="translate(350.195312 0)"/>
      <use xlink:href="#DejaVuSerif-65" transform="translate(406.201172 0)"/>
      <use xlink:href="#DejaVuSerif-6c" transform="translate(465.380859 0)"/>
      <use xlink:href="#DejaVuSerif-6c" transform="translate(497.363281 0)"/>
      <use xlink:href="#DejaVuSerif-20" transform="translate(529.345703 0)"/>
      <use xlink:href="#DejaVuSerif-63" transform="translate(561.132812 0)"/>
      <use xlink:href="#DejaVuSerif-6f" transform="translate(617.138672 0)"/>
      <use xlink:href="#DejaVuSerif-75" transform="translate(677.34375 0)"/>
      <use xlink:href="#DejaVuSerif-6e" transform="translate(741.748047 0)"/>
      <use xlink:href="#DejaVuSerif-74" transform="translate(806.152344 0)"/>
      <use xlink:href="#DejaVuSerif-20" transform="translate(846.337891 0)"/>
      <use xlink:href="#DejaVuSerif-28" transform="translate(878.125 0)"/>
      <use xlink:href="#DejaVuSerif-6c" transform="translate(917.138672 0)"/>
      <use xlink:href="#DejaVuSerif-6f" transform="translate(949.121094 0)"/>
      <use xlink:href="#DejaVuSerif-67" transform="translate(1009.326172 0)"/>
      <use xlink:href="#DejaVuSerif-20" transform="translate(1073.339844 0)"/>
      <use xlink:href="#DejaVuSerif-73" transform="translate(1105.126953 0)"/>
      <use xlink:href="#DejaVuSerif-63" transform="translate(1156.445312 0)"/>
      <use xlink:href="#DejaVuSerif-61" transform="translate(1212.451172 0)"/>
      <use xlink:href="#DejaVuSerif-6c" transform="translate(1272.070312 0)"/>
      <use xlink:href="#DejaVuSerif-65" transform="translate(1304.052734 0)"/>
      <use xlink:href="#DejaVuSerif-29" transform="translate(1363.232422 0)"/>
     </g>
    </g>
   </g>
   <g id="FillBetweenPolyCollection_1">
    <defs>
     <path id="maf8b1279a1" d="M 50.10591 -294.96975 
L 50.10591 -206.61775 
L 50.908377 -206.61775 
L 51.710843 -206.61775 
L 52.51331 -206.61775 
L 53.315776 -206.61775 
L 54.118242 -206.61775 
L 54.920709 -206.61775 
L 55.723175 -206.61775 
L 56.525641 -206.61775 
L 57.328108 -206.61775 
L 58.130574 -206.61775 
L 58.93304 -206.61775 
L 59.735507 -206.61775 
L 60.537973 -206.61775 
L 61.340439 -206.61775 
L 62.142906 -206.61775 
L 62.945372 -206.61775 
L 63.747838 -206.61775 
L 64.550305 -206.61775 
L 65.352771 -206.61775 
L 66.155237 -206.61775 
L 66.957704 -206.61775 
L 67.76017 -206.61775 
L 68.562637 -206.61775 
L 69.365103 -206.61775 
L 70.167569 -206.61775 
L 70.970036 -206.61775 
L 71.772502 -206.61775 
L 72.574968 -206.61775 
L 73.377435 -206.61775 
L 74.179901 -206.61775 
L 74.982367 -206.61775 
L 75.784834 -206.61775 
L 76.5873 -206.61775 
L 77.389766 -206.61775 
L 78.192233 -206.61775 
L 78.994699 -206.61775 
L 79.797165 -206.61775 
L 80.599632 -206.61775 
L 81.402098 -206.61775 
L 82.204564 -206.61775 
L 83.007031 -206.61775 
L 83.809497 -206.61775 
L 84.611964 -206.61775 
L 85.41443 -206.61775 
L 86.216896 -206.61775 
L 87.019363 -206.61775 
L 87.821829 -206.61775 
L 88.624295 -206.61775 
L 89.426762 -206.61775 
L 90.229228 -206.61775 
L 91.031694 -206.61775 
L 91.834161 -206.61775 
L 92.636627 -206.61775 
L 93.439093 -206.61775 
L 94.24156 -206.61775 
L 95.044026 -206.61775 
L 95.846492 -206.61775 
L 96.648959 -206.61775 
L 97.451425 -206.61775 
L 98.253892 -206.61775 
L 99.056358 -206.61775 
L 99.858824 -206.61775 
L 100.661291 -206.61775 
L 101.463757 -206.61775 
L 102.266223 -206.61775 
L 103.06869 -206.61775 
L 103.871156 -206.61775 
L 104.673622 -206.61775 
L 105.476089 -206.61775 
L 106.278555 -206.61775 
L 107.081021 -206.61775 
L 107.883488 -206.61775 
L 108.685954 -206.61775 
L 109.48842 -206.61775 
L 110.290887 -206.61775 
L 111.093353 -206.61775 
L 111.895819 -206.61775 
L 112.698286 -206.61775 
L 113.500752 -206.61775 
L 114.303219 -206.61775 
L 115.105685 -206.61775 
L 115.908151 -206.61775 
L 116.710618 -206.61775 
L 117.513084 -206.61775 
L 118.31555 -206.61775 
L 119.118017 -206.61775 
L 119.920483 -206.61775 
L 120.722949 -206.61775 
L 121.525416 -206.61775 
L 122.327882 -206.61775 
L 123.130348 -206.61775 
L 123.932815 -206.61775 
L 124.735281 -206.61775 
L 125.537747 -206.61775 
L 126.340214 -206.61775 
L 127.14268 -206.61775 
L 127.945147 -206.61775 
L 128.747613 -206.61775 
L 129.550079 -206.61775 
L 130.352546 -206.61775 
L 131.155012 -206.61775 
L 131.957478 -206.61775 
L 132.759945 -206.61775 
L 133.562411 -206.61775 
L 134.364877 -206.61775 
L 135.167344 -206.61775 
L 135.96981 -206.61775 
L 136.772276 -206.61775 
L 137.574743 -206.61775 
L 138.377209 -206.61775 
L 139.179675 -206.61775 
L 139.982142 -206.61775 
L 140.784608 -206.61775 
L 141.587074 -206.61775 
L 142.389541 -206.61775 
L 143.192007 -206.61775 
L 143.994474 -206.61775 
L 144.79694 -206.61775 
L 145.599406 -206.61775 
L 146.401873 -206.61775 
L 147.204339 -206.61775 
L 148.006805 -206.61775 
L 148.809272 -206.61775 
L 149.611738 -206.61775 
L 150.414204 -206.61775 
L 151.216671 -206.61775 
L 152.019137 -206.61775 
L 152.821603 -206.61775 
L 153.62407 -206.61775 
L 154.426536 -206.61775 
L 155.229002 -206.61775 
L 156.031469 -206.61775 
L 156.833935 -206.61775 
L 157.636401 -206.61775 
L 158.438868 -206.61775 
L 159.241334 -206.61775 
L 160.043801 -206.61775 
L 160.846267 -206.61775 
L 161.648733 -206.61775 
L 162.4512 -206.61775 
L 163.253666 -206.61775 
L 164.056132 -206.61775 
L 164.858599 -206.61775 
L 165.661065 -206.61775 
L 166.463531 -206.61775 
L 167.265998 -206.61775 
L 168.068464 -206.61775 
L 168.87093 -206.61775 
L 169.673397 -206.61775 
L 170.475863 -206.61775 
L 171.278329 -206.61775 
L 172.080796 -206.61775 
L 172.883262 -206.61775 
L 173.685729 -206.61775 
L 174.488195 -206.61775 
L 175.290661 -206.61775 
L 176.093128 -206.61775 
L 176.895594 -206.61775 
L 177.69806 -206.61775 
L 178.500527 -206.61775 
L 179.302993 -206.61775 
L 180.105459 -206.61775 
L 180.907926 -206.61775 
L 181.710392 -206.61775 
L 182.512858 -206.61775 
L 183.315325 -206.61775 
L 184.117791 -206.61775 
L 184.920257 -206.61775 
L 185.722724 -206.61775 
L 186.52519 -206.61775 
L 187.327656 -206.61775 
L 188.130123 -206.61775 
L 188.932589 -206.61775 
L 189.735056 -206.61775 
L 190.537522 -206.61775 
L 191.339988 -206.61775 
L 192.142455 -206.61775 
L 192.944921 -206.61775 
L 193.747387 -206.61775 
L 194.549854 -206.61775 
L 195.35232 -206.61775 
L 196.154786 -206.61775 
L 196.957253 -206.61775 
L 197.759719 -206.61775 
L 198.562185 -206.61775 
L 199.364652 -206.61775 
L 200.167118 -206.61775 
L 200.969584 -206.61775 
L 201.772051 -206.61775 
L 202.574517 -206.61775 
L 203.376984 -206.61775 
L 204.17945 -206.61775 
L 204.981916 -206.61775 
L 205.784383 -206.61775 
L 206.586849 -206.61775 
L 207.389315 -206.61775 
L 208.191782 -206.61775 
L 208.994248 -206.61775 
L 209.796714 -206.61775 
L 210.599181 -206.61775 
L 211.401647 -206.61775 
L 212.204113 -206.61775 
L 213.00658 -206.61775 
L 213.809046 -206.61775 
L 214.611512 -206.61775 
L 215.413979 -206.61775 
L 216.216445 -206.61775 
L 217.018911 -206.61775 
L 217.821378 -206.61775 
L 218.623844 -206.61775 
L 219.426311 -206.61775 
L 220.228777 -206.61775 
L 221.031243 -206.61775 
L 221.83371 -206.61775 
L 222.636176 -206.61775 
L 223.438642 -206.61775 
L 224.241109 -206.61775 
L 225.043575 -206.61775 
L 225.846041 -206.61775 
L 226.648508 -206.61775 
L 227.450974 -206.61775 
L 228.25344 -206.61775 
L 229.055907 -206.61775 
L 229.858373 -206.61775 
L 230.660839 -206.61775 
L 231.463306 -206.61775 
L 232.265772 -206.61775 
L 233.068238 -206.61775 
L 233.870705 -206.61775 
L 234.673171 -206.61775 
L 235.475638 -206.61775 
L 236.278104 -206.61775 
L 237.08057 -206.61775 
L 237.883037 -206.61775 
L 238.685503 -206.61775 
L 239.487969 -206.61775 
L 240.290436 -206.61775 
L 241.092902 -206.61775 
L 241.895368 -206.61775 
L 242.697835 -206.61775 
L 243.500301 -206.61775 
L 244.302767 -206.61775 
L 245.105234 -206.61775 
L 245.9077 -206.61775 
L 246.710166 -206.61775 
L 247.512633 -206.61775 
L 248.315099 -206.61775 
L 249.117566 -206.61775 
L 249.920032 -206.61775 
L 250.722498 -206.61775 
L 251.524965 -206.61775 
L 252.327431 -206.61775 
L 253.129897 -206.61775 
L 253.932364 -206.61775 
L 254.73483 -206.61775 
L 255.537296 -206.61775 
L 256.339763 -206.61775 
L 257.142229 -206.61775 
L 257.944695 -206.61775 
L 258.747162 -206.61775 
L 259.549628 -206.61775 
L 260.352094 -206.61775 
L 261.154561 -206.61775 
L 261.957027 -206.61775 
L 262.759493 -206.61775 
L 263.56196 -206.61775 
L 264.364426 -206.61775 
L 265.166893 -206.61775 
L 265.969359 -206.61775 
L 266.771825 -206.61775 
L 267.574292 -206.61775 
L 268.376758 -206.61775 
L 269.179224 -206.61775 
L 269.981691 -206.61775 
L 270.784157 -206.61775 
L 271.586623 -206.61775 
L 272.38909 -206.61775 
L 273.191556 -206.61775 
L 273.994022 -206.61775 
L 274.796489 -206.61775 
L 275.598955 -206.61775 
L 276.401421 -206.61775 
L 277.203888 -206.61775 
L 278.006354 -206.61775 
L 278.808821 -206.61775 
L 279.611287 -206.61775 
L 280.413753 -206.61775 
L 281.21622 -206.61775 
L 282.018686 -206.61775 
L 282.821152 -206.61775 
L 283.623619 -206.61775 
L 284.426085 -206.61775 
L 285.228551 -206.61775 
L 286.031018 -206.61775 
L 286.833484 -206.61775 
L 287.63595 -206.61775 
L 288.438417 -206.61775 
L 289.240883 -206.61775 
L 290.043349 -206.61775 
L 290.845816 -206.61775 
L 291.648282 -206.61775 
L 292.450748 -206.61775 
L 293.253215 -206.61775 
L 294.055681 -206.61775 
L 294.858148 -206.61775 
L 295.660614 -206.61775 
L 296.46308 -206.61775 
L 297.265547 -206.61775 
L 298.068013 -206.61775 
L 298.870479 -206.61775 
L 299.672946 -206.61775 
L 300.475412 -206.61775 
L 301.277878 -206.61775 
L 302.080345 -206.61775 
L 302.882811 -206.61775 
L 303.685277 -206.61775 
L 304.487744 -206.61775 
L 305.29021 -206.61775 
L 306.092676 -206.61775 
L 306.895143 -206.61775 
L 307.697609 -206.61775 
L 308.500075 -206.61775 
L 309.302542 -206.61775 
L 310.105008 -206.61775 
L 310.907475 -206.61775 
L 311.709941 -206.61775 
L 312.512407 -206.61775 
L 313.314874 -206.61775 
L 314.11734 -206.61775 
L 314.919806 -206.61775 
L 315.722273 -206.61775 
L 316.524739 -206.61775 
L 317.327205 -206.61775 
L 318.129672 -206.61775 
L 318.932138 -206.61775 
L 319.734604 -206.61775 
L 320.537071 -206.61775 
L 321.339537 -206.61775 
L 322.142003 -206.61775 
L 322.94447 -206.61775 
L 323.746936 -206.61775 
L 324.549403 -206.61775 
L 325.351869 -206.61775 
L 326.154335 -206.61775 
L 326.956802 -206.61775 
L 327.759268 -206.61775 
L 328.561734 -206.61775 
L 329.364201 -206.61775 
L 330.166667 -206.61775 
L 330.969133 -206.61775 
L 331.7716 -206.61775 
L 332.574066 -206.61775 
L 333.376532 -206.61775 
L 334.178999 -206.61775 
L 334.981465 -206.61775 
L 335.783931 -206.61775 
L 336.586398 -206.61775 
L 337.388864 -206.61775 
L 338.19133 -206.61775 
L 338.993797 -206.61775 
L 339.796263 -206.61775 
L 340.59873 -206.61775 
L 341.401196 -206.61775 
L 342.203662 -206.61775 
L 343.006129 -206.61775 
L 343.808595 -206.61775 
L 344.611061 -206.61775 
L 345.413528 -206.61775 
L 346.215994 -206.61775 
L 347.01846 -206.61775 
L 347.820927 -206.61775 
L 348.623393 -206.61775 
L 349.425859 -206.61775 
L 350.228326 -206.61775 
L 351.030792 -206.61775 
L 351.833258 -206.61775 
L 352.635725 -206.61775 
L 353.438191 -206.61775 
L 354.240657 -206.61775 
L 355.043124 -206.61775 
L 355.84559 -206.61775 
L 356.648057 -206.61775 
L 357.450523 -206.61775 
L 358.252989 -206.61775 
L 359.055456 -206.61775 
L 359.857922 -206.61775 
L 360.660388 -206.61775 
L 361.462855 -206.61775 
L 362.265321 -206.61775 
L 363.067787 -206.61775 
L 363.870254 -206.61775 
L 364.67272 -206.61775 
L 365.475186 -206.61775 
L 366.277653 -206.61775 
L 367.080119 -206.61775 
L 367.882585 -206.61775 
L 368.685052 -206.61775 
L 369.487518 -206.61775 
L 370.289985 -206.61775 
L 371.092451 -206.61775 
L 371.894917 -206.61775 
L 372.697384 -206.61775 
L 373.49985 -206.61775 
L 374.302316 -206.61775 
L 375.104783 -206.61775 
L 375.907249 -206.61775 
L 376.709715 -206.61775 
L 377.512182 -206.61775 
L 378.314648 -206.61775 
L 379.117114 -206.61775 
L 379.919581 -206.61775 
L 380.722047 -206.61775 
L 381.524513 -206.61775 
L 382.32698 -206.61775 
L 383.129446 -206.61775 
L 383.931912 -206.61775 
L 384.734379 -206.61775 
L 385.536845 -206.61775 
L 386.339312 -206.61775 
L 387.141778 -206.61775 
L 387.944244 -206.61775 
L 388.746711 -206.61775 
L 389.549177 -206.61775 
L 390.351643 -206.61775 
L 391.15411 -206.61775 
L 391.956576 -206.61775 
L 392.759042 -206.61775 
L 393.561509 -206.61775 
L 394.363975 -206.61775 
L 395.166441 -206.61775 
L 395.968908 -206.61775 
L 396.771374 -206.61775 
L 397.57384 -206.61775 
L 398.376307 -206.61775 
L 399.178773 -206.61775 
L 399.98124 -206.61775 
L 400.783706 -206.61775 
L 401.586172 -206.61775 
L 402.388639 -206.61775 
L 403.191105 -206.61775 
L 403.993571 -206.61775 
L 404.796038 -206.61775 
L 405.598504 -206.61775 
L 406.40097 -206.61775 
L 407.203437 -206.61775 
L 408.005903 -206.61775 
L 408.808369 -206.61775 
L 409.610836 -206.61775 
L 410.413302 -206.61775 
L 411.215768 -206.61775 
L 412.018235 -206.61775 
L 412.820701 -206.61775 
L 413.623167 -206.61775 
L 414.425634 -206.61775 
L 415.2281 -206.61775 
L 416.030567 -206.61775 
L 416.833033 -206.61775 
L 417.635499 -206.61775 
L 418.437966 -206.61775 
L 419.240432 -206.61775 
L 420.042898 -206.61775 
L 420.845365 -206.61775 
L 421.647831 -206.61775 
L 422.450297 -206.61775 
L 423.252764 -206.61775 
L 424.05523 -206.61775 
L 424.857696 -206.61775 
L 425.660163 -206.61775 
L 426.462629 -206.61775 
L 427.265095 -206.61775 
L 428.067562 -206.61775 
L 428.870028 -206.61775 
L 429.672494 -206.61775 
L 430.474961 -206.61775 
L 431.277427 -206.61775 
L 432.079894 -206.61775 
L 432.88236 -206.61775 
L 433.684826 -206.61775 
L 434.487293 -206.61775 
L 435.289759 -206.61775 
L 436.092225 -206.61775 
L 436.894692 -206.61775 
L 437.697158 -206.61775 
L 438.499624 -206.61775 
L 439.302091 -206.61775 
L 440.104557 -206.61775 
L 440.907023 -206.61775 
L 441.70949 -206.61775 
L 442.511956 -206.61775 
L 443.314422 -206.61775 
L 444.116889 -206.61775 
L 444.919355 -206.61775 
L 445.721822 -206.61775 
L 446.524288 -206.61775 
L 447.326754 -206.61775 
L 448.129221 -206.61775 
L 448.931687 -206.61775 
L 449.734153 -206.61775 
L 450.53662 -206.61775 
L 450.53662 -294.96975 
L 450.53662 -294.96975 
L 449.734153 -294.96975 
L 448.931687 -294.96975 
L 448.129221 -294.96975 
L 447.326754 -294.96975 
L 446.524288 -294.96975 
L 445.721822 -294.96975 
L 444.919355 -294.96975 
L 444.116889 -294.96975 
L 443.314422 -294.96975 
L 442.511956 -294.96975 
L 441.70949 -294.96975 
L 440.907023 -294.96975 
L 440.104557 -294.96975 
L 439.302091 -294.96975 
L 438.499624 -294.96975 
L 437.697158 -294.96975 
L 436.894692 -294.96975 
L 436.092225 -294.96975 
L 435.289759 -294.96975 
L 434.487293 -294.96975 
L 433.684826 -294.96975 
L 432.88236 -294.96975 
L 432.079894 -294.96975 
L 431.277427 -294.96975 
L 430.474961 -294.96975 
L 429.672494 -294.96975 
L 428.870028 -294.96975 
L 428.067562 -294.96975 
L 427.265095 -294.96975 
L 426.462629 -294.96975 
L 425.660163 -294.96975 
L 424.857696 -294.96975 
L 424.05523 -294.96975 
L 423.252764 -294.96975 
L 422.450297 -294.96975 
L 421.647831 -294.96975 
L 420.845365 -294.96975 
L 420.042898 -294.96975 
L 419.240432 -294.96975 
L 418.437966 -294.96975 
L 417.635499 -294.96975 
L 416.833033 -294.96975 
L 416.030567 -294.96975 
L 415.2281 -294.96975 
L 414.425634 -294.96975 
L 413.623167 -294.96975 
L 412.820701 -294.96975 
L 412.018235 -294.96975 
L 411.215768 -294.96975 
L 410.413302 -294.96975 
L 409.610836 -294.96975 
L 408.808369 -294.96975 
L 408.005903 -294.96975 
L 407.203437 -294.96975 
L 406.40097 -294.96975 
L 405.598504 -294.96975 
L 404.796038 -294.96975 
L 403.993571 -294.96975 
L 403.191105 -294.96975 
L 402.388639 -294.96975 
L 401.586172 -294.96975 
L 400.783706 -294.96975 
L 399.98124 -294.96975 
L 399.178773 -294.96975 
L 398.376307 -294.96975 
L 397.57384 -294.96975 
L 396.771374 -294.96975 
L 395.968908 -294.96975 
L 395.166441 -294.96975 
L 394.363975 -294.96975 
L 393.561509 -294.96975 
L 392.759042 -294.96975 
L 391.956576 -294.96975 
L 391.15411 -294.96975 
L 390.351643 -294.96975 
L 389.549177 -294.96975 
L 388.746711 -294.96975 
L 387.944244 -294.96975 
L 387.141778 -294.96975 
L 386.339312 -294.96975 
L 385.536845 -294.96975 
L 384.734379 -294.96975 
L 383.931912 -294.96975 
L 383.129446 -294.96975 
L 382.32698 -294.96975 
L 381.524513 -294.96975 
L 380.722047 -294.96975 
L 379.919581 -294.96975 
L 379.117114 -294.96975 
L 378.314648 -294.96975 
L 377.512182 -294.96975 
L 376.709715 -294.96975 
L 375.907249 -294.96975 
L 375.104783 -294.96975 
L 374.302316 -294.96975 
L 373.49985 -294.96975 
L 372.697384 -294.96975 
L 371.894917 -294.96975 
L 371.092451 -294.96975 
L 370.289985 -294.96975 
L 369.487518 -294.96975 
L 368.685052 -294.96975 
L 367.882585 -294.96975 
L 367.080119 -294.96975 
L 366.277653 -294.96975 
L 365.475186 -294.96975 
L 364.67272 -294.96975 
L 363.870254 -294.96975 
L 363.067787 -294.96975 
L 362.265321 -294.96975 
L 361.462855 -294.96975 
L 360.660388 -294.96975 
L 359.857922 -294.96975 
L 359.055456 -294.96975 
L 358.252989 -294.96975 
L 357.450523 -294.96975 
L 356.648057 -294.96975 
L 355.84559 -294.96975 
L 355.043124 -294.96975 
L 354.240657 -294.96975 
L 353.438191 -294.96975 
L 352.635725 -294.96975 
L 351.833258 -294.96975 
L 351.030792 -294.96975 
L 350.228326 -294.96975 
L 349.425859 -294.96975 
L 348.623393 -294.96975 
L 347.820927 -294.96975 
L 347.01846 -294.96975 
L 346.215994 -294.96975 
L 345.413528 -294.96975 
L 344.611061 -294.96975 
L 343.808595 -294.96975 
L 343.006129 -294.96975 
L 342.203662 -294.96975 
L 341.401196 -294.96975 
L 340.59873 -294.96975 
L 339.796263 -294.96975 
L 338.993797 -294.96975 
L 338.19133 -294.96975 
L 337.388864 -294.96975 
L 336.586398 -294.96975 
L 335.783931 -294.96975 
L 334.981465 -294.96975 
L 334.178999 -294.96975 
L 333.376532 -294.96975 
L 332.574066 -294.96975 
L 331.7716 -294.96975 
L 330.969133 -294.96975 
L 330.166667 -294.96975 
L 329.364201 -294.96975 
L 328.561734 -294.96975 
L 327.759268 -294.96975 
L 326.956802 -294.96975 
L 326.154335 -294.96975 
L 325.351869 -294.96975 
L 324.549403 -294.96975 
L 323.746936 -294.96975 
L 322.94447 -294.96975 
L 322.142003 -294.96975 
L 321.339537 -294.96975 
L 320.537071 -294.96975 
L 319.734604 -294.96975 
L 318.932138 -294.96975 
L 318.129672 -294.96975 
L 317.327205 -294.96975 
L 316.524739 -294.96975 
L 315.722273 -294.96975 
L 314.919806 -294.96975 
L 314.11734 -294.96975 
L 313.314874 -294.96975 
L 312.512407 -294.96975 
L 311.709941 -294.96975 
L 310.907475 -294.96975 
L 310.105008 -294.96975 
L 309.302542 -294.96975 
L 308.500075 -294.96975 
L 307.697609 -294.96975 
L 306.895143 -294.96975 
L 306.092676 -294.96975 
L 305.29021 -294.96975 
L 304.487744 -294.96975 
L 303.685277 -294.96975 
L 302.882811 -294.96975 
L 302.080345 -294.96975 
L 301.277878 -294.96975 
L 300.475412 -294.96975 
L 299.672946 -294.96975 
L 298.870479 -294.96975 
L 298.068013 -294.96975 
L 297.265547 -294.96975 
L 296.46308 -294.96975 
L 295.660614 -294.96975 
L 294.858148 -294.96975 
L 294.055681 -294.96975 
L 293.253215 -294.96975 
L 292.450748 -294.96975 
L 291.648282 -294.96975 
L 290.845816 -294.96975 
L 290.043349 -294.96975 
L 289.240883 -294.96975 
L 288.438417 -294.96975 
L 287.63595 -294.96975 
L 286.833484 -294.96975 
L 286.031018 -294.96975 
L 285.228551 -294.96975 
L 284.426085 -294.96975 
L 283.623619 -294.96975 
L 282.821152 -294.96975 
L 282.018686 -294.96975 
L 281.21622 -294.96975 
L 280.413753 -294.96975 
L 279.611287 -294.96975 
L 278.808821 -294.96975 
L 278.006354 -294.96975 
L 277.203888 -294.96975 
L 276.401421 -294.96975 
L 275.598955 -294.96975 
L 274.796489 -294.96975 
L 273.994022 -294.96975 
L 273.191556 -294.96975 
L 272.38909 -294.96975 
L 271.586623 -294.96975 
L 270.784157 -294.96975 
L 269.981691 -294.96975 
L 269.179224 -294.96975 
L 268.376758 -294.96975 
L 267.574292 -294.96975 
L 266.771825 -294.96975 
L 265.969359 -294.96975 
L 265.166893 -294.96975 
L 264.364426 -294.96975 
L 263.56196 -294.96975 
L 262.759493 -294.96975 
L 261.957027 -294.96975 
L 261.154561 -294.96975 
L 260.352094 -294.96975 
L 259.549628 -294.96975 
L 258.747162 -294.96975 
L 257.944695 -294.96975 
L 257.142229 -294.96975 
L 256.339763 -294.96975 
L 255.537296 -294.96975 
L 254.73483 -294.96975 
L 253.932364 -294.96975 
L 253.129897 -294.96975 
L 252.327431 -294.96975 
L 251.524965 -294.96975 
L 250.722498 -294.96975 
L 249.920032 -294.96975 
L 249.117566 -294.96975 
L 248.315099 -294.96975 
L 247.512633 -294.96975 
L 246.710166 -294.96975 
L 245.9077 -294.96975 
L 245.105234 -294.96975 
L 244.302767 -294.96975 
L 243.500301 -294.96975 
L 242.697835 -294.96975 
L 241.895368 -294.96975 
L 241.092902 -294.96975 
L 240.290436 -294.96975 
L 239.487969 -294.96975 
L 238.685503 -294.96975 
L 237.883037 -294.96975 
L 237.08057 -294.96975 
L 236.278104 -294.96975 
L 235.475638 -294.96975 
L 234.673171 -294.96975 
L 233.870705 -294.96975 
L 233.068238 -294.96975 
L 232.265772 -294.96975 
L 231.463306 -294.96975 
L 230.660839 -294.96975 
L 229.858373 -294.96975 
L 229.055907 -294.96975 
L 228.25344 -294.96975 
L 227.450974 -294.96975 
L 226.648508 -294.96975 
L 225.846041 -294.96975 
L 225.043575 -294.96975 
L 224.241109 -294.96975 
L 223.438642 -294.96975 
L 222.636176 -294.96975 
L 221.83371 -294.96975 
L 221.031243 -294.96975 
L 220.228777 -294.96975 
L 219.426311 -294.96975 
L 218.623844 -294.96975 
L 217.821378 -294.96975 
L 217.018911 -294.96975 
L 216.216445 -294.96975 
L 215.413979 -294.96975 
L 214.611512 -294.96975 
L 213.809046 -294.96975 
L 213.00658 -294.96975 
L 212.204113 -294.96975 
L 211.401647 -294.96975 
L 210.599181 -294.96975 
L 209.796714 -294.96975 
L 208.994248 -294.96975 
L 208.191782 -294.96975 
L 207.389315 -294.96975 
L 206.586849 -294.96975 
L 205.784383 -294.96975 
L 204.981916 -294.96975 
L 204.17945 -294.96975 
L 203.376984 -294.96975 
L 202.574517 -294.96975 
L 201.772051 -294.96975 
L 200.969584 -294.96975 
L 200.167118 -294.96975 
L 199.364652 -294.96975 
L 198.562185 -294.96975 
L 197.759719 -294.96975 
L 196.957253 -294.96975 
L 196.154786 -294.96975 
L 195.35232 -294.96975 
L 194.549854 -294.96975 
L 193.747387 -294.96975 
L 192.944921 -294.96975 
L 192.142455 -294.96975 
L 191.339988 -294.96975 
L 190.537522 -294.96975 
L 189.735056 -294.96975 
L 188.932589 -294.96975 
L 188.130123 -294.96975 
L 187.327656 -294.96975 
L 186.52519 -294.96975 
L 185.722724 -294.96975 
L 184.920257 -294.96975 
L 184.117791 -294.96975 
L 183.315325 -294.96975 
L 182.512858 -294.96975 
L 181.710392 -294.96975 
L 180.907926 -294.96975 
L 180.105459 -294.96975 
L 179.302993 -294.96975 
L 178.500527 -294.96975 
L 177.69806 -294.96975 
L 176.895594 -294.96975 
L 176.093128 -294.96975 
L 175.290661 -294.96975 
L 174.488195 -294.96975 
L 173.685729 -294.96975 
L 172.883262 -294.96975 
L 172.080796 -294.96975 
L 171.278329 -294.96975 
L 170.475863 -294.96975 
L 169.673397 -294.96975 
L 168.87093 -294.96975 
L 168.068464 -294.96975 
L 167.265998 -294.96975 
L 166.463531 -294.96975 
L 165.661065 -294.96975 
L 164.858599 -294.96975 
L 164.056132 -294.96975 
L 163.253666 -294.96975 
L 162.4512 -294.96975 
L 161.648733 -294.96975 
L 160.846267 -294.96975 
L 160.043801 -294.96975 
L 159.241334 -294.96975 
L 158.438868 -294.96975 
L 157.636401 -294.96975 
L 156.833935 -294.96975 
L 156.031469 -294.96975 
L 155.229002 -294.96975 
L 154.426536 -294.96975 
L 153.62407 -294.96975 
L 152.821603 -294.96975 
L 152.019137 -294.96975 
L 151.216671 -294.96975 
L 150.414204 -294.96975 
L 149.611738 -294.96975 
L 148.809272 -294.96975 
L 148.006805 -294.96975 
L 147.204339 -294.96975 
L 146.401873 -294.96975 
L 145.599406 -294.96975 
L 144.79694 -294.96975 
L 143.994474 -294.96975 
L 143.192007 -294.96975 
L 142.389541 -294.96975 
L 141.587074 -294.96975 
L 140.784608 -294.96975 
L 139.982142 -294.96975 
L 139.179675 -294.96975 
L 138.377209 -294.96975 
L 137.574743 -294.96975 
L 136.772276 -294.96975 
L 135.96981 -294.96975 
L 135.167344 -294.96975 
L 134.364877 -294.96975 
L 133.562411 -294.96975 
L 132.759945 -294.96975 
L 131.957478 -294.96975 
L 131.155012 -294.96975 
L 130.352546 -294.96975 
L 129.550079 -294.96975 
L 128.747613 -294.96975 
L 127.945147 -294.96975 
L 127.14268 -294.96975 
L 126.340214 -294.96975 
L 125.537747 -294.96975 
L 124.735281 -294.96975 
L 123.932815 -294.96975 
L 123.130348 -294.96975 
L 122.327882 -294.96975 
L 121.525416 -294.96975 
L 120.722949 -294.96975 
L 119.920483 -294.96975 
L 119.118017 -294.96975 
L 118.31555 -294.96975 
L 117.513084 -294.96975 
L 116.710618 -294.96975 
L 115.908151 -294.96975 
L 115.105685 -294.96975 
L 114.303219 -294.96975 
L 113.500752 -294.96975 
L 112.698286 -294.96975 
L 111.895819 -294.96975 
L 111.093353 -294.96975 
L 110.290887 -294.96975 
L 109.48842 -294.96975 
L 108.685954 -294.96975 
L 107.883488 -294.96975 
L 107.081021 -294.96975 
L 106.278555 -294.96975 
L 105.476089 -294.96975 
L 104.673622 -294.96975 
L 103.871156 -294.96975 
L 103.06869 -294.96975 
L 102.266223 -294.96975 
L 101.463757 -294.96975 
L 100.661291 -294.96975 
L 99.858824 -294.96975 
L 99.056358 -294.96975 
L 98.253892 -294.96975 
L 97.451425 -294.96975 
L 96.648959 -294.96975 
L 95.846492 -294.96975 
L 95.044026 -294.96975 
L 94.24156 -294.96975 
L 93.439093 -294.96975 
L 92.636627 -294.96975 
L 91.834161 -294.96975 
L 91.031694 -294.96975 
L 90.229228 -294.96975 
L 89.426762 -294.96975 
L 88.624295 -294.96975 
L 87.821829 -294.96975 
L 87.019363 -294.96975 
L 86.216896 -294.96975 
L 85.41443 -294.96975 
L 84.611964 -294.96975 
L 83.809497 -294.96975 
L 83.007031 -294.96975 
L 82.204564 -294.96975 
L 81.402098 -294.96975 
L 80.599632 -294.96975 
L 79.797165 -294.96975 
L 78.994699 -294.96975 
L 78.192233 -294.96975 
L 77.389766 -294.96975 
L 76.5873 -294.96975 
L 75.784834 -294.96975 
L 74.982367 -294.96975 
L 74.179901 -294.96975 
L 73.377435 -294.96975 
L 72.574968 -294.96975 
L 71.772502 -294.96975 
L 70.970036 -294.96975 
L 70.167569 -294.96975 
L 69.365103 -294.96975 
L 68.562637 -294.96975 
L 67.76017 -294.96975 
L 66.957704 -294.96975 
L 66.155237 -294.96975 
L 65.352771 -294.96975 
L 64.550305 -294.96975 
L 63.747838 -294.96975 
L 62.945372 -294.96975 
L 62.142906 -294.96975 
L 61.340439 -294.96975 
L 60.537973 -294.96975 
L 59.735507 -294.96975 
L 58.93304 -294.96975 
L 58.130574 -294.96975 
L 57.328108 -294.96975 
L 56.525641 -294.96975 
L 55.723175 -294.96975 
L 54.920709 -294.96975 
L 54.118242 -294.96975 
L 53.315776 -294.96975 
L 52.51331 -294.96975 
L 51.710843 -294.96975 
L 50.908377 -294.96975 
L 50.10591 -294.96975 
z
" style="stroke: #dc2626; stroke-opacity: 0.08"/>
    </defs>
    <g clip-path="url(#p6297ff4d5a)">
     <use xlink:href="#maf8b1279a1" x="0" y="305.76975" style="fill: #dc2626; fill-opacity: 0.08; stroke: #dc2626; stroke-opacity: 0.08"/>
    </g>
   </g>
   <g id="line2d_77">
    <path d="M 50.10591 235.961097 
L 450.53662 76.381484 
L 450.53662 76.381484 
" clip-path="url(#p6297ff4d5a)" style="fill: none; stroke: #dc2626; stroke-width: 2.5; stroke-linecap: round"/>
   </g>
   <g id="line2d_78">
    <path d="M 30.084375 99.152 
L 470.558155 99.152 
" clip-path="url(#p6297ff4d5a)" style="fill: none; stroke-dasharray: 7.4,3.2; stroke-dashoffset: 0; stroke: #dc2626; stroke-opacity: 0.7; stroke-width: 2"/>
   </g>
   <g id="patch_3">
    <path d="M 30.084375 275.856 
L 30.084375 10.8 
" style="fill: none; stroke: #cccccc; stroke-linejoin: miter; stroke-linecap: square"/>
   </g>
   <g id="patch_4">
    <path d="M 470.558155 275.856 
L 470.558155 10.8 
" style="fill: none; stroke: #cccccc; stroke-linejoin: miter; stroke-linecap: square"/>
   </g>
   <g id="patch_5">
    <path d="M 30.084375 275.856 
L 470.558155 275.856 
" style="fill: none; stroke: #cccccc; stroke-linejoin: miter; stroke-linecap: square"/>
   </g>
   <g id="patch_6">
    <path d="M 30.084375 10.8 
L 470.558155 10.8 
" style="fill: none; stroke: #cccccc; stroke-linejoin: miter; stroke-linecap: square"/>
   </g>
   <g id="patch_7">
    <path d="M 350.846115 39.603151 
Q 371.542033 68.565248 391.262914 96.162867 
" style="fill: none; stroke: #dc2626; stroke-width: 1.5; stroke-linecap: round"/>
    <path d="M 390.564549 91.745596 
L 391.262914 96.162867 
L 387.310078 94.071196 
" style="fill: none; stroke: #dc2626; stroke-width: 1.5; stroke-linecap: round"/>
   </g>
   <g id="text_3">
    <!-- When does shutdown -->
    <g style="fill: #dc2626" transform="translate(286.617385 22.700879) scale(0.1 -0.1)">
     <defs>
      <path id="DejaVuSerif-Italic-57" d="M 4425 0 
L 3913 0 
L 3581 3794 
L 1775 0 
L 1263 0 
L 881 4331 
L 419 4331 
L 484 4666 
L 2188 4666 
L 2122 4331 
L 1541 4331 
L 1844 884 
L 3641 4666 
L 4147 4666 
L 4484 844 
L 6141 4331 
L 5603 4331 
L 5669 4666 
L 7013 4666 
L 6947 4331 
L 6488 4331 
L 4425 0 
z
" transform="scale(0.015625)"/>
      <path id="DejaVuSerif-Italic-68" d="M 309 0 
L 1191 4531 
L 641 4531 
L 703 4863 
L 1828 4863 
L 1416 2731 
Q 1641 3069 1928 3241 
Q 2216 3413 2553 3413 
Q 3103 3413 3300 3097 
Q 3422 2906 3422 2588 
Q 3422 2378 3369 2113 
L 3022 331 
L 3534 331 
L 3472 0 
L 2381 0 
L 2756 1931 
Q 2819 2253 2819 2469 
Q 2819 2659 2769 2763 
Q 2666 2988 2284 2988 
Q 1884 2988 1617 2697 
Q 1350 2406 1244 1850 
L 884 0 
L 309 0 
z
" transform="scale(0.015625)"/>
      <path id="DejaVuSerif-Italic-65" d="M 938 1275 
Q 925 1156 925 1050 
Q 925 756 1031 563 
Q 1216 219 1709 219 
Q 2072 219 2250 328 
Q 2569 525 2644 778 
L 3066 778 
Q 2941 381 2475 103 
Q 2150 -91 1506 -91 
Q 863 -91 516 388 
Q 272 722 272 1206 
Q 272 1419 319 1659 
Q 472 2450 1000 2931 
Q 1528 3413 2278 3413 
Q 3500 3413 3500 2547 
Q 3500 1913 2859 1603 
Q 2206 1288 938 1275 
z
M 2541 1975 
Q 2891 2181 2891 2569 
Q 2891 3103 2181 3103 
Q 1763 3103 1472 2784 
Q 1181 2466 1003 1606 
Q 2006 1653 2541 1975 
z
" transform="scale(0.015625)"/>
      <path id="DejaVuSerif-Italic-6e" d="M 450 0 
L 1031 2988 
L 481 2988 
L 544 3322 
L 1669 3322 
L 1556 2731 
Q 1781 3069 2068 3241 
Q 2356 3413 2694 3413 
Q 3244 3413 3444 3097 
Q 3563 2906 3563 2588 
Q 3563 2378 3509 2113 
L 3163 331 
L 3675 331 
L 3613 0 
L 2522 0 
L 2897 1931 
Q 2959 2253 2959 2469 
Q 2959 2659 2909 2769 
Q 2803 2994 2425 2994 
Q 2025 2994 1759 2701 
Q 1494 2409 1384 1850 
L 1025 0 
L 450 0 
z
" transform="scale(0.015625)"/>
      <path id="DejaVuSerif-Italic-20" transform="scale(0.015625)"/>
      <path id="DejaVuSerif-Italic-64" d="M 3841 4863 
L 2897 0 
L 2322 0 
L 2422 519 
Q 2191 206 1902 57 
Q 1613 -91 1228 -91 
Q 616 -91 322 394 
Q 125 716 125 1166 
Q 125 1397 178 1663 
Q 331 2444 812 2928 
Q 1294 3413 1909 3413 
Q 2294 3413 2525 3264 
Q 2756 3116 2866 2803 
L 3200 4531 
L 2656 4531 
L 2722 4863 
L 3841 4863 
z
M 2613 1497 
L 2675 1825 
Q 2722 2069 2722 2266 
Q 2722 2550 2622 2738 
Q 2456 3053 2019 3053 
Q 1575 3053 1279 2703 
Q 984 2353 850 1663 
Q 788 1347 788 1103 
Q 788 813 875 622 
Q 1031 269 1475 269 
Q 1913 269 2203 583 
Q 2494 897 2613 1497 
z
" transform="scale(0.015625)"/>
      <path id="DejaVuSerif-Italic-6f" d="M 1644 219 
Q 2106 219 2414 584 
Q 2722 950 2859 1663 
Q 2922 1988 2922 2241 
Q 2922 2541 2834 2738 
Q 2669 3103 2206 3103 
Q 1744 3103 1436 2739 
Q 1128 2375 991 1663 
Q 928 1338 928 1088 
Q 928 784 1019 584 
Q 1184 219 1644 219 
z
M 1584 -91 
Q 859 -91 513 388 
Q 272 722 272 1203 
Q 272 1419 319 1663 
Q 472 2456 1005 2934 
Q 1538 3413 2266 3413 
Q 2994 3413 3341 2934 
Q 3578 2603 3578 2122 
Q 3578 1906 3531 1663 
Q 3378 869 2845 389 
Q 2313 -91 1584 -91 
z
" transform="scale(0.015625)"/>
      <path id="DejaVuSerif-Italic-73" d="M 222 959 
L 553 959 
Q 541 869 541 788 
Q 541 219 1313 219 
Q 2088 219 2200 788 
Q 2209 844 2209 944 
Q 2209 1041 2103 1158 
Q 1997 1275 1550 1428 
L 1159 1569 
Q 759 1706 629 1882 
Q 500 2059 500 2263 
Q 500 2344 516 2438 
Q 606 2894 990 3153 
Q 1375 3413 1931 3413 
Q 2484 3413 3066 3144 
L 2925 2419 
L 2594 2419 
Q 2606 2491 2606 2553 
Q 2606 2781 2448 2942 
Q 2291 3103 1925 3103 
Q 1191 3103 1091 2591 
Q 1078 2538 1078 2444 
Q 1078 2347 1179 2237 
Q 1281 2128 1678 1997 
L 2106 1856 
Q 2550 1709 2716 1488 
Q 2831 1331 2831 1178 
Q 2831 522 2306 181 
Q 1894 -91 1262 -91 
Q 631 -91 72 184 
L 222 959 
z
" transform="scale(0.015625)"/>
      <path id="DejaVuSerif-Italic-75" d="M 3097 3322 
L 3672 3322 
L 3091 331 
L 3634 331 
L 3572 0 
L 2453 0 
L 2566 588 
Q 2341 256 2055 82 
Q 1769 -91 1434 -91 
Q 881 -91 681 225 
Q 559 413 559 734 
Q 559 944 613 1209 
L 956 2988 
L 438 2988 
L 503 3322 
L 1600 3322 
L 1225 1388 
Q 1163 1066 1163 853 
Q 1163 663 1213 556 
Q 1316 331 1697 331 
Q 2097 331 2364 625 
Q 2631 919 2738 1478 
L 3097 3322 
z
" transform="scale(0.015625)"/>
      <path id="DejaVuSerif-Italic-74" d="M 856 2988 
L 350 2988 
L 416 3322 
L 922 3322 
L 1122 4353 
L 1700 4353 
L 1500 3322 
L 2581 3322 
L 2516 2988 
L 1434 2988 
L 1025 878 
Q 978 631 978 488 
Q 978 388 1000 338 
Q 1059 219 1278 219 
Q 1503 219 1633 351 
Q 1763 484 1825 781 
L 2259 781 
Q 2147 328 1884 118 
Q 1622 -91 1169 -91 
Q 672 -91 506 131 
Q 406 266 406 516 
Q 406 675 447 878 
L 856 2988 
z
" transform="scale(0.015625)"/>
      <path id="DejaVuSerif-Italic-77" d="M 3741 728 
Q 4156 1178 4250 1344 
Q 4594 1969 4931 2988 
L 4447 2984 
L 4513 3322 
L 5347 3322 
L 5281 2984 
L 5278 2984 
Q 4959 1825 4656 1266 
Q 4209 469 3719 0 
L 3241 0 
L 2900 2484 
L 1597 0 
L 1138 0 
L 734 2988 
L 359 2981 
L 425 3322 
L 1281 3322 
L 1631 728 
L 2991 3322 
L 3394 3322 
L 3741 728 
z
" transform="scale(0.015625)"/>
     </defs>
     <use xlink:href="#DejaVuSerif-Italic-57"/>
     <use xlink:href="#DejaVuSerif-Italic-68" transform="translate(102.783203 0)"/>
     <use xlink:href="#DejaVuSerif-Italic-65" transform="translate(167.1875 0)"/>
     <use xlink:href="#DejaVuSerif-Italic-6e" transform="translate(226.367188 0)"/>
     <use xlink:href="#DejaVuSerif-Italic-20" transform="translate(290.771484 0)"/>
     <use xlink:href="#DejaVuSerif-Italic-64" transform="translate(322.558594 0)"/>
     <use xlink:href="#DejaVuSerif-Italic-6f" transform="translate(386.572266 0)"/>
     <use xlink:href="#DejaVuSerif-Italic-65" transform="translate(446.777344 0)"/>
     <use xlink:href="#DejaVuSerif-Italic-73" transform="translate(505.957031 0)"/>
     <use xlink:href="#DejaVuSerif-Italic-20" transform="translate(557.275391 0)"/>
     <use xlink:href="#DejaVuSerif-Italic-73" transform="translate(589.0625 0)"/>
     <use xlink:href="#DejaVuSerif-Italic-68" transform="translate(640.380859 0)"/>
     <use xlink:href="#DejaVuSerif-Italic-75" transform="translate(704.785156 0)"/>
     <use xlink:href="#DejaVuSerif-Italic-74" transform="translate(769.189453 0)"/>
     <use xlink:href="#DejaVuSerif-Italic-64" transform="translate(809.375 0)"/>
     <use xlink:href="#DejaVuSerif-Italic-6f" transform="translate(873.388672 0)"/>
     <use xlink:href="#DejaVuSerif-Italic-77" transform="translate(933.59375 0)"/>
     <use xlink:href="#DejaVuSerif-Italic-6e" transform="translate(1019.189453 0)"/>
    </g>
    <!-- need to happen? -->
    <g style="fill: #dc2626" transform="translate(286.617385 33.898691) scale(0.1 -0.1)">
     <defs>
      <path id="DejaVuSerif-Italic-61" d="M 2325 519 
Q 1909 -91 1238 -91 
Q 688 -91 409 281 
Q 216 544 216 919 
Q 216 1078 250 1256 
Q 463 2359 1231 2928 
Q 1884 3413 2675 3413 
Q 3206 3413 3388 3322 
L 2806 331 
L 3300 331 
L 3238 0 
L 2225 0 
L 2325 519 
z
M 822 938 
Q 822 269 1469 269 
Q 1863 269 2130 583 
Q 2397 897 2516 1497 
L 2806 3003 
L 2806 3003 
Q 2806 3094 2556 3094 
Q 1956 3094 1491 2625 
Q 1028 2153 863 1297 
Q 822 1097 822 938 
z
" transform="scale(0.015625)"/>
      <path id="DejaVuSerif-Italic-70" d="M 1466 1825 
L 1400 1497 
Q 1353 1250 1353 1053 
Q 1353 769 1453 581 
Q 1622 269 2059 269 
Q 2500 269 2795 622 
Q 3091 975 3225 1663 
Q 3284 1978 3284 2225 
Q 3284 2513 3200 2703 
Q 3041 3053 2600 3053 
Q 2163 3053 1872 2737 
Q 1581 2422 1466 1825 
z
M 1116 2988 
L 563 2988 
L 628 3322 
L 1756 3322 
L 1656 2803 
Q 1884 3116 2175 3264 
Q 2466 3413 2850 3413 
Q 3463 3413 3753 2928 
Q 3947 2609 3947 2163 
Q 3947 1928 3897 1663 
Q 3744 881 3262 395 
Q 2781 -91 2169 -91 
Q 1784 -91 1551 57 
Q 1319 206 1213 519 
L 850 -1331 
L 275 -1331 
L 1116 2988 
z
" transform="scale(0.015625)"/>
      <path id="DejaVuSerif-Italic-3f" d="M 797 29 
Q 700 150 734 325 
Q 769 500 912 622 
Q 1056 744 1234 744 
Q 1406 744 1504 622 
Q 1603 500 1569 325 
Q 1538 153 1391 31 
Q 1244 -91 1072 -91 
Q 894 -91 797 29 
z
M 847 4459 
Q 1209 4606 1521 4678 
Q 1834 4750 2097 4750 
Q 2791 4750 3127 4415 
Q 3463 4081 3353 3513 
Q 3238 2931 2822 2562 
Q 2406 2194 1678 2034 
L 1522 1241 
L 1138 1241 
L 1338 2266 
Q 1916 2400 2258 2715 
Q 2600 3031 2694 3519 
Q 2778 3947 2597 4194 
Q 2416 4441 2022 4441 
Q 1666 4441 1400 4236 
Q 1134 4031 994 3647 
L 691 3647 
L 847 4459 
z
" transform="scale(0.015625)"/>
     </defs>
     <use xlink:href="#DejaVuSerif-Italic-6e"/>
     <use xlink:href="#DejaVuSerif-Italic-65" transform="translate(64.404297 0)"/>
     <use xlink:href="#DejaVuSerif-Italic-65" transform="translate(123.583984 0)"/>
     <use xlink:href="#DejaVuSerif-Italic-64" transform="translate(182.763672 0)"/>
     <use xlink:href="#DejaVuSerif-Italic-20" transform="translate(246.777344 0)"/>
     <use xlink:href="#DejaVuSerif-Italic-74" transform="translate(278.564453 0)"/>
     <use xlink:href="#DejaVuSerif-Italic-6f" transform="translate(318.75 0)"/>
     <use xlink:href="#DejaVuSerif-Italic-20" transform="translate(378.955078 0)"/>
     <use xlink:href="#DejaVuSerif-Italic-68" transform="translate(410.742188 0)"/>
     <use xlink:href="#DejaVuSerif-Italic-61" transform="translate(475.146484 0)"/>
     <use xlink:href="#DejaVuSerif-Italic-70" transform="translate(534.765625 0)"/>
     <use xlink:href="#DejaVuSerif-Italic-70" transform="translate(598.779297 0)"/>
     <use xlink:href="#DejaVuSerif-Italic-65" transform="translate(662.792969 0)"/>
     <use xlink:href="#DejaVuSerif-Italic-6e" transform="translate(721.972656 0)"/>
     <use xlink:href="#DejaVuSerif-Italic-3f" transform="translate(786.376953 0)"/>
    </g>
   </g>
   <g id="line2d_79">
    <defs>
     <path id="m5c894e3b83" d="M -0 6 
L 6 -6 
L -6 -6 
z
" style="stroke: #dc2626; stroke-linejoin: miter"/>
    </defs>
    <g clip-path="url(#p6297ff4d5a)">
     <use xlink:href="#m5c894e3b83" x="393.398907" y="99.152" style="fill: #dc2626; stroke: #dc2626; stroke-linejoin: miter"/>
    </g>
   </g>
   <g id="legend_1">
    <g id="line2d_80">
     <path d="M 357.035811 249.396 
L 366.035811 249.396 
L 375.035811 249.396 
" style="fill: none; stroke: #dc2626; stroke-width: 2.5; stroke-linecap: round"/>
    </g>
    <g id="text_4">
     <!-- MRSA growth -->
     <g style="fill: #262626" transform="translate(382.235811 252.546) scale(0.09 -0.09)">
      <defs>
       <path id="DejaVuSerif-72" d="M 3059 3328 
L 3059 2497 
L 2728 2497 
Q 2713 2744 2591 2866 
Q 2469 2988 2234 2988 
Q 1809 2988 1582 2694 
Q 1356 2400 1356 1850 
L 1356 331 
L 2022 331 
L 2022 0 
L 263 0 
L 263 331 
L 781 331 
L 781 2994 
L 231 2994 
L 231 3322 
L 1356 3322 
L 1356 2731 
Q 1525 3078 1790 3245 
Q 2056 3413 2438 3413 
Q 2578 3413 2733 3391 
Q 2888 3369 3059 3328 
z
" transform="scale(0.015625)"/>
       <path id="DejaVuSerif-77" d="M 3072 3322 
L 3922 728 
L 4672 2988 
L 4191 2988 
L 4191 3322 
L 5394 3322 
L 5394 2988 
L 5025 2988 
L 4038 0 
L 3559 0 
L 2741 2484 
L 1919 0 
L 1459 0 
L 475 2988 
L 103 2988 
L 103 3322 
L 1606 3322 
L 1606 2988 
L 1069 2988 
L 1813 728 
L 2669 3322 
L 3072 3322 
z
" transform="scale(0.015625)"/>
       <path id="DejaVuSerif-68" d="M 263 0 
L 263 331 
L 781 331 
L 781 4531 
L 231 4531 
L 231 4863 
L 1356 4863 
L 1356 2731 
Q 1516 3069 1770 3241 
Q 2025 3413 2363 3413 
Q 2913 3413 3172 3097 
Q 3431 2781 3431 2113 
L 3431 331 
L 3944 331 
L 3944 0 
L 2356 0 
L 2356 331 
L 2853 331 
L 2853 1931 
Q 2853 2541 2704 2764 
Q 2556 2988 2175 2988 
Q 1775 2988 1565 2697 
Q 1356 2406 1356 1850 
L 1356 331 
L 1856 331 
L 1856 0 
L 263 0 
z
" transform="scale(0.015625)"/>
      </defs>
      <use xlink:href="#DejaVuSerif-4d"/>
      <use xlink:href="#DejaVuSerif-52" transform="translate(102.392578 0)"/>
      <use xlink:href="#DejaVuSerif-53" transform="translate(177.685547 0)"/>
      <use xlink:href="#DejaVuSerif-41" transform="translate(246.191406 0)"/>
      <use xlink:href="#DejaVuSerif-20" transform="translate(318.408203 0)"/>
      <use xlink:href="#DejaVuSerif-67" transform="translate(350.195312 0)"/>
      <use xlink:href="#DejaVuSerif-72" transform="translate(414.208984 0)"/>
      <use xlink:href="#DejaVuSerif-6f" transform="translate(462.011719 0)"/>
      <use xlink:href="#DejaVuSerif-77" transform="translate(522.216797 0)"/>
      <use xlink:href="#DejaVuSerif-74" transform="translate(607.8125 0)"/>
      <use xlink:href="#DejaVuSerif-68" transform="translate(647.998047 0)"/>
     </g>
    </g>
    <g id="line2d_81">
     <path d="M 357.035811 262.734281 
L 366.035811 262.734281 
L 375.035811 262.734281 
" style="fill: none; stroke-dasharray: 7.4,3.2; stroke-dashoffset: 0; stroke: #dc2626; stroke-opacity: 0.7; stroke-width: 2"/>
    </g>
    <g id="text_5">
     <!-- Critical threshold -->
     <g style="fill: #262626" transform="translate(382.235811 265.884281) scale(0.09 -0.09)">
      <defs>
       <path id="DejaVuSerif-43" d="M 4513 1234 
Q 4306 581 3820 245 
Q 3334 -91 2591 -91 
Q 2134 -91 1743 65 
Q 1353 222 1050 525 
Q 700 875 529 1320 
Q 359 1766 359 2328 
Q 359 3416 987 4083 
Q 1616 4750 2644 4750 
Q 3025 4750 3456 4650 
Q 3888 4550 4384 4347 
L 4384 3272 
L 4031 3272 
Q 3916 3859 3567 4137 
Q 3219 4416 2591 4416 
Q 1844 4416 1459 3886 
Q 1075 3356 1075 2328 
Q 1075 1303 1459 773 
Q 1844 244 2591 244 
Q 3113 244 3450 492 
Q 3788 741 3938 1234 
L 4513 1234 
z
" transform="scale(0.015625)"/>
       <path id="DejaVuSerif-64" d="M 3359 331 
L 3909 331 
L 3909 0 
L 2784 0 
L 2784 519 
Q 2616 206 2355 57 
Q 2094 -91 1709 -91 
Q 1097 -91 708 395 
Q 319 881 319 1663 
Q 319 2444 706 2928 
Q 1094 3413 1709 3413 
Q 2094 3413 2355 3264 
Q 2616 3116 2784 2803 
L 2784 4531 
L 2241 4531 
L 2241 4863 
L 3359 4863 
L 3359 331 
z
M 2784 1497 
L 2784 1825 
Q 2784 2422 2554 2737 
Q 2325 3053 1888 3053 
Q 1444 3053 1217 2703 
Q 991 2353 991 1663 
Q 991 975 1217 622 
Q 1444 269 1888 269 
Q 2325 269 2554 583 
Q 2784 897 2784 1497 
z
" transform="scale(0.015625)"/>
      </defs>
      <use xlink:href="#DejaVuSerif-43"/>
      <use xlink:href="#DejaVuSerif-72" transform="translate(76.513672 0)"/>
      <use xlink:href="#DejaVuSerif-69" transform="translate(124.316406 0)"/>
      <use xlink:href="#DejaVuSerif-74" transform="translate(156.298828 0)"/>
      <use xlink:href="#DejaVuSerif-69" transform="translate(196.484375 0)"/>
      <use xlink:href="#DejaVuSerif-63" transform="translate(228.466797 0)"/>
      <use xlink:href="#DejaVuSerif-61" transform="translate(284.472656 0)"/>
      <use xlink:href="#DejaVuSerif-6c" transform="translate(344.091797 0)"/>
      <use xlink:href="#DejaVuSerif-20" transform="translate(376.074219 0)"/>
      <use xlink:href="#DejaVuSerif-74" transform="translate(407.861328 0)"/>
      <use xlink:href="#DejaVuSerif-68" transform="translate(448.046875 0)"/>
      <use xlink:href="#DejaVuSerif-72" transform="translate(512.451172 0)"/>
      <use xlink:href="#DejaVuSerif-65" transform="translate(560.253906 0)"/>
      <use xlink:href="#DejaVuSerif-73" transform="translate(619.433594 0)"/>
      <use xlink:href="#DejaVuSerif-68" transform="translate(670.751953 0)"/>
      <use xlink:href="#DejaVuSerif-6f" transform="translate(735.15625 0)"/>
      <use xlink:href="#DejaVuSerif-6c" transform="translate(795.361328 0)"/>
      <use xlink:href="#DejaVuSerif-64" transform="translate(827.34375 0)"/>
     </g>
    </g>
   </g>
  </g>
 </g>
 <defs>
  <clipPath id="p6297ff4d5a">
   <rect x="30.084375" y="10.8" width="440.47378" height="265.056"/>
  </clipPath>
 </defs>
</svg>
