<?xml version="1.0" encoding="utf-8" standalone="no"?>
<!DOCTYPE svg PUBLIC "-//W3C//DTD SVG 1.1//EN"
  "http://www.w3.org/Graphics/SVG/1.1/DTD/svg11.dtd">
<svg xmlns:xlink="http://www.w3.org/1999/xlink" width="480.15375pt" height="311.13375pt" viewBox="0 0 480.15375 311.13375" xmlns="http://www.w3.org/2000/svg" version="1.1">
 <metadata>
  <rdf:RDF xmlns:dc="http://purl.org/dc/elements/1.1/" xmlns:cc="http://creativecommons.org/ns#" xmlns:rdf="http://www.w3.org/1999/02/22-rdf-syntax-ns#">
   <cc:Work>
    <dc:type rdf:resource="http://purl.org/dc/dcmitype/StillImage"/>
    <dc:date>2026-02-19T08:27:09.546117</dc:date>
    <dc:format>image/svg+xml</dc:format>
    <dc:creator>
     <cc:Agent>
      <dc:title>Matplotlib v3.10.1, https://matplotlib.org/</dc:title>
     </cc:Agent>
    </dc:creator>
   </cc:Work>
  </rdf:RDF>
 </metadata>
 <defs>
  <style type="text/css">*{stroke-linejoin: round; stroke-linecap: butt}</style>
 </defs>
 <g id="figure_1">
  <g id="patch_1">
   <path d="M 0 311.13375 
L 480.15375 311.13375 
L 480.15375 0 
L 0 0 
z
" style="fill: #ffffff"/>
  </g>
  <g id="axes_1">
   <g id="patch_2">
    <path d="M 29.91375 281.22 
L 469.35375 281.22 
L 469.35375 10.8 
L 29.91375 10.8 
z
" style="fill: #ffffff"/>
   </g>
   <g id="matplotlib.axis_1">
    <g id="xtick_1">
     <g id="line2d_1">
      <path d="M 49.888295 281.22 
L 49.888295 10.8 
" clip-path="url(#p27ab5fe2d1)" style="fill: none; stroke: #cccccc; stroke-width: 0.8; stroke-linecap: round"/>
     </g>
     <g id="line2d_2"/>
    </g>
    <g id="xtick_2">
     <g id="line2d_3">
      <path d="M 129.786477 281.22 
L 129.786477 10.8 
" clip-path="url(#p27ab5fe2d1)" style="fill: none; stroke: #cccccc; stroke-width: 0.8; stroke-linecap: round"/>
     </g>
     <g id="line2d_4"/>
    </g>
    <g id="xtick_3">
     <g id="line2d_5">
      <path d="M 209.684659 281.22 
L 209.684659 10.8 
" clip-path="url(#p27ab5fe2d1)" style="fill: none; stroke: #cccccc; stroke-width: 0.8; stroke-linecap: round"/>
     </g>
     <g id="line2d_6"/>
    </g>
    <g id="xtick_4">
     <g id="line2d_7">
      <path d="M 289.582841 281.22 
L 289.582841 10.8 
" clip-path="url(#p27ab5fe2d1)" style="fill: none; stroke: #cccccc; stroke-width: 0.8; stroke-linecap: round"/>
     </g>
     <g id="line2d_8"/>
    </g>
    <g id="xtick_5">
     <g id="line2d_9">
      <path d="M 369.481023 281.22 
L 369.481023 10.8 
" clip-path="url(#p27ab5fe2d1)" style="fill: none; stroke: #cccccc; stroke-width: 0.8; stroke-linecap: round"/>
     </g>
     <g id="line2d_10"/>
    </g>
    <g id="xtick_6">
     <g id="line2d_11">
      <path d="M 449.379205 281.22 
L 449.379205 10.8 
" clip-path="url(#p27ab5fe2d1)" style="fill: none; stroke: #cccccc; stroke-width: 0.8; stroke-linecap: round"/>
     </g>
     <g id="line2d_12"/>
    </g>
    <g id="text_1">
     <!-- Years after release -->
     <g style="fill: #262626" transform="translate(192.583125 297.838125) scale(0.12 -0.12)">
      <defs>
       <path id="DejaVuSerif-59" d="M 1209 0 
L 1209 331 
L 1806 331 
L 1806 2009 
L 366 4331 
L -72 4331 
L -72 4666 
L 1663 4666 
L 1663 4331 
L 1119 4331 
L 2284 2444 
L 3450 4331 
L 2925 4331 
L 2925 4666 
L 4281 4666 
L 4281 4331 
L 3841 4331 
L 2438 2069 
L 2438 331 
L 3034 331 
L 3034 0 
L 1209 0 
z
" transform="scale(0.015625)"/>
       <path id="DejaVuSerif-65" d="M 3469 1600 
L 991 1600 
L 991 1575 
Q 991 903 1244 561 
Q 1497 219 1991 219 
Q 2369 219 2611 417 
Q 2853 616 2950 1006 
L 3413 1006 
Q 3275 459 2904 184 
Q 2534 -91 1931 -91 
Q 1203 -91 761 389 
Q 319 869 319 1663 
Q 319 2450 753 2931 
Q 1188 3413 1894 3413 
Q 2647 3413 3050 2948 
Q 3453 2484 3469 1600 
z
M 2791 1931 
Q 2772 2513 2545 2808 
Q 2319 3103 1894 3103 
Q 1497 3103 1269 2806 
Q 1041 2509 991 1931 
L 2791 1931 
z
" transform="scale(0.015625)"/>
       <path id="DejaVuSerif-61" d="M 2547 1044 
L 2547 1747 
L 1806 1747 
Q 1378 1747 1168 1562 
Q 959 1378 959 997 
Q 959 650 1171 447 
Q 1384 244 1747 244 
Q 2106 244 2326 466 
Q 2547 688 2547 1044 
z
M 3122 2075 
L 3122 331 
L 3634 331 
L 3634 0 
L 2547 0 
L 2547 359 
Q 2356 128 2106 18 
Q 1856 -91 1522 -91 
Q 969 -91 644 203 
Q 319 497 319 997 
Q 319 1513 691 1797 
Q 1063 2081 1741 2081 
L 2547 2081 
L 2547 2309 
Q 2547 2688 2317 2895 
Q 2088 3103 1672 3103 
Q 1328 3103 1125 2947 
Q 922 2791 872 2484 
L 575 2484 
L 575 3156 
Q 875 3284 1158 3348 
Q 1441 3413 1709 3413 
Q 2400 3413 2761 3070 
Q 3122 2728 3122 2075 
z
" transform="scale(0.015625)"/>
       <path id="DejaVuSerif-72" d="M 3059 3328 
L 3059 2497 
L 2728 2497 
Q 2713 2744 2591 2866 
Q 2469 2988 2234 2988 
Q 1809 2988 1582 2694 
Q 1356 2400 1356 1850 
L 1356 331 
L 2022 331 
L 2022 0 
L 263 0 
L 263 331 
L 781 331 
L 781 2994 
L 231 2994 
L 231 3322 
L 1356 3322 
L 1356 2731 
Q 1525 3078 1790 3245 
Q 2056 3413 2438 3413 
Q 2578 3413 2733 3391 
Q 2888 3369 3059 3328 
z
" transform="scale(0.015625)"/>
       <path id="DejaVuSerif-73" d="M 359 184 
L 359 959 
L 691 959 
Q 703 588 923 403 
Q 1144 219 1575 219 
Q 1963 219 2166 364 
Q 2369 509 2369 788 
Q 2369 1006 2220 1140 
Q 2072 1275 1594 1428 
L 1178 1569 
Q 750 1706 558 1912 
Q 366 2119 366 2438 
Q 366 2894 700 3153 
Q 1034 3413 1625 3413 
Q 1888 3413 2178 3344 
Q 2469 3275 2778 3144 
L 2778 2419 
L 2447 2419 
Q 2434 2741 2221 2922 
Q 2009 3103 1644 3103 
Q 1281 3103 1095 2975 
Q 909 2847 909 2591 
Q 909 2381 1050 2254 
Q 1191 2128 1613 1997 
L 2069 1856 
Q 2541 1709 2748 1489 
Q 2956 1269 2956 922 
Q 2956 450 2595 179 
Q 2234 -91 1600 -91 
Q 1278 -91 972 -22 
Q 666 47 359 184 
z
" transform="scale(0.015625)"/>
       <path id="DejaVuSerif-20" transform="scale(0.015625)"/>
       <path id="DejaVuSerif-66" d="M 2753 4078 
L 2450 4078 
Q 2447 4313 2317 4434 
Q 2188 4556 1941 4556 
Q 1619 4556 1487 4379 
Q 1356 4203 1356 3750 
L 1356 3322 
L 2284 3322 
L 2284 2988 
L 1356 2988 
L 1356 331 
L 2094 331 
L 2094 0 
L 231 0 
L 231 331 
L 781 331 
L 781 2988 
L 231 2988 
L 231 3322 
L 781 3322 
L 781 3738 
Q 781 4294 1070 4578 
Q 1359 4863 1919 4863 
Q 2128 4863 2337 4825 
Q 2547 4788 2753 4709 
L 2753 4078 
z
" transform="scale(0.015625)"/>
       <path id="DejaVuSerif-74" d="M 691 2988 
L 184 2988 
L 184 3322 
L 691 3322 
L 691 4353 
L 1269 4353 
L 1269 3322 
L 2350 3322 
L 2350 2988 
L 1269 2988 
L 1269 878 
Q 1269 456 1350 337 
Q 1431 219 1650 219 
Q 1875 219 1978 351 
Q 2081 484 2088 781 
L 2522 781 
Q 2497 328 2275 118 
Q 2053 -91 1600 -91 
Q 1103 -91 897 129 
Q 691 350 691 878 
L 691 2988 
z
" transform="scale(0.015625)"/>
       <path id="DejaVuSerif-6c" d="M 1313 331 
L 1856 331 
L 1856 0 
L 184 0 
L 184 331 
L 738 331 
L 738 4531 
L 184 4531 
L 184 4863 
L 1313 4863 
L 1313 331 
z
" transform="scale(0.015625)"/>
      </defs>
      <use xlink:href="#DejaVuSerif-59"/>
      <use xlink:href="#DejaVuSerif-65" transform="translate(57.265625 0)"/>
      <use xlink:href="#DejaVuSerif-61" transform="translate(116.445312 0)"/>
      <use xlink:href="#DejaVuSerif-72" transform="translate(176.064453 0)"/>
      <use xlink:href="#DejaVuSerif-73" transform="translate(223.867188 0)"/>
      <use xlink:href="#DejaVuSerif-20" transform="translate(275.185547 0)"/>
      <use xlink:href="#DejaVuSerif-61" transform="translate(306.972656 0)"/>
      <use xlink:href="#DejaVuSerif-66" transform="translate(366.591797 0)"/>
      <use xlink:href="#DejaVuSerif-74" transform="translate(403.603516 0)"/>
      <use xlink:href="#DejaVuSerif-65" transform="translate(443.789062 0)"/>
      <use xlink:href="#DejaVuSerif-72" transform="translate(502.96875 0)"/>
      <use xlink:href="#DejaVuSerif-20" transform="translate(550.771484 0)"/>
      <use xlink:href="#DejaVuSerif-72" transform="translate(582.558594 0)"/>
      <use xlink:href="#DejaVuSerif-65" transform="translate(630.361328 0)"/>
      <use xlink:href="#DejaVuSerif-6c" transform="translate(689.541016 0)"/>
      <use xlink:href="#DejaVuSerif-65" transform="translate(721.523438 0)"/>
      <use xlink:href="#DejaVuSerif-61" transform="translate(780.703125 0)"/>
      <use xlink:href="#DejaVuSerif-73" transform="translate(840.322266 0)"/>
      <use xlink:href="#DejaVuSerif-65" transform="translate(891.640625 0)"/>
     </g>
    </g>
   </g>
   <g id="matplotlib.axis_2">
    <g id="ytick_1">
     <g id="line2d_13">
      <path d="M 29.91375 268.928182 
L 469.35375 268.928182 
" clip-path="url(#p27ab5fe2d1)" style="fill: none; stroke: #cccccc; stroke-width: 0.8; stroke-linecap: round"/>
     </g>
     <g id="line2d_14"/>
    </g>
    <g id="ytick_2">
     <g id="line2d_15">
      <path d="M 29.91375 219.760909 
L 469.35375 219.760909 
" clip-path="url(#p27ab5fe2d1)" style="fill: none; stroke: #cccccc; stroke-width: 0.8; stroke-linecap: round"/>
     </g>
     <g id="line2d_16"/>
    </g>
    <g id="ytick_3">
     <g id="line2d_17">
      <path d="M 29.91375 170.593636 
L 469.35375 170.593636 
" clip-path="url(#p27ab5fe2d1)" style="fill: none; stroke: #cccccc; stroke-width: 0.8; stroke-linecap: round"/>
     </g>
     <g id="line2d_18"/>
    </g>
    <g id="ytick_4">
     <g id="line2d_19">
      <path d="M 29.91375 121.426364 
L 469.35375 121.426364 
" clip-path="url(#p27ab5fe2d1)" style="fill: none; stroke: #cccccc; stroke-width: 0.8; stroke-linecap: round"/>
     </g>
     <g id="line2d_20"/>
    </g>
    <g id="ytick_5">
     <g id="line2d_21">
      <path d="M 29.91375 72.259091 
L 469.35375 72.259091 
" clip-path="url(#p27ab5fe2d1)" style="fill: none; stroke: #cccccc; stroke-width: 0.8; stroke-linecap: round"/>
     </g>
     <g id="line2d_22"/>
    </g>
    <g id="ytick_6">
     <g id="line2d_23">
      <path d="M 29.91375 23.091818 
L 469.35375 23.091818 
" clip-path="url(#p27ab5fe2d1)" style="fill: none; stroke: #cccccc; stroke-width: 0.8; stroke-linecap: round"/>
     </g>
     <g id="line2d_24"/>
    </g>
    <g id="text_2">
     <!-- Activity -->
     <g style="fill: #262626" transform="translate(19.7475 169.14375) rotate(-90) scale(0.12 -0.12)">
      <defs>
       <path id="DejaVuSerif-41" d="M 1281 1691 
L 2994 1691 
L 2138 3909 
L 1281 1691 
z
M -38 0 
L -38 331 
L 372 331 
L 2034 4666 
L 2559 4666 
L 4225 331 
L 4684 331 
L 4684 0 
L 2988 0 
L 2988 331 
L 3506 331 
L 3116 1356 
L 1153 1356 
L 763 331 
L 1275 331 
L 1275 0 
L -38 0 
z
" transform="scale(0.015625)"/>
       <path id="DejaVuSerif-63" d="M 3291 997 
Q 3169 466 2822 187 
Q 2475 -91 1925 -91 
Q 1200 -91 759 389 
Q 319 869 319 1663 
Q 319 2459 759 2936 
Q 1200 3413 1925 3413 
Q 2241 3413 2553 3339 
Q 2866 3266 3181 3116 
L 3181 2266 
L 2847 2266 
Q 2781 2703 2561 2903 
Q 2341 3103 1931 3103 
Q 1466 3103 1228 2742 
Q 991 2381 991 1663 
Q 991 944 1227 581 
Q 1463 219 1931 219 
Q 2303 219 2525 412 
Q 2747 606 2828 997 
L 3291 997 
z
" transform="scale(0.015625)"/>
       <path id="DejaVuSerif-69" d="M 622 4353 
Q 622 4497 726 4603 
Q 831 4709 978 4709 
Q 1122 4709 1226 4603 
Q 1331 4497 1331 4353 
Q 1331 4206 1228 4103 
Q 1125 4000 978 4000 
Q 831 4000 726 4103 
Q 622 4206 622 4353 
z
M 1356 331 
L 1900 331 
L 1900 0 
L 231 0 
L 231 331 
L 781 331 
L 781 2988 
L 231 2988 
L 231 3322 
L 1356 3322 
L 1356 331 
z
" transform="scale(0.015625)"/>
       <path id="DejaVuSerif-76" d="M 1581 0 
L 359 2988 
L -19 2988 
L -19 3322 
L 1509 3322 
L 1509 2988 
L 978 2988 
L 1913 703 
L 2847 2988 
L 2350 2988 
L 2350 3322 
L 3597 3322 
L 3597 2988 
L 3225 2988 
L 2003 0 
L 1581 0 
z
" transform="scale(0.015625)"/>
       <path id="DejaVuSerif-79" d="M 1381 -609 
L 1600 -56 
L 359 2988 
L -19 2988 
L -19 3322 
L 1509 3322 
L 1509 2988 
L 978 2988 
L 1913 703 
L 2847 2988 
L 2350 2988 
L 2350 3322 
L 3597 3322 
L 3597 2988 
L 3225 2988 
L 1703 -750 
Q 1547 -1138 1356 -1280 
Q 1166 -1422 819 -1422 
Q 672 -1422 517 -1397 
Q 363 -1372 206 -1325 
L 206 -691 
L 500 -691 
Q 519 -903 608 -995 
Q 697 -1088 884 -1088 
Q 1056 -1088 1161 -992 
Q 1266 -897 1381 -609 
z
" transform="scale(0.015625)"/>
      </defs>
      <use xlink:href="#DejaVuSerif-41"/>
      <use xlink:href="#DejaVuSerif-63" transform="translate(72.216797 0)"/>
      <use xlink:href="#DejaVuSerif-74" transform="translate(128.222656 0)"/>
      <use xlink:href="#DejaVuSerif-69" transform="translate(168.408203 0)"/>
      <use xlink:href="#DejaVuSerif-76" transform="translate(200.390625 0)"/>
      <use xlink:href="#DejaVuSerif-69" transform="translate(256.884766 0)"/>
      <use xlink:href="#DejaVuSerif-74" transform="translate(288.867188 0)"/>
      <use xlink:href="#DejaVuSerif-79" transform="translate(329.052734 0)"/>
     </g>
    </g>
   </g>
   <g id="FillBetweenPolyCollection_1">
    <defs>
     <path id="mb7d809925e" d="M 49.888295 -47.122295 
L 49.888295 -42.205568 
L 50.688878 -42.205568 
L 51.489461 -42.205568 
L 52.290044 -42.205568 
L 53.090627 -42.205568 
L 53.89121 -42.205568 
L 54.691793 -42.205568 
L 55.492376 -42.205568 
L 56.292959 -42.205568 
L 57.093542 -42.205568 
L 57.894125 -42.205568 
L 58.694708 -42.205568 
L 59.495291 -42.205568 
L 60.295874 -42.205568 
L 61.096457 -42.205568 
L 61.89704 -42.205568 
L 62.697623 -42.205568 
L 63.498206 -42.205568 
L 64.298789 -42.205568 
L 65.099372 -42.205568 
L 65.899955 -42.205568 
L 66.700538 -42.205568 
L 67.501121 -42.205568 
L 68.301704 -42.205568 
L 69.102287 -42.205568 
L 69.90287 -42.205568 
L 70.703453 -42.205568 
L 71.504036 -42.205568 
L 72.304619 -42.205568 
L 73.105202 -42.205568 
L 73.905785 -42.205568 
L 74.706368 -42.205568 
L 75.506951 -42.205568 
L 76.307534 -42.205568 
L 77.108117 -42.205568 
L 77.9087 -42.205568 
L 78.709283 -42.205568 
L 79.509866 -42.205568 
L 80.310449 -42.205568 
L 81.111032 -42.205568 
L 81.911615 -42.205568 
L 82.712198 -42.205568 
L 83.512781 -42.205568 
L 84.313364 -42.205568 
L 85.113947 -42.205568 
L 85.91453 -42.205568 
L 86.715113 -42.205568 
L 87.515696 -42.205568 
L 88.316279 -42.205568 
L 89.116862 -42.205568 
L 89.917445 -42.205568 
L 90.718028 -42.205568 
L 91.518611 -42.205568 
L 92.319194 -42.205568 
L 93.119777 -42.205568 
L 93.92036 -42.205568 
L 94.720943 -42.205568 
L 95.521526 -42.205568 
L 96.322109 -42.205568 
L 97.122692 -42.205568 
L 97.923275 -42.205568 
L 98.723857 -42.205568 
L 99.52444 -42.205568 
L 100.325023 -42.205568 
L 101.125606 -42.205568 
L 101.926189 -42.205568 
L 102.726772 -42.205568 
L 103.527355 -42.205568 
L 104.327938 -42.205568 
L 105.128521 -42.205568 
L 105.929104 -42.205568 
L 106.729687 -42.205568 
L 107.53027 -42.205568 
L 108.330853 -42.205568 
L 109.131436 -42.205568 
L 109.932019 -42.205568 
L 110.732602 -42.205568 
L 111.533185 -42.205568 
L 112.333768 -42.205568 
L 113.134351 -42.205568 
L 113.934934 -42.205568 
L 114.735517 -42.205568 
L 115.5361 -42.205568 
L 116.336683 -42.205568 
L 117.137266 -42.205568 
L 117.937849 -42.205568 
L 118.738432 -42.205568 
L 119.539015 -42.205568 
L 120.339598 -42.205568 
L 121.140181 -42.205568 
L 121.940764 -42.205568 
L 122.741347 -42.205568 
L 123.54193 -42.205568 
L 124.342513 -42.205568 
L 125.143096 -42.205568 
L 125.943679 -42.205568 
L 126.744262 -42.205568 
L 127.544845 -42.205568 
L 128.345428 -42.205568 
L 129.146011 -42.205568 
L 129.946594 -42.205568 
L 130.747177 -42.205568 
L 131.54776 -42.205568 
L 132.348343 -42.205568 
L 133.148926 -42.205568 
L 133.949509 -42.205568 
L 134.750092 -42.205568 
L 135.550675 -42.205568 
L 136.351258 -42.205568 
L 137.151841 -42.205568 
L 137.952424 -42.205568 
L 138.753007 -42.205568 
L 139.55359 -42.205568 
L 140.354173 -42.205568 
L 141.154756 -42.205568 
L 141.955339 -42.205568 
L 142.755922 -42.205568 
L 143.556505 -42.205568 
L 144.357088 -42.205568 
L 145.157671 -42.205568 
L 145.958254 -42.205568 
L 146.758837 -42.205568 
L 147.55942 -42.205568 
L 148.360003 -42.205568 
L 149.160585 -42.205568 
L 149.961168 -42.205568 
L 150.761751 -42.205568 
L 151.562334 -42.205568 
L 152.362917 -42.205568 
L 153.1635 -42.205568 
L 153.964083 -42.205568 
L 154.764666 -42.205568 
L 155.565249 -42.205568 
L 156.365832 -42.205568 
L 157.166415 -42.205568 
L 157.966998 -42.205568 
L 158.767581 -42.205568 
L 159.568164 -42.205568 
L 160.368747 -42.205568 
L 161.16933 -42.205568 
L 161.969913 -42.205568 
L 162.770496 -42.205568 
L 163.571079 -42.205568 
L 164.371662 -42.205568 
L 165.172245 -42.205568 
L 165.972828 -42.205568 
L 166.773411 -42.205568 
L 167.573994 -42.205568 
L 168.374577 -42.205568 
L 169.17516 -42.205568 
L 169.975743 -42.205568 
L 170.776326 -42.205568 
L 171.576909 -42.205568 
L 172.377492 -42.205568 
L 173.178075 -42.205568 
L 173.978658 -42.205568 
L 174.779241 -42.205568 
L 175.579824 -42.205568 
L 176.380407 -42.205568 
L 177.18099 -42.205568 
L 177.981573 -42.205568 
L 178.782156 -42.205568 
L 179.582739 -42.205568 
L 180.383322 -42.205568 
L 181.183905 -42.205568 
L 181.984488 -42.205568 
L 182.785071 -42.205568 
L 183.585654 -42.205568 
L 184.386237 -42.205568 
L 185.18682 -42.205568 
L 185.987403 -42.205568 
L 186.787986 -42.205568 
L 187.588569 -42.205568 
L 188.389152 -42.205568 
L 189.189735 -42.205568 
L 189.990318 -42.205568 
L 190.790901 -42.205568 
L 191.591484 -42.205568 
L 192.392067 -42.205568 
L 193.19265 -42.205568 
L 193.993233 -42.205568 
L 194.793816 -42.205568 
L 195.594399 -42.205568 
L 196.394982 -42.205568 
L 197.195565 -42.205568 
L 197.996148 -42.205568 
L 198.796731 -42.205568 
L 199.597313 -42.205568 
L 200.397896 -42.205568 
L 201.198479 -42.205568 
L 201.999062 -42.205568 
L 202.799645 -42.205568 
L 203.600228 -42.205568 
L 204.400811 -42.205568 
L 205.201394 -42.205568 
L 206.001977 -42.205568 
L 206.80256 -42.205568 
L 207.603143 -42.205568 
L 208.403726 -42.205568 
L 209.204309 -42.205568 
L 210.004892 -42.205568 
L 210.805475 -42.205568 
L 211.606058 -42.205568 
L 212.406641 -42.205568 
L 213.207224 -42.205568 
L 214.007807 -42.205568 
L 214.80839 -42.205568 
L 215.608973 -42.205568 
L 216.409556 -42.205568 
L 217.210139 -42.205568 
L 218.010722 -42.205568 
L 218.811305 -42.205568 
L 219.611888 -42.205568 
L 220.412471 -42.205568 
L 221.213054 -42.205568 
L 222.013637 -42.205568 
L 222.81422 -42.205568 
L 223.614803 -42.205568 
L 224.415386 -42.205568 
L 225.215969 -42.205568 
L 226.016552 -42.205568 
L 226.817135 -42.205568 
L 227.617718 -42.205568 
L 228.418301 -42.205568 
L 229.218884 -42.205568 
L 230.019467 -42.205568 
L 230.82005 -42.205568 
L 231.620633 -42.205568 
L 232.421216 -42.205568 
L 233.221799 -42.205568 
L 234.022382 -42.205568 
L 234.822965 -42.205568 
L 235.623548 -42.205568 
L 236.424131 -42.205568 
L 237.224714 -42.205568 
L 238.025297 -42.205568 
L 238.82588 -42.205568 
L 239.626463 -42.205568 
L 240.427046 -42.205568 
L 241.227629 -42.205568 
L 242.028212 -42.205568 
L 242.828795 -42.205568 
L 243.629378 -42.205568 
L 244.429961 -42.205568 
L 245.230544 -42.205568 
L 246.031127 -42.205568 
L 246.83171 -42.205568 
L 247.632293 -42.205568 
L 248.432876 -42.205568 
L 249.233459 -42.205568 
L 250.034041 -42.205568 
L 250.834624 -42.205568 
L 251.635207 -42.205568 
L 252.43579 -42.205568 
L 253.236373 -42.205568 
L 254.036956 -42.205568 
L 254.837539 -42.205568 
L 255.638122 -42.205568 
L 256.438705 -42.205568 
L 257.239288 -42.205568 
L 258.039871 -42.205568 
L 258.840454 -42.205568 
L 259.641037 -42.205568 
L 260.44162 -42.205568 
L 261.242203 -42.205568 
L 262.042786 -42.205568 
L 262.843369 -42.205568 
L 263.643952 -42.205568 
L 264.444535 -42.205568 
L 265.245118 -42.205568 
L 266.045701 -42.205568 
L 266.846284 -42.205568 
L 267.646867 -42.205568 
L 268.44745 -42.205568 
L 269.248033 -42.205568 
L 270.048616 -42.205568 
L 270.849199 -42.205568 
L 271.649782 -42.205568 
L 272.450365 -42.205568 
L 273.250948 -42.205568 
L 274.051531 -42.205568 
L 274.852114 -42.205568 
L 275.652697 -42.205568 
L 276.45328 -42.205568 
L 277.253863 -42.205568 
L 278.054446 -42.205568 
L 278.855029 -42.205568 
L 279.655612 -42.205568 
L 280.456195 -42.205568 
L 281.256778 -42.205568 
L 282.057361 -42.205568 
L 282.857944 -42.205568 
L 283.658527 -42.205568 
L 284.45911 -42.205568 
L 285.259693 -42.205568 
L 286.060276 -42.205568 
L 286.860859 -42.205568 
L 287.661442 -42.205568 
L 288.462025 -42.205568 
L 289.262608 -42.205568 
L 290.063191 -42.205568 
L 290.863774 -42.205568 
L 291.664357 -42.205568 
L 292.46494 -42.205568 
L 293.265523 -42.205568 
L 294.066106 -42.205568 
L 294.866689 -42.205568 
L 295.667272 -42.205568 
L 296.467855 -42.205568 
L 297.268438 -42.205568 
L 298.069021 -42.205568 
L 298.869604 -42.205568 
L 299.670187 -42.205568 
L 300.470769 -42.205568 
L 301.271352 -42.205568 
L 302.071935 -42.205568 
L 302.872518 -42.205568 
L 303.673101 -42.205568 
L 304.473684 -42.205568 
L 305.274267 -42.205568 
L 306.07485 -42.205568 
L 306.875433 -42.205568 
L 307.676016 -42.205568 
L 308.476599 -42.205568 
L 309.277182 -42.205568 
L 310.077765 -42.205568 
L 310.878348 -42.205568 
L 311.678931 -42.205568 
L 312.479514 -42.205568 
L 313.280097 -42.205568 
L 314.08068 -42.205568 
L 314.881263 -42.205568 
L 315.681846 -42.205568 
L 316.482429 -42.205568 
L 317.283012 -42.205568 
L 318.083595 -42.205568 
L 318.884178 -42.205568 
L 319.684761 -42.205568 
L 320.485344 -42.205568 
L 321.285927 -42.205568 
L 322.08651 -42.205568 
L 322.887093 -42.205568 
L 323.687676 -42.205568 
L 324.488259 -42.205568 
L 325.288842 -42.205568 
L 326.089425 -42.205568 
L 326.890008 -42.205568 
L 327.690591 -42.205568 
L 328.491174 -42.205568 
L 329.291757 -42.205568 
L 330.09234 -42.205568 
L 330.892923 -42.205568 
L 331.693506 -42.205568 
L 332.494089 -42.205568 
L 333.294672 -42.205568 
L 334.095255 -42.205568 
L 334.895838 -42.205568 
L 335.696421 -42.205568 
L 336.497004 -42.205568 
L 337.297587 -42.205568 
L 338.09817 -42.205568 
L 338.898753 -42.205568 
L 339.699336 -42.205568 
L 340.499919 -42.205568 
L 341.300502 -42.205568 
L 342.101085 -42.205568 
L 342.901668 -42.205568 
L 343.702251 -42.205568 
L 344.502834 -42.205568 
L 345.303417 -42.205568 
L 346.104 -42.205568 
L 346.904583 -42.205568 
L 347.705166 -42.205568 
L 348.505749 -42.205568 
L 349.306332 -42.205568 
L 350.106915 -42.205568 
L 350.907497 -42.205568 
L 351.70808 -42.205568 
L 352.508663 -42.205568 
L 353.309246 -42.205568 
L 354.109829 -42.205568 
L 354.910412 -42.205568 
L 355.710995 -42.205568 
L 356.511578 -42.205568 
L 357.312161 -42.205568 
L 358.112744 -42.205568 
L 358.913327 -42.205568 
L 359.71391 -42.205568 
L 360.514493 -42.205568 
L 361.315076 -42.205568 
L 362.115659 -42.205568 
L 362.916242 -42.205568 
L 363.716825 -42.205568 
L 364.517408 -42.205568 
L 365.317991 -42.205568 
L 366.118574 -42.205568 
L 366.919157 -42.205568 
L 367.71974 -42.205568 
L 368.520323 -42.205568 
L 369.320906 -42.205568 
L 370.121489 -42.205568 
L 370.922072 -42.205568 
L 371.722655 -42.205568 
L 372.523238 -42.205568 
L 373.323821 -42.205568 
L 374.124404 -42.205568 
L 374.924987 -42.205568 
L 375.72557 -42.205568 
L 376.526153 -42.205568 
L 377.326736 -42.205568 
L 378.127319 -42.205568 
L 378.927902 -42.205568 
L 379.728485 -42.205568 
L 380.529068 -42.205568 
L 381.329651 -42.205568 
L 382.130234 -42.205568 
L 382.930817 -42.205568 
L 383.7314 -42.205568 
L 384.531983 -42.205568 
L 385.332566 -42.205568 
L 386.133149 -42.205568 
L 386.933732 -42.205568 
L 387.734315 -42.205568 
L 388.534898 -42.205568 
L 389.335481 -42.205568 
L 390.136064 -42.205568 
L 390.936647 -42.205568 
L 391.73723 -42.205568 
L 392.537813 -42.205568 
L 393.338396 -42.205568 
L 394.138979 -42.205568 
L 394.939562 -42.205568 
L 395.740145 -42.205568 
L 396.540728 -42.205568 
L 397.341311 -42.205568 
L 398.141894 -42.205568 
L 398.942477 -42.205568 
L 399.74306 -42.205568 
L 400.543643 -42.205568 
L 401.344225 -42.205568 
L 402.144808 -42.205568 
L 402.945391 -42.205568 
L 403.745974 -42.205568 
L 404.546557 -42.205568 
L 405.34714 -42.205568 
L 406.147723 -42.205568 
L 406.948306 -42.205568 
L 407.748889 -42.205568 
L 408.549472 -42.205568 
L 409.350055 -42.205568 
L 410.150638 -42.205568 
L 410.951221 -42.205568 
L 411.751804 -42.205568 
L 412.552387 -42.205568 
L 413.35297 -42.205568 
L 414.153553 -42.205568 
L 414.954136 -42.205568 
L 415.754719 -42.205568 
L 416.555302 -42.205568 
L 417.355885 -42.205568 
L 418.156468 -42.205568 
L 418.957051 -42.205568 
L 419.757634 -42.205568 
L 420.558217 -42.205568 
L 421.3588 -42.205568 
L 422.159383 -42.205568 
L 422.959966 -42.205568 
L 423.760549 -42.205568 
L 424.561132 -42.205568 
L 425.361715 -42.205568 
L 426.162298 -42.205568 
L 426.962881 -42.205568 
L 427.763464 -42.205568 
L 428.564047 -42.205568 
L 429.36463 -42.205568 
L 430.165213 -42.205568 
L 430.965796 -42.205568 
L 431.766379 -42.205568 
L 432.566962 -42.205568 
L 433.367545 -42.205568 
L 434.168128 -42.205568 
L 434.968711 -42.205568 
L 435.769294 -42.205568 
L 436.569877 -42.205568 
L 437.37046 -42.205568 
L 438.171043 -42.205568 
L 438.971626 -42.205568 
L 439.772209 -42.205568 
L 440.572792 -42.205568 
L 441.373375 -42.205568 
L 442.173958 -42.205568 
L 442.974541 -42.205568 
L 443.775124 -42.205568 
L 444.575707 -42.205568 
L 445.37629 -42.205568 
L 446.176873 -42.205568 
L 446.977456 -42.205568 
L 447.778039 -42.205568 
L 448.578622 -42.205568 
L 449.379205 -42.205568 
L 449.379205 -47.122295 
L 449.379205 -47.122295 
L 448.578622 -47.122295 
L 447.778039 -47.122295 
L 446.977456 -47.122295 
L 446.176873 -47.122295 
L 445.37629 -47.122295 
L 444.575707 -47.122295 
L 443.775124 -47.122295 
L 442.974541 -47.122295 
L 442.173958 -47.122295 
L 441.373375 -47.122295 
L 440.572792 -47.122295 
L 439.772209 -47.122295 
L 438.971626 -47.122295 
L 438.171043 -47.122295 
L 437.37046 -47.122295 
L 436.569877 -47.122295 
L 435.769294 -47.122295 
L 434.968711 -47.122295 
L 434.168128 -47.122295 
L 433.367545 -47.122295 
L 432.566962 -47.122295 
L 431.766379 -47.122295 
L 430.965796 -47.122295 
L 430.165213 -47.122295 
L 429.36463 -47.122295 
L 428.564047 -47.122295 
L 427.763464 -47.122295 
L 426.962881 -47.122295 
L 426.162298 -47.122295 
L 425.361715 -47.122295 
L 424.561132 -47.122295 
L 423.760549 -47.122295 
L 422.959966 -47.122295 
L 422.159383 -47.122295 
L 421.3588 -47.122295 
L 420.558217 -47.122295 
L 419.757634 -47.122295 
L 418.957051 -47.122295 
L 418.156468 -47.122295 
L 417.355885 -47.122295 
L 416.555302 -47.122295 
L 415.754719 -47.122295 
L 414.954136 -47.122295 
L 414.153553 -47.122295 
L 413.35297 -47.122295 
L 412.552387 -47.122295 
L 411.751804 -47.122295 
L 410.951221 -47.122295 
L 410.150638 -47.122295 
L 409.350055 -47.122295 
L 408.549472 -47.122295 
L 407.748889 -47.122295 
L 406.948306 -47.122295 
L 406.147723 -47.122295 
L 405.34714 -47.122295 
L 404.546557 -47.122295 
L 403.745974 -47.122295 
L 402.945391 -47.122295 
L 402.144808 -47.122295 
L 401.344225 -47.122295 
L 400.543643 -47.122295 
L 399.74306 -47.122295 
L 398.942477 -47.122295 
L 398.141894 -47.122295 
L 397.341311 -47.122295 
L 396.540728 -47.122295 
L 395.740145 -47.122295 
L 394.939562 -47.122295 
L 394.138979 -47.122295 
L 393.338396 -47.122295 
L 392.537813 -47.122295 
L 391.73723 -47.122295 
L 390.936647 -47.122295 
L 390.136064 -47.122295 
L 389.335481 -47.122295 
L 388.534898 -47.122295 
L 387.734315 -47.122295 
L 386.933732 -47.122295 
L 386.133149 -47.122295 
L 385.332566 -47.122295 
L 384.531983 -47.122295 
L 383.7314 -47.122295 
L 382.930817 -47.122295 
L 382.130234 -47.122295 
L 381.329651 -47.122295 
L 380.529068 -47.122295 
L 379.728485 -47.122295 
L 378.927902 -47.122295 
L 378.127319 -47.122295 
L 377.326736 -47.122295 
L 376.526153 -47.122295 
L 375.72557 -47.122295 
L 374.924987 -47.122295 
L 374.124404 -47.122295 
L 373.323821 -47.122295 
L 372.523238 -47.122295 
L 371.722655 -47.122295 
L 370.922072 -47.122295 
L 370.121489 -47.122295 
L 369.320906 -47.122295 
L 368.520323 -47.122295 
L 367.71974 -47.122295 
L 366.919157 -47.122295 
L 366.118574 -47.122295 
L 365.317991 -47.122295 
L 364.517408 -47.122295 
L 363.716825 -47.122295 
L 362.916242 -47.122295 
L 362.115659 -47.122295 
L 361.315076 -47.122295 
L 360.514493 -47.122295 
L 359.71391 -47.122295 
L 358.913327 -47.122295 
L 358.112744 -47.122295 
L 357.312161 -47.122295 
L 356.511578 -47.122295 
L 355.710995 -47.122295 
L 354.910412 -47.122295 
L 354.109829 -47.122295 
L 353.309246 -47.122295 
L 352.508663 -47.122295 
L 351.70808 -47.122295 
L 350.907497 -47.122295 
L 350.106915 -47.122295 
L 349.306332 -47.122295 
L 348.505749 -47.122295 
L 347.705166 -47.122295 
L 346.904583 -47.122295 
L 346.104 -47.122295 
L 345.303417 -47.122295 
L 344.502834 -47.122295 
L 343.702251 -47.122295 
L 342.901668 -47.122295 
L 342.101085 -47.122295 
L 341.300502 -47.122295 
L 340.499919 -47.122295 
L 339.699336 -47.122295 
L 338.898753 -47.122295 
L 338.09817 -47.122295 
L 337.297587 -47.122295 
L 336.497004 -47.122295 
L 335.696421 -47.122295 
L 334.895838 -47.122295 
L 334.095255 -47.122295 
L 333.294672 -47.122295 
L 332.494089 -47.122295 
L 331.693506 -47.122295 
L 330.892923 -47.122295 
L 330.09234 -47.122295 
L 329.291757 -47.122295 
L 328.491174 -47.122295 
L 327.690591 -47.122295 
L 326.890008 -47.122295 
L 326.089425 -47.122295 
L 325.288842 -47.122295 
L 324.488259 -47.122295 
L 323.687676 -47.122295 
L 322.887093 -47.122295 
L 322.08651 -47.122295 
L 321.285927 -47.122295 
L 320.485344 -47.122295 
L 319.684761 -47.122295 
L 318.884178 -47.122295 
L 318.083595 -47.122295 
L 317.283012 -47.122295 
L 316.482429 -47.122295 
L 315.681846 -47.122295 
L 314.881263 -47.122295 
L 314.08068 -47.122295 
L 313.280097 -47.122295 
L 312.479514 -47.122295 
L 311.678931 -47.122295 
L 310.878348 -47.122295 
L 310.077765 -47.122295 
L 309.277182 -47.122295 
L 308.476599 -47.122295 
L 307.676016 -47.122295 
L 306.875433 -47.122295 
L 306.07485 -47.122295 
L 305.274267 -47.122295 
L 304.473684 -47.122295 
L 303.673101 -47.122295 
L 302.872518 -47.122295 
L 302.071935 -47.122295 
L 301.271352 -47.122295 
L 300.470769 -47.122295 
L 299.670187 -47.122295 
L 298.869604 -47.122295 
L 298.069021 -47.122295 
L 297.268438 -47.122295 
L 296.467855 -47.122295 
L 295.667272 -47.122295 
L 294.866689 -47.122295 
L 294.066106 -47.122295 
L 293.265523 -47.122295 
L 292.46494 -47.122295 
L 291.664357 -47.122295 
L 290.863774 -47.122295 
L 290.063191 -47.122295 
L 289.262608 -47.122295 
L 288.462025 -47.122295 
L 287.661442 -47.122295 
L 286.860859 -47.122295 
L 286.060276 -47.122295 
L 285.259693 -47.122295 
L 284.45911 -47.122295 
L 283.658527 -47.122295 
L 282.857944 -47.122295 
L 282.057361 -47.122295 
L 281.256778 -47.122295 
L 280.456195 -47.122295 
L 279.655612 -47.122295 
L 278.855029 -47.122295 
L 278.054446 -47.122295 
L 277.253863 -47.122295 
L 276.45328 -47.122295 
L 275.652697 -47.122295 
L 274.852114 -47.122295 
L 274.051531 -47.122295 
L 273.250948 -47.122295 
L 272.450365 -47.122295 
L 271.649782 -47.122295 
L 270.849199 -47.122295 
L 270.048616 -47.122295 
L 269.248033 -47.122295 
L 268.44745 -47.122295 
L 267.646867 -47.122295 
L 266.846284 -47.122295 
L 266.045701 -47.122295 
L 265.245118 -47.122295 
L 264.444535 -47.122295 
L 263.643952 -47.122295 
L 262.843369 -47.122295 
L 262.042786 -47.122295 
L 261.242203 -47.122295 
L 260.44162 -47.122295 
L 259.641037 -47.122295 
L 258.840454 -47.122295 
L 258.039871 -47.122295 
L 257.239288 -47.122295 
L 256.438705 -47.122295 
L 255.638122 -47.122295 
L 254.837539 -47.122295 
L 254.036956 -47.122295 
L 253.236373 -47.122295 
L 252.43579 -47.122295 
L 251.635207 -47.122295 
L 250.834624 -47.122295 
L 250.034041 -47.122295 
L 249.233459 -47.122295 
L 248.432876 -47.122295 
L 247.632293 -47.122295 
L 246.83171 -47.122295 
L 246.031127 -47.122295 
L 245.230544 -47.122295 
L 244.429961 -47.122295 
L 243.629378 -47.122295 
L 242.828795 -47.122295 
L 242.028212 -47.122295 
L 241.227629 -47.122295 
L 240.427046 -47.122295 
L 239.626463 -47.122295 
L 238.82588 -47.122295 
L 238.025297 -47.122295 
L 237.224714 -47.122295 
L 236.424131 -47.122295 
L 235.623548 -47.122295 
L 234.822965 -47.122295 
L 234.022382 -47.122295 
L 233.221799 -47.122295 
L 232.421216 -47.122295 
L 231.620633 -47.122295 
L 230.82005 -47.122295 
L 230.019467 -47.122295 
L 229.218884 -47.122295 
L 228.418301 -47.122295 
L 227.617718 -47.122295 
L 226.817135 -47.122295 
L 226.016552 -47.122295 
L 225.215969 -47.122295 
L 224.415386 -47.122295 
L 223.614803 -47.122295 
L 222.81422 -47.122295 
L 222.013637 -47.122295 
L 221.213054 -47.122295 
L 220.412471 -47.122295 
L 219.611888 -47.122295 
L 218.811305 -47.122295 
L 218.010722 -47.122295 
L 217.210139 -47.122295 
L 216.409556 -47.122295 
L 215.608973 -47.122295 
L 214.80839 -47.122295 
L 214.007807 -47.122295 
L 213.207224 -47.122295 
L 212.406641 -47.122295 
L 211.606058 -47.122295 
L 210.805475 -47.122295 
L 210.004892 -47.122295 
L 209.204309 -47.122295 
L 208.403726 -47.122295 
L 207.603143 -47.122295 
L 206.80256 -47.122295 
L 206.001977 -47.122295 
L 205.201394 -47.122295 
L 204.400811 -47.122295 
L 203.600228 -47.122295 
L 202.799645 -47.122295 
L 201.999062 -47.122295 
L 201.198479 -47.122295 
L 200.397896 -47.122295 
L 199.597313 -47.122295 
L 198.796731 -47.122295 
L 197.996148 -47.122295 
L 197.195565 -47.122295 
L 196.394982 -47.122295 
L 195.594399 -47.122295 
L 194.793816 -47.122295 
L 193.993233 -47.122295 
L 193.19265 -47.122295 
L 192.392067 -47.122295 
L 191.591484 -47.122295 
L 190.790901 -47.122295 
L 189.990318 -47.122295 
L 189.189735 -47.122295 
L 188.389152 -47.122295 
L 187.588569 -47.122295 
L 186.787986 -47.122295 
L 185.987403 -47.122295 
L 185.18682 -47.122295 
L 184.386237 -47.122295 
L 183.585654 -47.122295 
L 182.785071 -47.122295 
L 181.984488 -47.122295 
L 181.183905 -47.122295 
L 180.383322 -47.122295 
L 179.582739 -47.122295 
L 178.782156 -47.122295 
L 177.981573 -47.122295 
L 177.18099 -47.122295 
L 176.380407 -47.122295 
L 175.579824 -47.122295 
L 174.779241 -47.122295 
L 173.978658 -47.122295 
L 173.178075 -47.122295 
L 172.377492 -47.122295 
L 171.576909 -47.122295 
L 170.776326 -47.122295 
L 169.975743 -47.122295 
L 169.17516 -47.122295 
L 168.374577 -47.122295 
L 167.573994 -47.122295 
L 166.773411 -47.122295 
L 165.972828 -47.122295 
L 165.172245 -47.122295 
L 164.371662 -47.122295 
L 163.571079 -47.122295 
L 162.770496 -47.122295 
L 161.969913 -47.122295 
L 161.16933 -47.122295 
L 160.368747 -47.122295 
L 159.568164 -47.122295 
L 158.767581 -47.122295 
L 157.966998 -47.122295 
L 157.166415 -47.122295 
L 156.365832 -47.122295 
L 155.565249 -47.122295 
L 154.764666 -47.122295 
L 153.964083 -47.122295 
L 153.1635 -47.122295 
L 152.362917 -47.122295 
L 151.562334 -47.122295 
L 150.761751 -47.122295 
L 149.961168 -47.122295 
L 149.160585 -47.122295 
L 148.360003 -47.122295 
L 147.55942 -47.122295 
L 146.758837 -47.122295 
L 145.958254 -47.122295 
L 145.157671 -47.122295 
L 144.357088 -47.122295 
L 143.556505 -47.122295 
L 142.755922 -47.122295 
L 141.955339 -47.122295 
L 141.154756 -47.122295 
L 140.354173 -47.122295 
L 139.55359 -47.122295 
L 138.753007 -47.122295 
L 137.952424 -47.122295 
L 137.151841 -47.122295 
L 136.351258 -47.122295 
L 135.550675 -47.122295 
L 134.750092 -47.122295 
L 133.949509 -47.122295 
L 133.148926 -47.122295 
L 132.348343 -47.122295 
L 131.54776 -47.122295 
L 130.747177 -47.122295 
L 129.946594 -47.122295 
L 129.146011 -47.122295 
L 128.345428 -47.122295 
L 127.544845 -47.122295 
L 126.744262 -47.122295 
L 125.943679 -47.122295 
L 125.143096 -47.122295 
L 124.342513 -47.122295 
L 123.54193 -47.122295 
L 122.741347 -47.122295 
L 121.940764 -47.122295 
L 121.140181 -47.122295 
L 120.339598 -47.122295 
L 119.539015 -47.122295 
L 118.738432 -47.122295 
L 117.937849 -47.122295 
L 117.137266 -47.122295 
L 116.336683 -47.122295 
L 115.5361 -47.122295 
L 114.735517 -47.122295 
L 113.934934 -47.122295 
L 113.134351 -47.122295 
L 112.333768 -47.122295 
L 111.533185 -47.122295 
L 110.732602 -47.122295 
L 109.932019 -47.122295 
L 109.131436 -47.122295 
L 108.330853 -47.122295 
L 107.53027 -47.122295 
L 106.729687 -47.122295 
L 105.929104 -47.122295 
L 105.128521 -47.122295 
L 104.327938 -47.122295 
L 103.527355 -47.122295 
L 102.726772 -47.122295 
L 101.926189 -47.122295 
L 101.125606 -47.122295 
L 100.325023 -47.122295 
L 99.52444 -47.122295 
L 98.723857 -47.122295 
L 97.923275 -47.122295 
L 97.122692 -47.122295 
L 96.322109 -47.122295 
L 95.521526 -47.122295 
L 94.720943 -47.122295 
L 93.92036 -47.122295 
L 93.119777 -47.122295 
L 92.319194 -47.122295 
L 91.518611 -47.122295 
L 90.718028 -47.122295 
L 89.917445 -47.122295 
L 89.116862 -47.122295 
L 88.316279 -47.122295 
L 87.515696 -47.122295 
L 86.715113 -47.122295 
L 85.91453 -47.122295 
L 85.113947 -47.122295 
L 84.313364 -47.122295 
L 83.512781 -47.122295 
L 82.712198 -47.122295 
L 81.911615 -47.122295 
L 81.111032 -47.122295 
L 80.310449 -47.122295 
L 79.509866 -47.122295 
L 78.709283 -47.122295 
L 77.9087 -47.122295 
L 77.108117 -47.122295 
L 76.307534 -47.122295 
L 75.506951 -47.122295 
L 74.706368 -47.122295 
L 73.905785 -47.122295 
L 73.105202 -47.122295 
L 72.304619 -47.122295 
L 71.504036 -47.122295 
L 70.703453 -47.122295 
L 69.90287 -47.122295 
L 69.102287 -47.122295 
L 68.301704 -47.122295 
L 67.501121 -47.122295 
L 66.700538 -47.122295 
L 65.899955 -47.122295 
L 65.099372 -47.122295 
L 64.298789 -47.122295 
L 63.498206 -47.122295 
L 62.697623 -47.122295 
L 61.89704 -47.122295 
L 61.096457 -47.122295 
L 60.295874 -47.122295 
L 59.495291 -47.122295 
L 58.694708 -47.122295 
L 57.894125 -47.122295 
L 57.093542 -47.122295 
L 56.292959 -47.122295 
L 55.492376 -47.122295 
L 54.691793 -47.122295 
L 53.89121 -47.122295 
L 53.090627 -47.122295 
L 52.290044 -47.122295 
L 51.489461 -47.122295 
L 50.688878 -47.122295 
L 49.888295 -47.122295 
z
" style="stroke: #059669; stroke-opacity: 0.08"/>
    </defs>
    <g clip-path="url(#p27ab5fe2d1)">
     <use xlink:href="#mb7d809925e" x="0" y="311.13375" style="fill: #059669; fill-opacity: 0.08; stroke: #059669; stroke-opacity: 0.08"/>
    </g>
   </g>
   <g id="line2d_25">
    <path d="M 49.888295 23.091818 
L 53.89121 36.840734 
L 57.894125 49.820712 
L 61.89704 62.074758 
L 65.899955 73.643471 
L 69.90287 84.565179 
L 73.905785 94.876067 
L 77.9087 104.610298 
L 81.911615 113.800121 
L 85.91453 122.475984 
L 89.917445 130.666631 
L 93.92036 138.399199 
L 97.923275 145.699306 
L 101.926189 152.59114 
L 105.929104 159.097534 
L 109.932019 165.240044 
L 113.934934 171.039021 
L 118.738432 177.571305 
L 123.54193 183.667681 
L 128.345428 189.357237 
L 133.148926 194.667121 
L 137.952424 199.622668 
L 142.755922 204.247525 
L 147.55942 208.563758 
L 152.362917 212.591963 
L 157.166415 216.35136 
L 161.969913 219.859887 
L 167.573994 223.658368 
L 173.178075 227.1628 
L 178.782156 230.395947 
L 184.386237 233.37881 
L 189.990318 236.130762 
L 196.394982 239.01597 
L 202.799645 241.647365 
L 209.204309 244.047274 
L 216.409556 246.495759 
L 223.614803 248.703294 
L 231.620633 250.902272 
L 239.626463 252.862164 
L 248.432876 254.772838 
L 257.239288 256.456283 
L 266.846284 258.06528 
L 277.253863 259.574982 
L 288.462025 260.967033 
L 300.470769 262.229454 
L 313.280097 263.356196 
L 327.690591 264.398894 
L 343.702251 265.330257 
L 362.115659 266.167111 
L 382.930817 266.881237 
L 406.948306 267.478945 
L 436.569877 267.981552 
L 449.379205 268.140777 
L 449.379205 268.140777 
" clip-path="url(#p27ab5fe2d1)" style="fill: none; stroke: #2563eb; stroke-width: 2.5; stroke-linecap: round"/>
   </g>
   <g id="line2d_26">
    <path d="M 49.888295 121.426364 
L 53.89121 130.056425 
L 57.894125 138.181557 
L 61.89704 145.831302 
L 65.899955 153.033475 
L 69.90287 159.814262 
L 73.905785 166.198317 
L 77.9087 172.208853 
L 81.911615 177.867724 
L 85.91453 183.195504 
L 89.917445 188.211566 
L 94.720943 193.844975 
L 99.52444 199.085215 
L 104.327938 203.959725 
L 109.131436 208.494032 
L 113.934934 212.711878 
L 118.738432 216.635351 
L 123.54193 220.284994 
L 128.345428 223.679921 
L 133.949509 227.342381 
L 139.55359 230.708396 
L 145.157671 233.801961 
L 150.761751 236.645128 
L 156.365832 239.258165 
L 162.770496 241.986526 
L 169.17516 244.463996 
L 175.579824 246.713645 
L 182.785071 248.998192 
L 189.990318 251.047797 
L 197.996148 253.078885 
L 206.001977 254.879257 
L 214.80839 256.624374 
L 224.415386 258.281868 
L 234.022382 259.716074 
L 244.429961 261.052611 
L 255.638122 262.275934 
L 268.44745 263.443122 
L 282.057361 264.459724 
L 297.268438 265.374647 
L 314.881263 266.202636 
L 334.895838 266.91197 
L 358.112744 267.506926 
L 386.133149 267.996241 
L 421.3588 268.379938 
L 449.379205 268.568689 
L 449.379205 268.568689 
" clip-path="url(#p27ab5fe2d1)" style="fill: none; stroke: #f59e0b; stroke-width: 2.5; stroke-linecap: round"/>
   </g>
   <g id="line2d_27">
    <path d="M 29.91375 264.011455 
L 469.35375 264.011455 
" clip-path="url(#p27ab5fe2d1)" style="fill: none; stroke-dasharray: 7.4,3.2; stroke-dashoffset: 0; stroke: #059669; stroke-opacity: 0.7; stroke-width: 2"/>
   </g>
   <g id="patch_3">
    <path d="M 29.91375 281.22 
L 29.91375 10.8 
" style="fill: none; stroke: #cccccc; stroke-linejoin: miter; stroke-linecap: square"/>
   </g>
   <g id="patch_4">
    <path d="M 469.35375 281.22 
L 469.35375 10.8 
" style="fill: none; stroke: #cccccc; stroke-linejoin: miter; stroke-linecap: square"/>
   </g>
   <g id="patch_5">
    <path d="M 29.91375 281.22 
L 469.35375 281.22 
" style="fill: none; stroke: #cccccc; stroke-linejoin: miter; stroke-linecap: square"/>
   </g>
   <g id="patch_6">
    <path d="M 29.91375 10.8 
L 469.35375 10.8 
" style="fill: none; stroke: #cccccc; stroke-linejoin: miter; stroke-linecap: square"/>
   </g>
   <g id="text_3">
    <g id="patch_7">
     <path d="M 337.52175 234.166082 
L 429.109406 234.166082 
Q 431.809406 234.166082 431.809406 231.466082 
L 431.809406 212.421801 
Q 431.809406 209.721801 429.109406 209.721801 
L 337.52175 209.721801 
Q 334.82175 209.721801 334.82175 212.421801 
L 334.82175 231.466082 
Q 334.82175 234.166082 337.52175 234.166082 
z
" style="fill: #f8fafc; stroke: #475569; stroke-linejoin: miter"/>
    </g>
    <!-- When do they reach -->
    <g style="fill: #475569" transform="translate(337.52175 219.388364) scale(0.09 -0.09)">
     <defs>
      <path id="DejaVuSerif-Italic-57" d="M 4425 0 
L 3913 0 
L 3581 3794 
L 1775 0 
L 1263 0 
L 881 4331 
L 419 4331 
L 484 4666 
L 2188 4666 
L 2122 4331 
L 1541 4331 
L 1844 884 
L 3641 4666 
L 4147 4666 
L 4484 844 
L 6141 4331 
L 5603 4331 
L 5669 4666 
L 7013 4666 
L 6947 4331 
L 6488 4331 
L 4425 0 
z
" transform="scale(0.015625)"/>
      <path id="DejaVuSerif-Italic-68" d="M 309 0 
L 1191 4531 
L 641 4531 
L 703 4863 
L 1828 4863 
L 1416 2731 
Q 1641 3069 1928 3241 
Q 2216 3413 2553 3413 
Q 3103 3413 3300 3097 
Q 3422 2906 3422 2588 
Q 3422 2378 3369 2113 
L 3022 331 
L 3534 331 
L 3472 0 
L 2381 0 
L 2756 1931 
Q 2819 2253 2819 2469 
Q 2819 2659 2769 2763 
Q 2666 2988 2284 2988 
Q 1884 2988 1617 2697 
Q 1350 2406 1244 1850 
L 884 0 
L 309 0 
z
" transform="scale(0.015625)"/>
      <path id="DejaVuSerif-Italic-65" d="M 938 1275 
Q 925 1156 925 1050 
Q 925 756 1031 563 
Q 1216 219 1709 219 
Q 2072 219 2250 328 
Q 2569 525 2644 778 
L 3066 778 
Q 2941 381 2475 103 
Q 2150 -91 1506 -91 
Q 863 -91 516 388 
Q 272 722 272 1206 
Q 272 1419 319 1659 
Q 472 2450 1000 2931 
Q 1528 3413 2278 3413 
Q 3500 3413 3500 2547 
Q 3500 1913 2859 1603 
Q 2206 1288 938 1275 
z
M 2541 1975 
Q 2891 2181 2891 2569 
Q 2891 3103 2181 3103 
Q 1763 3103 1472 2784 
Q 1181 2466 1003 1606 
Q 2006 1653 2541 1975 
z
" transform="scale(0.015625)"/>
      <path id="DejaVuSerif-Italic-6e" d="M 450 0 
L 1031 2988 
L 481 2988 
L 544 3322 
L 1669 3322 
L 1556 2731 
Q 1781 3069 2068 3241 
Q 2356 3413 2694 3413 
Q 3244 3413 3444 3097 
Q 3563 2906 3563 2588 
Q 3563 2378 3509 2113 
L 3163 331 
L 3675 331 
L 3613 0 
L 2522 0 
L 2897 1931 
Q 2959 2253 2959 2469 
Q 2959 2659 2909 2769 
Q 2803 2994 2425 2994 
Q 2025 2994 1759 2701 
Q 1494 2409 1384 1850 
L 1025 0 
L 450 0 
z
" transform="scale(0.015625)"/>
      <path id="DejaVuSerif-Italic-20" transform="scale(0.015625)"/>
      <path id="DejaVuSerif-Italic-64" d="M 3841 4863 
L 2897 0 
L 2322 0 
L 2422 519 
Q 2191 206 1902 57 
Q 1613 -91 1228 -91 
Q 616 -91 322 394 
Q 125 716 125 1166 
Q 125 1397 178 1663 
Q 331 2444 812 2928 
Q 1294 3413 1909 3413 
Q 2294 3413 2525 3264 
Q 2756 3116 2866 2803 
L 3200 4531 
L 2656 4531 
L 2722 4863 
L 3841 4863 
z
M 2613 1497 
L 2675 1825 
Q 2722 2069 2722 2266 
Q 2722 2550 2622 2738 
Q 2456 3053 2019 3053 
Q 1575 3053 1279 2703 
Q 984 2353 850 1663 
Q 788 1347 788 1103 
Q 788 813 875 622 
Q 1031 269 1475 269 
Q 1913 269 2203 583 
Q 2494 897 2613 1497 
z
" transform="scale(0.015625)"/>
      <path id="DejaVuSerif-Italic-6f" d="M 1644 219 
Q 2106 219 2414 584 
Q 2722 950 2859 1663 
Q 2922 1988 2922 2241 
Q 2922 2541 2834 2738 
Q 2669 3103 2206 3103 
Q 1744 3103 1436 2739 
Q 1128 2375 991 1663 
Q 928 1338 928 1088 
Q 928 784 1019 584 
Q 1184 219 1644 219 
z
M 1584 -91 
Q 859 -91 513 388 
Q 272 722 272 1203 
Q 272 1419 319 1663 
Q 472 2456 1005 2934 
Q 1538 3413 2266 3413 
Q 2994 3413 3341 2934 
Q 3578 2603 3578 2122 
Q 3578 1906 3531 1663 
Q 3378 869 2845 389 
Q 2313 -91 1584 -91 
z
" transform="scale(0.015625)"/>
      <path id="DejaVuSerif-Italic-74" d="M 856 2988 
L 350 2988 
L 416 3322 
L 922 3322 
L 1122 4353 
L 1700 4353 
L 1500 3322 
L 2581 3322 
L 2516 2988 
L 1434 2988 
L 1025 878 
Q 978 631 978 488 
Q 978 388 1000 338 
Q 1059 219 1278 219 
Q 1503 219 1633 351 
Q 1763 484 1825 781 
L 2259 781 
Q 2147 328 1884 118 
Q 1622 -91 1169 -91 
Q 672 -91 506 131 
Q 406 266 406 516 
Q 406 675 447 878 
L 856 2988 
z
" transform="scale(0.015625)"/>
      <path id="DejaVuSerif-Italic-79" d="M 3681 3294 
Q 3372 1506 2828 563 
Q 2031 -822 1391 -1238 
Q 1106 -1422 356 -1422 
Q 209 -1422 60 -1397 
Q -88 -1372 -238 -1325 
L -113 -691 
L 181 -691 
Q 175 -741 175 -788 
Q 175 -919 231 -994 
Q 309 -1100 513 -1100 
Q 1063 -1100 1541 -622 
L 756 2988 
L 378 2988 
L 444 3322 
L 1303 3322 
L 2041 25 
Q 2544 778 2666 1088 
Q 3059 2059 3138 2959 
L 2759 2959 
L 2825 3294 
L 3681 3294 
z
" transform="scale(0.015625)"/>
      <path id="DejaVuSerif-Italic-72" d="M 3375 3328 
L 3213 2497 
L 2881 2497 
Q 2891 2559 2891 2613 
Q 2891 2775 2816 2866 
Q 2719 2988 2484 2988 
Q 2059 2988 1775 2694 
Q 1491 2400 1384 1850 
L 1025 0 
L 450 0 
L 1031 2994 
L 481 2994 
L 544 3322 
L 1669 3322 
L 1556 2731 
Q 1791 3078 2089 3245 
Q 2388 3413 2769 3413 
Q 2909 3413 3059 3391 
Q 3209 3369 3375 3328 
z
" transform="scale(0.015625)"/>
      <path id="DejaVuSerif-Italic-61" d="M 2325 519 
Q 1909 -91 1238 -91 
Q 688 -91 409 281 
Q 216 544 216 919 
Q 216 1078 250 1256 
Q 463 2359 1231 2928 
Q 1884 3413 2675 3413 
Q 3206 3413 3388 3322 
L 2806 331 
L 3300 331 
L 3238 0 
L 2225 0 
L 2325 519 
z
M 822 938 
Q 822 269 1469 269 
Q 1863 269 2130 583 
Q 2397 897 2516 1497 
L 2806 3003 
L 2806 3003 
Q 2806 3094 2556 3094 
Q 1956 3094 1491 2625 
Q 1028 2153 863 1297 
Q 822 1097 822 938 
z
" transform="scale(0.015625)"/>
      <path id="DejaVuSerif-Italic-63" d="M 3163 997 
Q 2938 466 2536 187 
Q 2134 -91 1584 -91 
Q 859 -91 513 388 
Q 272 722 272 1203 
Q 272 1419 319 1663 
Q 475 2459 1008 2936 
Q 1541 3413 2266 3413 
Q 2581 3413 2879 3339 
Q 3178 3266 3463 3116 
L 3300 2266 
L 2966 2266 
Q 2966 2309 2966 2347 
Q 2966 2722 2803 2903 
Q 2622 3103 2213 3103 
Q 1747 3103 1439 2742 
Q 1131 2381 991 1663 
Q 928 1334 928 1078 
Q 928 778 1016 581 
Q 1181 219 1650 219 
Q 2022 219 2281 412 
Q 2541 606 2700 997 
L 3163 997 
z
" transform="scale(0.015625)"/>
     </defs>
     <use xlink:href="#DejaVuSerif-Italic-57"/>
     <use xlink:href="#DejaVuSerif-Italic-68" transform="translate(102.783203 0)"/>
     <use xlink:href="#DejaVuSerif-Italic-65" transform="translate(167.1875 0)"/>
     <use xlink:href="#DejaVuSerif-Italic-6e" transform="translate(226.367188 0)"/>
     <use xlink:href="#DejaVuSerif-Italic-20" transform="translate(290.771484 0)"/>
     <use xlink:href="#DejaVuSerif-Italic-64" transform="translate(322.558594 0)"/>
     <use xlink:href="#DejaVuSerif-Italic-6f" transform="translate(386.572266 0)"/>
     <use xlink:href="#DejaVuSerif-Italic-20" transform="translate(446.777344 0)"/>
     <use xlink:href="#DejaVuSerif-Italic-74" transform="translate(478.564453 0)"/>
     <use xlink:href="#DejaVuSerif-Italic-68" transform="translate(518.75 0)"/>
     <use xlink:href="#DejaVuSerif-Italic-65" transform="translate(583.154297 0)"/>
     <use xlink:href="#DejaVuSerif-Italic-79" transform="translate(642.333984 0)"/>
     <use xlink:href="#DejaVuSerif-Italic-20" transform="translate(698.828125 0)"/>
     <use xlink:href="#DejaVuSerif-Italic-72" transform="translate(730.615234 0)"/>
     <use xlink:href="#DejaVuSerif-Italic-65" transform="translate(778.417969 0)"/>
     <use xlink:href="#DejaVuSerif-Italic-61" transform="translate(837.597656 0)"/>
     <use xlink:href="#DejaVuSerif-Italic-63" transform="translate(897.216797 0)"/>
     <use xlink:href="#DejaVuSerif-Italic-68" transform="translate(953.222656 0)"/>
    </g>
    <!-- safe levels? -->
    <g style="fill: #475569" transform="translate(337.52175 229.594364) scale(0.09 -0.09)">
     <defs>
      <path id="DejaVuSerif-Italic-73" d="M 222 959 
L 553 959 
Q 541 869 541 788 
Q 541 219 1313 219 
Q 2088 219 2200 788 
Q 2209 844 2209 944 
Q 2209 1041 2103 1158 
Q 1997 1275 1550 1428 
L 1159 1569 
Q 759 1706 629 1882 
Q 500 2059 500 2263 
Q 500 2344 516 2438 
Q 606 2894 990 3153 
Q 1375 3413 1931 3413 
Q 2484 3413 3066 3144 
L 2925 2419 
L 2594 2419 
Q 2606 2491 2606 2553 
Q 2606 2781 2448 2942 
Q 2291 3103 1925 3103 
Q 1191 3103 1091 2591 
Q 1078 2538 1078 2444 
Q 1078 2347 1179 2237 
Q 1281 2128 1678 1997 
L 2106 1856 
Q 2550 1709 2716 1488 
Q 2831 1331 2831 1178 
Q 2831 522 2306 181 
Q 1894 -91 1262 -91 
Q 631 -91 72 184 
L 222 959 
z
" transform="scale(0.015625)"/>
      <path id="DejaVuSerif-Italic-66" d="M 3191 4078 
L 2888 4078 
Q 2900 4144 2900 4203 
Q 2900 4347 2825 4434 
Q 2719 4556 2472 4556 
Q 2150 4556 1984 4379 
Q 1819 4203 1731 3750 
L 1647 3322 
L 2575 3322 
L 2509 2988 
L 1581 2988 
L 963 -206 
Q 853 -763 509 -1047 
Q 166 -1331 -394 -1331 
L -356 -1025 
Q -28 -1025 131 -850 
Q 297 -663 388 -206 
L 1006 2988 
L 456 2988 
L 522 3322 
L 1072 3322 
L 1153 3738 
Q 1263 4297 1606 4578 
Q 1950 4863 2509 4863 
Q 2719 4863 2920 4825 
Q 3122 4788 3316 4709 
L 3191 4078 
z
" transform="scale(0.015625)"/>
      <path id="DejaVuSerif-Italic-6c" d="M 903 331 
L 1447 331 
L 1384 0 
L 266 0 
L 1147 4531 
L 594 4531 
L 656 4863 
L 1784 4863 
L 903 331 
z
" transform="scale(0.015625)"/>
      <path id="DejaVuSerif-Italic-76" d="M 1681 0 
L 1259 0 
L 619 2988 
L 241 2988 
L 303 3322 
L 1163 3322 
L 1725 703 
Q 2084 1016 2325 1413 
Q 2825 2238 3003 2988 
L 2622 2988 
L 2688 3322 
L 3547 3322 
Q 3206 2034 2775 1313 
Q 2400 688 1681 0 
z
" transform="scale(0.015625)"/>
      <path id="DejaVuSerif-Italic-3f" d="M 797 29 
Q 700 150 734 325 
Q 769 500 912 622 
Q 1056 744 1234 744 
Q 1406 744 1504 622 
Q 1603 500 1569 325 
Q 1538 153 1391 31 
Q 1244 -91 1072 -91 
Q 894 -91 797 29 
z
M 847 4459 
Q 1209 4606 1521 4678 
Q 1834 4750 2097 4750 
Q 2791 4750 3127 4415 
Q 3463 4081 3353 3513 
Q 3238 2931 2822 2562 
Q 2406 2194 1678 2034 
L 1522 1241 
L 1138 1241 
L 1338 2266 
Q 1916 2400 2258 2715 
Q 2600 3031 2694 3519 
Q 2778 3947 2597 4194 
Q 2416 4441 2022 4441 
Q 1666 4441 1400 4236 
Q 1134 4031 994 3647 
L 691 3647 
L 847 4459 
z
" transform="scale(0.015625)"/>
     </defs>
     <use xlink:href="#DejaVuSerif-Italic-73"/>
     <use xlink:href="#DejaVuSerif-Italic-61" transform="translate(51.318359 0)"/>
     <use xlink:href="#DejaVuSerif-Italic-66" transform="translate(110.9375 0)"/>
     <use xlink:href="#DejaVuSerif-Italic-65" transform="translate(147.949219 0)"/>
     <use xlink:href="#DejaVuSerif-Italic-20" transform="translate(207.128906 0)"/>
     <use xlink:href="#DejaVuSerif-Italic-6c" transform="translate(238.916016 0)"/>
     <use xlink:href="#DejaVuSerif-Italic-65" transform="translate(270.898438 0)"/>
     <use xlink:href="#DejaVuSerif-Italic-76" transform="translate(330.078125 0)"/>
     <use xlink:href="#DejaVuSerif-Italic-65" transform="translate(386.572266 0)"/>
     <use xlink:href="#DejaVuSerif-Italic-6c" transform="translate(445.751953 0)"/>
     <use xlink:href="#DejaVuSerif-Italic-73" transform="translate(477.734375 0)"/>
     <use xlink:href="#DejaVuSerif-Italic-3f" transform="translate(529.052734 0)"/>
    </g>
   </g>
   <g id="line2d_28">
    <defs>
     <path id="m34ce58f2fa" d="M -4 4 
L 4 4 
L 4 -4 
L -4 -4 
z
" style="stroke: #2563eb; stroke-linejoin: miter"/>
    </defs>
    <g clip-path="url(#p27ab5fe2d1)">
     <use xlink:href="#m34ce58f2fa" x="321.981779" y="264.011455" style="fill: #2563eb; stroke: #2563eb; stroke-linejoin: miter"/>
    </g>
   </g>
   <g id="line2d_29">
    <defs>
     <path id="mfcb5d4be4b" d="M -4 4 
L 4 4 
L 4 -4 
L -4 -4 
z
" style="stroke: #f59e0b; stroke-linejoin: miter"/>
    </defs>
    <g clip-path="url(#p27ab5fe2d1)">
     <use xlink:href="#mfcb5d4be4b" x="275.710038" y="264.011455" style="fill: #f59e0b; stroke: #f59e0b; stroke-linejoin: miter"/>
    </g>
   </g>
   <g id="legend_1">
    <g id="line2d_30">
     <path d="M 319.292813 22.588594 
L 328.292813 22.588594 
L 337.292813 22.588594 
" style="fill: none; stroke: #2563eb; stroke-width: 2.5; stroke-linecap: round"/>
    </g>
    <g id="text_4">
     <!-- Cs-137 -->
     <g style="fill: #262626" transform="translate(344.492813 25.738594) scale(0.09 -0.09)">
      <defs>
       <path id="DejaVuSerif-43" d="M 4513 1234 
Q 4306 581 3820 245 
Q 3334 -91 2591 -91 
Q 2134 -91 1743 65 
Q 1353 222 1050 525 
Q 700 875 529 1320 
Q 359 1766 359 2328 
Q 359 3416 987 4083 
Q 1616 4750 2644 4750 
Q 3025 4750 3456 4650 
Q 3888 4550 4384 4347 
L 4384 3272 
L 4031 3272 
Q 3916 3859 3567 4137 
Q 3219 4416 2591 4416 
Q 1844 4416 1459 3886 
Q 1075 3356 1075 2328 
Q 1075 1303 1459 773 
Q 1844 244 2591 244 
Q 3113 244 3450 492 
Q 3788 741 3938 1234 
L 4513 1234 
z
" transform="scale(0.015625)"/>
       <path id="DejaVuSerif-2d" d="M 281 1959 
L 1881 1959 
L 1881 1472 
L 281 1472 
L 281 1959 
z
" transform="scale(0.015625)"/>
       <path id="DejaVuSerif-31" d="M 909 0 
L 909 331 
L 1722 331 
L 1722 4213 
L 781 3603 
L 781 4013 
L 1919 4750 
L 2350 4750 
L 2350 331 
L 3163 331 
L 3163 0 
L 909 0 
z
" transform="scale(0.015625)"/>
       <path id="DejaVuSerif-33" d="M 622 4469 
Q 988 4606 1323 4678 
Q 1659 4750 1953 4750 
Q 2638 4750 3022 4454 
Q 3406 4159 3406 3634 
Q 3406 3213 3140 2930 
Q 2875 2647 2388 2547 
Q 2963 2466 3280 2130 
Q 3597 1794 3597 1259 
Q 3597 606 3158 257 
Q 2719 -91 1894 -91 
Q 1528 -91 1179 -12 
Q 831 66 488 225 
L 488 1131 
L 838 1131 
Q 869 681 1141 450 
Q 1413 219 1906 219 
Q 2384 219 2661 495 
Q 2938 772 2938 1253 
Q 2938 1803 2653 2086 
Q 2369 2369 1819 2369 
L 1522 2369 
L 1522 2688 
L 1678 2688 
Q 2225 2688 2498 2914 
Q 2772 3141 2772 3597 
Q 2772 4006 2547 4223 
Q 2322 4441 1900 4441 
Q 1478 4441 1245 4241 
Q 1013 4041 972 3647 
L 622 3647 
L 622 4469 
z
" transform="scale(0.015625)"/>
       <path id="DejaVuSerif-37" d="M 3609 4347 
L 1784 0 
L 1319 0 
L 3059 4153 
L 903 4153 
L 903 3578 
L 538 3578 
L 538 4666 
L 3609 4666 
L 3609 4347 
z
" transform="scale(0.015625)"/>
      </defs>
      <use xlink:href="#DejaVuSerif-43"/>
      <use xlink:href="#DejaVuSerif-73" transform="translate(76.513672 0)"/>
      <use xlink:href="#DejaVuSerif-2d" transform="translate(127.832031 0)"/>
      <use xlink:href="#DejaVuSerif-31" transform="translate(161.621094 0)"/>
      <use xlink:href="#DejaVuSerif-33" transform="translate(225.244141 0)"/>
      <use xlink:href="#DejaVuSerif-37" transform="translate(288.867188 0)"/>
     </g>
    </g>
    <g id="line2d_31">
     <path d="M 319.292813 35.798906 
L 328.292813 35.798906 
L 337.292813 35.798906 
" style="fill: none; stroke: #f59e0b; stroke-width: 2.5; stroke-linecap: round"/>
    </g>
    <g id="text_5">
     <!-- Sr-90 -->
     <g style="fill: #262626" transform="translate(344.492813 38.948906) scale(0.09 -0.09)">
      <defs>
       <path id="DejaVuSerif-53" d="M 594 225 
L 594 1288 
L 953 1284 
Q 969 753 1261 498 
Q 1553 244 2150 244 
Q 2706 244 2998 464 
Q 3291 684 3291 1106 
Q 3291 1444 3114 1625 
Q 2938 1806 2369 1978 
L 1753 2163 
Q 1084 2366 811 2669 
Q 538 2972 538 3500 
Q 538 4094 959 4422 
Q 1381 4750 2144 4750 
Q 2469 4750 2856 4679 
Q 3244 4609 3681 4475 
L 3681 3481 
L 3328 3481 
Q 3275 3975 2998 4195 
Q 2722 4416 2156 4416 
Q 1663 4416 1405 4214 
Q 1147 4013 1147 3628 
Q 1147 3294 1340 3103 
Q 1534 2913 2163 2725 
L 2741 2553 
Q 3375 2363 3645 2067 
Q 3916 1772 3916 1275 
Q 3916 597 3481 253 
Q 3047 -91 2188 -91 
Q 1803 -91 1404 -12 
Q 1006 66 594 225 
z
" transform="scale(0.015625)"/>
       <path id="DejaVuSerif-39" d="M 2994 2091 
Q 2784 1856 2512 1740 
Q 2241 1625 1900 1625 
Q 1206 1625 804 2044 
Q 403 2463 403 3188 
Q 403 3897 839 4323 
Q 1275 4750 2003 4750 
Q 2794 4750 3217 4161 
Q 3641 3572 3641 2478 
Q 3641 1253 3137 581 
Q 2634 -91 1722 -91 
Q 1475 -91 1203 -44 
Q 931 3 647 97 
L 647 872 
L 997 872 
Q 1038 556 1241 387 
Q 1444 219 1784 219 
Q 2391 219 2687 676 
Q 2984 1134 2994 2091 
z
M 1978 4441 
Q 1534 4441 1298 4117 
Q 1063 3794 1063 3188 
Q 1063 2581 1298 2256 
Q 1534 1931 1978 1931 
Q 2422 1931 2658 2245 
Q 2894 2559 2894 3150 
Q 2894 3772 2656 4106 
Q 2419 4441 1978 4441 
z
" transform="scale(0.015625)"/>
       <path id="DejaVuSerif-30" d="M 2034 219 
Q 2513 219 2750 744 
Q 2988 1269 2988 2328 
Q 2988 3391 2750 3916 
Q 2513 4441 2034 4441 
Q 1556 4441 1318 3916 
Q 1081 3391 1081 2328 
Q 1081 1269 1318 744 
Q 1556 219 2034 219 
z
M 2034 -91 
Q 1275 -91 848 546 
Q 422 1184 422 2328 
Q 422 3475 848 4112 
Q 1275 4750 2034 4750 
Q 2797 4750 3222 4112 
Q 3647 3475 3647 2328 
Q 3647 1184 3222 546 
Q 2797 -91 2034 -91 
z
" transform="scale(0.015625)"/>
      </defs>
      <use xlink:href="#DejaVuSerif-53"/>
      <use xlink:href="#DejaVuSerif-72" transform="translate(68.505859 0)"/>
      <use xlink:href="#DejaVuSerif-2d" transform="translate(116.308594 0)"/>
      <use xlink:href="#DejaVuSerif-39" transform="translate(150.097656 0)"/>
      <use xlink:href="#DejaVuSerif-30" transform="translate(213.720703 0)"/>
     </g>
    </g>
    <g id="line2d_32">
     <path d="M 319.292813 49.009219 
L 328.292813 49.009219 
L 337.292813 49.009219 
" style="fill: none; stroke-dasharray: 7.4,3.2; stroke-dashoffset: 0; stroke: #059669; stroke-opacity: 0.7; stroke-width: 2"/>
    </g>
    <g id="text_6">
     <!-- Safe reclassification level -->
     <g style="fill: #262626" transform="translate(344.492813 52.159219) scale(0.09 -0.09)">
      <defs>
       <path id="DejaVuSerif-6f" d="M 1925 219 
Q 2388 219 2623 584 
Q 2859 950 2859 1663 
Q 2859 2375 2623 2739 
Q 2388 3103 1925 3103 
Q 1463 3103 1227 2739 
Q 991 2375 991 1663 
Q 991 950 1228 584 
Q 1466 219 1925 219 
z
M 1925 -91 
Q 1200 -91 759 389 
Q 319 869 319 1663 
Q 319 2456 758 2934 
Q 1197 3413 1925 3413 
Q 2653 3413 3092 2934 
Q 3531 2456 3531 1663 
Q 3531 869 3092 389 
Q 2653 -91 1925 -91 
z
" transform="scale(0.015625)"/>
       <path id="DejaVuSerif-6e" d="M 263 0 
L 263 331 
L 781 331 
L 781 2988 
L 231 2988 
L 231 3322 
L 1356 3322 
L 1356 2731 
Q 1516 3069 1770 3241 
Q 2025 3413 2363 3413 
Q 2913 3413 3172 3097 
Q 3431 2781 3431 2113 
L 3431 331 
L 3944 331 
L 3944 0 
L 2356 0 
L 2356 331 
L 2853 331 
L 2853 1931 
Q 2853 2541 2703 2767 
Q 2553 2994 2175 2994 
Q 1775 2994 1565 2701 
Q 1356 2409 1356 1850 
L 1356 331 
L 1856 331 
L 1856 0 
L 263 0 
z
" transform="scale(0.015625)"/>
      </defs>
      <use xlink:href="#DejaVuSerif-53"/>
      <use xlink:href="#DejaVuSerif-61" transform="translate(68.505859 0)"/>
      <use xlink:href="#DejaVuSerif-66" transform="translate(128.125 0)"/>
      <use xlink:href="#DejaVuSerif-65" transform="translate(165.136719 0)"/>
      <use xlink:href="#DejaVuSerif-20" transform="translate(224.316406 0)"/>
      <use xlink:href="#DejaVuSerif-72" transform="translate(256.103516 0)"/>
      <use xlink:href="#DejaVuSerif-65" transform="translate(303.90625 0)"/>
      <use xlink:href="#DejaVuSerif-63" transform="translate(363.085938 0)"/>
      <use xlink:href="#DejaVuSerif-6c" transform="translate(419.091797 0)"/>
      <use xlink:href="#DejaVuSerif-61" transform="translate(451.074219 0)"/>
      <use xlink:href="#DejaVuSerif-73" transform="translate(510.693359 0)"/>
      <use xlink:href="#DejaVuSerif-73" transform="translate(562.011719 0)"/>
      <use xlink:href="#DejaVuSerif-69" transform="translate(613.330078 0)"/>
      <use xlink:href="#DejaVuSerif-66" transform="translate(645.3125 0)"/>
      <use xlink:href="#DejaVuSerif-69" transform="translate(682.324219 0)"/>
      <use xlink:href="#DejaVuSerif-63" transform="translate(714.306641 0)"/>
      <use xlink:href="#DejaVuSerif-61" transform="translate(770.3125 0)"/>
      <use xlink:href="#DejaVuSerif-74" transform="translate(829.931641 0)"/>
      <use xlink:href="#DejaVuSerif-69" transform="translate(870.117188 0)"/>
      <use xlink:href="#DejaVuSerif-6f" transform="translate(902.099609 0)"/>
      <use xlink:href="#DejaVuSerif-6e" transform="translate(962.304688 0)"/>
      <use xlink:href="#DejaVuSerif-20" transform="translate(1026.708984 0)"/>
      <use xlink:href="#DejaVuSerif-6c" transform="translate(1058.496094 0)"/>
      <use xlink:href="#DejaVuSerif-65" transform="translate(1090.478516 0)"/>
      <use xlink:href="#DejaVuSerif-76" transform="translate(1149.658203 0)"/>
      <use xlink:href="#DejaVuSerif-65" transform="translate(1206.152344 0)"/>
      <use xlink:href="#DejaVuSerif-6c" transform="translate(1265.332031 0)"/>
     </g>
    </g>
   </g>
  </g>
 </g>
 <defs>
  <clipPath id="p27ab5fe2d1">
   <rect x="29.91375" y="10.8" width="439.44" height="270.42"/>
  </clipPath>
 </defs>
</svg>
