<?xml version="1.0" encoding="utf-8" standalone="no"?>
<!DOCTYPE svg PUBLIC "-//W3C//DTD SVG 1.1//EN"
  "http://www.w3.org/Graphics/SVG/1.1/DTD/svg11.dtd">
<svg xmlns:xlink="http://www.w3.org/1999/xlink" width="954.864pt" height="428.896875pt" viewBox="0 0 954.864 428.896875" xmlns="http://www.w3.org/2000/svg" version="1.1">
 <metadata>
  <rdf:RDF xmlns:dc="http://purl.org/dc/elements/1.1/" xmlns:cc="http://creativecommons.org/ns#" xmlns:rdf="http://www.w3.org/1999/02/22-rdf-syntax-ns#">
   <cc:Work>
    <dc:type rdf:resource="http://purl.org/dc/dcmitype/StillImage"/>
    <dc:date>2026-01-30T14:54:14.245705</dc:date>
    <dc:format>image/svg+xml</dc:format>
    <dc:creator>
     <cc:Agent>
      <dc:title>Matplotlib v3.10.1, https://matplotlib.org/</dc:title>
     </cc:Agent>
    </dc:creator>
   </cc:Work>
  </rdf:RDF>
 </metadata>
 <defs>
  <style type="text/css">*{stroke-linejoin: round; stroke-linecap: butt}</style>
 </defs>
 <g id="figure_1">
  <g id="patch_1">
   <path d="M 0 428.896875 
L 954.864 428.896875 
L 954.864 0 
L 0 0 
L 0 428.896875 
z
" style="fill: none"/>
  </g>
  <g id="axes_1">
   <g id="patch_2">
    <path d="M 347.904 223.756875 
C 347.904 189.016235 334.088615 155.662944 309.523273 131.097602 
C 284.957931 106.53226 251.60464 92.716875 216.864 92.716875 
L 216.864 223.756875 
z
" clip-path="url(#p43c3446da9)" style="fill: #16a34a; opacity: 0.08"/>
   </g>
   <g id="patch_3">
    <path d="M 216.864 92.716875 
C 182.12336 92.716875 148.770069 106.53226 124.204727 131.097602 
C 99.639385 155.662944 85.824 189.016235 85.824 223.756875 
L 216.864 223.756875 
z
" clip-path="url(#p43c3446da9)" style="fill: #2563eb; opacity: 0.08"/>
   </g>
   <g id="patch_4">
    <path d="M 85.824 223.756875 
C 85.824 258.497515 99.639385 291.850806 124.204727 316.416148 
C 148.770069 340.98149 182.12336 354.796875 216.864 354.796875 
L 216.864 223.756875 
z
" clip-path="url(#p43c3446da9)" style="fill: #d97706; opacity: 0.08"/>
   </g>
   <g id="patch_5">
    <path d="M 216.864 354.796875 
C 251.60464 354.796875 284.957931 340.98149 309.523273 316.416148 
C 334.088615 291.850806 347.904 258.497515 347.904 223.756875 
L 216.864 223.756875 
z
" clip-path="url(#p43c3446da9)" style="fill: #db2777; opacity: 0.08"/>
   </g>
   <g id="line2d_1">
    <path d="M 7.2 223.756875 
L 426.528 223.756875 
" clip-path="url(#p43c3446da9)" style="fill: none; stroke: #475569; stroke-linecap: square"/>
   </g>
   <g id="line2d_2">
    <path d="M 216.864 420.316875 
L 216.864 27.196875 
" clip-path="url(#p43c3446da9)" style="fill: none; stroke: #475569; stroke-linecap: square"/>
   </g>
   <g id="patch_6">
    <path d="M 243.072 223.756875 
C 243.072 221.466535 242.771768 219.186044 242.178984 216.973745 
C 241.5862 214.761447 240.705964 212.636368 239.560794 210.652875 
" clip-path="url(#p43c3446da9)" style="fill: none; stroke: #1e293b; stroke-width: 2.5; stroke-linejoin: miter"/>
   </g>
   <g id="line2d_3">
    <path d="M 347.904 223.756875 
L 347.838688 219.620132 
L 347.642818 215.487513 
L 347.316585 211.363137 
L 346.860313 207.251115 
L 346.274459 203.155547 
L 345.559605 199.080514 
L 344.716465 195.03008 
L 343.745879 191.00828 
L 342.648814 187.019126 
L 341.426364 183.066592 
L 340.079747 179.154619 
L 338.610307 175.287107 
L 337.019507 171.467911 
L 335.308933 167.700837 
L 333.480291 163.989641 
L 331.535403 160.338023 
L 329.476209 156.749621 
L 327.30476 153.228014 
L 325.023221 149.776712 
L 322.633867 146.399155 
L 320.139079 143.09871 
L 317.541344 139.878666 
L 314.843252 136.742234 
L 312.047492 133.69254 
L 309.156851 130.732624 
L 306.174211 127.865437 
L 303.102544 125.093837 
L 299.944913 122.420586 
L 296.704465 119.848349 
L 293.38443 117.37969 
L 289.988118 115.017071 
L 286.518914 112.762846 
L 282.980277 110.619262 
L 279.375733 108.588456 
L 275.708877 106.672452 
L 271.983362 104.873161 
L 268.202904 103.192375 
L 264.37127 101.631771 
L 260.492279 100.192904 
L 256.569799 98.877208 
L 252.607739 97.685995 
L 248.610049 96.620452 
L 244.580714 95.681642 
L 240.52375 94.870499 
L 236.443202 94.187834 
L 232.343137 93.634325 
L 228.227642 93.210526 
L 224.100819 92.916858 
L 219.966783 92.753614 
L 215.829653 92.720957 
L 211.693555 92.81892 
L 207.56261 93.047404 
L 203.440938 93.406183 
L 199.332646 93.894897 
L 195.241829 94.513061 
L 191.172566 95.260059 
L 187.128913 96.135144 
L 183.1149 97.137446 
L 179.13453 98.265964 
L 175.191768 99.519575 
L 171.290547 100.897028 
L 167.434754 102.396951 
L 163.628233 104.017847 
L 159.874779 105.758103 
L 156.178133 107.615982 
L 152.54198 109.589632 
L 148.969944 111.677087 
L 145.465587 113.876266 
L 142.032401 116.184976 
L 138.673809 118.600916 
L 135.393159 121.121678 
L 132.193721 123.744749 
L 129.078684 126.467514 
L 126.051153 129.287259 
L 123.114146 132.201173 
L 120.270591 135.206353 
L 117.523323 138.299801 
L 114.875079 141.478435 
L 112.328501 144.739086 
L 109.886125 148.078503 
L 107.550388 151.493358 
L 105.323617 154.980248 
L 103.208031 158.535695 
L 101.20574 162.156156 
L 99.31874 165.838022 
L 97.548912 169.577623 
L 95.89802 173.37123 
L 94.367709 177.215064 
L 92.959505 181.105291 
L 91.674811 185.038034 
L 90.514909 189.009373 
L 89.480955 193.015349 
L 88.573979 197.051969 
L 87.794885 201.115209 
L 87.144449 205.201019 
L 86.623322 209.305325 
L 86.23202 213.424037 
L 85.970936 217.55305 
L 85.840329 221.688246 
L 85.840329 225.825504 
L 85.970936 229.9607 
L 86.23202 234.089713 
L 86.623322 238.208425 
L 87.144449 242.312731 
L 87.794885 246.398541 
L 88.573979 250.461781 
L 89.480955 254.498401 
L 90.514909 258.504377 
L 91.674811 262.475716 
L 92.959505 266.408459 
L 94.367709 270.298686 
L 95.89802 274.14252 
L 97.548912 277.936127 
L 99.31874 281.675728 
L 101.20574 285.357594 
L 103.208031 288.978055 
L 105.323617 292.533502 
L 107.550388 296.020392 
L 109.886125 299.435247 
L 112.328501 302.774664 
L 114.875079 306.035315 
L 117.523323 309.213949 
L 120.270591 312.307397 
L 123.114146 315.312577 
L 126.051153 318.226491 
L 129.078684 321.046236 
L 132.193721 323.769001 
L 135.393159 326.392072 
L 138.673809 328.912834 
L 142.032401 331.328774 
L 145.465587 333.637484 
L 148.969944 335.836663 
L 152.54198 337.924118 
L 156.178133 339.897768 
L 159.874779 341.755647 
L 163.628233 343.495903 
L 167.434754 345.116799 
L 171.290547 346.616722 
L 175.191768 347.994175 
L 179.13453 349.247786 
L 183.1149 350.376304 
L 187.128913 351.378606 
L 191.172566 352.253691 
L 195.241829 353.000689 
L 199.332646 353.618853 
L 203.440938 354.107567 
L 207.56261 354.466346 
L 211.693555 354.69483 
L 215.829653 354.792793 
L 219.966783 354.760136 
L 224.100819 354.596892 
L 228.227642 354.303224 
L 232.343137 353.879425 
L 236.443202 353.325916 
L 240.52375 352.643251 
L 244.580714 351.832108 
L 248.610049 350.893298 
L 252.607739 349.827755 
L 256.569799 348.636542 
L 260.492279 347.320846 
L 264.37127 345.881979 
L 268.202904 344.321375 
L 271.983362 342.640589 
L 275.708877 340.841298 
L 279.375733 338.925294 
L 282.980277 336.894488 
L 286.518914 334.750904 
L 289.988118 332.496679 
L 293.38443 330.13406 
L 296.704465 327.665401 
L 299.944913 325.093164 
L 303.102544 322.419913 
L 306.174211 319.648313 
L 309.156851 316.781126 
L 312.047492 313.82121 
L 314.843252 310.771516 
L 317.541344 307.635084 
L 320.139079 304.41504 
L 322.633867 301.114595 
L 325.023221 297.737038 
L 327.30476 294.285736 
L 329.476209 290.764129 
L 331.535403 287.175727 
L 333.480291 283.524109 
L 335.308933 279.812913 
L 337.019507 276.045839 
L 338.610307 272.226643 
L 340.079747 268.359131 
L 341.426364 264.447158 
L 342.648814 260.494624 
L 343.745879 256.50547 
L 344.716465 252.48367 
L 345.559605 248.433236 
L 346.274459 244.358203 
L 346.860313 240.262635 
L 347.316585 236.150613 
L 347.642818 232.026237 
L 347.838688 227.893618 
L 347.904 223.756875 
L 347.904 223.756875 
" clip-path="url(#p43c3446da9)" style="fill: none; stroke: #1e293b; stroke-width: 2.5; stroke-linecap: square"/>
   </g>
   <g id="line2d_4">
    <path d="M 216.864 223.756875 
L 330.347969 223.756875 
" clip-path="url(#p43c3446da9)" style="fill: none; stroke: #2563eb; stroke-opacity: 0.9; stroke-width: 4; stroke-linecap: square"/>
   </g>
   <g id="line2d_5">
    <path d="M 330.347969 223.756875 
L 330.347969 158.236875 
" clip-path="url(#p43c3446da9)" style="fill: none; stroke: #dc2626; stroke-opacity: 0.9; stroke-width: 4; stroke-linecap: square"/>
   </g>
   <g id="text_1">
    <!-- $0$ -->
    <g style="fill: #1e293b" transform="translate(374.7328 206.169) scale(0.08 -0.08)">
     <defs>
      <path id="Cmr10-30" d="M 1600 -141 
Q 816 -141 533 504 
Q 250 1150 250 2041 
Q 250 2597 351 3087 
Q 453 3578 754 3920 
Q 1056 4263 1600 4263 
Q 2022 4263 2290 4056 
Q 2559 3850 2700 3523 
Q 2841 3197 2892 2823 
Q 2944 2450 2944 2041 
Q 2944 1491 2842 1011 
Q 2741 531 2444 195 
Q 2147 -141 1600 -141 
z
M 1600 25 
Q 1956 25 2131 390 
Q 2306 756 2347 1200 
Q 2388 1644 2388 2144 
Q 2388 2625 2347 3031 
Q 2306 3438 2132 3767 
Q 1959 4097 1600 4097 
Q 1238 4097 1063 3765 
Q 888 3434 847 3029 
Q 806 2625 806 2144 
Q 806 1788 823 1472 
Q 841 1156 916 820 
Q 991 484 1158 254 
Q 1325 25 1600 25 
z
" transform="scale(0.015625)"/>
     </defs>
     <use xlink:href="#Cmr10-30" transform="translate(0 0.390625)"/>
    </g>
   </g>
   <g id="text_2">
    <!-- $π/6$ -->
    <g style="fill: #1e293b" transform="translate(349.274442 145.822475) scale(0.08 -0.08)">
     <defs>
      <path id="STIXGeneral-Italic-3c0" d="M 3430 2739 
L 3296 2266 
L 2643 2266 
Q 2624 2195 2502 1782 
Q 2381 1370 2297 1072 
Q 2214 774 2214 717 
Q 2214 448 2413 448 
Q 2694 448 2867 838 
L 2970 838 
Q 2886 486 2652 208 
Q 2419 -70 2093 -70 
Q 1901 -70 1808 67 
Q 1715 205 1715 410 
Q 1715 627 1824 922 
L 2310 2266 
L 1645 2266 
Q 1568 2061 1401 1469 
Q 1235 877 1068 512 
Q 902 147 672 -38 
Q 563 -115 442 -115 
Q 314 -115 218 -32 
Q 122 51 122 166 
Q 122 429 314 480 
Q 634 563 774 928 
L 1299 2266 
L 1261 2266 
Q 973 2266 819 2208 
Q 666 2150 474 1914 
L 371 1914 
Q 640 2362 931 2550 
Q 1222 2739 1696 2739 
L 3430 2739 
z
" transform="scale(0.015625)"/>
      <path id="Cmmi10-3d" d="M 359 -1472 
Q 359 -1453 366 -1447 
L 2591 4722 
Q 2603 4759 2634 4779 
Q 2666 4800 2706 4800 
Q 2763 4800 2798 4765 
Q 2834 4731 2834 4672 
L 2834 4647 
L 609 -1522 
Q 572 -1600 488 -1600 
Q 434 -1600 396 -1562 
Q 359 -1525 359 -1472 
z
" transform="scale(0.015625)"/>
      <path id="Cmr10-36" d="M 1600 -141 
Q 1203 -141 937 70 
Q 672 281 526 617 
Q 381 953 325 1322 
Q 269 1691 269 2069 
Q 269 2575 466 3084 
Q 663 3594 1045 3928 
Q 1428 4263 1953 4263 
Q 2172 4263 2361 4180 
Q 2550 4097 2658 3936 
Q 2766 3775 2766 3547 
Q 2766 3416 2677 3327 
Q 2588 3238 2456 3238 
Q 2331 3238 2240 3328 
Q 2150 3419 2150 3547 
Q 2150 3672 2240 3762 
Q 2331 3853 2456 3853 
L 2491 3853 
Q 2409 3969 2261 4023 
Q 2113 4078 1953 4078 
Q 1759 4078 1595 3993 
Q 1431 3909 1300 3765 
Q 1169 3622 1081 3448 
Q 994 3275 945 3053 
Q 897 2831 884 2637 
Q 872 2444 872 2150 
Q 984 2413 1190 2580 
Q 1397 2747 1656 2747 
Q 1941 2747 2175 2631 
Q 2409 2516 2578 2311 
Q 2747 2106 2836 1843 
Q 2925 1581 2925 1313 
Q 2925 938 2758 598 
Q 2591 259 2287 59 
Q 1984 -141 1600 -141 
z
M 1600 63 
Q 1847 63 1997 175 
Q 2147 288 2217 473 
Q 2288 659 2305 848 
Q 2322 1038 2322 1313 
Q 2322 1675 2287 1931 
Q 2253 2188 2100 2383 
Q 1947 2578 1631 2578 
Q 1372 2578 1205 2403 
Q 1038 2228 961 1961 
Q 884 1694 884 1447 
Q 884 1363 891 1319 
Q 891 1309 889 1303 
Q 888 1297 884 1288 
Q 884 1013 940 731 
Q 997 450 1156 256 
Q 1316 63 1600 63 
z
" transform="scale(0.015625)"/>
     </defs>
     <use xlink:href="#STIXGeneral-Italic-3c0"/>
     <use xlink:href="#Cmmi10-3d" transform="translate(50.399994 0)"/>
     <use xlink:href="#Cmr10-36" transform="translate(100.399994 0)"/>
    </g>
   </g>
   <g id="text_3">
    <!-- $π/4$ -->
    <g style="fill: #1e293b" transform="translate(323.868313 112.712562) scale(0.08 -0.08)">
     <defs>
      <path id="Cmr10-34" d="M 178 1056 
L 178 1281 
L 2156 4231 
Q 2178 4263 2222 4263 
L 2316 4263 
Q 2388 4263 2388 4191 
L 2388 1281 
L 3016 1281 
L 3016 1056 
L 2388 1056 
L 2388 428 
Q 2388 297 2575 261 
Q 2763 225 3009 225 
L 3009 0 
L 1247 0 
L 1247 225 
Q 1494 225 1681 261 
Q 1869 297 1869 428 
L 1869 1056 
L 178 1056 
z
M 391 1281 
L 1906 1281 
L 1906 3547 
L 391 1281 
z
" transform="scale(0.015625)"/>
     </defs>
     <use xlink:href="#STIXGeneral-Italic-3c0"/>
     <use xlink:href="#Cmmi10-3d" transform="translate(50.399994 0)"/>
     <use xlink:href="#Cmr10-34" transform="translate(100.399994 0)"/>
    </g>
   </g>
   <g id="text_4">
    <!-- $π/3$ -->
    <g style="fill: #1e293b" transform="translate(290.7584 87.306433) scale(0.08 -0.08)">
     <defs>
      <path id="Cmr10-33" d="M 609 494 
Q 759 275 1012 169 
Q 1266 63 1556 63 
Q 1928 63 2084 380 
Q 2241 697 2241 1100 
Q 2241 1281 2208 1462 
Q 2175 1644 2097 1800 
Q 2019 1956 1883 2050 
Q 1747 2144 1550 2144 
L 1125 2144 
Q 1069 2144 1069 2203 
L 1069 2259 
Q 1069 2309 1125 2309 
L 1478 2338 
Q 1703 2338 1851 2506 
Q 2000 2675 2069 2917 
Q 2138 3159 2138 3378 
Q 2138 3684 1994 3881 
Q 1850 4078 1556 4078 
Q 1313 4078 1091 3986 
Q 869 3894 738 3706 
Q 750 3709 759 3711 
Q 769 3713 781 3713 
Q 925 3713 1022 3613 
Q 1119 3513 1119 3372 
Q 1119 3234 1022 3134 
Q 925 3034 781 3034 
Q 641 3034 541 3134 
Q 441 3234 441 3372 
Q 441 3647 606 3850 
Q 772 4053 1033 4158 
Q 1294 4263 1556 4263 
Q 1750 4263 1965 4205 
Q 2181 4147 2356 4039 
Q 2531 3931 2642 3762 
Q 2753 3594 2753 3378 
Q 2753 3109 2633 2881 
Q 2513 2653 2303 2487 
Q 2094 2322 1844 2241 
Q 2122 2188 2372 2031 
Q 2622 1875 2773 1631 
Q 2925 1388 2925 1106 
Q 2925 753 2731 467 
Q 2538 181 2222 20 
Q 1906 -141 1556 -141 
Q 1256 -141 954 -26 
Q 653 88 461 316 
Q 269 544 269 863 
Q 269 1022 375 1128 
Q 481 1234 641 1234 
Q 744 1234 830 1186 
Q 916 1138 964 1050 
Q 1013 963 1013 863 
Q 1013 706 903 600 
Q 794 494 641 494 
L 609 494 
z
" transform="scale(0.015625)"/>
     </defs>
     <use xlink:href="#STIXGeneral-Italic-3c0"/>
     <use xlink:href="#Cmmi10-3d" transform="translate(50.399994 0)"/>
     <use xlink:href="#Cmr10-33" transform="translate(100.399994 0)"/>
    </g>
   </g>
   <g id="text_5">
    <!-- $π/2$ -->
    <g style="fill: #1e293b" transform="translate(210.824 65.888075) scale(0.08 -0.08)">
     <defs>
      <path id="Cmr10-32" d="M 319 0 
L 319 172 
Q 319 188 331 206 
L 1325 1306 
Q 1550 1550 1690 1715 
Q 1831 1881 1968 2097 
Q 2106 2313 2186 2536 
Q 2266 2759 2266 3009 
Q 2266 3272 2169 3511 
Q 2072 3750 1880 3894 
Q 1688 4038 1416 4038 
Q 1138 4038 916 3870 
Q 694 3703 603 3438 
Q 628 3444 672 3444 
Q 816 3444 917 3347 
Q 1019 3250 1019 3097 
Q 1019 2950 917 2848 
Q 816 2747 672 2747 
Q 522 2747 420 2851 
Q 319 2956 319 3097 
Q 319 3338 409 3548 
Q 500 3759 670 3923 
Q 841 4088 1055 4175 
Q 1269 4263 1509 4263 
Q 1875 4263 2190 4108 
Q 2506 3953 2690 3670 
Q 2875 3388 2875 3009 
Q 2875 2731 2753 2481 
Q 2631 2231 2440 2026 
Q 2250 1822 1953 1562 
Q 1656 1303 1563 1216 
L 838 519 
L 1453 519 
Q 1906 519 2211 526 
Q 2516 534 2534 550 
Q 2609 631 2688 1141 
L 2875 1141 
L 2694 0 
L 319 0 
z
" transform="scale(0.015625)"/>
     </defs>
     <use xlink:href="#STIXGeneral-Italic-3c0"/>
     <use xlink:href="#Cmmi10-3d" transform="translate(50.399994 0)"/>
     <use xlink:href="#Cmr10-32" transform="translate(100.399994 0)"/>
    </g>
   </g>
   <g id="text_6">
    <!-- $2π/3$ -->
    <g style="fill: #1e293b" transform="translate(128.8896 87.306433) scale(0.08 -0.08)">
     <use xlink:href="#Cmr10-32"/>
     <use xlink:href="#STIXGeneral-Italic-3c0" transform="translate(50 0)"/>
     <use xlink:href="#Cmmi10-3d" transform="translate(100.399994 0)"/>
     <use xlink:href="#Cmr10-33" transform="translate(150.399994 0)"/>
    </g>
   </g>
   <g id="text_7">
    <!-- $3π/4$ -->
    <g style="fill: #1e293b" transform="translate(95.779687 112.712562) scale(0.08 -0.08)">
     <use xlink:href="#Cmr10-33"/>
     <use xlink:href="#STIXGeneral-Italic-3c0" transform="translate(50 0)"/>
     <use xlink:href="#Cmmi10-3d" transform="translate(100.399994 0)"/>
     <use xlink:href="#Cmr10-34" transform="translate(150.399994 0)"/>
    </g>
   </g>
   <g id="text_8">
    <!-- $5π/6$ -->
    <g style="fill: #1e293b" transform="translate(70.373558 145.822475) scale(0.08 -0.08)">
     <defs>
      <path id="Cmr10-35" d="M 556 728 
Q 622 541 758 387 
Q 894 234 1080 148 
Q 1266 63 1466 63 
Q 1928 63 2103 422 
Q 2278 781 2278 1294 
Q 2278 1516 2270 1667 
Q 2263 1819 2228 1959 
Q 2169 2184 2020 2353 
Q 1872 2522 1656 2522 
Q 1441 2522 1286 2456 
Q 1131 2391 1034 2303 
Q 938 2216 863 2119 
Q 788 2022 769 2016 
L 697 2016 
Q 681 2016 657 2036 
Q 634 2056 634 2075 
L 634 4213 
Q 634 4228 654 4245 
Q 675 4263 697 4263 
L 716 4263 
Q 1147 4056 1631 4056 
Q 2106 4056 2547 4263 
L 2566 4263 
Q 2588 4263 2606 4247 
Q 2625 4231 2625 4213 
L 2625 4153 
Q 2625 4122 2613 4122 
Q 2394 3831 2064 3668 
Q 1734 3506 1381 3506 
Q 1125 3506 856 3578 
L 856 2369 
Q 1069 2541 1236 2614 
Q 1403 2688 1663 2688 
Q 2016 2688 2295 2484 
Q 2575 2281 2725 1954 
Q 2875 1628 2875 1288 
Q 2875 903 2686 575 
Q 2497 247 2172 53 
Q 1847 -141 1466 -141 
Q 1150 -141 886 21 
Q 622 184 470 459 
Q 319 734 319 1044 
Q 319 1188 412 1278 
Q 506 1369 647 1369 
Q 788 1369 883 1276 
Q 978 1184 978 1044 
Q 978 906 883 811 
Q 788 716 647 716 
Q 625 716 597 720 
Q 569 725 556 728 
z
" transform="scale(0.015625)"/>
     </defs>
     <use xlink:href="#Cmr10-35"/>
     <use xlink:href="#STIXGeneral-Italic-3c0" transform="translate(50 0)"/>
     <use xlink:href="#Cmmi10-3d" transform="translate(100.399994 0)"/>
     <use xlink:href="#Cmr10-36" transform="translate(150.399994 0)"/>
    </g>
   </g>
   <g id="text_9">
    <!-- $π$ -->
    <g style="fill: #1e293b" transform="translate(54.9552 206.169) scale(0.08 -0.08)">
     <use xlink:href="#STIXGeneral-Italic-3c0" transform="translate(0 0.203125)"/>
    </g>
   </g>
   <g id="text_10">
    <!-- $7π/6$ -->
    <g style="fill: #1e293b" transform="translate(70.373558 305.691275) scale(0.08 -0.08)">
     <defs>
      <path id="Cmr10-37" d="M 1113 166 
Q 1113 522 1175 862 
Q 1238 1203 1358 1536 
Q 1478 1869 1648 2189 
Q 1819 2509 2022 2791 
L 2606 3603 
L 1875 3603 
Q 738 3603 703 3572 
Q 619 3469 544 2981 
L 359 2981 
L 569 4325 
L 756 4325 
L 756 4306 
Q 756 4191 1147 4156 
Q 1538 4122 1913 4122 
L 3103 4122 
L 3103 3956 
Q 3103 3950 3101 3947 
Q 3100 3944 3097 3938 
L 2216 2700 
Q 1891 2219 1809 1631 
Q 1728 1044 1728 166 
Q 1728 41 1637 -50 
Q 1547 -141 1422 -141 
Q 1294 -141 1203 -50 
Q 1113 41 1113 166 
z
" transform="scale(0.015625)"/>
     </defs>
     <use xlink:href="#Cmr10-37"/>
     <use xlink:href="#STIXGeneral-Italic-3c0" transform="translate(50 0)"/>
     <use xlink:href="#Cmmi10-3d" transform="translate(100.399994 0)"/>
     <use xlink:href="#Cmr10-36" transform="translate(150.399994 0)"/>
    </g>
   </g>
   <g id="text_11">
    <!-- $5π/4$ -->
    <g style="fill: #1e293b" transform="translate(95.779687 338.801188) scale(0.08 -0.08)">
     <use xlink:href="#Cmr10-35"/>
     <use xlink:href="#STIXGeneral-Italic-3c0" transform="translate(50 0)"/>
     <use xlink:href="#Cmmi10-3d" transform="translate(100.399994 0)"/>
     <use xlink:href="#Cmr10-34" transform="translate(150.399994 0)"/>
    </g>
   </g>
   <g id="text_12">
    <!-- $4π/3$ -->
    <g style="fill: #1e293b" transform="translate(128.8896 364.207317) scale(0.08 -0.08)">
     <use xlink:href="#Cmr10-34"/>
     <use xlink:href="#STIXGeneral-Italic-3c0" transform="translate(50 0)"/>
     <use xlink:href="#Cmmi10-3d" transform="translate(100.399994 0)"/>
     <use xlink:href="#Cmr10-33" transform="translate(150.399994 0)"/>
    </g>
   </g>
   <g id="text_13">
    <!-- $3π/2$ -->
    <g style="fill: #1e293b" transform="translate(208.824 385.625675) scale(0.08 -0.08)">
     <use xlink:href="#Cmr10-33"/>
     <use xlink:href="#STIXGeneral-Italic-3c0" transform="translate(50 0)"/>
     <use xlink:href="#Cmmi10-3d" transform="translate(100.399994 0)"/>
     <use xlink:href="#Cmr10-32" transform="translate(150.399994 0)"/>
    </g>
   </g>
   <g id="text_14">
    <!-- $5π/3$ -->
    <g style="fill: #1e293b" transform="translate(288.7584 364.207317) scale(0.08 -0.08)">
     <use xlink:href="#Cmr10-35"/>
     <use xlink:href="#STIXGeneral-Italic-3c0" transform="translate(50 0)"/>
     <use xlink:href="#Cmmi10-3d" transform="translate(100.399994 0)"/>
     <use xlink:href="#Cmr10-33" transform="translate(150.399994 0)"/>
    </g>
   </g>
   <g id="text_15">
    <!-- $7π/4$ -->
    <g style="fill: #1e293b" transform="translate(321.868313 338.801188) scale(0.08 -0.08)">
     <use xlink:href="#Cmr10-37"/>
     <use xlink:href="#STIXGeneral-Italic-3c0" transform="translate(50 0)"/>
     <use xlink:href="#Cmmi10-3d" transform="translate(100.399994 0)"/>
     <use xlink:href="#Cmr10-34" transform="translate(150.399994 0)"/>
    </g>
   </g>
   <g id="text_16">
    <!-- $11π/6$ -->
    <g style="fill: #1e293b" transform="translate(345.274442 305.691275) scale(0.08 -0.08)">
     <defs>
      <path id="Cmr10-31" d="M 594 0 
L 594 225 
Q 1394 225 1394 428 
L 1394 3788 
Q 1063 3628 556 3628 
L 556 3853 
Q 1341 3853 1741 4263 
L 1831 4263 
Q 1853 4263 1873 4245 
Q 1894 4228 1894 4206 
L 1894 428 
Q 1894 225 2694 225 
L 2694 0 
L 594 0 
z
" transform="scale(0.015625)"/>
     </defs>
     <use xlink:href="#Cmr10-31"/>
     <use xlink:href="#Cmr10-31" transform="translate(50 0)"/>
     <use xlink:href="#STIXGeneral-Italic-3c0" transform="translate(100 0)"/>
     <use xlink:href="#Cmmi10-3d" transform="translate(150.399994 0)"/>
     <use xlink:href="#Cmr10-36" transform="translate(200.399994 0)"/>
    </g>
   </g>
   <g id="text_17">
    <!-- $\theta$ -->
    <g style="fill: #1e293b" transform="translate(249.624 213.273675) scale(0.12 -0.12)">
     <defs>
      <path id="Cmmi10-b5" d="M 1031 -72 
Q 741 -72 566 140 
Q 391 353 323 653 
Q 256 953 256 1247 
L 256 1253 
Q 256 1572 317 1915 
Q 378 2259 493 2601 
Q 609 2944 744 3213 
Q 838 3400 986 3631 
Q 1134 3863 1317 4064 
Q 1500 4266 1711 4389 
Q 1922 4513 2138 4513 
L 2144 4513 
Q 2375 4513 2529 4384 
Q 2684 4256 2770 4056 
Q 2856 3856 2890 3628 
Q 2925 3400 2925 3194 
Q 2925 2709 2794 2204 
Q 2663 1700 2431 1228 
Q 2344 1050 2189 809 
Q 2034 569 1861 378 
Q 1688 188 1472 58 
Q 1256 -72 1038 -72 
L 1031 -72 
z
M 1044 97 
Q 1256 97 1451 323 
Q 1647 550 1794 873 
Q 1941 1197 2052 1536 
Q 2163 1875 2216 2113 
L 909 2113 
Q 809 1709 753 1417 
Q 697 1125 697 844 
Q 697 97 1044 97 
z
M 959 2338 
L 2272 2338 
Q 2341 2619 2381 2808 
Q 2422 2997 2450 3206 
Q 2478 3416 2478 3597 
Q 2478 4347 2138 4347 
Q 1731 4347 1436 3692 
Q 1141 3038 959 2338 
z
" transform="scale(0.015625)"/>
     </defs>
     <use xlink:href="#Cmmi10-b5" transform="translate(0 0.484375)"/>
    </g>
   </g>
   <g id="text_18">
    <!-- $\cos\theta$ -->
    <g style="fill: #2563eb" transform="translate(262.825984 239.481675) scale(0.11 -0.11)">
     <defs>
      <path id="Cmr10-63" d="M 1594 -72 
Q 1206 -72 890 129 
Q 575 331 394 667 
Q 213 1003 213 1381 
Q 213 1759 392 2106 
Q 572 2453 889 2661 
Q 1206 2869 1594 2869 
Q 1969 2869 2276 2722 
Q 2584 2575 2584 2241 
Q 2584 2116 2495 2023 
Q 2406 1931 2278 1931 
Q 2150 1931 2061 2023 
Q 1972 2116 1972 2241 
Q 1972 2353 2044 2436 
Q 2116 2519 2222 2541 
Q 2000 2681 1600 2681 
Q 1294 2681 1106 2478 
Q 919 2275 844 1975 
Q 769 1675 769 1381 
Q 769 1072 861 783 
Q 953 494 1158 305 
Q 1363 116 1672 116 
Q 1975 116 2187 302 
Q 2400 488 2478 788 
Q 2478 825 2528 825 
L 2606 825 
Q 2625 825 2640 808 
Q 2656 791 2656 769 
L 2656 750 
Q 2559 372 2271 150 
Q 1984 -72 1594 -72 
z
" transform="scale(0.015625)"/>
      <path id="Cmr10-6f" d="M 1600 -72 
Q 1216 -72 887 123 
Q 559 319 368 647 
Q 178 975 178 1363 
Q 178 1656 283 1928 
Q 388 2200 583 2414 
Q 778 2628 1037 2748 
Q 1297 2869 1600 2869 
Q 1994 2869 2317 2661 
Q 2641 2453 2828 2104 
Q 3016 1756 3016 1363 
Q 3016 978 2825 648 
Q 2634 319 2307 123 
Q 1981 -72 1600 -72 
z
M 1600 116 
Q 2113 116 2284 487 
Q 2456 859 2456 1434 
Q 2456 1756 2422 1967 
Q 2388 2178 2272 2350 
Q 2200 2456 2089 2536 
Q 1978 2616 1854 2658 
Q 1731 2700 1600 2700 
Q 1400 2700 1220 2609 
Q 1041 2519 922 2350 
Q 803 2169 770 1951 
Q 738 1734 738 1434 
Q 738 1075 800 789 
Q 863 503 1052 309 
Q 1241 116 1600 116 
z
" transform="scale(0.015625)"/>
      <path id="Cmr10-73" d="M 213 -19 
L 213 1025 
Q 213 1075 269 1075 
L 347 1075 
Q 384 1075 397 1025 
Q 575 97 1259 97 
Q 1563 97 1767 234 
Q 1972 372 1972 659 
Q 1972 866 1812 1011 
Q 1653 1156 1434 1209 
L 1006 1294 
Q 791 1341 614 1437 
Q 438 1534 325 1695 
Q 213 1856 213 2069 
Q 213 2350 361 2529 
Q 509 2709 746 2789 
Q 984 2869 1259 2869 
Q 1588 2869 1831 2694 
L 2016 2853 
Q 2016 2869 2047 2869 
L 2094 2869 
Q 2113 2869 2128 2851 
Q 2144 2834 2144 2816 
L 2144 1978 
Q 2144 1919 2094 1919 
L 2016 1919 
Q 1959 1919 1959 1978 
Q 1959 2313 1773 2516 
Q 1588 2719 1253 2719 
Q 966 2719 755 2612 
Q 544 2506 544 2247 
Q 544 2069 695 1955 
Q 847 1841 1050 1791 
L 1484 1709 
Q 1703 1659 1892 1540 
Q 2081 1422 2192 1240 
Q 2303 1059 2303 831 
Q 2303 600 2223 429 
Q 2144 259 2001 146 
Q 1859 34 1665 -19 
Q 1472 -72 1259 -72 
Q 859 -72 575 197 
L 341 -56 
Q 341 -72 306 -72 
L 269 -72 
Q 213 -72 213 -19 
z
" transform="scale(0.015625)"/>
     </defs>
     <use xlink:href="#Cmr10-63" transform="translate(0 0.484375)"/>
     <use xlink:href="#Cmr10-6f" transform="translate(44.384766 0.484375)"/>
     <use xlink:href="#Cmr10-73" transform="translate(94.384766 0.484375)"/>
     <use xlink:href="#Cmmi10-b5" transform="translate(148.421517 0.484375)"/>
    </g>
   </g>
   <g id="text_19">
    <!-- $\sin\theta$ -->
    <g style="fill: #dc2626" transform="translate(294.273169 190.996875) scale(0.11 -0.11)">
     <defs>
      <path id="Cmr10-69" d="M 197 0 
L 197 225 
Q 416 225 556 259 
Q 697 294 697 428 
L 697 2175 
Q 697 2422 601 2478 
Q 506 2534 225 2534 
L 225 2759 
L 1147 2828 
L 1147 428 
Q 1147 294 1269 259 
Q 1391 225 1594 225 
L 1594 0 
L 197 0 
z
M 469 3928 
Q 469 4069 575 4175 
Q 681 4281 819 4281 
Q 909 4281 993 4234 
Q 1078 4188 1125 4103 
Q 1172 4019 1172 3928 
Q 1172 3791 1065 3684 
Q 959 3578 819 3578 
Q 681 3578 575 3684 
Q 469 3791 469 3928 
z
" transform="scale(0.015625)"/>
      <path id="Cmr10-6e" d="M 191 0 
L 191 225 
Q 409 225 550 259 
Q 691 294 691 428 
L 691 2175 
Q 691 2347 639 2423 
Q 588 2500 491 2517 
Q 394 2534 191 2534 
L 191 2759 
L 1119 2828 
L 1119 2203 
Q 1247 2478 1498 2653 
Q 1750 2828 2047 2828 
Q 2491 2828 2714 2615 
Q 2938 2403 2938 1966 
L 2938 428 
Q 2938 294 3078 259 
Q 3219 225 3438 225 
L 3438 0 
L 1972 0 
L 1972 225 
Q 2191 225 2331 259 
Q 2472 294 2472 428 
L 2472 1947 
Q 2472 2259 2381 2461 
Q 2291 2663 2009 2663 
Q 1638 2663 1398 2366 
Q 1159 2069 1159 1691 
L 1159 428 
Q 1159 294 1300 259 
Q 1441 225 1656 225 
L 1656 0 
L 191 0 
z
" transform="scale(0.015625)"/>
     </defs>
     <use xlink:href="#Cmr10-73" transform="translate(0 0.484375)"/>
     <use xlink:href="#Cmr10-69" transform="translate(39.404297 0.484375)"/>
     <use xlink:href="#Cmr10-6e" transform="translate(67.089844 0.484375)"/>
     <use xlink:href="#Cmmi10-b5" transform="translate(137.239876 0.484375)"/>
    </g>
   </g>
   <g id="text_20">
    <!-- $(\cos\theta, \sin\theta)$ -->
    <g style="fill: #1e293b" transform="translate(340.831169 142.512075) scale(0.1 -0.1)">
     <defs>
      <path id="Cmr10-28" d="M 1984 -1588 
Q 1628 -1306 1370 -942 
Q 1113 -578 948 -165 
Q 784 247 703 697 
Q 622 1147 622 1600 
Q 622 2059 703 2509 
Q 784 2959 951 3375 
Q 1119 3791 1378 4153 
Q 1638 4516 1984 4788 
Q 1984 4800 2016 4800 
L 2075 4800 
Q 2094 4800 2109 4783 
Q 2125 4766 2125 4744 
Q 2125 4716 2113 4703 
Q 1800 4397 1592 4047 
Q 1384 3697 1257 3301 
Q 1131 2906 1075 2482 
Q 1019 2059 1019 1600 
Q 1019 -434 2106 -1491 
Q 2125 -1509 2125 -1544 
Q 2125 -1559 2108 -1579 
Q 2091 -1600 2075 -1600 
L 2016 -1600 
Q 1984 -1600 1984 -1588 
z
" transform="scale(0.015625)"/>
      <path id="Cmmi10-3b" d="M 634 -1153 
Q 634 -1125 659 -1100 
Q 891 -878 1019 -587 
Q 1147 -297 1147 25 
L 1147 103 
Q 1044 0 891 0 
Q 744 0 641 103 
Q 538 206 538 353 
Q 538 503 641 603 
Q 744 703 891 703 
Q 1119 703 1216 492 
Q 1313 281 1313 25 
Q 1313 -331 1170 -651 
Q 1028 -972 769 -1228 
Q 744 -1241 728 -1241 
Q 697 -1241 665 -1212 
Q 634 -1184 634 -1153 
z
" transform="scale(0.015625)"/>
      <path id="Cmr10-29" d="M 416 -1600 
Q 359 -1600 359 -1544 
Q 359 -1516 372 -1503 
Q 1466 -434 1466 1600 
Q 1466 3634 384 4691 
Q 359 4706 359 4744 
Q 359 4766 376 4783 
Q 394 4800 416 4800 
L 475 4800 
Q 494 4800 506 4788 
Q 966 4425 1272 3906 
Q 1578 3388 1720 2800 
Q 1863 2213 1863 1600 
Q 1863 1147 1786 708 
Q 1709 269 1542 -157 
Q 1375 -584 1119 -945 
Q 863 -1306 506 -1588 
Q 494 -1600 475 -1600 
L 416 -1600 
z
" transform="scale(0.015625)"/>
     </defs>
     <use xlink:href="#Cmr10-28"/>
     <use xlink:href="#Cmr10-63" transform="translate(38.818359 0)"/>
     <use xlink:href="#Cmr10-6f" transform="translate(83.203125 0)"/>
     <use xlink:href="#Cmr10-73" transform="translate(133.203125 0)"/>
     <use xlink:href="#Cmmi10-b5" transform="translate(187.239876 0)"/>
     <use xlink:href="#Cmmi10-3b" transform="translate(234.163704 0)"/>
     <use xlink:href="#Cmr10-73" transform="translate(279.407845 0)"/>
     <use xlink:href="#Cmr10-69" transform="translate(318.812142 0)"/>
     <use xlink:href="#Cmr10-6e" transform="translate(346.497688 0)"/>
     <use xlink:href="#Cmmi10-b5" transform="translate(416.647721 0)"/>
     <use xlink:href="#Cmr10-29" transform="translate(463.571549 0)"/>
    </g>
   </g>
   <g id="text_21">
    <g id="patch_7">
     <path d="M 328.50144 417.254475 
L 418.14144 417.254475 
Q 422.94144 417.254475 422.94144 412.454475 
L 422.94144 401.174475 
Q 422.94144 396.374475 418.14144 396.374475 
L 328.50144 396.374475 
Q 323.70144 396.374475 323.70144 401.174475 
L 323.70144 412.454475 
Q 323.70144 417.254475 328.50144 417.254475 
z
" style="fill: #ffffff; opacity: 0.95; stroke: #1e293b; stroke-width: 2; stroke-linejoin: miter"/>
    </g>
    <!-- $\sin^2\theta + \cos^2\theta = 1$ -->
    <g style="fill: #1e293b" transform="translate(328.50144 410.0901) scale(0.12 -0.12)">
     <defs>
      <path id="Cmr10-2b" d="M 481 1472 
Q 428 1472 393 1512 
Q 359 1553 359 1600 
Q 359 1647 393 1687 
Q 428 1728 481 1728 
L 2363 1728 
L 2363 3616 
Q 2363 3666 2400 3698 
Q 2438 3731 2491 3731 
Q 2538 3731 2578 3698 
Q 2619 3666 2619 3616 
L 2619 1728 
L 4500 1728 
Q 4547 1728 4581 1687 
Q 4616 1647 4616 1600 
Q 4616 1553 4581 1512 
Q 4547 1472 4500 1472 
L 2619 1472 
L 2619 -416 
Q 2619 -466 2578 -498 
Q 2538 -531 2491 -531 
Q 2438 -531 2400 -498 
Q 2363 -466 2363 -416 
L 2363 1472 
L 481 1472 
z
" transform="scale(0.015625)"/>
      <path id="Cmr10-3d" d="M 481 850 
Q 428 850 393 890 
Q 359 931 359 978 
Q 359 1031 393 1068 
Q 428 1106 481 1106 
L 4500 1106 
Q 4547 1106 4581 1068 
Q 4616 1031 4616 978 
Q 4616 931 4581 890 
Q 4547 850 4500 850 
L 481 850 
z
M 481 2094 
Q 428 2094 393 2131 
Q 359 2169 359 2222 
Q 359 2269 393 2309 
Q 428 2350 481 2350 
L 4500 2350 
Q 4547 2350 4581 2309 
Q 4616 2269 4616 2222 
Q 4616 2169 4581 2131 
Q 4547 2094 4500 2094 
L 481 2094 
z
" transform="scale(0.015625)"/>
     </defs>
     <use xlink:href="#Cmr10-73" transform="translate(0 0.109375)"/>
     <use xlink:href="#Cmr10-69" transform="translate(39.404297 0.109375)"/>
     <use xlink:href="#Cmr10-6e" transform="translate(67.089844 0.109375)"/>
     <use xlink:href="#Cmr10-32" transform="translate(127.071562 38.373438) scale(0.7)"/>
     <use xlink:href="#Cmmi10-b5" transform="translate(183.08136 0.109375)"/>
     <use xlink:href="#Cmr10-2b" transform="translate(247.563782 0.109375)"/>
     <use xlink:href="#Cmr10-63" transform="translate(342.807923 0.109375)"/>
     <use xlink:href="#Cmr10-6f" transform="translate(387.192688 0.109375)"/>
     <use xlink:href="#Cmr10-73" transform="translate(437.192688 0.109375)"/>
     <use xlink:href="#Cmr10-32" transform="translate(481.061126 38.373438) scale(0.7)"/>
     <use xlink:href="#Cmmi10-b5" transform="translate(537.070924 0.109375)"/>
     <use xlink:href="#Cmr10-3d" transform="translate(601.553346 0.109375)"/>
     <use xlink:href="#Cmr10-31" transform="translate(696.797486 0.109375)"/>
    </g>
   </g>
   <g id="text_22">
    <g id="patch_8">
     <path d="M 368.65394 61.610525 
L 418.14144 61.610525 
Q 420.54144 61.610525 420.54144 59.210525 
L 420.54144 35.059275 
Q 420.54144 32.659275 418.14144 32.659275 
L 368.65394 32.659275 
Q 366.25394 32.659275 366.25394 35.059275 
L 366.25394 59.210525 
Q 366.25394 61.610525 368.65394 61.610525 
z
" style="fill: #ffffff; opacity: 0.9; stroke: #e2e8f0; stroke-linejoin: miter"/>
    </g>
    <!-- ASTC: -->
    <g style="fill: #475569" transform="translate(395.18144 40.771775) scale(0.08 -0.08)">
     <defs>
      <path id="HelveticaNeue-41" d="M 1286 1888 
L 2061 4019 
L 2074 4019 
L 2835 1888 
L 1286 1888 
z
M 1741 4570 
L -38 0 
L 582 0 
L 1094 1376 
L 3027 1376 
L 3526 0 
L 4198 0 
L 2413 4570 
L 1741 4570 
z
" transform="scale(0.015625)"/>
      <path id="HelveticaNeue-53" d="M 3142 3232 
L 3718 3232 
Q 3706 3610 3574 3882 
Q 3443 4154 3216 4333 
Q 2989 4512 2688 4595 
Q 2387 4678 2035 4678 
Q 1722 4678 1424 4598 
Q 1126 4518 892 4355 
Q 659 4192 518 3939 
Q 378 3686 378 3341 
Q 378 3027 502 2819 
Q 627 2611 835 2480 
Q 1043 2349 1305 2269 
Q 1568 2189 1840 2128 
Q 2112 2067 2374 2009 
Q 2637 1952 2845 1859 
Q 3053 1766 3177 1619 
Q 3302 1472 3302 1235 
Q 3302 986 3200 826 
Q 3098 666 2931 573 
Q 2765 480 2557 441 
Q 2349 403 2144 403 
Q 1888 403 1645 467 
Q 1402 531 1219 665 
Q 1037 800 925 1008 
Q 813 1216 813 1504 
L 237 1504 
Q 237 1088 387 784 
Q 538 480 797 285 
Q 1056 90 1398 -6 
Q 1741 -102 2125 -102 
Q 2438 -102 2755 -28 
Q 3072 45 3328 208 
Q 3584 371 3747 630 
Q 3910 890 3910 1254 
Q 3910 1594 3785 1818 
Q 3661 2042 3453 2189 
Q 3245 2336 2982 2422 
Q 2720 2509 2448 2573 
Q 2176 2637 1913 2691 
Q 1651 2746 1443 2829 
Q 1235 2912 1110 3043 
Q 986 3174 986 3386 
Q 986 3610 1072 3760 
Q 1158 3910 1302 4000 
Q 1446 4090 1632 4128 
Q 1818 4166 2010 4166 
Q 2483 4166 2787 3945 
Q 3091 3725 3142 3232 
z
" transform="scale(0.015625)"/>
      <path id="HelveticaNeue-54" d="M 1536 4058 
L 1536 0 
L 2144 0 
L 2144 4058 
L 3667 4058 
L 3667 4570 
L 13 4570 
L 13 4058 
L 1536 4058 
z
" transform="scale(0.015625)"/>
      <path id="HelveticaNeue-43" d="M 3712 3194 
L 4320 3194 
Q 4269 3558 4102 3836 
Q 3936 4115 3686 4300 
Q 3437 4486 3117 4582 
Q 2797 4678 2438 4678 
Q 1914 4678 1507 4489 
Q 1101 4301 829 3974 
Q 557 3648 416 3209 
Q 275 2771 275 2272 
Q 275 1773 406 1337 
Q 538 902 800 582 
Q 1062 262 1459 80 
Q 1856 -102 2387 -102 
Q 3264 -102 3769 378 
Q 4275 858 4365 1722 
L 3757 1722 
Q 3738 1440 3642 1197 
Q 3546 954 3376 778 
Q 3206 602 2972 502 
Q 2739 403 2438 403 
Q 2029 403 1734 556 
Q 1440 710 1251 969 
Q 1062 1229 972 1577 
Q 883 1926 883 2317 
Q 883 2675 972 3008 
Q 1062 3341 1251 3600 
Q 1440 3859 1731 4012 
Q 2022 4166 2432 4166 
Q 2912 4166 3261 3923 
Q 3610 3680 3712 3194 
z
" transform="scale(0.015625)"/>
      <path id="HelveticaNeue-3a" d="M 1242 2598 
L 1242 3309 
L 531 3309 
L 531 2598 
L 1242 2598 
z
M 531 710 
L 531 0 
L 1242 0 
L 1242 710 
L 531 710 
z
" transform="scale(0.015625)"/>
     </defs>
     <use xlink:href="#HelveticaNeue-41"/>
     <use xlink:href="#HelveticaNeue-53" transform="translate(64.799988 0)"/>
     <use xlink:href="#HelveticaNeue-54" transform="translate(129.599976 0)"/>
     <use xlink:href="#HelveticaNeue-43" transform="translate(186.999969 0)"/>
     <use xlink:href="#HelveticaNeue-3a" transform="translate(259.199951 0)"/>
    </g>
    <!-- All Students -->
    <g style="fill: #475569" transform="translate(375.02269 49.203025) scale(0.08 -0.08)">
     <defs>
      <path id="HelveticaNeue-6c" d="M 442 4570 
L 442 0 
L 986 0 
L 986 4570 
L 442 4570 
z
" transform="scale(0.015625)"/>
      <path id="HelveticaNeue-20" transform="scale(0.015625)"/>
      <path id="HelveticaNeue-74" d="M 1165 3309 
L 1165 4301 
L 621 4301 
L 621 3309 
L 58 3309 
L 58 2829 
L 621 2829 
L 621 723 
Q 621 493 665 352 
Q 710 211 803 134 
Q 896 58 1046 29 
Q 1197 0 1408 0 
L 1824 0 
L 1824 480 
L 1574 480 
Q 1446 480 1366 489 
Q 1286 499 1241 531 
Q 1197 563 1181 620 
Q 1165 678 1165 774 
L 1165 2829 
L 1824 2829 
L 1824 3309 
L 1165 3309 
z
" transform="scale(0.015625)"/>
      <path id="HelveticaNeue-75" d="M 3149 0 
L 3149 3309 
L 2605 3309 
L 2605 1440 
Q 2605 1216 2544 1027 
Q 2483 838 2361 697 
Q 2240 557 2057 480 
Q 1875 403 1626 403 
Q 1312 403 1133 582 
Q 954 762 954 1069 
L 954 3309 
L 410 3309 
L 410 1133 
Q 410 864 464 643 
Q 518 422 652 262 
Q 787 102 1004 16 
Q 1222 -70 1549 -70 
Q 1914 -70 2182 74 
Q 2451 218 2624 525 
L 2637 525 
L 2637 0 
L 3149 0 
z
" transform="scale(0.015625)"/>
      <path id="HelveticaNeue-64" d="M 806 1626 
Q 806 1869 857 2099 
Q 909 2330 1024 2509 
Q 1139 2688 1331 2797 
Q 1523 2906 1798 2906 
Q 2080 2906 2278 2800 
Q 2477 2694 2601 2521 
Q 2726 2349 2784 2121 
Q 2842 1894 2842 1651 
Q 2842 1421 2787 1197 
Q 2733 973 2611 797 
Q 2490 621 2298 512 
Q 2106 403 1830 403 
Q 1568 403 1373 505 
Q 1178 608 1053 781 
Q 928 954 867 1174 
Q 806 1395 806 1626 
z
M 3366 0 
L 3366 4570 
L 2822 4570 
L 2822 2867 
L 2810 2867 
Q 2720 3014 2589 3113 
Q 2458 3213 2310 3273 
Q 2163 3334 2016 3360 
Q 1869 3386 1741 3386 
Q 1363 3386 1078 3248 
Q 794 3110 605 2876 
Q 416 2643 323 2329 
Q 230 2016 230 1664 
Q 230 1312 326 998 
Q 422 685 611 448 
Q 800 211 1085 70 
Q 1370 -70 1754 -70 
Q 2099 -70 2387 51 
Q 2675 173 2810 448 
L 2822 448 
L 2822 0 
L 3366 0 
z
" transform="scale(0.015625)"/>
      <path id="HelveticaNeue-65" d="M 2707 1971 
L 806 1971 
Q 819 2163 889 2332 
Q 960 2502 1081 2630 
Q 1203 2758 1372 2832 
Q 1542 2906 1754 2906 
Q 1958 2906 2128 2832 
Q 2298 2758 2422 2633 
Q 2547 2509 2620 2336 
Q 2694 2163 2707 1971 
z
M 3232 1050 
L 2694 1050 
Q 2624 723 2403 563 
Q 2182 403 1837 403 
Q 1568 403 1369 492 
Q 1171 582 1043 732 
Q 915 883 857 1078 
Q 800 1274 806 1491 
L 3283 1491 
Q 3296 1792 3229 2125 
Q 3162 2458 2986 2739 
Q 2810 3021 2518 3203 
Q 2227 3386 1786 3386 
Q 1446 3386 1161 3258 
Q 877 3130 669 2899 
Q 461 2669 345 2355 
Q 230 2042 230 1664 
Q 243 1286 342 966 
Q 442 646 640 416 
Q 838 186 1129 58 
Q 1421 -70 1818 -70 
Q 2381 -70 2752 211 
Q 3123 493 3232 1050 
z
" transform="scale(0.015625)"/>
      <path id="HelveticaNeue-6e" d="M 410 3309 
L 410 0 
L 954 0 
L 954 1869 
Q 954 2093 1014 2281 
Q 1075 2470 1196 2611 
Q 1318 2752 1500 2829 
Q 1683 2906 1933 2906 
Q 2246 2906 2425 2726 
Q 2605 2547 2605 2240 
L 2605 0 
L 3149 0 
L 3149 2176 
Q 3149 2445 3094 2665 
Q 3040 2886 2905 3046 
Q 2771 3206 2553 3296 
Q 2336 3386 2010 3386 
Q 1274 3386 934 2784 
L 922 2784 
L 922 3309 
L 410 3309 
z
" transform="scale(0.015625)"/>
      <path id="HelveticaNeue-73" d="M 742 1043 
L 198 1043 
Q 211 736 326 521 
Q 442 307 634 176 
Q 826 45 1075 -12 
Q 1325 -70 1600 -70 
Q 1850 -70 2102 -22 
Q 2355 26 2556 147 
Q 2758 269 2883 467 
Q 3008 666 3008 966 
Q 3008 1203 2915 1363 
Q 2822 1523 2672 1628 
Q 2522 1734 2326 1798 
Q 2131 1862 1926 1907 
Q 1734 1952 1542 1993 
Q 1350 2035 1196 2096 
Q 1043 2157 944 2249 
Q 845 2342 845 2483 
Q 845 2611 909 2691 
Q 973 2771 1075 2819 
Q 1178 2867 1302 2886 
Q 1427 2906 1549 2906 
Q 1683 2906 1814 2877 
Q 1946 2848 2054 2784 
Q 2163 2720 2233 2614 
Q 2304 2509 2317 2349 
L 2861 2349 
Q 2842 2650 2733 2851 
Q 2624 3053 2441 3171 
Q 2259 3290 2022 3338 
Q 1786 3386 1504 3386 
Q 1286 3386 1065 3331 
Q 845 3277 669 3165 
Q 493 3053 381 2873 
Q 269 2694 269 2445 
Q 269 2125 429 1945 
Q 589 1766 829 1667 
Q 1069 1568 1350 1513 
Q 1632 1459 1872 1392 
Q 2112 1325 2272 1216 
Q 2432 1107 2432 896 
Q 2432 742 2355 643 
Q 2278 544 2160 493 
Q 2042 442 1901 422 
Q 1760 403 1632 403 
Q 1466 403 1309 435 
Q 1152 467 1027 540 
Q 902 614 825 739 
Q 749 864 742 1043 
z
" transform="scale(0.015625)"/>
     </defs>
     <use xlink:href="#HelveticaNeue-41"/>
     <use xlink:href="#HelveticaNeue-6c" transform="translate(64.799988 0)"/>
     <use xlink:href="#HelveticaNeue-6c" transform="translate(86.999985 0)"/>
     <use xlink:href="#HelveticaNeue-20" transform="translate(109.199982 0)"/>
     <use xlink:href="#HelveticaNeue-53" transform="translate(136.999969 0)"/>
     <use xlink:href="#HelveticaNeue-74" transform="translate(201.799957 0)"/>
     <use xlink:href="#HelveticaNeue-75" transform="translate(233.299942 0)"/>
     <use xlink:href="#HelveticaNeue-64" transform="translate(288.899933 0)"/>
     <use xlink:href="#HelveticaNeue-65" transform="translate(348.199921 0)"/>
     <use xlink:href="#HelveticaNeue-6e" transform="translate(401.899918 0)"/>
     <use xlink:href="#HelveticaNeue-74" transform="translate(457.499908 0)"/>
     <use xlink:href="#HelveticaNeue-73" transform="translate(488.999893 0)"/>
    </g>
    <!-- Take Calculus -->
    <g style="fill: #475569" transform="translate(368.65394 57.634275) scale(0.08 -0.08)">
     <defs>
      <path id="HelveticaNeue-61" d="M 3341 13 
Q 3200 -70 2950 -70 
Q 2739 -70 2614 48 
Q 2490 166 2490 435 
Q 2266 166 1968 48 
Q 1670 -70 1325 -70 
Q 1101 -70 899 -19 
Q 698 32 550 141 
Q 403 250 316 426 
Q 230 602 230 851 
Q 230 1133 326 1312 
Q 422 1491 579 1603 
Q 736 1715 937 1772 
Q 1139 1830 1350 1869 
Q 1574 1914 1776 1936 
Q 1978 1958 2131 2000 
Q 2285 2042 2374 2122 
Q 2464 2202 2464 2355 
Q 2464 2534 2397 2643 
Q 2330 2752 2224 2809 
Q 2118 2867 1987 2886 
Q 1856 2906 1728 2906 
Q 1382 2906 1152 2774 
Q 922 2643 902 2278 
L 358 2278 
Q 371 2586 486 2797 
Q 602 3008 794 3139 
Q 986 3270 1232 3328 
Q 1478 3386 1760 3386 
Q 1984 3386 2205 3354 
Q 2426 3322 2605 3222 
Q 2784 3123 2893 2944 
Q 3002 2765 3002 2477 
L 3002 774 
Q 3002 582 3024 492 
Q 3046 403 3174 403 
Q 3245 403 3341 435 
L 3341 13 
z
M 2458 1709 
Q 2355 1632 2188 1597 
Q 2022 1562 1840 1539 
Q 1658 1517 1472 1488 
Q 1286 1459 1139 1395 
Q 992 1331 899 1212 
Q 806 1094 806 890 
Q 806 755 860 662 
Q 915 570 1001 512 
Q 1088 454 1203 428 
Q 1318 403 1446 403 
Q 1715 403 1907 476 
Q 2099 550 2220 662 
Q 2342 774 2400 905 
Q 2458 1037 2458 1152 
L 2458 1709 
z
" transform="scale(0.015625)"/>
      <path id="HelveticaNeue-6b" d="M 442 4570 
L 442 0 
L 986 0 
L 986 1254 
L 1498 1728 
L 2630 0 
L 3322 0 
L 1914 2106 
L 3226 3309 
L 2496 3309 
L 986 1862 
L 986 4570 
L 442 4570 
z
" transform="scale(0.015625)"/>
      <path id="HelveticaNeue-63" d="M 2656 2246 
L 3219 2246 
Q 3187 2541 3065 2755 
Q 2944 2970 2755 3110 
Q 2566 3251 2320 3318 
Q 2074 3386 1792 3386 
Q 1402 3386 1107 3248 
Q 813 3110 617 2870 
Q 422 2630 326 2307 
Q 230 1984 230 1613 
Q 230 1242 329 931 
Q 429 621 624 397 
Q 819 173 1110 51 
Q 1402 -70 1779 -70 
Q 2413 -70 2781 262 
Q 3149 595 3238 1210 
L 2682 1210 
Q 2630 826 2403 614 
Q 2176 403 1773 403 
Q 1517 403 1331 505 
Q 1146 608 1030 777 
Q 915 947 860 1164 
Q 806 1382 806 1613 
Q 806 1862 857 2096 
Q 909 2330 1027 2509 
Q 1146 2688 1344 2797 
Q 1542 2906 1837 2906 
Q 2182 2906 2387 2733 
Q 2592 2560 2656 2246 
z
" transform="scale(0.015625)"/>
     </defs>
     <use xlink:href="#HelveticaNeue-54"/>
     <use xlink:href="#HelveticaNeue-61" transform="translate(46.274994 0)"/>
     <use xlink:href="#HelveticaNeue-6b" transform="translate(99.974991 0)"/>
     <use xlink:href="#HelveticaNeue-65" transform="translate(151.874985 0)"/>
     <use xlink:href="#HelveticaNeue-20" transform="translate(205.574982 0)"/>
     <use xlink:href="#HelveticaNeue-43" transform="translate(233.374969 0)"/>
     <use xlink:href="#HelveticaNeue-61" transform="translate(305.574951 0)"/>
     <use xlink:href="#HelveticaNeue-6c" transform="translate(359.274948 0)"/>
     <use xlink:href="#HelveticaNeue-63" transform="translate(381.474945 0)"/>
     <use xlink:href="#HelveticaNeue-75" transform="translate(435.174942 0)"/>
     <use xlink:href="#HelveticaNeue-6c" transform="translate(490.774933 0)"/>
     <use xlink:href="#HelveticaNeue-75" transform="translate(512.97493 0)"/>
     <use xlink:href="#HelveticaNeue-73" transform="translate(568.574921 0)"/>
    </g>
   </g>
   <g id="text_23">
    <!-- The Unit Circle -->
    <g style="fill: #1e293b" transform="translate(170.708844 17.196875) scale(0.14 -0.14)">
     <defs>
      <path id="HelveticaNeue-68" d="M 410 4570 
L 410 0 
L 954 0 
L 954 1869 
Q 954 2093 1014 2281 
Q 1075 2470 1196 2611 
Q 1318 2752 1500 2829 
Q 1683 2906 1933 2906 
Q 2246 2906 2425 2726 
Q 2605 2547 2605 2240 
L 2605 0 
L 3149 0 
L 3149 2176 
Q 3149 2445 3094 2665 
Q 3040 2886 2905 3046 
Q 2771 3206 2553 3296 
Q 2336 3386 2010 3386 
Q 1862 3386 1705 3354 
Q 1549 3322 1405 3254 
Q 1261 3187 1145 3081 
Q 1030 2976 966 2822 
L 954 2822 
L 954 4570 
L 410 4570 
z
" transform="scale(0.015625)"/>
      <path id="HelveticaNeue-55" d="M 4147 1651 
L 4147 4570 
L 3539 4570 
L 3539 1651 
Q 3539 1037 3235 720 
Q 2931 403 2349 403 
Q 1734 403 1408 720 
Q 1082 1037 1082 1651 
L 1082 4570 
L 474 4570 
L 474 1651 
Q 474 736 970 317 
Q 1466 -102 2349 -102 
Q 3213 -102 3680 336 
Q 4147 774 4147 1651 
z
" transform="scale(0.015625)"/>
      <path id="HelveticaNeue-69" d="M 986 3904 
L 986 4570 
L 442 4570 
L 442 3904 
L 986 3904 
z
M 442 3309 
L 442 0 
L 986 0 
L 986 3309 
L 442 3309 
z
" transform="scale(0.015625)"/>
      <path id="HelveticaNeue-72" d="M 390 3309 
L 390 0 
L 934 0 
L 934 1472 
Q 934 1792 998 2038 
Q 1062 2285 1203 2457 
Q 1344 2630 1574 2720 
Q 1805 2810 2131 2810 
L 2131 3386 
Q 1690 3398 1402 3206 
Q 1114 3014 915 2611 
L 902 2611 
L 902 3309 
L 390 3309 
z
" transform="scale(0.015625)"/>
     </defs>
     <use xlink:href="#HelveticaNeue-54"/>
     <use xlink:href="#HelveticaNeue-68" transform="translate(57.399994 0)"/>
     <use xlink:href="#HelveticaNeue-65" transform="translate(112.999985 0)"/>
     <use xlink:href="#HelveticaNeue-20" transform="translate(166.699982 0)"/>
     <use xlink:href="#HelveticaNeue-55" transform="translate(194.499969 0)"/>
     <use xlink:href="#HelveticaNeue-6e" transform="translate(266.699951 0)"/>
     <use xlink:href="#HelveticaNeue-69" transform="translate(322.299942 0)"/>
     <use xlink:href="#HelveticaNeue-74" transform="translate(344.499939 0)"/>
     <use xlink:href="#HelveticaNeue-20" transform="translate(375.999924 0)"/>
     <use xlink:href="#HelveticaNeue-43" transform="translate(403.799911 0)"/>
     <use xlink:href="#HelveticaNeue-69" transform="translate(475.999893 0)"/>
     <use xlink:href="#HelveticaNeue-72" transform="translate(498.19989 0)"/>
     <use xlink:href="#HelveticaNeue-63" transform="translate(529.749878 0)"/>
     <use xlink:href="#HelveticaNeue-6c" transform="translate(583.449875 0)"/>
     <use xlink:href="#HelveticaNeue-65" transform="translate(605.649872 0)"/>
    </g>
   </g>
   <g id="line2d_6">
    <path d="M 216.864 223.756875 
L 330.347969 158.236875 
" clip-path="url(#p43c3446da9)" style="fill: none; stroke: #1e293b; stroke-width: 2; stroke-linecap: square"/>
   </g>
   <g id="line2d_7">
    <defs>
     <path id="m611f734092" d="M 0 3.5 
C 0.928211 3.5 1.81853 3.131218 2.474874 2.474874 
C 3.131218 1.81853 3.5 0.928211 3.5 0 
C 3.5 -0.928211 3.131218 -1.81853 2.474874 -2.474874 
C 1.81853 -3.131218 0.928211 -3.5 0 -3.5 
C -0.928211 -3.5 -1.81853 -3.131218 -2.474874 -2.474874 
C -3.131218 -1.81853 -3.5 -0.928211 -3.5 0 
C -3.5 0.928211 -3.131218 1.81853 -2.474874 2.474874 
C -1.81853 3.131218 -0.928211 3.5 0 3.5 
z
" style="stroke: #1e293b"/>
    </defs>
    <g clip-path="url(#p43c3446da9)">
     <use xlink:href="#m611f734092" x="347.904" y="223.756875" style="fill: #1e293b; stroke: #1e293b"/>
    </g>
   </g>
   <g id="line2d_8">
    <g clip-path="url(#p43c3446da9)">
     <use xlink:href="#m611f734092" x="330.347969" y="158.236875" style="fill: #1e293b; stroke: #1e293b"/>
    </g>
   </g>
   <g id="line2d_9">
    <g clip-path="url(#p43c3446da9)">
     <use xlink:href="#m611f734092" x="309.523273" y="131.097602" style="fill: #1e293b; stroke: #1e293b"/>
    </g>
   </g>
   <g id="line2d_10">
    <g clip-path="url(#p43c3446da9)">
     <use xlink:href="#m611f734092" x="282.384" y="110.272906" style="fill: #1e293b; stroke: #1e293b"/>
    </g>
   </g>
   <g id="line2d_11">
    <g clip-path="url(#p43c3446da9)">
     <use xlink:href="#m611f734092" x="216.864" y="92.716875" style="fill: #1e293b; stroke: #1e293b"/>
    </g>
   </g>
   <g id="line2d_12">
    <g clip-path="url(#p43c3446da9)">
     <use xlink:href="#m611f734092" x="151.344" y="110.272906" style="fill: #1e293b; stroke: #1e293b"/>
    </g>
   </g>
   <g id="line2d_13">
    <g clip-path="url(#p43c3446da9)">
     <use xlink:href="#m611f734092" x="124.204727" y="131.097602" style="fill: #1e293b; stroke: #1e293b"/>
    </g>
   </g>
   <g id="line2d_14">
    <g clip-path="url(#p43c3446da9)">
     <use xlink:href="#m611f734092" x="103.380031" y="158.236875" style="fill: #1e293b; stroke: #1e293b"/>
    </g>
   </g>
   <g id="line2d_15">
    <g clip-path="url(#p43c3446da9)">
     <use xlink:href="#m611f734092" x="85.824" y="223.756875" style="fill: #1e293b; stroke: #1e293b"/>
    </g>
   </g>
   <g id="line2d_16">
    <g clip-path="url(#p43c3446da9)">
     <use xlink:href="#m611f734092" x="103.380031" y="289.276875" style="fill: #1e293b; stroke: #1e293b"/>
    </g>
   </g>
   <g id="line2d_17">
    <g clip-path="url(#p43c3446da9)">
     <use xlink:href="#m611f734092" x="124.204727" y="316.416148" style="fill: #1e293b; stroke: #1e293b"/>
    </g>
   </g>
   <g id="line2d_18">
    <g clip-path="url(#p43c3446da9)">
     <use xlink:href="#m611f734092" x="151.344" y="337.240844" style="fill: #1e293b; stroke: #1e293b"/>
    </g>
   </g>
   <g id="line2d_19">
    <g clip-path="url(#p43c3446da9)">
     <use xlink:href="#m611f734092" x="216.864" y="354.796875" style="fill: #1e293b; stroke: #1e293b"/>
    </g>
   </g>
   <g id="line2d_20">
    <g clip-path="url(#p43c3446da9)">
     <use xlink:href="#m611f734092" x="282.384" y="337.240844" style="fill: #1e293b; stroke: #1e293b"/>
    </g>
   </g>
   <g id="line2d_21">
    <g clip-path="url(#p43c3446da9)">
     <use xlink:href="#m611f734092" x="309.523273" y="316.416148" style="fill: #1e293b; stroke: #1e293b"/>
    </g>
   </g>
   <g id="line2d_22">
    <g clip-path="url(#p43c3446da9)">
     <use xlink:href="#m611f734092" x="330.347969" y="289.276875" style="fill: #1e293b; stroke: #1e293b"/>
    </g>
   </g>
   <g id="line2d_23">
    <defs>
     <path id="m6831a75e4f" d="M 0 6 
C 1.591219 6 3.117479 5.367802 4.242641 4.242641 
C 5.367802 3.117479 6 1.591219 6 0 
C 6 -1.591219 5.367802 -3.117479 4.242641 -4.242641 
C 3.117479 -5.367802 1.591219 -6 0 -6 
C -1.591219 -6 -3.117479 -5.367802 -4.242641 -4.242641 
C -5.367802 -3.117479 -6 -1.591219 -6 0 
C -6 1.591219 -5.367802 3.117479 -4.242641 4.242641 
C -3.117479 5.367802 -1.591219 6 0 6 
z
" style="stroke: #ffffff; stroke-width: 2"/>
    </defs>
    <g clip-path="url(#p43c3446da9)">
     <use xlink:href="#m6831a75e4f" x="330.347969" y="158.236875" style="fill: #1e293b; stroke: #ffffff; stroke-width: 2"/>
    </g>
   </g>
  </g>
  <g id="axes_2">
   <g id="patch_9">
    <path d="M 494.064 387.556875 
L 947.664 387.556875 
L 947.664 50.596875 
L 494.064 50.596875 
L 494.064 387.556875 
z
" style="fill: none"/>
   </g>
   <g id="matplotlib.axis_1">
    <g id="xtick_1">
     <g id="line2d_24">
      <defs>
       <path id="mbbab78363c" d="M 0 0 
L 0 3.5 
" style="stroke: #1e293b; stroke-width: 0.8"/>
      </defs>
      <g>
       <use xlink:href="#mbbab78363c" x="504.399422" y="387.556875" style="fill: #1e293b; stroke: #1e293b; stroke-width: 0.8"/>
      </g>
     </g>
     <g id="text_24">
      <!-- 0 -->
      <g style="fill: #1e293b" transform="translate(501.619735 401.6975) scale(0.1 -0.1)">
       <defs>
        <path id="HelveticaNeue-30" d="M 845 2234 
Q 845 2400 848 2601 
Q 851 2803 880 3004 
Q 909 3206 963 3398 
Q 1018 3590 1123 3734 
Q 1229 3878 1389 3968 
Q 1549 4058 1779 4058 
Q 2010 4058 2170 3968 
Q 2330 3878 2435 3734 
Q 2541 3590 2595 3398 
Q 2650 3206 2678 3004 
Q 2707 2803 2710 2601 
Q 2714 2400 2714 2234 
Q 2714 1978 2698 1661 
Q 2682 1344 2595 1065 
Q 2509 787 2317 595 
Q 2125 403 1779 403 
Q 1434 403 1242 595 
Q 1050 787 963 1065 
Q 877 1344 861 1661 
Q 845 1978 845 2234 
z
M 269 2227 
Q 269 1978 281 1709 
Q 294 1440 345 1184 
Q 397 928 493 701 
Q 589 474 755 301 
Q 922 128 1174 29 
Q 1427 -70 1779 -70 
Q 2138 -70 2387 29 
Q 2637 128 2803 301 
Q 2970 474 3066 701 
Q 3162 928 3213 1184 
Q 3264 1440 3277 1709 
Q 3290 1978 3290 2227 
Q 3290 2477 3277 2745 
Q 3264 3014 3213 3270 
Q 3162 3526 3066 3756 
Q 2970 3987 2803 4160 
Q 2637 4333 2384 4435 
Q 2131 4538 1779 4538 
Q 1427 4538 1174 4435 
Q 922 4333 755 4160 
Q 589 3987 493 3756 
Q 397 3526 345 3270 
Q 294 3014 281 2745 
Q 269 2477 269 2227 
z
" transform="scale(0.015625)"/>
       </defs>
       <use xlink:href="#HelveticaNeue-30"/>
      </g>
     </g>
    </g>
    <g id="xtick_2">
     <g id="line2d_25">
      <g>
       <use xlink:href="#mbbab78363c" x="558.515567" y="387.556875" style="fill: #1e293b; stroke: #1e293b; stroke-width: 0.8"/>
      </g>
     </g>
     <g id="text_25">
      <!-- $\frac{\pi}{2}$ -->
      <g style="fill: #1e293b" transform="translate(555.865567 401.456875) scale(0.1 -0.1)">
       <defs>
        <path id="Cmmi10-bc" d="M 647 109 
Q 647 144 672 213 
Q 850 584 1004 942 
Q 1159 1300 1282 1639 
Q 1406 1978 1509 2363 
L 1100 2363 
Q 866 2363 662 2216 
Q 459 2069 325 1844 
Q 313 1819 288 1819 
L 213 1819 
Q 153 1819 153 1881 
Q 153 1894 166 1919 
Q 375 2275 614 2517 
Q 853 2759 1153 2759 
L 3475 2759 
Q 3541 2759 3587 2715 
Q 3634 2672 3634 2597 
Q 3634 2503 3567 2433 
Q 3500 2363 3406 2363 
L 2591 2363 
Q 2488 1859 2478 1381 
Q 2478 766 2694 269 
Q 2713 231 2713 191 
Q 2713 122 2672 62 
Q 2631 3 2567 -34 
Q 2503 -72 2431 -72 
Q 2263 -72 2200 203 
Q 2138 478 2138 738 
Q 2138 1103 2200 1442 
Q 2263 1781 2400 2363 
L 1703 2363 
Q 1197 313 1094 103 
Q 1003 -72 844 -72 
Q 766 -72 706 -20 
Q 647 31 647 109 
z
" transform="scale(0.015625)"/>
       </defs>
       <use xlink:href="#Cmmi10-bc" transform="translate(0 38.823437) scale(0.7)"/>
       <use xlink:href="#Cmr10-32" transform="translate(2 -39.840625) scale(0.7)"/>
       <path d="M 0 13.035937 
L 0 19.285937 
L 39.887695 19.285937 
L 39.887695 13.035937 
L 0 13.035937 
z
"/>
      </g>
     </g>
    </g>
    <g id="xtick_3">
     <g id="line2d_26">
      <g>
       <use xlink:href="#mbbab78363c" x="612.631711" y="387.556875" style="fill: #1e293b; stroke: #1e293b; stroke-width: 0.8"/>
      </g>
     </g>
     <g id="text_26">
      <!-- $\pi$ -->
      <g style="fill: #1e293b" transform="translate(609.781711 401.6975) scale(0.1 -0.1)">
       <use xlink:href="#Cmmi10-bc" transform="translate(0 0.890625)"/>
      </g>
     </g>
    </g>
    <g id="xtick_4">
     <g id="line2d_27">
      <g>
       <use xlink:href="#mbbab78363c" x="666.747856" y="387.556875" style="fill: #1e293b; stroke: #1e293b; stroke-width: 0.8"/>
      </g>
     </g>
     <g id="text_27">
      <!-- $\frac{3\pi}{2}$ -->
      <g style="fill: #1e293b" transform="translate(662.347856 403.156875) scale(0.1 -0.1)">
       <use xlink:href="#Cmr10-33" transform="translate(0 39.373438) scale(0.7)"/>
       <use xlink:href="#Cmmi10-bc" transform="translate(35 39.373438) scale(0.7)"/>
       <use xlink:href="#Cmr10-32" transform="translate(20 -40.045312) scale(0.7)"/>
       <path d="M 0 12.83125 
L 0 19.08125 
L 74.887695 19.08125 
L 74.887695 12.83125 
L 0 12.83125 
z
"/>
      </g>
     </g>
    </g>
    <g id="xtick_5">
     <g id="line2d_28">
      <g>
       <use xlink:href="#mbbab78363c" x="720.864" y="387.556875" style="fill: #1e293b; stroke: #1e293b; stroke-width: 0.8"/>
      </g>
     </g>
     <g id="text_28">
      <!-- $2\pi$ -->
      <g style="fill: #1e293b" transform="translate(715.514 401.6975) scale(0.1 -0.1)">
       <use xlink:href="#Cmr10-32" transform="translate(0 0.390625)"/>
       <use xlink:href="#Cmmi10-bc" transform="translate(50 0.390625)"/>
      </g>
     </g>
    </g>
    <g id="xtick_6">
     <g id="line2d_29">
      <g>
       <use xlink:href="#mbbab78363c" x="774.980144" y="387.556875" style="fill: #1e293b; stroke: #1e293b; stroke-width: 0.8"/>
      </g>
     </g>
     <g id="text_29">
      <!-- $\frac{5\pi}{2}$ -->
      <g style="fill: #1e293b" transform="translate(770.580144 403.156875) scale(0.1 -0.1)">
       <use xlink:href="#Cmr10-35" transform="translate(0 39.373438) scale(0.7)"/>
       <use xlink:href="#Cmmi10-bc" transform="translate(35 39.373438) scale(0.7)"/>
       <use xlink:href="#Cmr10-32" transform="translate(20 -40.045312) scale(0.7)"/>
       <path d="M 0 12.83125 
L 0 19.08125 
L 74.887695 19.08125 
L 74.887695 12.83125 
L 0 12.83125 
z
"/>
      </g>
     </g>
    </g>
    <g id="xtick_7">
     <g id="line2d_30">
      <g>
       <use xlink:href="#mbbab78363c" x="829.096289" y="387.556875" style="fill: #1e293b; stroke: #1e293b; stroke-width: 0.8"/>
      </g>
     </g>
     <g id="text_30">
      <!-- $3\pi$ -->
      <g style="fill: #1e293b" transform="translate(823.746289 401.6975) scale(0.1 -0.1)">
       <use xlink:href="#Cmr10-33" transform="translate(0 0.390625)"/>
       <use xlink:href="#Cmmi10-bc" transform="translate(50 0.390625)"/>
      </g>
     </g>
    </g>
    <g id="xtick_8">
     <g id="line2d_31">
      <g>
       <use xlink:href="#mbbab78363c" x="883.212433" y="387.556875" style="fill: #1e293b; stroke: #1e293b; stroke-width: 0.8"/>
      </g>
     </g>
     <g id="text_31">
      <!-- $\frac{7\pi}{2}$ -->
      <g style="fill: #1e293b" transform="translate(878.812433 403.256875) scale(0.1 -0.1)">
       <use xlink:href="#Cmr10-37" transform="translate(0 39.695312) scale(0.7)"/>
       <use xlink:href="#Cmmi10-bc" transform="translate(35 39.695312) scale(0.7)"/>
       <use xlink:href="#Cmr10-32" transform="translate(20 -39.723437) scale(0.7)"/>
       <path d="M 0 13.153125 
L 0 19.403125 
L 74.887695 19.403125 
L 74.887695 13.153125 
L 0 13.153125 
z
"/>
      </g>
     </g>
    </g>
    <g id="xtick_9">
     <g id="line2d_32">
      <g>
       <use xlink:href="#mbbab78363c" x="937.328578" y="387.556875" style="fill: #1e293b; stroke: #1e293b; stroke-width: 0.8"/>
      </g>
     </g>
     <g id="text_32">
      <!-- $4\pi$ -->
      <g style="fill: #1e293b" transform="translate(931.978578 401.6975) scale(0.1 -0.1)">
       <use xlink:href="#Cmr10-34" transform="translate(0 0.390625)"/>
       <use xlink:href="#Cmmi10-bc" transform="translate(50 0.390625)"/>
      </g>
     </g>
    </g>
    <g id="text_33">
     <!-- $x$ (radians) -->
     <g style="fill: #1e293b" transform="translate(695.289 419.496875) scale(0.11 -0.11)">
      <defs>
       <path id="Cmmi10-78" d="M 500 184 
Q 613 97 819 97 
Q 1019 97 1172 289 
Q 1325 481 1381 709 
L 1672 1844 
Q 1741 2153 1741 2266 
Q 1741 2425 1652 2544 
Q 1563 2663 1403 2663 
Q 1200 2663 1022 2536 
Q 844 2409 722 2214 
Q 600 2019 550 1819 
Q 538 1778 500 1778 
L 422 1778 
Q 372 1778 372 1838 
L 372 1856 
Q 434 2094 584 2320 
Q 734 2547 951 2687 
Q 1169 2828 1416 2828 
Q 1650 2828 1839 2703 
Q 2028 2578 2106 2363 
Q 2216 2559 2386 2693 
Q 2556 2828 2759 2828 
Q 2897 2828 3040 2779 
Q 3184 2731 3275 2631 
Q 3366 2531 3366 2381 
Q 3366 2219 3261 2101 
Q 3156 1984 2994 1984 
Q 2891 1984 2822 2050 
Q 2753 2116 2753 2216 
Q 2753 2350 2845 2451 
Q 2938 2553 3066 2572 
Q 2950 2663 2747 2663 
Q 2541 2663 2389 2472 
Q 2238 2281 2175 2047 
L 1894 916 
Q 1825 659 1825 494 
Q 1825 331 1917 214 
Q 2009 97 2163 97 
Q 2463 97 2698 361 
Q 2934 625 3009 941 
Q 3022 978 3059 978 
L 3138 978 
Q 3163 978 3178 961 
Q 3194 944 3194 922 
Q 3194 916 3188 903 
Q 3097 522 2806 225 
Q 2516 -72 2150 -72 
Q 1916 -72 1727 54 
Q 1538 181 1459 397 
Q 1359 209 1182 68 
Q 1006 -72 806 -72 
Q 669 -72 523 -23 
Q 378 25 287 125 
Q 197 225 197 378 
Q 197 528 301 651 
Q 406 775 563 775 
Q 669 775 741 711 
Q 813 647 813 544 
Q 813 409 723 309 
Q 634 209 500 184 
z
" transform="scale(0.015625)"/>
       <path id="HelveticaNeue-28" d="M 1306 -1261 
L 1722 -1261 
Q 1267 -525 1072 198 
Q 877 922 877 1728 
Q 877 2515 1069 3232 
Q 1261 3949 1722 4678 
L 1306 4678 
Q 806 4019 553 3251 
Q 301 2483 301 1728 
Q 301 1306 371 922 
Q 442 538 573 173 
Q 704 -192 889 -547 
Q 1075 -902 1306 -1261 
z
" transform="scale(0.015625)"/>
       <path id="HelveticaNeue-29" d="M -58 -1261 
L 352 -1261 
Q 851 -602 1104 163 
Q 1357 928 1357 1683 
Q 1357 2106 1286 2490 
Q 1216 2874 1085 3242 
Q 954 3610 768 3965 
Q 582 4320 352 4678 
L -58 4678 
Q 390 3942 585 3216 
Q 781 2490 781 1683 
Q 781 902 589 182 
Q 397 -538 -58 -1261 
z
" transform="scale(0.015625)"/>
      </defs>
      <use xlink:href="#Cmmi10-78" transform="translate(0 0.90625)"/>
      <use xlink:href="#HelveticaNeue-20" transform="translate(57.080078 0.90625)"/>
      <use xlink:href="#HelveticaNeue-28" transform="translate(84.880066 0.90625)"/>
      <use xlink:href="#HelveticaNeue-72" transform="translate(110.78006 0.90625)"/>
      <use xlink:href="#HelveticaNeue-61" transform="translate(144.080048 0.90625)"/>
      <use xlink:href="#HelveticaNeue-64" transform="translate(197.780045 0.90625)"/>
      <use xlink:href="#HelveticaNeue-69" transform="translate(257.080032 0.90625)"/>
      <use xlink:href="#HelveticaNeue-61" transform="translate(279.280029 0.90625)"/>
      <use xlink:href="#HelveticaNeue-6e" transform="translate(332.980026 0.90625)"/>
      <use xlink:href="#HelveticaNeue-73" transform="translate(388.580017 0.90625)"/>
      <use xlink:href="#HelveticaNeue-29" transform="translate(438.580002 0.90625)"/>
     </g>
    </g>
   </g>
   <g id="matplotlib.axis_2">
    <g id="ytick_1">
     <g id="line2d_33">
      <defs>
       <path id="m112d7a37f5" d="M 0 0 
L -3.5 0 
" style="stroke: #1e293b; stroke-width: 0.8"/>
      </defs>
      <g>
       <use xlink:href="#m112d7a37f5" x="494.064" y="339.419732" style="fill: #1e293b; stroke: #1e293b; stroke-width: 0.8"/>
      </g>
     </g>
     <g id="text_34">
      <!-- −1.0 -->
      <g style="fill: #1e293b" transform="translate(467.165562 342.990045) scale(0.1 -0.1)">
       <defs>
        <path id="HelveticaNeue-2212" d="M 307 1837 
L 307 1402 
L 3533 1402 
L 3533 1837 
L 307 1837 
z
" transform="scale(0.015625)"/>
        <path id="HelveticaNeue-31" d="M 2278 0 
L 2278 4538 
L 1862 4538 
Q 1818 4282 1696 4115 
Q 1574 3949 1398 3853 
Q 1222 3757 1004 3721 
Q 787 3686 557 3686 
L 557 3251 
L 1734 3251 
L 1734 0 
L 2278 0 
z
" transform="scale(0.015625)"/>
        <path id="HelveticaNeue-2e" d="M 531 710 
L 531 0 
L 1242 0 
L 1242 710 
L 531 710 
z
" transform="scale(0.015625)"/>
       </defs>
       <use xlink:href="#HelveticaNeue-2212"/>
       <use xlink:href="#HelveticaNeue-31" transform="translate(59.999985 0)"/>
       <use xlink:href="#HelveticaNeue-2e" transform="translate(115.599976 0)"/>
       <use xlink:href="#HelveticaNeue-30" transform="translate(143.399963 0)"/>
      </g>
     </g>
    </g>
    <g id="ytick_2">
     <g id="line2d_34">
      <g>
       <use xlink:href="#m112d7a37f5" x="494.064" y="279.248304" style="fill: #1e293b; stroke: #1e293b; stroke-width: 0.8"/>
      </g>
     </g>
     <g id="text_35">
      <!-- −0.5 -->
      <g style="fill: #1e293b" transform="translate(467.165562 282.818616) scale(0.1 -0.1)">
       <defs>
        <path id="HelveticaNeue-35" d="M 3008 3981 
L 3008 4461 
L 768 4461 
L 346 2106 
L 813 2080 
Q 973 2272 1181 2390 
Q 1389 2509 1658 2509 
Q 1888 2509 2077 2432 
Q 2266 2355 2400 2217 
Q 2534 2080 2608 1891 
Q 2682 1702 2682 1478 
Q 2682 1210 2605 1008 
Q 2528 806 2397 672 
Q 2266 538 2090 470 
Q 1914 403 1722 403 
Q 1517 403 1347 464 
Q 1178 525 1053 637 
Q 928 749 854 899 
Q 781 1050 768 1222 
L 224 1222 
Q 230 915 345 672 
Q 461 429 659 265 
Q 858 102 1117 16 
Q 1376 -70 1670 -70 
Q 2067 -70 2364 54 
Q 2662 179 2860 390 
Q 3059 602 3158 874 
Q 3258 1146 3258 1434 
Q 3258 1824 3142 2115 
Q 3027 2406 2828 2601 
Q 2630 2797 2361 2893 
Q 2093 2989 1792 2989 
Q 1562 2989 1328 2909 
Q 1094 2829 947 2662 
L 934 2675 
L 1178 3981 
L 3008 3981 
z
" transform="scale(0.015625)"/>
       </defs>
       <use xlink:href="#HelveticaNeue-2212"/>
       <use xlink:href="#HelveticaNeue-30" transform="translate(59.999985 0)"/>
       <use xlink:href="#HelveticaNeue-2e" transform="translate(115.599976 0)"/>
       <use xlink:href="#HelveticaNeue-35" transform="translate(143.399963 0)"/>
      </g>
     </g>
    </g>
    <g id="ytick_3">
     <g id="line2d_35">
      <g>
       <use xlink:href="#m112d7a37f5" x="494.064" y="219.076875" style="fill: #1e293b; stroke: #1e293b; stroke-width: 0.8"/>
      </g>
     </g>
     <g id="text_36">
      <!-- 0.0 -->
      <g style="fill: #1e293b" transform="translate(473.165562 222.647187) scale(0.1 -0.1)">
       <use xlink:href="#HelveticaNeue-30"/>
       <use xlink:href="#HelveticaNeue-2e" transform="translate(55.599991 0)"/>
       <use xlink:href="#HelveticaNeue-30" transform="translate(83.399979 0)"/>
      </g>
     </g>
    </g>
    <g id="ytick_4">
     <g id="line2d_36">
      <g>
       <use xlink:href="#m112d7a37f5" x="494.064" y="158.905446" style="fill: #1e293b; stroke: #1e293b; stroke-width: 0.8"/>
      </g>
     </g>
     <g id="text_37">
      <!-- 0.5 -->
      <g style="fill: #1e293b" transform="translate(473.165562 162.475759) scale(0.1 -0.1)">
       <use xlink:href="#HelveticaNeue-30"/>
       <use xlink:href="#HelveticaNeue-2e" transform="translate(55.599991 0)"/>
       <use xlink:href="#HelveticaNeue-35" transform="translate(83.399979 0)"/>
      </g>
     </g>
    </g>
    <g id="ytick_5">
     <g id="line2d_37">
      <g>
       <use xlink:href="#m112d7a37f5" x="494.064" y="98.734018" style="fill: #1e293b; stroke: #1e293b; stroke-width: 0.8"/>
      </g>
     </g>
     <g id="text_38">
      <!-- 1.0 -->
      <g style="fill: #1e293b" transform="translate(473.165562 102.30433) scale(0.1 -0.1)">
       <use xlink:href="#HelveticaNeue-31"/>
       <use xlink:href="#HelveticaNeue-2e" transform="translate(55.599991 0)"/>
       <use xlink:href="#HelveticaNeue-30" transform="translate(83.399979 0)"/>
      </g>
     </g>
    </g>
    <g id="text_39">
     <!-- $y$ -->
     <g style="fill: #1e293b" transform="translate(460.855562 221.826875) rotate(-90) scale(0.11 -0.11)">
      <defs>
       <path id="Cmmi10-79" d="M 538 -916 
Q 672 -1147 1006 -1147 
Q 1309 -1147 1531 -934 
Q 1753 -722 1889 -420 
Q 2025 -119 2100 197 
Q 1816 -72 1484 -72 
Q 1231 -72 1053 15 
Q 875 103 776 276 
Q 678 450 678 697 
Q 678 906 734 1126 
Q 791 1347 892 1617 
Q 994 1888 1069 2088 
Q 1153 2322 1153 2472 
Q 1153 2663 1013 2663 
Q 759 2663 595 2402 
Q 431 2141 353 1819 
Q 341 1778 300 1778 
L 225 1778 
Q 172 1778 172 1838 
L 172 1856 
Q 275 2238 487 2533 
Q 700 2828 1025 2828 
Q 1253 2828 1411 2678 
Q 1569 2528 1569 2297 
Q 1569 2178 1516 2047 
Q 1488 1969 1388 1706 
Q 1288 1444 1234 1272 
Q 1181 1100 1147 934 
Q 1113 769 1113 603 
Q 1113 391 1203 244 
Q 1294 97 1491 97 
Q 1888 97 2203 581 
L 2688 2553 
Q 2709 2638 2787 2698 
Q 2866 2759 2956 2759 
Q 3034 2759 3092 2709 
Q 3150 2659 3150 2578 
Q 3150 2541 3144 2528 
L 2509 -19 
Q 2425 -347 2200 -647 
Q 1975 -947 1658 -1130 
Q 1341 -1313 997 -1313 
Q 831 -1313 668 -1248 
Q 506 -1184 406 -1056 
Q 306 -928 306 -756 
Q 306 -581 409 -453 
Q 513 -325 684 -325 
Q 788 -325 858 -389 
Q 928 -453 928 -556 
Q 928 -703 818 -812 
Q 709 -922 563 -922 
Q 556 -919 550 -917 
Q 544 -916 538 -916 
z
" transform="scale(0.015625)"/>
      </defs>
      <use xlink:href="#Cmmi10-79" transform="translate(0 0.8125)"/>
     </g>
    </g>
   </g>
   <g id="line2d_38">
    <path d="M 487.173718 276.772314 
L 490.920256 264.969103 
L 495.603428 249.469601 
L 502.159869 226.894393 
L 513.399482 187.99497 
L 518.082654 172.526499 
L 521.829191 160.75689 
L 525.575729 149.676308 
L 529.322266 139.415664 
L 532.132169 132.331596 
L 534.942073 125.824259 
L 537.751976 119.936918 
L 540.561879 114.708716 
L 542.435148 111.606789 
L 544.308417 108.822526 
L 546.181685 106.364155 
L 548.054954 104.238943 
L 549.928223 102.453173 
L 551.801492 101.012123 
L 553.674761 99.920052 
L 555.548029 99.180188 
L 557.421298 98.794718 
L 559.294567 98.764781 
L 561.167836 99.090467 
L 563.041104 99.770811 
L 564.914373 100.803804 
L 566.787642 102.186392 
L 568.660911 103.914488 
L 570.53418 105.982984 
L 572.407448 108.385767 
L 574.280717 111.115733 
L 576.153986 114.164814 
L 578.027255 117.523998 
L 580.837158 123.12225 
L 583.647061 129.358463 
L 586.456964 136.191176 
L 589.266868 143.574959 
L 593.013405 154.191888 
L 596.759943 165.575405 
L 601.443115 180.677194 
L 607.062921 199.709029 
L 624.858975 260.897112 
L 629.542147 275.803457 
L 633.288684 286.987566 
L 637.035222 297.36934 
L 639.845125 304.554954 
L 642.655028 311.172261 
L 645.464931 317.177266 
L 648.274834 322.530044 
L 650.148103 325.718454 
L 652.021372 328.591649 
L 653.894641 331.141138 
L 655.76791 333.359384 
L 657.641178 335.239831 
L 659.514447 336.77692 
L 661.387716 337.966107 
L 663.260985 338.803879 
L 665.134254 339.287758 
L 667.007522 339.416314 
L 668.880791 339.189167 
L 670.75406 338.606989 
L 672.627329 337.671501 
L 674.500597 336.385467 
L 676.373866 334.752689 
L 678.247135 332.777993 
L 680.120404 330.467216 
L 681.993673 327.827189 
L 683.866941 324.865714 
L 685.74021 321.591545 
L 688.550113 316.115408 
L 691.360017 309.994103 
L 694.16992 303.26833 
L 696.979823 295.982803 
L 699.789726 288.185963 
L 703.536264 277.084841 
L 707.282801 265.29838 
L 711.965973 249.814325 
L 718.522414 227.250017 
L 729.762027 188.339425 
L 734.445199 172.85537 
L 738.191736 161.068909 
L 741.938274 149.967787 
L 745.684811 139.68316 
L 748.494715 132.579013 
L 751.304618 126.049953 
L 754.114521 120.139389 
L 756.924424 114.886617 
L 758.797693 111.767643 
L 760.670962 108.965856 
L 762.544231 106.489539 
L 764.417499 104.34601 
L 766.290768 102.541607 
L 768.164037 101.081661 
L 770.037306 99.970489 
L 771.910575 99.211376 
L 773.783843 98.806564 
L 775.657112 98.75725 
L 777.530381 99.063581 
L 779.40365 99.724651 
L 781.276918 100.738505 
L 783.150187 102.102147 
L 785.023456 103.811547 
L 786.896725 105.86165 
L 788.769994 108.246399 
L 790.643262 110.958744 
L 792.516531 113.990667 
L 794.3898 117.333207 
L 797.199703 122.907568 
L 800.009606 129.121316 
L 802.81951 135.93314 
L 805.629413 143.297751 
L 809.37595 153.892003 
L 813.122488 165.256388 
L 817.80566 180.339582 
L 823.425466 199.357348 
L 841.22152 260.56273 
L 845.904692 275.488877 
L 849.651229 286.693029 
L 853.397767 297.098324 
L 856.20767 304.303697 
L 859.017573 310.942434 
L 861.827476 316.970396 
L 864.63738 322.347507 
L 866.510648 325.552824 
L 868.383917 328.443416 
L 870.257186 331.010739 
L 872.130455 333.247205 
L 874.003724 335.146203 
L 875.876992 336.70212 
L 877.750261 337.910357 
L 879.62353 338.767342 
L 881.496799 339.270543 
L 883.370068 339.418472 
L 885.243336 339.210692 
L 887.116605 338.647817 
L 888.989874 337.731511 
L 890.863143 336.464482 
L 892.736411 334.850475 
L 894.60968 332.894262 
L 896.482949 330.601623 
L 898.356218 327.979337 
L 900.229487 325.035154 
L 902.102755 321.777776 
L 904.912659 316.325777 
L 907.722562 310.227213 
L 910.532465 303.52263 
L 913.342368 296.256603 
L 916.152271 288.477442 
L 919.898809 277.39686 
L 923.645346 265.627251 
L 928.328518 250.15878 
L 934.884959 227.605569 
L 947.061206 185.530055 
L 951.744378 170.177443 
L 954.554282 161.381436 
L 954.554282 161.381436 
" clip-path="url(#p78d6f7ee2b)" style="fill: none; stroke: #dc2626; stroke-width: 2.5; stroke-linecap: square"/>
   </g>
   <g id="line2d_39">
    <path d="M 487.173718 113.466082 
L 489.046987 110.486566 
L 490.920256 107.828025 
L 492.793525 105.498316 
L 494.666794 103.504326 
L 496.540062 101.851948 
L 498.413331 100.546068 
L 500.2866 99.590544 
L 502.159869 98.988201 
L 504.033138 98.740819 
L 505.906406 98.849131 
L 507.779675 99.312815 
L 509.652944 100.130501 
L 511.526213 101.299772 
L 513.399482 102.817172 
L 515.27275 104.678216 
L 517.146019 106.877403 
L 519.019288 109.408232 
L 520.892557 112.263223 
L 522.765825 115.433937 
L 525.575729 120.761238 
L 528.385632 126.742197 
L 531.195535 133.337049 
L 534.005438 140.501948 
L 536.815341 148.189258 
L 540.561879 159.162847 
L 544.308417 170.844296 
L 548.991589 186.230616 
L 555.548029 208.723728 
L 568.660911 254.005773 
L 573.344083 269.29005 
L 577.09062 280.863441 
L 580.837158 291.70685 
L 583.647061 299.282922 
L 586.456964 306.325738 
L 589.266868 312.788475 
L 592.076771 318.628163 
L 594.886674 323.805979 
L 596.759943 326.87296 
L 598.633211 329.621315 
L 600.50648 332.042919 
L 602.379749 334.130615 
L 604.253018 335.878232 
L 606.126287 337.280604 
L 607.999555 338.333586 
L 609.872824 339.034065 
L 611.746093 339.379972 
L 613.619362 339.370284 
L 615.492631 339.005028 
L 617.365899 338.285286 
L 619.239168 337.213184 
L 621.112437 335.791891 
L 622.985706 334.025609 
L 624.858975 331.919558 
L 626.732243 329.479963 
L 628.605512 326.714036 
L 630.478781 323.629952 
L 632.35205 320.236826 
L 635.161953 314.589869 
L 637.971856 308.307887 
L 640.781759 301.432646 
L 643.591662 294.009858 
L 647.3382 283.346847 
L 651.084738 271.924514 
L 655.76791 256.785115 
L 661.387716 237.725031 
L 679.183769 176.573993 
L 683.866941 161.708549 
L 687.613479 150.565729 
L 691.360017 140.232339 
L 694.16992 133.087328 
L 696.979823 126.514024 
L 699.789726 120.55613 
L 702.599629 115.253258 
L 704.472898 112.099508 
L 706.346167 109.261964 
L 708.219436 106.749015 
L 710.092704 104.568088 
L 711.965973 102.725629 
L 713.839242 101.227084 
L 715.712511 100.076884 
L 717.58578 99.278426 
L 719.459048 98.834073 
L 721.332317 98.745136 
L 723.205586 99.01188 
L 725.078855 99.633515 
L 726.952124 100.608204 
L 728.825392 101.933067 
L 730.698661 103.604186 
L 732.57193 105.616623 
L 734.445199 107.964429 
L 736.318468 110.640664 
L 738.191736 113.637418 
L 740.065005 116.945833 
L 742.874908 122.471183 
L 745.684811 128.638823 
L 748.494715 135.407746 
L 751.304618 142.732948 
L 755.051155 153.28054 
L 758.797693 164.605488 
L 763.480865 179.650247 
L 769.100671 198.638725 
L 787.833359 262.940347 
L 792.516531 277.722354 
L 796.263069 288.78137 
L 800.009606 299.016857 
L 802.81951 306.079878 
L 805.629413 312.564455 
L 808.439316 318.427473 
L 811.249219 323.629952 
L 813.122488 326.714036 
L 814.995757 329.479963 
L 816.869025 331.919558 
L 818.742294 334.025609 
L 820.615563 335.791891 
L 822.488832 337.213184 
L 824.362101 338.285286 
L 826.235369 339.005028 
L 828.108638 339.370284 
L 829.981907 339.379972 
L 831.855176 339.034065 
L 833.728445 338.333586 
L 835.601713 337.280604 
L 837.474982 335.878232 
L 839.348251 334.130615 
L 841.22152 332.042919 
L 843.094789 329.621315 
L 844.968057 326.87296 
L 846.841326 323.805979 
L 848.714595 320.429436 
L 851.524498 314.80627 
L 854.334401 308.546641 
L 857.144304 301.692166 
L 859.954208 294.288418 
L 863.700745 283.647893 
L 867.447283 272.244489 
L 872.130455 257.123412 
L 877.750261 238.077055 
L 895.546315 176.907621 
L 900.229487 162.022108 
L 903.976024 150.859046 
L 907.722562 140.501948 
L 910.532465 133.337049 
L 913.342368 126.742197 
L 916.152271 120.761238 
L 918.962175 115.433937 
L 920.835443 112.263223 
L 922.708712 109.408232 
L 924.581981 106.877403 
L 926.45525 104.678216 
L 928.328518 102.817172 
L 930.201787 101.299772 
L 932.075056 100.130501 
L 933.948325 99.312815 
L 935.821594 98.849131 
L 937.694862 98.740819 
L 939.568131 98.988201 
L 941.4414 99.590544 
L 943.314669 100.546068 
L 945.187938 101.851948 
L 947.061206 103.504326 
L 948.934475 105.498316 
L 950.807744 107.828025 
L 952.681013 110.486566 
L 954.554282 113.466082 
L 954.554282 113.466082 
" clip-path="url(#p78d6f7ee2b)" style="fill: none; stroke: #2563eb; stroke-width: 2.5; stroke-linecap: square"/>
   </g>
   <g id="line2d_40">
    <path d="M 494.064 98.734018 
L 947.664 98.734018 
" clip-path="url(#p78d6f7ee2b)" style="fill: none; stroke-dasharray: 1,1.65; stroke-dashoffset: 0; stroke: #475569; stroke-opacity: 0.5"/>
   </g>
   <g id="line2d_41">
    <path d="M 494.064 339.419732 
L 947.664 339.419732 
" clip-path="url(#p78d6f7ee2b)" style="fill: none; stroke-dasharray: 1,1.65; stroke-dashoffset: 0; stroke: #475569; stroke-opacity: 0.5"/>
   </g>
   <g id="line2d_42">
    <path d="M 494.064 219.076875 
L 947.664 219.076875 
" clip-path="url(#p78d6f7ee2b)" style="fill: none; stroke: #475569; stroke-opacity: 0.7; stroke-linecap: square"/>
   </g>
   <g id="line2d_43">
    <path d="M 504.399422 387.556875 
L 504.399422 50.596875 
" clip-path="url(#p78d6f7ee2b)" style="fill: none; stroke-dasharray: 3.7,1.6; stroke-dashoffset: 0; stroke: #e2e8f0; stroke-opacity: 0.5"/>
   </g>
   <g id="line2d_44">
    <path d="M 720.864 387.556875 
L 720.864 50.596875 
" clip-path="url(#p78d6f7ee2b)" style="fill: none; stroke-dasharray: 3.7,1.6; stroke-dashoffset: 0; stroke: #e2e8f0; stroke-opacity: 0.5"/>
   </g>
   <g id="line2d_45">
    <path d="M 937.328578 387.556875 
L 937.328578 50.596875 
" clip-path="url(#p78d6f7ee2b)" style="fill: none; stroke-dasharray: 3.7,1.6; stroke-dashoffset: 0; stroke: #e2e8f0; stroke-opacity: 0.5"/>
   </g>
   <g id="patch_10">
    <path d="M 494.064 387.556875 
L 494.064 50.596875 
" style="fill: none; stroke: #475569; stroke-width: 0.8; stroke-linejoin: miter; stroke-linecap: square"/>
   </g>
   <g id="patch_11">
    <path d="M 494.064 387.556875 
L 947.664 387.556875 
" style="fill: none; stroke: #475569; stroke-width: 0.8; stroke-linejoin: miter; stroke-linecap: square"/>
   </g>
   <g id="patch_12">
    <path d="M 612.631711 92.666083 
Q 612.631711 112.751518 612.631711 131.159903 
" style="fill: none; stroke: #475569; stroke-width: 1.5; stroke-linecap: round"/>
    <path d="M 614.631711 127.159903 
L 612.631711 131.159903 
L 610.631711 127.159903 
" style="fill: none; stroke: #475569; stroke-width: 1.5; stroke-linecap: round"/>
   </g>
   <g id="text_40">
    <!-- Period = $2\pi$ -->
    <g style="fill: #1e293b" transform="translate(586.931711 86.699732) scale(0.1 -0.1)">
     <defs>
      <path id="HelveticaNeue-50" d="M 1107 2381 
L 1107 4058 
L 2298 4058 
Q 2816 4058 3056 3843 
Q 3296 3629 3296 3219 
Q 3296 2810 3056 2592 
Q 2816 2374 2298 2381 
L 1107 2381 
z
M 499 4570 
L 499 0 
L 1107 0 
L 1107 1869 
L 2502 1869 
Q 3194 1862 3549 2220 
Q 3904 2579 3904 3219 
Q 3904 3859 3549 4214 
Q 3194 4570 2502 4570 
L 499 4570 
z
" transform="scale(0.015625)"/>
      <path id="HelveticaNeue-6f" d="M 806 1651 
Q 806 1952 886 2185 
Q 966 2419 1107 2579 
Q 1248 2739 1437 2822 
Q 1626 2906 1837 2906 
Q 2048 2906 2237 2822 
Q 2426 2739 2566 2579 
Q 2707 2419 2787 2185 
Q 2867 1952 2867 1651 
Q 2867 1350 2787 1116 
Q 2707 883 2566 726 
Q 2426 570 2237 486 
Q 2048 403 1837 403 
Q 1626 403 1437 486 
Q 1248 570 1107 726 
Q 966 883 886 1116 
Q 806 1350 806 1651 
z
M 230 1651 
Q 230 1286 332 972 
Q 435 659 640 425 
Q 845 192 1145 61 
Q 1446 -70 1837 -70 
Q 2234 -70 2531 61 
Q 2829 192 3033 425 
Q 3238 659 3340 972 
Q 3443 1286 3443 1651 
Q 3443 2016 3340 2333 
Q 3238 2650 3033 2883 
Q 2829 3117 2531 3251 
Q 2234 3386 1837 3386 
Q 1446 3386 1145 3251 
Q 845 3117 640 2883 
Q 435 2650 332 2333 
Q 230 2016 230 1651 
z
" transform="scale(0.015625)"/>
      <path id="HelveticaNeue-3d" d="M 307 1190 
L 307 755 
L 3533 755 
L 3533 1190 
L 307 1190 
z
M 3533 2048 
L 3533 2483 
L 307 2483 
L 307 2048 
L 3533 2048 
z
" transform="scale(0.015625)"/>
     </defs>
     <use xlink:href="#HelveticaNeue-50" transform="translate(0 0.59375)"/>
     <use xlink:href="#HelveticaNeue-65" transform="translate(64.799988 0.59375)"/>
     <use xlink:href="#HelveticaNeue-72" transform="translate(118.499985 0.59375)"/>
     <use xlink:href="#HelveticaNeue-69" transform="translate(151.799973 0.59375)"/>
     <use xlink:href="#HelveticaNeue-6f" transform="translate(173.999969 0.59375)"/>
     <use xlink:href="#HelveticaNeue-64" transform="translate(231.399963 0.59375)"/>
     <use xlink:href="#HelveticaNeue-20" transform="translate(290.699951 0.59375)"/>
     <use xlink:href="#HelveticaNeue-3d" transform="translate(318.499939 0.59375)"/>
     <use xlink:href="#HelveticaNeue-20" transform="translate(378.499924 0.59375)"/>
     <use xlink:href="#Cmr10-32" transform="translate(406.299911 0.59375)"/>
     <use xlink:href="#Cmmi10-bc" transform="translate(456.299911 0.59375)"/>
    </g>
   </g>
   <g id="patch_13">
    <path d="M 716.629625 146.871161 
Q 612.632305 146.871161 508.634985 146.871161 
" style="fill: none; stroke: #1e293b; stroke-width: 2; stroke-linecap: round"/>
    <path d="M 712.629625 144.871161 
L 716.629625 146.871161 
L 712.629625 148.871161 
" style="fill: none; stroke: #1e293b; stroke-width: 2; stroke-linecap: round"/>
    <path d="M 512.634985 148.871161 
L 508.634985 146.871161 
L 512.634985 144.871161 
" style="fill: none; stroke: #1e293b; stroke-width: 2; stroke-linecap: round"/>
   </g>
   <g id="text_41">
    <!-- $2\pi$ -->
    <g style="fill: #1e293b" transform="translate(607.281711 134.836875) scale(0.1 -0.1)">
     <use xlink:href="#Cmr10-32" transform="translate(0 0.390625)"/>
     <use xlink:href="#Cmmi10-bc" transform="translate(50 0.390625)"/>
    </g>
   </g>
   <g id="patch_14">
    <path d="M 728.333571 102.971638 
Q 728.333571 158.907645 728.333571 214.843653 
" style="fill: none; stroke: #1e293b; stroke-width: 2; stroke-linecap: round"/>
    <path d="M 726.333571 106.971638 
L 728.333571 102.971638 
L 730.333571 106.971638 
" style="fill: none; stroke: #1e293b; stroke-width: 2; stroke-linecap: round"/>
    <path d="M 730.333571 210.843653 
L 728.333571 214.843653 
L 726.333571 210.843653 
" style="fill: none; stroke: #1e293b; stroke-width: 2; stroke-linecap: round"/>
   </g>
   <g id="text_42">
    <!-- Amplitude -->
    <g style="fill: #1e293b" transform="translate(735.223853 156.489509) scale(0.09 -0.09)">
     <defs>
      <path id="HelveticaNeue-6d" d="M 410 3309 
L 410 0 
L 954 0 
L 954 2061 
Q 954 2157 1002 2301 
Q 1050 2445 1155 2579 
Q 1261 2714 1430 2810 
Q 1600 2906 1837 2906 
Q 2022 2906 2140 2851 
Q 2259 2797 2329 2697 
Q 2400 2598 2429 2464 
Q 2458 2330 2458 2170 
L 2458 0 
L 3002 0 
L 3002 2061 
Q 3002 2445 3232 2675 
Q 3462 2906 3866 2906 
Q 4064 2906 4189 2848 
Q 4314 2790 4384 2691 
Q 4454 2592 4480 2457 
Q 4506 2323 4506 2170 
L 4506 0 
L 5050 0 
L 5050 2426 
Q 5050 2682 4970 2864 
Q 4890 3046 4746 3161 
Q 4602 3277 4400 3331 
Q 4198 3386 3949 3386 
Q 3622 3386 3350 3238 
Q 3078 3091 2912 2822 
Q 2810 3130 2560 3258 
Q 2310 3386 2003 3386 
Q 1306 3386 934 2822 
L 922 2822 
L 922 3309 
L 410 3309 
z
" transform="scale(0.015625)"/>
      <path id="HelveticaNeue-70" d="M 429 3309 
L 429 -1261 
L 973 -1261 
L 973 442 
L 986 442 
Q 1075 294 1206 195 
Q 1338 96 1485 38 
Q 1632 -19 1782 -44 
Q 1933 -70 2054 -70 
Q 2432 -70 2717 64 
Q 3002 198 3190 432 
Q 3379 666 3472 979 
Q 3565 1293 3565 1645 
Q 3565 1997 3469 2310 
Q 3373 2624 3184 2864 
Q 2995 3104 2710 3245 
Q 2426 3386 2042 3386 
Q 1696 3386 1408 3261 
Q 1120 3136 986 2861 
L 973 2861 
L 973 3309 
L 429 3309 
z
M 2989 1683 
Q 2989 1440 2937 1209 
Q 2886 979 2771 800 
Q 2656 621 2467 512 
Q 2278 403 1997 403 
Q 1715 403 1516 508 
Q 1318 614 1193 787 
Q 1069 960 1011 1187 
Q 954 1414 954 1658 
Q 954 1888 1008 2112 
Q 1062 2336 1184 2512 
Q 1306 2688 1498 2797 
Q 1690 2906 1965 2906 
Q 2227 2906 2422 2803 
Q 2618 2701 2742 2528 
Q 2867 2355 2928 2134 
Q 2989 1914 2989 1683 
z
" transform="scale(0.015625)"/>
     </defs>
     <use xlink:href="#HelveticaNeue-41"/>
     <use xlink:href="#HelveticaNeue-6d" transform="translate(64.799988 0)"/>
     <use xlink:href="#HelveticaNeue-70" transform="translate(150.099976 0)"/>
     <use xlink:href="#HelveticaNeue-6c" transform="translate(209.399963 0)"/>
     <use xlink:href="#HelveticaNeue-69" transform="translate(231.59996 0)"/>
     <use xlink:href="#HelveticaNeue-74" transform="translate(253.799957 0)"/>
     <use xlink:href="#HelveticaNeue-75" transform="translate(285.299942 0)"/>
     <use xlink:href="#HelveticaNeue-64" transform="translate(340.899933 0)"/>
     <use xlink:href="#HelveticaNeue-65" transform="translate(400.199921 0)"/>
    </g>
    <!-- = 1 -->
    <g style="fill: #1e293b" transform="translate(735.223853 165.974665) scale(0.09 -0.09)">
     <use xlink:href="#HelveticaNeue-3d"/>
     <use xlink:href="#HelveticaNeue-20" transform="translate(59.999985 0)"/>
     <use xlink:href="#HelveticaNeue-31" transform="translate(87.799973 0)"/>
    </g>
   </g>
   <g id="text_43">
    <!-- Sine and Cosine Functions -->
    <g style="fill: #1e293b" transform="translate(636.976656 40.596875) scale(0.14 -0.14)">
     <defs>
      <path id="HelveticaNeue-46" d="M 499 4570 
L 499 0 
L 1107 0 
L 1107 2093 
L 3206 2093 
L 3206 2605 
L 1107 2605 
L 1107 4058 
L 3501 4058 
L 3501 4570 
L 499 4570 
z
" transform="scale(0.015625)"/>
     </defs>
     <use xlink:href="#HelveticaNeue-53"/>
     <use xlink:href="#HelveticaNeue-69" transform="translate(64.799988 0)"/>
     <use xlink:href="#HelveticaNeue-6e" transform="translate(86.999985 0)"/>
     <use xlink:href="#HelveticaNeue-65" transform="translate(142.599976 0)"/>
     <use xlink:href="#HelveticaNeue-20" transform="translate(196.299973 0)"/>
     <use xlink:href="#HelveticaNeue-61" transform="translate(224.09996 0)"/>
     <use xlink:href="#HelveticaNeue-6e" transform="translate(277.799957 0)"/>
     <use xlink:href="#HelveticaNeue-64" transform="translate(333.399948 0)"/>
     <use xlink:href="#HelveticaNeue-20" transform="translate(392.699936 0)"/>
     <use xlink:href="#HelveticaNeue-43" transform="translate(420.499924 0)"/>
     <use xlink:href="#HelveticaNeue-6f" transform="translate(492.699905 0)"/>
     <use xlink:href="#HelveticaNeue-73" transform="translate(550.099899 0)"/>
     <use xlink:href="#HelveticaNeue-69" transform="translate(600.099884 0)"/>
     <use xlink:href="#HelveticaNeue-6e" transform="translate(622.299881 0)"/>
     <use xlink:href="#HelveticaNeue-65" transform="translate(677.899872 0)"/>
     <use xlink:href="#HelveticaNeue-20" transform="translate(731.599869 0)"/>
     <use xlink:href="#HelveticaNeue-46" transform="translate(759.399857 0)"/>
     <use xlink:href="#HelveticaNeue-75" transform="translate(816.79985 0)"/>
     <use xlink:href="#HelveticaNeue-6e" transform="translate(872.399841 0)"/>
     <use xlink:href="#HelveticaNeue-63" transform="translate(927.999832 0)"/>
     <use xlink:href="#HelveticaNeue-74" transform="translate(981.699829 0)"/>
     <use xlink:href="#HelveticaNeue-69" transform="translate(1013.199814 0)"/>
     <use xlink:href="#HelveticaNeue-6f" transform="translate(1035.399811 0)"/>
     <use xlink:href="#HelveticaNeue-6e" transform="translate(1092.799805 0)"/>
     <use xlink:href="#HelveticaNeue-73" transform="translate(1148.399796 0)"/>
    </g>
   </g>
   <g id="legend_1">
    <g id="patch_15">
     <path d="M 864.284 382.056875 
L 939.964 382.056875 
Q 942.164 382.056875 942.164 379.856875 
L 942.164 349.6275 
Q 942.164 347.4275 939.964 347.4275 
L 864.284 347.4275 
Q 862.084 347.4275 862.084 349.6275 
L 862.084 379.856875 
Q 862.084 382.056875 864.284 382.056875 
z
" style="fill: #ffffff; opacity: 0.95; stroke: #e2e8f0; stroke-linejoin: miter"/>
    </g>
    <g id="line2d_46">
     <path d="M 866.484 355.832187 
L 877.484 355.832187 
L 888.484 355.832187 
" style="fill: none; stroke: #dc2626; stroke-width: 2.5; stroke-linecap: square"/>
    </g>
    <g id="text_44">
     <!-- $y = \sin x$ -->
     <g transform="translate(897.284 359.682187) scale(0.11 -0.11)">
      <use xlink:href="#Cmmi10-79" transform="translate(0 0.109375)"/>
      <use xlink:href="#Cmr10-3d" transform="translate(66.582031 0.109375)"/>
      <use xlink:href="#Cmr10-73" transform="translate(161.826172 0.109375)"/>
      <use xlink:href="#Cmr10-69" transform="translate(201.230469 0.109375)"/>
      <use xlink:href="#Cmr10-6e" transform="translate(228.916016 0.109375)"/>
      <use xlink:href="#Cmmi10-78" transform="translate(299.066048 0.109375)"/>
     </g>
    </g>
    <g id="line2d_47">
     <path d="M 866.484 371.496875 
L 877.484 371.496875 
L 888.484 371.496875 
" style="fill: none; stroke: #2563eb; stroke-width: 2.5; stroke-linecap: square"/>
    </g>
    <g id="text_45">
     <!-- $y = \cos x$ -->
     <g transform="translate(897.284 375.346875) scale(0.11 -0.11)">
      <use xlink:href="#Cmmi10-79" transform="translate(0 0.171875)"/>
      <use xlink:href="#Cmr10-3d" transform="translate(66.582031 0.171875)"/>
      <use xlink:href="#Cmr10-63" transform="translate(161.826172 0.171875)"/>
      <use xlink:href="#Cmr10-6f" transform="translate(206.210938 0.171875)"/>
      <use xlink:href="#Cmr10-73" transform="translate(256.210938 0.171875)"/>
      <use xlink:href="#Cmmi10-78" transform="translate(310.247688 0.171875)"/>
     </g>
    </g>
   </g>
  </g>
 </g>
 <defs>
  <clipPath id="p43c3446da9">
   <rect x="7.2" y="27.196875" width="419.328" height="393.12"/>
  </clipPath>
  <clipPath id="p78d6f7ee2b">
   <rect x="494.064" y="50.596875" width="453.6" height="336.96"/>
  </clipPath>
 </defs>
</svg>
