<?xml version="1.0" encoding="utf-8" standalone="no"?>
<!DOCTYPE svg PUBLIC "-//W3C//DTD SVG 1.1//EN"
  "http://www.w3.org/Graphics/SVG/1.1/DTD/svg11.dtd">
<svg xmlns:xlink="http://www.w3.org/1999/xlink" width="933.84pt" height="248.843437pt" viewBox="0 0 933.84 248.843437" xmlns="http://www.w3.org/2000/svg" version="1.1">
 <metadata>
  <rdf:RDF xmlns:dc="http://purl.org/dc/elements/1.1/" xmlns:cc="http://creativecommons.org/ns#" xmlns:rdf="http://www.w3.org/1999/02/22-rdf-syntax-ns#">
   <cc:Work>
    <dc:type rdf:resource="http://purl.org/dc/dcmitype/StillImage"/>
    <dc:date>2026-02-19T08:27:12.096615</dc:date>
    <dc:format>image/svg+xml</dc:format>
    <dc:creator>
     <cc:Agent>
      <dc:title>Matplotlib v3.10.1, https://matplotlib.org/</dc:title>
     </cc:Agent>
    </dc:creator>
   </cc:Work>
  </rdf:RDF>
 </metadata>
 <defs>
  <style type="text/css">*{stroke-linejoin: round; stroke-linecap: butt}</style>
 </defs>
 <g id="figure_1">
  <g id="patch_1">
   <path d="M 0 248.843437 
L 933.84 248.843437 
L 933.84 0 
L 0 0 
z
" style="fill: #ffffff"/>
  </g>
  <g id="axes_1">
   <g id="patch_2">
    <path d="M 10.8 238.043437 
L 229.95 238.043437 
L 229.95 35.738437 
L 10.8 35.738437 
z
" style="fill: #ffffff"/>
   </g>
   <g id="matplotlib.axis_1"/>
   <g id="matplotlib.axis_2"/>
   <g id="FillBetweenPolyCollection_1">
    <defs>
     <path id="mce469afbef" d="M 174.246321 -19.995682 
L 174.246321 -46.595014 
L 174.979264 -45.222593 
L 175.712207 -43.903861 
L 176.445151 -42.637852 
L 177.178094 -41.423536 
L 177.911037 -40.259833 
L 178.64398 -39.145614 
L 179.376923 -38.07971 
L 180.109866 -37.060914 
L 180.842809 -36.08799 
L 181.575753 -35.159675 
L 182.308696 -34.274685 
L 183.041639 -33.431723 
L 183.774582 -32.629478 
L 184.507525 -31.866632 
L 185.240468 -31.141866 
L 185.973411 -30.45386 
L 186.706355 -29.801299 
L 187.439298 -29.182878 
L 188.172241 -28.597299 
L 188.905184 -28.043281 
L 189.638127 -27.519558 
L 190.37107 -27.024884 
L 191.104013 -26.558035 
L 191.836957 -26.117807 
L 192.5699 -25.703024 
L 193.302843 -25.312536 
L 194.035786 -24.94522 
L 194.768729 -24.599982 
L 195.501672 -24.275761 
L 196.234615 -23.971523 
L 196.967559 -23.686268 
L 197.700502 -23.419027 
L 198.433445 -23.168866 
L 199.166388 -22.93488 
L 199.899331 -22.716199 
L 200.632274 -22.511987 
L 201.365217 -22.321438 
L 202.098161 -22.143781 
L 202.831104 -21.978274 
L 203.564047 -21.82421 
L 204.29699 -21.680911 
L 205.029933 -21.54773 
L 205.762876 -21.424052 
L 206.495819 -21.309289 
L 207.228763 -21.202881 
L 207.961706 -21.1043 
L 208.694649 -21.01304 
L 209.427592 -20.928624 
L 210.160535 -20.850601 
L 210.893478 -20.778542 
L 211.626421 -20.712044 
L 212.359365 -20.650725 
L 213.092308 -20.594226 
L 213.825251 -20.542209 
L 214.558194 -20.494356 
L 215.291137 -20.450366 
L 216.02408 -20.409961 
L 216.757023 -20.372876 
L 217.489967 -20.338865 
L 218.22291 -20.307698 
L 218.955853 -20.279157 
L 219.688796 -20.253044 
L 220.421739 -20.229168 
L 221.154682 -20.207356 
L 221.887625 -20.187444 
L 222.620569 -20.169281 
L 223.353512 -20.152726 
L 224.086455 -20.137648 
L 224.819398 -20.123926 
L 225.552341 -20.111447 
L 226.285284 -20.100108 
L 227.018227 -20.089812 
L 227.751171 -20.08047 
L 228.484114 -20.072001 
L 229.217057 -20.064329 
L 229.95 -20.057383 
L 229.95 -19.995682 
L 229.95 -19.995682 
L 229.217057 -19.995682 
L 228.484114 -19.995682 
L 227.751171 -19.995682 
L 227.018227 -19.995682 
L 226.285284 -19.995682 
L 225.552341 -19.995682 
L 224.819398 -19.995682 
L 224.086455 -19.995682 
L 223.353512 -19.995682 
L 222.620569 -19.995682 
L 221.887625 -19.995682 
L 221.154682 -19.995682 
L 220.421739 -19.995682 
L 219.688796 -19.995682 
L 218.955853 -19.995682 
L 218.22291 -19.995682 
L 217.489967 -19.995682 
L 216.757023 -19.995682 
L 216.02408 -19.995682 
L 215.291137 -19.995682 
L 214.558194 -19.995682 
L 213.825251 -19.995682 
L 213.092308 -19.995682 
L 212.359365 -19.995682 
L 211.626421 -19.995682 
L 210.893478 -19.995682 
L 210.160535 -19.995682 
L 209.427592 -19.995682 
L 208.694649 -19.995682 
L 207.961706 -19.995682 
L 207.228763 -19.995682 
L 206.495819 -19.995682 
L 205.762876 -19.995682 
L 205.029933 -19.995682 
L 204.29699 -19.995682 
L 203.564047 -19.995682 
L 202.831104 -19.995682 
L 202.098161 -19.995682 
L 201.365217 -19.995682 
L 200.632274 -19.995682 
L 199.899331 -19.995682 
L 199.166388 -19.995682 
L 198.433445 -19.995682 
L 197.700502 -19.995682 
L 196.967559 -19.995682 
L 196.234615 -19.995682 
L 195.501672 -19.995682 
L 194.768729 -19.995682 
L 194.035786 -19.995682 
L 193.302843 -19.995682 
L 192.5699 -19.995682 
L 191.836957 -19.995682 
L 191.104013 -19.995682 
L 190.37107 -19.995682 
L 189.638127 -19.995682 
L 188.905184 -19.995682 
L 188.172241 -19.995682 
L 187.439298 -19.995682 
L 186.706355 -19.995682 
L 185.973411 -19.995682 
L 185.240468 -19.995682 
L 184.507525 -19.995682 
L 183.774582 -19.995682 
L 183.041639 -19.995682 
L 182.308696 -19.995682 
L 181.575753 -19.995682 
L 180.842809 -19.995682 
L 180.109866 -19.995682 
L 179.376923 -19.995682 
L 178.64398 -19.995682 
L 177.911037 -19.995682 
L 177.178094 -19.995682 
L 176.445151 -19.995682 
L 175.712207 -19.995682 
L 174.979264 -19.995682 
L 174.246321 -19.995682 
z
" style="stroke: #dc2626; stroke-opacity: 0.3"/>
    </defs>
    <g clip-path="url(#p24e510c6e3)">
     <use xlink:href="#mce469afbef" x="0" y="248.843437" style="fill: #dc2626; fill-opacity: 0.3; stroke: #dc2626; stroke-opacity: 0.3"/>
    </g>
   </g>
   <g id="FillBetweenPolyCollection_2">
    <defs>
     <path id="m473a017392" d="M 10.8 -19.995682 
L 10.8 -20.057383 
L 11.532943 -20.064329 
L 12.265886 -20.072001 
L 12.998829 -20.08047 
L 13.731773 -20.089812 
L 14.464716 -20.100108 
L 15.197659 -20.111447 
L 15.930602 -20.123926 
L 16.663545 -20.137648 
L 17.396488 -20.152726 
L 18.129431 -20.169281 
L 18.862375 -20.187444 
L 19.595318 -20.207356 
L 20.328261 -20.229168 
L 21.061204 -20.253044 
L 21.794147 -20.279157 
L 22.52709 -20.307698 
L 23.260033 -20.338865 
L 23.992977 -20.372876 
L 24.72592 -20.409961 
L 25.458863 -20.450366 
L 26.191806 -20.494356 
L 26.924749 -20.542209 
L 27.657692 -20.594226 
L 28.390635 -20.650725 
L 29.123579 -20.712044 
L 29.856522 -20.778542 
L 30.589465 -20.850601 
L 31.322408 -20.928624 
L 32.055351 -21.01304 
L 32.788294 -21.1043 
L 33.521237 -21.202881 
L 34.254181 -21.309289 
L 34.987124 -21.424052 
L 35.720067 -21.54773 
L 36.45301 -21.680911 
L 37.185953 -21.82421 
L 37.918896 -21.978274 
L 38.651839 -22.143781 
L 39.384783 -22.321438 
L 40.117726 -22.511987 
L 40.850669 -22.716199 
L 41.583612 -22.93488 
L 42.316555 -23.168866 
L 43.049498 -23.419027 
L 43.782441 -23.686268 
L 44.515385 -23.971523 
L 45.248328 -24.275761 
L 45.981271 -24.599982 
L 46.714214 -24.94522 
L 47.447157 -25.312536 
L 48.1801 -25.703024 
L 48.913043 -26.117807 
L 49.645987 -26.558035 
L 50.37893 -27.024884 
L 51.111873 -27.519558 
L 51.844816 -28.043281 
L 52.577759 -28.597299 
L 53.310702 -29.182878 
L 54.043645 -29.801299 
L 54.776589 -30.45386 
L 55.509532 -31.141866 
L 56.242475 -31.866632 
L 56.975418 -32.629478 
L 57.708361 -33.431723 
L 58.441304 -34.274685 
L 59.174247 -35.159675 
L 59.907191 -36.08799 
L 60.640134 -37.060914 
L 61.373077 -38.07971 
L 62.10602 -39.145614 
L 62.838963 -40.259833 
L 63.571906 -41.423536 
L 64.304849 -42.637852 
L 65.037793 -43.903861 
L 65.770736 -45.222593 
L 66.503679 -46.595014 
L 66.503679 -19.995682 
L 66.503679 -19.995682 
L 65.770736 -19.995682 
L 65.037793 -19.995682 
L 64.304849 -19.995682 
L 63.571906 -19.995682 
L 62.838963 -19.995682 
L 62.10602 -19.995682 
L 61.373077 -19.995682 
L 60.640134 -19.995682 
L 59.907191 -19.995682 
L 59.174247 -19.995682 
L 58.441304 -19.995682 
L 57.708361 -19.995682 
L 56.975418 -19.995682 
L 56.242475 -19.995682 
L 55.509532 -19.995682 
L 54.776589 -19.995682 
L 54.043645 -19.995682 
L 53.310702 -19.995682 
L 52.577759 -19.995682 
L 51.844816 -19.995682 
L 51.111873 -19.995682 
L 50.37893 -19.995682 
L 49.645987 -19.995682 
L 48.913043 -19.995682 
L 48.1801 -19.995682 
L 47.447157 -19.995682 
L 46.714214 -19.995682 
L 45.981271 -19.995682 
L 45.248328 -19.995682 
L 44.515385 -19.995682 
L 43.782441 -19.995682 
L 43.049498 -19.995682 
L 42.316555 -19.995682 
L 41.583612 -19.995682 
L 40.850669 -19.995682 
L 40.117726 -19.995682 
L 39.384783 -19.995682 
L 38.651839 -19.995682 
L 37.918896 -19.995682 
L 37.185953 -19.995682 
L 36.45301 -19.995682 
L 35.720067 -19.995682 
L 34.987124 -19.995682 
L 34.254181 -19.995682 
L 33.521237 -19.995682 
L 32.788294 -19.995682 
L 32.055351 -19.995682 
L 31.322408 -19.995682 
L 30.589465 -19.995682 
L 29.856522 -19.995682 
L 29.123579 -19.995682 
L 28.390635 -19.995682 
L 27.657692 -19.995682 
L 26.924749 -19.995682 
L 26.191806 -19.995682 
L 25.458863 -19.995682 
L 24.72592 -19.995682 
L 23.992977 -19.995682 
L 23.260033 -19.995682 
L 22.52709 -19.995682 
L 21.794147 -19.995682 
L 21.061204 -19.995682 
L 20.328261 -19.995682 
L 19.595318 -19.995682 
L 18.862375 -19.995682 
L 18.129431 -19.995682 
L 17.396488 -19.995682 
L 16.663545 -19.995682 
L 15.930602 -19.995682 
L 15.197659 -19.995682 
L 14.464716 -19.995682 
L 13.731773 -19.995682 
L 12.998829 -19.995682 
L 12.265886 -19.995682 
L 11.532943 -19.995682 
L 10.8 -19.995682 
z
" style="stroke: #dc2626; stroke-opacity: 0.3"/>
    </defs>
    <g clip-path="url(#p24e510c6e3)">
     <use xlink:href="#m473a017392" x="0" y="248.843437" style="fill: #dc2626; fill-opacity: 0.3; stroke: #dc2626; stroke-opacity: 0.3"/>
    </g>
   </g>
   <g id="line2d_1">
    <path d="M 10.8 228.786054 
L 21.061204 228.590394 
L 27.657692 228.249211 
L 32.055351 227.830398 
L 35.720067 227.295707 
L 39.384783 226.521999 
L 42.316555 225.674572 
L 45.248328 224.567677 
L 47.447157 223.530902 
L 49.645987 222.285403 
L 51.844816 220.800157 
L 54.043645 219.042138 
L 56.242475 216.976806 
L 58.441304 214.568752 
L 60.640134 211.782523 
L 62.838963 208.583605 
L 65.037793 204.939576 
L 67.236622 200.821408 
L 69.435452 196.204882 
L 71.634281 191.072088 
L 73.83311 185.412956 
L 76.03194 179.226771 
L 78.963712 170.177744 
L 81.895485 160.268533 
L 84.827258 149.59862 
L 88.491973 135.414447 
L 95.821405 105.764619 
L 100.219064 88.53621 
L 103.150836 77.907425 
L 105.349666 70.604666 
L 107.548495 64.01402 
L 109.747324 58.25156 
L 111.213211 54.922094 
L 112.679097 52.034678 
L 114.144983 49.6133 
L 115.61087 47.678286 
L 117.076756 46.246011 
L 118.542642 45.328673 
L 119.275585 45.065731 
L 120.008528 44.934119 
L 120.741472 44.934119 
L 121.474415 45.065731 
L 122.207358 45.328673 
L 122.940301 45.722381 
L 124.406187 46.898443 
L 125.872074 48.583879 
L 127.33796 50.764374 
L 128.803846 53.421548 
L 130.269732 56.533204 
L 131.735619 60.073645 
L 133.934448 66.124402 
L 136.133278 72.965804 
L 138.332107 80.478582 
L 141.26388 91.320687 
L 144.928595 105.764619 
L 155.189799 146.828132 
L 158.854515 160.268533 
L 161.786288 170.177744 
L 164.71806 179.226771 
L 166.91689 185.412956 
L 169.115719 191.072088 
L 171.314548 196.204882 
L 173.513378 200.821408 
L 175.712207 204.939576 
L 177.911037 208.583605 
L 180.109866 211.782523 
L 182.308696 214.568752 
L 184.507525 216.976806 
L 186.706355 219.042138 
L 188.905184 220.800157 
L 191.104013 222.285403 
L 193.302843 223.530902 
L 195.501672 224.567677 
L 198.433445 225.674572 
L 201.365217 226.521999 
L 204.29699 227.162527 
L 207.961706 227.739138 
L 212.359365 228.192713 
L 218.22291 228.53574 
L 226.285284 228.74333 
L 229.95 228.786054 
L 229.95 228.786054 
" clip-path="url(#p24e510c6e3)" style="fill: none; stroke: #2563eb; stroke-width: 2.5; stroke-linecap: round"/>
   </g>
   <g id="line2d_2">
    <path d="M 188.859375 238.043437 
L 188.859375 35.738437 
" clip-path="url(#p24e510c6e3)" style="fill: none; stroke-dasharray: 7.4,3.2; stroke-dashoffset: 0; stroke: #dc2626; stroke-width: 2"/>
   </g>
   <g id="patch_3">
    <path d="M 10.8 238.043437 
L 10.8 35.738438 
" style="fill: none; stroke: #cccccc; stroke-linejoin: miter; stroke-linecap: square"/>
   </g>
   <g id="patch_4">
    <path d="M 10.8 238.043437 
L 229.95 238.043437 
" style="fill: none; stroke: #cccccc; stroke-linejoin: miter; stroke-linecap: square"/>
   </g>
   <g id="text_1">
    <!-- Q1: Hypothesis -->
    <g style="fill: #262626" transform="translate(77.838281 18.398438) scale(0.1 -0.1)">
     <defs>
      <path id="DejaVuSerif-Bold-51" d="M 2766 -91 
Q 1584 -72 926 565 
Q 269 1203 269 2328 
Q 269 3459 939 4104 
Q 1609 4750 2784 4750 
Q 3963 4750 4631 4106 
Q 5300 3463 5300 2328 
Q 5300 1334 4786 715 
Q 4272 97 3322 -50 
Q 3488 -228 3725 -306 
Q 3963 -384 4341 -384 
L 4500 -384 
L 4500 -1153 
L 4409 -1153 
Q 3816 -1153 3419 -897 
Q 3022 -641 2766 -91 
z
M 2784 288 
Q 3381 288 3672 791 
Q 3963 1294 3963 2328 
Q 3963 3366 3672 3869 
Q 3381 4372 2784 4372 
Q 2191 4372 1898 3864 
Q 1606 3356 1606 2328 
Q 1606 1303 1898 795 
Q 2191 288 2784 288 
z
" transform="scale(0.015625)"/>
      <path id="DejaVuSerif-Bold-31" d="M 878 0 
L 878 378 
L 1753 378 
L 1753 4153 
L 781 3578 
L 781 4044 
L 1953 4750 
L 2938 4750 
L 2938 378 
L 3816 378 
L 3816 0 
L 878 0 
z
" transform="scale(0.015625)"/>
      <path id="DejaVuSerif-Bold-3a" d="M 588 2541 
Q 588 2788 761 2963 
Q 934 3138 1178 3138 
Q 1422 3138 1597 2961 
Q 1772 2784 1772 2541 
Q 1772 2297 1598 2125 
Q 1425 1953 1178 1953 
Q 931 1953 759 2125 
Q 588 2297 588 2541 
z
M 588 506 
Q 588 750 761 925 
Q 934 1100 1178 1100 
Q 1422 1100 1597 925 
Q 1772 750 1772 506 
Q 1772 259 1597 84 
Q 1422 -91 1178 -91 
Q 934 -91 761 84 
Q 588 259 588 506 
z
" transform="scale(0.015625)"/>
      <path id="DejaVuSerif-Bold-20" transform="scale(0.015625)"/>
      <path id="DejaVuSerif-Bold-48" d="M 300 0 
L 300 378 
L 897 378 
L 897 4288 
L 300 4288 
L 300 4666 
L 2700 4666 
L 2700 4288 
L 2100 4288 
L 2100 2719 
L 3956 2719 
L 3956 4288 
L 3359 4288 
L 3359 4666 
L 5759 4666 
L 5759 4288 
L 5159 4288 
L 5159 378 
L 5759 378 
L 5759 0 
L 3359 0 
L 3359 378 
L 3956 378 
L 3956 2291 
L 2100 2291 
L 2100 378 
L 2700 378 
L 2700 0 
L 300 0 
z
" transform="scale(0.015625)"/>
      <path id="DejaVuSerif-Bold-79" d="M 1997 -750 
Q 1847 -1116 1634 -1269 
Q 1422 -1422 1063 -1422 
Q 909 -1422 721 -1387 
Q 534 -1353 313 -1288 
L 313 -594 
L 666 -597 
Q 675 -838 779 -953 
Q 884 -1069 1094 -1069 
Q 1297 -1069 1422 -958 
Q 1547 -847 1672 -538 
L 1722 -422 
L 275 2944 
L -84 2944 
L -84 3322 
L 1831 3322 
L 1831 2944 
L 1434 2944 
L 2278 978 
L 3066 2944 
L 2625 2944 
L 2625 3322 
L 3872 3322 
L 3872 2944 
L 3469 2944 
L 1997 -750 
z
" transform="scale(0.015625)"/>
      <path id="DejaVuSerif-Bold-70" d="M 1728 1825 
L 1728 1497 
Q 1728 916 1876 656 
Q 2025 397 2356 397 
Q 2697 397 2836 672 
Q 2975 947 2975 1663 
Q 2975 2378 2836 2651 
Q 2697 2925 2356 2925 
Q 2025 2925 1876 2665 
Q 1728 2406 1728 1825 
z
M 622 2944 
L 147 2944 
L 147 3322 
L 1728 3322 
L 1728 2900 
Q 1869 3159 2106 3286 
Q 2344 3413 2694 3413 
Q 3403 3413 3811 2945 
Q 4219 2478 4219 1663 
Q 4219 847 3811 378 
Q 3403 -91 2694 -91 
Q 2344 -91 2106 36 
Q 1869 163 1728 422 
L 1728 -953 
L 2241 -953 
L 2241 -1331 
L 147 -1331 
L 147 -953 
L 622 -953 
L 622 2944 
z
" transform="scale(0.015625)"/>
      <path id="DejaVuSerif-Bold-6f" d="M 2138 263 
Q 2488 263 2630 563 
Q 2772 863 2772 1663 
Q 2772 2463 2631 2761 
Q 2491 3059 2138 3059 
Q 1784 3059 1640 2757 
Q 1497 2456 1497 1663 
Q 1497 869 1640 566 
Q 1784 263 2138 263 
z
M 2138 -91 
Q 1259 -91 761 376 
Q 263 844 263 1663 
Q 263 2484 761 2948 
Q 1259 3413 2138 3413 
Q 3019 3413 3516 2948 
Q 4013 2484 4013 1663 
Q 4013 844 3514 376 
Q 3016 -91 2138 -91 
z
" transform="scale(0.015625)"/>
      <path id="DejaVuSerif-Bold-74" d="M 634 2944 
L 153 2944 
L 153 3322 
L 634 3322 
L 634 4353 
L 1741 4353 
L 1741 3322 
L 2663 3322 
L 2663 2944 
L 1741 2944 
L 1741 909 
Q 1741 475 1809 369 
Q 1878 263 2059 263 
Q 2259 263 2356 397 
Q 2453 531 2459 813 
L 2925 813 
Q 2897 313 2651 111 
Q 2406 -91 1806 -91 
Q 1122 -91 878 123 
Q 634 338 634 909 
L 634 2944 
z
" transform="scale(0.015625)"/>
      <path id="DejaVuSerif-Bold-68" d="M 219 0 
L 219 378 
L 691 378 
L 691 4488 
L 197 4488 
L 197 4863 
L 1797 4863 
L 1797 2853 
Q 1997 3150 2253 3281 
Q 2509 3413 2900 3413 
Q 3459 3413 3745 3083 
Q 4031 2753 4031 2113 
L 4031 378 
L 4506 378 
L 4506 0 
L 2522 0 
L 2522 378 
L 2925 378 
L 2925 2144 
Q 2925 2566 2817 2730 
Q 2709 2894 2444 2894 
Q 2109 2894 1953 2648 
Q 1797 2403 1797 1869 
L 1797 378 
L 2203 378 
L 2203 0 
L 219 0 
z
" transform="scale(0.015625)"/>
      <path id="DejaVuSerif-Bold-65" d="M 2566 1875 
Q 2566 2531 2444 2795 
Q 2322 3059 2028 3059 
Q 1744 3059 1620 2800 
Q 1497 2541 1497 1931 
L 1497 1875 
L 2566 1875 
z
M 3781 1503 
L 1497 1503 
L 1497 1478 
Q 1497 834 1690 548 
Q 1884 263 2316 263 
Q 2675 263 2897 453 
Q 3119 644 3181 1006 
L 3700 1006 
Q 3566 441 3166 175 
Q 2766 -91 2047 -91 
Q 1184 -91 723 364 
Q 263 819 263 1663 
Q 263 2488 734 2950 
Q 1206 3413 2047 3413 
Q 2872 3413 3312 2927 
Q 3753 2441 3781 1503 
z
" transform="scale(0.015625)"/>
      <path id="DejaVuSerif-Bold-73" d="M 300 97 
L 300 1025 
L 653 1025 
Q 697 653 931 458 
Q 1166 263 1569 263 
Q 1906 263 2086 380 
Q 2266 497 2266 716 
Q 2266 916 2152 1025 
Q 2038 1134 1709 1216 
L 1253 1331 
Q 738 1459 506 1698 
Q 275 1938 275 2344 
Q 275 2884 650 3148 
Q 1025 3413 1806 3413 
Q 2100 3413 2433 3364 
Q 2766 3316 3169 3213 
L 3169 2375 
L 2816 2375 
Q 2788 2716 2573 2887 
Q 2359 3059 1959 3059 
Q 1622 3059 1448 2951 
Q 1275 2844 1275 2638 
Q 1275 2469 1375 2372 
Q 1475 2275 1734 2209 
L 2188 2094 
Q 2841 1928 3091 1684 
Q 3341 1441 3341 1006 
Q 3341 444 2939 176 
Q 2538 -91 1691 -91 
Q 1381 -91 1034 -44 
Q 688 3 300 97 
z
" transform="scale(0.015625)"/>
      <path id="DejaVuSerif-Bold-69" d="M 588 4263 
Q 588 4516 763 4689 
Q 938 4863 1191 4863 
Q 1438 4863 1611 4689 
Q 1784 4516 1784 4263 
Q 1784 4016 1611 3842 
Q 1438 3669 1191 3669 
Q 938 3669 763 3841 
Q 588 4013 588 4263 
z
M 1797 378 
L 2272 378 
L 2272 0 
L 219 0 
L 219 378 
L 691 378 
L 691 2944 
L 219 2944 
L 219 3322 
L 1797 3322 
L 1797 378 
z
" transform="scale(0.015625)"/>
     </defs>
     <use xlink:href="#DejaVuSerif-Bold-51"/>
     <use xlink:href="#DejaVuSerif-Bold-31" transform="translate(87.109375 0)"/>
     <use xlink:href="#DejaVuSerif-Bold-3a" transform="translate(156.689453 0)"/>
     <use xlink:href="#DejaVuSerif-Bold-20" transform="translate(193.603516 0)"/>
     <use xlink:href="#DejaVuSerif-Bold-48" transform="translate(228.417969 0)"/>
     <use xlink:href="#DejaVuSerif-Bold-79" transform="translate(322.900391 0)"/>
     <use xlink:href="#DejaVuSerif-Bold-70" transform="translate(381.005859 0)"/>
     <use xlink:href="#DejaVuSerif-Bold-6f" transform="translate(450.927734 0)"/>
     <use xlink:href="#DejaVuSerif-Bold-74" transform="translate(517.626953 0)"/>
     <use xlink:href="#DejaVuSerif-Bold-68" transform="translate(563.818359 0)"/>
     <use xlink:href="#DejaVuSerif-Bold-65" transform="translate(636.523438 0)"/>
     <use xlink:href="#DejaVuSerif-Bold-73" transform="translate(700.146484 0)"/>
     <use xlink:href="#DejaVuSerif-Bold-69" transform="translate(756.445312 0)"/>
     <use xlink:href="#DejaVuSerif-Bold-73" transform="translate(794.433594 0)"/>
    </g>
    <!-- Testing -->
    <g style="fill: #262626" transform="translate(99.892969 29.738438) scale(0.1 -0.1)">
     <defs>
      <path id="DejaVuSerif-Bold-54" d="M 1159 0 
L 1159 378 
L 1778 378 
L 1778 4238 
L 500 4238 
L 500 3500 
L 72 3500 
L 72 4666 
L 4697 4666 
L 4697 3500 
L 4275 3500 
L 4275 4238 
L 2988 4238 
L 2988 378 
L 3609 378 
L 3609 0 
L 1159 0 
z
" transform="scale(0.015625)"/>
      <path id="DejaVuSerif-Bold-6e" d="M 219 0 
L 219 378 
L 691 378 
L 691 2944 
L 219 2944 
L 219 3322 
L 1797 3322 
L 1797 2853 
Q 1997 3150 2253 3281 
Q 2509 3413 2900 3413 
Q 3459 3413 3745 3083 
Q 4031 2753 4031 2113 
L 4031 378 
L 4506 378 
L 4506 0 
L 2522 0 
L 2522 378 
L 2925 378 
L 2925 2144 
Q 2925 2566 2817 2730 
Q 2709 2894 2444 2894 
Q 2109 2894 1953 2648 
Q 1797 2403 1797 1869 
L 1797 378 
L 2203 378 
L 2203 0 
L 219 0 
z
" transform="scale(0.015625)"/>
      <path id="DejaVuSerif-Bold-67" d="M 3853 2944 
L 3853 44 
Q 3853 -656 3354 -1039 
Q 2856 -1422 1947 -1422 
Q 1616 -1422 1275 -1370 
Q 934 -1319 575 -1216 
L 575 -422 
L 928 -422 
Q 975 -750 1192 -909 
Q 1409 -1069 1813 -1069 
Q 2325 -1069 2536 -823 
Q 2747 -578 2747 44 
L 2747 422 
Q 2606 163 2367 36 
Q 2128 -91 1778 -91 
Q 1072 -91 667 378 
Q 263 847 263 1663 
Q 263 2481 667 2947 
Q 1072 3413 1778 3413 
Q 2128 3413 2367 3286 
Q 2606 3159 2747 2900 
L 2747 3322 
L 4325 3322 
L 4325 2944 
L 3853 2944 
z
M 2747 1825 
Q 2747 2406 2597 2665 
Q 2447 2925 2119 2925 
Q 1775 2925 1636 2651 
Q 1497 2378 1497 1663 
Q 1497 947 1637 672 
Q 1778 397 2119 397 
Q 2447 397 2597 656 
Q 2747 916 2747 1497 
L 2747 1825 
z
" transform="scale(0.015625)"/>
     </defs>
     <use xlink:href="#DejaVuSerif-Bold-54"/>
     <use xlink:href="#DejaVuSerif-Bold-65" transform="translate(62.914062 0)"/>
     <use xlink:href="#DejaVuSerif-Bold-73" transform="translate(126.537109 0)"/>
     <use xlink:href="#DejaVuSerif-Bold-74" transform="translate(182.835938 0)"/>
     <use xlink:href="#DejaVuSerif-Bold-69" transform="translate(229.027344 0)"/>
     <use xlink:href="#DejaVuSerif-Bold-6e" transform="translate(267.015625 0)"/>
     <use xlink:href="#DejaVuSerif-Bold-67" transform="translate(339.720703 0)"/>
    </g>
   </g>
  </g>
  <g id="axes_2">
   <g id="patch_5">
    <path d="M 241.83 238.043437 
L 460.98 238.043437 
L 460.98 35.738437 
L 241.83 35.738437 
z
" style="fill: #ffffff"/>
   </g>
   <g id="matplotlib.axis_3"/>
   <g id="matplotlib.axis_4"/>
   <g id="line2d_3">
    <path d="M 251.791364 44.934119 
L 256.797074 60.01476 
L 261.802784 74.450377 
L 266.808495 88.240972 
L 271.814205 101.386543 
L 276.819915 113.887091 
L 281.825626 125.742616 
L 286.831336 136.953118 
L 291.837047 147.518596 
L 295.841615 155.506563 
L 299.846183 163.081714 
L 303.850751 170.244051 
L 307.85532 176.993573 
L 311.859888 183.33028 
L 315.864456 189.254172 
L 319.869025 194.76525 
L 323.873593 199.863513 
L 327.878161 204.548961 
L 331.88273 208.821594 
L 335.887298 212.681412 
L 338.890724 215.305366 
L 341.89415 217.697112 
L 344.897577 219.856649 
L 347.901003 221.783978 
L 350.904429 223.479099 
L 353.907855 224.942012 
L 356.911281 226.172716 
L 359.914708 227.171212 
L 362.918134 227.937499 
L 365.92156 228.471578 
L 368.924986 228.773449 
L 371.928413 228.843112 
L 374.931839 228.680566 
L 377.935265 228.285812 
L 380.938691 227.658849 
L 383.942117 226.799678 
L 386.945544 225.708299 
L 389.94897 224.384712 
L 392.952396 222.828916 
L 395.955822 221.040912 
L 398.959249 219.020699 
L 401.962675 216.768279 
L 404.966101 214.28365 
L 407.969527 211.566812 
L 410.972953 208.617767 
L 414.977522 204.324493 
L 418.98209 199.618404 
L 422.986658 194.4995 
L 426.991227 188.967782 
L 430.995795 183.023249 
L 435.000363 176.665901 
L 439.004931 169.895739 
L 443.0095 162.712761 
L 447.014068 155.116969 
L 451.018636 147.108362 
L 451.018636 147.108362 
" clip-path="url(#p88636d154e)" style="fill: none; stroke: #059669; stroke-width: 2.5; stroke-linecap: round"/>
   </g>
   <g id="patch_6">
    <path d="M 241.83 238.043437 
L 241.83 35.738437 
" style="fill: none; stroke: #cccccc; stroke-linejoin: miter; stroke-linecap: square"/>
   </g>
   <g id="patch_7">
    <path d="M 241.83 238.043437 
L 460.98 238.043437 
" style="fill: none; stroke: #cccccc; stroke-linejoin: miter; stroke-linecap: square"/>
   </g>
   <g id="text_2">
    <!-- Q2: Optimization -->
    <g style="fill: #262626" transform="translate(303.476094 18.540625) scale(0.1 -0.1)">
     <defs>
      <path id="DejaVuSerif-Bold-32" d="M 844 3513 
L 469 3513 
L 469 4519 
Q 850 4634 1223 4692 
Q 1597 4750 1978 4750 
Q 2869 4750 3367 4386 
Q 3866 4022 3866 3372 
Q 3866 2909 3591 2542 
Q 3316 2175 2541 1672 
L 1241 819 
L 3450 819 
L 3450 1369 
L 3878 1369 
L 3878 0 
L 428 0 
L 428 763 
L 1119 1241 
Q 2003 1850 2297 2278 
Q 2591 2706 2591 3278 
Q 2591 3819 2367 4101 
Q 2144 4384 1716 4384 
Q 1347 4384 1125 4161 
Q 903 3938 844 3513 
z
" transform="scale(0.015625)"/>
      <path id="DejaVuSerif-Bold-4f" d="M 2784 288 
Q 3381 288 3672 791 
Q 3963 1294 3963 2328 
Q 3963 3366 3672 3869 
Q 3381 4372 2784 4372 
Q 2191 4372 1898 3864 
Q 1606 3356 1606 2328 
Q 1606 1303 1898 795 
Q 2191 288 2784 288 
z
M 2784 -91 
Q 1606 -91 937 553 
Q 269 1197 269 2328 
Q 269 3459 939 4104 
Q 1609 4750 2784 4750 
Q 3963 4750 4631 4106 
Q 5300 3463 5300 2328 
Q 5300 1197 4629 553 
Q 3959 -91 2784 -91 
z
" transform="scale(0.015625)"/>
      <path id="DejaVuSerif-Bold-6d" d="M 3884 2778 
Q 4116 3109 4384 3261 
Q 4653 3413 5013 3413 
Q 5584 3413 5867 3089 
Q 6150 2766 6150 2113 
L 6150 378 
L 6625 378 
L 6625 0 
L 4647 0 
L 4647 378 
L 5044 378 
L 5044 1947 
Q 5044 2569 4948 2731 
Q 4853 2894 4594 2894 
Q 4300 2894 4137 2667 
Q 3975 2441 3975 2022 
L 3975 378 
L 4372 378 
L 4372 0 
L 2472 0 
L 2472 378 
L 2869 378 
L 2869 1947 
Q 2869 2569 2772 2731 
Q 2675 2894 2419 2894 
Q 2122 2894 1959 2667 
Q 1797 2441 1797 2022 
L 1797 378 
L 2194 378 
L 2194 0 
L 219 0 
L 219 378 
L 691 378 
L 691 2944 
L 219 2944 
L 219 3322 
L 1797 3322 
L 1797 2853 
Q 1991 3144 2241 3278 
Q 2491 3413 2834 3413 
Q 3241 3413 3494 3258 
Q 3747 3103 3884 2778 
z
" transform="scale(0.015625)"/>
      <path id="DejaVuSerif-Bold-7a" d="M 225 0 
L 225 378 
L 2131 2956 
L 697 2956 
L 697 2388 
L 325 2388 
L 325 3322 
L 3419 3322 
L 3419 2950 
L 1509 372 
L 3047 372 
L 3047 972 
L 3419 972 
L 3419 0 
L 225 0 
z
" transform="scale(0.015625)"/>
      <path id="DejaVuSerif-Bold-61" d="M 3525 2041 
L 3525 378 
L 4000 378 
L 4000 0 
L 2419 0 
L 2419 422 
Q 2200 159 1931 34 
Q 1663 -91 1319 -91 
Q 809 -91 536 182 
Q 263 456 263 966 
Q 263 1525 655 1803 
Q 1047 2081 1838 2081 
L 2419 2081 
L 2419 2278 
Q 2419 2681 2228 2873 
Q 2038 3066 1638 3066 
Q 1306 3066 1126 2930 
Q 947 2794 872 2484 
L 519 2484 
L 519 3200 
Q 816 3306 1134 3359 
Q 1453 3413 1806 3413 
Q 2697 3413 3111 3081 
Q 3525 2750 3525 2041 
z
M 2419 1044 
L 2419 1709 
L 2003 1709 
Q 1694 1709 1528 1540 
Q 1363 1372 1363 1056 
Q 1363 741 1483 584 
Q 1603 428 1850 428 
Q 2106 428 2262 597 
Q 2419 766 2419 1044 
z
" transform="scale(0.015625)"/>
     </defs>
     <use xlink:href="#DejaVuSerif-Bold-51"/>
     <use xlink:href="#DejaVuSerif-Bold-32" transform="translate(87.109375 0)"/>
     <use xlink:href="#DejaVuSerif-Bold-3a" transform="translate(156.689453 0)"/>
     <use xlink:href="#DejaVuSerif-Bold-20" transform="translate(193.603516 0)"/>
     <use xlink:href="#DejaVuSerif-Bold-4f" transform="translate(228.417969 0)"/>
     <use xlink:href="#DejaVuSerif-Bold-70" transform="translate(315.527344 0)"/>
     <use xlink:href="#DejaVuSerif-Bold-74" transform="translate(385.449219 0)"/>
     <use xlink:href="#DejaVuSerif-Bold-69" transform="translate(431.640625 0)"/>
     <use xlink:href="#DejaVuSerif-Bold-6d" transform="translate(469.628906 0)"/>
     <use xlink:href="#DejaVuSerif-Bold-69" transform="translate(575.439453 0)"/>
     <use xlink:href="#DejaVuSerif-Bold-7a" transform="translate(613.427734 0)"/>
     <use xlink:href="#DejaVuSerif-Bold-61" transform="translate(670.214844 0)"/>
     <use xlink:href="#DejaVuSerif-Bold-74" transform="translate(735.009766 0)"/>
     <use xlink:href="#DejaVuSerif-Bold-69" transform="translate(781.201172 0)"/>
     <use xlink:href="#DejaVuSerif-Bold-6f" transform="translate(819.189453 0)"/>
     <use xlink:href="#DejaVuSerif-Bold-6e" transform="translate(885.888672 0)"/>
    </g>
    <!-- (Dairy Costs) -->
    <g style="fill: #262626" transform="translate(314.664375 29.738438) scale(0.1 -0.1)">
     <defs>
      <path id="DejaVuSerif-Bold-28" d="M 2694 -997 
Q 1641 -606 1122 122 
Q 603 850 603 1931 
Q 603 3013 1115 3731 
Q 1628 4450 2694 4863 
L 2694 4488 
Q 2200 4188 1983 3598 
Q 1766 3009 1766 1931 
Q 1766 856 1983 267 
Q 2200 -322 2694 -622 
L 2694 -997 
z
" transform="scale(0.015625)"/>
      <path id="DejaVuSerif-Bold-44" d="M 2100 378 
L 2534 378 
Q 3266 378 3605 847 
Q 3944 1316 3944 2338 
Q 3944 3353 3606 3820 
Q 3269 4288 2534 4288 
L 2100 4288 
L 2100 378 
z
M 300 0 
L 300 378 
L 897 378 
L 897 4288 
L 300 4288 
L 300 4666 
L 2694 4666 
Q 3950 4666 4615 4066 
Q 5281 3466 5281 2338 
Q 5281 1203 4614 601 
Q 3947 0 2694 0 
L 300 0 
z
" transform="scale(0.015625)"/>
      <path id="DejaVuSerif-Bold-72" d="M 3438 3359 
L 3438 2369 
L 3084 2369 
Q 3066 2634 2941 2764 
Q 2816 2894 2578 2894 
Q 2216 2894 2006 2575 
Q 1797 2256 1797 1691 
L 1797 378 
L 2400 378 
L 2400 0 
L 219 0 
L 219 378 
L 691 378 
L 691 2944 
L 184 2944 
L 184 3322 
L 1797 3322 
L 1797 2731 
Q 1959 3078 2226 3245 
Q 2494 3413 2881 3413 
Q 2978 3413 3117 3398 
Q 3256 3384 3438 3359 
z
" transform="scale(0.015625)"/>
      <path id="DejaVuSerif-Bold-43" d="M 4769 1331 
Q 4584 609 4106 259 
Q 3628 -91 2822 -91 
Q 1641 -91 955 561 
Q 269 1213 269 2328 
Q 269 3447 955 4098 
Q 1641 4750 2822 4750 
Q 3238 4750 3688 4650 
Q 4138 4550 4641 4347 
L 4641 3200 
L 4244 3200 
Q 4122 3788 3800 4080 
Q 3478 4372 2950 4372 
Q 2269 4372 1937 3870 
Q 1606 3369 1606 2328 
Q 1606 1288 1937 788 
Q 2269 288 2956 288 
Q 3422 288 3717 547 
Q 4013 806 4147 1331 
L 4769 1331 
z
" transform="scale(0.015625)"/>
      <path id="DejaVuSerif-Bold-29" d="M 325 -997 
L 325 -622 
Q 819 -322 1036 267 
Q 1253 856 1253 1931 
Q 1253 3009 1036 3598 
Q 819 4188 325 4488 
L 325 4863 
Q 1391 4450 1905 3731 
Q 2419 3013 2419 1931 
Q 2419 850 1898 122 
Q 1378 -606 325 -997 
z
" transform="scale(0.015625)"/>
     </defs>
     <use xlink:href="#DejaVuSerif-Bold-28"/>
     <use xlink:href="#DejaVuSerif-Bold-44" transform="translate(47.314453 0)"/>
     <use xlink:href="#DejaVuSerif-Bold-61" transform="translate(134.033203 0)"/>
     <use xlink:href="#DejaVuSerif-Bold-69" transform="translate(198.828125 0)"/>
     <use xlink:href="#DejaVuSerif-Bold-72" transform="translate(236.816406 0)"/>
     <use xlink:href="#DejaVuSerif-Bold-79" transform="translate(289.501953 0)"/>
     <use xlink:href="#DejaVuSerif-Bold-20" transform="translate(347.607422 0)"/>
     <use xlink:href="#DejaVuSerif-Bold-43" transform="translate(382.421875 0)"/>
     <use xlink:href="#DejaVuSerif-Bold-6f" transform="translate(462.011719 0)"/>
     <use xlink:href="#DejaVuSerif-Bold-73" transform="translate(528.710938 0)"/>
     <use xlink:href="#DejaVuSerif-Bold-74" transform="translate(585.009766 0)"/>
     <use xlink:href="#DejaVuSerif-Bold-73" transform="translate(631.201172 0)"/>
     <use xlink:href="#DejaVuSerif-Bold-29" transform="translate(687.5 0)"/>
    </g>
   </g>
   <g id="line2d_4">
    <defs>
     <path id="mc6c625056d" d="M 0 -7.5 
L -1.683855 -2.317627 
L -7.132924 -2.317627 
L -2.724534 0.885255 
L -4.408389 6.067627 
L -0 2.864745 
L 4.408389 6.067627 
L 2.724534 0.885255 
L 7.132924 -2.317627 
L 1.683855 -2.317627 
z
" style="stroke: #dc2626; stroke-linejoin: bevel"/>
    </defs>
    <g clip-path="url(#p88636d154e)">
     <use xlink:href="#mc6c625056d" x="371.327727" y="228.847756" style="fill: #dc2626; stroke: #dc2626; stroke-linejoin: bevel"/>
    </g>
   </g>
  </g>
  <g id="axes_3">
   <g id="patch_8">
    <path d="M 472.86 238.043437 
L 692.01 238.043437 
L 692.01 35.738437 
L 472.86 35.738437 
z
" style="fill: #ffffff"/>
   </g>
   <g id="matplotlib.axis_5"/>
   <g id="matplotlib.axis_6"/>
   <g id="FillBetweenPolyCollection_3">
    <defs>
     <path id="m3a94c95843" d="M 482.821364 -19.995682 
L 482.821364 -19.995682 
L 483.822506 -19.995682 
L 484.823648 -19.995682 
L 485.82479 -19.995682 
L 486.825932 -19.995682 
L 487.827074 -19.995682 
L 488.828216 -19.995682 
L 489.829358 -19.995682 
L 490.8305 -19.995682 
L 491.831642 -19.995682 
L 492.832784 -19.995682 
L 493.833926 -19.995682 
L 494.835069 -19.995682 
L 495.836211 -19.995682 
L 496.837353 -19.995682 
L 497.838495 -19.995682 
L 498.839637 -19.995682 
L 499.840779 -19.995682 
L 500.841921 -19.995682 
L 501.843063 -19.995682 
L 502.844205 -19.995682 
L 503.845347 -19.995682 
L 504.846489 -19.995682 
L 505.847631 -19.995682 
L 506.848773 -19.995682 
L 507.849915 -19.995682 
L 508.851058 -19.995682 
L 509.8522 -19.995682 
L 510.853342 -19.995682 
L 511.854484 -19.995682 
L 512.855626 -19.995682 
L 513.856768 -19.995682 
L 514.85791 -19.995682 
L 515.859052 -19.995682 
L 516.860194 -19.995682 
L 517.861336 -19.995682 
L 518.862478 -19.995682 
L 519.86362 -19.995682 
L 520.864762 -19.995682 
L 521.865905 -19.995682 
L 522.867047 -19.995682 
L 523.868189 -19.995682 
L 524.869331 -19.995682 
L 525.870473 -19.995682 
L 526.871615 -19.995682 
L 527.872757 -19.995682 
L 528.873899 -19.995682 
L 529.875041 -19.995682 
L 530.876183 -19.995682 
L 531.877325 -19.995682 
L 532.878467 -19.995682 
L 533.879609 -19.995682 
L 534.880751 -19.995682 
L 535.881894 -19.995682 
L 536.883036 -19.995682 
L 537.884178 -19.995682 
L 538.88532 -19.995682 
L 539.886462 -19.995682 
L 540.887604 -19.995682 
L 541.888746 -19.995682 
L 542.889888 -19.995682 
L 543.89103 -19.995682 
L 544.892172 -19.995682 
L 545.893314 -19.995682 
L 546.894456 -19.995682 
L 547.895598 -19.995682 
L 548.896741 -19.995682 
L 549.897883 -19.995682 
L 550.899025 -19.995682 
L 551.900167 -19.995682 
L 552.901309 -19.995682 
L 553.902451 -19.995682 
L 554.903593 -19.995682 
L 555.904735 -19.995682 
L 556.905877 -19.995682 
L 557.907019 -19.995682 
L 558.908161 -19.995682 
L 559.909303 -19.995682 
L 560.910445 -19.995682 
L 561.911587 -19.995682 
L 562.91273 -19.995682 
L 563.913872 -19.995682 
L 564.915014 -19.995682 
L 565.916156 -19.995682 
L 566.917298 -19.995682 
L 567.91844 -19.995682 
L 568.919582 -19.995682 
L 569.920724 -19.995682 
L 570.921866 -19.995682 
L 571.923008 -19.995682 
L 572.92415 -19.995682 
L 573.925292 -19.995682 
L 574.926434 -19.995682 
L 575.927577 -19.995682 
L 576.928719 -19.995682 
L 577.929861 -19.995682 
L 578.931003 -19.995682 
L 579.932145 -19.995682 
L 580.933287 -19.995682 
L 581.934429 -19.995682 
L 582.935571 -19.995682 
L 583.936713 -19.995682 
L 584.937855 -19.995682 
L 585.938997 -19.995682 
L 586.940139 -19.995682 
L 587.941281 -19.995682 
L 588.942423 -19.995682 
L 589.943566 -19.995682 
L 590.944708 -19.995682 
L 591.94585 -19.995682 
L 592.946992 -19.995682 
L 593.948134 -19.995682 
L 594.949276 -19.995682 
L 595.950418 -19.995682 
L 596.95156 -19.995682 
L 597.952702 -19.995682 
L 598.953844 -19.995682 
L 599.954986 -19.995682 
L 600.956128 -19.995682 
L 601.95727 -19.995682 
L 602.958413 -19.995682 
L 603.959555 -19.995682 
L 604.960697 -19.995682 
L 605.961839 -19.995682 
L 606.962981 -19.995682 
L 607.964123 -19.995682 
L 608.965265 -19.995682 
L 609.966407 -19.995682 
L 610.967549 -19.995682 
L 611.968691 -19.995682 
L 612.969833 -19.995682 
L 613.970975 -19.995682 
L 614.972117 -19.995682 
L 615.973259 -19.995682 
L 616.974402 -19.995682 
L 617.975544 -19.995682 
L 618.976686 -19.995682 
L 619.977828 -19.995682 
L 620.97897 -19.995682 
L 621.980112 -19.995682 
L 622.981254 -19.995682 
L 623.982396 -19.995682 
L 624.983538 -19.995682 
L 625.98468 -19.995682 
L 626.985822 -19.995682 
L 627.986964 -19.995682 
L 628.988106 -19.995682 
L 629.989249 -19.995682 
L 630.990391 -19.995682 
L 631.991533 -19.995682 
L 632.992675 -19.995682 
L 633.993817 -19.995682 
L 634.994959 -19.995682 
L 635.996101 -19.995682 
L 636.997243 -19.995682 
L 637.998385 -19.995682 
L 638.999527 -19.995682 
L 640.000669 -19.995682 
L 641.001811 -19.995682 
L 642.002953 -19.995682 
L 643.004095 -19.995682 
L 644.005238 -19.995682 
L 645.00638 -19.995682 
L 646.007522 -19.995682 
L 647.008664 -19.995682 
L 648.009806 -19.995682 
L 649.010948 -19.995682 
L 650.01209 -19.995682 
L 651.013232 -19.995682 
L 652.014374 -19.995682 
L 653.015516 -19.995682 
L 654.016658 -19.995682 
L 655.0178 -19.995682 
L 656.018942 -19.995682 
L 657.020085 -19.995682 
L 658.021227 -19.995682 
L 659.022369 -19.995682 
L 660.023511 -19.995682 
L 661.024653 -19.995682 
L 662.025795 -19.995682 
L 663.026937 -19.995682 
L 664.028079 -19.995682 
L 665.029221 -19.995682 
L 666.030363 -19.995682 
L 667.031505 -19.995682 
L 668.032647 -19.995682 
L 669.033789 -19.995682 
L 670.034931 -19.995682 
L 671.036074 -19.995682 
L 672.037216 -19.995682 
L 673.038358 -19.995682 
L 674.0395 -19.995682 
L 675.040642 -19.995682 
L 676.041784 -19.995682 
L 677.042926 -19.995682 
L 678.044068 -19.995682 
L 679.04521 -19.995682 
L 680.046352 -19.995682 
L 681.047494 -19.995682 
L 682.048636 -19.995682 
L 682.048636 -19.995682 
L 682.048636 -19.995682 
L 681.047494 -22.899077 
L 680.046352 -25.801749 
L 679.04521 -28.702975 
L 678.044068 -31.60203 
L 677.042926 -34.498192 
L 676.041784 -37.39074 
L 675.040642 -40.278953 
L 674.0395 -43.162111 
L 673.038358 -46.039495 
L 672.037216 -48.910389 
L 671.036074 -51.774076 
L 670.034931 -54.629844 
L 669.033789 -57.47698 
L 668.032647 -60.314775 
L 667.031505 -63.142522 
L 666.030363 -65.959515 
L 665.029221 -68.765054 
L 664.028079 -71.558438 
L 663.026937 -74.338971 
L 662.025795 -77.105961 
L 661.024653 -79.858718 
L 660.023511 -82.596556 
L 659.022369 -85.318793 
L 658.021227 -88.024749 
L 657.020085 -90.713751 
L 656.018942 -93.385129 
L 655.0178 -96.038217 
L 654.016658 -98.672353 
L 653.015516 -101.286881 
L 652.014374 -103.88115 
L 651.013232 -106.454513 
L 650.01209 -109.006328 
L 649.010948 -111.535961 
L 648.009806 -114.042779 
L 647.008664 -116.526159 
L 646.007522 -118.985481 
L 645.00638 -121.420133 
L 644.005238 -123.829509 
L 643.004095 -126.213006 
L 642.002953 -128.570032 
L 641.001811 -130.899999 
L 640.000669 -133.202326 
L 638.999527 -135.47644 
L 637.998385 -137.721773 
L 636.997243 -139.937767 
L 635.996101 -142.123869 
L 634.994959 -144.279533 
L 633.993817 -146.404224 
L 632.992675 -148.497411 
L 631.991533 -150.558573 
L 630.990391 -152.587195 
L 629.989249 -154.582773 
L 628.988106 -156.544809 
L 627.986964 -158.472814 
L 626.985822 -160.366308 
L 625.98468 -162.224819 
L 624.983538 -164.047883 
L 623.982396 -165.835046 
L 622.981254 -167.585863 
L 621.980112 -169.299897 
L 620.97897 -170.976722 
L 619.977828 -172.615919 
L 618.976686 -174.21708 
L 617.975544 -175.779805 
L 616.974402 -177.303706 
L 615.973259 -178.788403 
L 614.972117 -180.233525 
L 613.970975 -181.638712 
L 612.969833 -183.003615 
L 611.968691 -184.327892 
L 610.967549 -185.611215 
L 609.966407 -186.853262 
L 608.965265 -188.053726 
L 607.964123 -189.212305 
L 606.962981 -190.328713 
L 605.961839 -191.402669 
L 604.960697 -192.433908 
L 603.959555 -193.422171 
L 602.958413 -194.367213 
L 601.95727 -195.268798 
L 600.956128 -196.126701 
L 599.954986 -196.940708 
L 598.953844 -197.710617 
L 597.952702 -198.436236 
L 596.95156 -199.117384 
L 595.950418 -199.753891 
L 594.949276 -200.345598 
L 593.948134 -200.892358 
L 592.946992 -201.394035 
L 591.94585 -201.850504 
L 590.944708 -202.261651 
L 589.943566 -202.627373 
L 588.942423 -202.94758 
L 587.941281 -203.222191 
L 586.940139 -203.451138 
L 585.938997 -203.634364 
L 584.937855 -203.771824 
L 583.936713 -203.863483 
L 582.935571 -203.909318 
L 581.934429 -203.909318 
L 580.933287 -203.863483 
L 579.932145 -203.771824 
L 578.931003 -203.634364 
L 577.929861 -203.451138 
L 576.928719 -203.222191 
L 575.927577 -202.94758 
L 574.926434 -202.627373 
L 573.925292 -202.261651 
L 572.92415 -201.850504 
L 571.923008 -201.394035 
L 570.921866 -200.892358 
L 569.920724 -200.345598 
L 568.919582 -199.753891 
L 567.91844 -199.117384 
L 566.917298 -198.436236 
L 565.916156 -197.710617 
L 564.915014 -196.940708 
L 563.913872 -196.126701 
L 562.91273 -195.268798 
L 561.911587 -194.367213 
L 560.910445 -193.422171 
L 559.909303 -192.433908 
L 558.908161 -191.402669 
L 557.907019 -190.328713 
L 556.905877 -189.212305 
L 555.904735 -188.053726 
L 554.903593 -186.853262 
L 553.902451 -185.611215 
L 552.901309 -184.327892 
L 551.900167 -183.003615 
L 550.899025 -181.638712 
L 549.897883 -180.233525 
L 548.896741 -178.788403 
L 547.895598 -177.303706 
L 546.894456 -175.779805 
L 545.893314 -174.21708 
L 544.892172 -172.615919 
L 543.89103 -170.976722 
L 542.889888 -169.299897 
L 541.888746 -167.585863 
L 540.887604 -165.835046 
L 539.886462 -164.047883 
L 538.88532 -162.224819 
L 537.884178 -160.366308 
L 536.883036 -158.472814 
L 535.881894 -156.544809 
L 534.880751 -154.582773 
L 533.879609 -152.587195 
L 532.878467 -150.558573 
L 531.877325 -148.497411 
L 530.876183 -146.404224 
L 529.875041 -144.279533 
L 528.873899 -142.123869 
L 527.872757 -139.937767 
L 526.871615 -137.721773 
L 525.870473 -135.47644 
L 524.869331 -133.202326 
L 523.868189 -130.899999 
L 522.867047 -128.570032 
L 521.865905 -126.213006 
L 520.864762 -123.829509 
L 519.86362 -121.420133 
L 518.862478 -118.985481 
L 517.861336 -116.526159 
L 516.860194 -114.042779 
L 515.859052 -111.535961 
L 514.85791 -109.006328 
L 513.856768 -106.454513 
L 512.855626 -103.88115 
L 511.854484 -101.286881 
L 510.853342 -98.672353 
L 509.8522 -96.038217 
L 508.851058 -93.385129 
L 507.849915 -90.713751 
L 506.848773 -88.024749 
L 505.847631 -85.318793 
L 504.846489 -82.596556 
L 503.845347 -79.858718 
L 502.844205 -77.105961 
L 501.843063 -74.338971 
L 500.841921 -71.558438 
L 499.840779 -68.765054 
L 498.839637 -65.959515 
L 497.838495 -63.142522 
L 496.837353 -60.314775 
L 495.836211 -57.47698 
L 494.835069 -54.629844 
L 493.833926 -51.774076 
L 492.832784 -48.910389 
L 491.831642 -46.039495 
L 490.8305 -43.162111 
L 489.829358 -40.278953 
L 488.828216 -37.39074 
L 487.827074 -34.498192 
L 486.825932 -31.60203 
L 485.82479 -28.702975 
L 484.823648 -25.801749 
L 483.822506 -22.899077 
L 482.821364 -19.995682 
z
" style="stroke: #f59e0b; stroke-opacity: 0.2"/>
    </defs>
    <g clip-path="url(#p6aee3eeeb3)">
     <use xlink:href="#m3a94c95843" x="0" y="248.843437" style="fill: #f59e0b; fill-opacity: 0.2; stroke: #f59e0b; stroke-opacity: 0.2"/>
    </g>
   </g>
   <g id="line2d_5">
    <path d="M 482.821364 228.847756 
L 496.837353 188.528662 
L 503.845347 168.984719 
L 509.8522 152.805221 
L 515.859052 137.307477 
L 520.864762 125.013929 
L 525.870473 113.366998 
L 529.875041 104.563904 
L 533.879609 96.256242 
L 537.884178 88.477129 
L 541.888746 81.257575 
L 544.892172 76.227519 
L 547.895598 71.539731 
L 550.899025 67.204726 
L 553.902451 63.232223 
L 556.905877 59.631132 
L 559.909303 56.40953 
L 562.91273 53.57464 
L 565.916156 51.13282 
L 568.919582 49.089547 
L 570.921866 47.951079 
L 572.92415 46.992933 
L 574.926434 46.216064 
L 576.928719 45.621247 
L 578.931003 45.209073 
L 580.933287 44.979954 
L 582.935571 44.934119 
L 584.937855 45.071613 
L 586.940139 45.392299 
L 588.942423 45.895858 
L 590.944708 46.581787 
L 592.946992 47.449402 
L 594.949276 48.49784 
L 596.95156 49.726054 
L 599.954986 51.902729 
L 602.958413 54.476224 
L 605.961839 57.440768 
L 608.965265 60.789712 
L 611.968691 64.515545 
L 614.972117 68.609913 
L 617.975544 73.063632 
L 620.97897 77.866716 
L 623.982396 83.008392 
L 627.986964 90.370623 
L 631.991533 98.284865 
L 635.996101 106.719569 
L 640.000669 115.641111 
L 645.00638 127.423304 
L 650.01209 139.837109 
L 655.0178 152.805221 
L 661.024653 168.984719 
L 668.032647 188.528662 
L 677.042926 214.345246 
L 682.048636 228.847756 
L 682.048636 228.847756 
" clip-path="url(#p6aee3eeeb3)" style="fill: none; stroke: #f59e0b; stroke-width: 2.5; stroke-linecap: round"/>
   </g>
   <g id="patch_9">
    <path d="M 472.86 238.043437 
L 472.86 35.738437 
" style="fill: none; stroke: #cccccc; stroke-linejoin: miter; stroke-linecap: square"/>
   </g>
   <g id="patch_10">
    <path d="M 472.86 238.043437 
L 692.01 238.043437 
" style="fill: none; stroke: #cccccc; stroke-linejoin: miter; stroke-linecap: square"/>
   </g>
   <g id="text_3">
    <!-- Q3: Integration -->
    <g style="fill: #262626" transform="translate(538.999844 18.398438) scale(0.1 -0.1)">
     <defs>
      <path id="DejaVuSerif-Bold-33" d="M 550 4531 
Q 963 4641 1350 4695 
Q 1738 4750 2106 4750 
Q 2950 4750 3401 4448 
Q 3853 4147 3853 3584 
Q 3853 3163 3593 2900 
Q 3334 2638 2834 2547 
Q 3444 2450 3744 2131 
Q 4044 1813 4044 1259 
Q 4044 606 3526 257 
Q 3009 -91 2028 -91 
Q 1659 -91 1267 -28 
Q 875 34 447 159 
L 447 1184 
L 825 1184 
Q 859 741 1103 508 
Q 1347 275 1778 275 
Q 2253 275 2512 539 
Q 2772 803 2772 1288 
Q 2772 1794 2501 2069 
Q 2231 2344 1734 2344 
L 1528 2344 
L 1528 2719 
L 1691 2719 
Q 2150 2719 2381 2931 
Q 2613 3144 2613 3566 
Q 2613 3963 2395 4173 
Q 2178 4384 1772 4384 
Q 1403 4384 1187 4182 
Q 972 3981 928 3597 
L 550 3597 
L 550 4531 
z
" transform="scale(0.015625)"/>
      <path id="DejaVuSerif-Bold-49" d="M 300 0 
L 300 378 
L 897 378 
L 897 4288 
L 300 4288 
L 300 4666 
L 2700 4666 
L 2700 4288 
L 2100 4288 
L 2100 378 
L 2700 378 
L 2700 0 
L 300 0 
z
" transform="scale(0.015625)"/>
     </defs>
     <use xlink:href="#DejaVuSerif-Bold-51"/>
     <use xlink:href="#DejaVuSerif-Bold-33" transform="translate(87.109375 0)"/>
     <use xlink:href="#DejaVuSerif-Bold-3a" transform="translate(156.689453 0)"/>
     <use xlink:href="#DejaVuSerif-Bold-20" transform="translate(193.603516 0)"/>
     <use xlink:href="#DejaVuSerif-Bold-49" transform="translate(228.417969 0)"/>
     <use xlink:href="#DejaVuSerif-Bold-6e" transform="translate(275.195312 0)"/>
     <use xlink:href="#DejaVuSerif-Bold-74" transform="translate(347.900391 0)"/>
     <use xlink:href="#DejaVuSerif-Bold-65" transform="translate(394.091797 0)"/>
     <use xlink:href="#DejaVuSerif-Bold-67" transform="translate(457.714844 0)"/>
     <use xlink:href="#DejaVuSerif-Bold-72" transform="translate(527.636719 0)"/>
     <use xlink:href="#DejaVuSerif-Bold-61" transform="translate(580.322266 0)"/>
     <use xlink:href="#DejaVuSerif-Bold-74" transform="translate(645.117188 0)"/>
     <use xlink:href="#DejaVuSerif-Bold-69" transform="translate(691.308594 0)"/>
     <use xlink:href="#DejaVuSerif-Bold-6f" transform="translate(729.296875 0)"/>
     <use xlink:href="#DejaVuSerif-Bold-6e" transform="translate(795.996094 0)"/>
    </g>
    <!-- (Solar Energy) -->
    <g style="fill: #262626" transform="translate(541.580312 29.738438) scale(0.1 -0.1)">
     <defs>
      <path id="DejaVuSerif-Bold-53" d="M 494 225 
L 494 1331 
L 891 1331 
Q 981 806 1318 547 
Q 1656 288 2253 288 
Q 2738 288 2991 472 
Q 3244 656 3244 1013 
Q 3244 1294 3072 1450 
Q 2900 1606 2363 1741 
L 1663 1913 
Q 978 2088 700 2398 
Q 422 2709 422 3284 
Q 422 3978 883 4364 
Q 1344 4750 2175 4750 
Q 2584 4750 3026 4681 
Q 3469 4613 3944 4475 
L 3944 3444 
L 3547 3444 
Q 3456 3925 3150 4148 
Q 2844 4372 2278 4372 
Q 1816 4372 1580 4211 
Q 1344 4050 1344 3731 
Q 1344 3441 1506 3289 
Q 1669 3138 2303 2975 
L 3003 2803 
Q 3653 2641 3945 2297 
Q 4238 1953 4238 1350 
Q 4238 644 3750 276 
Q 3263 -91 2316 -91 
Q 1859 -91 1409 -12 
Q 959 66 494 225 
z
" transform="scale(0.015625)"/>
      <path id="DejaVuSerif-Bold-6c" d="M 1797 378 
L 2272 378 
L 2272 0 
L 219 0 
L 219 378 
L 691 378 
L 691 4488 
L 219 4488 
L 219 4863 
L 1797 4863 
L 1797 378 
z
" transform="scale(0.015625)"/>
      <path id="DejaVuSerif-Bold-45" d="M 300 0 
L 300 378 
L 897 378 
L 897 4288 
L 300 4288 
L 300 4666 
L 4494 4666 
L 4494 3566 
L 4063 3566 
L 4063 4238 
L 2100 4238 
L 2100 2741 
L 3322 2741 
L 3322 3334 
L 3750 3334 
L 3750 1722 
L 3322 1722 
L 3322 2316 
L 2100 2316 
L 2100 428 
L 4122 428 
L 4122 1100 
L 4550 1100 
L 4550 0 
L 300 0 
z
" transform="scale(0.015625)"/>
     </defs>
     <use xlink:href="#DejaVuSerif-Bold-28"/>
     <use xlink:href="#DejaVuSerif-Bold-53" transform="translate(47.314453 0)"/>
     <use xlink:href="#DejaVuSerif-Bold-6f" transform="translate(119.53125 0)"/>
     <use xlink:href="#DejaVuSerif-Bold-6c" transform="translate(186.230469 0)"/>
     <use xlink:href="#DejaVuSerif-Bold-61" transform="translate(224.21875 0)"/>
     <use xlink:href="#DejaVuSerif-Bold-72" transform="translate(289.013672 0)"/>
     <use xlink:href="#DejaVuSerif-Bold-20" transform="translate(341.699219 0)"/>
     <use xlink:href="#DejaVuSerif-Bold-45" transform="translate(376.513672 0)"/>
     <use xlink:href="#DejaVuSerif-Bold-6e" transform="translate(452.734375 0)"/>
     <use xlink:href="#DejaVuSerif-Bold-65" transform="translate(525.439453 0)"/>
     <use xlink:href="#DejaVuSerif-Bold-72" transform="translate(589.0625 0)"/>
     <use xlink:href="#DejaVuSerif-Bold-67" transform="translate(641.748047 0)"/>
     <use xlink:href="#DejaVuSerif-Bold-79" transform="translate(711.669922 0)"/>
     <use xlink:href="#DejaVuSerif-Bold-29" transform="translate(769.775391 0)"/>
    </g>
   </g>
  </g>
  <g id="axes_4">
   <g id="patch_11">
    <path d="M 703.89 238.043437 
L 923.04 238.043437 
L 923.04 35.738437 
L 703.89 35.738437 
z
" style="fill: #ffffff"/>
   </g>
   <g id="matplotlib.axis_7"/>
   <g id="matplotlib.axis_8"/>
   <g id="FillBetweenPolyCollection_4">
    <defs>
     <path id="m0e7b991242" d="M 713.851364 -203.909318 
L 713.851364 -19.995682 
L 714.852506 -19.995682 
L 715.853648 -19.995682 
L 716.85479 -19.995682 
L 717.855932 -19.995682 
L 718.857074 -19.995682 
L 719.858216 -19.995682 
L 720.859358 -19.995682 
L 721.8605 -19.995682 
L 722.861642 -19.995682 
L 723.862784 -19.995682 
L 724.863926 -19.995682 
L 725.865069 -19.995682 
L 726.866211 -19.995682 
L 727.867353 -19.995682 
L 728.868495 -19.995682 
L 729.869637 -19.995682 
L 730.870779 -19.995682 
L 731.871921 -19.995682 
L 732.873063 -19.995682 
L 733.874205 -19.995682 
L 734.875347 -19.995682 
L 735.876489 -19.995682 
L 736.877631 -19.995682 
L 737.878773 -19.995682 
L 738.879915 -19.995682 
L 739.881058 -19.995682 
L 740.8822 -19.995682 
L 741.883342 -19.995682 
L 742.884484 -19.995682 
L 743.885626 -19.995682 
L 744.886768 -19.995682 
L 745.88791 -19.995682 
L 746.889052 -19.995682 
L 747.890194 -19.995682 
L 748.891336 -19.995682 
L 749.892478 -19.995682 
L 750.89362 -19.995682 
L 751.894762 -19.995682 
L 752.895905 -19.995682 
L 753.897047 -19.995682 
L 754.898189 -19.995682 
L 755.899331 -19.995682 
L 756.900473 -19.995682 
L 757.901615 -19.995682 
L 758.902757 -19.995682 
L 759.903899 -19.995682 
L 760.905041 -19.995682 
L 761.906183 -19.995682 
L 762.907325 -19.995682 
L 763.908467 -19.995682 
L 764.909609 -19.995682 
L 765.910751 -19.995682 
L 766.911894 -19.995682 
L 767.913036 -19.995682 
L 768.914178 -19.995682 
L 769.91532 -19.995682 
L 770.916462 -19.995682 
L 771.917604 -19.995682 
L 772.918746 -19.995682 
L 773.919888 -19.995682 
L 774.92103 -19.995682 
L 775.922172 -19.995682 
L 776.923314 -19.995682 
L 777.924456 -19.995682 
L 778.925598 -19.995682 
L 779.926741 -19.995682 
L 780.927883 -19.995682 
L 781.929025 -19.995682 
L 782.930167 -19.995682 
L 783.931309 -19.995682 
L 784.932451 -19.995682 
L 785.933593 -19.995682 
L 786.934735 -19.995682 
L 787.935877 -19.995682 
L 788.937019 -19.995682 
L 789.938161 -19.995682 
L 790.939303 -19.995682 
L 791.940445 -19.995682 
L 792.941587 -19.995682 
L 793.94273 -19.995682 
L 794.943872 -19.995682 
L 795.945014 -19.995682 
L 796.946156 -19.995682 
L 797.947298 -19.995682 
L 798.94844 -19.995682 
L 799.949582 -19.995682 
L 800.950724 -19.995682 
L 801.951866 -19.995682 
L 802.953008 -19.995682 
L 803.95415 -19.995682 
L 804.955292 -19.995682 
L 805.956434 -19.995682 
L 806.957577 -19.995682 
L 807.958719 -19.995682 
L 808.959861 -19.995682 
L 809.961003 -19.995682 
L 810.962145 -19.995682 
L 811.963287 -19.995682 
L 812.964429 -19.995682 
L 813.965571 -19.995682 
L 814.966713 -19.995682 
L 815.967855 -19.995682 
L 816.968997 -19.995682 
L 817.970139 -19.995682 
L 818.971281 -19.995682 
L 819.972423 -19.995682 
L 820.973566 -19.995682 
L 821.974708 -19.995682 
L 822.97585 -19.995682 
L 823.976992 -19.995682 
L 824.978134 -19.995682 
L 825.979276 -19.995682 
L 826.980418 -19.995682 
L 827.98156 -19.995682 
L 828.982702 -19.995682 
L 829.983844 -19.995682 
L 830.984986 -19.995682 
L 831.986128 -19.995682 
L 832.98727 -19.995682 
L 833.988413 -19.995682 
L 834.989555 -19.995682 
L 835.990697 -19.995682 
L 836.991839 -19.995682 
L 837.992981 -19.995682 
L 838.994123 -19.995682 
L 839.995265 -19.995682 
L 840.996407 -19.995682 
L 841.997549 -19.995682 
L 842.998691 -19.995682 
L 843.999833 -19.995682 
L 845.000975 -19.995682 
L 846.002117 -19.995682 
L 847.003259 -19.995682 
L 848.004402 -19.995682 
L 849.005544 -19.995682 
L 850.006686 -19.995682 
L 851.007828 -19.995682 
L 852.00897 -19.995682 
L 853.010112 -19.995682 
L 854.011254 -19.995682 
L 855.012396 -19.995682 
L 856.013538 -19.995682 
L 857.01468 -19.995682 
L 858.015822 -19.995682 
L 859.016964 -19.995682 
L 860.018106 -19.995682 
L 861.019249 -19.995682 
L 862.020391 -19.995682 
L 863.021533 -19.995682 
L 864.022675 -19.995682 
L 865.023817 -19.995682 
L 866.024959 -19.995682 
L 867.026101 -19.995682 
L 868.027243 -19.995682 
L 869.028385 -19.995682 
L 870.029527 -19.995682 
L 871.030669 -19.995682 
L 872.031811 -19.995682 
L 873.032953 -19.995682 
L 874.034095 -19.995682 
L 875.035238 -19.995682 
L 876.03638 -19.995682 
L 877.037522 -19.995682 
L 878.038664 -19.995682 
L 879.039806 -19.995682 
L 880.040948 -19.995682 
L 881.04209 -19.995682 
L 882.043232 -19.995682 
L 883.044374 -19.995682 
L 884.045516 -19.995682 
L 885.046658 -19.995682 
L 886.0478 -19.995682 
L 887.048942 -19.995682 
L 888.050085 -19.995682 
L 889.051227 -19.995682 
L 890.052369 -19.995682 
L 891.053511 -19.995682 
L 892.054653 -19.995682 
L 893.055795 -19.995682 
L 894.056937 -19.995682 
L 895.058079 -19.995682 
L 896.059221 -19.995682 
L 897.060363 -19.995682 
L 898.061505 -19.995682 
L 899.062647 -19.995682 
L 900.063789 -19.995682 
L 901.064931 -19.995682 
L 902.066074 -19.995682 
L 903.067216 -19.995682 
L 904.068358 -19.995682 
L 905.0695 -19.995682 
L 906.070642 -19.995682 
L 907.071784 -19.995682 
L 908.072926 -19.995682 
L 909.074068 -19.995682 
L 910.07521 -19.995682 
L 911.076352 -19.995682 
L 912.077494 -19.995682 
L 913.078636 -19.995682 
L 913.078636 -76.194688 
L 913.078636 -76.194688 
L 912.077494 -76.652561 
L 911.076352 -77.112292 
L 910.07521 -77.57388 
L 909.074068 -78.037327 
L 908.072926 -78.50263 
L 907.071784 -78.969792 
L 906.070642 -79.438811 
L 905.0695 -79.909687 
L 904.068358 -80.382422 
L 903.067216 -80.857014 
L 902.066074 -81.333464 
L 901.064931 -81.811771 
L 900.063789 -82.291936 
L 899.062647 -82.773959 
L 898.061505 -83.257839 
L 897.060363 -83.743577 
L 896.059221 -84.231173 
L 895.058079 -84.720626 
L 894.056937 -85.211938 
L 893.055795 -85.705106 
L 892.054653 -86.200133 
L 891.053511 -86.697017 
L 890.052369 -87.195758 
L 889.051227 -87.696358 
L 888.050085 -88.198815 
L 887.048942 -88.70313 
L 886.0478 -89.209302 
L 885.046658 -89.717332 
L 884.045516 -90.22722 
L 883.044374 -90.738965 
L 882.043232 -91.252568 
L 881.04209 -91.768029 
L 880.040948 -92.285347 
L 879.039806 -92.804524 
L 878.038664 -93.325557 
L 877.037522 -93.848449 
L 876.03638 -94.373198 
L 875.035238 -94.899804 
L 874.034095 -95.428269 
L 873.032953 -95.958591 
L 872.031811 -96.490771 
L 871.030669 -97.024808 
L 870.029527 -97.560703 
L 869.028385 -98.098456 
L 868.027243 -98.638066 
L 867.026101 -99.179534 
L 866.024959 -99.72286 
L 865.023817 -100.268043 
L 864.022675 -100.815085 
L 863.021533 -101.363983 
L 862.020391 -101.91474 
L 861.019249 -102.467354 
L 860.018106 -103.021825 
L 859.016964 -103.578155 
L 858.015822 -104.136342 
L 857.01468 -104.696387 
L 856.013538 -105.258289 
L 855.012396 -105.822049 
L 854.011254 -106.387667 
L 853.010112 -106.955142 
L 852.00897 -107.524475 
L 851.007828 -108.095666 
L 850.006686 -108.668714 
L 849.005544 -109.24362 
L 848.004402 -109.820384 
L 847.003259 -110.399006 
L 846.002117 -110.979485 
L 845.000975 -111.561821 
L 843.999833 -112.146016 
L 842.998691 -112.732068 
L 841.997549 -113.319978 
L 840.996407 -113.909745 
L 839.995265 -114.50137 
L 838.994123 -115.094853 
L 837.992981 -115.690193 
L 836.991839 -116.287391 
L 835.990697 -116.886447 
L 834.989555 -117.48736 
L 833.988413 -118.090131 
L 832.98727 -118.69476 
L 831.986128 -119.301247 
L 830.984986 -119.909591 
L 829.983844 -120.519792 
L 828.982702 -121.131852 
L 827.98156 -121.745769 
L 826.980418 -122.361543 
L 825.979276 -122.979176 
L 824.978134 -123.598666 
L 823.976992 -124.220014 
L 822.97585 -124.843219 
L 821.974708 -125.468282 
L 820.973566 -126.095203 
L 819.972423 -126.723981 
L 818.971281 -127.354617 
L 817.970139 -127.987111 
L 816.968997 -128.621462 
L 815.967855 -129.257671 
L 814.966713 -129.895738 
L 813.965571 -130.535663 
L 812.964429 -131.177445 
L 811.963287 -131.821084 
L 810.962145 -132.466582 
L 809.961003 -133.113937 
L 808.959861 -133.76315 
L 807.958719 -134.41422 
L 806.957577 -135.067148 
L 805.956434 -135.721934 
L 804.955292 -136.378577 
L 803.95415 -137.037078 
L 802.953008 -137.697437 
L 801.951866 -138.359653 
L 800.950724 -139.023727 
L 799.949582 -139.689659 
L 798.94844 -140.357448 
L 797.947298 -141.027096 
L 796.946156 -141.6986 
L 795.945014 -142.371963 
L 794.943872 -143.047183 
L 793.94273 -143.72426 
L 792.941587 -144.403196 
L 791.940445 -145.083989 
L 790.939303 -145.76664 
L 789.938161 -146.451148 
L 788.937019 -147.137514 
L 787.935877 -147.825738 
L 786.934735 -148.515819 
L 785.933593 -149.207758 
L 784.932451 -149.901555 
L 783.931309 -150.597209 
L 782.930167 -151.294721 
L 781.929025 -151.994091 
L 780.927883 -152.695319 
L 779.926741 -153.398404 
L 778.925598 -154.103346 
L 777.924456 -154.810147 
L 776.923314 -155.518805 
L 775.922172 -156.22932 
L 774.92103 -156.941694 
L 773.919888 -157.655925 
L 772.918746 -158.372014 
L 771.917604 -159.08996 
L 770.916462 -159.809764 
L 769.91532 -160.531426 
L 768.914178 -161.254945 
L 767.913036 -161.980322 
L 766.911894 -162.707557 
L 765.910751 -163.436649 
L 764.909609 -164.167599 
L 763.908467 -164.900407 
L 762.907325 -165.635073 
L 761.906183 -166.371596 
L 760.905041 -167.109976 
L 759.903899 -167.850215 
L 758.902757 -168.592311 
L 757.901615 -169.336264 
L 756.900473 -170.082076 
L 755.899331 -170.829745 
L 754.898189 -171.579272 
L 753.897047 -172.330656 
L 752.895905 -173.083898 
L 751.894762 -173.838998 
L 750.89362 -174.595955 
L 749.892478 -175.35477 
L 748.891336 -176.115443 
L 747.890194 -176.877973 
L 746.889052 -177.642361 
L 745.88791 -178.408607 
L 744.886768 -179.176711 
L 743.885626 -179.946672 
L 742.884484 -180.71849 
L 741.883342 -181.492167 
L 740.8822 -182.267701 
L 739.881058 -183.045092 
L 738.879915 -183.824342 
L 737.878773 -184.605449 
L 736.877631 -185.388414 
L 735.876489 -186.173236 
L 734.875347 -186.959916 
L 733.874205 -187.748454 
L 732.873063 -188.538849 
L 731.871921 -189.331102 
L 730.870779 -190.125213 
L 729.869637 -190.921181 
L 728.868495 -191.719007 
L 727.867353 -192.518691 
L 726.866211 -193.320233 
L 725.865069 -194.123632 
L 724.863926 -194.928888 
L 723.862784 -195.736003 
L 722.861642 -196.544975 
L 721.8605 -197.355804 
L 720.859358 -198.168492 
L 719.858216 -198.983037 
L 718.857074 -199.79944 
L 717.855932 -200.6177 
L 716.85479 -201.437818 
L 715.853648 -202.259794 
L 714.852506 -203.083627 
L 713.851364 -203.909318 
z
" style="stroke: #0d9488; stroke-opacity: 0.15"/>
    </defs>
    <g clip-path="url(#pac1e60a051)">
     <use xlink:href="#m0e7b991242" x="0" y="248.843437" style="fill: #0d9488; fill-opacity: 0.15; stroke: #0d9488; stroke-opacity: 0.15"/>
    </g>
   </g>
   <g id="line2d_6">
    <path d="M 713.851364 44.934119 
L 725.865069 54.719806 
L 737.878773 64.237989 
L 749.892478 73.488667 
L 761.906183 82.471842 
L 773.919888 91.187513 
L 785.933593 99.635679 
L 797.947298 107.816342 
L 809.961003 115.729501 
L 821.974708 123.375155 
L 833.988413 130.753306 
L 846.002117 137.863953 
L 858.015822 144.707096 
L 870.029527 151.282734 
L 882.043232 157.590869 
L 894.056937 163.6315 
L 906.070642 169.404627 
L 913.078636 172.648749 
L 913.078636 172.648749 
" clip-path="url(#pac1e60a051)" style="fill: none; stroke: #0d9488; stroke-width: 2.5; stroke-linecap: round"/>
   </g>
   <g id="patch_12">
    <path d="M 703.89 238.043437 
L 703.89 35.738437 
" style="fill: none; stroke: #cccccc; stroke-linejoin: miter; stroke-linecap: square"/>
   </g>
   <g id="patch_13">
    <path d="M 703.89 238.043437 
L 923.04 238.043437 
" style="fill: none; stroke: #cccccc; stroke-linejoin: miter; stroke-linecap: square"/>
   </g>
   <g id="text_4">
    <!-- Q4: Diff. Equation -->
    <g style="fill: #262626" transform="translate(762.84625 18.540625) scale(0.1 -0.1)">
     <defs>
      <path id="DejaVuSerif-Bold-34" d="M 4084 0 
L 1516 0 
L 1516 378 
L 2209 378 
L 2209 1228 
L 263 1228 
L 263 1588 
L 2216 4750 
L 3391 4750 
L 3391 1631 
L 4191 1631 
L 4191 1228 
L 3391 1228 
L 3391 378 
L 4084 378 
L 4084 0 
z
M 2209 1631 
L 2209 3897 
L 819 1631 
L 2209 1631 
z
" transform="scale(0.015625)"/>
      <path id="DejaVuSerif-Bold-66" d="M 3097 4031 
L 2747 4031 
Q 2722 4275 2605 4394 
Q 2488 4513 2272 4513 
Q 2022 4513 1909 4333 
Q 1797 4153 1797 3750 
L 1797 3322 
L 2631 3322 
L 2631 2944 
L 1797 2944 
L 1797 378 
L 2438 378 
L 2438 0 
L 219 0 
L 219 378 
L 691 378 
L 691 2944 
L 197 2944 
L 197 3322 
L 691 3322 
L 691 3738 
Q 691 4291 1044 4577 
Q 1397 4863 2081 4863 
Q 2347 4863 2600 4833 
Q 2853 4803 3097 4744 
L 3097 4031 
z
" transform="scale(0.015625)"/>
      <path id="DejaVuSerif-Bold-2e" d="M 519 506 
Q 519 750 694 925 
Q 869 1100 1113 1100 
Q 1359 1100 1534 925 
Q 1709 750 1709 506 
Q 1709 259 1534 84 
Q 1359 -91 1113 -91 
Q 869 -91 694 84 
Q 519 259 519 506 
z
" transform="scale(0.015625)"/>
      <path id="DejaVuSerif-Bold-71" d="M 3853 2944 
L 3853 -953 
L 4325 -953 
L 4325 -1331 
L 2234 -1331 
L 2234 -953 
L 2747 -953 
L 2747 422 
Q 2606 163 2367 36 
Q 2128 -91 1778 -91 
Q 1072 -91 667 378 
Q 263 847 263 1663 
Q 263 2481 667 2947 
Q 1072 3413 1778 3413 
Q 2128 3413 2367 3286 
Q 2606 3159 2747 2900 
L 2747 3322 
L 4325 3322 
L 4325 2944 
L 3853 2944 
z
M 2747 1825 
Q 2747 2406 2597 2665 
Q 2447 2925 2119 2925 
Q 1775 2925 1636 2651 
Q 1497 2378 1497 1663 
Q 1497 947 1637 672 
Q 1778 397 2119 397 
Q 2447 397 2597 656 
Q 2747 916 2747 1497 
L 2747 1825 
z
" transform="scale(0.015625)"/>
      <path id="DejaVuSerif-Bold-75" d="M 3963 3322 
L 3963 378 
L 4434 378 
L 4434 0 
L 2853 0 
L 2853 469 
Q 2656 172 2400 40 
Q 2144 -91 1753 -91 
Q 1194 -91 908 239 
Q 622 569 622 1209 
L 622 2944 
L 147 2944 
L 147 3322 
L 1728 3322 
L 1728 1381 
Q 1728 763 1831 595 
Q 1934 428 2209 428 
Q 2544 428 2698 675 
Q 2853 922 2853 1459 
L 2853 2944 
L 2450 2944 
L 2450 3322 
L 3963 3322 
z
" transform="scale(0.015625)"/>
     </defs>
     <use xlink:href="#DejaVuSerif-Bold-51"/>
     <use xlink:href="#DejaVuSerif-Bold-34" transform="translate(87.109375 0)"/>
     <use xlink:href="#DejaVuSerif-Bold-3a" transform="translate(156.689453 0)"/>
     <use xlink:href="#DejaVuSerif-Bold-20" transform="translate(193.603516 0)"/>
     <use xlink:href="#DejaVuSerif-Bold-44" transform="translate(228.417969 0)"/>
     <use xlink:href="#DejaVuSerif-Bold-69" transform="translate(315.136719 0)"/>
     <use xlink:href="#DejaVuSerif-Bold-66" transform="translate(353.125 0)"/>
     <use xlink:href="#DejaVuSerif-Bold-66" transform="translate(396.142578 0)"/>
     <use xlink:href="#DejaVuSerif-Bold-2e" transform="translate(435.535156 0)"/>
     <use xlink:href="#DejaVuSerif-Bold-20" transform="translate(470.349609 0)"/>
     <use xlink:href="#DejaVuSerif-Bold-45" transform="translate(505.164062 0)"/>
     <use xlink:href="#DejaVuSerif-Bold-71" transform="translate(581.384766 0)"/>
     <use xlink:href="#DejaVuSerif-Bold-75" transform="translate(651.306641 0)"/>
     <use xlink:href="#DejaVuSerif-Bold-61" transform="translate(724.011719 0)"/>
     <use xlink:href="#DejaVuSerif-Bold-74" transform="translate(788.806641 0)"/>
     <use xlink:href="#DejaVuSerif-Bold-69" transform="translate(834.998047 0)"/>
     <use xlink:href="#DejaVuSerif-Bold-6f" transform="translate(872.986328 0)"/>
     <use xlink:href="#DejaVuSerif-Bold-6e" transform="translate(939.685547 0)"/>
    </g>
    <!-- (Draining Tank) -->
    <g style="fill: #262626" transform="translate(768.639219 29.738438) scale(0.1 -0.1)">
     <defs>
      <path id="DejaVuSerif-Bold-6b" d="M 2216 0 
L 219 0 
L 219 378 
L 691 378 
L 691 4488 
L 219 4488 
L 219 4863 
L 1797 4863 
L 1797 1741 
L 3138 2944 
L 2741 2944 
L 2741 3322 
L 4256 3322 
L 4256 2944 
L 3641 2944 
L 2784 2175 
L 4184 378 
L 4544 378 
L 4544 0 
L 2638 0 
L 2638 378 
L 3028 378 
L 2106 1563 
L 1797 1288 
L 1797 378 
L 2216 378 
L 2216 0 
z
" transform="scale(0.015625)"/>
     </defs>
     <use xlink:href="#DejaVuSerif-Bold-28"/>
     <use xlink:href="#DejaVuSerif-Bold-44" transform="translate(47.314453 0)"/>
     <use xlink:href="#DejaVuSerif-Bold-72" transform="translate(134.033203 0)"/>
     <use xlink:href="#DejaVuSerif-Bold-61" transform="translate(186.71875 0)"/>
     <use xlink:href="#DejaVuSerif-Bold-69" transform="translate(251.513672 0)"/>
     <use xlink:href="#DejaVuSerif-Bold-6e" transform="translate(289.501953 0)"/>
     <use xlink:href="#DejaVuSerif-Bold-69" transform="translate(362.207031 0)"/>
     <use xlink:href="#DejaVuSerif-Bold-6e" transform="translate(400.195312 0)"/>
     <use xlink:href="#DejaVuSerif-Bold-67" transform="translate(472.900391 0)"/>
     <use xlink:href="#DejaVuSerif-Bold-20" transform="translate(542.822266 0)"/>
     <use xlink:href="#DejaVuSerif-Bold-54" transform="translate(577.636719 0)"/>
     <use xlink:href="#DejaVuSerif-Bold-61" transform="translate(642.425781 0)"/>
     <use xlink:href="#DejaVuSerif-Bold-6e" transform="translate(707.220703 0)"/>
     <use xlink:href="#DejaVuSerif-Bold-6b" transform="translate(779.925781 0)"/>
     <use xlink:href="#DejaVuSerif-Bold-29" transform="translate(849.212891 0)"/>
    </g>
   </g>
  </g>
 </g>
 <defs>
  <clipPath id="p24e510c6e3">
   <rect x="10.8" y="35.738437" width="219.15" height="202.305"/>
  </clipPath>
  <clipPath id="p88636d154e">
   <rect x="241.83" y="35.738437" width="219.15" height="202.305"/>
  </clipPath>
  <clipPath id="p6aee3eeeb3">
   <rect x="472.86" y="35.738437" width="219.15" height="202.305"/>
  </clipPath>
  <clipPath id="pac1e60a051">
   <rect x="703.89" y="35.738437" width="219.15" height="202.305"/>
  </clipPath>
 </defs>
</svg>
