<?xml version="1.0" encoding="utf-8" standalone="no"?>
<!DOCTYPE svg PUBLIC "-//W3C//DTD SVG 1.1//EN"
  "http://www.w3.org/Graphics/SVG/1.1/DTD/svg11.dtd">
<svg xmlns:xlink="http://www.w3.org/1999/xlink" width="993.1075pt" height="346.197344pt" viewBox="0 0 993.1075 346.197344" xmlns="http://www.w3.org/2000/svg" version="1.1">
 <metadata>
  <rdf:RDF xmlns:dc="http://purl.org/dc/elements/1.1/" xmlns:cc="http://creativecommons.org/ns#" xmlns:rdf="http://www.w3.org/1999/02/22-rdf-syntax-ns#">
   <cc:Work>
    <dc:type rdf:resource="http://purl.org/dc/dcmitype/StillImage"/>
    <dc:date>2026-01-30T14:53:42.541846</dc:date>
    <dc:format>image/svg+xml</dc:format>
    <dc:creator>
     <cc:Agent>
      <dc:title>Matplotlib v3.10.1, https://matplotlib.org/</dc:title>
     </cc:Agent>
    </dc:creator>
   </cc:Work>
  </rdf:RDF>
 </metadata>
 <defs>
  <style type="text/css">*{stroke-linejoin: round; stroke-linecap: butt}</style>
 </defs>
 <g id="figure_1">
  <g id="patch_1">
   <path d="M 0 346.197344 
L 993.1075 346.197344 
L 993.1075 0 
L 0 0 
z
" style="fill: #ffffff"/>
  </g>
  <g id="axes_1">
   <g id="patch_2">
    <path d="M 35.335 307.302031 
L 314.8675 307.302031 
L 314.8675 25.1 
L 35.335 25.1 
z
" style="fill: #ffffff"/>
   </g>
   <g id="matplotlib.axis_1">
    <g id="xtick_1">
     <g id="line2d_1">
      <path d="M 58.629375 307.302031 
L 58.629375 25.1 
" clip-path="url(#pc6bed71016)" style="fill: none; stroke: #cccccc; stroke-width: 0.8; stroke-linecap: round"/>
     </g>
     <g id="line2d_2"/>
     <g id="text_1">
      <!-- 0.0 -->
      <g style="fill: #262626" transform="translate(49.0875 319.920156) scale(0.12 -0.12)">
       <defs>
        <path id="DejaVuSerif-30" d="M 2034 219 
Q 2513 219 2750 744 
Q 2988 1269 2988 2328 
Q 2988 3391 2750 3916 
Q 2513 4441 2034 4441 
Q 1556 4441 1318 3916 
Q 1081 3391 1081 2328 
Q 1081 1269 1318 744 
Q 1556 219 2034 219 
z
M 2034 -91 
Q 1275 -91 848 546 
Q 422 1184 422 2328 
Q 422 3475 848 4112 
Q 1275 4750 2034 4750 
Q 2797 4750 3222 4112 
Q 3647 3475 3647 2328 
Q 3647 1184 3222 546 
Q 2797 -91 2034 -91 
z
" transform="scale(0.015625)"/>
        <path id="DejaVuSerif-2e" d="M 603 325 
Q 603 500 722 622 
Q 841 744 1019 744 
Q 1191 744 1312 622 
Q 1434 500 1434 325 
Q 1434 153 1312 31 
Q 1191 -91 1019 -91 
Q 841 -91 722 29 
Q 603 150 603 325 
z
" transform="scale(0.015625)"/>
       </defs>
       <use xlink:href="#DejaVuSerif-30"/>
       <use xlink:href="#DejaVuSerif-2e" transform="translate(63.623047 0)"/>
       <use xlink:href="#DejaVuSerif-30" transform="translate(95.410156 0)"/>
      </g>
     </g>
    </g>
    <g id="xtick_2">
     <g id="line2d_3">
      <path d="M 116.865313 307.302031 
L 116.865313 25.1 
" clip-path="url(#pc6bed71016)" style="fill: none; stroke: #cccccc; stroke-width: 0.8; stroke-linecap: round"/>
     </g>
     <g id="line2d_4"/>
     <g id="text_2">
      <!-- 0.5 -->
      <g style="fill: #262626" transform="translate(107.323438 319.920156) scale(0.12 -0.12)">
       <defs>
        <path id="DejaVuSerif-35" d="M 3219 4666 
L 3219 4153 
L 1081 4153 
L 1081 2816 
Q 1244 2928 1461 2984 
Q 1678 3041 1947 3041 
Q 2703 3041 3140 2622 
Q 3578 2203 3578 1478 
Q 3578 738 3136 323 
Q 2694 -91 1894 -91 
Q 1572 -91 1234 -12 
Q 897 66 544 225 
L 544 1131 
L 897 1131 
Q 925 688 1179 453 
Q 1434 219 1894 219 
Q 2388 219 2653 544 
Q 2919 869 2919 1478 
Q 2919 2084 2655 2407 
Q 2391 2731 1894 2731 
Q 1613 2731 1398 2631 
Q 1184 2531 1019 2322 
L 750 2322 
L 750 4666 
L 3219 4666 
z
" transform="scale(0.015625)"/>
       </defs>
       <use xlink:href="#DejaVuSerif-30"/>
       <use xlink:href="#DejaVuSerif-2e" transform="translate(63.623047 0)"/>
       <use xlink:href="#DejaVuSerif-35" transform="translate(95.410156 0)"/>
      </g>
     </g>
    </g>
    <g id="xtick_3">
     <g id="line2d_5">
      <path d="M 175.10125 307.302031 
L 175.10125 25.1 
" clip-path="url(#pc6bed71016)" style="fill: none; stroke: #cccccc; stroke-width: 0.8; stroke-linecap: round"/>
     </g>
     <g id="line2d_6"/>
     <g id="text_3">
      <!-- 1.0 -->
      <g style="fill: #262626" transform="translate(165.559375 319.920156) scale(0.12 -0.12)">
       <defs>
        <path id="DejaVuSerif-31" d="M 909 0 
L 909 331 
L 1722 331 
L 1722 4213 
L 781 3603 
L 781 4013 
L 1919 4750 
L 2350 4750 
L 2350 331 
L 3163 331 
L 3163 0 
L 909 0 
z
" transform="scale(0.015625)"/>
       </defs>
       <use xlink:href="#DejaVuSerif-31"/>
       <use xlink:href="#DejaVuSerif-2e" transform="translate(63.623047 0)"/>
       <use xlink:href="#DejaVuSerif-30" transform="translate(95.410156 0)"/>
      </g>
     </g>
    </g>
    <g id="xtick_4">
     <g id="line2d_7">
      <path d="M 233.337188 307.302031 
L 233.337188 25.1 
" clip-path="url(#pc6bed71016)" style="fill: none; stroke: #cccccc; stroke-width: 0.8; stroke-linecap: round"/>
     </g>
     <g id="line2d_8"/>
     <g id="text_4">
      <!-- 1.5 -->
      <g style="fill: #262626" transform="translate(223.795313 319.920156) scale(0.12 -0.12)">
       <use xlink:href="#DejaVuSerif-31"/>
       <use xlink:href="#DejaVuSerif-2e" transform="translate(63.623047 0)"/>
       <use xlink:href="#DejaVuSerif-35" transform="translate(95.410156 0)"/>
      </g>
     </g>
    </g>
    <g id="xtick_5">
     <g id="line2d_9">
      <path d="M 291.573125 307.302031 
L 291.573125 25.1 
" clip-path="url(#pc6bed71016)" style="fill: none; stroke: #cccccc; stroke-width: 0.8; stroke-linecap: round"/>
     </g>
     <g id="line2d_10"/>
     <g id="text_5">
      <!-- 2.0 -->
      <g style="fill: #262626" transform="translate(282.03125 319.920156) scale(0.12 -0.12)">
       <defs>
        <path id="DejaVuSerif-32" d="M 819 3553 
L 469 3553 
L 469 4384 
Q 803 4563 1142 4656 
Q 1481 4750 1806 4750 
Q 2534 4750 2956 4397 
Q 3378 4044 3378 3438 
Q 3378 2753 2422 1800 
Q 2347 1728 2309 1691 
L 1131 513 
L 3078 513 
L 3078 1088 
L 3444 1088 
L 3444 0 
L 434 0 
L 434 341 
L 1850 1753 
Q 2319 2222 2519 2614 
Q 2719 3006 2719 3438 
Q 2719 3909 2473 4175 
Q 2228 4441 1797 4441 
Q 1350 4441 1106 4219 
Q 863 3997 819 3553 
z
" transform="scale(0.015625)"/>
       </defs>
       <use xlink:href="#DejaVuSerif-32"/>
       <use xlink:href="#DejaVuSerif-2e" transform="translate(63.623047 0)"/>
       <use xlink:href="#DejaVuSerif-30" transform="translate(95.410156 0)"/>
      </g>
     </g>
    </g>
    <g id="text_6">
     <!-- $x$ -->
     <g style="fill: #262626" transform="translate(171.33125 336.29375) scale(0.13 -0.13)">
      <defs>
       <path id="Cmmi10-78" d="M 500 184 
Q 613 97 819 97 
Q 1019 97 1172 289 
Q 1325 481 1381 709 
L 1672 1844 
Q 1741 2153 1741 2266 
Q 1741 2425 1652 2544 
Q 1563 2663 1403 2663 
Q 1200 2663 1022 2536 
Q 844 2409 722 2214 
Q 600 2019 550 1819 
Q 538 1778 500 1778 
L 422 1778 
Q 372 1778 372 1838 
L 372 1856 
Q 434 2094 584 2320 
Q 734 2547 951 2687 
Q 1169 2828 1416 2828 
Q 1650 2828 1839 2703 
Q 2028 2578 2106 2363 
Q 2216 2559 2386 2693 
Q 2556 2828 2759 2828 
Q 2897 2828 3040 2779 
Q 3184 2731 3275 2631 
Q 3366 2531 3366 2381 
Q 3366 2219 3261 2101 
Q 3156 1984 2994 1984 
Q 2891 1984 2822 2050 
Q 2753 2116 2753 2216 
Q 2753 2350 2845 2451 
Q 2938 2553 3066 2572 
Q 2950 2663 2747 2663 
Q 2541 2663 2389 2472 
Q 2238 2281 2175 2047 
L 1894 916 
Q 1825 659 1825 494 
Q 1825 331 1917 214 
Q 2009 97 2163 97 
Q 2463 97 2698 361 
Q 2934 625 3009 941 
Q 3022 978 3059 978 
L 3138 978 
Q 3163 978 3178 961 
Q 3194 944 3194 922 
Q 3194 916 3188 903 
Q 3097 522 2806 225 
Q 2516 -72 2150 -72 
Q 1916 -72 1727 54 
Q 1538 181 1459 397 
Q 1359 209 1182 68 
Q 1006 -72 806 -72 
Q 669 -72 523 -23 
Q 378 25 287 125 
Q 197 225 197 378 
Q 197 528 301 651 
Q 406 775 563 775 
Q 669 775 741 711 
Q 813 647 813 544 
Q 813 409 723 309 
Q 634 209 500 184 
z
" transform="scale(0.015625)"/>
      </defs>
      <use xlink:href="#Cmmi10-78" transform="translate(0 0.8125)"/>
     </g>
    </g>
   </g>
   <g id="matplotlib.axis_2">
    <g id="ytick_1">
     <g id="line2d_11">
      <path d="M 35.335 279.081828 
L 314.8675 279.081828 
" clip-path="url(#pc6bed71016)" style="fill: none; stroke: #cccccc; stroke-width: 0.8; stroke-linecap: round"/>
     </g>
     <g id="line2d_12"/>
     <g id="text_7">
      <!-- 0 -->
      <g style="fill: #262626" transform="translate(24.2 283.640891) scale(0.12 -0.12)">
       <use xlink:href="#DejaVuSerif-30"/>
      </g>
     </g>
    </g>
    <g id="ytick_2">
     <g id="line2d_13">
      <path d="M 35.335 222.641422 
L 314.8675 222.641422 
" clip-path="url(#pc6bed71016)" style="fill: none; stroke: #cccccc; stroke-width: 0.8; stroke-linecap: round"/>
     </g>
     <g id="line2d_14"/>
     <g id="text_8">
      <!-- 1 -->
      <g style="fill: #262626" transform="translate(24.2 227.200484) scale(0.12 -0.12)">
       <use xlink:href="#DejaVuSerif-31"/>
      </g>
     </g>
    </g>
    <g id="ytick_3">
     <g id="line2d_15">
      <path d="M 35.335 166.201016 
L 314.8675 166.201016 
" clip-path="url(#pc6bed71016)" style="fill: none; stroke: #cccccc; stroke-width: 0.8; stroke-linecap: round"/>
     </g>
     <g id="line2d_16"/>
     <g id="text_9">
      <!-- 2 -->
      <g style="fill: #262626" transform="translate(24.2 170.760078) scale(0.12 -0.12)">
       <use xlink:href="#DejaVuSerif-32"/>
      </g>
     </g>
    </g>
    <g id="ytick_4">
     <g id="line2d_17">
      <path d="M 35.335 109.760609 
L 314.8675 109.760609 
" clip-path="url(#pc6bed71016)" style="fill: none; stroke: #cccccc; stroke-width: 0.8; stroke-linecap: round"/>
     </g>
     <g id="line2d_18"/>
     <g id="text_10">
      <!-- 3 -->
      <g style="fill: #262626" transform="translate(24.2 114.319672) scale(0.12 -0.12)">
       <defs>
        <path id="DejaVuSerif-33" d="M 622 4469 
Q 988 4606 1323 4678 
Q 1659 4750 1953 4750 
Q 2638 4750 3022 4454 
Q 3406 4159 3406 3634 
Q 3406 3213 3140 2930 
Q 2875 2647 2388 2547 
Q 2963 2466 3280 2130 
Q 3597 1794 3597 1259 
Q 3597 606 3158 257 
Q 2719 -91 1894 -91 
Q 1528 -91 1179 -12 
Q 831 66 488 225 
L 488 1131 
L 838 1131 
Q 869 681 1141 450 
Q 1413 219 1906 219 
Q 2384 219 2661 495 
Q 2938 772 2938 1253 
Q 2938 1803 2653 2086 
Q 2369 2369 1819 2369 
L 1522 2369 
L 1522 2688 
L 1678 2688 
Q 2225 2688 2498 2914 
Q 2772 3141 2772 3597 
Q 2772 4006 2547 4223 
Q 2322 4441 1900 4441 
Q 1478 4441 1245 4241 
Q 1013 4041 972 3647 
L 622 3647 
L 622 4469 
z
" transform="scale(0.015625)"/>
       </defs>
       <use xlink:href="#DejaVuSerif-33"/>
      </g>
     </g>
    </g>
    <g id="ytick_5">
     <g id="line2d_19">
      <path d="M 35.335 53.320203 
L 314.8675 53.320203 
" clip-path="url(#pc6bed71016)" style="fill: none; stroke: #cccccc; stroke-width: 0.8; stroke-linecap: round"/>
     </g>
     <g id="line2d_20"/>
     <g id="text_11">
      <!-- 4 -->
      <g style="fill: #262626" transform="translate(24.2 57.879266) scale(0.12 -0.12)">
       <defs>
        <path id="DejaVuSerif-34" d="M 2234 1581 
L 2234 4063 
L 641 1581 
L 2234 1581 
z
M 3609 0 
L 1484 0 
L 1484 331 
L 2234 331 
L 2234 1247 
L 197 1247 
L 197 1588 
L 2241 4750 
L 2859 4750 
L 2859 1581 
L 3750 1581 
L 3750 1247 
L 2859 1247 
L 2859 331 
L 3609 331 
L 3609 0 
z
" transform="scale(0.015625)"/>
       </defs>
       <use xlink:href="#DejaVuSerif-34"/>
      </g>
     </g>
    </g>
    <g id="text_12">
     <!-- $g(x)$ -->
     <g style="fill: #262626" transform="translate(16.95 178.096016) rotate(-90) scale(0.13 -0.13)">
      <defs>
       <path id="Cmmi10-67" d="M 91 -916 
Q 91 -759 198 -642 
Q 306 -525 459 -525 
Q 563 -525 633 -589 
Q 703 -653 703 -756 
Q 703 -872 637 -964 
Q 572 -1056 469 -1094 
Q 641 -1147 1006 -1147 
Q 1300 -1147 1544 -920 
Q 1788 -694 1863 -397 
L 2047 353 
Q 1700 0 1325 0 
Q 1050 0 854 140 
Q 659 281 556 515 
Q 453 750 453 1013 
Q 453 1306 573 1628 
Q 694 1950 911 2225 
Q 1128 2500 1409 2664 
Q 1691 2828 2003 2828 
Q 2191 2828 2341 2725 
Q 2491 2622 2578 2450 
Q 2641 2700 2853 2700 
Q 2934 2700 2990 2651 
Q 3047 2603 3047 2522 
Q 3047 2503 3045 2493 
Q 3044 2484 3041 2472 
L 2309 -434 
Q 2259 -634 2125 -800 
Q 1991 -966 1809 -1077 
Q 1628 -1188 1412 -1250 
Q 1197 -1313 997 -1313 
Q 631 -1313 361 -1242 
Q 91 -1172 91 -916 
z
M 1338 166 
Q 1747 166 2144 728 
L 2497 2125 
Q 2453 2347 2322 2505 
Q 2191 2663 1991 2663 
Q 1778 2663 1589 2489 
Q 1400 2316 1275 2075 
Q 1156 1844 1045 1411 
Q 934 978 934 728 
Q 934 509 1034 337 
Q 1134 166 1338 166 
z
" transform="scale(0.015625)"/>
       <path id="Cmr10-28" d="M 1984 -1588 
Q 1628 -1306 1370 -942 
Q 1113 -578 948 -165 
Q 784 247 703 697 
Q 622 1147 622 1600 
Q 622 2059 703 2509 
Q 784 2959 951 3375 
Q 1119 3791 1378 4153 
Q 1638 4516 1984 4788 
Q 1984 4800 2016 4800 
L 2075 4800 
Q 2094 4800 2109 4783 
Q 2125 4766 2125 4744 
Q 2125 4716 2113 4703 
Q 1800 4397 1592 4047 
Q 1384 3697 1257 3301 
Q 1131 2906 1075 2482 
Q 1019 2059 1019 1600 
Q 1019 -434 2106 -1491 
Q 2125 -1509 2125 -1544 
Q 2125 -1559 2108 -1579 
Q 2091 -1600 2075 -1600 
L 2016 -1600 
Q 1984 -1600 1984 -1588 
z
" transform="scale(0.015625)"/>
       <path id="Cmr10-29" d="M 416 -1600 
Q 359 -1600 359 -1544 
Q 359 -1516 372 -1503 
Q 1466 -434 1466 1600 
Q 1466 3634 384 4691 
Q 359 4706 359 4744 
Q 359 4766 376 4783 
Q 394 4800 416 4800 
L 475 4800 
Q 494 4800 506 4788 
Q 966 4425 1272 3906 
Q 1578 3388 1720 2800 
Q 1863 2213 1863 1600 
Q 1863 1147 1786 708 
Q 1709 269 1542 -157 
Q 1375 -584 1119 -945 
Q 863 -1306 506 -1588 
Q 494 -1600 475 -1600 
L 416 -1600 
z
" transform="scale(0.015625)"/>
      </defs>
      <use xlink:href="#Cmmi10-67"/>
      <use xlink:href="#Cmr10-28" transform="translate(47.705078 0)"/>
      <use xlink:href="#Cmmi10-78" transform="translate(86.523438 0)"/>
      <use xlink:href="#Cmr10-29" transform="translate(143.603516 0)"/>
     </g>
    </g>
   </g>
   <g id="line2d_21">
    <path d="M 58.629375 279.081828 
L 63.311661 278.990614 
L 67.993948 278.71697 
L 72.676234 278.260897 
L 77.358521 277.622396 
L 82.040807 276.801465 
L 86.723094 275.798106 
L 92.575952 274.287365 
L 98.42881 272.491579 
L 104.281668 270.410748 
L 110.134526 268.044872 
L 115.987384 265.39395 
L 121.840242 262.457983 
L 127.6931 259.23697 
L 133.545958 255.730912 
L 139.398816 251.939809 
L 145.251674 247.86366 
L 151.104532 243.502466 
L 156.95739 238.856227 
L 162.810248 233.924942 
L 168.663106 228.708612 
L 174.515964 223.207237 
L 180.368822 217.420816 
L 186.22168 211.34935 
L 192.074538 204.992838 
L 197.927396 198.351282 
L 203.780254 191.424679 
L 210.803684 182.736497 
L 217.827114 173.637849 
L 224.850543 164.128736 
L 231.873973 154.209157 
L 238.897403 143.879114 
L 245.920832 133.138604 
L 252.944262 121.98763 
L 259.967692 110.42619 
L 266.991121 98.454285 
L 274.014551 86.071915 
L 281.037981 73.279079 
L 288.06141 60.075778 
L 291.573125 53.320203 
L 291.573125 53.320203 
" clip-path="url(#pc6bed71016)" style="fill: none; stroke: #0000ff; stroke-width: 2.5; stroke-linecap: round"/>
   </g>
   <g id="line2d_22">
    <path d="M 116.865313 279.081828 
L 119.24229 276.778138 
L 121.619267 274.474448 
L 123.996244 272.170758 
L 126.373221 269.867068 
L 128.750198 267.563378 
L 131.127175 265.259688 
L 133.504152 262.955998 
L 135.881129 260.652308 
L 138.258106 258.348618 
L 140.635083 256.044928 
L 143.01206 253.741238 
L 145.389037 251.437548 
L 147.766014 249.133857 
L 150.142991 246.830167 
L 152.519968 244.526477 
L 154.896945 242.222787 
L 157.273922 239.919097 
L 159.650899 237.615407 
L 162.027876 235.311717 
L 164.404853 233.008027 
L 166.78183 230.704337 
L 169.158807 228.400647 
L 171.535784 226.096957 
L 173.912761 223.793267 
L 176.289739 221.489577 
L 178.666716 219.185887 
L 181.043693 216.882197 
L 183.42067 214.578507 
L 185.797647 212.274817 
L 188.174624 209.971127 
L 190.551601 207.667437 
L 192.928578 205.363746 
L 195.305555 203.060056 
L 197.682532 200.756366 
L 200.059509 198.452676 
L 202.436486 196.148986 
L 204.813463 193.845296 
L 207.19044 191.541606 
L 209.567417 189.237916 
L 211.944394 186.934226 
L 214.321371 184.630536 
L 216.698348 182.326846 
L 219.075325 180.023156 
L 221.452302 177.719466 
L 223.829279 175.415776 
L 226.206256 173.112086 
L 228.583233 170.808396 
L 230.96021 168.504706 
L 233.337188 166.201016 
" clip-path="url(#pc6bed71016)" style="fill: none; stroke-dasharray: 7.4,3.2; stroke-dashoffset: 0; stroke: #dc2626; stroke-opacity: 0.7; stroke-width: 2"/>
   </g>
   <g id="patch_3">
    <path d="M 35.335 307.302031 
L 35.335 25.1 
" style="fill: none; stroke: #cccccc; stroke-linejoin: miter; stroke-linecap: square"/>
   </g>
   <g id="patch_4">
    <path d="M 35.335 307.302031 
L 314.8675 307.302031 
" style="fill: none; stroke: #cccccc; stroke-linejoin: miter; stroke-linecap: square"/>
   </g>
   <g id="patch_5">
    <path d="M 211.100108 239.752022 
Q 194.003726 231.625949 177.917119 223.979831 
" style="fill: none; stroke: #666666; stroke-linecap: round"/>
    <path d="M 180.946636 227.855657 
L 177.917119 223.979831 
L 182.83549 223.881713 
" style="fill: none; stroke: #666666; stroke-linecap: round"/>
   </g>
   <g id="text_13">
    <!-- $g(1) = 1$ -->
    <g style="fill: #262626" transform="translate(210.042813 250.861625) scale(0.11 -0.11)">
     <defs>
      <path id="Cmr10-31" d="M 594 0 
L 594 225 
Q 1394 225 1394 428 
L 1394 3788 
Q 1063 3628 556 3628 
L 556 3853 
Q 1341 3853 1741 4263 
L 1831 4263 
Q 1853 4263 1873 4245 
Q 1894 4228 1894 4206 
L 1894 428 
Q 1894 225 2694 225 
L 2694 0 
L 594 0 
z
" transform="scale(0.015625)"/>
      <path id="Cmr10-3d" d="M 481 850 
Q 428 850 393 890 
Q 359 931 359 978 
Q 359 1031 393 1068 
Q 428 1106 481 1106 
L 4500 1106 
Q 4547 1106 4581 1068 
Q 4616 1031 4616 978 
Q 4616 931 4581 890 
Q 4547 850 4500 850 
L 481 850 
z
M 481 2094 
Q 428 2094 393 2131 
Q 359 2169 359 2222 
Q 359 2269 393 2309 
Q 428 2350 481 2350 
L 4500 2350 
Q 4547 2350 4581 2309 
Q 4616 2269 4616 2222 
Q 4616 2169 4581 2131 
Q 4547 2094 4500 2094 
L 481 2094 
z
" transform="scale(0.015625)"/>
     </defs>
     <use xlink:href="#Cmmi10-67"/>
     <use xlink:href="#Cmr10-28" transform="translate(47.705078 0)"/>
     <use xlink:href="#Cmr10-31" transform="translate(86.523438 0)"/>
     <use xlink:href="#Cmr10-29" transform="translate(136.523438 0)"/>
     <use xlink:href="#Cmr10-3d" transform="translate(192.900391 0)"/>
     <use xlink:href="#Cmr10-31" transform="translate(288.144531 0)"/>
    </g>
   </g>
   <g id="text_14">
    <g id="patch_6">
     <path d="M 49.311625 69.402102 
L 101.511625 69.402102 
Q 105.111625 69.402102 105.111625 65.802102 
L 105.111625 39.210102 
Q 105.111625 35.610102 101.511625 35.610102 
L 49.311625 35.610102 
Q 45.711625 35.610102 45.711625 39.210102 
L 45.711625 65.802102 
Q 45.711625 69.402102 49.311625 69.402102 
z
" style="fill: #dbeafe; opacity: 0.9; stroke: #3b82f6; stroke-linejoin: miter"/>
    </g>
    <!-- $g'(x) = 2x$ -->
    <g style="fill: #262626" transform="translate(49.311625 48.570102) scale(0.12 -0.12)">
     <defs>
      <path id="Cmsy10-30" d="M 225 347 
Q 184 359 184 409 
L 966 3316 
Q 1003 3434 1093 3506 
Q 1184 3578 1300 3578 
Q 1450 3578 1564 3479 
Q 1678 3381 1678 3231 
Q 1678 3166 1644 3084 
L 488 319 
Q 466 275 428 275 
Q 394 275 320 306 
Q 247 338 225 347 
z
" transform="scale(0.015625)"/>
      <path id="Cmr10-32" d="M 319 0 
L 319 172 
Q 319 188 331 206 
L 1325 1306 
Q 1550 1550 1690 1715 
Q 1831 1881 1968 2097 
Q 2106 2313 2186 2536 
Q 2266 2759 2266 3009 
Q 2266 3272 2169 3511 
Q 2072 3750 1880 3894 
Q 1688 4038 1416 4038 
Q 1138 4038 916 3870 
Q 694 3703 603 3438 
Q 628 3444 672 3444 
Q 816 3444 917 3347 
Q 1019 3250 1019 3097 
Q 1019 2950 917 2848 
Q 816 2747 672 2747 
Q 522 2747 420 2851 
Q 319 2956 319 3097 
Q 319 3338 409 3548 
Q 500 3759 670 3923 
Q 841 4088 1055 4175 
Q 1269 4263 1509 4263 
Q 1875 4263 2190 4108 
Q 2506 3953 2690 3670 
Q 2875 3388 2875 3009 
Q 2875 2731 2753 2481 
Q 2631 2231 2440 2026 
Q 2250 1822 1953 1562 
Q 1656 1303 1563 1216 
L 838 519 
L 1453 519 
Q 1906 519 2211 526 
Q 2516 534 2534 550 
Q 2609 631 2688 1141 
L 2875 1141 
L 2694 0 
L 319 0 
z
" transform="scale(0.015625)"/>
     </defs>
     <use xlink:href="#Cmmi10-67" transform="translate(0 0.601562)"/>
     <use xlink:href="#Cmsy10-30" transform="translate(54.008359 38.865625) scale(0.7)"/>
     <use xlink:href="#Cmr10-28" transform="translate(79.628867 0.601562)"/>
     <use xlink:href="#Cmmi10-78" transform="translate(118.447227 0.601562)"/>
     <use xlink:href="#Cmr10-29" transform="translate(175.527305 0.601562)"/>
     <use xlink:href="#Cmr10-3d" transform="translate(231.904258 0.601562)"/>
     <use xlink:href="#Cmr10-32" transform="translate(327.148398 0.601562)"/>
     <use xlink:href="#Cmmi10-78" transform="translate(377.148398 0.601562)"/>
    </g>
    <!-- $g'(1) = 2$ -->
    <g style="fill: #262626" transform="translate(49.311625 62.802102) scale(0.12 -0.12)">
     <use xlink:href="#Cmmi10-67" transform="translate(0 0.601562)"/>
     <use xlink:href="#Cmsy10-30" transform="translate(54.008359 38.865625) scale(0.7)"/>
     <use xlink:href="#Cmr10-28" transform="translate(79.628867 0.601562)"/>
     <use xlink:href="#Cmr10-31" transform="translate(118.447227 0.601562)"/>
     <use xlink:href="#Cmr10-29" transform="translate(168.447227 0.601562)"/>
     <use xlink:href="#Cmr10-3d" transform="translate(224.82418 0.601562)"/>
     <use xlink:href="#Cmr10-32" transform="translate(320.06832 0.601562)"/>
    </g>
   </g>
   <g id="text_15">
    <!-- Inner: $g(x) = x^2$ -->
    <g style="fill: #262626" transform="translate(120.43125 19.1) scale(0.14 -0.14)">
     <defs>
      <path id="DejaVuSerif-Bold-49" d="M 300 0 
L 300 378 
L 897 378 
L 897 4288 
L 300 4288 
L 300 4666 
L 2700 4666 
L 2700 4288 
L 2100 4288 
L 2100 378 
L 2700 378 
L 2700 0 
L 300 0 
z
" transform="scale(0.015625)"/>
      <path id="DejaVuSerif-Bold-6e" d="M 219 0 
L 219 378 
L 691 378 
L 691 2944 
L 219 2944 
L 219 3322 
L 1797 3322 
L 1797 2853 
Q 1997 3150 2253 3281 
Q 2509 3413 2900 3413 
Q 3459 3413 3745 3083 
Q 4031 2753 4031 2113 
L 4031 378 
L 4506 378 
L 4506 0 
L 2522 0 
L 2522 378 
L 2925 378 
L 2925 2144 
Q 2925 2566 2817 2730 
Q 2709 2894 2444 2894 
Q 2109 2894 1953 2648 
Q 1797 2403 1797 1869 
L 1797 378 
L 2203 378 
L 2203 0 
L 219 0 
z
" transform="scale(0.015625)"/>
      <path id="DejaVuSerif-Bold-65" d="M 2566 1875 
Q 2566 2531 2444 2795 
Q 2322 3059 2028 3059 
Q 1744 3059 1620 2800 
Q 1497 2541 1497 1931 
L 1497 1875 
L 2566 1875 
z
M 3781 1503 
L 1497 1503 
L 1497 1478 
Q 1497 834 1690 548 
Q 1884 263 2316 263 
Q 2675 263 2897 453 
Q 3119 644 3181 1006 
L 3700 1006 
Q 3566 441 3166 175 
Q 2766 -91 2047 -91 
Q 1184 -91 723 364 
Q 263 819 263 1663 
Q 263 2488 734 2950 
Q 1206 3413 2047 3413 
Q 2872 3413 3312 2927 
Q 3753 2441 3781 1503 
z
" transform="scale(0.015625)"/>
      <path id="DejaVuSerif-Bold-72" d="M 3438 3359 
L 3438 2369 
L 3084 2369 
Q 3066 2634 2941 2764 
Q 2816 2894 2578 2894 
Q 2216 2894 2006 2575 
Q 1797 2256 1797 1691 
L 1797 378 
L 2400 378 
L 2400 0 
L 219 0 
L 219 378 
L 691 378 
L 691 2944 
L 184 2944 
L 184 3322 
L 1797 3322 
L 1797 2731 
Q 1959 3078 2226 3245 
Q 2494 3413 2881 3413 
Q 2978 3413 3117 3398 
Q 3256 3384 3438 3359 
z
" transform="scale(0.015625)"/>
      <path id="DejaVuSerif-Bold-3a" d="M 588 2541 
Q 588 2788 761 2963 
Q 934 3138 1178 3138 
Q 1422 3138 1597 2961 
Q 1772 2784 1772 2541 
Q 1772 2297 1598 2125 
Q 1425 1953 1178 1953 
Q 931 1953 759 2125 
Q 588 2297 588 2541 
z
M 588 506 
Q 588 750 761 925 
Q 934 1100 1178 1100 
Q 1422 1100 1597 925 
Q 1772 750 1772 506 
Q 1772 259 1597 84 
Q 1422 -91 1178 -91 
Q 934 -91 761 84 
Q 588 259 588 506 
z
" transform="scale(0.015625)"/>
      <path id="DejaVuSerif-Bold-20" transform="scale(0.015625)"/>
     </defs>
     <use xlink:href="#DejaVuSerif-Bold-49" transform="translate(0 0.109375)"/>
     <use xlink:href="#DejaVuSerif-Bold-6e" transform="translate(46.777344 0.109375)"/>
     <use xlink:href="#DejaVuSerif-Bold-6e" transform="translate(119.482422 0.109375)"/>
     <use xlink:href="#DejaVuSerif-Bold-65" transform="translate(192.1875 0.109375)"/>
     <use xlink:href="#DejaVuSerif-Bold-72" transform="translate(255.810547 0.109375)"/>
     <use xlink:href="#DejaVuSerif-Bold-3a" transform="translate(308.496094 0.109375)"/>
     <use xlink:href="#DejaVuSerif-Bold-20" transform="translate(345.410156 0.109375)"/>
     <use xlink:href="#Cmmi10-67" transform="translate(380.224609 0.109375)"/>
     <use xlink:href="#Cmr10-28" transform="translate(427.929688 0.109375)"/>
     <use xlink:href="#Cmmi10-78" transform="translate(466.748047 0.109375)"/>
     <use xlink:href="#Cmr10-29" transform="translate(523.828125 0.109375)"/>
     <use xlink:href="#Cmr10-3d" transform="translate(580.205078 0.109375)"/>
     <use xlink:href="#Cmmi10-78" transform="translate(675.449219 0.109375)"/>
     <use xlink:href="#Cmr10-32" transform="translate(738.832578 38.373438) scale(0.7)"/>
    </g>
   </g>
   <g id="line2d_23">
    <defs>
     <path id="m255ae0ff41" d="M 0 5 
C 1.326016 5 2.597899 4.473168 3.535534 3.535534 
C 4.473168 2.597899 5 1.326016 5 0 
C 5 -1.326016 4.473168 -2.597899 3.535534 -3.535534 
C 2.597899 -4.473168 1.326016 -5 0 -5 
C -1.326016 -5 -2.597899 -4.473168 -3.535534 -3.535534 
C -4.473168 -2.597899 -5 -1.326016 -5 0 
C -5 1.326016 -4.473168 2.597899 -3.535534 3.535534 
C -2.597899 4.473168 -1.326016 5 0 5 
z
" style="stroke: #ff0000"/>
    </defs>
    <g clip-path="url(#pc6bed71016)">
     <use xlink:href="#m255ae0ff41" x="175.10125" y="222.641422" style="fill: #ff0000; stroke: #ff0000"/>
    </g>
   </g>
   <g id="legend_1">
    <g id="line2d_24">
     <path d="M 237.8675 292.302031 
L 247.8675 292.302031 
L 257.8675 292.302031 
" style="fill: none; stroke: #0000ff; stroke-width: 2.5; stroke-linecap: round"/>
    </g>
    <g id="text_16">
     <!-- $g(x) = x^2$ -->
     <g style="fill: #262626" transform="translate(265.8675 295.802031) scale(0.1 -0.1)">
      <use xlink:href="#Cmmi10-67" transform="translate(0 0.109375)"/>
      <use xlink:href="#Cmr10-28" transform="translate(47.705078 0.109375)"/>
      <use xlink:href="#Cmmi10-78" transform="translate(86.523438 0.109375)"/>
      <use xlink:href="#Cmr10-29" transform="translate(143.603516 0.109375)"/>
      <use xlink:href="#Cmr10-3d" transform="translate(199.980469 0.109375)"/>
      <use xlink:href="#Cmmi10-78" transform="translate(295.224609 0.109375)"/>
      <use xlink:href="#Cmr10-32" transform="translate(358.607969 38.373438) scale(0.7)"/>
     </g>
    </g>
   </g>
  </g>
  <g id="axes_2">
   <g id="patch_7">
    <path d="M 370.855 307.302031 
L 650.3875 307.302031 
L 650.3875 25.1 
L 370.855 25.1 
z
" style="fill: #ffffff"/>
   </g>
   <g id="matplotlib.axis_3">
    <g id="xtick_6">
     <g id="line2d_25">
      <path d="M 383.561023 307.302031 
L 383.561023 25.1 
" clip-path="url(#pe20cfc63f9)" style="fill: none; stroke: #cccccc; stroke-width: 0.8; stroke-linecap: round"/>
     </g>
     <g id="line2d_26"/>
     <g id="text_17">
      <!-- 0 -->
      <g style="fill: #262626" transform="translate(379.743523 319.920156) scale(0.12 -0.12)">
       <use xlink:href="#DejaVuSerif-30"/>
      </g>
     </g>
    </g>
    <g id="xtick_7">
     <g id="line2d_27">
      <path d="M 447.091136 307.302031 
L 447.091136 25.1 
" clip-path="url(#pe20cfc63f9)" style="fill: none; stroke: #cccccc; stroke-width: 0.8; stroke-linecap: round"/>
     </g>
     <g id="line2d_28"/>
     <g id="text_18">
      <!-- 1 -->
      <g style="fill: #262626" transform="translate(443.273636 319.920156) scale(0.12 -0.12)">
       <use xlink:href="#DejaVuSerif-31"/>
      </g>
     </g>
    </g>
    <g id="xtick_8">
     <g id="line2d_29">
      <path d="M 510.62125 307.302031 
L 510.62125 25.1 
" clip-path="url(#pe20cfc63f9)" style="fill: none; stroke: #cccccc; stroke-width: 0.8; stroke-linecap: round"/>
     </g>
     <g id="line2d_30"/>
     <g id="text_19">
      <!-- 2 -->
      <g style="fill: #262626" transform="translate(506.80375 319.920156) scale(0.12 -0.12)">
       <use xlink:href="#DejaVuSerif-32"/>
      </g>
     </g>
    </g>
    <g id="xtick_9">
     <g id="line2d_31">
      <path d="M 574.151364 307.302031 
L 574.151364 25.1 
" clip-path="url(#pe20cfc63f9)" style="fill: none; stroke: #cccccc; stroke-width: 0.8; stroke-linecap: round"/>
     </g>
     <g id="line2d_32"/>
     <g id="text_20">
      <!-- 3 -->
      <g style="fill: #262626" transform="translate(570.333864 319.920156) scale(0.12 -0.12)">
       <use xlink:href="#DejaVuSerif-33"/>
      </g>
     </g>
    </g>
    <g id="xtick_10">
     <g id="line2d_33">
      <path d="M 637.681477 307.302031 
L 637.681477 25.1 
" clip-path="url(#pe20cfc63f9)" style="fill: none; stroke: #cccccc; stroke-width: 0.8; stroke-linecap: round"/>
     </g>
     <g id="line2d_34"/>
     <g id="text_21">
      <!-- 4 -->
      <g style="fill: #262626" transform="translate(633.863977 319.920156) scale(0.12 -0.12)">
       <use xlink:href="#DejaVuSerif-34"/>
      </g>
     </g>
    </g>
    <g id="text_22">
     <!-- $u$ -->
     <g style="fill: #262626" transform="translate(506.85125 336.29375) scale(0.13 -0.13)">
      <defs>
       <path id="Cmmi10-75" d="M 678 697 
Q 678 906 734 1126 
Q 791 1347 892 1617 
Q 994 1888 1069 2088 
Q 1153 2322 1153 2472 
Q 1153 2663 1013 2663 
Q 759 2663 595 2402 
Q 431 2141 353 1819 
Q 341 1778 300 1778 
L 225 1778 
Q 172 1778 172 1838 
L 172 1856 
Q 275 2238 487 2533 
Q 700 2828 1025 2828 
Q 1253 2828 1411 2678 
Q 1569 2528 1569 2297 
Q 1569 2178 1516 2047 
Q 1488 1969 1388 1706 
Q 1288 1444 1234 1272 
Q 1181 1100 1147 934 
Q 1113 769 1113 603 
Q 1113 391 1203 244 
Q 1294 97 1497 97 
Q 1906 97 2216 603 
Q 2222 628 2226 651 
Q 2231 675 2234 697 
L 2694 2553 
Q 2716 2638 2794 2698 
Q 2872 2759 2963 2759 
Q 3041 2759 3098 2709 
Q 3156 2659 3156 2578 
Q 3156 2541 3150 2528 
L 2688 684 
Q 2644 494 2644 372 
Q 2644 97 2828 97 
Q 3034 97 3136 351 
Q 3238 606 3309 941 
Q 3322 978 3359 978 
L 3438 978 
Q 3463 978 3478 956 
Q 3494 934 3494 916 
Q 3425 641 3361 444 
Q 3297 247 3159 87 
Q 3022 -72 2816 -72 
Q 2613 -72 2452 39 
Q 2291 150 2234 341 
Q 2088 153 1894 40 
Q 1700 -72 1484 -72 
Q 1116 -72 897 129 
Q 678 331 678 697 
z
" transform="scale(0.015625)"/>
      </defs>
      <use xlink:href="#Cmmi10-75" transform="translate(0 0.8125)"/>
     </g>
    </g>
   </g>
   <g id="matplotlib.axis_4">
    <g id="ytick_6">
     <g id="line2d_35">
      <path d="M 370.855 286.398177 
L 650.3875 286.398177 
" clip-path="url(#pe20cfc63f9)" style="fill: none; stroke: #cccccc; stroke-width: 0.8; stroke-linecap: round"/>
     </g>
     <g id="line2d_36"/>
     <g id="text_23">
      <!-- 0.0 -->
      <g style="fill: #262626" transform="translate(348.27125 290.95724) scale(0.12 -0.12)">
       <use xlink:href="#DejaVuSerif-30"/>
       <use xlink:href="#DejaVuSerif-2e" transform="translate(63.623047 0)"/>
       <use xlink:href="#DejaVuSerif-30" transform="translate(95.410156 0)"/>
      </g>
     </g>
    </g>
    <g id="ytick_7">
     <g id="line2d_37">
      <path d="M 370.855 234.138542 
L 650.3875 234.138542 
" clip-path="url(#pe20cfc63f9)" style="fill: none; stroke: #cccccc; stroke-width: 0.8; stroke-linecap: round"/>
     </g>
     <g id="line2d_38"/>
     <g id="text_24">
      <!-- 0.5 -->
      <g style="fill: #262626" transform="translate(348.27125 238.697604) scale(0.12 -0.12)">
       <use xlink:href="#DejaVuSerif-30"/>
       <use xlink:href="#DejaVuSerif-2e" transform="translate(63.623047 0)"/>
       <use xlink:href="#DejaVuSerif-35" transform="translate(95.410156 0)"/>
      </g>
     </g>
    </g>
    <g id="ytick_8">
     <g id="line2d_39">
      <path d="M 370.855 181.878906 
L 650.3875 181.878906 
" clip-path="url(#pe20cfc63f9)" style="fill: none; stroke: #cccccc; stroke-width: 0.8; stroke-linecap: round"/>
     </g>
     <g id="line2d_40"/>
     <g id="text_25">
      <!-- 1.0 -->
      <g style="fill: #262626" transform="translate(348.27125 186.437969) scale(0.12 -0.12)">
       <use xlink:href="#DejaVuSerif-31"/>
       <use xlink:href="#DejaVuSerif-2e" transform="translate(63.623047 0)"/>
       <use xlink:href="#DejaVuSerif-30" transform="translate(95.410156 0)"/>
      </g>
     </g>
    </g>
    <g id="ytick_9">
     <g id="line2d_41">
      <path d="M 370.855 129.619271 
L 650.3875 129.619271 
" clip-path="url(#pe20cfc63f9)" style="fill: none; stroke: #cccccc; stroke-width: 0.8; stroke-linecap: round"/>
     </g>
     <g id="line2d_42"/>
     <g id="text_26">
      <!-- 1.5 -->
      <g style="fill: #262626" transform="translate(348.27125 134.178333) scale(0.12 -0.12)">
       <use xlink:href="#DejaVuSerif-31"/>
       <use xlink:href="#DejaVuSerif-2e" transform="translate(63.623047 0)"/>
       <use xlink:href="#DejaVuSerif-35" transform="translate(95.410156 0)"/>
      </g>
     </g>
    </g>
    <g id="ytick_10">
     <g id="line2d_43">
      <path d="M 370.855 77.359635 
L 650.3875 77.359635 
" clip-path="url(#pe20cfc63f9)" style="fill: none; stroke: #cccccc; stroke-width: 0.8; stroke-linecap: round"/>
     </g>
     <g id="line2d_44"/>
     <g id="text_27">
      <!-- 2.0 -->
      <g style="fill: #262626" transform="translate(348.27125 81.918698) scale(0.12 -0.12)">
       <use xlink:href="#DejaVuSerif-32"/>
       <use xlink:href="#DejaVuSerif-2e" transform="translate(63.623047 0)"/>
       <use xlink:href="#DejaVuSerif-30" transform="translate(95.410156 0)"/>
      </g>
     </g>
    </g>
    <g id="ytick_11">
     <g id="line2d_45">
      <path d="M 370.855 25.1 
L 650.3875 25.1 
" clip-path="url(#pe20cfc63f9)" style="fill: none; stroke: #cccccc; stroke-width: 0.8; stroke-linecap: round"/>
     </g>
     <g id="line2d_46"/>
     <g id="text_28">
      <!-- 2.5 -->
      <g style="fill: #262626" transform="translate(348.27125 29.659062) scale(0.12 -0.12)">
       <use xlink:href="#DejaVuSerif-32"/>
       <use xlink:href="#DejaVuSerif-2e" transform="translate(63.623047 0)"/>
       <use xlink:href="#DejaVuSerif-35" transform="translate(95.410156 0)"/>
      </g>
     </g>
    </g>
    <g id="text_29">
     <!-- $f(u)$ -->
     <g style="fill: #262626" transform="translate(341.02125 178.161016) rotate(-90) scale(0.13 -0.13)">
      <defs>
       <path id="Cmmi10-66" d="M 622 -1056 
Q 741 -1147 909 -1147 
Q 1138 -1147 1281 -641 
Q 1341 -397 1606 966 
L 1900 2534 
L 1350 2534 
Q 1288 2534 1288 2619 
Q 1313 2759 1369 2759 
L 1941 2759 
L 2016 3175 
Q 2053 3369 2084 3508 
Q 2116 3647 2152 3765 
Q 2188 3884 2259 4031 
Q 2369 4241 2555 4377 
Q 2741 4513 2956 4513 
Q 3097 4513 3230 4461 
Q 3363 4409 3447 4306 
Q 3531 4203 3531 4063 
Q 3531 3900 3423 3779 
Q 3316 3659 3163 3659 
Q 3059 3659 2986 3723 
Q 2913 3788 2913 3891 
Q 2913 4031 3008 4136 
Q 3103 4241 3244 4256 
Q 3125 4347 2950 4347 
Q 2853 4347 2767 4256 
Q 2681 4166 2656 4063 
Q 2616 3900 2478 3181 
L 2400 2759 
L 3059 2759 
Q 3122 2759 3122 2675 
Q 3119 2659 3109 2620 
Q 3100 2581 3083 2557 
Q 3066 2534 3041 2534 
L 2356 2534 
L 2059 972 
Q 2003 631 1929 279 
Q 1856 -72 1723 -442 
Q 1591 -813 1384 -1063 
Q 1178 -1313 897 -1313 
Q 681 -1313 511 -1189 
Q 341 -1066 341 -863 
Q 341 -700 445 -579 
Q 550 -459 709 -459 
Q 816 -459 887 -523 
Q 959 -588 959 -691 
Q 959 -828 857 -942 
Q 756 -1056 622 -1056 
z
" transform="scale(0.015625)"/>
      </defs>
      <use xlink:href="#Cmmi10-66"/>
      <use xlink:href="#Cmr10-28" transform="translate(48.876953 0)"/>
      <use xlink:href="#Cmmi10-75" transform="translate(87.695312 0)"/>
      <use xlink:href="#Cmr10-29" transform="translate(144.873047 0)"/>
     </g>
    </g>
   </g>
   <g id="line2d_47">
    <path d="M 389.914034 253.346282 
L 392.404159 247.403106 
L 394.894284 242.252924 
L 397.384409 237.643781 
L 399.874534 233.434237 
L 403.609722 227.683097 
L 407.344909 222.447084 
L 411.080097 217.608469 
L 414.815285 213.088522 
L 419.795535 207.463513 
L 424.775785 202.213519 
L 429.756035 197.272242 
L 435.981348 191.456607 
L 442.20666 185.977207 
L 448.431973 180.781698 
L 455.902348 174.866101 
L 463.372723 169.248839 
L 470.843098 163.888869 
L 479.558536 157.917876 
L 488.273974 152.212317 
L 498.234474 145.975258 
L 508.194974 140.003685 
L 519.400537 133.564305 
L 530.6061 127.385481 
L 543.056725 120.790278 
L 555.50735 114.447849 
L 569.203038 107.731034 
L 582.898726 101.257742 
L 597.839476 94.444778 
L 614.025289 87.327014 
L 630.211102 80.455106 
L 637.681477 77.359635 
L 637.681477 77.359635 
" clip-path="url(#pe20cfc63f9)" style="fill: none; stroke: #008000; stroke-width: 2.5; stroke-linecap: round"/>
   </g>
   <g id="line2d_48">
    <path d="M 402.620057 218.460651 
L 404.824163 216.647562 
L 407.028269 214.834472 
L 409.232375 213.021383 
L 411.436481 211.208293 
L 413.640587 209.395204 
L 415.844693 207.582115 
L 418.048799 205.769025 
L 420.252905 203.955936 
L 422.457011 202.142847 
L 424.661117 200.329757 
L 426.865223 198.516668 
L 429.069329 196.703578 
L 431.273435 194.890489 
L 433.477541 193.0774 
L 435.681647 191.26431 
L 437.885753 189.451221 
L 440.089859 187.638131 
L 442.293965 185.825042 
L 444.498071 184.011953 
L 446.702176 182.198863 
L 448.906282 180.385774 
L 451.110388 178.572684 
L 453.314494 176.759595 
L 455.5186 174.946506 
L 457.722706 173.133416 
L 459.926812 171.320327 
L 462.130918 169.507237 
L 464.335024 167.694148 
L 466.53913 165.881059 
L 468.743236 164.067969 
L 470.947342 162.25488 
L 473.151448 160.44179 
L 475.355554 158.628701 
L 477.55966 156.815612 
L 479.763766 155.002522 
L 481.967872 153.189433 
L 484.171978 151.376344 
L 486.376084 149.563254 
L 488.58019 147.750165 
L 490.784296 145.937075 
L 492.988402 144.123986 
L 495.192508 142.310897 
L 497.396614 140.497807 
L 499.60072 138.684718 
L 501.804826 136.871628 
L 504.008932 135.058539 
L 506.213038 133.24545 
L 508.417144 131.43236 
L 510.62125 129.619271 
" clip-path="url(#pe20cfc63f9)" style="fill: none; stroke-dasharray: 7.4,3.2; stroke-dashoffset: 0; stroke: #dc2626; stroke-opacity: 0.7; stroke-width: 2"/>
   </g>
   <g id="patch_8">
    <path d="M 370.855 307.302031 
L 370.855 25.1 
" style="fill: none; stroke: #cccccc; stroke-linejoin: miter; stroke-linecap: square"/>
   </g>
   <g id="patch_9">
    <path d="M 370.855 307.302031 
L 650.3875 307.302031 
" style="fill: none; stroke: #cccccc; stroke-linejoin: miter; stroke-linecap: square"/>
   </g>
   <g id="patch_10">
    <path d="M 501.516175 212.454168 
Q 475.175639 197.656406 449.809851 183.406244 
" style="fill: none; stroke: #666666; stroke-linecap: round"/>
    <path d="M 452.568417 187.479365 
L 449.809851 183.406244 
L 454.723487 183.643264 
" style="fill: none; stroke: #666666; stroke-linecap: round"/>
   </g>
   <g id="text_30">
    <!-- $f(1) = 1$ -->
    <g style="fill: #262626" transform="translate(497.915227 223.686615) scale(0.11 -0.11)">
     <use xlink:href="#Cmmi10-66"/>
     <use xlink:href="#Cmr10-28" transform="translate(48.876953 0)"/>
     <use xlink:href="#Cmr10-31" transform="translate(87.695312 0)"/>
     <use xlink:href="#Cmr10-29" transform="translate(137.695312 0)"/>
     <use xlink:href="#Cmr10-3d" transform="translate(194.072266 0)"/>
     <use xlink:href="#Cmr10-31" transform="translate(289.316406 0)"/>
    </g>
   </g>
   <g id="text_31">
    <g id="patch_11">
     <path d="M 384.831625 73.482102 
L 442.911625 73.482102 
Q 446.511625 73.482102 446.511625 69.882102 
L 446.511625 35.970102 
Q 446.511625 32.370102 442.911625 32.370102 
L 384.831625 32.370102 
Q 381.231625 32.370102 381.231625 35.970102 
L 381.231625 69.882102 
Q 381.231625 73.482102 384.831625 73.482102 
z
" style="fill: #dcfce7; opacity: 0.9; stroke: #22c55e; stroke-linejoin: miter"/>
    </g>
    <!-- $f'(u) = \frac{1}{2\sqrt{u}}$ -->
    <g style="fill: #262626" transform="translate(384.831625 49.410102) scale(0.12 -0.12)">
     <defs>
      <path id="Cmex10-70" d="M 2713 -7425 
L 1269 -4063 
L 819 -4409 
L 703 -4294 
L 1619 -3584 
L 2969 -6725 
L 6291 197 
Q 6322 256 6400 256 
Q 6453 256 6490 218 
Q 6528 181 6528 128 
Q 6528 97 6522 84 
L 2950 -7366 
Q 2925 -7425 2853 -7425 
L 2713 -7425 
z
" transform="scale(0.015625)"/>
     </defs>
     <use xlink:href="#Cmmi10-66" transform="translate(0 0.873438)"/>
     <use xlink:href="#Cmsy10-30" transform="translate(60.709141 39.1375) scale(0.7)"/>
     <use xlink:href="#Cmr10-28" transform="translate(86.329648 0.873438)"/>
     <use xlink:href="#Cmmi10-75" transform="translate(125.148008 0.873438)"/>
     <use xlink:href="#Cmr10-29" transform="translate(182.325742 0.873438)"/>
     <use xlink:href="#Cmr10-3d" transform="translate(238.702695 0.873438)"/>
     <use xlink:href="#Cmr10-31" transform="translate(384.946836 38.373438) scale(0.7)"/>
     <use xlink:href="#Cmr10-32" transform="translate(333.946836 -49.871875) scale(0.7)"/>
     <use xlink:href="#Cmex10-70" transform="translate(368.946836 1.138281) scale(0.446556)"/>
     <use xlink:href="#Cmmi10-75" transform="translate(422.343711 -50.182813) scale(0.7)"/>
     <path d="M 333.946836 13.373437 
L 333.946836 19.623437 
L 471.118125 19.623437 
L 471.118125 13.373437 
L 333.946836 13.373437 
z
"/>
     <path d="M 413.593711 -1.626563 
L 413.593711 2.748437 
L 471.118125 2.748437 
L 471.118125 -1.626563 
L 413.593711 -1.626563 
z
"/>
    </g>
    <!-- $f'(1) = 0.5$ -->
    <g style="fill: #262626" transform="translate(384.831625 66.882102) scale(0.12 -0.12)">
     <defs>
      <path id="Cmr10-30" d="M 1600 -141 
Q 816 -141 533 504 
Q 250 1150 250 2041 
Q 250 2597 351 3087 
Q 453 3578 754 3920 
Q 1056 4263 1600 4263 
Q 2022 4263 2290 4056 
Q 2559 3850 2700 3523 
Q 2841 3197 2892 2823 
Q 2944 2450 2944 2041 
Q 2944 1491 2842 1011 
Q 2741 531 2444 195 
Q 2147 -141 1600 -141 
z
M 1600 25 
Q 1956 25 2131 390 
Q 2306 756 2347 1200 
Q 2388 1644 2388 2144 
Q 2388 2625 2347 3031 
Q 2306 3438 2132 3767 
Q 1959 4097 1600 4097 
Q 1238 4097 1063 3765 
Q 888 3434 847 3029 
Q 806 2625 806 2144 
Q 806 1788 823 1472 
Q 841 1156 916 820 
Q 991 484 1158 254 
Q 1325 25 1600 25 
z
" transform="scale(0.015625)"/>
      <path id="Cmmi10-3a" d="M 538 353 
Q 538 497 644 600 
Q 750 703 891 703 
Q 978 703 1062 656 
Q 1147 609 1194 525 
Q 1241 441 1241 353 
Q 1241 213 1137 106 
Q 1034 0 891 0 
Q 750 0 644 106 
Q 538 213 538 353 
z
" transform="scale(0.015625)"/>
      <path id="Cmr10-35" d="M 556 728 
Q 622 541 758 387 
Q 894 234 1080 148 
Q 1266 63 1466 63 
Q 1928 63 2103 422 
Q 2278 781 2278 1294 
Q 2278 1516 2270 1667 
Q 2263 1819 2228 1959 
Q 2169 2184 2020 2353 
Q 1872 2522 1656 2522 
Q 1441 2522 1286 2456 
Q 1131 2391 1034 2303 
Q 938 2216 863 2119 
Q 788 2022 769 2016 
L 697 2016 
Q 681 2016 657 2036 
Q 634 2056 634 2075 
L 634 4213 
Q 634 4228 654 4245 
Q 675 4263 697 4263 
L 716 4263 
Q 1147 4056 1631 4056 
Q 2106 4056 2547 4263 
L 2566 4263 
Q 2588 4263 2606 4247 
Q 2625 4231 2625 4213 
L 2625 4153 
Q 2625 4122 2613 4122 
Q 2394 3831 2064 3668 
Q 1734 3506 1381 3506 
Q 1125 3506 856 3578 
L 856 2369 
Q 1069 2541 1236 2614 
Q 1403 2688 1663 2688 
Q 2016 2688 2295 2484 
Q 2575 2281 2725 1954 
Q 2875 1628 2875 1288 
Q 2875 903 2686 575 
Q 2497 247 2172 53 
Q 1847 -141 1466 -141 
Q 1150 -141 886 21 
Q 622 184 470 459 
Q 319 734 319 1044 
Q 319 1188 412 1278 
Q 506 1369 647 1369 
Q 788 1369 883 1276 
Q 978 1184 978 1044 
Q 978 906 883 811 
Q 788 716 647 716 
Q 625 716 597 720 
Q 569 725 556 728 
z
" transform="scale(0.015625)"/>
     </defs>
     <use xlink:href="#Cmmi10-66" transform="translate(0 0.601562)"/>
     <use xlink:href="#Cmsy10-30" transform="translate(60.709141 38.865625) scale(0.7)"/>
     <use xlink:href="#Cmr10-28" transform="translate(86.329648 0.601562)"/>
     <use xlink:href="#Cmr10-31" transform="translate(125.148008 0.601562)"/>
     <use xlink:href="#Cmr10-29" transform="translate(175.148008 0.601562)"/>
     <use xlink:href="#Cmr10-3d" transform="translate(231.524961 0.601562)"/>
     <use xlink:href="#Cmr10-30" transform="translate(326.769102 0.601562)"/>
     <use xlink:href="#Cmmi10-3a" transform="translate(376.769102 0.601562)"/>
     <use xlink:href="#Cmr10-35" transform="translate(404.454648 0.601562)"/>
    </g>
   </g>
   <g id="text_32">
    <!-- Outer: $f(u) = \sqrt{u}$ -->
    <g style="fill: #262626" transform="translate(452.03125 19.1) scale(0.14 -0.14)">
     <defs>
      <path id="DejaVuSerif-Bold-4f" d="M 2784 288 
Q 3381 288 3672 791 
Q 3963 1294 3963 2328 
Q 3963 3366 3672 3869 
Q 3381 4372 2784 4372 
Q 2191 4372 1898 3864 
Q 1606 3356 1606 2328 
Q 1606 1303 1898 795 
Q 2191 288 2784 288 
z
M 2784 -91 
Q 1606 -91 937 553 
Q 269 1197 269 2328 
Q 269 3459 939 4104 
Q 1609 4750 2784 4750 
Q 3963 4750 4631 4106 
Q 5300 3463 5300 2328 
Q 5300 1197 4629 553 
Q 3959 -91 2784 -91 
z
" transform="scale(0.015625)"/>
      <path id="DejaVuSerif-Bold-75" d="M 3963 3322 
L 3963 378 
L 4434 378 
L 4434 0 
L 2853 0 
L 2853 469 
Q 2656 172 2400 40 
Q 2144 -91 1753 -91 
Q 1194 -91 908 239 
Q 622 569 622 1209 
L 622 2944 
L 147 2944 
L 147 3322 
L 1728 3322 
L 1728 1381 
Q 1728 763 1831 595 
Q 1934 428 2209 428 
Q 2544 428 2698 675 
Q 2853 922 2853 1459 
L 2853 2944 
L 2450 2944 
L 2450 3322 
L 3963 3322 
z
" transform="scale(0.015625)"/>
      <path id="DejaVuSerif-Bold-74" d="M 634 2944 
L 153 2944 
L 153 3322 
L 634 3322 
L 634 4353 
L 1741 4353 
L 1741 3322 
L 2663 3322 
L 2663 2944 
L 1741 2944 
L 1741 909 
Q 1741 475 1809 369 
Q 1878 263 2059 263 
Q 2259 263 2356 397 
Q 2453 531 2459 813 
L 2925 813 
Q 2897 313 2651 111 
Q 2406 -91 1806 -91 
Q 1122 -91 878 123 
Q 634 338 634 909 
L 634 2944 
z
" transform="scale(0.015625)"/>
     </defs>
     <use xlink:href="#DejaVuSerif-Bold-4f" transform="translate(0 0.578125)"/>
     <use xlink:href="#DejaVuSerif-Bold-75" transform="translate(87.109375 0.578125)"/>
     <use xlink:href="#DejaVuSerif-Bold-74" transform="translate(159.814453 0.578125)"/>
     <use xlink:href="#DejaVuSerif-Bold-65" transform="translate(206.005859 0.578125)"/>
     <use xlink:href="#DejaVuSerif-Bold-72" transform="translate(269.628906 0.578125)"/>
     <use xlink:href="#DejaVuSerif-Bold-3a" transform="translate(322.314453 0.578125)"/>
     <use xlink:href="#DejaVuSerif-Bold-20" transform="translate(359.228516 0.578125)"/>
     <use xlink:href="#Cmmi10-66" transform="translate(394.042969 0.578125)"/>
     <use xlink:href="#Cmr10-28" transform="translate(442.919922 0.578125)"/>
     <use xlink:href="#Cmmi10-75" transform="translate(481.738281 0.578125)"/>
     <use xlink:href="#Cmr10-29" transform="translate(538.916016 0.578125)"/>
     <use xlink:href="#Cmr10-3d" transform="translate(595.292969 0.578125)"/>
     <use xlink:href="#Cmex10-70" transform="translate(690.537109 73.453125) scale(0.637938)"/>
     <use xlink:href="#Cmmi10-75" transform="translate(766.818359 0.5625)"/>
     <path d="M 754.318359 69.5 
L 754.318359 75.75 
L 836.496094 75.75 
L 836.496094 69.5 
L 754.318359 69.5 
z
"/>
    </g>
   </g>
   <g id="line2d_49">
    <g clip-path="url(#pe20cfc63f9)">
     <use xlink:href="#m255ae0ff41" x="447.091136" y="181.878906" style="fill: #ff0000; stroke: #ff0000"/>
    </g>
   </g>
   <g id="legend_2">
    <g id="line2d_50">
     <path d="M 569.0875 292.302031 
L 579.0875 292.302031 
L 589.0875 292.302031 
" style="fill: none; stroke: #008000; stroke-width: 2.5; stroke-linecap: round"/>
    </g>
    <g id="text_33">
     <!-- $f(u) = \sqrt{u}$ -->
     <g style="fill: #262626" transform="translate(597.0875 295.802031) scale(0.1 -0.1)">
      <use xlink:href="#Cmmi10-66" transform="translate(0 0.578125)"/>
      <use xlink:href="#Cmr10-28" transform="translate(48.876953 0.578125)"/>
      <use xlink:href="#Cmmi10-75" transform="translate(87.695312 0.578125)"/>
      <use xlink:href="#Cmr10-29" transform="translate(144.873047 0.578125)"/>
      <use xlink:href="#Cmr10-3d" transform="translate(201.25 0.578125)"/>
      <use xlink:href="#Cmex10-70" transform="translate(296.494141 73.453125) scale(0.637938)"/>
      <use xlink:href="#Cmmi10-75" transform="translate(372.775391 0.5625)"/>
      <path d="M 360.275391 69.5 
L 360.275391 75.75 
L 442.453125 75.75 
L 442.453125 69.5 
L 360.275391 69.5 
z
"/>
     </g>
    </g>
   </g>
  </g>
  <g id="axes_3">
   <g id="patch_12">
    <path d="M 706.375 307.302031 
L 985.9075 307.302031 
L 985.9075 25.1 
L 706.375 25.1 
z
" style="fill: #ffffff"/>
   </g>
   <g id="matplotlib.axis_5">
    <g id="xtick_11">
     <g id="line2d_51">
      <path d="M 729.669375 307.302031 
L 729.669375 25.1 
" clip-path="url(#pfa7048871d)" style="fill: none; stroke: #cccccc; stroke-width: 0.8; stroke-linecap: round"/>
     </g>
     <g id="line2d_52"/>
     <g id="text_34">
      <!-- 0.0 -->
      <g style="fill: #262626" transform="translate(720.1275 319.920156) scale(0.12 -0.12)">
       <use xlink:href="#DejaVuSerif-30"/>
       <use xlink:href="#DejaVuSerif-2e" transform="translate(63.623047 0)"/>
       <use xlink:href="#DejaVuSerif-30" transform="translate(95.410156 0)"/>
      </g>
     </g>
    </g>
    <g id="xtick_12">
     <g id="line2d_53">
      <path d="M 787.905312 307.302031 
L 787.905312 25.1 
" clip-path="url(#pfa7048871d)" style="fill: none; stroke: #cccccc; stroke-width: 0.8; stroke-linecap: round"/>
     </g>
     <g id="line2d_54"/>
     <g id="text_35">
      <!-- 0.5 -->
      <g style="fill: #262626" transform="translate(778.363437 319.920156) scale(0.12 -0.12)">
       <use xlink:href="#DejaVuSerif-30"/>
       <use xlink:href="#DejaVuSerif-2e" transform="translate(63.623047 0)"/>
       <use xlink:href="#DejaVuSerif-35" transform="translate(95.410156 0)"/>
      </g>
     </g>
    </g>
    <g id="xtick_13">
     <g id="line2d_55">
      <path d="M 846.14125 307.302031 
L 846.14125 25.1 
" clip-path="url(#pfa7048871d)" style="fill: none; stroke: #cccccc; stroke-width: 0.8; stroke-linecap: round"/>
     </g>
     <g id="line2d_56"/>
     <g id="text_36">
      <!-- 1.0 -->
      <g style="fill: #262626" transform="translate(836.599375 319.920156) scale(0.12 -0.12)">
       <use xlink:href="#DejaVuSerif-31"/>
       <use xlink:href="#DejaVuSerif-2e" transform="translate(63.623047 0)"/>
       <use xlink:href="#DejaVuSerif-30" transform="translate(95.410156 0)"/>
      </g>
     </g>
    </g>
    <g id="xtick_14">
     <g id="line2d_57">
      <path d="M 904.377187 307.302031 
L 904.377187 25.1 
" clip-path="url(#pfa7048871d)" style="fill: none; stroke: #cccccc; stroke-width: 0.8; stroke-linecap: round"/>
     </g>
     <g id="line2d_58"/>
     <g id="text_37">
      <!-- 1.5 -->
      <g style="fill: #262626" transform="translate(894.835312 319.920156) scale(0.12 -0.12)">
       <use xlink:href="#DejaVuSerif-31"/>
       <use xlink:href="#DejaVuSerif-2e" transform="translate(63.623047 0)"/>
       <use xlink:href="#DejaVuSerif-35" transform="translate(95.410156 0)"/>
      </g>
     </g>
    </g>
    <g id="xtick_15">
     <g id="line2d_59">
      <path d="M 962.613125 307.302031 
L 962.613125 25.1 
" clip-path="url(#pfa7048871d)" style="fill: none; stroke: #cccccc; stroke-width: 0.8; stroke-linecap: round"/>
     </g>
     <g id="line2d_60"/>
     <g id="text_38">
      <!-- 2.0 -->
      <g style="fill: #262626" transform="translate(953.07125 319.920156) scale(0.12 -0.12)">
       <use xlink:href="#DejaVuSerif-32"/>
       <use xlink:href="#DejaVuSerif-2e" transform="translate(63.623047 0)"/>
       <use xlink:href="#DejaVuSerif-30" transform="translate(95.410156 0)"/>
      </g>
     </g>
    </g>
    <g id="text_39">
     <!-- $x$ -->
     <g style="fill: #262626" transform="translate(842.37125 336.29375) scale(0.13 -0.13)">
      <use xlink:href="#Cmmi10-78" transform="translate(0 0.8125)"/>
     </g>
    </g>
   </g>
   <g id="matplotlib.axis_6">
    <g id="ytick_12">
     <g id="line2d_61">
      <path d="M 706.375 286.398177 
L 985.9075 286.398177 
" clip-path="url(#pfa7048871d)" style="fill: none; stroke: #cccccc; stroke-width: 0.8; stroke-linecap: round"/>
     </g>
     <g id="line2d_62"/>
     <g id="text_40">
      <!-- 0.0 -->
      <g style="fill: #262626" transform="translate(683.79125 290.95724) scale(0.12 -0.12)">
       <use xlink:href="#DejaVuSerif-30"/>
       <use xlink:href="#DejaVuSerif-2e" transform="translate(63.623047 0)"/>
       <use xlink:href="#DejaVuSerif-30" transform="translate(95.410156 0)"/>
      </g>
     </g>
    </g>
    <g id="ytick_13">
     <g id="line2d_63">
      <path d="M 706.375 234.138542 
L 985.9075 234.138542 
" clip-path="url(#pfa7048871d)" style="fill: none; stroke: #cccccc; stroke-width: 0.8; stroke-linecap: round"/>
     </g>
     <g id="line2d_64"/>
     <g id="text_41">
      <!-- 0.5 -->
      <g style="fill: #262626" transform="translate(683.79125 238.697604) scale(0.12 -0.12)">
       <use xlink:href="#DejaVuSerif-30"/>
       <use xlink:href="#DejaVuSerif-2e" transform="translate(63.623047 0)"/>
       <use xlink:href="#DejaVuSerif-35" transform="translate(95.410156 0)"/>
      </g>
     </g>
    </g>
    <g id="ytick_14">
     <g id="line2d_65">
      <path d="M 706.375 181.878906 
L 985.9075 181.878906 
" clip-path="url(#pfa7048871d)" style="fill: none; stroke: #cccccc; stroke-width: 0.8; stroke-linecap: round"/>
     </g>
     <g id="line2d_66"/>
     <g id="text_42">
      <!-- 1.0 -->
      <g style="fill: #262626" transform="translate(683.79125 186.437969) scale(0.12 -0.12)">
       <use xlink:href="#DejaVuSerif-31"/>
       <use xlink:href="#DejaVuSerif-2e" transform="translate(63.623047 0)"/>
       <use xlink:href="#DejaVuSerif-30" transform="translate(95.410156 0)"/>
      </g>
     </g>
    </g>
    <g id="ytick_15">
     <g id="line2d_67">
      <path d="M 706.375 129.619271 
L 985.9075 129.619271 
" clip-path="url(#pfa7048871d)" style="fill: none; stroke: #cccccc; stroke-width: 0.8; stroke-linecap: round"/>
     </g>
     <g id="line2d_68"/>
     <g id="text_43">
      <!-- 1.5 -->
      <g style="fill: #262626" transform="translate(683.79125 134.178333) scale(0.12 -0.12)">
       <use xlink:href="#DejaVuSerif-31"/>
       <use xlink:href="#DejaVuSerif-2e" transform="translate(63.623047 0)"/>
       <use xlink:href="#DejaVuSerif-35" transform="translate(95.410156 0)"/>
      </g>
     </g>
    </g>
    <g id="ytick_16">
     <g id="line2d_69">
      <path d="M 706.375 77.359635 
L 985.9075 77.359635 
" clip-path="url(#pfa7048871d)" style="fill: none; stroke: #cccccc; stroke-width: 0.8; stroke-linecap: round"/>
     </g>
     <g id="line2d_70"/>
     <g id="text_44">
      <!-- 2.0 -->
      <g style="fill: #262626" transform="translate(683.79125 81.918698) scale(0.12 -0.12)">
       <use xlink:href="#DejaVuSerif-32"/>
       <use xlink:href="#DejaVuSerif-2e" transform="translate(63.623047 0)"/>
       <use xlink:href="#DejaVuSerif-30" transform="translate(95.410156 0)"/>
      </g>
     </g>
    </g>
    <g id="ytick_17">
     <g id="line2d_71">
      <path d="M 706.375 25.1 
L 985.9075 25.1 
" clip-path="url(#pfa7048871d)" style="fill: none; stroke: #cccccc; stroke-width: 0.8; stroke-linecap: round"/>
     </g>
     <g id="line2d_72"/>
     <g id="text_45">
      <!-- 2.5 -->
      <g style="fill: #262626" transform="translate(683.79125 29.659062) scale(0.12 -0.12)">
       <use xlink:href="#DejaVuSerif-32"/>
       <use xlink:href="#DejaVuSerif-2e" transform="translate(63.623047 0)"/>
       <use xlink:href="#DejaVuSerif-35" transform="translate(95.410156 0)"/>
      </g>
     </g>
    </g>
    <g id="text_46">
     <!-- $h(x)$ -->
     <g style="fill: #262626" transform="translate(676.54125 178.746016) rotate(-90) scale(0.13 -0.13)">
      <defs>
       <path id="Cmmi10-68" d="M 341 116 
Q 341 153 347 172 
L 1275 3872 
Q 1300 3981 1306 4044 
Q 1306 4147 891 4147 
Q 825 4147 825 4231 
Q 828 4247 839 4287 
Q 850 4328 867 4350 
Q 884 4372 916 4372 
L 1778 4441 
L 1797 4441 
Q 1797 4434 1819 4423 
Q 1841 4413 1844 4409 
Q 1856 4378 1856 4359 
L 1356 2363 
Q 1750 2828 2291 2828 
Q 2516 2828 2680 2750 
Q 2844 2672 2936 2514 
Q 3028 2356 3028 2138 
Q 3028 1875 2911 1503 
Q 2794 1131 2619 672 
Q 2528 463 2528 288 
Q 2528 97 2675 97 
Q 2925 97 3092 364 
Q 3259 631 3328 941 
Q 3341 978 3378 978 
L 3456 978 
Q 3481 978 3497 961 
Q 3513 944 3513 922 
Q 3513 916 3506 903 
Q 3450 672 3339 448 
Q 3228 225 3059 76 
Q 2891 -72 2663 -72 
Q 2438 -72 2278 83 
Q 2119 238 2119 459 
Q 2119 578 2169 709 
Q 2350 1191 2470 1569 
Q 2591 1947 2591 2234 
Q 2591 2419 2519 2541 
Q 2447 2663 2278 2663 
Q 1934 2663 1678 2452 
Q 1422 2241 1234 1894 
L 800 147 
Q 775 50 703 -11 
Q 631 -72 538 -72 
Q 456 -72 398 -17 
Q 341 38 341 116 
z
" transform="scale(0.015625)"/>
      </defs>
      <use xlink:href="#Cmmi10-68"/>
      <use xlink:href="#Cmr10-28" transform="translate(57.617188 0)"/>
      <use xlink:href="#Cmmi10-78" transform="translate(96.435547 0)"/>
      <use xlink:href="#Cmr10-29" transform="translate(153.515625 0)"/>
     </g>
    </g>
   </g>
   <g id="line2d_73">
    <path d="M 729.669375 286.398177 
L 962.613125 77.359635 
L 962.613125 77.359635 
" clip-path="url(#pfa7048871d)" style="fill: none; stroke: #bf00bf; stroke-width: 2.5; stroke-linecap: round"/>
   </g>
   <g id="line2d_74">
    <path d="M 776.258125 244.590469 
L 779.110497 242.030813 
L 781.96287 239.471158 
L 784.815242 236.911502 
L 787.667615 234.351846 
L 790.519987 231.792191 
L 793.37236 229.232535 
L 796.224732 226.672879 
L 799.077105 224.113224 
L 801.929477 221.553568 
L 804.781849 218.993913 
L 807.634222 216.434257 
L 810.486594 213.874601 
L 813.338967 211.314946 
L 816.191339 208.75529 
L 819.043712 206.195635 
L 821.896084 203.635979 
L 824.748457 201.076323 
L 827.600829 198.516668 
L 830.453202 195.957012 
L 833.305574 193.397357 
L 836.157946 190.837701 
L 839.010319 188.278045 
L 841.862691 185.71839 
L 844.715064 183.158734 
L 847.567436 180.599078 
L 850.419809 178.039423 
L 853.272181 175.479767 
L 856.124554 172.920112 
L 858.976926 170.360456 
L 861.829298 167.8008 
L 864.681671 165.241145 
L 867.534043 162.681489 
L 870.386416 160.121834 
L 873.238788 157.562178 
L 876.091161 155.002522 
L 878.943533 152.442867 
L 881.795906 149.883211 
L 884.648278 147.323555 
L 887.500651 144.7639 
L 890.353023 142.204244 
L 893.205395 139.644589 
L 896.057768 137.084933 
L 898.91014 134.525277 
L 901.762513 131.965622 
L 904.614885 129.405966 
L 907.467258 126.846311 
L 910.31963 124.286655 
L 913.172003 121.726999 
L 916.024375 119.167344 
" clip-path="url(#pfa7048871d)" style="fill: none; stroke-dasharray: 7.4,3.2; stroke-dashoffset: 0; stroke: #dc2626; stroke-opacity: 0.7; stroke-width: 2"/>
   </g>
   <g id="patch_13">
    <path d="M 706.375 307.302031 
L 706.375 25.1 
" style="fill: none; stroke: #cccccc; stroke-linejoin: miter; stroke-linecap: square"/>
   </g>
   <g id="patch_14">
    <path d="M 706.375 307.302031 
L 985.9075 307.302031 
" style="fill: none; stroke: #cccccc; stroke-linejoin: miter; stroke-linecap: square"/>
   </g>
   <g id="patch_15">
    <path d="M 890.602365 222.540032 
Q 869.108574 202.883266 848.439824 183.981027 
" style="fill: none; stroke: #666666; stroke-linecap: round"/>
    <path d="M 850.202042 188.573911 
L 848.439824 183.981027 
L 853.171463 185.326983 
" style="fill: none; stroke: #666666; stroke-linecap: round"/>
   </g>
   <g id="text_47">
    <!-- $h(1) = 1$ -->
    <g style="fill: #262626" transform="translate(881.082813 234.138542) scale(0.11 -0.11)">
     <use xlink:href="#Cmmi10-68"/>
     <use xlink:href="#Cmr10-28" transform="translate(57.617188 0)"/>
     <use xlink:href="#Cmr10-31" transform="translate(96.435547 0)"/>
     <use xlink:href="#Cmr10-29" transform="translate(146.435547 0)"/>
     <use xlink:href="#Cmr10-3d" transform="translate(202.8125 0)"/>
     <use xlink:href="#Cmr10-31" transform="translate(298.056641 0)"/>
    </g>
   </g>
   <g id="text_48">
    <g id="patch_16">
     <path d="M 720.351625 69.402102 
L 836.271625 69.402102 
Q 839.871625 69.402102 839.871625 65.802102 
L 839.871625 39.210102 
Q 839.871625 35.610102 836.271625 35.610102 
L 720.351625 35.610102 
Q 716.751625 35.610102 716.751625 39.210102 
L 716.751625 65.802102 
Q 716.751625 69.402102 720.351625 69.402102 
z
" style="fill: #fce7f3; opacity: 0.9; stroke: #ec4899; stroke-linejoin: miter"/>
    </g>
    <!-- $h'(x) = f'(g(x)) \cdot g'(x)$ -->
    <g style="fill: #262626" transform="translate(720.351625 48.570102) scale(0.12 -0.12)">
     <defs>
      <path id="Cmsy10-a2" d="M 538 1600 
Q 538 1691 584 1772 
Q 631 1853 714 1903 
Q 797 1953 891 1953 
Q 981 1953 1064 1903 
Q 1147 1853 1194 1772 
Q 1241 1691 1241 1600 
Q 1241 1456 1139 1351 
Q 1038 1247 891 1247 
Q 747 1247 642 1351 
Q 538 1456 538 1600 
z
" transform="scale(0.015625)"/>
     </defs>
     <use xlink:href="#Cmmi10-68" transform="translate(0 0.601562)"/>
     <use xlink:href="#Cmsy10-30" transform="translate(69.213125 38.865625) scale(0.7)"/>
     <use xlink:href="#Cmr10-28" transform="translate(94.833633 0.601562)"/>
     <use xlink:href="#Cmmi10-78" transform="translate(133.651992 0.601562)"/>
     <use xlink:href="#Cmr10-29" transform="translate(190.73207 0.601562)"/>
     <use xlink:href="#Cmr10-3d" transform="translate(247.109023 0.601562)"/>
     <use xlink:href="#Cmmi10-66" transform="translate(342.353164 0.601562)"/>
     <use xlink:href="#Cmsy10-30" transform="translate(403.062305 38.865625) scale(0.7)"/>
     <use xlink:href="#Cmr10-28" transform="translate(428.682813 0.601562)"/>
     <use xlink:href="#Cmmi10-67" transform="translate(467.501172 0.601562)"/>
     <use xlink:href="#Cmr10-28" transform="translate(515.20625 0.601562)"/>
     <use xlink:href="#Cmmi10-78" transform="translate(554.024609 0.601562)"/>
     <use xlink:href="#Cmr10-29" transform="translate(611.104687 0.601562)"/>
     <use xlink:href="#Cmr10-29" transform="translate(649.923047 0.601562)"/>
     <use xlink:href="#Cmsy10-a2" transform="translate(706.3 0.601562)"/>
     <use xlink:href="#Cmmi10-67" transform="translate(751.544141 0.601562)"/>
     <use xlink:href="#Cmsy10-30" transform="translate(805.5525 38.865625) scale(0.7)"/>
     <use xlink:href="#Cmr10-28" transform="translate(831.173008 0.601562)"/>
     <use xlink:href="#Cmmi10-78" transform="translate(869.991367 0.601562)"/>
     <use xlink:href="#Cmr10-29" transform="translate(927.071445 0.601562)"/>
    </g>
    <!-- $h'(1) = 0.5 \times 2 = 1$ -->
    <g style="fill: #262626" transform="translate(720.351625 62.802102) scale(0.12 -0.12)">
     <defs>
      <path id="Cmsy10-a3" d="M 941 184 
Q 941 234 972 275 
L 2303 1600 
L 972 2931 
Q 941 2963 941 3016 
Q 941 3063 978 3103 
Q 1016 3144 1069 3144 
Q 1113 3144 1166 3103 
L 2491 1778 
L 3809 3103 
Q 3863 3144 3903 3144 
Q 3956 3144 3993 3106 
Q 4031 3069 4031 3016 
Q 4031 2963 4000 2931 
L 2669 1600 
L 4000 275 
Q 4031 234 4031 184 
Q 4031 131 3993 93 
Q 3956 56 3903 56 
Q 3856 56 3809 103 
L 2491 1422 
L 1166 103 
Q 1119 56 1069 56 
Q 1016 56 978 97 
Q 941 138 941 184 
z
" transform="scale(0.015625)"/>
     </defs>
     <use xlink:href="#Cmmi10-68" transform="translate(0 0.601562)"/>
     <use xlink:href="#Cmsy10-30" transform="translate(69.213125 38.865625) scale(0.7)"/>
     <use xlink:href="#Cmr10-28" transform="translate(94.833633 0.601562)"/>
     <use xlink:href="#Cmr10-31" transform="translate(133.651992 0.601562)"/>
     <use xlink:href="#Cmr10-29" transform="translate(183.651992 0.601562)"/>
     <use xlink:href="#Cmr10-3d" transform="translate(240.028945 0.601562)"/>
     <use xlink:href="#Cmr10-30" transform="translate(335.273086 0.601562)"/>
     <use xlink:href="#Cmmi10-3a" transform="translate(385.273086 0.601562)"/>
     <use xlink:href="#Cmr10-35" transform="translate(412.958633 0.601562)"/>
     <use xlink:href="#Cmsy10-a3" transform="translate(480.517227 0.601562)"/>
     <use xlink:href="#Cmr10-32" transform="translate(575.761367 0.601562)"/>
     <use xlink:href="#Cmr10-3d" transform="translate(643.319961 0.601562)"/>
     <use xlink:href="#Cmr10-31" transform="translate(738.564102 0.601562)"/>
    </g>
   </g>
   <g id="text_49">
    <!-- Composite: $h(x) = f(g(x))$ -->
    <g style="fill: #262626" transform="translate(756.61125 19.1) scale(0.14 -0.14)">
     <defs>
      <path id="DejaVuSerif-Bold-43" d="M 4769 1331 
Q 4584 609 4106 259 
Q 3628 -91 2822 -91 
Q 1641 -91 955 561 
Q 269 1213 269 2328 
Q 269 3447 955 4098 
Q 1641 4750 2822 4750 
Q 3238 4750 3688 4650 
Q 4138 4550 4641 4347 
L 4641 3200 
L 4244 3200 
Q 4122 3788 3800 4080 
Q 3478 4372 2950 4372 
Q 2269 4372 1937 3870 
Q 1606 3369 1606 2328 
Q 1606 1288 1937 788 
Q 2269 288 2956 288 
Q 3422 288 3717 547 
Q 4013 806 4147 1331 
L 4769 1331 
z
" transform="scale(0.015625)"/>
      <path id="DejaVuSerif-Bold-6f" d="M 2138 263 
Q 2488 263 2630 563 
Q 2772 863 2772 1663 
Q 2772 2463 2631 2761 
Q 2491 3059 2138 3059 
Q 1784 3059 1640 2757 
Q 1497 2456 1497 1663 
Q 1497 869 1640 566 
Q 1784 263 2138 263 
z
M 2138 -91 
Q 1259 -91 761 376 
Q 263 844 263 1663 
Q 263 2484 761 2948 
Q 1259 3413 2138 3413 
Q 3019 3413 3516 2948 
Q 4013 2484 4013 1663 
Q 4013 844 3514 376 
Q 3016 -91 2138 -91 
z
" transform="scale(0.015625)"/>
      <path id="DejaVuSerif-Bold-6d" d="M 3884 2778 
Q 4116 3109 4384 3261 
Q 4653 3413 5013 3413 
Q 5584 3413 5867 3089 
Q 6150 2766 6150 2113 
L 6150 378 
L 6625 378 
L 6625 0 
L 4647 0 
L 4647 378 
L 5044 378 
L 5044 1947 
Q 5044 2569 4948 2731 
Q 4853 2894 4594 2894 
Q 4300 2894 4137 2667 
Q 3975 2441 3975 2022 
L 3975 378 
L 4372 378 
L 4372 0 
L 2472 0 
L 2472 378 
L 2869 378 
L 2869 1947 
Q 2869 2569 2772 2731 
Q 2675 2894 2419 2894 
Q 2122 2894 1959 2667 
Q 1797 2441 1797 2022 
L 1797 378 
L 2194 378 
L 2194 0 
L 219 0 
L 219 378 
L 691 378 
L 691 2944 
L 219 2944 
L 219 3322 
L 1797 3322 
L 1797 2853 
Q 1991 3144 2241 3278 
Q 2491 3413 2834 3413 
Q 3241 3413 3494 3258 
Q 3747 3103 3884 2778 
z
" transform="scale(0.015625)"/>
      <path id="DejaVuSerif-Bold-70" d="M 1728 1825 
L 1728 1497 
Q 1728 916 1876 656 
Q 2025 397 2356 397 
Q 2697 397 2836 672 
Q 2975 947 2975 1663 
Q 2975 2378 2836 2651 
Q 2697 2925 2356 2925 
Q 2025 2925 1876 2665 
Q 1728 2406 1728 1825 
z
M 622 2944 
L 147 2944 
L 147 3322 
L 1728 3322 
L 1728 2900 
Q 1869 3159 2106 3286 
Q 2344 3413 2694 3413 
Q 3403 3413 3811 2945 
Q 4219 2478 4219 1663 
Q 4219 847 3811 378 
Q 3403 -91 2694 -91 
Q 2344 -91 2106 36 
Q 1869 163 1728 422 
L 1728 -953 
L 2241 -953 
L 2241 -1331 
L 147 -1331 
L 147 -953 
L 622 -953 
L 622 2944 
z
" transform="scale(0.015625)"/>
      <path id="DejaVuSerif-Bold-73" d="M 300 97 
L 300 1025 
L 653 1025 
Q 697 653 931 458 
Q 1166 263 1569 263 
Q 1906 263 2086 380 
Q 2266 497 2266 716 
Q 2266 916 2152 1025 
Q 2038 1134 1709 1216 
L 1253 1331 
Q 738 1459 506 1698 
Q 275 1938 275 2344 
Q 275 2884 650 3148 
Q 1025 3413 1806 3413 
Q 2100 3413 2433 3364 
Q 2766 3316 3169 3213 
L 3169 2375 
L 2816 2375 
Q 2788 2716 2573 2887 
Q 2359 3059 1959 3059 
Q 1622 3059 1448 2951 
Q 1275 2844 1275 2638 
Q 1275 2469 1375 2372 
Q 1475 2275 1734 2209 
L 2188 2094 
Q 2841 1928 3091 1684 
Q 3341 1441 3341 1006 
Q 3341 444 2939 176 
Q 2538 -91 1691 -91 
Q 1381 -91 1034 -44 
Q 688 3 300 97 
z
" transform="scale(0.015625)"/>
      <path id="DejaVuSerif-Bold-69" d="M 588 4263 
Q 588 4516 763 4689 
Q 938 4863 1191 4863 
Q 1438 4863 1611 4689 
Q 1784 4516 1784 4263 
Q 1784 4016 1611 3842 
Q 1438 3669 1191 3669 
Q 938 3669 763 3841 
Q 588 4013 588 4263 
z
M 1797 378 
L 2272 378 
L 2272 0 
L 219 0 
L 219 378 
L 691 378 
L 691 2944 
L 219 2944 
L 219 3322 
L 1797 3322 
L 1797 378 
z
" transform="scale(0.015625)"/>
     </defs>
     <use xlink:href="#DejaVuSerif-Bold-43" transform="translate(0 0.015625)"/>
     <use xlink:href="#DejaVuSerif-Bold-6f" transform="translate(79.589844 0.015625)"/>
     <use xlink:href="#DejaVuSerif-Bold-6d" transform="translate(146.289062 0.015625)"/>
     <use xlink:href="#DejaVuSerif-Bold-70" transform="translate(252.099609 0.015625)"/>
     <use xlink:href="#DejaVuSerif-Bold-6f" transform="translate(322.021484 0.015625)"/>
     <use xlink:href="#DejaVuSerif-Bold-73" transform="translate(388.720703 0.015625)"/>
     <use xlink:href="#DejaVuSerif-Bold-69" transform="translate(445.019531 0.015625)"/>
     <use xlink:href="#DejaVuSerif-Bold-74" transform="translate(483.007812 0.015625)"/>
     <use xlink:href="#DejaVuSerif-Bold-65" transform="translate(529.199219 0.015625)"/>
     <use xlink:href="#DejaVuSerif-Bold-3a" transform="translate(592.822266 0.015625)"/>
     <use xlink:href="#DejaVuSerif-Bold-20" transform="translate(629.736328 0.015625)"/>
     <use xlink:href="#Cmmi10-68" transform="translate(664.550781 0.015625)"/>
     <use xlink:href="#Cmr10-28" transform="translate(722.167969 0.015625)"/>
     <use xlink:href="#Cmmi10-78" transform="translate(760.986328 0.015625)"/>
     <use xlink:href="#Cmr10-29" transform="translate(818.066406 0.015625)"/>
     <use xlink:href="#Cmr10-3d" transform="translate(874.443359 0.015625)"/>
     <use xlink:href="#Cmmi10-66" transform="translate(969.6875 0.015625)"/>
     <use xlink:href="#Cmr10-28" transform="translate(1018.564453 0.015625)"/>
     <use xlink:href="#Cmmi10-67" transform="translate(1057.382812 0.015625)"/>
     <use xlink:href="#Cmr10-28" transform="translate(1105.087891 0.015625)"/>
     <use xlink:href="#Cmmi10-78" transform="translate(1143.90625 0.015625)"/>
     <use xlink:href="#Cmr10-29" transform="translate(1200.986328 0.015625)"/>
     <use xlink:href="#Cmr10-29" transform="translate(1239.804688 0.015625)"/>
    </g>
   </g>
   <g id="line2d_75">
    <g clip-path="url(#pfa7048871d)">
     <use xlink:href="#m255ae0ff41" x="846.14125" y="181.878906" style="fill: #ff0000; stroke: #ff0000"/>
    </g>
   </g>
   <g id="legend_3">
    <g id="line2d_76">
     <path d="M 873.1075 292.302031 
L 883.1075 292.302031 
L 893.1075 292.302031 
" style="fill: none; stroke: #bf00bf; stroke-width: 2.5; stroke-linecap: round"/>
    </g>
    <g id="text_50">
     <!-- $h(x) = \sqrt{x^2} = |x|$ -->
     <g style="fill: #262626" transform="translate(901.1075 295.802031) scale(0.1 -0.1)">
      <defs>
       <path id="Cmsy10-6a" d="M 763 -1484 
L 763 4684 
Q 763 4734 800 4767 
Q 838 4800 891 4800 
Q 938 4800 978 4767 
Q 1019 4734 1019 4684 
L 1019 -1484 
Q 1019 -1534 978 -1567 
Q 938 -1600 891 -1600 
Q 838 -1600 800 -1567 
Q 763 -1534 763 -1484 
z
" transform="scale(0.015625)"/>
      </defs>
      <use xlink:href="#Cmmi10-68" transform="translate(0 0.875)"/>
      <use xlink:href="#Cmr10-28" transform="translate(57.617188 0.875)"/>
      <use xlink:href="#Cmmi10-78" transform="translate(96.435547 0.875)"/>
      <use xlink:href="#Cmr10-29" transform="translate(153.515625 0.875)"/>
      <use xlink:href="#Cmr10-3d" transform="translate(209.892578 0.875)"/>
      <use xlink:href="#Cmex10-70" transform="translate(305.136719 113.09375) scale(0.977086)"/>
      <use xlink:href="#Cmmi10-78" transform="translate(415.339844 0.859375)"/>
      <use xlink:href="#Cmr10-32" transform="translate(478.723203 39.123437) scale(0.7)"/>
      <use xlink:href="#Cmr10-3d" transform="translate(550.159141 0.875)"/>
      <use xlink:href="#Cmsy10-6a" transform="translate(645.403281 0.875)"/>
      <use xlink:href="#Cmmi10-78" transform="translate(673.088828 0.875)"/>
      <use xlink:href="#Cmsy10-6a" transform="translate(730.168906 0.875)"/>
      <path d="M 402.839844 110.5 
L 402.839844 116.75 
L 532.600547 116.75 
L 532.600547 110.5 
L 402.839844 110.5 
z
"/>
     </g>
    </g>
   </g>
  </g>
 </g>
 <defs>
  <clipPath id="pc6bed71016">
   <rect x="35.335" y="25.1" width="279.5325" height="282.202031"/>
  </clipPath>
  <clipPath id="pe20cfc63f9">
   <rect x="370.855" y="25.1" width="279.5325" height="282.202031"/>
  </clipPath>
  <clipPath id="pfa7048871d">
   <rect x="706.375" y="25.1" width="279.5325" height="282.202031"/>
  </clipPath>
 </defs>
</svg>
