<?xml version="1.0" encoding="utf-8" standalone="no"?>
<!DOCTYPE svg PUBLIC "-//W3C//DTD SVG 1.1//EN"
  "http://www.w3.org/Graphics/SVG/1.1/DTD/svg11.dtd">
<svg xmlns:xlink="http://www.w3.org/1999/xlink" width="574.612187pt" height="326.041281pt" viewBox="0 0 574.612187 326.041281" xmlns="http://www.w3.org/2000/svg" version="1.1">
 <metadata>
  <rdf:RDF xmlns:dc="http://purl.org/dc/elements/1.1/" xmlns:cc="http://creativecommons.org/ns#" xmlns:rdf="http://www.w3.org/1999/02/22-rdf-syntax-ns#">
   <cc:Work>
    <dc:type rdf:resource="http://purl.org/dc/dcmitype/StillImage"/>
    <dc:date>2026-03-15T19:17:04.685661</dc:date>
    <dc:format>image/svg+xml</dc:format>
    <dc:creator>
     <cc:Agent>
      <dc:title>Matplotlib v3.10.8, https://matplotlib.org/</dc:title>
     </cc:Agent>
    </dc:creator>
   </cc:Work>
  </rdf:RDF>
 </metadata>
 <defs>
  <style type="text/css">*{stroke-linejoin: round; stroke-linecap: butt}</style>
 </defs>
 <g id="figure_1">
  <g id="patch_1">
   <path d="M 0 326.041281 
L 574.612187 326.041281 
L 574.612187 0 
L 0 0 
z
" style="fill: #ffffff"/>
  </g>
  <g id="axes_1">
   <g id="patch_2">
    <path d="M 48.472187 283.645969 
L 567.412187 283.645969 
L 567.412187 23.077969 
L 48.472187 23.077969 
z
" style="fill: #ffffff"/>
   </g>
   <g id="matplotlib.axis_1">
    <g id="xtick_1">
     <g id="line2d_1">
      <path d="M 119.236733 283.645969 
L 119.236733 23.077969 
" clip-path="url(#peb9a95ccdd)" style="fill: none; stroke: #cccccc; stroke-width: 0.8; stroke-linecap: square"/>
     </g>
     <g id="line2d_2">
      <defs>
       <path id="mf1b6530b36" d="M 0 0 
L 0 3.5 
" style="stroke: #262626; stroke-width: 0.8"/>
      </defs>
      <g>
       <use xlink:href="#mf1b6530b36" x="119.236733" y="283.645969" style="fill: #262626; stroke: #262626; stroke-width: 0.8"/>
      </g>
     </g>
     <g id="text_1">
      <!-- 0 -->
      <g style="fill: #262626" transform="translate(115.419233 299.764094) scale(0.12 -0.12)">
       <defs>
        <path id="DejaVuSans-30" d="M 2034 4250 
Q 1547 4250 1301 3770 
Q 1056 3291 1056 2328 
Q 1056 1369 1301 889 
Q 1547 409 2034 409 
Q 2525 409 2770 889 
Q 3016 1369 3016 2328 
Q 3016 3291 2770 3770 
Q 2525 4250 2034 4250 
z
M 2034 4750 
Q 2819 4750 3233 4129 
Q 3647 3509 3647 2328 
Q 3647 1150 3233 529 
Q 2819 -91 2034 -91 
Q 1250 -91 836 529 
Q 422 1150 422 2328 
Q 422 3509 836 4129 
Q 1250 4750 2034 4750 
z
" transform="scale(0.015625)"/>
       </defs>
       <use xlink:href="#DejaVuSans-30"/>
      </g>
     </g>
    </g>
    <g id="xtick_2">
     <g id="line2d_3">
      <path d="M 213.58946 283.645969 
L 213.58946 23.077969 
" clip-path="url(#peb9a95ccdd)" style="fill: none; stroke: #cccccc; stroke-width: 0.8; stroke-linecap: square"/>
     </g>
     <g id="line2d_4">
      <g>
       <use xlink:href="#mf1b6530b36" x="213.58946" y="283.645969" style="fill: #262626; stroke: #262626; stroke-width: 0.8"/>
      </g>
     </g>
     <g id="text_2">
      <!-- 1 -->
      <g style="fill: #262626" transform="translate(209.77196 299.764094) scale(0.12 -0.12)">
       <defs>
        <path id="DejaVuSans-31" d="M 794 531 
L 1825 531 
L 1825 4091 
L 703 3866 
L 703 4441 
L 1819 4666 
L 2450 4666 
L 2450 531 
L 3481 531 
L 3481 0 
L 794 0 
L 794 531 
z
" transform="scale(0.015625)"/>
       </defs>
       <use xlink:href="#DejaVuSans-31"/>
      </g>
     </g>
    </g>
    <g id="xtick_3">
     <g id="line2d_5">
      <path d="M 307.942187 283.645969 
L 307.942187 23.077969 
" clip-path="url(#peb9a95ccdd)" style="fill: none; stroke: #cccccc; stroke-width: 0.8; stroke-linecap: square"/>
     </g>
     <g id="line2d_6">
      <g>
       <use xlink:href="#mf1b6530b36" x="307.942187" y="283.645969" style="fill: #262626; stroke: #262626; stroke-width: 0.8"/>
      </g>
     </g>
     <g id="text_3">
      <!-- 2 -->
      <g style="fill: #262626" transform="translate(304.124687 299.764094) scale(0.12 -0.12)">
       <defs>
        <path id="DejaVuSans-32" d="M 1228 531 
L 3431 531 
L 3431 0 
L 469 0 
L 469 531 
Q 828 903 1448 1529 
Q 2069 2156 2228 2338 
Q 2531 2678 2651 2914 
Q 2772 3150 2772 3378 
Q 2772 3750 2511 3984 
Q 2250 4219 1831 4219 
Q 1534 4219 1204 4116 
Q 875 4013 500 3803 
L 500 4441 
Q 881 4594 1212 4672 
Q 1544 4750 1819 4750 
Q 2544 4750 2975 4387 
Q 3406 4025 3406 3419 
Q 3406 3131 3298 2873 
Q 3191 2616 2906 2266 
Q 2828 2175 2409 1742 
Q 1991 1309 1228 531 
z
" transform="scale(0.015625)"/>
       </defs>
       <use xlink:href="#DejaVuSans-32"/>
      </g>
     </g>
    </g>
    <g id="xtick_4">
     <g id="line2d_7">
      <path d="M 402.294915 283.645969 
L 402.294915 23.077969 
" clip-path="url(#peb9a95ccdd)" style="fill: none; stroke: #cccccc; stroke-width: 0.8; stroke-linecap: square"/>
     </g>
     <g id="line2d_8">
      <g>
       <use xlink:href="#mf1b6530b36" x="402.294915" y="283.645969" style="fill: #262626; stroke: #262626; stroke-width: 0.8"/>
      </g>
     </g>
     <g id="text_4">
      <!-- 3 -->
      <g style="fill: #262626" transform="translate(398.477415 299.764094) scale(0.12 -0.12)">
       <defs>
        <path id="DejaVuSans-33" d="M 2597 2516 
Q 3050 2419 3304 2112 
Q 3559 1806 3559 1356 
Q 3559 666 3084 287 
Q 2609 -91 1734 -91 
Q 1441 -91 1130 -33 
Q 819 25 488 141 
L 488 750 
Q 750 597 1062 519 
Q 1375 441 1716 441 
Q 2309 441 2620 675 
Q 2931 909 2931 1356 
Q 2931 1769 2642 2001 
Q 2353 2234 1838 2234 
L 1294 2234 
L 1294 2753 
L 1863 2753 
Q 2328 2753 2575 2939 
Q 2822 3125 2822 3475 
Q 2822 3834 2567 4026 
Q 2313 4219 1838 4219 
Q 1578 4219 1281 4162 
Q 984 4106 628 3988 
L 628 4550 
Q 988 4650 1302 4700 
Q 1616 4750 1894 4750 
Q 2613 4750 3031 4423 
Q 3450 4097 3450 3541 
Q 3450 3153 3228 2886 
Q 3006 2619 2597 2516 
z
" transform="scale(0.015625)"/>
       </defs>
       <use xlink:href="#DejaVuSans-33"/>
      </g>
     </g>
    </g>
    <g id="xtick_5">
     <g id="line2d_9">
      <path d="M 496.647642 283.645969 
L 496.647642 23.077969 
" clip-path="url(#peb9a95ccdd)" style="fill: none; stroke: #cccccc; stroke-width: 0.8; stroke-linecap: square"/>
     </g>
     <g id="line2d_10">
      <g>
       <use xlink:href="#mf1b6530b36" x="496.647642" y="283.645969" style="fill: #262626; stroke: #262626; stroke-width: 0.8"/>
      </g>
     </g>
     <g id="text_5">
      <!-- 4 -->
      <g style="fill: #262626" transform="translate(492.830142 299.764094) scale(0.12 -0.12)">
       <defs>
        <path id="DejaVuSans-34" d="M 2419 4116 
L 825 1625 
L 2419 1625 
L 2419 4116 
z
M 2253 4666 
L 3047 4666 
L 3047 1625 
L 3713 1625 
L 3713 1100 
L 3047 1100 
L 3047 0 
L 2419 0 
L 2419 1100 
L 313 1100 
L 313 1709 
L 2253 4666 
z
" transform="scale(0.015625)"/>
       </defs>
       <use xlink:href="#DejaVuSans-34"/>
      </g>
     </g>
    </g>
    <g id="text_6">
     <!-- $x$ -->
     <g style="fill: #262626" transform="translate(304.042188 316.137687) scale(0.13 -0.13)">
      <defs>
       <path id="DejaVuSans-Oblique-78" d="M 3841 3500 
L 2234 1784 
L 3219 0 
L 2559 0 
L 1819 1388 
L 531 0 
L -166 0 
L 1556 1844 
L 641 3500 
L 1300 3500 
L 1972 2234 
L 3144 3500 
L 3841 3500 
z
" transform="scale(0.015625)"/>
      </defs>
      <use xlink:href="#DejaVuSans-Oblique-78" transform="translate(0 0.3125)"/>
     </g>
    </g>
   </g>
   <g id="matplotlib.axis_2">
    <g id="ytick_1">
     <g id="line2d_11">
      <path d="M 48.472187 268.318439 
L 567.412187 268.318439 
" clip-path="url(#peb9a95ccdd)" style="fill: none; stroke: #cccccc; stroke-width: 0.8; stroke-linecap: square"/>
     </g>
     <g id="line2d_12">
      <defs>
       <path id="m3aa332dfa1" d="M 0 0 
L -3.5 0 
" style="stroke: #262626; stroke-width: 0.8"/>
      </defs>
      <g>
       <use xlink:href="#m3aa332dfa1" x="48.472187" y="268.318439" style="fill: #262626; stroke: #262626; stroke-width: 0.8"/>
      </g>
     </g>
     <g id="text_7">
      <!-- −4 -->
      <g style="fill: #262626" transform="translate(23.781562 272.877502) scale(0.12 -0.12)">
       <defs>
        <path id="DejaVuSans-2212" d="M 678 2272 
L 4684 2272 
L 4684 1741 
L 678 1741 
L 678 2272 
z
" transform="scale(0.015625)"/>
       </defs>
       <use xlink:href="#DejaVuSans-2212"/>
       <use xlink:href="#DejaVuSans-34" transform="translate(83.789062 0)"/>
      </g>
     </g>
    </g>
    <g id="ytick_2">
     <g id="line2d_13">
      <path d="M 48.472187 237.663381 
L 567.412187 237.663381 
" clip-path="url(#peb9a95ccdd)" style="fill: none; stroke: #cccccc; stroke-width: 0.8; stroke-linecap: square"/>
     </g>
     <g id="line2d_14">
      <g>
       <use xlink:href="#m3aa332dfa1" x="48.472187" y="237.663381" style="fill: #262626; stroke: #262626; stroke-width: 0.8"/>
      </g>
     </g>
     <g id="text_8">
      <!-- −2 -->
      <g style="fill: #262626" transform="translate(23.781562 242.222443) scale(0.12 -0.12)">
       <use xlink:href="#DejaVuSans-2212"/>
       <use xlink:href="#DejaVuSans-32" transform="translate(83.789062 0)"/>
      </g>
     </g>
    </g>
    <g id="ytick_3">
     <g id="line2d_15">
      <path d="M 48.472187 207.008322 
L 567.412187 207.008322 
" clip-path="url(#peb9a95ccdd)" style="fill: none; stroke: #cccccc; stroke-width: 0.8; stroke-linecap: square"/>
     </g>
     <g id="line2d_16">
      <g>
       <use xlink:href="#m3aa332dfa1" x="48.472187" y="207.008322" style="fill: #262626; stroke: #262626; stroke-width: 0.8"/>
      </g>
     </g>
     <g id="text_9">
      <!-- 0 -->
      <g style="fill: #262626" transform="translate(33.837187 211.567384) scale(0.12 -0.12)">
       <use xlink:href="#DejaVuSans-30"/>
      </g>
     </g>
    </g>
    <g id="ytick_4">
     <g id="line2d_17">
      <path d="M 48.472187 176.353263 
L 567.412187 176.353263 
" clip-path="url(#peb9a95ccdd)" style="fill: none; stroke: #cccccc; stroke-width: 0.8; stroke-linecap: square"/>
     </g>
     <g id="line2d_18">
      <g>
       <use xlink:href="#m3aa332dfa1" x="48.472187" y="176.353263" style="fill: #262626; stroke: #262626; stroke-width: 0.8"/>
      </g>
     </g>
     <g id="text_10">
      <!-- 2 -->
      <g style="fill: #262626" transform="translate(33.837187 180.912325) scale(0.12 -0.12)">
       <use xlink:href="#DejaVuSans-32"/>
      </g>
     </g>
    </g>
    <g id="ytick_5">
     <g id="line2d_19">
      <path d="M 48.472187 145.698204 
L 567.412187 145.698204 
" clip-path="url(#peb9a95ccdd)" style="fill: none; stroke: #cccccc; stroke-width: 0.8; stroke-linecap: square"/>
     </g>
     <g id="line2d_20">
      <g>
       <use xlink:href="#m3aa332dfa1" x="48.472187" y="145.698204" style="fill: #262626; stroke: #262626; stroke-width: 0.8"/>
      </g>
     </g>
     <g id="text_11">
      <!-- 4 -->
      <g style="fill: #262626" transform="translate(33.837187 150.257267) scale(0.12 -0.12)">
       <use xlink:href="#DejaVuSans-34"/>
      </g>
     </g>
    </g>
    <g id="ytick_6">
     <g id="line2d_21">
      <path d="M 48.472187 115.043145 
L 567.412187 115.043145 
" clip-path="url(#peb9a95ccdd)" style="fill: none; stroke: #cccccc; stroke-width: 0.8; stroke-linecap: square"/>
     </g>
     <g id="line2d_22">
      <g>
       <use xlink:href="#m3aa332dfa1" x="48.472187" y="115.043145" style="fill: #262626; stroke: #262626; stroke-width: 0.8"/>
      </g>
     </g>
     <g id="text_12">
      <!-- 6 -->
      <g style="fill: #262626" transform="translate(33.837187 119.602208) scale(0.12 -0.12)">
       <defs>
        <path id="DejaVuSans-36" d="M 2113 2584 
Q 1688 2584 1439 2293 
Q 1191 2003 1191 1497 
Q 1191 994 1439 701 
Q 1688 409 2113 409 
Q 2538 409 2786 701 
Q 3034 994 3034 1497 
Q 3034 2003 2786 2293 
Q 2538 2584 2113 2584 
z
M 3366 4563 
L 3366 3988 
Q 3128 4100 2886 4159 
Q 2644 4219 2406 4219 
Q 1781 4219 1451 3797 
Q 1122 3375 1075 2522 
Q 1259 2794 1537 2939 
Q 1816 3084 2150 3084 
Q 2853 3084 3261 2657 
Q 3669 2231 3669 1497 
Q 3669 778 3244 343 
Q 2819 -91 2113 -91 
Q 1303 -91 875 529 
Q 447 1150 447 2328 
Q 447 3434 972 4092 
Q 1497 4750 2381 4750 
Q 2619 4750 2861 4703 
Q 3103 4656 3366 4563 
z
" transform="scale(0.015625)"/>
       </defs>
       <use xlink:href="#DejaVuSans-36"/>
      </g>
     </g>
    </g>
    <g id="ytick_7">
     <g id="line2d_23">
      <path d="M 48.472187 84.388086 
L 567.412187 84.388086 
" clip-path="url(#peb9a95ccdd)" style="fill: none; stroke: #cccccc; stroke-width: 0.8; stroke-linecap: square"/>
     </g>
     <g id="line2d_24">
      <g>
       <use xlink:href="#m3aa332dfa1" x="48.472187" y="84.388086" style="fill: #262626; stroke: #262626; stroke-width: 0.8"/>
      </g>
     </g>
     <g id="text_13">
      <!-- 8 -->
      <g style="fill: #262626" transform="translate(33.837187 88.947149) scale(0.12 -0.12)">
       <defs>
        <path id="DejaVuSans-38" d="M 2034 2216 
Q 1584 2216 1326 1975 
Q 1069 1734 1069 1313 
Q 1069 891 1326 650 
Q 1584 409 2034 409 
Q 2484 409 2743 651 
Q 3003 894 3003 1313 
Q 3003 1734 2745 1975 
Q 2488 2216 2034 2216 
z
M 1403 2484 
Q 997 2584 770 2862 
Q 544 3141 544 3541 
Q 544 4100 942 4425 
Q 1341 4750 2034 4750 
Q 2731 4750 3128 4425 
Q 3525 4100 3525 3541 
Q 3525 3141 3298 2862 
Q 3072 2584 2669 2484 
Q 3125 2378 3379 2068 
Q 3634 1759 3634 1313 
Q 3634 634 3220 271 
Q 2806 -91 2034 -91 
Q 1263 -91 848 271 
Q 434 634 434 1313 
Q 434 1759 690 2068 
Q 947 2378 1403 2484 
z
M 1172 3481 
Q 1172 3119 1398 2916 
Q 1625 2713 2034 2713 
Q 2441 2713 2670 2916 
Q 2900 3119 2900 3481 
Q 2900 3844 2670 4047 
Q 2441 4250 2034 4250 
Q 1625 4250 1398 4047 
Q 1172 3844 1172 3481 
z
" transform="scale(0.015625)"/>
       </defs>
       <use xlink:href="#DejaVuSans-38"/>
      </g>
     </g>
    </g>
    <g id="ytick_8">
     <g id="line2d_25">
      <path d="M 48.472187 53.733028 
L 567.412187 53.733028 
" clip-path="url(#peb9a95ccdd)" style="fill: none; stroke: #cccccc; stroke-width: 0.8; stroke-linecap: square"/>
     </g>
     <g id="line2d_26">
      <g>
       <use xlink:href="#m3aa332dfa1" x="48.472187" y="53.733028" style="fill: #262626; stroke: #262626; stroke-width: 0.8"/>
      </g>
     </g>
     <g id="text_14">
      <!-- 10 -->
      <g style="fill: #262626" transform="translate(26.202187 58.29209) scale(0.12 -0.12)">
       <use xlink:href="#DejaVuSans-31"/>
       <use xlink:href="#DejaVuSans-30" transform="translate(63.623047 0)"/>
      </g>
     </g>
    </g>
    <g id="ytick_9">
     <g id="line2d_27">
      <path d="M 48.472187 23.077969 
L 567.412187 23.077969 
" clip-path="url(#peb9a95ccdd)" style="fill: none; stroke: #cccccc; stroke-width: 0.8; stroke-linecap: square"/>
     </g>
     <g id="line2d_28">
      <g>
       <use xlink:href="#m3aa332dfa1" x="48.472187" y="23.077969" style="fill: #262626; stroke: #262626; stroke-width: 0.8"/>
      </g>
     </g>
     <g id="text_15">
      <!-- 12 -->
      <g style="fill: #262626" transform="translate(26.202187 27.637031) scale(0.12 -0.12)">
       <use xlink:href="#DejaVuSans-31"/>
       <use xlink:href="#DejaVuSans-32" transform="translate(63.623047 0)"/>
      </g>
     </g>
    </g>
    <g id="text_16">
     <!-- $y$ -->
     <g style="fill: #262626" transform="translate(17.051562 157.261969) rotate(-90) scale(0.13 -0.13)">
      <defs>
       <path id="DejaVuSans-Oblique-79" d="M 1588 -325 
Q 1188 -997 936 -1164 
Q 684 -1331 294 -1331 
L -159 -1331 
L -63 -850 
L 269 -850 
Q 509 -850 678 -719 
Q 847 -588 1056 -206 
L 1234 128 
L 459 3500 
L 1069 3500 
L 1650 819 
L 3256 3500 
L 3859 3500 
L 1588 -325 
z
" transform="scale(0.015625)"/>
      </defs>
      <use xlink:href="#DejaVuSans-Oblique-79" transform="translate(0 0.3125)"/>
     </g>
    </g>
   </g>
   <g id="line2d_29">
    <path d="M 72.060369 285.56191 
L 76.789829 273.748132 
L 81.519289 262.500439 
L 86.248749 251.807248 
L 90.978209 241.656978 
L 95.707669 232.038045 
L 100.437129 222.938868 
L 105.166589 214.347864 
L 109.896049 206.253451 
L 114.625509 198.644047 
L 119.354969 191.50807 
L 124.084429 184.833936 
L 128.813889 178.610065 
L 133.543349 172.824872 
L 138.27281 167.466777 
L 143.00227 162.524197 
L 147.73173 157.98555 
L 152.46119 153.839253 
L 157.19065 150.073724 
L 161.92011 146.67738 
L 166.64957 143.63864 
L 171.37903 140.945921 
L 176.10849 138.587641 
L 180.83795 136.552218 
L 185.56741 134.828069 
L 190.29687 133.403611 
L 195.02633 132.267264 
L 199.75579 131.407443 
L 204.48525 130.812568 
L 209.21471 130.471056 
L 213.94417 130.371324 
L 218.67363 130.50179 
L 223.40309 130.850872 
L 228.13255 131.406987 
L 232.86201 132.158554 
L 238.773835 133.355221 
L 244.68566 134.816562 
L 250.597485 136.519954 
L 256.50931 138.442777 
L 263.6035 141.007961 
L 270.69769 143.817459 
L 278.974245 147.351842 
L 288.433165 151.653548 
L 300.256815 157.288568 
L 329.81594 171.494881 
L 339.27486 175.734333 
L 347.551415 179.195241 
L 354.645605 181.927644 
L 361.739795 184.402703 
L 367.65162 186.240468 
L 373.563445 187.849754 
L 379.47527 189.20794 
L 385.387095 190.292404 
L 390.116555 190.947693 
L 394.846015 191.401739 
L 399.575475 191.642961 
L 404.304935 191.659776 
L 409.034395 191.440601 
L 413.763855 190.973855 
L 418.493315 190.247955 
L 423.222775 189.251319 
L 427.952235 187.972365 
L 432.681695 186.399509 
L 437.411155 184.52117 
L 442.140615 182.325767 
L 445.68771 180.464172 
L 449.234805 178.412827 
L 452.7819 176.166845 
L 456.328995 173.721339 
L 459.87609 171.071425 
L 463.423185 168.212214 
L 468.152645 164.065917 
L 472.882105 159.52727 
L 477.611565 154.58469 
L 482.341026 149.226595 
L 487.070486 143.441402 
L 491.799946 137.217531 
L 496.529406 130.543397 
L 501.258866 123.407419 
L 505.988326 115.798015 
L 510.717786 107.703603 
L 515.447246 99.112599 
L 520.176706 90.013422 
L 524.906166 80.394489 
L 529.635626 70.244219 
L 534.365086 59.551028 
L 539.094546 48.303335 
L 543.824006 36.489557 
L 543.824006 36.489557 
" clip-path="url(#peb9a95ccdd)" style="fill: none; stroke: #0000ff; stroke-width: 2.5; stroke-linecap: square"/>
   </g>
   <g id="line2d_30">
    <path d="M 48.472187 207.008322 
L 567.412187 207.008322 
" clip-path="url(#peb9a95ccdd)" style="fill: none; stroke: #999999; stroke-width: 0.5; stroke-linecap: square"/>
   </g>
   <g id="patch_3">
    <path d="M 48.472187 283.645969 
L 48.472187 23.077969 
" style="fill: none; stroke: #333333; stroke-width: 0.8; stroke-linejoin: miter; stroke-linecap: square"/>
   </g>
   <g id="patch_4">
    <path d="M 567.412187 283.645969 
L 567.412187 23.077969 
" style="fill: none; stroke: #333333; stroke-width: 0.8; stroke-linejoin: miter; stroke-linecap: square"/>
   </g>
   <g id="patch_5">
    <path d="M 48.472187 283.645969 
L 567.412187 283.645969 
" style="fill: none; stroke: #333333; stroke-width: 0.8; stroke-linejoin: miter; stroke-linecap: square"/>
   </g>
   <g id="patch_6">
    <path d="M 48.472187 23.077969 
L 567.412187 23.077969 
" style="fill: none; stroke: #333333; stroke-width: 0.8; stroke-linejoin: miter; stroke-linecap: square"/>
   </g>
   <g id="patch_7">
    <path d="M 201.940044 122.105684 
Q 206.949919 125.660074 210.774387 128.373445 
" style="fill: none; stroke: #333333; stroke-width: 1.3; stroke-linecap: round"/>
    <path d="M 208.669326 124.427724 
L 210.774387 128.373445 
L 206.354773 127.690061 
" style="fill: none; stroke: #333333; stroke-width: 1.3; stroke-linecap: round"/>
   </g>
   <g id="text_17">
    <g id="patch_8">
     <path d="M 133.58946 120.450362 
L 211.959773 120.450362 
Q 214.959773 120.450362 214.959773 117.450362 
L 214.959773 85.376612 
Q 214.959773 82.376612 211.959773 82.376612 
L 133.58946 82.376612 
Q 130.58946 82.376612 130.58946 85.376612 
L 130.58946 117.450362 
Q 130.58946 120.450362 133.58946 120.450362 
z
" style="fill: #fff3f3; stroke: #d62728; stroke-linejoin: miter"/>
    </g>
    <!-- Local Maximum -->
    <g style="fill: #262626" transform="translate(133.58946 92.97505) scale(0.1 -0.1)">
     <defs>
      <path id="DejaVuSans-4c" d="M 628 4666 
L 1259 4666 
L 1259 531 
L 3531 531 
L 3531 0 
L 628 0 
L 628 4666 
z
" transform="scale(0.015625)"/>
      <path id="DejaVuSans-6f" d="M 1959 3097 
Q 1497 3097 1228 2736 
Q 959 2375 959 1747 
Q 959 1119 1226 758 
Q 1494 397 1959 397 
Q 2419 397 2687 759 
Q 2956 1122 2956 1747 
Q 2956 2369 2687 2733 
Q 2419 3097 1959 3097 
z
M 1959 3584 
Q 2709 3584 3137 3096 
Q 3566 2609 3566 1747 
Q 3566 888 3137 398 
Q 2709 -91 1959 -91 
Q 1206 -91 779 398 
Q 353 888 353 1747 
Q 353 2609 779 3096 
Q 1206 3584 1959 3584 
z
" transform="scale(0.015625)"/>
      <path id="DejaVuSans-63" d="M 3122 3366 
L 3122 2828 
Q 2878 2963 2633 3030 
Q 2388 3097 2138 3097 
Q 1578 3097 1268 2742 
Q 959 2388 959 1747 
Q 959 1106 1268 751 
Q 1578 397 2138 397 
Q 2388 397 2633 464 
Q 2878 531 3122 666 
L 3122 134 
Q 2881 22 2623 -34 
Q 2366 -91 2075 -91 
Q 1284 -91 818 406 
Q 353 903 353 1747 
Q 353 2603 823 3093 
Q 1294 3584 2113 3584 
Q 2378 3584 2631 3529 
Q 2884 3475 3122 3366 
z
" transform="scale(0.015625)"/>
      <path id="DejaVuSans-61" d="M 2194 1759 
Q 1497 1759 1228 1600 
Q 959 1441 959 1056 
Q 959 750 1161 570 
Q 1363 391 1709 391 
Q 2188 391 2477 730 
Q 2766 1069 2766 1631 
L 2766 1759 
L 2194 1759 
z
M 3341 1997 
L 3341 0 
L 2766 0 
L 2766 531 
Q 2569 213 2275 61 
Q 1981 -91 1556 -91 
Q 1019 -91 701 211 
Q 384 513 384 1019 
Q 384 1609 779 1909 
Q 1175 2209 1959 2209 
L 2766 2209 
L 2766 2266 
Q 2766 2663 2505 2880 
Q 2244 3097 1772 3097 
Q 1472 3097 1187 3025 
Q 903 2953 641 2809 
L 641 3341 
Q 956 3463 1253 3523 
Q 1550 3584 1831 3584 
Q 2591 3584 2966 3190 
Q 3341 2797 3341 1997 
z
" transform="scale(0.015625)"/>
      <path id="DejaVuSans-6c" d="M 603 4863 
L 1178 4863 
L 1178 0 
L 603 0 
L 603 4863 
z
" transform="scale(0.015625)"/>
      <path id="DejaVuSans-20" transform="scale(0.015625)"/>
      <path id="DejaVuSans-4d" d="M 628 4666 
L 1569 4666 
L 2759 1491 
L 3956 4666 
L 4897 4666 
L 4897 0 
L 4281 0 
L 4281 4097 
L 3078 897 
L 2444 897 
L 1241 4097 
L 1241 0 
L 628 0 
L 628 4666 
z
" transform="scale(0.015625)"/>
      <path id="DejaVuSans-78" d="M 3513 3500 
L 2247 1797 
L 3578 0 
L 2900 0 
L 1881 1375 
L 863 0 
L 184 0 
L 1544 1831 
L 300 3500 
L 978 3500 
L 1906 2253 
L 2834 3500 
L 3513 3500 
z
" transform="scale(0.015625)"/>
      <path id="DejaVuSans-69" d="M 603 3500 
L 1178 3500 
L 1178 0 
L 603 0 
L 603 3500 
z
M 603 4863 
L 1178 4863 
L 1178 4134 
L 603 4134 
L 603 4863 
z
" transform="scale(0.015625)"/>
      <path id="DejaVuSans-6d" d="M 3328 2828 
Q 3544 3216 3844 3400 
Q 4144 3584 4550 3584 
Q 5097 3584 5394 3201 
Q 5691 2819 5691 2113 
L 5691 0 
L 5113 0 
L 5113 2094 
Q 5113 2597 4934 2840 
Q 4756 3084 4391 3084 
Q 3944 3084 3684 2787 
Q 3425 2491 3425 1978 
L 3425 0 
L 2847 0 
L 2847 2094 
Q 2847 2600 2669 2842 
Q 2491 3084 2119 3084 
Q 1678 3084 1418 2786 
Q 1159 2488 1159 1978 
L 1159 0 
L 581 0 
L 581 3500 
L 1159 3500 
L 1159 2956 
Q 1356 3278 1631 3431 
Q 1906 3584 2284 3584 
Q 2666 3584 2933 3390 
Q 3200 3197 3328 2828 
z
" transform="scale(0.015625)"/>
      <path id="DejaVuSans-75" d="M 544 1381 
L 544 3500 
L 1119 3500 
L 1119 1403 
Q 1119 906 1312 657 
Q 1506 409 1894 409 
Q 2359 409 2629 706 
Q 2900 1003 2900 1516 
L 2900 3500 
L 3475 3500 
L 3475 0 
L 2900 0 
L 2900 538 
Q 2691 219 2414 64 
Q 2138 -91 1772 -91 
Q 1169 -91 856 284 
Q 544 659 544 1381 
z
M 1991 3584 
L 1991 3584 
z
" transform="scale(0.015625)"/>
     </defs>
     <use xlink:href="#DejaVuSans-4c"/>
     <use xlink:href="#DejaVuSans-6f" transform="translate(53.962891 0)"/>
     <use xlink:href="#DejaVuSans-63" transform="translate(115.144531 0)"/>
     <use xlink:href="#DejaVuSans-61" transform="translate(170.125 0)"/>
     <use xlink:href="#DejaVuSans-6c" transform="translate(231.404297 0)"/>
     <use xlink:href="#DejaVuSans-20" transform="translate(259.1875 0)"/>
     <use xlink:href="#DejaVuSans-4d" transform="translate(290.974609 0)"/>
     <use xlink:href="#DejaVuSans-61" transform="translate(377.253906 0)"/>
     <use xlink:href="#DejaVuSans-78" transform="translate(438.533203 0)"/>
     <use xlink:href="#DejaVuSans-69" transform="translate(497.712891 0)"/>
     <use xlink:href="#DejaVuSans-6d" transform="translate(525.496094 0)"/>
     <use xlink:href="#DejaVuSans-75" transform="translate(622.908203 0)"/>
     <use xlink:href="#DejaVuSans-6d" transform="translate(686.287109 0)"/>
    </g>
    <!-- $(1,\, 5)$ -->
    <g style="fill: #262626" transform="translate(133.58946 104.172862) scale(0.1 -0.1)">
     <defs>
      <path id="DejaVuSans-28" d="M 1984 4856 
Q 1566 4138 1362 3434 
Q 1159 2731 1159 2009 
Q 1159 1288 1364 580 
Q 1569 -128 1984 -844 
L 1484 -844 
Q 1016 -109 783 600 
Q 550 1309 550 2009 
Q 550 2706 781 3412 
Q 1013 4119 1484 4856 
L 1984 4856 
z
" transform="scale(0.015625)"/>
      <path id="DejaVuSans-2c" d="M 750 794 
L 1409 794 
L 1409 256 
L 897 -744 
L 494 -744 
L 750 256 
L 750 794 
z
" transform="scale(0.015625)"/>
      <path id="DejaVuSans-35" d="M 691 4666 
L 3169 4666 
L 3169 4134 
L 1269 4134 
L 1269 2991 
Q 1406 3038 1543 3061 
Q 1681 3084 1819 3084 
Q 2600 3084 3056 2656 
Q 3513 2228 3513 1497 
Q 3513 744 3044 326 
Q 2575 -91 1722 -91 
Q 1428 -91 1123 -41 
Q 819 9 494 109 
L 494 744 
Q 775 591 1075 516 
Q 1375 441 1709 441 
Q 2250 441 2565 725 
Q 2881 1009 2881 1497 
Q 2881 1984 2565 2268 
Q 2250 2553 1709 2553 
Q 1456 2553 1204 2497 
Q 953 2441 691 2322 
L 691 4666 
z
" transform="scale(0.015625)"/>
      <path id="DejaVuSans-29" d="M 513 4856 
L 1013 4856 
Q 1481 4119 1714 3412 
Q 1947 2706 1947 2009 
Q 1947 1309 1714 600 
Q 1481 -109 1013 -844 
L 513 -844 
Q 928 -128 1133 580 
Q 1338 1288 1338 2009 
Q 1338 2731 1133 3434 
Q 928 4138 513 4856 
z
" transform="scale(0.015625)"/>
     </defs>
     <use xlink:href="#DejaVuSans-28" transform="translate(0 0.125)"/>
     <use xlink:href="#DejaVuSans-31" transform="translate(39.013672 0.125)"/>
     <use xlink:href="#DejaVuSans-2c" transform="translate(102.636719 0.125)"/>
     <use xlink:href="#DejaVuSans-35" transform="translate(170.141926 0.125)"/>
     <use xlink:href="#DejaVuSans-29" transform="translate(233.764973 0.125)"/>
    </g>
    <!-- $f'(1) = 0$ -->
    <g style="fill: #262626" transform="translate(133.58946 115.370675) scale(0.1 -0.1)">
     <defs>
      <path id="DejaVuSans-Oblique-66" d="M 3059 4863 
L 2969 4384 
L 2419 4384 
Q 2106 4384 1964 4261 
Q 1822 4138 1753 3809 
L 1691 3500 
L 2638 3500 
L 2553 3053 
L 1606 3053 
L 1013 0 
L 434 0 
L 1031 3053 
L 481 3053 
L 563 3500 
L 1113 3500 
L 1159 3744 
Q 1278 4363 1576 4613 
Q 1875 4863 2516 4863 
L 3059 4863 
z
" transform="scale(0.015625)"/>
      <path id="Cmsy10-30" d="M 225 347 
Q 184 359 184 409 
L 966 3316 
Q 1003 3434 1093 3506 
Q 1184 3578 1300 3578 
Q 1450 3578 1564 3479 
Q 1678 3381 1678 3231 
Q 1678 3166 1644 3084 
L 488 319 
Q 466 275 428 275 
Q 394 275 320 306 
Q 247 338 225 347 
z
" transform="scale(0.015625)"/>
      <path id="DejaVuSans-3d" d="M 678 2906 
L 4684 2906 
L 4684 2381 
L 678 2381 
L 678 2906 
z
M 678 1631 
L 4684 1631 
L 4684 1100 
L 678 1100 
L 678 1631 
z
" transform="scale(0.015625)"/>
     </defs>
     <use xlink:href="#DejaVuSans-Oblique-66" transform="translate(0 0.584375)"/>
     <use xlink:href="#Cmsy10-30" transform="translate(42.652786 38.865625) scale(0.7)"/>
     <use xlink:href="#DejaVuSans-28" transform="translate(64.630326 0.584375)"/>
     <use xlink:href="#DejaVuSans-31" transform="translate(103.643997 0.584375)"/>
     <use xlink:href="#DejaVuSans-29" transform="translate(167.267044 0.584375)"/>
     <use xlink:href="#DejaVuSans-3d" transform="translate(225.763138 0.584375)"/>
     <use xlink:href="#DejaVuSans-30" transform="translate(329.034622 0.584375)"/>
    </g>
   </g>
   <g id="patch_9">
    <path d="M 417.819611 198.685471 
Q 410.968808 195.594417 405.442839 193.101123 
" style="fill: none; stroke: #333333; stroke-width: 1.3; stroke-linecap: round"/>
    <path d="M 408.26635 196.569233 
L 405.442839 193.101123 
L 409.911433 192.92318 
" style="fill: none; stroke: #333333; stroke-width: 1.3; stroke-linecap: round"/>
   </g>
   <g id="text_18">
    <g id="patch_10">
     <path d="M 422.294915 236.76048 
L 497.733977 236.76048 
Q 500.733977 236.76048 500.733977 233.76048 
L 500.733977 201.68673 
Q 500.733977 198.68673 497.733977 198.68673 
L 422.294915 198.68673 
Q 419.294915 198.68673 419.294915 201.68673 
L 419.294915 233.76048 
Q 419.294915 236.76048 422.294915 236.76048 
z
" style="fill: #f3fff3; stroke: #2ca02c; stroke-linejoin: miter"/>
    </g>
    <!-- Local Minimum -->
    <g style="fill: #262626" transform="translate(422.294915 209.285167) scale(0.1 -0.1)">
     <defs>
      <path id="DejaVuSans-6e" d="M 3513 2113 
L 3513 0 
L 2938 0 
L 2938 2094 
Q 2938 2591 2744 2837 
Q 2550 3084 2163 3084 
Q 1697 3084 1428 2787 
Q 1159 2491 1159 1978 
L 1159 0 
L 581 0 
L 581 3500 
L 1159 3500 
L 1159 2956 
Q 1366 3272 1645 3428 
Q 1925 3584 2291 3584 
Q 2894 3584 3203 3211 
Q 3513 2838 3513 2113 
z
" transform="scale(0.015625)"/>
     </defs>
     <use xlink:href="#DejaVuSans-4c"/>
     <use xlink:href="#DejaVuSans-6f" transform="translate(53.962891 0)"/>
     <use xlink:href="#DejaVuSans-63" transform="translate(115.144531 0)"/>
     <use xlink:href="#DejaVuSans-61" transform="translate(170.125 0)"/>
     <use xlink:href="#DejaVuSans-6c" transform="translate(231.404297 0)"/>
     <use xlink:href="#DejaVuSans-20" transform="translate(259.1875 0)"/>
     <use xlink:href="#DejaVuSans-4d" transform="translate(290.974609 0)"/>
     <use xlink:href="#DejaVuSans-69" transform="translate(377.253906 0)"/>
     <use xlink:href="#DejaVuSans-6e" transform="translate(405.037109 0)"/>
     <use xlink:href="#DejaVuSans-69" transform="translate(468.416016 0)"/>
     <use xlink:href="#DejaVuSans-6d" transform="translate(496.199219 0)"/>
     <use xlink:href="#DejaVuSans-75" transform="translate(593.611328 0)"/>
     <use xlink:href="#DejaVuSans-6d" transform="translate(656.990234 0)"/>
    </g>
    <!-- $(3,\, 1)$ -->
    <g style="fill: #262626" transform="translate(422.294915 220.48298) scale(0.1 -0.1)">
     <use xlink:href="#DejaVuSans-28" transform="translate(0 0.125)"/>
     <use xlink:href="#DejaVuSans-33" transform="translate(39.013672 0.125)"/>
     <use xlink:href="#DejaVuSans-2c" transform="translate(102.636719 0.125)"/>
     <use xlink:href="#DejaVuSans-31" transform="translate(170.141926 0.125)"/>
     <use xlink:href="#DejaVuSans-29" transform="translate(233.764973 0.125)"/>
    </g>
    <!-- $f'(3) = 0$ -->
    <g style="fill: #262626" transform="translate(422.294915 231.680792) scale(0.1 -0.1)">
     <use xlink:href="#DejaVuSans-Oblique-66" transform="translate(0 0.584375)"/>
     <use xlink:href="#Cmsy10-30" transform="translate(42.652786 38.865625) scale(0.7)"/>
     <use xlink:href="#DejaVuSans-28" transform="translate(64.630326 0.584375)"/>
     <use xlink:href="#DejaVuSans-33" transform="translate(103.643997 0.584375)"/>
     <use xlink:href="#DejaVuSans-29" transform="translate(167.267044 0.584375)"/>
     <use xlink:href="#DejaVuSans-3d" transform="translate(225.763138 0.584375)"/>
     <use xlink:href="#DejaVuSans-30" transform="translate(329.034622 0.584375)"/>
    </g>
   </g>
   <g id="text_19">
    <!-- $f' &gt; 0$ -->
    <g style="fill: #2ca02c" transform="translate(140.920187 235.249114) scale(0.09 -0.09)">
     <defs>
      <path id="DejaVuSans-3e" d="M 678 3150 
L 678 3719 
L 4684 2266 
L 4684 1747 
L 678 294 
L 678 863 
L 3897 2003 
L 678 3150 
z
" transform="scale(0.015625)"/>
     </defs>
     <use xlink:href="#DejaVuSans-Oblique-66" transform="translate(0 0.584375)"/>
     <use xlink:href="#Cmsy10-30" transform="translate(42.652786 38.865625) scale(0.7)"/>
     <use xlink:href="#DejaVuSans-3e" transform="translate(84.112747 0.584375)"/>
     <use xlink:href="#DejaVuSans-30" transform="translate(187.384232 0.584375)"/>
    </g>
    <!-- Increasing -->
    <g style="fill: #2ca02c" transform="translate(125.761516 245.327145) scale(0.09 -0.09)">
     <defs>
      <path id="DejaVuSans-Bold-49" d="M 588 4666 
L 1791 4666 
L 1791 0 
L 588 0 
L 588 4666 
z
" transform="scale(0.015625)"/>
      <path id="DejaVuSans-Bold-6e" d="M 4056 2131 
L 4056 0 
L 2931 0 
L 2931 347 
L 2931 1631 
Q 2931 2084 2911 2256 
Q 2891 2428 2841 2509 
Q 2775 2619 2662 2680 
Q 2550 2741 2406 2741 
Q 2056 2741 1856 2470 
Q 1656 2200 1656 1722 
L 1656 0 
L 538 0 
L 538 3500 
L 1656 3500 
L 1656 2988 
Q 1909 3294 2193 3439 
Q 2478 3584 2822 3584 
Q 3428 3584 3742 3212 
Q 4056 2841 4056 2131 
z
" transform="scale(0.015625)"/>
      <path id="DejaVuSans-Bold-63" d="M 3366 3391 
L 3366 2478 
Q 3138 2634 2908 2709 
Q 2678 2784 2431 2784 
Q 1963 2784 1702 2511 
Q 1441 2238 1441 1747 
Q 1441 1256 1702 982 
Q 1963 709 2431 709 
Q 2694 709 2930 787 
Q 3166 866 3366 1019 
L 3366 103 
Q 3103 6 2833 -42 
Q 2563 -91 2291 -91 
Q 1344 -91 809 395 
Q 275 881 275 1747 
Q 275 2613 809 3098 
Q 1344 3584 2291 3584 
Q 2566 3584 2833 3536 
Q 3100 3488 3366 3391 
z
" transform="scale(0.015625)"/>
      <path id="DejaVuSans-Bold-72" d="M 3138 2547 
Q 2991 2616 2845 2648 
Q 2700 2681 2553 2681 
Q 2122 2681 1889 2404 
Q 1656 2128 1656 1613 
L 1656 0 
L 538 0 
L 538 3500 
L 1656 3500 
L 1656 2925 
Q 1872 3269 2151 3426 
Q 2431 3584 2822 3584 
Q 2878 3584 2943 3579 
Q 3009 3575 3134 3559 
L 3138 2547 
z
" transform="scale(0.015625)"/>
      <path id="DejaVuSans-Bold-65" d="M 4031 1759 
L 4031 1441 
L 1416 1441 
Q 1456 1047 1700 850 
Q 1944 653 2381 653 
Q 2734 653 3104 758 
Q 3475 863 3866 1075 
L 3866 213 
Q 3469 63 3072 -14 
Q 2675 -91 2278 -91 
Q 1328 -91 801 392 
Q 275 875 275 1747 
Q 275 2603 792 3093 
Q 1309 3584 2216 3584 
Q 3041 3584 3536 3087 
Q 4031 2591 4031 1759 
z
M 2881 2131 
Q 2881 2450 2695 2645 
Q 2509 2841 2209 2841 
Q 1884 2841 1681 2658 
Q 1478 2475 1428 2131 
L 2881 2131 
z
" transform="scale(0.015625)"/>
      <path id="DejaVuSans-Bold-61" d="M 2106 1575 
Q 1756 1575 1579 1456 
Q 1403 1338 1403 1106 
Q 1403 894 1545 773 
Q 1688 653 1941 653 
Q 2256 653 2472 879 
Q 2688 1106 2688 1447 
L 2688 1575 
L 2106 1575 
z
M 3816 1997 
L 3816 0 
L 2688 0 
L 2688 519 
Q 2463 200 2181 54 
Q 1900 -91 1497 -91 
Q 953 -91 614 226 
Q 275 544 275 1050 
Q 275 1666 698 1953 
Q 1122 2241 2028 2241 
L 2688 2241 
L 2688 2328 
Q 2688 2594 2478 2717 
Q 2269 2841 1825 2841 
Q 1466 2841 1156 2769 
Q 847 2697 581 2553 
L 581 3406 
Q 941 3494 1303 3539 
Q 1666 3584 2028 3584 
Q 2975 3584 3395 3211 
Q 3816 2838 3816 1997 
z
" transform="scale(0.015625)"/>
      <path id="DejaVuSans-Bold-73" d="M 3272 3391 
L 3272 2541 
Q 2913 2691 2578 2766 
Q 2244 2841 1947 2841 
Q 1628 2841 1473 2761 
Q 1319 2681 1319 2516 
Q 1319 2381 1436 2309 
Q 1553 2238 1856 2203 
L 2053 2175 
Q 2913 2066 3209 1816 
Q 3506 1566 3506 1031 
Q 3506 472 3093 190 
Q 2681 -91 1863 -91 
Q 1516 -91 1145 -36 
Q 775 19 384 128 
L 384 978 
Q 719 816 1070 734 
Q 1422 653 1784 653 
Q 2113 653 2278 743 
Q 2444 834 2444 1013 
Q 2444 1163 2330 1236 
Q 2216 1309 1875 1350 
L 1678 1375 
Q 931 1469 631 1722 
Q 331 1975 331 2491 
Q 331 3047 712 3315 
Q 1094 3584 1881 3584 
Q 2191 3584 2531 3537 
Q 2872 3491 3272 3391 
z
" transform="scale(0.015625)"/>
      <path id="DejaVuSans-Bold-69" d="M 538 3500 
L 1656 3500 
L 1656 0 
L 538 0 
L 538 3500 
z
M 538 4863 
L 1656 4863 
L 1656 3950 
L 538 3950 
L 538 4863 
z
" transform="scale(0.015625)"/>
      <path id="DejaVuSans-Bold-67" d="M 2919 594 
Q 2688 288 2409 144 
Q 2131 0 1766 0 
Q 1125 0 706 504 
Q 288 1009 288 1791 
Q 288 2575 706 3076 
Q 1125 3578 1766 3578 
Q 2131 3578 2409 3434 
Q 2688 3291 2919 2981 
L 2919 3500 
L 4044 3500 
L 4044 353 
Q 4044 -491 3511 -936 
Q 2978 -1381 1966 -1381 
Q 1638 -1381 1331 -1331 
Q 1025 -1281 716 -1178 
L 716 -306 
Q 1009 -475 1290 -558 
Q 1572 -641 1856 -641 
Q 2406 -641 2662 -400 
Q 2919 -159 2919 353 
L 2919 594 
z
M 2181 2772 
Q 1834 2772 1640 2515 
Q 1447 2259 1447 1791 
Q 1447 1309 1634 1061 
Q 1822 813 2181 813 
Q 2531 813 2725 1069 
Q 2919 1325 2919 1791 
Q 2919 2259 2725 2515 
Q 2531 2772 2181 2772 
z
" transform="scale(0.015625)"/>
     </defs>
     <use xlink:href="#DejaVuSans-Bold-49"/>
     <use xlink:href="#DejaVuSans-Bold-6e" transform="translate(37.207031 0)"/>
     <use xlink:href="#DejaVuSans-Bold-63" transform="translate(108.398438 0)"/>
     <use xlink:href="#DejaVuSans-Bold-72" transform="translate(167.675781 0)"/>
     <use xlink:href="#DejaVuSans-Bold-65" transform="translate(216.992188 0)"/>
     <use xlink:href="#DejaVuSans-Bold-61" transform="translate(284.814453 0)"/>
     <use xlink:href="#DejaVuSans-Bold-73" transform="translate(352.294922 0)"/>
     <use xlink:href="#DejaVuSans-Bold-69" transform="translate(411.816406 0)"/>
     <use xlink:href="#DejaVuSans-Bold-6e" transform="translate(446.09375 0)"/>
     <use xlink:href="#DejaVuSans-Bold-67" transform="translate(517.285156 0)"/>
    </g>
   </g>
   <g id="text_20">
    <!-- $f' &lt; 0$ -->
    <g style="fill: #d62728" transform="translate(296.602187 235.249114) scale(0.09 -0.09)">
     <defs>
      <path id="DejaVuSans-3c" d="M 4684 3150 
L 1459 2003 
L 4684 863 
L 4684 294 
L 678 1747 
L 678 2266 
L 4684 3719 
L 4684 3150 
z
" transform="scale(0.015625)"/>
     </defs>
     <use xlink:href="#DejaVuSans-Oblique-66" transform="translate(0 0.584375)"/>
     <use xlink:href="#Cmsy10-30" transform="translate(42.652786 38.865625) scale(0.7)"/>
     <use xlink:href="#DejaVuSans-3c" transform="translate(84.112747 0.584375)"/>
     <use xlink:href="#DejaVuSans-30" transform="translate(187.384232 0.584375)"/>
    </g>
    <!-- Decreasing -->
    <g style="fill: #d62728" transform="translate(279.533125 245.327145) scale(0.09 -0.09)">
     <defs>
      <path id="DejaVuSans-Bold-44" d="M 1791 3756 
L 1791 909 
L 2222 909 
Q 2959 909 3348 1275 
Q 3738 1641 3738 2338 
Q 3738 3031 3350 3393 
Q 2963 3756 2222 3756 
L 1791 3756 
z
M 588 4666 
L 1856 4666 
Q 2919 4666 3439 4514 
Q 3959 4363 4331 4000 
Q 4659 3684 4818 3271 
Q 4978 2859 4978 2338 
Q 4978 1809 4818 1395 
Q 4659 981 4331 666 
Q 3956 303 3431 151 
Q 2906 0 1856 0 
L 588 0 
L 588 4666 
z
" transform="scale(0.015625)"/>
     </defs>
     <use xlink:href="#DejaVuSans-Bold-44"/>
     <use xlink:href="#DejaVuSans-Bold-65" transform="translate(83.007812 0)"/>
     <use xlink:href="#DejaVuSans-Bold-63" transform="translate(150.830078 0)"/>
     <use xlink:href="#DejaVuSans-Bold-72" transform="translate(210.107422 0)"/>
     <use xlink:href="#DejaVuSans-Bold-65" transform="translate(259.423828 0)"/>
     <use xlink:href="#DejaVuSans-Bold-61" transform="translate(327.246094 0)"/>
     <use xlink:href="#DejaVuSans-Bold-73" transform="translate(394.726562 0)"/>
     <use xlink:href="#DejaVuSans-Bold-69" transform="translate(454.248047 0)"/>
     <use xlink:href="#DejaVuSans-Bold-6e" transform="translate(488.525391 0)"/>
     <use xlink:href="#DejaVuSans-Bold-67" transform="translate(559.716797 0)"/>
    </g>
   </g>
   <g id="text_21">
    <!-- $f' &gt; 0$ -->
    <g style="fill: #2ca02c" transform="translate(452.284187 235.249114) scale(0.09 -0.09)">
     <use xlink:href="#DejaVuSans-Oblique-66" transform="translate(0 0.584375)"/>
     <use xlink:href="#Cmsy10-30" transform="translate(42.652786 38.865625) scale(0.7)"/>
     <use xlink:href="#DejaVuSans-3e" transform="translate(84.112747 0.584375)"/>
     <use xlink:href="#DejaVuSans-30" transform="translate(187.384232 0.584375)"/>
    </g>
    <!-- Increasing -->
    <g style="fill: #2ca02c" transform="translate(437.125516 245.327145) scale(0.09 -0.09)">
     <use xlink:href="#DejaVuSans-Bold-49"/>
     <use xlink:href="#DejaVuSans-Bold-6e" transform="translate(37.207031 0)"/>
     <use xlink:href="#DejaVuSans-Bold-63" transform="translate(108.398438 0)"/>
     <use xlink:href="#DejaVuSans-Bold-72" transform="translate(167.675781 0)"/>
     <use xlink:href="#DejaVuSans-Bold-65" transform="translate(216.992188 0)"/>
     <use xlink:href="#DejaVuSans-Bold-61" transform="translate(284.814453 0)"/>
     <use xlink:href="#DejaVuSans-Bold-73" transform="translate(352.294922 0)"/>
     <use xlink:href="#DejaVuSans-Bold-69" transform="translate(411.816406 0)"/>
     <use xlink:href="#DejaVuSans-Bold-6e" transform="translate(446.09375 0)"/>
     <use xlink:href="#DejaVuSans-Bold-67" transform="translate(517.285156 0)"/>
    </g>
   </g>
   <g id="text_22">
    <g id="patch_11">
     <path d="M 453.433387 278.828929 
L 557.033387 278.828929 
Q 560.033387 278.828929 560.033387 275.828929 
L 560.033387 254.952991 
Q 560.033387 251.952991 557.033387 251.952991 
L 453.433387 251.952991 
Q 450.433387 251.952991 450.433387 254.952991 
L 450.433387 275.828929 
Q 450.433387 278.828929 453.433387 278.828929 
z
" style="fill: #f0f0f0; stroke: #999999; stroke-linejoin: miter"/>
    </g>
    <!-- First Derivative Test: -->
    <g style="fill: #262626" transform="translate(455.013075 262.551429) scale(0.1 -0.1)">
     <defs>
      <path id="DejaVuSans-46" d="M 628 4666 
L 3309 4666 
L 3309 4134 
L 1259 4134 
L 1259 2759 
L 3109 2759 
L 3109 2228 
L 1259 2228 
L 1259 0 
L 628 0 
L 628 4666 
z
" transform="scale(0.015625)"/>
      <path id="DejaVuSans-72" d="M 2631 2963 
Q 2534 3019 2420 3045 
Q 2306 3072 2169 3072 
Q 1681 3072 1420 2755 
Q 1159 2438 1159 1844 
L 1159 0 
L 581 0 
L 581 3500 
L 1159 3500 
L 1159 2956 
Q 1341 3275 1631 3429 
Q 1922 3584 2338 3584 
Q 2397 3584 2469 3576 
Q 2541 3569 2628 3553 
L 2631 2963 
z
" transform="scale(0.015625)"/>
      <path id="DejaVuSans-73" d="M 2834 3397 
L 2834 2853 
Q 2591 2978 2328 3040 
Q 2066 3103 1784 3103 
Q 1356 3103 1142 2972 
Q 928 2841 928 2578 
Q 928 2378 1081 2264 
Q 1234 2150 1697 2047 
L 1894 2003 
Q 2506 1872 2764 1633 
Q 3022 1394 3022 966 
Q 3022 478 2636 193 
Q 2250 -91 1575 -91 
Q 1294 -91 989 -36 
Q 684 19 347 128 
L 347 722 
Q 666 556 975 473 
Q 1284 391 1588 391 
Q 1994 391 2212 530 
Q 2431 669 2431 922 
Q 2431 1156 2273 1281 
Q 2116 1406 1581 1522 
L 1381 1569 
Q 847 1681 609 1914 
Q 372 2147 372 2553 
Q 372 3047 722 3315 
Q 1072 3584 1716 3584 
Q 2034 3584 2315 3537 
Q 2597 3491 2834 3397 
z
" transform="scale(0.015625)"/>
      <path id="DejaVuSans-74" d="M 1172 4494 
L 1172 3500 
L 2356 3500 
L 2356 3053 
L 1172 3053 
L 1172 1153 
Q 1172 725 1289 603 
Q 1406 481 1766 481 
L 2356 481 
L 2356 0 
L 1766 0 
Q 1100 0 847 248 
Q 594 497 594 1153 
L 594 3053 
L 172 3053 
L 172 3500 
L 594 3500 
L 594 4494 
L 1172 4494 
z
" transform="scale(0.015625)"/>
      <path id="DejaVuSans-44" d="M 1259 4147 
L 1259 519 
L 2022 519 
Q 2988 519 3436 956 
Q 3884 1394 3884 2338 
Q 3884 3275 3436 3711 
Q 2988 4147 2022 4147 
L 1259 4147 
z
M 628 4666 
L 1925 4666 
Q 3281 4666 3915 4102 
Q 4550 3538 4550 2338 
Q 4550 1131 3912 565 
Q 3275 0 1925 0 
L 628 0 
L 628 4666 
z
" transform="scale(0.015625)"/>
      <path id="DejaVuSans-65" d="M 3597 1894 
L 3597 1613 
L 953 1613 
Q 991 1019 1311 708 
Q 1631 397 2203 397 
Q 2534 397 2845 478 
Q 3156 559 3463 722 
L 3463 178 
Q 3153 47 2828 -22 
Q 2503 -91 2169 -91 
Q 1331 -91 842 396 
Q 353 884 353 1716 
Q 353 2575 817 3079 
Q 1281 3584 2069 3584 
Q 2775 3584 3186 3129 
Q 3597 2675 3597 1894 
z
M 3022 2063 
Q 3016 2534 2758 2815 
Q 2500 3097 2075 3097 
Q 1594 3097 1305 2825 
Q 1016 2553 972 2059 
L 3022 2063 
z
" transform="scale(0.015625)"/>
      <path id="DejaVuSans-76" d="M 191 3500 
L 800 3500 
L 1894 563 
L 2988 3500 
L 3597 3500 
L 2284 0 
L 1503 0 
L 191 3500 
z
" transform="scale(0.015625)"/>
      <path id="DejaVuSans-54" d="M -19 4666 
L 3928 4666 
L 3928 4134 
L 2272 4134 
L 2272 0 
L 1638 0 
L 1638 4134 
L -19 4134 
L -19 4666 
z
" transform="scale(0.015625)"/>
      <path id="DejaVuSans-3a" d="M 750 794 
L 1409 794 
L 1409 0 
L 750 0 
L 750 794 
z
M 750 3309 
L 1409 3309 
L 1409 2516 
L 750 2516 
L 750 3309 
z
" transform="scale(0.015625)"/>
     </defs>
     <use xlink:href="#DejaVuSans-46"/>
     <use xlink:href="#DejaVuSans-69" transform="translate(50.269531 0)"/>
     <use xlink:href="#DejaVuSans-72" transform="translate(78.052734 0)"/>
     <use xlink:href="#DejaVuSans-73" transform="translate(119.166016 0)"/>
     <use xlink:href="#DejaVuSans-74" transform="translate(171.265625 0)"/>
     <use xlink:href="#DejaVuSans-20" transform="translate(210.474609 0)"/>
     <use xlink:href="#DejaVuSans-44" transform="translate(242.261719 0)"/>
     <use xlink:href="#DejaVuSans-65" transform="translate(319.263672 0)"/>
     <use xlink:href="#DejaVuSans-72" transform="translate(380.787109 0)"/>
     <use xlink:href="#DejaVuSans-69" transform="translate(421.900391 0)"/>
     <use xlink:href="#DejaVuSans-76" transform="translate(449.683594 0)"/>
     <use xlink:href="#DejaVuSans-61" transform="translate(508.863281 0)"/>
     <use xlink:href="#DejaVuSans-74" transform="translate(570.142578 0)"/>
     <use xlink:href="#DejaVuSans-69" transform="translate(609.351562 0)"/>
     <use xlink:href="#DejaVuSans-76" transform="translate(637.134766 0)"/>
     <use xlink:href="#DejaVuSans-65" transform="translate(696.314453 0)"/>
     <use xlink:href="#DejaVuSans-20" transform="translate(757.837891 0)"/>
     <use xlink:href="#DejaVuSans-54" transform="translate(789.625 0)"/>
     <use xlink:href="#DejaVuSans-65" transform="translate(833.708984 0)"/>
     <use xlink:href="#DejaVuSans-73" transform="translate(895.232422 0)"/>
     <use xlink:href="#DejaVuSans-74" transform="translate(947.332031 0)"/>
     <use xlink:href="#DejaVuSans-3a" transform="translate(986.541016 0)"/>
    </g>
    <!-- $f'(x) = 3(x-1)(x-3)$ -->
    <g style="fill: #262626" transform="translate(453.433387 273.749241) scale(0.1 -0.1)">
     <use xlink:href="#DejaVuSans-Oblique-66" transform="translate(0 0.584375)"/>
     <use xlink:href="#Cmsy10-30" transform="translate(42.652786 38.865625) scale(0.7)"/>
     <use xlink:href="#DejaVuSans-28" transform="translate(64.630326 0.584375)"/>
     <use xlink:href="#DejaVuSans-Oblique-78" transform="translate(103.643997 0.584375)"/>
     <use xlink:href="#DejaVuSans-29" transform="translate(162.823685 0.584375)"/>
     <use xlink:href="#DejaVuSans-3d" transform="translate(221.319779 0.584375)"/>
     <use xlink:href="#DejaVuSans-33" transform="translate(324.591263 0.584375)"/>
     <use xlink:href="#DejaVuSans-28" transform="translate(388.21431 0.584375)"/>
     <use xlink:href="#DejaVuSans-Oblique-78" transform="translate(427.227982 0.584375)"/>
     <use xlink:href="#DejaVuSans-2212" transform="translate(505.890091 0.584375)"/>
     <use xlink:href="#DejaVuSans-31" transform="translate(609.161576 0.584375)"/>
     <use xlink:href="#DejaVuSans-29" transform="translate(672.784622 0.584375)"/>
     <use xlink:href="#DejaVuSans-28" transform="translate(711.798294 0.584375)"/>
     <use xlink:href="#DejaVuSans-Oblique-78" transform="translate(750.811966 0.584375)"/>
     <use xlink:href="#DejaVuSans-2212" transform="translate(829.474076 0.584375)"/>
     <use xlink:href="#DejaVuSans-33" transform="translate(932.74556 0.584375)"/>
     <use xlink:href="#DejaVuSans-29" transform="translate(996.368607 0.584375)"/>
    </g>
   </g>
   <g id="text_23">
    <!-- Finding Local Extrema: Critical Points and the First Derivative Test -->
    <g style="fill: #262626" transform="translate(63.406094 17.077969) scale(0.13 -0.13)">
     <defs>
      <path id="DejaVuSans-Bold-46" d="M 588 4666 
L 3834 4666 
L 3834 3756 
L 1791 3756 
L 1791 2888 
L 3713 2888 
L 3713 1978 
L 1791 1978 
L 1791 0 
L 588 0 
L 588 4666 
z
" transform="scale(0.015625)"/>
      <path id="DejaVuSans-Bold-64" d="M 2919 2988 
L 2919 4863 
L 4044 4863 
L 4044 0 
L 2919 0 
L 2919 506 
Q 2688 197 2409 53 
Q 2131 -91 1766 -91 
Q 1119 -91 703 423 
Q 288 938 288 1747 
Q 288 2556 703 3070 
Q 1119 3584 1766 3584 
Q 2128 3584 2408 3439 
Q 2688 3294 2919 2988 
z
M 2181 722 
Q 2541 722 2730 984 
Q 2919 1247 2919 1747 
Q 2919 2247 2730 2509 
Q 2541 2772 2181 2772 
Q 1825 2772 1636 2509 
Q 1447 2247 1447 1747 
Q 1447 1247 1636 984 
Q 1825 722 2181 722 
z
" transform="scale(0.015625)"/>
      <path id="DejaVuSans-Bold-20" transform="scale(0.015625)"/>
      <path id="DejaVuSans-Bold-4c" d="M 588 4666 
L 1791 4666 
L 1791 909 
L 3903 909 
L 3903 0 
L 588 0 
L 588 4666 
z
" transform="scale(0.015625)"/>
      <path id="DejaVuSans-Bold-6f" d="M 2203 2784 
Q 1831 2784 1636 2517 
Q 1441 2250 1441 1747 
Q 1441 1244 1636 976 
Q 1831 709 2203 709 
Q 2569 709 2762 976 
Q 2956 1244 2956 1747 
Q 2956 2250 2762 2517 
Q 2569 2784 2203 2784 
z
M 2203 3584 
Q 3106 3584 3614 3096 
Q 4122 2609 4122 1747 
Q 4122 884 3614 396 
Q 3106 -91 2203 -91 
Q 1297 -91 786 396 
Q 275 884 275 1747 
Q 275 2609 786 3096 
Q 1297 3584 2203 3584 
z
" transform="scale(0.015625)"/>
      <path id="DejaVuSans-Bold-6c" d="M 538 4863 
L 1656 4863 
L 1656 0 
L 538 0 
L 538 4863 
z
" transform="scale(0.015625)"/>
      <path id="DejaVuSans-Bold-45" d="M 588 4666 
L 3834 4666 
L 3834 3756 
L 1791 3756 
L 1791 2888 
L 3713 2888 
L 3713 1978 
L 1791 1978 
L 1791 909 
L 3903 909 
L 3903 0 
L 588 0 
L 588 4666 
z
" transform="scale(0.015625)"/>
      <path id="DejaVuSans-Bold-78" d="M 1422 1791 
L 159 3500 
L 1344 3500 
L 2059 2463 
L 2784 3500 
L 3969 3500 
L 2706 1797 
L 4031 0 
L 2847 0 
L 2059 1106 
L 1281 0 
L 97 0 
L 1422 1791 
z
" transform="scale(0.015625)"/>
      <path id="DejaVuSans-Bold-74" d="M 1759 4494 
L 1759 3500 
L 2913 3500 
L 2913 2700 
L 1759 2700 
L 1759 1216 
Q 1759 972 1856 886 
Q 1953 800 2241 800 
L 2816 800 
L 2816 0 
L 1856 0 
Q 1194 0 917 276 
Q 641 553 641 1216 
L 641 2700 
L 84 2700 
L 84 3500 
L 641 3500 
L 641 4494 
L 1759 4494 
z
" transform="scale(0.015625)"/>
      <path id="DejaVuSans-Bold-6d" d="M 3781 2919 
Q 3994 3244 4286 3414 
Q 4578 3584 4928 3584 
Q 5531 3584 5847 3212 
Q 6163 2841 6163 2131 
L 6163 0 
L 5038 0 
L 5038 1825 
Q 5041 1866 5042 1909 
Q 5044 1953 5044 2034 
Q 5044 2406 4934 2573 
Q 4825 2741 4581 2741 
Q 4263 2741 4089 2478 
Q 3916 2216 3909 1719 
L 3909 0 
L 2784 0 
L 2784 1825 
Q 2784 2406 2684 2573 
Q 2584 2741 2328 2741 
Q 2006 2741 1831 2477 
Q 1656 2213 1656 1722 
L 1656 0 
L 531 0 
L 531 3500 
L 1656 3500 
L 1656 2988 
Q 1863 3284 2130 3434 
Q 2397 3584 2719 3584 
Q 3081 3584 3359 3409 
Q 3638 3234 3781 2919 
z
" transform="scale(0.015625)"/>
      <path id="DejaVuSans-Bold-3a" d="M 716 3500 
L 1844 3500 
L 1844 2291 
L 716 2291 
L 716 3500 
z
M 716 1209 
L 1844 1209 
L 1844 0 
L 716 0 
L 716 1209 
z
" transform="scale(0.015625)"/>
      <path id="DejaVuSans-Bold-43" d="M 4288 256 
Q 3956 84 3597 -3 
Q 3238 -91 2847 -91 
Q 1681 -91 1000 561 
Q 319 1213 319 2328 
Q 319 3447 1000 4098 
Q 1681 4750 2847 4750 
Q 3238 4750 3597 4662 
Q 3956 4575 4288 4403 
L 4288 3438 
Q 3953 3666 3628 3772 
Q 3303 3878 2944 3878 
Q 2300 3878 1931 3465 
Q 1563 3053 1563 2328 
Q 1563 1606 1931 1193 
Q 2300 781 2944 781 
Q 3303 781 3628 887 
Q 3953 994 4288 1222 
L 4288 256 
z
" transform="scale(0.015625)"/>
      <path id="DejaVuSans-Bold-50" d="M 588 4666 
L 2584 4666 
Q 3475 4666 3951 4270 
Q 4428 3875 4428 3144 
Q 4428 2409 3951 2014 
Q 3475 1619 2584 1619 
L 1791 1619 
L 1791 0 
L 588 0 
L 588 4666 
z
M 1791 3794 
L 1791 2491 
L 2456 2491 
Q 2806 2491 2997 2661 
Q 3188 2831 3188 3144 
Q 3188 3456 2997 3625 
Q 2806 3794 2456 3794 
L 1791 3794 
z
" transform="scale(0.015625)"/>
      <path id="DejaVuSans-Bold-68" d="M 4056 2131 
L 4056 0 
L 2931 0 
L 2931 347 
L 2931 1625 
Q 2931 2084 2911 2256 
Q 2891 2428 2841 2509 
Q 2775 2619 2662 2680 
Q 2550 2741 2406 2741 
Q 2056 2741 1856 2470 
Q 1656 2200 1656 1722 
L 1656 0 
L 538 0 
L 538 4863 
L 1656 4863 
L 1656 2988 
Q 1909 3294 2193 3439 
Q 2478 3584 2822 3584 
Q 3428 3584 3742 3212 
Q 4056 2841 4056 2131 
z
" transform="scale(0.015625)"/>
      <path id="DejaVuSans-Bold-76" d="M 97 3500 
L 1216 3500 
L 2088 1081 
L 2956 3500 
L 4078 3500 
L 2700 0 
L 1472 0 
L 97 3500 
z
" transform="scale(0.015625)"/>
      <path id="DejaVuSans-Bold-54" d="M 31 4666 
L 4331 4666 
L 4331 3756 
L 2784 3756 
L 2784 0 
L 1581 0 
L 1581 3756 
L 31 3756 
L 31 4666 
z
" transform="scale(0.015625)"/>
     </defs>
     <use xlink:href="#DejaVuSans-Bold-46"/>
     <use xlink:href="#DejaVuSans-Bold-69" transform="translate(68.310547 0)"/>
     <use xlink:href="#DejaVuSans-Bold-6e" transform="translate(102.587891 0)"/>
     <use xlink:href="#DejaVuSans-Bold-64" transform="translate(173.779297 0)"/>
     <use xlink:href="#DejaVuSans-Bold-69" transform="translate(245.361328 0)"/>
     <use xlink:href="#DejaVuSans-Bold-6e" transform="translate(279.638672 0)"/>
     <use xlink:href="#DejaVuSans-Bold-67" transform="translate(350.830078 0)"/>
     <use xlink:href="#DejaVuSans-Bold-20" transform="translate(422.412109 0)"/>
     <use xlink:href="#DejaVuSans-Bold-4c" transform="translate(457.226562 0)"/>
     <use xlink:href="#DejaVuSans-Bold-6f" transform="translate(520.947266 0)"/>
     <use xlink:href="#DejaVuSans-Bold-63" transform="translate(589.648438 0)"/>
     <use xlink:href="#DejaVuSans-Bold-61" transform="translate(648.925781 0)"/>
     <use xlink:href="#DejaVuSans-Bold-6c" transform="translate(716.40625 0)"/>
     <use xlink:href="#DejaVuSans-Bold-20" transform="translate(750.683594 0)"/>
     <use xlink:href="#DejaVuSans-Bold-45" transform="translate(785.498047 0)"/>
     <use xlink:href="#DejaVuSans-Bold-78" transform="translate(853.808594 0)"/>
     <use xlink:href="#DejaVuSans-Bold-74" transform="translate(918.310547 0)"/>
     <use xlink:href="#DejaVuSans-Bold-72" transform="translate(966.113281 0)"/>
     <use xlink:href="#DejaVuSans-Bold-65" transform="translate(1015.429688 0)"/>
     <use xlink:href="#DejaVuSans-Bold-6d" transform="translate(1083.251953 0)"/>
     <use xlink:href="#DejaVuSans-Bold-61" transform="translate(1187.451172 0)"/>
     <use xlink:href="#DejaVuSans-Bold-3a" transform="translate(1254.931641 0)"/>
     <use xlink:href="#DejaVuSans-Bold-20" transform="translate(1294.921875 0)"/>
     <use xlink:href="#DejaVuSans-Bold-43" transform="translate(1329.736328 0)"/>
     <use xlink:href="#DejaVuSans-Bold-72" transform="translate(1403.125 0)"/>
     <use xlink:href="#DejaVuSans-Bold-69" transform="translate(1452.441406 0)"/>
     <use xlink:href="#DejaVuSans-Bold-74" transform="translate(1486.71875 0)"/>
     <use xlink:href="#DejaVuSans-Bold-69" transform="translate(1534.521484 0)"/>
     <use xlink:href="#DejaVuSans-Bold-63" transform="translate(1568.798828 0)"/>
     <use xlink:href="#DejaVuSans-Bold-61" transform="translate(1628.076172 0)"/>
     <use xlink:href="#DejaVuSans-Bold-6c" transform="translate(1695.556641 0)"/>
     <use xlink:href="#DejaVuSans-Bold-20" transform="translate(1729.833984 0)"/>
     <use xlink:href="#DejaVuSans-Bold-50" transform="translate(1764.648438 0)"/>
     <use xlink:href="#DejaVuSans-Bold-6f" transform="translate(1837.939453 0)"/>
     <use xlink:href="#DejaVuSans-Bold-69" transform="translate(1906.640625 0)"/>
     <use xlink:href="#DejaVuSans-Bold-6e" transform="translate(1940.917969 0)"/>
     <use xlink:href="#DejaVuSans-Bold-74" transform="translate(2012.109375 0)"/>
     <use xlink:href="#DejaVuSans-Bold-73" transform="translate(2059.912109 0)"/>
     <use xlink:href="#DejaVuSans-Bold-20" transform="translate(2119.433594 0)"/>
     <use xlink:href="#DejaVuSans-Bold-61" transform="translate(2154.248047 0)"/>
     <use xlink:href="#DejaVuSans-Bold-6e" transform="translate(2221.728516 0)"/>
     <use xlink:href="#DejaVuSans-Bold-64" transform="translate(2292.919922 0)"/>
     <use xlink:href="#DejaVuSans-Bold-20" transform="translate(2364.501953 0)"/>
     <use xlink:href="#DejaVuSans-Bold-74" transform="translate(2399.316406 0)"/>
     <use xlink:href="#DejaVuSans-Bold-68" transform="translate(2447.119141 0)"/>
     <use xlink:href="#DejaVuSans-Bold-65" transform="translate(2518.310547 0)"/>
     <use xlink:href="#DejaVuSans-Bold-20" transform="translate(2586.132812 0)"/>
     <use xlink:href="#DejaVuSans-Bold-46" transform="translate(2620.947266 0)"/>
     <use xlink:href="#DejaVuSans-Bold-69" transform="translate(2689.257812 0)"/>
     <use xlink:href="#DejaVuSans-Bold-72" transform="translate(2723.535156 0)"/>
     <use xlink:href="#DejaVuSans-Bold-73" transform="translate(2772.851562 0)"/>
     <use xlink:href="#DejaVuSans-Bold-74" transform="translate(2832.373047 0)"/>
     <use xlink:href="#DejaVuSans-Bold-20" transform="translate(2880.175781 0)"/>
     <use xlink:href="#DejaVuSans-Bold-44" transform="translate(2914.990234 0)"/>
     <use xlink:href="#DejaVuSans-Bold-65" transform="translate(2997.998047 0)"/>
     <use xlink:href="#DejaVuSans-Bold-72" transform="translate(3065.820312 0)"/>
     <use xlink:href="#DejaVuSans-Bold-69" transform="translate(3115.136719 0)"/>
     <use xlink:href="#DejaVuSans-Bold-76" transform="translate(3149.414062 0)"/>
     <use xlink:href="#DejaVuSans-Bold-61" transform="translate(3214.599609 0)"/>
     <use xlink:href="#DejaVuSans-Bold-74" transform="translate(3282.080078 0)"/>
     <use xlink:href="#DejaVuSans-Bold-69" transform="translate(3329.882812 0)"/>
     <use xlink:href="#DejaVuSans-Bold-76" transform="translate(3364.160156 0)"/>
     <use xlink:href="#DejaVuSans-Bold-65" transform="translate(3429.345703 0)"/>
     <use xlink:href="#DejaVuSans-Bold-20" transform="translate(3497.167969 0)"/>
     <use xlink:href="#DejaVuSans-Bold-54" transform="translate(3531.982422 0)"/>
     <use xlink:href="#DejaVuSans-Bold-65" transform="translate(3586.945312 0)"/>
     <use xlink:href="#DejaVuSans-Bold-73" transform="translate(3654.767578 0)"/>
     <use xlink:href="#DejaVuSans-Bold-74" transform="translate(3714.289062 0)"/>
    </g>
   </g>
   <g id="line2d_31">
    <defs>
     <path id="m815767a340" d="M 0 5 
C 1.326016 5 2.597899 4.473168 3.535534 3.535534 
C 4.473168 2.597899 5 1.326016 5 0 
C 5 -1.326016 4.473168 -2.597899 3.535534 -3.535534 
C 2.597899 -4.473168 1.326016 -5 0 -5 
C -1.326016 -5 -2.597899 -4.473168 -3.535534 -3.535534 
C -4.473168 -2.597899 -5 -1.326016 -5 0 
C -5 1.326016 -4.473168 2.597899 -3.535534 3.535534 
C -2.597899 4.473168 -1.326016 5 0 5 
z
" style="stroke: #ff0000"/>
    </defs>
    <g clip-path="url(#peb9a95ccdd)">
     <use xlink:href="#m815767a340" x="213.58946" y="130.370675" style="fill: #ff0000; stroke: #ff0000"/>
    </g>
   </g>
   <g id="line2d_32">
    <defs>
     <path id="me1ec519c32" d="M 0 5 
C 1.326016 5 2.597899 4.473168 3.535534 3.535534 
C 4.473168 2.597899 5 1.326016 5 0 
C 5 -1.326016 4.473168 -2.597899 3.535534 -3.535534 
C 2.597899 -4.473168 1.326016 -5 0 -5 
C -1.326016 -5 -2.597899 -4.473168 -3.535534 -3.535534 
C -4.473168 -2.597899 -5 -1.326016 -5 0 
C -5 1.326016 -4.473168 2.597899 -3.535534 3.535534 
C -2.597899 4.473168 -1.326016 5 0 5 
z
" style="stroke: #008000"/>
    </defs>
    <g clip-path="url(#peb9a95ccdd)">
     <use xlink:href="#me1ec519c32" x="402.294915" y="191.680792" style="fill: #008000; stroke: #008000"/>
    </g>
   </g>
   <g id="legend_1">
    <g id="patch_12">
     <path d="M 399.552187 48.927969 
L 559.712187 48.927969 
Q 561.912187 48.927969 561.912187 46.727969 
L 561.912187 30.777969 
Q 561.912187 28.577969 559.712187 28.577969 
L 399.552187 28.577969 
Q 397.352187 28.577969 397.352187 30.777969 
L 397.352187 46.727969 
Q 397.352187 48.927969 399.552187 48.927969 
z
" style="fill: #ffffff; opacity: 0.9; stroke: #cccccc; stroke-linejoin: miter"/>
    </g>
    <g id="line2d_33">
     <path d="M 401.752187 38.390312 
L 412.752187 38.390312 
L 423.752187 38.390312 
" style="fill: none; stroke: #0000ff; stroke-width: 2.5; stroke-linecap: square"/>
    </g>
    <g id="text_24">
     <!-- $f(x) = x^3 - 6x^2 + 9x + 1$ -->
     <g style="fill: #262626" transform="translate(432.552187 42.240312) scale(0.11 -0.11)">
      <defs>
       <path id="DejaVuSans-2b" d="M 2944 4013 
L 2944 2272 
L 4684 2272 
L 4684 1741 
L 2944 1741 
L 2944 0 
L 2419 0 
L 2419 1741 
L 678 1741 
L 678 2272 
L 2419 2272 
L 2419 4013 
L 2944 4013 
z
" transform="scale(0.015625)"/>
       <path id="DejaVuSans-39" d="M 703 97 
L 703 672 
Q 941 559 1184 500 
Q 1428 441 1663 441 
Q 2288 441 2617 861 
Q 2947 1281 2994 2138 
Q 2813 1869 2534 1725 
Q 2256 1581 1919 1581 
Q 1219 1581 811 2004 
Q 403 2428 403 3163 
Q 403 3881 828 4315 
Q 1253 4750 1959 4750 
Q 2769 4750 3195 4129 
Q 3622 3509 3622 2328 
Q 3622 1225 3098 567 
Q 2575 -91 1691 -91 
Q 1453 -91 1209 -44 
Q 966 3 703 97 
z
M 1959 2075 
Q 2384 2075 2632 2365 
Q 2881 2656 2881 3163 
Q 2881 3666 2632 3958 
Q 2384 4250 1959 4250 
Q 1534 4250 1286 3958 
Q 1038 3666 1038 3163 
Q 1038 2656 1286 2365 
Q 1534 2075 1959 2075 
z
" transform="scale(0.015625)"/>
      </defs>
      <use xlink:href="#DejaVuSans-Oblique-66" transform="translate(0 0.765625)"/>
      <use xlink:href="#DejaVuSans-28" transform="translate(35.205078 0.765625)"/>
      <use xlink:href="#DejaVuSans-Oblique-78" transform="translate(74.21875 0.765625)"/>
      <use xlink:href="#DejaVuSans-29" transform="translate(133.398438 0.765625)"/>
      <use xlink:href="#DejaVuSans-3d" transform="translate(191.894531 0.765625)"/>
      <use xlink:href="#DejaVuSans-Oblique-78" transform="translate(295.166016 0.765625)"/>
      <use xlink:href="#DejaVuSans-33" transform="translate(358.811849 39.046875) scale(0.7)"/>
      <use xlink:href="#DejaVuSans-2212" transform="translate(425.564779 0.765625)"/>
      <use xlink:href="#DejaVuSans-36" transform="translate(528.836263 0.765625)"/>
      <use xlink:href="#DejaVuSans-Oblique-78" transform="translate(592.45931 0.765625)"/>
      <use xlink:href="#DejaVuSans-32" transform="translate(656.105143 39.046875) scale(0.7)"/>
      <use xlink:href="#DejaVuSans-2b" transform="translate(722.858073 0.765625)"/>
      <use xlink:href="#DejaVuSans-39" transform="translate(826.129557 0.765625)"/>
      <use xlink:href="#DejaVuSans-Oblique-78" transform="translate(889.752604 0.765625)"/>
      <use xlink:href="#DejaVuSans-2b" transform="translate(968.414714 0.765625)"/>
      <use xlink:href="#DejaVuSans-31" transform="translate(1071.686198 0.765625)"/>
     </g>
    </g>
   </g>
  </g>
 </g>
 <defs>
  <clipPath id="peb9a95ccdd">
   <rect x="48.472187" y="23.077969" width="518.94" height="260.568"/>
  </clipPath>
 </defs>
</svg>
