<?xml version="1.0" encoding="utf-8" standalone="no"?>
<!DOCTYPE svg PUBLIC "-//W3C//DTD SVG 1.1//EN"
  "http://www.w3.org/Graphics/SVG/1.1/DTD/svg11.dtd">
<svg xmlns:xlink="http://www.w3.org/1999/xlink" width="470.97375pt" height="311.304375pt" viewBox="0 0 470.97375 311.304375" xmlns="http://www.w3.org/2000/svg" version="1.1">
 <metadata>
  <rdf:RDF xmlns:dc="http://purl.org/dc/elements/1.1/" xmlns:cc="http://creativecommons.org/ns#" xmlns:rdf="http://www.w3.org/1999/02/22-rdf-syntax-ns#">
   <cc:Work>
    <dc:type rdf:resource="http://purl.org/dc/dcmitype/StillImage"/>
    <dc:date>2026-02-19T08:27:10.142884</dc:date>
    <dc:format>image/svg+xml</dc:format>
    <dc:creator>
     <cc:Agent>
      <dc:title>Matplotlib v3.10.1, https://matplotlib.org/</dc:title>
     </cc:Agent>
    </dc:creator>
   </cc:Work>
  </rdf:RDF>
 </metadata>
 <defs>
  <style type="text/css">*{stroke-linejoin: round; stroke-linecap: butt}</style>
 </defs>
 <g id="figure_1">
  <g id="patch_1">
   <path d="M -0 311.304375 
L 470.97375 311.304375 
L 470.97375 0 
L -0 0 
z
" style="fill: #ffffff"/>
  </g>
  <g id="axes_1">
   <g id="patch_2">
    <path d="M 29.91375 281.22 
L 460.17375 281.22 
L 460.17375 10.8 
L 29.91375 10.8 
z
" style="fill: #ffffff"/>
   </g>
   <g id="matplotlib.axis_1">
    <g id="xtick_1">
     <g id="line2d_1">
      <path d="M 49.471023 281.22 
L 49.471023 10.8 
" clip-path="url(#p3a105eac38)" style="fill: none; stroke: #cccccc; stroke-width: 0.8; stroke-linecap: round"/>
     </g>
     <g id="line2d_2"/>
    </g>
    <g id="xtick_2">
     <g id="line2d_3">
      <path d="M 105.348945 281.22 
L 105.348945 10.8 
" clip-path="url(#p3a105eac38)" style="fill: none; stroke: #cccccc; stroke-width: 0.8; stroke-linecap: round"/>
     </g>
     <g id="line2d_4"/>
    </g>
    <g id="xtick_3">
     <g id="line2d_5">
      <path d="M 161.226867 281.22 
L 161.226867 10.8 
" clip-path="url(#p3a105eac38)" style="fill: none; stroke: #cccccc; stroke-width: 0.8; stroke-linecap: round"/>
     </g>
     <g id="line2d_6"/>
    </g>
    <g id="xtick_4">
     <g id="line2d_7">
      <path d="M 217.104789 281.22 
L 217.104789 10.8 
" clip-path="url(#p3a105eac38)" style="fill: none; stroke: #cccccc; stroke-width: 0.8; stroke-linecap: round"/>
     </g>
     <g id="line2d_8"/>
    </g>
    <g id="xtick_5">
     <g id="line2d_9">
      <path d="M 272.982711 281.22 
L 272.982711 10.8 
" clip-path="url(#p3a105eac38)" style="fill: none; stroke: #cccccc; stroke-width: 0.8; stroke-linecap: round"/>
     </g>
     <g id="line2d_10"/>
    </g>
    <g id="xtick_6">
     <g id="line2d_11">
      <path d="M 328.860633 281.22 
L 328.860633 10.8 
" clip-path="url(#p3a105eac38)" style="fill: none; stroke: #cccccc; stroke-width: 0.8; stroke-linecap: round"/>
     </g>
     <g id="line2d_12"/>
    </g>
    <g id="xtick_7">
     <g id="line2d_13">
      <path d="M 384.738555 281.22 
L 384.738555 10.8 
" clip-path="url(#p3a105eac38)" style="fill: none; stroke: #cccccc; stroke-width: 0.8; stroke-linecap: round"/>
     </g>
     <g id="line2d_14"/>
    </g>
    <g id="xtick_8">
     <g id="line2d_15">
      <path d="M 440.616477 281.22 
L 440.616477 10.8 
" clip-path="url(#p3a105eac38)" style="fill: none; stroke: #cccccc; stroke-width: 0.8; stroke-linecap: round"/>
     </g>
     <g id="line2d_16"/>
    </g>
    <g id="text_1">
     <!-- Stocking density (fish/tank) -->
     <g style="fill: #262626" transform="translate(161.145938 297.838125) scale(0.12 -0.12)">
      <defs>
       <path id="DejaVuSerif-53" d="M 594 225 
L 594 1288 
L 953 1284 
Q 969 753 1261 498 
Q 1553 244 2150 244 
Q 2706 244 2998 464 
Q 3291 684 3291 1106 
Q 3291 1444 3114 1625 
Q 2938 1806 2369 1978 
L 1753 2163 
Q 1084 2366 811 2669 
Q 538 2972 538 3500 
Q 538 4094 959 4422 
Q 1381 4750 2144 4750 
Q 2469 4750 2856 4679 
Q 3244 4609 3681 4475 
L 3681 3481 
L 3328 3481 
Q 3275 3975 2998 4195 
Q 2722 4416 2156 4416 
Q 1663 4416 1405 4214 
Q 1147 4013 1147 3628 
Q 1147 3294 1340 3103 
Q 1534 2913 2163 2725 
L 2741 2553 
Q 3375 2363 3645 2067 
Q 3916 1772 3916 1275 
Q 3916 597 3481 253 
Q 3047 -91 2188 -91 
Q 1803 -91 1404 -12 
Q 1006 66 594 225 
z
" transform="scale(0.015625)"/>
       <path id="DejaVuSerif-74" d="M 691 2988 
L 184 2988 
L 184 3322 
L 691 3322 
L 691 4353 
L 1269 4353 
L 1269 3322 
L 2350 3322 
L 2350 2988 
L 1269 2988 
L 1269 878 
Q 1269 456 1350 337 
Q 1431 219 1650 219 
Q 1875 219 1978 351 
Q 2081 484 2088 781 
L 2522 781 
Q 2497 328 2275 118 
Q 2053 -91 1600 -91 
Q 1103 -91 897 129 
Q 691 350 691 878 
L 691 2988 
z
" transform="scale(0.015625)"/>
       <path id="DejaVuSerif-6f" d="M 1925 219 
Q 2388 219 2623 584 
Q 2859 950 2859 1663 
Q 2859 2375 2623 2739 
Q 2388 3103 1925 3103 
Q 1463 3103 1227 2739 
Q 991 2375 991 1663 
Q 991 950 1228 584 
Q 1466 219 1925 219 
z
M 1925 -91 
Q 1200 -91 759 389 
Q 319 869 319 1663 
Q 319 2456 758 2934 
Q 1197 3413 1925 3413 
Q 2653 3413 3092 2934 
Q 3531 2456 3531 1663 
Q 3531 869 3092 389 
Q 2653 -91 1925 -91 
z
" transform="scale(0.015625)"/>
       <path id="DejaVuSerif-63" d="M 3291 997 
Q 3169 466 2822 187 
Q 2475 -91 1925 -91 
Q 1200 -91 759 389 
Q 319 869 319 1663 
Q 319 2459 759 2936 
Q 1200 3413 1925 3413 
Q 2241 3413 2553 3339 
Q 2866 3266 3181 3116 
L 3181 2266 
L 2847 2266 
Q 2781 2703 2561 2903 
Q 2341 3103 1931 3103 
Q 1466 3103 1228 2742 
Q 991 2381 991 1663 
Q 991 944 1227 581 
Q 1463 219 1931 219 
Q 2303 219 2525 412 
Q 2747 606 2828 997 
L 3291 997 
z
" transform="scale(0.015625)"/>
       <path id="DejaVuSerif-6b" d="M 1831 0 
L 219 0 
L 219 331 
L 738 331 
L 738 4531 
L 184 4531 
L 184 4863 
L 1313 4863 
L 1313 1697 
L 2713 2988 
L 2234 2988 
L 2234 3322 
L 3738 3322 
L 3738 2988 
L 3169 2988 
L 2181 2075 
L 3444 331 
L 3922 331 
L 3922 0 
L 2284 0 
L 2284 331 
L 2759 331 
L 1766 1697 
L 1313 1275 
L 1313 331 
L 1831 331 
L 1831 0 
z
" transform="scale(0.015625)"/>
       <path id="DejaVuSerif-69" d="M 622 4353 
Q 622 4497 726 4603 
Q 831 4709 978 4709 
Q 1122 4709 1226 4603 
Q 1331 4497 1331 4353 
Q 1331 4206 1228 4103 
Q 1125 4000 978 4000 
Q 831 4000 726 4103 
Q 622 4206 622 4353 
z
M 1356 331 
L 1900 331 
L 1900 0 
L 231 0 
L 231 331 
L 781 331 
L 781 2988 
L 231 2988 
L 231 3322 
L 1356 3322 
L 1356 331 
z
" transform="scale(0.015625)"/>
       <path id="DejaVuSerif-6e" d="M 263 0 
L 263 331 
L 781 331 
L 781 2988 
L 231 2988 
L 231 3322 
L 1356 3322 
L 1356 2731 
Q 1516 3069 1770 3241 
Q 2025 3413 2363 3413 
Q 2913 3413 3172 3097 
Q 3431 2781 3431 2113 
L 3431 331 
L 3944 331 
L 3944 0 
L 2356 0 
L 2356 331 
L 2853 331 
L 2853 1931 
Q 2853 2541 2703 2767 
Q 2553 2994 2175 2994 
Q 1775 2994 1565 2701 
Q 1356 2409 1356 1850 
L 1356 331 
L 1856 331 
L 1856 0 
L 263 0 
z
" transform="scale(0.015625)"/>
       <path id="DejaVuSerif-67" d="M 3359 2988 
L 3359 72 
Q 3359 -644 2965 -1033 
Q 2572 -1422 1844 -1422 
Q 1516 -1422 1216 -1362 
Q 916 -1303 641 -1184 
L 641 -488 
L 941 -488 
Q 997 -813 1206 -963 
Q 1416 -1113 1806 -1113 
Q 2313 -1113 2548 -827 
Q 2784 -541 2784 72 
L 2784 519 
Q 2616 206 2355 57 
Q 2094 -91 1709 -91 
Q 1097 -91 708 395 
Q 319 881 319 1663 
Q 319 2444 706 2928 
Q 1094 3413 1709 3413 
Q 2094 3413 2355 3264 
Q 2616 3116 2784 2803 
L 2784 3322 
L 3909 3322 
L 3909 2988 
L 3359 2988 
z
M 2784 1825 
Q 2784 2422 2554 2737 
Q 2325 3053 1888 3053 
Q 1444 3053 1217 2703 
Q 991 2353 991 1663 
Q 991 975 1217 622 
Q 1444 269 1888 269 
Q 2325 269 2554 583 
Q 2784 897 2784 1497 
L 2784 1825 
z
" transform="scale(0.015625)"/>
       <path id="DejaVuSerif-20" transform="scale(0.015625)"/>
       <path id="DejaVuSerif-64" d="M 3359 331 
L 3909 331 
L 3909 0 
L 2784 0 
L 2784 519 
Q 2616 206 2355 57 
Q 2094 -91 1709 -91 
Q 1097 -91 708 395 
Q 319 881 319 1663 
Q 319 2444 706 2928 
Q 1094 3413 1709 3413 
Q 2094 3413 2355 3264 
Q 2616 3116 2784 2803 
L 2784 4531 
L 2241 4531 
L 2241 4863 
L 3359 4863 
L 3359 331 
z
M 2784 1497 
L 2784 1825 
Q 2784 2422 2554 2737 
Q 2325 3053 1888 3053 
Q 1444 3053 1217 2703 
Q 991 2353 991 1663 
Q 991 975 1217 622 
Q 1444 269 1888 269 
Q 2325 269 2554 583 
Q 2784 897 2784 1497 
z
" transform="scale(0.015625)"/>
       <path id="DejaVuSerif-65" d="M 3469 1600 
L 991 1600 
L 991 1575 
Q 991 903 1244 561 
Q 1497 219 1991 219 
Q 2369 219 2611 417 
Q 2853 616 2950 1006 
L 3413 1006 
Q 3275 459 2904 184 
Q 2534 -91 1931 -91 
Q 1203 -91 761 389 
Q 319 869 319 1663 
Q 319 2450 753 2931 
Q 1188 3413 1894 3413 
Q 2647 3413 3050 2948 
Q 3453 2484 3469 1600 
z
M 2791 1931 
Q 2772 2513 2545 2808 
Q 2319 3103 1894 3103 
Q 1497 3103 1269 2806 
Q 1041 2509 991 1931 
L 2791 1931 
z
" transform="scale(0.015625)"/>
       <path id="DejaVuSerif-73" d="M 359 184 
L 359 959 
L 691 959 
Q 703 588 923 403 
Q 1144 219 1575 219 
Q 1963 219 2166 364 
Q 2369 509 2369 788 
Q 2369 1006 2220 1140 
Q 2072 1275 1594 1428 
L 1178 1569 
Q 750 1706 558 1912 
Q 366 2119 366 2438 
Q 366 2894 700 3153 
Q 1034 3413 1625 3413 
Q 1888 3413 2178 3344 
Q 2469 3275 2778 3144 
L 2778 2419 
L 2447 2419 
Q 2434 2741 2221 2922 
Q 2009 3103 1644 3103 
Q 1281 3103 1095 2975 
Q 909 2847 909 2591 
Q 909 2381 1050 2254 
Q 1191 2128 1613 1997 
L 2069 1856 
Q 2541 1709 2748 1489 
Q 2956 1269 2956 922 
Q 2956 450 2595 179 
Q 2234 -91 1600 -91 
Q 1278 -91 972 -22 
Q 666 47 359 184 
z
" transform="scale(0.015625)"/>
       <path id="DejaVuSerif-79" d="M 1381 -609 
L 1600 -56 
L 359 2988 
L -19 2988 
L -19 3322 
L 1509 3322 
L 1509 2988 
L 978 2988 
L 1913 703 
L 2847 2988 
L 2350 2988 
L 2350 3322 
L 3597 3322 
L 3597 2988 
L 3225 2988 
L 1703 -750 
Q 1547 -1138 1356 -1280 
Q 1166 -1422 819 -1422 
Q 672 -1422 517 -1397 
Q 363 -1372 206 -1325 
L 206 -691 
L 500 -691 
Q 519 -903 608 -995 
Q 697 -1088 884 -1088 
Q 1056 -1088 1161 -992 
Q 1266 -897 1381 -609 
z
" transform="scale(0.015625)"/>
       <path id="DejaVuSerif-28" d="M 2041 -997 
Q 1281 -656 893 83 
Q 506 822 506 1931 
Q 506 3044 893 3783 
Q 1281 4522 2041 4863 
L 2041 4556 
Q 1559 4225 1350 3623 
Q 1141 3022 1141 1931 
Q 1141 844 1350 242 
Q 1559 -359 2041 -691 
L 2041 -997 
z
" transform="scale(0.015625)"/>
       <path id="DejaVuSerif-66" d="M 2753 4078 
L 2450 4078 
Q 2447 4313 2317 4434 
Q 2188 4556 1941 4556 
Q 1619 4556 1487 4379 
Q 1356 4203 1356 3750 
L 1356 3322 
L 2284 3322 
L 2284 2988 
L 1356 2988 
L 1356 331 
L 2094 331 
L 2094 0 
L 231 0 
L 231 331 
L 781 331 
L 781 2988 
L 231 2988 
L 231 3322 
L 781 3322 
L 781 3738 
Q 781 4294 1070 4578 
Q 1359 4863 1919 4863 
Q 2128 4863 2337 4825 
Q 2547 4788 2753 4709 
L 2753 4078 
z
" transform="scale(0.015625)"/>
       <path id="DejaVuSerif-68" d="M 263 0 
L 263 331 
L 781 331 
L 781 4531 
L 231 4531 
L 231 4863 
L 1356 4863 
L 1356 2731 
Q 1516 3069 1770 3241 
Q 2025 3413 2363 3413 
Q 2913 3413 3172 3097 
Q 3431 2781 3431 2113 
L 3431 331 
L 3944 331 
L 3944 0 
L 2356 0 
L 2356 331 
L 2853 331 
L 2853 1931 
Q 2853 2541 2704 2764 
Q 2556 2988 2175 2988 
Q 1775 2988 1565 2697 
Q 1356 2406 1356 1850 
L 1356 331 
L 1856 331 
L 1856 0 
L 263 0 
z
" transform="scale(0.015625)"/>
       <path id="DejaVuSerif-2f" d="M 1656 4666 
L 2156 4666 
L 500 -594 
L 0 -594 
L 1656 4666 
z
" transform="scale(0.015625)"/>
       <path id="DejaVuSerif-61" d="M 2547 1044 
L 2547 1747 
L 1806 1747 
Q 1378 1747 1168 1562 
Q 959 1378 959 997 
Q 959 650 1171 447 
Q 1384 244 1747 244 
Q 2106 244 2326 466 
Q 2547 688 2547 1044 
z
M 3122 2075 
L 3122 331 
L 3634 331 
L 3634 0 
L 2547 0 
L 2547 359 
Q 2356 128 2106 18 
Q 1856 -91 1522 -91 
Q 969 -91 644 203 
Q 319 497 319 997 
Q 319 1513 691 1797 
Q 1063 2081 1741 2081 
L 2547 2081 
L 2547 2309 
Q 2547 2688 2317 2895 
Q 2088 3103 1672 3103 
Q 1328 3103 1125 2947 
Q 922 2791 872 2484 
L 575 2484 
L 575 3156 
Q 875 3284 1158 3348 
Q 1441 3413 1709 3413 
Q 2400 3413 2761 3070 
Q 3122 2728 3122 2075 
z
" transform="scale(0.015625)"/>
       <path id="DejaVuSerif-29" d="M 453 -997 
L 453 -691 
Q 934 -359 1145 242 
Q 1356 844 1356 1931 
Q 1356 3022 1145 3623 
Q 934 4225 453 4556 
L 453 4863 
Q 1216 4522 1603 3783 
Q 1991 3044 1991 1931 
Q 1991 822 1603 83 
Q 1216 -656 453 -997 
z
" transform="scale(0.015625)"/>
      </defs>
      <use xlink:href="#DejaVuSerif-53"/>
      <use xlink:href="#DejaVuSerif-74" transform="translate(68.505859 0)"/>
      <use xlink:href="#DejaVuSerif-6f" transform="translate(108.691406 0)"/>
      <use xlink:href="#DejaVuSerif-63" transform="translate(168.896484 0)"/>
      <use xlink:href="#DejaVuSerif-6b" transform="translate(224.902344 0)"/>
      <use xlink:href="#DejaVuSerif-69" transform="translate(285.498047 0)"/>
      <use xlink:href="#DejaVuSerif-6e" transform="translate(317.480469 0)"/>
      <use xlink:href="#DejaVuSerif-67" transform="translate(381.884766 0)"/>
      <use xlink:href="#DejaVuSerif-20" transform="translate(445.898438 0)"/>
      <use xlink:href="#DejaVuSerif-64" transform="translate(477.685547 0)"/>
      <use xlink:href="#DejaVuSerif-65" transform="translate(541.699219 0)"/>
      <use xlink:href="#DejaVuSerif-6e" transform="translate(600.878906 0)"/>
      <use xlink:href="#DejaVuSerif-73" transform="translate(665.283203 0)"/>
      <use xlink:href="#DejaVuSerif-69" transform="translate(716.601562 0)"/>
      <use xlink:href="#DejaVuSerif-74" transform="translate(748.583984 0)"/>
      <use xlink:href="#DejaVuSerif-79" transform="translate(788.769531 0)"/>
      <use xlink:href="#DejaVuSerif-20" transform="translate(845.263672 0)"/>
      <use xlink:href="#DejaVuSerif-28" transform="translate(877.050781 0)"/>
      <use xlink:href="#DejaVuSerif-66" transform="translate(916.064453 0)"/>
      <use xlink:href="#DejaVuSerif-69" transform="translate(953.076172 0)"/>
      <use xlink:href="#DejaVuSerif-73" transform="translate(985.058594 0)"/>
      <use xlink:href="#DejaVuSerif-68" transform="translate(1036.376953 0)"/>
      <use xlink:href="#DejaVuSerif-2f" transform="translate(1100.78125 0)"/>
      <use xlink:href="#DejaVuSerif-74" transform="translate(1134.472656 0)"/>
      <use xlink:href="#DejaVuSerif-61" transform="translate(1174.658203 0)"/>
      <use xlink:href="#DejaVuSerif-6e" transform="translate(1234.277344 0)"/>
      <use xlink:href="#DejaVuSerif-6b" transform="translate(1298.681641 0)"/>
      <use xlink:href="#DejaVuSerif-29" transform="translate(1359.277344 0)"/>
     </g>
    </g>
   </g>
   <g id="matplotlib.axis_2">
    <g id="ytick_1">
     <g id="line2d_17">
      <path d="M 29.91375 244.648047 
L 460.17375 244.648047 
" clip-path="url(#p3a105eac38)" style="fill: none; stroke: #cccccc; stroke-width: 0.8; stroke-linecap: round"/>
     </g>
     <g id="line2d_18"/>
    </g>
    <g id="ytick_2">
     <g id="line2d_19">
      <path d="M 29.91375 196.087778 
L 460.17375 196.087778 
" clip-path="url(#p3a105eac38)" style="fill: none; stroke: #cccccc; stroke-width: 0.8; stroke-linecap: round"/>
     </g>
     <g id="line2d_20"/>
    </g>
    <g id="ytick_3">
     <g id="line2d_21">
      <path d="M 29.91375 147.527508 
L 460.17375 147.527508 
" clip-path="url(#p3a105eac38)" style="fill: none; stroke: #cccccc; stroke-width: 0.8; stroke-linecap: round"/>
     </g>
     <g id="line2d_22"/>
    </g>
    <g id="ytick_4">
     <g id="line2d_23">
      <path d="M 29.91375 98.967239 
L 460.17375 98.967239 
" clip-path="url(#p3a105eac38)" style="fill: none; stroke: #cccccc; stroke-width: 0.8; stroke-linecap: round"/>
     </g>
     <g id="line2d_24"/>
    </g>
    <g id="ytick_5">
     <g id="line2d_25">
      <path d="M 29.91375 50.40697 
L 460.17375 50.40697 
" clip-path="url(#p3a105eac38)" style="fill: none; stroke: #cccccc; stroke-width: 0.8; stroke-linecap: round"/>
     </g>
     <g id="line2d_26"/>
    </g>
    <g id="text_2">
     <!-- Profit -->
     <g style="fill: #262626" transform="translate(19.918125 163.078125) rotate(-90) scale(0.12 -0.12)">
      <defs>
       <path id="DejaVuSerif-50" d="M 1581 2375 
L 2406 2375 
Q 2872 2375 3115 2626 
Q 3359 2878 3359 3353 
Q 3359 3831 3115 4081 
Q 2872 4331 2406 4331 
L 1581 4331 
L 1581 2375 
z
M 353 0 
L 353 331 
L 947 331 
L 947 4331 
L 353 4331 
L 353 4666 
L 2559 4666 
Q 3259 4666 3668 4311 
Q 4078 3956 4078 3353 
Q 4078 2753 3668 2397 
Q 3259 2041 2559 2041 
L 1581 2041 
L 1581 331 
L 2303 331 
L 2303 0 
L 353 0 
z
" transform="scale(0.015625)"/>
       <path id="DejaVuSerif-72" d="M 3059 3328 
L 3059 2497 
L 2728 2497 
Q 2713 2744 2591 2866 
Q 2469 2988 2234 2988 
Q 1809 2988 1582 2694 
Q 1356 2400 1356 1850 
L 1356 331 
L 2022 331 
L 2022 0 
L 263 0 
L 263 331 
L 781 331 
L 781 2994 
L 231 2994 
L 231 3322 
L 1356 3322 
L 1356 2731 
Q 1525 3078 1790 3245 
Q 2056 3413 2438 3413 
Q 2578 3413 2733 3391 
Q 2888 3369 3059 3328 
z
" transform="scale(0.015625)"/>
      </defs>
      <use xlink:href="#DejaVuSerif-50"/>
      <use xlink:href="#DejaVuSerif-72" transform="translate(67.285156 0)"/>
      <use xlink:href="#DejaVuSerif-6f" transform="translate(115.087891 0)"/>
      <use xlink:href="#DejaVuSerif-66" transform="translate(175.292969 0)"/>
      <use xlink:href="#DejaVuSerif-69" transform="translate(212.304688 0)"/>
      <use xlink:href="#DejaVuSerif-74" transform="translate(244.287109 0)"/>
     </g>
    </g>
   </g>
   <g id="line2d_27">
    <path d="M 49.471023 268.928182 
L 57.320095 253.820078 
L 65.169168 239.191053 
L 73.018241 225.041107 
L 80.867313 211.370241 
L 88.716386 198.178453 
L 96.565459 185.465745 
L 104.414531 173.232116 
L 112.263604 161.477566 
L 118.804498 152.048071 
L 125.345392 142.95127 
L 131.886286 134.187163 
L 138.42718 125.75575 
L 144.968074 117.65703 
L 151.508967 109.891005 
L 158.049861 102.457673 
L 164.590755 95.357035 
L 171.131649 88.589091 
L 177.672543 82.153841 
L 184.213437 76.051285 
L 190.754331 70.281423 
L 197.295225 64.844254 
L 203.836119 59.73978 
L 210.377012 54.967999 
L 216.917906 50.528912 
L 222.150621 47.217182 
L 227.383337 44.118377 
L 232.616052 41.232495 
L 237.848767 38.559537 
L 243.081482 36.099504 
L 248.314197 33.852394 
L 253.546912 31.818209 
L 258.779627 29.996947 
L 264.012342 28.38861 
L 269.245057 26.993197 
L 274.477772 25.810708 
L 279.710488 24.841143 
L 284.943203 24.084502 
L 290.175918 23.540785 
L 295.408633 23.209992 
L 300.641348 23.092124 
L 305.874063 23.187179 
L 311.106778 23.495159 
L 316.339493 24.016062 
L 321.572208 24.74989 
L 326.804924 25.696641 
L 332.037639 26.856317 
L 337.270354 28.228917 
L 342.503069 29.814441 
L 347.735784 31.612889 
L 352.968499 33.624261 
L 358.201214 35.848557 
L 363.433929 38.285778 
L 368.666644 40.935922 
L 373.89936 43.79899 
L 379.132075 46.874983 
L 384.36479 50.163899 
L 389.597505 53.66574 
L 396.138399 58.342465 
L 402.679293 63.351885 
L 409.220187 68.693998 
L 415.76108 74.368805 
L 422.301974 80.376305 
L 428.842868 86.7165 
L 435.383762 93.389389 
L 440.616477 98.967239 
L 440.616477 98.967239 
" clip-path="url(#p3a105eac38)" style="fill: none; stroke: #0d9488; stroke-width: 2.5; stroke-linecap: round"/>
   </g>
   <g id="line2d_28">
    <path d="M 49.471023 281.22 
L 49.471023 10.8 
" clip-path="url(#p3a105eac38)" style="fill: none; stroke-dasharray: 1.5,2.475; stroke-dashoffset: 0; stroke: #f59e0b; stroke-width: 1.5"/>
   </g>
   <g id="line2d_29">
    <path d="M 440.616477 281.22 
L 440.616477 10.8 
" clip-path="url(#p3a105eac38)" style="fill: none; stroke-dasharray: 1.5,2.475; stroke-dashoffset: 0; stroke: #f59e0b; stroke-width: 1.5"/>
   </g>
   <g id="line2d_30">
    <path d="M 29.91375 196.087778 
L 460.17375 196.087778 
" clip-path="url(#p3a105eac38)" style="fill: none; stroke: #000000; stroke-width: 0.5; stroke-linecap: round"/>
   </g>
   <g id="patch_3">
    <path d="M 29.91375 281.22 
L 29.91375 10.8 
" style="fill: none; stroke: #cccccc; stroke-linejoin: miter; stroke-linecap: square"/>
   </g>
   <g id="patch_4">
    <path d="M 460.17375 281.22 
L 460.17375 10.8 
" style="fill: none; stroke: #cccccc; stroke-linejoin: miter; stroke-linecap: square"/>
   </g>
   <g id="patch_5">
    <path d="M 29.91375 281.22 
L 460.17375 281.22 
" style="fill: none; stroke: #cccccc; stroke-linejoin: miter; stroke-linecap: square"/>
   </g>
   <g id="patch_6">
    <path d="M 29.91375 10.8 
L 460.17375 10.8 
" style="fill: none; stroke: #cccccc; stroke-linejoin: miter; stroke-linecap: square"/>
   </g>
   <g id="patch_7">
    <path d="M 336.045374 26.388118 
Q 319.480381 24.833521 304.028531 23.383392 
" style="fill: none; stroke: #dc2626; stroke-linecap: round"/>
    <path d="M 307.444593 25.511893 
L 304.028531 23.383392 
L 307.780969 21.927642 
" style="fill: none; stroke: #dc2626; stroke-linecap: round"/>
   </g>
   <g id="text_3">
    <!-- Optimal density? -->
    <g style="fill: #262626" transform="translate(340.036218 32.803872) scale(0.09 -0.09)">
     <defs>
      <path id="DejaVuSerif-Italic-4f" d="M 2219 244 
Q 2984 244 3478 770 
Q 3972 1297 4172 2328 
Q 4372 3363 4084 3889 
Q 3797 4416 3031 4416 
Q 2263 4416 1769 3889 
Q 1275 3363 1075 2328 
Q 875 1297 1162 770 
Q 1450 244 2219 244 
z
M 2153 -91 
Q 1678 -91 1311 65 
Q 944 222 700 525 
Q 419 875 334 1319 
Q 250 1763 359 2328 
Q 469 2894 725 3339 
Q 981 3784 1400 4134 
Q 1766 4441 2191 4595 
Q 2616 4750 3097 4750 
Q 4113 4750 4608 4084 
Q 5103 3419 4891 2328 
Q 4781 1769 4522 1320 
Q 4263 872 3847 525 
Q 3481 219 3056 64 
Q 2631 -91 2153 -91 
z
" transform="scale(0.015625)"/>
      <path id="DejaVuSerif-Italic-70" d="M 1466 1825 
L 1400 1497 
Q 1353 1250 1353 1053 
Q 1353 769 1453 581 
Q 1622 269 2059 269 
Q 2500 269 2795 622 
Q 3091 975 3225 1663 
Q 3284 1978 3284 2225 
Q 3284 2513 3200 2703 
Q 3041 3053 2600 3053 
Q 2163 3053 1872 2737 
Q 1581 2422 1466 1825 
z
M 1116 2988 
L 563 2988 
L 628 3322 
L 1756 3322 
L 1656 2803 
Q 1884 3116 2175 3264 
Q 2466 3413 2850 3413 
Q 3463 3413 3753 2928 
Q 3947 2609 3947 2163 
Q 3947 1928 3897 1663 
Q 3744 881 3262 395 
Q 2781 -91 2169 -91 
Q 1784 -91 1551 57 
Q 1319 206 1213 519 
L 850 -1331 
L 275 -1331 
L 1116 2988 
z
" transform="scale(0.015625)"/>
      <path id="DejaVuSerif-Italic-74" d="M 856 2988 
L 350 2988 
L 416 3322 
L 922 3322 
L 1122 4353 
L 1700 4353 
L 1500 3322 
L 2581 3322 
L 2516 2988 
L 1434 2988 
L 1025 878 
Q 978 631 978 488 
Q 978 388 1000 338 
Q 1059 219 1278 219 
Q 1503 219 1633 351 
Q 1763 484 1825 781 
L 2259 781 
Q 2147 328 1884 118 
Q 1622 -91 1169 -91 
Q 672 -91 506 131 
Q 406 266 406 516 
Q 406 675 447 878 
L 856 2988 
z
" transform="scale(0.015625)"/>
      <path id="DejaVuSerif-Italic-69" d="M 1009 4353 
Q 1038 4497 1163 4603 
Q 1288 4709 1434 4709 
Q 1578 4709 1663 4603 
Q 1728 4522 1728 4422 
Q 1728 4388 1719 4353 
Q 1691 4206 1567 4103 
Q 1444 4000 1297 4000 
Q 1150 4000 1066 4103 
Q 1003 4181 1003 4281 
Q 1003 4316 1009 4353 
z
M 963 331 
L 1506 331 
L 1444 0 
L 325 0 
L 903 2988 
L 353 2988 
L 419 3322 
L 1544 3322 
L 963 331 
z
" transform="scale(0.015625)"/>
      <path id="DejaVuSerif-Italic-6d" d="M 3503 2675 
Q 3741 3041 4034 3227 
Q 4328 3413 4672 3413 
Q 5194 3413 5388 3088 
Q 5503 2894 5503 2578 
Q 5503 2372 5453 2113 
L 5106 331 
L 5625 331 
L 5563 0 
L 4469 0 
L 4866 2047 
Q 4913 2291 4913 2466 
Q 4913 2659 4856 2772 
Q 4750 2988 4403 2988 
Q 4019 2988 3761 2697 
Q 3503 2406 3394 1850 
L 3034 0 
L 2459 0 
L 2863 2069 
Q 2906 2303 2906 2472 
Q 2906 2666 2850 2775 
Q 2741 2988 2394 2988 
Q 2009 2988 1751 2697 
Q 1494 2406 1384 1850 
L 1025 0 
L 450 0 
L 1031 2994 
L 481 2994 
L 544 3322 
L 1669 3322 
L 1556 2731 
Q 1778 3063 2059 3238 
Q 2341 3413 2653 3413 
Q 3041 3413 3262 3220 
Q 3484 3028 3503 2675 
z
" transform="scale(0.015625)"/>
      <path id="DejaVuSerif-Italic-61" d="M 2325 519 
Q 1909 -91 1238 -91 
Q 688 -91 409 281 
Q 216 544 216 919 
Q 216 1078 250 1256 
Q 463 2359 1231 2928 
Q 1884 3413 2675 3413 
Q 3206 3413 3388 3322 
L 2806 331 
L 3300 331 
L 3238 0 
L 2225 0 
L 2325 519 
z
M 822 938 
Q 822 269 1469 269 
Q 1863 269 2130 583 
Q 2397 897 2516 1497 
L 2806 3003 
L 2806 3003 
Q 2806 3094 2556 3094 
Q 1956 3094 1491 2625 
Q 1028 2153 863 1297 
Q 822 1097 822 938 
z
" transform="scale(0.015625)"/>
      <path id="DejaVuSerif-Italic-6c" d="M 903 331 
L 1447 331 
L 1384 0 
L 266 0 
L 1147 4531 
L 594 4531 
L 656 4863 
L 1784 4863 
L 903 331 
z
" transform="scale(0.015625)"/>
      <path id="DejaVuSerif-Italic-20" transform="scale(0.015625)"/>
      <path id="DejaVuSerif-Italic-64" d="M 3841 4863 
L 2897 0 
L 2322 0 
L 2422 519 
Q 2191 206 1902 57 
Q 1613 -91 1228 -91 
Q 616 -91 322 394 
Q 125 716 125 1166 
Q 125 1397 178 1663 
Q 331 2444 812 2928 
Q 1294 3413 1909 3413 
Q 2294 3413 2525 3264 
Q 2756 3116 2866 2803 
L 3200 4531 
L 2656 4531 
L 2722 4863 
L 3841 4863 
z
M 2613 1497 
L 2675 1825 
Q 2722 2069 2722 2266 
Q 2722 2550 2622 2738 
Q 2456 3053 2019 3053 
Q 1575 3053 1279 2703 
Q 984 2353 850 1663 
Q 788 1347 788 1103 
Q 788 813 875 622 
Q 1031 269 1475 269 
Q 1913 269 2203 583 
Q 2494 897 2613 1497 
z
" transform="scale(0.015625)"/>
      <path id="DejaVuSerif-Italic-65" d="M 938 1275 
Q 925 1156 925 1050 
Q 925 756 1031 563 
Q 1216 219 1709 219 
Q 2072 219 2250 328 
Q 2569 525 2644 778 
L 3066 778 
Q 2941 381 2475 103 
Q 2150 -91 1506 -91 
Q 863 -91 516 388 
Q 272 722 272 1206 
Q 272 1419 319 1659 
Q 472 2450 1000 2931 
Q 1528 3413 2278 3413 
Q 3500 3413 3500 2547 
Q 3500 1913 2859 1603 
Q 2206 1288 938 1275 
z
M 2541 1975 
Q 2891 2181 2891 2569 
Q 2891 3103 2181 3103 
Q 1763 3103 1472 2784 
Q 1181 2466 1003 1606 
Q 2006 1653 2541 1975 
z
" transform="scale(0.015625)"/>
      <path id="DejaVuSerif-Italic-6e" d="M 450 0 
L 1031 2988 
L 481 2988 
L 544 3322 
L 1669 3322 
L 1556 2731 
Q 1781 3069 2068 3241 
Q 2356 3413 2694 3413 
Q 3244 3413 3444 3097 
Q 3563 2906 3563 2588 
Q 3563 2378 3509 2113 
L 3163 331 
L 3675 331 
L 3613 0 
L 2522 0 
L 2897 1931 
Q 2959 2253 2959 2469 
Q 2959 2659 2909 2769 
Q 2803 2994 2425 2994 
Q 2025 2994 1759 2701 
Q 1494 2409 1384 1850 
L 1025 0 
L 450 0 
z
" transform="scale(0.015625)"/>
      <path id="DejaVuSerif-Italic-73" d="M 222 959 
L 553 959 
Q 541 869 541 788 
Q 541 219 1313 219 
Q 2088 219 2200 788 
Q 2209 844 2209 944 
Q 2209 1041 2103 1158 
Q 1997 1275 1550 1428 
L 1159 1569 
Q 759 1706 629 1882 
Q 500 2059 500 2263 
Q 500 2344 516 2438 
Q 606 2894 990 3153 
Q 1375 3413 1931 3413 
Q 2484 3413 3066 3144 
L 2925 2419 
L 2594 2419 
Q 2606 2491 2606 2553 
Q 2606 2781 2448 2942 
Q 2291 3103 1925 3103 
Q 1191 3103 1091 2591 
Q 1078 2538 1078 2444 
Q 1078 2347 1179 2237 
Q 1281 2128 1678 1997 
L 2106 1856 
Q 2550 1709 2716 1488 
Q 2831 1331 2831 1178 
Q 2831 522 2306 181 
Q 1894 -91 1262 -91 
Q 631 -91 72 184 
L 222 959 
z
" transform="scale(0.015625)"/>
      <path id="DejaVuSerif-Italic-79" d="M 3681 3294 
Q 3372 1506 2828 563 
Q 2031 -822 1391 -1238 
Q 1106 -1422 356 -1422 
Q 209 -1422 60 -1397 
Q -88 -1372 -238 -1325 
L -113 -691 
L 181 -691 
Q 175 -741 175 -788 
Q 175 -919 231 -994 
Q 309 -1100 513 -1100 
Q 1063 -1100 1541 -622 
L 756 2988 
L 378 2988 
L 444 3322 
L 1303 3322 
L 2041 25 
Q 2544 778 2666 1088 
Q 3059 2059 3138 2959 
L 2759 2959 
L 2825 3294 
L 3681 3294 
z
" transform="scale(0.015625)"/>
      <path id="DejaVuSerif-Italic-3f" d="M 797 29 
Q 700 150 734 325 
Q 769 500 912 622 
Q 1056 744 1234 744 
Q 1406 744 1504 622 
Q 1603 500 1569 325 
Q 1538 153 1391 31 
Q 1244 -91 1072 -91 
Q 894 -91 797 29 
z
M 847 4459 
Q 1209 4606 1521 4678 
Q 1834 4750 2097 4750 
Q 2791 4750 3127 4415 
Q 3463 4081 3353 3513 
Q 3238 2931 2822 2562 
Q 2406 2194 1678 2034 
L 1522 1241 
L 1138 1241 
L 1338 2266 
Q 1916 2400 2258 2715 
Q 2600 3031 2694 3519 
Q 2778 3947 2597 4194 
Q 2416 4441 2022 4441 
Q 1666 4441 1400 4236 
Q 1134 4031 994 3647 
L 691 3647 
L 847 4459 
z
" transform="scale(0.015625)"/>
     </defs>
     <use xlink:href="#DejaVuSerif-Italic-4f"/>
     <use xlink:href="#DejaVuSerif-Italic-70" transform="translate(81.982422 0)"/>
     <use xlink:href="#DejaVuSerif-Italic-74" transform="translate(145.996094 0)"/>
     <use xlink:href="#DejaVuSerif-Italic-69" transform="translate(186.181641 0)"/>
     <use xlink:href="#DejaVuSerif-Italic-6d" transform="translate(218.164062 0)"/>
     <use xlink:href="#DejaVuSerif-Italic-61" transform="translate(312.988281 0)"/>
     <use xlink:href="#DejaVuSerif-Italic-6c" transform="translate(372.607422 0)"/>
     <use xlink:href="#DejaVuSerif-Italic-20" transform="translate(404.589844 0)"/>
     <use xlink:href="#DejaVuSerif-Italic-64" transform="translate(436.376953 0)"/>
     <use xlink:href="#DejaVuSerif-Italic-65" transform="translate(500.390625 0)"/>
     <use xlink:href="#DejaVuSerif-Italic-6e" transform="translate(559.570312 0)"/>
     <use xlink:href="#DejaVuSerif-Italic-73" transform="translate(623.974609 0)"/>
     <use xlink:href="#DejaVuSerif-Italic-69" transform="translate(675.292969 0)"/>
     <use xlink:href="#DejaVuSerif-Italic-74" transform="translate(707.275391 0)"/>
     <use xlink:href="#DejaVuSerif-Italic-79" transform="translate(747.460938 0)"/>
     <use xlink:href="#DejaVuSerif-Italic-3f" transform="translate(803.955078 0)"/>
    </g>
   </g>
   <g id="line2d_31">
    <defs>
     <path id="mf5304a1a4f" d="M 0 -7.5 
L -1.683855 -2.317627 
L -7.132924 -2.317627 
L -2.724534 0.885255 
L -4.408389 6.067627 
L -0 2.864745 
L 4.408389 6.067627 
L 2.724534 0.885255 
L 7.132924 -2.317627 
L 1.683855 -2.317627 
z
" style="stroke: #dc2626; stroke-linejoin: bevel"/>
    </defs>
    <g clip-path="url(#p3a105eac38)">
     <use xlink:href="#mf5304a1a4f" x="300.921672" y="23.091818" style="fill: #dc2626; stroke: #dc2626; stroke-linejoin: bevel"/>
    </g>
   </g>
   <g id="legend_1">
    <g id="line2d_32">
     <path d="M 209.1325 245.84375 
L 217.1325 245.84375 
L 225.1325 245.84375 
" style="fill: none; stroke: #0d9488; stroke-width: 2.5; stroke-linecap: round"/>
    </g>
    <g id="text_4">
     <!-- Profit P(d) -->
     <g style="fill: #262626" transform="translate(231.5325 248.64375) scale(0.08 -0.08)">
      <use xlink:href="#DejaVuSerif-50"/>
      <use xlink:href="#DejaVuSerif-72" transform="translate(67.285156 0)"/>
      <use xlink:href="#DejaVuSerif-6f" transform="translate(115.087891 0)"/>
      <use xlink:href="#DejaVuSerif-66" transform="translate(175.292969 0)"/>
      <use xlink:href="#DejaVuSerif-69" transform="translate(212.304688 0)"/>
      <use xlink:href="#DejaVuSerif-74" transform="translate(244.287109 0)"/>
      <use xlink:href="#DejaVuSerif-20" transform="translate(284.472656 0)"/>
      <use xlink:href="#DejaVuSerif-50" transform="translate(316.259766 0)"/>
      <use xlink:href="#DejaVuSerif-28" transform="translate(383.544922 0)"/>
      <use xlink:href="#DejaVuSerif-64" transform="translate(422.558594 0)"/>
      <use xlink:href="#DejaVuSerif-29" transform="translate(486.572266 0)"/>
     </g>
    </g>
    <g id="line2d_33">
     <path d="M 209.1325 257.58625 
L 217.1325 257.58625 
L 225.1325 257.58625 
" style="fill: none; stroke-dasharray: 1.5,2.475; stroke-dashoffset: 0; stroke: #f59e0b; stroke-width: 1.5"/>
    </g>
    <g id="text_5">
     <!-- Min density -->
     <g style="fill: #262626" transform="translate(231.5325 260.38625) scale(0.08 -0.08)">
      <defs>
       <path id="DejaVuSerif-4d" d="M 353 0 
L 353 331 
L 947 331 
L 947 4331 
L 319 4331 
L 319 4666 
L 1678 4666 
L 3316 1344 
L 4953 4666 
L 6228 4666 
L 6228 4331 
L 5606 4331 
L 5606 331 
L 6203 331 
L 6203 0 
L 4378 0 
L 4378 331 
L 4972 331 
L 4972 3938 
L 3372 684 
L 2931 684 
L 1331 3938 
L 1331 331 
L 1925 331 
L 1925 0 
L 353 0 
z
" transform="scale(0.015625)"/>
      </defs>
      <use xlink:href="#DejaVuSerif-4d"/>
      <use xlink:href="#DejaVuSerif-69" transform="translate(102.392578 0)"/>
      <use xlink:href="#DejaVuSerif-6e" transform="translate(134.375 0)"/>
      <use xlink:href="#DejaVuSerif-20" transform="translate(198.779297 0)"/>
      <use xlink:href="#DejaVuSerif-64" transform="translate(230.566406 0)"/>
      <use xlink:href="#DejaVuSerif-65" transform="translate(294.580078 0)"/>
      <use xlink:href="#DejaVuSerif-6e" transform="translate(353.759766 0)"/>
      <use xlink:href="#DejaVuSerif-73" transform="translate(418.164062 0)"/>
      <use xlink:href="#DejaVuSerif-69" transform="translate(469.482422 0)"/>
      <use xlink:href="#DejaVuSerif-74" transform="translate(501.464844 0)"/>
      <use xlink:href="#DejaVuSerif-79" transform="translate(541.650391 0)"/>
     </g>
    </g>
    <g id="line2d_34">
     <path d="M 209.1325 269.4425 
L 217.1325 269.4425 
L 225.1325 269.4425 
" style="fill: none; stroke-dasharray: 1.5,2.475; stroke-dashoffset: 0; stroke: #f59e0b; stroke-width: 1.5"/>
    </g>
    <g id="text_6">
     <!-- Max density -->
     <g style="fill: #262626" transform="translate(231.5325 272.2425) scale(0.08 -0.08)">
      <defs>
       <path id="DejaVuSerif-78" d="M 1863 2028 
L 2559 2988 
L 2113 2988 
L 2113 3322 
L 3391 3322 
L 3391 2988 
L 2950 2988 
L 2059 1759 
L 3097 331 
L 3531 331 
L 3531 0 
L 1997 0 
L 1997 331 
L 2419 331 
L 1697 1325 
L 972 331 
L 1403 331 
L 1403 0 
L 141 0 
L 141 331 
L 581 331 
L 1497 1594 
L 488 2988 
L 78 2988 
L 78 3322 
L 1563 3322 
L 1563 2988 
L 1166 2988 
L 1863 2028 
z
" transform="scale(0.015625)"/>
      </defs>
      <use xlink:href="#DejaVuSerif-4d"/>
      <use xlink:href="#DejaVuSerif-61" transform="translate(102.392578 0)"/>
      <use xlink:href="#DejaVuSerif-78" transform="translate(162.011719 0)"/>
      <use xlink:href="#DejaVuSerif-20" transform="translate(218.408203 0)"/>
      <use xlink:href="#DejaVuSerif-64" transform="translate(250.195312 0)"/>
      <use xlink:href="#DejaVuSerif-65" transform="translate(314.208984 0)"/>
      <use xlink:href="#DejaVuSerif-6e" transform="translate(373.388672 0)"/>
      <use xlink:href="#DejaVuSerif-73" transform="translate(437.792969 0)"/>
      <use xlink:href="#DejaVuSerif-69" transform="translate(489.111328 0)"/>
      <use xlink:href="#DejaVuSerif-74" transform="translate(521.09375 0)"/>
      <use xlink:href="#DejaVuSerif-79" transform="translate(561.279297 0)"/>
     </g>
    </g>
   </g>
  </g>
 </g>
 <defs>
  <clipPath id="p3a105eac38">
   <rect x="29.91375" y="10.8" width="430.26" height="270.42"/>
  </clipPath>
 </defs>
</svg>
