<?xml version="1.0" encoding="utf-8" standalone="no"?>
<!DOCTYPE svg PUBLIC "-//W3C//DTD SVG 1.1//EN"
  "http://www.w3.org/Graphics/SVG/1.1/DTD/svg11.dtd">
<svg xmlns:xlink="http://www.w3.org/1999/xlink" width="840.15375pt" height="347.102344pt" viewBox="0 0 840.15375 347.102344" xmlns="http://www.w3.org/2000/svg" version="1.1">
 <metadata>
  <rdf:RDF xmlns:dc="http://purl.org/dc/elements/1.1/" xmlns:cc="http://creativecommons.org/ns#" xmlns:rdf="http://www.w3.org/1999/02/22-rdf-syntax-ns#">
   <cc:Work>
    <dc:type rdf:resource="http://purl.org/dc/dcmitype/StillImage"/>
    <dc:date>2026-02-19T08:27:11.939135</dc:date>
    <dc:format>image/svg+xml</dc:format>
    <dc:creator>
     <cc:Agent>
      <dc:title>Matplotlib v3.10.1, https://matplotlib.org/</dc:title>
     </cc:Agent>
    </dc:creator>
   </cc:Work>
  </rdf:RDF>
 </metadata>
 <defs>
  <style type="text/css">*{stroke-linejoin: round; stroke-linecap: butt}</style>
 </defs>
 <g id="figure_1">
  <g id="patch_1">
   <path d="M 0 347.102344 
L 840.15375 347.102344 
L 840.15375 0 
L 0 0 
z
" style="fill: #ffffff"/>
  </g>
  <g id="axes_1">
   <g id="patch_2">
    <path d="M 29.91375 317.017969 
L 401.53875 317.017969 
L 401.53875 26.677969 
L 29.91375 26.677969 
z
" style="fill: #ffffff"/>
   </g>
   <g id="matplotlib.axis_1">
    <g id="xtick_1">
     <g id="line2d_1">
      <path d="M 46.805795 317.017969 
L 46.805795 26.677969 
" clip-path="url(#p106064c5e2)" style="fill: none; stroke: #cccccc; stroke-width: 0.8; stroke-linecap: round"/>
     </g>
     <g id="line2d_2"/>
    </g>
    <g id="xtick_2">
     <g id="line2d_3">
      <path d="M 89.035909 317.017969 
L 89.035909 26.677969 
" clip-path="url(#p106064c5e2)" style="fill: none; stroke: #cccccc; stroke-width: 0.8; stroke-linecap: round"/>
     </g>
     <g id="line2d_4"/>
    </g>
    <g id="xtick_3">
     <g id="line2d_5">
      <path d="M 131.266023 317.017969 
L 131.266023 26.677969 
" clip-path="url(#p106064c5e2)" style="fill: none; stroke: #cccccc; stroke-width: 0.8; stroke-linecap: round"/>
     </g>
     <g id="line2d_6"/>
    </g>
    <g id="xtick_4">
     <g id="line2d_7">
      <path d="M 173.496136 317.017969 
L 173.496136 26.677969 
" clip-path="url(#p106064c5e2)" style="fill: none; stroke: #cccccc; stroke-width: 0.8; stroke-linecap: round"/>
     </g>
     <g id="line2d_8"/>
    </g>
    <g id="xtick_5">
     <g id="line2d_9">
      <path d="M 215.72625 317.017969 
L 215.72625 26.677969 
" clip-path="url(#p106064c5e2)" style="fill: none; stroke: #cccccc; stroke-width: 0.8; stroke-linecap: round"/>
     </g>
     <g id="line2d_10"/>
    </g>
    <g id="xtick_6">
     <g id="line2d_11">
      <path d="M 257.956364 317.017969 
L 257.956364 26.677969 
" clip-path="url(#p106064c5e2)" style="fill: none; stroke: #cccccc; stroke-width: 0.8; stroke-linecap: round"/>
     </g>
     <g id="line2d_12"/>
    </g>
    <g id="xtick_7">
     <g id="line2d_13">
      <path d="M 300.186477 317.017969 
L 300.186477 26.677969 
" clip-path="url(#p106064c5e2)" style="fill: none; stroke: #cccccc; stroke-width: 0.8; stroke-linecap: round"/>
     </g>
     <g id="line2d_14"/>
    </g>
    <g id="xtick_8">
     <g id="line2d_15">
      <path d="M 342.416591 317.017969 
L 342.416591 26.677969 
" clip-path="url(#p106064c5e2)" style="fill: none; stroke: #cccccc; stroke-width: 0.8; stroke-linecap: round"/>
     </g>
     <g id="line2d_16"/>
    </g>
    <g id="xtick_9">
     <g id="line2d_17">
      <path d="M 384.646705 317.017969 
L 384.646705 26.677969 
" clip-path="url(#p106064c5e2)" style="fill: none; stroke: #cccccc; stroke-width: 0.8; stroke-linecap: round"/>
     </g>
     <g id="line2d_18"/>
    </g>
    <g id="text_1">
     <!-- Time (years) -->
     <g style="fill: #262626" transform="translate(177.51 333.636094) scale(0.12 -0.12)">
      <defs>
       <path id="DejaVuSerif-54" d="M 1222 0 
L 1222 331 
L 1819 331 
L 1819 4294 
L 447 4294 
L 447 3566 
L 63 3566 
L 63 4666 
L 4206 4666 
L 4206 3566 
L 3822 3566 
L 3822 4294 
L 2450 4294 
L 2450 331 
L 3047 331 
L 3047 0 
L 1222 0 
z
" transform="scale(0.015625)"/>
       <path id="DejaVuSerif-69" d="M 622 4353 
Q 622 4497 726 4603 
Q 831 4709 978 4709 
Q 1122 4709 1226 4603 
Q 1331 4497 1331 4353 
Q 1331 4206 1228 4103 
Q 1125 4000 978 4000 
Q 831 4000 726 4103 
Q 622 4206 622 4353 
z
M 1356 331 
L 1900 331 
L 1900 0 
L 231 0 
L 231 331 
L 781 331 
L 781 2988 
L 231 2988 
L 231 3322 
L 1356 3322 
L 1356 331 
z
" transform="scale(0.015625)"/>
       <path id="DejaVuSerif-6d" d="M 3316 2675 
Q 3481 3041 3739 3227 
Q 3997 3413 4341 3413 
Q 4863 3413 5119 3089 
Q 5375 2766 5375 2113 
L 5375 331 
L 5894 331 
L 5894 0 
L 4300 0 
L 4300 331 
L 4800 331 
L 4800 2047 
Q 4800 2556 4650 2772 
Q 4500 2988 4153 2988 
Q 3769 2988 3567 2697 
Q 3366 2406 3366 1850 
L 3366 331 
L 3866 331 
L 3866 0 
L 2291 0 
L 2291 331 
L 2791 331 
L 2791 2069 
Q 2791 2566 2641 2777 
Q 2491 2988 2144 2988 
Q 1759 2988 1557 2697 
Q 1356 2406 1356 1850 
L 1356 331 
L 1856 331 
L 1856 0 
L 263 0 
L 263 331 
L 781 331 
L 781 2994 
L 231 2994 
L 231 3322 
L 1356 3322 
L 1356 2731 
Q 1516 3063 1762 3238 
Q 2009 3413 2322 3413 
Q 2709 3413 2968 3220 
Q 3228 3028 3316 2675 
z
" transform="scale(0.015625)"/>
       <path id="DejaVuSerif-65" d="M 3469 1600 
L 991 1600 
L 991 1575 
Q 991 903 1244 561 
Q 1497 219 1991 219 
Q 2369 219 2611 417 
Q 2853 616 2950 1006 
L 3413 1006 
Q 3275 459 2904 184 
Q 2534 -91 1931 -91 
Q 1203 -91 761 389 
Q 319 869 319 1663 
Q 319 2450 753 2931 
Q 1188 3413 1894 3413 
Q 2647 3413 3050 2948 
Q 3453 2484 3469 1600 
z
M 2791 1931 
Q 2772 2513 2545 2808 
Q 2319 3103 1894 3103 
Q 1497 3103 1269 2806 
Q 1041 2509 991 1931 
L 2791 1931 
z
" transform="scale(0.015625)"/>
       <path id="DejaVuSerif-20" transform="scale(0.015625)"/>
       <path id="DejaVuSerif-28" d="M 2041 -997 
Q 1281 -656 893 83 
Q 506 822 506 1931 
Q 506 3044 893 3783 
Q 1281 4522 2041 4863 
L 2041 4556 
Q 1559 4225 1350 3623 
Q 1141 3022 1141 1931 
Q 1141 844 1350 242 
Q 1559 -359 2041 -691 
L 2041 -997 
z
" transform="scale(0.015625)"/>
       <path id="DejaVuSerif-79" d="M 1381 -609 
L 1600 -56 
L 359 2988 
L -19 2988 
L -19 3322 
L 1509 3322 
L 1509 2988 
L 978 2988 
L 1913 703 
L 2847 2988 
L 2350 2988 
L 2350 3322 
L 3597 3322 
L 3597 2988 
L 3225 2988 
L 1703 -750 
Q 1547 -1138 1356 -1280 
Q 1166 -1422 819 -1422 
Q 672 -1422 517 -1397 
Q 363 -1372 206 -1325 
L 206 -691 
L 500 -691 
Q 519 -903 608 -995 
Q 697 -1088 884 -1088 
Q 1056 -1088 1161 -992 
Q 1266 -897 1381 -609 
z
" transform="scale(0.015625)"/>
       <path id="DejaVuSerif-61" d="M 2547 1044 
L 2547 1747 
L 1806 1747 
Q 1378 1747 1168 1562 
Q 959 1378 959 997 
Q 959 650 1171 447 
Q 1384 244 1747 244 
Q 2106 244 2326 466 
Q 2547 688 2547 1044 
z
M 3122 2075 
L 3122 331 
L 3634 331 
L 3634 0 
L 2547 0 
L 2547 359 
Q 2356 128 2106 18 
Q 1856 -91 1522 -91 
Q 969 -91 644 203 
Q 319 497 319 997 
Q 319 1513 691 1797 
Q 1063 2081 1741 2081 
L 2547 2081 
L 2547 2309 
Q 2547 2688 2317 2895 
Q 2088 3103 1672 3103 
Q 1328 3103 1125 2947 
Q 922 2791 872 2484 
L 575 2484 
L 575 3156 
Q 875 3284 1158 3348 
Q 1441 3413 1709 3413 
Q 2400 3413 2761 3070 
Q 3122 2728 3122 2075 
z
" transform="scale(0.015625)"/>
       <path id="DejaVuSerif-72" d="M 3059 3328 
L 3059 2497 
L 2728 2497 
Q 2713 2744 2591 2866 
Q 2469 2988 2234 2988 
Q 1809 2988 1582 2694 
Q 1356 2400 1356 1850 
L 1356 331 
L 2022 331 
L 2022 0 
L 263 0 
L 263 331 
L 781 331 
L 781 2994 
L 231 2994 
L 231 3322 
L 1356 3322 
L 1356 2731 
Q 1525 3078 1790 3245 
Q 2056 3413 2438 3413 
Q 2578 3413 2733 3391 
Q 2888 3369 3059 3328 
z
" transform="scale(0.015625)"/>
       <path id="DejaVuSerif-73" d="M 359 184 
L 359 959 
L 691 959 
Q 703 588 923 403 
Q 1144 219 1575 219 
Q 1963 219 2166 364 
Q 2369 509 2369 788 
Q 2369 1006 2220 1140 
Q 2072 1275 1594 1428 
L 1178 1569 
Q 750 1706 558 1912 
Q 366 2119 366 2438 
Q 366 2894 700 3153 
Q 1034 3413 1625 3413 
Q 1888 3413 2178 3344 
Q 2469 3275 2778 3144 
L 2778 2419 
L 2447 2419 
Q 2434 2741 2221 2922 
Q 2009 3103 1644 3103 
Q 1281 3103 1095 2975 
Q 909 2847 909 2591 
Q 909 2381 1050 2254 
Q 1191 2128 1613 1997 
L 2069 1856 
Q 2541 1709 2748 1489 
Q 2956 1269 2956 922 
Q 2956 450 2595 179 
Q 2234 -91 1600 -91 
Q 1278 -91 972 -22 
Q 666 47 359 184 
z
" transform="scale(0.015625)"/>
       <path id="DejaVuSerif-29" d="M 453 -997 
L 453 -691 
Q 934 -359 1145 242 
Q 1356 844 1356 1931 
Q 1356 3022 1145 3623 
Q 934 4225 453 4556 
L 453 4863 
Q 1216 4522 1603 3783 
Q 1991 3044 1991 1931 
Q 1991 822 1603 83 
Q 1216 -656 453 -997 
z
" transform="scale(0.015625)"/>
      </defs>
      <use xlink:href="#DejaVuSerif-54"/>
      <use xlink:href="#DejaVuSerif-69" transform="translate(66.699219 0)"/>
      <use xlink:href="#DejaVuSerif-6d" transform="translate(98.681641 0)"/>
      <use xlink:href="#DejaVuSerif-65" transform="translate(193.505859 0)"/>
      <use xlink:href="#DejaVuSerif-20" transform="translate(252.685547 0)"/>
      <use xlink:href="#DejaVuSerif-28" transform="translate(284.472656 0)"/>
      <use xlink:href="#DejaVuSerif-79" transform="translate(323.486328 0)"/>
      <use xlink:href="#DejaVuSerif-65" transform="translate(379.980469 0)"/>
      <use xlink:href="#DejaVuSerif-61" transform="translate(439.160156 0)"/>
      <use xlink:href="#DejaVuSerif-72" transform="translate(498.779297 0)"/>
      <use xlink:href="#DejaVuSerif-73" transform="translate(546.582031 0)"/>
      <use xlink:href="#DejaVuSerif-29" transform="translate(597.900391 0)"/>
     </g>
    </g>
   </g>
   <g id="matplotlib.axis_2">
    <g id="ytick_1">
     <g id="line2d_19">
      <path d="M 29.91375 268.259215 
L 401.53875 268.259215 
" clip-path="url(#p106064c5e2)" style="fill: none; stroke: #cccccc; stroke-width: 0.8; stroke-linecap: round"/>
     </g>
     <g id="line2d_20"/>
    </g>
    <g id="ytick_2">
     <g id="line2d_21">
      <path d="M 29.91375 209.928318 
L 401.53875 209.928318 
" clip-path="url(#p106064c5e2)" style="fill: none; stroke: #cccccc; stroke-width: 0.8; stroke-linecap: round"/>
     </g>
     <g id="line2d_22"/>
    </g>
    <g id="ytick_3">
     <g id="line2d_23">
      <path d="M 29.91375 151.597421 
L 401.53875 151.597421 
" clip-path="url(#p106064c5e2)" style="fill: none; stroke: #cccccc; stroke-width: 0.8; stroke-linecap: round"/>
     </g>
     <g id="line2d_24"/>
    </g>
    <g id="ytick_4">
     <g id="line2d_25">
      <path d="M 29.91375 93.266525 
L 401.53875 93.266525 
" clip-path="url(#p106064c5e2)" style="fill: none; stroke: #cccccc; stroke-width: 0.8; stroke-linecap: round"/>
     </g>
     <g id="line2d_26"/>
    </g>
    <g id="ytick_5">
     <g id="line2d_27">
      <path d="M 29.91375 34.935628 
L 401.53875 34.935628 
" clip-path="url(#p106064c5e2)" style="fill: none; stroke: #cccccc; stroke-width: 0.8; stroke-linecap: round"/>
     </g>
     <g id="line2d_28"/>
    </g>
    <g id="text_2">
     <!-- Population -->
     <g style="fill: #262626" transform="translate(19.918125 204.265781) rotate(-90) scale(0.12 -0.12)">
      <defs>
       <path id="DejaVuSerif-50" d="M 1581 2375 
L 2406 2375 
Q 2872 2375 3115 2626 
Q 3359 2878 3359 3353 
Q 3359 3831 3115 4081 
Q 2872 4331 2406 4331 
L 1581 4331 
L 1581 2375 
z
M 353 0 
L 353 331 
L 947 331 
L 947 4331 
L 353 4331 
L 353 4666 
L 2559 4666 
Q 3259 4666 3668 4311 
Q 4078 3956 4078 3353 
Q 4078 2753 3668 2397 
Q 3259 2041 2559 2041 
L 1581 2041 
L 1581 331 
L 2303 331 
L 2303 0 
L 353 0 
z
" transform="scale(0.015625)"/>
       <path id="DejaVuSerif-6f" d="M 1925 219 
Q 2388 219 2623 584 
Q 2859 950 2859 1663 
Q 2859 2375 2623 2739 
Q 2388 3103 1925 3103 
Q 1463 3103 1227 2739 
Q 991 2375 991 1663 
Q 991 950 1228 584 
Q 1466 219 1925 219 
z
M 1925 -91 
Q 1200 -91 759 389 
Q 319 869 319 1663 
Q 319 2456 758 2934 
Q 1197 3413 1925 3413 
Q 2653 3413 3092 2934 
Q 3531 2456 3531 1663 
Q 3531 869 3092 389 
Q 2653 -91 1925 -91 
z
" transform="scale(0.015625)"/>
       <path id="DejaVuSerif-70" d="M 1313 1825 
L 1313 1497 
Q 1313 897 1542 583 
Q 1772 269 2209 269 
Q 2650 269 2876 622 
Q 3103 975 3103 1663 
Q 3103 2353 2876 2703 
Q 2650 3053 2209 3053 
Q 1772 3053 1542 2737 
Q 1313 2422 1313 1825 
z
M 738 2988 
L 184 2988 
L 184 3322 
L 1313 3322 
L 1313 2803 
Q 1481 3116 1742 3264 
Q 2003 3413 2388 3413 
Q 3000 3413 3387 2928 
Q 3775 2444 3775 1663 
Q 3775 881 3387 395 
Q 3000 -91 2388 -91 
Q 2003 -91 1742 57 
Q 1481 206 1313 519 
L 1313 -997 
L 1856 -997 
L 1856 -1331 
L 184 -1331 
L 184 -997 
L 738 -997 
L 738 2988 
z
" transform="scale(0.015625)"/>
       <path id="DejaVuSerif-75" d="M 2266 3322 
L 3341 3322 
L 3341 331 
L 3884 331 
L 3884 0 
L 2766 0 
L 2766 588 
Q 2606 256 2353 82 
Q 2100 -91 1766 -91 
Q 1213 -91 952 223 
Q 691 538 691 1209 
L 691 2988 
L 172 2988 
L 172 3322 
L 1269 3322 
L 1269 1388 
Q 1269 781 1417 556 
Q 1566 331 1947 331 
Q 2347 331 2556 625 
Q 2766 919 2766 1478 
L 2766 2988 
L 2266 2988 
L 2266 3322 
z
" transform="scale(0.015625)"/>
       <path id="DejaVuSerif-6c" d="M 1313 331 
L 1856 331 
L 1856 0 
L 184 0 
L 184 331 
L 738 331 
L 738 4531 
L 184 4531 
L 184 4863 
L 1313 4863 
L 1313 331 
z
" transform="scale(0.015625)"/>
       <path id="DejaVuSerif-74" d="M 691 2988 
L 184 2988 
L 184 3322 
L 691 3322 
L 691 4353 
L 1269 4353 
L 1269 3322 
L 2350 3322 
L 2350 2988 
L 1269 2988 
L 1269 878 
Q 1269 456 1350 337 
Q 1431 219 1650 219 
Q 1875 219 1978 351 
Q 2081 484 2088 781 
L 2522 781 
Q 2497 328 2275 118 
Q 2053 -91 1600 -91 
Q 1103 -91 897 129 
Q 691 350 691 878 
L 691 2988 
z
" transform="scale(0.015625)"/>
       <path id="DejaVuSerif-6e" d="M 263 0 
L 263 331 
L 781 331 
L 781 2988 
L 231 2988 
L 231 3322 
L 1356 3322 
L 1356 2731 
Q 1516 3069 1770 3241 
Q 2025 3413 2363 3413 
Q 2913 3413 3172 3097 
Q 3431 2781 3431 2113 
L 3431 331 
L 3944 331 
L 3944 0 
L 2356 0 
L 2356 331 
L 2853 331 
L 2853 1931 
Q 2853 2541 2703 2767 
Q 2553 2994 2175 2994 
Q 1775 2994 1565 2701 
Q 1356 2409 1356 1850 
L 1356 331 
L 1856 331 
L 1856 0 
L 263 0 
z
" transform="scale(0.015625)"/>
      </defs>
      <use xlink:href="#DejaVuSerif-50"/>
      <use xlink:href="#DejaVuSerif-6f" transform="translate(63.285156 0)"/>
      <use xlink:href="#DejaVuSerif-70" transform="translate(123.490234 0)"/>
      <use xlink:href="#DejaVuSerif-75" transform="translate(187.503906 0)"/>
      <use xlink:href="#DejaVuSerif-6c" transform="translate(251.908203 0)"/>
      <use xlink:href="#DejaVuSerif-61" transform="translate(283.890625 0)"/>
      <use xlink:href="#DejaVuSerif-74" transform="translate(343.509766 0)"/>
      <use xlink:href="#DejaVuSerif-69" transform="translate(383.695312 0)"/>
      <use xlink:href="#DejaVuSerif-6f" transform="translate(415.677734 0)"/>
      <use xlink:href="#DejaVuSerif-6e" transform="translate(475.882812 0)"/>
     </g>
    </g>
   </g>
   <g id="line2d_29">
    <path d="M 46.805795 151.597421 
L 52.325704 120.473587 
L 57.620309 90.992122 
L 60.436589 76.48694 
L 62.689613 65.970849 
L 64.604683 58.060244 
L 66.1818 52.41416 
L 67.646265 47.985464 
L 68.885428 44.921064 
L 70.01194 42.726215 
L 70.913149 41.40147 
L 71.701708 40.571545 
L 72.490266 40.059842 
L 73.166173 39.881509 
L 73.84208 39.948719 
L 74.517987 40.265642 
L 75.193895 40.835578 
L 75.982453 41.823399 
L 76.883662 43.380517 
L 77.784872 45.394297 
L 78.798732 48.201348 
L 79.925244 51.980665 
L 81.164407 56.915013 
L 82.628873 63.740795 
L 84.205989 72.198903 
L 86.008408 83.099689 
L 88.148781 97.438531 
L 90.965061 117.90742 
L 100.653063 189.635122 
L 103.356691 207.295171 
L 105.835017 222.012071 
L 108.088041 234.09996 
L 110.228414 244.441442 
L 112.368786 253.700988 
L 114.396508 261.521643 
L 116.424229 268.471649 
L 118.45195 274.610445 
L 120.36702 279.718186 
L 122.282091 284.206919 
L 124.197161 288.124552 
L 125.99958 291.330084 
L 127.801999 294.103515 
L 129.604418 296.4759 
L 131.406837 298.475114 
L 133.096605 300.032504 
L 134.786372 301.301645 
L 136.47614 302.29827 
L 138.165908 303.036001 
L 139.855676 303.526475 
L 141.545444 303.779472 
L 143.235211 303.803036 
L 144.924979 303.603595 
L 146.614747 303.18607 
L 148.417166 302.504266 
L 150.219585 301.580932 
L 152.134655 300.336383 
L 154.049725 298.819754 
L 156.077447 296.914751 
L 158.105168 294.697375 
L 160.245541 292.010597 
L 162.385913 288.958539 
L 164.638937 285.33823 
L 166.891961 281.284277 
L 169.144984 276.779055 
L 171.510659 271.542008 
L 173.876334 265.763113 
L 176.35466 259.101857 
L 178.832986 251.792572 
L 181.423964 243.430411 
L 184.014941 234.306497 
L 186.718569 223.953002 
L 189.534849 212.252262 
L 192.46378 199.098977 
L 195.618013 183.85378 
L 198.997549 166.388663 
L 203.052991 144.192175 
L 214.31811 81.667932 
L 216.796436 69.613608 
L 218.824158 60.813881 
L 220.513925 54.404878 
L 221.978391 49.651279 
L 223.330205 46.009082 
L 224.456717 43.573504 
L 225.470578 41.88152 
L 226.371787 40.796821 
L 227.160345 40.184776 
L 227.836253 39.918254 
L 228.51216 39.89555 
L 229.188067 40.121137 
L 229.863974 40.598643 
L 230.652532 41.477702 
L 231.441091 42.705963 
L 232.3423 44.538188 
L 233.356161 47.143147 
L 234.482673 50.702921 
L 235.721836 55.40499 
L 237.07365 61.430813 
L 238.650767 69.557989 
L 240.453185 80.133668 
L 242.480907 93.398219 
L 245.071884 111.890579 
L 249.690583 146.822275 
L 253.971328 178.497916 
L 256.900259 198.528249 
L 259.491236 214.713679 
L 261.856911 228.099643 
L 264.109935 239.580157 
L 266.250307 249.35733 
L 268.278029 257.643643 
L 270.30575 265.030678 
L 272.333471 271.575793 
L 274.248542 277.03877 
L 276.163612 281.855795 
L 278.078682 286.076196 
L 279.993752 289.746471 
L 281.796171 292.736849 
L 283.59859 295.310694 
L 285.401009 297.497506 
L 287.203428 299.323617 
L 288.893196 300.728717 
L 290.582964 301.854038 
L 292.272731 302.714195 
L 293.962499 303.321762 
L 295.652267 303.687391 
L 297.342035 303.819943 
L 299.031803 303.726606 
L 300.72157 303.41301 
L 302.523989 302.84041 
L 304.326408 302.025306 
L 306.128827 300.969435 
L 308.043898 299.583977 
L 309.958968 297.925447 
L 311.986689 295.868166 
L 314.01441 293.495501 
L 316.154783 290.640586 
L 318.295156 287.415146 
L 320.548179 283.605757 
L 322.801203 279.355158 
L 325.166878 274.397122 
L 327.532553 268.909757 
L 329.898228 262.869415 
L 332.376554 255.922324 
L 334.85488 248.315502 
L 337.445857 239.631068 
L 340.036835 230.175729 
L 342.740463 219.470525 
L 345.556743 207.403296 
L 348.485674 193.878525 
L 351.639907 178.260244 
L 355.244745 159.231062 
L 359.750792 134.152168 
L 367.861678 88.812054 
L 370.677957 74.494248 
L 372.81833 64.678408 
L 374.620749 57.359121 
L 376.197866 51.813222 
L 377.54968 47.791944 
L 378.788843 44.765325 
L 379.915355 42.607376 
L 380.816564 41.313761 
L 381.605123 40.512133 
L 382.393681 40.029606 
L 383.069588 39.876895 
L 383.745495 39.970205 
L 384.421402 40.313617 
L 384.646705 40.484247 
L 384.646705 40.484247 
" clip-path="url(#p106064c5e2)" style="fill: none; stroke: #f59e0b; stroke-width: 2; stroke-linecap: round"/>
   </g>
   <g id="line2d_30">
    <path d="M 46.805795 268.259215 
L 48.495563 266.461385 
L 50.185331 264.322438 
L 51.875099 261.821777 
L 53.677518 258.731215 
L 55.479937 255.176985 
L 57.282356 251.131285 
L 59.197426 246.263684 
L 61.112496 240.779789 
L 63.140218 234.27238 
L 65.167939 227.021887 
L 67.308311 218.552101 
L 69.673986 208.229137 
L 72.152312 196.393584 
L 74.968592 181.843498 
L 78.686081 161.379924 
L 85.332501 124.629811 
L 87.923479 111.675773 
L 90.063851 102.09329 
L 91.86627 94.993101 
L 93.443387 89.600832 
L 94.907852 85.330365 
L 96.259666 82.044686 
L 97.498829 79.597891 
L 98.625341 77.845199 
L 99.639202 76.649856 
L 100.540412 75.887423 
L 101.441621 75.402421 
L 102.342831 75.188644 
L 103.131389 75.218287 
L 104.032598 75.492291 
L 104.933808 76.01356 
L 105.947669 76.883098 
L 107.07418 78.183045 
L 108.313343 79.993613 
L 109.665158 82.389348 
L 111.129623 85.435319 
L 112.819391 89.468244 
L 114.734461 94.619166 
L 116.987485 101.331825 
L 119.691113 110.10713 
L 123.1833 122.23323 
L 129.379115 144.718928 
L 136.025535 168.563442 
L 140.418932 183.511163 
L 144.249072 195.789552 
L 147.85391 206.61289 
L 151.233446 216.067977 
L 154.50033 224.546987 
L 157.541912 231.845516 
L 160.470843 238.325499 
L 163.399774 244.265232 
L 166.216053 249.46592 
L 168.919682 253.986604 
L 171.510659 257.883421 
L 173.988985 261.209331 
L 176.35466 264.014138 
L 178.607684 266.344706 
L 180.748057 268.245262 
L 182.775778 269.75776 
L 184.690848 270.922232 
L 186.605918 271.822613 
L 188.408337 272.42077 
L 190.098105 272.754074 
L 191.787873 272.858721 
L 193.364989 272.741706 
L 194.942106 272.408487 
L 196.519223 271.84932 
L 198.096339 271.053401 
L 199.673456 270.008812 
L 201.250573 268.70251 
L 202.94034 266.996338 
L 204.630108 264.954562 
L 206.319876 262.556942 
L 208.009644 259.782037 
L 209.812063 256.381081 
L 211.614482 252.497661 
L 213.529552 247.812039 
L 215.444622 242.519123 
L 217.472343 236.221985 
L 219.500065 229.187156 
L 221.640437 220.946141 
L 223.893461 211.371666 
L 226.371787 199.820041 
L 229.075416 186.129756 
L 232.454951 167.797869 
L 241.129093 120.087027 
L 243.494768 108.621715 
L 245.522489 99.856601 
L 247.324908 93.048326 
L 248.902025 87.934137 
L 250.36649 83.935066 
L 251.718304 80.906611 
L 252.844816 78.876134 
L 253.971328 77.294418 
L 254.985189 76.251243 
L 255.886398 75.621831 
L 256.787608 75.267048 
L 257.576166 75.176583 
L 258.364724 75.285933 
L 259.265934 75.648062 
L 260.167143 76.254024 
L 261.181004 77.214452 
L 262.307516 78.609643 
L 263.546679 80.517726 
L 264.898493 83.010975 
L 266.47561 86.411286 
L 268.278029 90.869065 
L 270.30575 96.504826 
L 272.671425 103.753831 
L 275.600356 113.481969 
L 279.543147 127.410694 
L 293.399243 177.02838 
L 297.454686 190.400647 
L 301.172175 201.907003 
L 304.664362 211.997181 
L 307.931246 220.773768 
L 311.08548 228.623511 
L 314.127062 235.604173 
L 317.055992 241.776484 
L 319.872272 247.201234 
L 322.575901 251.937539 
L 325.166878 256.041902 
L 327.645204 259.567799 
L 330.010879 262.565604 
L 332.263903 265.082724 
L 334.516926 267.264916 
L 336.657299 269.021483 
L 338.68502 270.394101 
L 340.600091 271.422649 
L 342.40251 272.145542 
L 344.204928 272.622437 
L 345.894696 272.837714 
L 347.584464 272.819522 
L 349.161581 272.582948 
L 350.738697 272.124859 
L 352.315814 271.434924 
L 353.892931 270.501723 
L 355.470047 269.312713 
L 357.047164 267.854206 
L 358.736932 265.975613 
L 360.426699 263.751032 
L 362.116467 261.159571 
L 363.918886 257.9662 
L 365.721305 254.30286 
L 367.523724 250.141768 
L 369.438794 245.144979 
L 371.353865 239.525824 
L 373.381586 232.869968 
L 375.521958 225.034571 
L 377.774982 215.881505 
L 380.140657 205.295158 
L 382.731634 192.638507 
L 384.646705 182.665832 
L 384.646705 182.665832 
" clip-path="url(#p106064c5e2)" style="fill: none; stroke: #d97706; stroke-width: 2; stroke-linecap: round"/>
   </g>
   <g id="patch_3">
    <path d="M 29.91375 317.017969 
L 29.91375 26.677969 
" style="fill: none; stroke: #cccccc; stroke-linejoin: miter; stroke-linecap: square"/>
   </g>
   <g id="patch_4">
    <path d="M 401.53875 317.017969 
L 401.53875 26.677969 
" style="fill: none; stroke: #cccccc; stroke-linejoin: miter; stroke-linecap: square"/>
   </g>
   <g id="patch_5">
    <path d="M 29.91375 317.017969 
L 401.53875 317.017969 
" style="fill: none; stroke: #cccccc; stroke-linejoin: miter; stroke-linecap: square"/>
   </g>
   <g id="patch_6">
    <path d="M 29.91375 26.677969 
L 401.53875 26.677969 
" style="fill: none; stroke: #cccccc; stroke-linejoin: miter; stroke-linecap: square"/>
   </g>
   <g id="text_3">
    <!-- Natural balance -->
    <g style="fill: #262626" transform="translate(157.220156 20.677969) scale(0.13 -0.13)">
     <defs>
      <path id="DejaVuSerif-Bold-4e" d="M 281 0 
L 281 378 
L 878 378 
L 878 4288 
L 281 4288 
L 281 4666 
L 1741 4666 
L 4556 1363 
L 4556 4288 
L 3963 4288 
L 3963 4666 
L 5594 4666 
L 5594 4288 
L 4997 4288 
L 4997 0 
L 4178 0 
L 1319 3372 
L 1319 378 
L 1913 378 
L 1913 0 
L 281 0 
z
" transform="scale(0.015625)"/>
      <path id="DejaVuSerif-Bold-61" d="M 3525 2041 
L 3525 378 
L 4000 378 
L 4000 0 
L 2419 0 
L 2419 422 
Q 2200 159 1931 34 
Q 1663 -91 1319 -91 
Q 809 -91 536 182 
Q 263 456 263 966 
Q 263 1525 655 1803 
Q 1047 2081 1838 2081 
L 2419 2081 
L 2419 2278 
Q 2419 2681 2228 2873 
Q 2038 3066 1638 3066 
Q 1306 3066 1126 2930 
Q 947 2794 872 2484 
L 519 2484 
L 519 3200 
Q 816 3306 1134 3359 
Q 1453 3413 1806 3413 
Q 2697 3413 3111 3081 
Q 3525 2750 3525 2041 
z
M 2419 1044 
L 2419 1709 
L 2003 1709 
Q 1694 1709 1528 1540 
Q 1363 1372 1363 1056 
Q 1363 741 1483 584 
Q 1603 428 1850 428 
Q 2106 428 2262 597 
Q 2419 766 2419 1044 
z
" transform="scale(0.015625)"/>
      <path id="DejaVuSerif-Bold-74" d="M 634 2944 
L 153 2944 
L 153 3322 
L 634 3322 
L 634 4353 
L 1741 4353 
L 1741 3322 
L 2663 3322 
L 2663 2944 
L 1741 2944 
L 1741 909 
Q 1741 475 1809 369 
Q 1878 263 2059 263 
Q 2259 263 2356 397 
Q 2453 531 2459 813 
L 2925 813 
Q 2897 313 2651 111 
Q 2406 -91 1806 -91 
Q 1122 -91 878 123 
Q 634 338 634 909 
L 634 2944 
z
" transform="scale(0.015625)"/>
      <path id="DejaVuSerif-Bold-75" d="M 3963 3322 
L 3963 378 
L 4434 378 
L 4434 0 
L 2853 0 
L 2853 469 
Q 2656 172 2400 40 
Q 2144 -91 1753 -91 
Q 1194 -91 908 239 
Q 622 569 622 1209 
L 622 2944 
L 147 2944 
L 147 3322 
L 1728 3322 
L 1728 1381 
Q 1728 763 1831 595 
Q 1934 428 2209 428 
Q 2544 428 2698 675 
Q 2853 922 2853 1459 
L 2853 2944 
L 2450 2944 
L 2450 3322 
L 3963 3322 
z
" transform="scale(0.015625)"/>
      <path id="DejaVuSerif-Bold-72" d="M 3438 3359 
L 3438 2369 
L 3084 2369 
Q 3066 2634 2941 2764 
Q 2816 2894 2578 2894 
Q 2216 2894 2006 2575 
Q 1797 2256 1797 1691 
L 1797 378 
L 2400 378 
L 2400 0 
L 219 0 
L 219 378 
L 691 378 
L 691 2944 
L 184 2944 
L 184 3322 
L 1797 3322 
L 1797 2731 
Q 1959 3078 2226 3245 
Q 2494 3413 2881 3413 
Q 2978 3413 3117 3398 
Q 3256 3384 3438 3359 
z
" transform="scale(0.015625)"/>
      <path id="DejaVuSerif-Bold-6c" d="M 1797 378 
L 2272 378 
L 2272 0 
L 219 0 
L 219 378 
L 691 378 
L 691 4488 
L 219 4488 
L 219 4863 
L 1797 4863 
L 1797 378 
z
" transform="scale(0.015625)"/>
      <path id="DejaVuSerif-Bold-20" transform="scale(0.015625)"/>
      <path id="DejaVuSerif-Bold-62" d="M 622 378 
L 622 4488 
L 147 4488 
L 147 4863 
L 1728 4863 
L 1728 2900 
Q 1869 3159 2106 3286 
Q 2344 3413 2694 3413 
Q 3403 3413 3811 2945 
Q 4219 2478 4219 1663 
Q 4219 847 3811 378 
Q 3403 -91 2694 -91 
Q 2344 -91 2106 36 
Q 1869 163 1728 422 
L 1728 0 
L 147 0 
L 147 378 
L 622 378 
z
M 1728 1497 
Q 1728 916 1876 656 
Q 2025 397 2356 397 
Q 2697 397 2836 672 
Q 2975 947 2975 1663 
Q 2975 2378 2836 2651 
Q 2697 2925 2356 2925 
Q 2025 2925 1876 2665 
Q 1728 2406 1728 1825 
L 1728 1497 
z
" transform="scale(0.015625)"/>
      <path id="DejaVuSerif-Bold-6e" d="M 219 0 
L 219 378 
L 691 378 
L 691 2944 
L 219 2944 
L 219 3322 
L 1797 3322 
L 1797 2853 
Q 1997 3150 2253 3281 
Q 2509 3413 2900 3413 
Q 3459 3413 3745 3083 
Q 4031 2753 4031 2113 
L 4031 378 
L 4506 378 
L 4506 0 
L 2522 0 
L 2522 378 
L 2925 378 
L 2925 2144 
Q 2925 2566 2817 2730 
Q 2709 2894 2444 2894 
Q 2109 2894 1953 2648 
Q 1797 2403 1797 1869 
L 1797 378 
L 2203 378 
L 2203 0 
L 219 0 
z
" transform="scale(0.015625)"/>
      <path id="DejaVuSerif-Bold-63" d="M 3609 1038 
Q 3491 469 3123 189 
Q 2756 -91 2125 -91 
Q 1238 -91 750 368 
Q 263 828 263 1663 
Q 263 2488 744 2950 
Q 1225 3413 2081 3413 
Q 2428 3413 2781 3347 
Q 3134 3281 3500 3150 
L 3500 2228 
L 3150 2228 
Q 3100 2650 2903 2854 
Q 2706 3059 2350 3059 
Q 1888 3059 1692 2746 
Q 1497 2434 1497 1663 
Q 1497 909 1687 586 
Q 1878 263 2309 263 
Q 2644 263 2845 463 
Q 3047 663 3091 1038 
L 3609 1038 
z
" transform="scale(0.015625)"/>
      <path id="DejaVuSerif-Bold-65" d="M 2566 1875 
Q 2566 2531 2444 2795 
Q 2322 3059 2028 3059 
Q 1744 3059 1620 2800 
Q 1497 2541 1497 1931 
L 1497 1875 
L 2566 1875 
z
M 3781 1503 
L 1497 1503 
L 1497 1478 
Q 1497 834 1690 548 
Q 1884 263 2316 263 
Q 2675 263 2897 453 
Q 3119 644 3181 1006 
L 3700 1006 
Q 3566 441 3166 175 
Q 2766 -91 2047 -91 
Q 1184 -91 723 364 
Q 263 819 263 1663 
Q 263 2488 734 2950 
Q 1206 3413 2047 3413 
Q 2872 3413 3312 2927 
Q 3753 2441 3781 1503 
z
" transform="scale(0.015625)"/>
     </defs>
     <use xlink:href="#DejaVuSerif-Bold-4e"/>
     <use xlink:href="#DejaVuSerif-Bold-61" transform="translate(91.40625 0)"/>
     <use xlink:href="#DejaVuSerif-Bold-74" transform="translate(156.201172 0)"/>
     <use xlink:href="#DejaVuSerif-Bold-75" transform="translate(202.392578 0)"/>
     <use xlink:href="#DejaVuSerif-Bold-72" transform="translate(275.097656 0)"/>
     <use xlink:href="#DejaVuSerif-Bold-61" transform="translate(327.783203 0)"/>
     <use xlink:href="#DejaVuSerif-Bold-6c" transform="translate(392.578125 0)"/>
     <use xlink:href="#DejaVuSerif-Bold-20" transform="translate(430.566406 0)"/>
     <use xlink:href="#DejaVuSerif-Bold-62" transform="translate(465.380859 0)"/>
     <use xlink:href="#DejaVuSerif-Bold-61" transform="translate(535.302734 0)"/>
     <use xlink:href="#DejaVuSerif-Bold-6c" transform="translate(600.097656 0)"/>
     <use xlink:href="#DejaVuSerif-Bold-61" transform="translate(638.085938 0)"/>
     <use xlink:href="#DejaVuSerif-Bold-6e" transform="translate(702.880859 0)"/>
     <use xlink:href="#DejaVuSerif-Bold-63" transform="translate(775.585938 0)"/>
     <use xlink:href="#DejaVuSerif-Bold-65" transform="translate(836.474609 0)"/>
    </g>
   </g>
   <g id="legend_1">
    <g id="line2d_31">
     <path d="M 38.01375 290.43 
L 47.01375 290.43 
L 56.01375 290.43 
" style="fill: none; stroke: #f59e0b; stroke-width: 2; stroke-linecap: round"/>
    </g>
    <g id="text_4">
     <!-- Kangaroos -->
     <g style="fill: #262626" transform="translate(63.21375 293.58) scale(0.09 -0.09)">
      <defs>
       <path id="DejaVuSerif-4b" d="M 353 0 
L 353 331 
L 947 331 
L 947 4331 
L 353 4331 
L 353 4666 
L 2175 4666 
L 2175 4331 
L 1581 4331 
L 1581 2566 
L 3591 4331 
L 3084 4331 
L 3084 4666 
L 4634 4666 
L 4634 4331 
L 4109 4331 
L 2106 2572 
L 4347 331 
L 4878 331 
L 4878 0 
L 3794 0 
L 1581 2216 
L 1581 331 
L 2175 331 
L 2175 0 
L 353 0 
z
" transform="scale(0.015625)"/>
       <path id="DejaVuSerif-67" d="M 3359 2988 
L 3359 72 
Q 3359 -644 2965 -1033 
Q 2572 -1422 1844 -1422 
Q 1516 -1422 1216 -1362 
Q 916 -1303 641 -1184 
L 641 -488 
L 941 -488 
Q 997 -813 1206 -963 
Q 1416 -1113 1806 -1113 
Q 2313 -1113 2548 -827 
Q 2784 -541 2784 72 
L 2784 519 
Q 2616 206 2355 57 
Q 2094 -91 1709 -91 
Q 1097 -91 708 395 
Q 319 881 319 1663 
Q 319 2444 706 2928 
Q 1094 3413 1709 3413 
Q 2094 3413 2355 3264 
Q 2616 3116 2784 2803 
L 2784 3322 
L 3909 3322 
L 3909 2988 
L 3359 2988 
z
M 2784 1825 
Q 2784 2422 2554 2737 
Q 2325 3053 1888 3053 
Q 1444 3053 1217 2703 
Q 991 2353 991 1663 
Q 991 975 1217 622 
Q 1444 269 1888 269 
Q 2325 269 2554 583 
Q 2784 897 2784 1497 
L 2784 1825 
z
" transform="scale(0.015625)"/>
      </defs>
      <use xlink:href="#DejaVuSerif-4b"/>
      <use xlink:href="#DejaVuSerif-61" transform="translate(74.707031 0)"/>
      <use xlink:href="#DejaVuSerif-6e" transform="translate(134.326172 0)"/>
      <use xlink:href="#DejaVuSerif-67" transform="translate(198.730469 0)"/>
      <use xlink:href="#DejaVuSerif-61" transform="translate(262.744141 0)"/>
      <use xlink:href="#DejaVuSerif-72" transform="translate(322.363281 0)"/>
      <use xlink:href="#DejaVuSerif-6f" transform="translate(370.166016 0)"/>
      <use xlink:href="#DejaVuSerif-6f" transform="translate(430.371094 0)"/>
      <use xlink:href="#DejaVuSerif-73" transform="translate(490.576172 0)"/>
     </g>
    </g>
    <g id="line2d_32">
     <path d="M 38.01375 303.768281 
L 47.01375 303.768281 
L 56.01375 303.768281 
" style="fill: none; stroke: #d97706; stroke-width: 2; stroke-linecap: round"/>
    </g>
    <g id="text_5">
     <!-- Dingoes -->
     <g style="fill: #262626" transform="translate(63.21375 306.918281) scale(0.09 -0.09)">
      <defs>
       <path id="DejaVuSerif-44" d="M 1581 331 
L 2163 331 
Q 3072 331 3558 850 
Q 4044 1369 4044 2338 
Q 4044 3306 3559 3818 
Q 3075 4331 2163 4331 
L 1581 4331 
L 1581 331 
z
M 353 0 
L 353 331 
L 947 331 
L 947 4331 
L 353 4331 
L 353 4666 
L 2209 4666 
Q 3416 4666 4089 4050 
Q 4763 3434 4763 2338 
Q 4763 1238 4088 619 
Q 3413 0 2209 0 
L 353 0 
z
" transform="scale(0.015625)"/>
      </defs>
      <use xlink:href="#DejaVuSerif-44"/>
      <use xlink:href="#DejaVuSerif-69" transform="translate(80.175781 0)"/>
      <use xlink:href="#DejaVuSerif-6e" transform="translate(112.158203 0)"/>
      <use xlink:href="#DejaVuSerif-67" transform="translate(176.5625 0)"/>
      <use xlink:href="#DejaVuSerif-6f" transform="translate(240.576172 0)"/>
      <use xlink:href="#DejaVuSerif-65" transform="translate(300.78125 0)"/>
      <use xlink:href="#DejaVuSerif-73" transform="translate(359.960938 0)"/>
     </g>
    </g>
   </g>
  </g>
  <g id="axes_2">
   <g id="patch_7">
    <path d="M 457.72875 317.017969 
L 829.35375 317.017969 
L 829.35375 26.677969 
L 457.72875 26.677969 
z
" style="fill: #ffffff"/>
   </g>
   <g id="matplotlib.axis_3">
    <g id="xtick_10">
     <g id="line2d_33">
      <path d="M 474.620795 317.017969 
L 474.620795 26.677969 
" clip-path="url(#p787c4cf4b8)" style="fill: none; stroke: #cccccc; stroke-width: 0.8; stroke-linecap: round"/>
     </g>
     <g id="line2d_34"/>
    </g>
    <g id="xtick_11">
     <g id="line2d_35">
      <path d="M 516.850909 317.017969 
L 516.850909 26.677969 
" clip-path="url(#p787c4cf4b8)" style="fill: none; stroke: #cccccc; stroke-width: 0.8; stroke-linecap: round"/>
     </g>
     <g id="line2d_36"/>
    </g>
    <g id="xtick_12">
     <g id="line2d_37">
      <path d="M 559.081023 317.017969 
L 559.081023 26.677969 
" clip-path="url(#p787c4cf4b8)" style="fill: none; stroke: #cccccc; stroke-width: 0.8; stroke-linecap: round"/>
     </g>
     <g id="line2d_38"/>
    </g>
    <g id="xtick_13">
     <g id="line2d_39">
      <path d="M 601.311136 317.017969 
L 601.311136 26.677969 
" clip-path="url(#p787c4cf4b8)" style="fill: none; stroke: #cccccc; stroke-width: 0.8; stroke-linecap: round"/>
     </g>
     <g id="line2d_40"/>
    </g>
    <g id="xtick_14">
     <g id="line2d_41">
      <path d="M 643.54125 317.017969 
L 643.54125 26.677969 
" clip-path="url(#p787c4cf4b8)" style="fill: none; stroke: #cccccc; stroke-width: 0.8; stroke-linecap: round"/>
     </g>
     <g id="line2d_42"/>
    </g>
    <g id="xtick_15">
     <g id="line2d_43">
      <path d="M 685.771364 317.017969 
L 685.771364 26.677969 
" clip-path="url(#p787c4cf4b8)" style="fill: none; stroke: #cccccc; stroke-width: 0.8; stroke-linecap: round"/>
     </g>
     <g id="line2d_44"/>
    </g>
    <g id="xtick_16">
     <g id="line2d_45">
      <path d="M 728.001477 317.017969 
L 728.001477 26.677969 
" clip-path="url(#p787c4cf4b8)" style="fill: none; stroke: #cccccc; stroke-width: 0.8; stroke-linecap: round"/>
     </g>
     <g id="line2d_46"/>
    </g>
    <g id="xtick_17">
     <g id="line2d_47">
      <path d="M 770.231591 317.017969 
L 770.231591 26.677969 
" clip-path="url(#p787c4cf4b8)" style="fill: none; stroke: #cccccc; stroke-width: 0.8; stroke-linecap: round"/>
     </g>
     <g id="line2d_48"/>
    </g>
    <g id="xtick_18">
     <g id="line2d_49">
      <path d="M 812.461705 317.017969 
L 812.461705 26.677969 
" clip-path="url(#p787c4cf4b8)" style="fill: none; stroke: #cccccc; stroke-width: 0.8; stroke-linecap: round"/>
     </g>
     <g id="line2d_50"/>
    </g>
    <g id="text_6">
     <!-- Time (years) -->
     <g style="fill: #262626" transform="translate(605.325 333.636094) scale(0.12 -0.12)">
      <use xlink:href="#DejaVuSerif-54"/>
      <use xlink:href="#DejaVuSerif-69" transform="translate(66.699219 0)"/>
      <use xlink:href="#DejaVuSerif-6d" transform="translate(98.681641 0)"/>
      <use xlink:href="#DejaVuSerif-65" transform="translate(193.505859 0)"/>
      <use xlink:href="#DejaVuSerif-20" transform="translate(252.685547 0)"/>
      <use xlink:href="#DejaVuSerif-28" transform="translate(284.472656 0)"/>
      <use xlink:href="#DejaVuSerif-79" transform="translate(323.486328 0)"/>
      <use xlink:href="#DejaVuSerif-65" transform="translate(379.980469 0)"/>
      <use xlink:href="#DejaVuSerif-61" transform="translate(439.160156 0)"/>
      <use xlink:href="#DejaVuSerif-72" transform="translate(498.779297 0)"/>
      <use xlink:href="#DejaVuSerif-73" transform="translate(546.582031 0)"/>
      <use xlink:href="#DejaVuSerif-29" transform="translate(597.900391 0)"/>
     </g>
    </g>
   </g>
   <g id="matplotlib.axis_4">
    <g id="ytick_6">
     <g id="line2d_51">
      <path d="M 457.72875 303.820696 
L 829.35375 303.820696 
" clip-path="url(#p787c4cf4b8)" style="fill: none; stroke: #cccccc; stroke-width: 0.8; stroke-linecap: round"/>
     </g>
     <g id="line2d_52"/>
    </g>
    <g id="ytick_7">
     <g id="line2d_53">
      <path d="M 457.72875 271.123424 
L 829.35375 271.123424 
" clip-path="url(#p787c4cf4b8)" style="fill: none; stroke: #cccccc; stroke-width: 0.8; stroke-linecap: round"/>
     </g>
     <g id="line2d_54"/>
    </g>
    <g id="ytick_8">
     <g id="line2d_55">
      <path d="M 457.72875 238.426152 
L 829.35375 238.426152 
" clip-path="url(#p787c4cf4b8)" style="fill: none; stroke: #cccccc; stroke-width: 0.8; stroke-linecap: round"/>
     </g>
     <g id="line2d_56"/>
    </g>
    <g id="ytick_9">
     <g id="line2d_57">
      <path d="M 457.72875 205.728879 
L 829.35375 205.728879 
" clip-path="url(#p787c4cf4b8)" style="fill: none; stroke: #cccccc; stroke-width: 0.8; stroke-linecap: round"/>
     </g>
     <g id="line2d_58"/>
    </g>
    <g id="ytick_10">
     <g id="line2d_59">
      <path d="M 457.72875 173.031607 
L 829.35375 173.031607 
" clip-path="url(#p787c4cf4b8)" style="fill: none; stroke: #cccccc; stroke-width: 0.8; stroke-linecap: round"/>
     </g>
     <g id="line2d_60"/>
    </g>
    <g id="ytick_11">
     <g id="line2d_61">
      <path d="M 457.72875 140.334335 
L 829.35375 140.334335 
" clip-path="url(#p787c4cf4b8)" style="fill: none; stroke: #cccccc; stroke-width: 0.8; stroke-linecap: round"/>
     </g>
     <g id="line2d_62"/>
    </g>
    <g id="ytick_12">
     <g id="line2d_63">
      <path d="M 457.72875 107.637063 
L 829.35375 107.637063 
" clip-path="url(#p787c4cf4b8)" style="fill: none; stroke: #cccccc; stroke-width: 0.8; stroke-linecap: round"/>
     </g>
     <g id="line2d_64"/>
    </g>
    <g id="ytick_13">
     <g id="line2d_65">
      <path d="M 457.72875 74.939791 
L 829.35375 74.939791 
" clip-path="url(#p787c4cf4b8)" style="fill: none; stroke: #cccccc; stroke-width: 0.8; stroke-linecap: round"/>
     </g>
     <g id="line2d_66"/>
    </g>
    <g id="ytick_14">
     <g id="line2d_67">
      <path d="M 457.72875 42.242519 
L 829.35375 42.242519 
" clip-path="url(#p787c4cf4b8)" style="fill: none; stroke: #cccccc; stroke-width: 0.8; stroke-linecap: round"/>
     </g>
     <g id="line2d_68"/>
    </g>
    <g id="text_7">
     <!-- Population -->
     <g style="fill: #262626" transform="translate(447.733125 204.265781) rotate(-90) scale(0.12 -0.12)">
      <use xlink:href="#DejaVuSerif-50"/>
      <use xlink:href="#DejaVuSerif-6f" transform="translate(63.285156 0)"/>
      <use xlink:href="#DejaVuSerif-70" transform="translate(123.490234 0)"/>
      <use xlink:href="#DejaVuSerif-75" transform="translate(187.503906 0)"/>
      <use xlink:href="#DejaVuSerif-6c" transform="translate(251.908203 0)"/>
      <use xlink:href="#DejaVuSerif-61" transform="translate(283.890625 0)"/>
      <use xlink:href="#DejaVuSerif-74" transform="translate(343.509766 0)"/>
      <use xlink:href="#DejaVuSerif-69" transform="translate(383.695312 0)"/>
      <use xlink:href="#DejaVuSerif-6f" transform="translate(415.677734 0)"/>
      <use xlink:href="#DejaVuSerif-6e" transform="translate(475.882812 0)"/>
     </g>
    </g>
   </g>
   <g id="line2d_69">
    <path d="M 474.620795 303.820696 
L 648.328925 303.820696 
L 648.441577 39.875241 
M 648.666879 303.820696 
L 649.230135 303.820696 
M 649.455437 303.820696 
L 649.568088 303.820696 
M 649.793391 303.820696 
L 650.018693 303.820696 
M 650.243996 303.820696 
L 651.257856 303.820696 
M 651.483159 303.820696 
L 651.708461 303.820696 
M 651.933763 303.820696 
L 652.497019 303.820696 
M 652.834973 303.820696 
L 653.51088 303.820696 
M 653.961485 303.820696 
L 654.074136 303.820696 
M 654.299438 303.820696 
L 654.975345 303.820696 
M 655.200648 303.820696 
L 655.651253 303.820696 
M 656.214509 303.820696 
L 656.32716 303.820696 
M 656.890416 303.820696 
L 657.003067 303.820696 
M 658.24223 303.820696 
L 658.354881 303.820696 
M 659.030788 303.820696 
L 659.143439 303.820696 
M 659.368742 303.820696 
L 659.594044 303.820696 
M 659.819346 303.820696 
L 660.1573 303.820696 
M 660.382602 303.820696 
L 660.607905 303.820696 
M 660.945858 303.820696 
L 661.509114 303.820696 
M 661.734417 303.820696 
L 661.959719 303.820696 
M 662.185021 303.820696 
L 662.410324 303.820696 
M 662.635626 303.820696 
L 662.748277 303.820696 
M 662.97358 303.820696 
L 663.086231 303.820696 
M 663.311533 303.820696 
L 663.424184 303.820696 
M 663.649487 303.820696 
L 663.762138 303.820696 
M 663.98744 303.820696 
L 664.100092 303.820696 
M 665.001301 303.820696 
L 665.451906 303.820696 
M 665.902511 303.820696 
L 666.015162 303.820696 
M 666.240464 303.820696 
L 666.353115 303.820696 
M 666.578418 303.820696 
L 666.691069 303.820696 
M 667.366976 303.820696 
L 667.592278 303.820696 
M 667.817581 303.820696 
L 667.930232 303.820696 
M 668.380837 303.820696 
L 668.493488 303.820696 
M 668.71879 303.820696 
L 668.944093 303.820696 
M 669.169395 303.820696 
L 669.282046 303.820696 
M 669.732651 303.820696 
L 670.183256 303.820696 
M 670.408558 303.820696 
L 670.63386 303.820696 
M 670.859163 303.820696 
L 670.971814 303.820696 
M 671.422419 303.820696 
L 671.760372 303.820696 
M 672.098326 303.820696 
L 672.323628 303.820696 
M 672.999535 303.820696 
L 673.45014 303.820696 
M 674.238698 303.820696 
L 674.689303 303.820696 
M 675.252559 303.820696 
L 676.041117 303.820696 
M 676.379071 303.820696 
L 676.491722 303.820696 
M 676.942327 303.820696 
L 677.054978 303.820696 
M 677.28028 303.820696 
L 678.068839 303.820696 
M 679.195351 303.820696 
L 679.420653 303.820696 
M 679.871258 303.820696 
L 680.09656 303.820696 
M 680.547165 303.820696 
L 681.110421 303.820696 
M 681.561026 303.820696 
L 682.236933 303.820696 
M 682.462235 303.820696 
L 682.800189 303.820696 
M 683.363445 303.820696 
L 683.701398 303.820696 
M 684.039352 303.820696 
L 684.152003 303.820696 
M 684.377305 303.820696 
L 684.82791 303.820696 
M 685.503817 303.820696 
L 685.616468 303.820696 
M 685.954422 303.820696 
L 686.067073 303.820696 
M 686.517678 303.820696 
L 686.74298 303.820696 
M 686.968282 303.820696 
L 687.64419 303.820696 
M 687.869492 303.820696 
L 687.982143 303.820696 
M 688.207446 303.820696 
L 688.320097 303.820696 
M 688.545399 303.820696 
L 688.65805 303.820696 
M 688.883353 303.820696 
L 688.996004 303.820696 
M 689.446609 303.820696 
L 689.671911 303.820696 
M 689.897213 303.820696 
L 690.235167 303.820696 
M 690.460469 303.820696 
L 691.361679 303.820696 
M 691.586981 303.820696 
L 691.699632 303.820696 
M 692.150237 303.820696 
L 692.488191 303.820696 
M 693.164098 303.820696 
L 693.3894 303.820696 
M 693.614703 303.820696 
L 693.840005 303.820696 
M 694.177958 303.820696 
L 694.29061 303.820696 
M 694.515912 303.820696 
L 694.741214 303.820696 
M 695.529773 303.820696 
L 695.642424 303.820696 
M 695.867726 303.820696 
L 695.980377 303.820696 
M 696.20568 303.820696 
L 696.543633 303.820696 
M 696.768936 303.820696 
L 697.332192 303.820696 
M 698.233401 303.820696 
L 698.684006 303.820696 
M 699.134611 303.820696 
L 699.472564 303.820696 
M 699.697867 303.820696 
L 699.810518 303.820696 
M 700.148471 303.820696 
L 701.162332 303.820696 
M 701.612937 303.820696 
L 701.95089 303.820696 
M 702.176193 303.820696 
L 702.626797 303.820696 
M 703.077402 303.820696 
L 703.190053 303.820696 
M 703.528007 303.820696 
L 703.640658 303.820696 
M 703.978612 303.820696 
L 704.203914 303.820696 
M 704.654519 303.820696 
L 704.992472 303.820696 
M 705.781031 303.820696 
L 706.006333 303.820696 
M 706.231635 303.820696 
L 706.907543 303.820696 
M 707.245496 303.820696 
L 707.921403 303.820696 
M 708.259357 303.820696 
L 708.822613 303.820696 
M 709.49852 303.820696 
L 709.611171 303.820696 
M 709.836473 303.820696 
L 709.949125 303.820696 
M 710.174427 303.820696 
L 710.399729 303.820696 
M 710.962985 303.820696 
L 711.075636 303.820696 
M 711.300939 303.820696 
L 711.976846 303.820696 
M 712.202148 303.820696 
L 712.427451 303.820696 
M 712.652753 303.820696 
L 712.765404 303.820696 
M 712.990707 303.820696 
L 713.553963 303.820696 
M 714.342521 303.820696 
L 714.567823 303.820696 
M 714.905777 303.820696 
L 715.018428 303.820696 
M 716.032289 303.820696 
L 716.257591 303.820696 
M 716.482893 303.820696 
L 716.708196 303.820696 
M 717.046149 303.820696 
L 718.06001 303.820696 
M 718.623266 303.820696 
L 718.735917 303.820696 
M 719.411824 303.820696 
L 719.749778 303.820696 
M 720.200383 303.820696 
L 720.650987 303.820696 
M 721.439546 303.820696 
L 721.664848 303.820696 
M 721.89015 303.820696 
L 722.228104 303.820696 
M 722.566058 303.820696 
L 722.79136 303.820696 
M 723.129313 303.820696 
L 724.143174 303.820696 
M 724.368476 303.820696 
L 724.931732 303.820696 
M 725.494988 303.820696 
L 725.60764 303.820696 
M 726.058244 303.820696 
L 726.170895 303.820696 
M 726.396198 303.820696 
L 726.734151 303.820696 
M 727.072105 303.820696 
L 727.184756 303.820696 
M 727.52271 303.820696 
L 728.198617 303.820696 
M 728.423919 303.820696 
L 728.53657 303.820696 
M 728.987175 303.820696 
L 729.212478 303.820696 
M 729.663082 303.820696 
L 730.451641 303.820696 
M 730.676943 303.820696 
L 730.789594 303.820696 
M 731.35285 303.820696 
L 731.690804 303.820696 
M 731.916106 303.820696 
L 732.25406 303.820696 
M 733.718525 303.820696 
L 733.831176 303.820696 
M 734.056479 303.820696 
L 734.16913 303.820696 
M 734.619734 303.820696 
L 735.295642 303.820696 
M 736.196851 303.820696 
L 736.760107 303.820696 
M 737.098061 303.820696 
L 737.323363 303.820696 
M 737.773968 303.820696 
L 738.449875 303.820696 
M 738.787828 303.820696 
L 739.238433 303.820696 
M 739.463736 303.820696 
L 740.252294 303.820696 
M 740.702899 303.820696 
L 740.81555 303.820696 
M 741.604108 303.820696 
L 741.716759 303.820696 
M 741.942062 303.820696 
L 742.167364 303.820696 
M 742.617969 303.820696 
L 742.843271 303.820696 
M 743.744481 303.820696 
L 743.969783 303.820696 
M 744.64569 303.820696 
L 745.096295 303.820696 
M 745.321597 303.820696 
L 745.434248 303.820696 
M 746.56076 303.820696 
L 747.011365 303.820696 
M 747.349319 303.820696 
L 747.687272 303.820696 
M 747.912575 303.820696 
L 748.025226 303.820696 
M 748.250528 303.820696 
L 748.701133 303.820696 
M 748.926435 303.820696 
L 749.264389 303.820696 
M 749.489691 303.820696 
L 749.940296 303.820696 
M 750.165598 303.820696 
L 750.616203 303.820696 
M 751.066808 303.820696 
L 752.080668 303.820696 
M 752.756576 303.820696 
L 752.869227 303.820696 
M 753.319831 303.820696 
L 753.432483 303.820696 
M 754.221041 303.820696 
L 755.009599 303.820696 
M 755.234902 303.820696 
L 755.347553 303.820696 
M 755.798158 303.820696 
L 756.02346 303.820696 
M 756.248762 303.820696 
L 756.699367 303.820696 
M 757.825879 303.820696 
L 758.276484 303.820696 
M 758.614437 303.820696 
L 758.727088 303.820696 
M 759.065042 303.820696 
L 759.177693 303.820696 
M 759.628298 303.820696 
L 759.740949 303.820696 
M 760.642159 303.820696 
L 760.75481 303.820696 
M 761.768671 303.820696 
L 761.993973 303.820696 
M 762.219275 303.820696 
L 762.331926 303.820696 
M 762.557229 303.820696 
L 762.66988 303.820696 
M 762.895182 303.820696 
L 763.007834 303.820696 
M 763.233136 303.820696 
L 763.458438 303.820696 
M 763.796392 303.820696 
L 763.909043 303.820696 
M 764.134345 303.820696 
L 764.472299 303.820696 
M 764.697601 303.820696 
L 764.810253 303.820696 
M 765.148206 303.820696 
L 765.48616 303.820696 
M 766.049416 303.820696 
L 766.162067 303.820696 
M 766.387369 303.820696 
L 766.837974 303.820696 
M 767.063276 303.820696 
L 767.288579 303.820696 
M 768.753044 303.820696 
L 768.865695 303.820696 
M 769.090998 303.820696 
L 769.879556 303.820696 
M 770.21751 303.820696 
L 770.442812 303.820696 
M 770.780765 303.820696 
L 771.006068 303.820696 
M 771.23137 303.820696 
L 771.569324 303.820696 
M 771.794626 303.820696 
L 773.259092 303.820696 
M 773.822347 303.820696 
L 774.272952 303.820696 
M 774.610906 303.820696 
L 774.723557 303.820696 
M 774.948859 303.820696 
L 775.061511 303.820696 
M 775.624766 303.820696 
L 775.737418 303.820696 
M 775.96272 303.820696 
L 776.413325 303.820696 
M 776.638627 303.820696 
L 777.201883 303.820696 
M 777.990441 303.820696 
L 778.103093 303.820696 
M 778.891651 303.820696 
L 779.567558 303.820696 
M 779.79286 303.820696 
L 780.468768 303.820696 
M 781.482628 303.820696 
L 781.707931 303.820696 
M 782.271186 303.820696 
L 782.383838 303.820696 
M 782.60914 303.820696 
L 782.721791 303.820696 
M 782.947094 303.820696 
L 783.285047 303.820696 
M 783.51035 303.820696 
L 784.073605 303.820696 
M 784.52421 303.820696 
L 784.749513 303.820696 
M 784.974815 303.820696 
L 785.087466 303.820696 
M 785.876024 303.820696 
L 786.326629 303.820696 
M 787.115188 303.820696 
L 787.227839 303.820696 
M 787.453141 303.820696 
L 787.565792 303.820696 
M 787.791095 303.820696 
L 787.903746 303.820696 
M 788.129048 303.820696 
L 788.579653 303.820696 
M 789.25556 303.820696 
L 789.480862 303.820696 
M 789.706165 303.820696 
L 789.818816 303.820696 
M 790.15677 303.820696 
L 790.382072 303.820696 
M 790.607374 303.820696 
L 790.720026 303.820696 
M 791.17063 303.820696 
L 791.733886 303.820696 
M 792.184491 303.820696 
L 792.297142 303.820696 
M 792.522444 303.820696 
L 792.635096 303.820696 
M 793.761608 303.820696 
L 793.98691 303.820696 
M 794.212212 303.820696 
L 794.775468 303.820696 
M 795.000771 303.820696 
L 795.451375 303.820696 
M 795.789329 303.820696 
L 796.014631 303.820696 
M 796.239934 303.820696 
L 796.80319 303.820696 
M 797.028492 303.820696 
L 797.366446 303.820696 
M 797.591748 303.820696 
L 797.929701 303.820696 
M 798.155004 303.820696 
L 798.267655 303.820696 
M 798.71826 303.820696 
L 799.168865 303.820696 
M 799.394167 303.820696 
L 799.506818 303.820696 
M 799.957423 303.820696 
L 800.182725 303.820696 
M 800.520679 303.820696 
L 801.647191 303.820696 
M 802.323098 303.820696 
L 802.5484 303.820696 
M 802.999005 303.820696 
L 803.336958 303.820696 
M 804.125517 303.820696 
L 804.576121 303.820696 
M 804.914075 303.820696 
L 805.477331 303.820696 
M 805.702633 303.820696 
L 805.927936 303.820696 
M 806.153238 303.820696 
L 806.265889 303.820696 
M 808.180959 303.820696 
L 808.518913 303.820696 
M 808.744215 303.820696 
L 808.856867 303.820696 
M 809.082169 303.820696 
L 809.307471 303.820696 
M 809.532774 303.820696 
L 809.645425 303.820696 
M 810.09603 303.820696 
L 811.222541 303.820696 
M 811.560495 303.820696 
L 812.123751 303.820696 
M 812.349053 303.820696 
L 812.461705 303.820696 
L 812.461705 303.820696 
" clip-path="url(#p787c4cf4b8)" style="fill: none; stroke: #f59e0b; stroke-width: 2; stroke-linecap: round"/>
   </g>
   <g id="line2d_70">
    <path d="M 474.620795 303.820696 
L 648.441577 303.820696 
M 649.004833 303.820696 
L 649.455437 303.820696 
M 649.68074 303.820696 
L 649.906042 303.820696 
M 650.469298 303.820696 
L 650.6946 303.820696 
M 650.919903 303.820696 
L 651.032554 303.820696 
M 651.370507 303.820696 
L 651.59581 303.820696 
M 651.933763 303.820696 
L 652.046415 303.820696 
M 652.722322 303.820696 
L 652.834973 303.820696 
M 653.285578 303.820696 
L 654.074136 303.820696 
M 654.299438 303.820696 
L 654.41209 303.820696 
M 654.862694 303.820696 
L 654.975345 303.820696 
M 655.200648 303.820696 
L 655.313299 303.820696 
M 655.651253 303.820696 
L 655.989206 303.820696 
M 656.214509 303.820696 
L 656.665113 303.820696 
M 657.003067 303.820696 
L 657.228369 303.820696 
M 657.453672 303.820696 
L 657.566323 303.820696 
M 657.791625 303.820696 
L 657.904276 303.820696 
M 658.129579 303.820696 
L 658.805486 303.820696 
M 660.044649 303.820696 
L 660.945858 303.820696 
M 661.171161 303.820696 
L 662.410324 303.820696 
M 662.635626 303.820696 
L 663.198882 303.820696 
M 663.649487 303.820696 
L 664.325394 303.820696 
M 664.663348 303.820696 
L 665.226603 303.820696 
M 665.451906 303.820696 
L 665.564557 303.820696 
M 665.902511 303.820696 
L 666.578418 303.820696 
M 666.80372 303.820696 
L 667.592278 303.820696 
M 667.817581 303.820696 
L 667.930232 303.820696 
M 668.493488 303.820696 
L 668.606139 303.820696 
M 669.282046 303.820696 
L 669.507349 303.820696 
M 670.295907 303.820696 
L 670.746512 303.820696 
M 670.971814 303.820696 
L 671.309768 303.820696 
M 671.53507 303.820696 
L 671.647721 303.820696 
M 672.098326 303.820696 
L 672.323628 303.820696 
M 672.999535 303.820696 
L 673.224838 303.820696 
M 674.126047 303.820696 
L 674.238698 303.820696 
M 674.689303 303.820696 
L 675.027257 303.820696 
M 675.928466 303.820696 
L 676.041117 303.820696 
M 676.26642 303.820696 
L 676.379071 303.820696 
M 676.717025 303.820696 
L 676.829676 303.820696 
M 677.392932 303.820696 
L 677.505583 303.820696 
M 678.406792 303.820696 
L 678.632095 303.820696 
M 678.970048 303.820696 
L 679.533304 303.820696 
M 679.758607 303.820696 
L 680.209211 303.820696 
M 681.223072 303.820696 
L 681.673677 303.820696 
M 682.124281 303.820696 
L 682.349584 303.820696 
M 682.687537 303.820696 
L 682.91284 303.820696 
M 683.138142 303.820696 
L 683.701398 303.820696 
M 683.9267 303.820696 
L 684.377305 303.820696 
M 684.940561 303.820696 
L 685.278515 303.820696 
M 685.841771 303.820696 
L 686.292375 303.820696 
M 686.968282 303.820696 
L 687.193585 303.820696 
M 687.756841 303.820696 
L 687.869492 303.820696 
M 688.207446 303.820696 
L 688.320097 303.820696 
M 688.545399 303.820696 
L 688.883353 303.820696 
M 689.108655 303.820696 
L 689.55926 303.820696 
M 690.57312 303.820696 
L 691.023725 303.820696 
M 691.586981 303.820696 
L 691.699632 303.820696 
M 691.924935 303.820696 
L 693.164098 303.820696 
M 693.614703 303.820696 
L 693.840005 303.820696 
M 694.403261 303.820696 
L 695.417122 303.820696 
M 695.642424 303.820696 
L 696.093029 303.820696 
M 696.318331 303.820696 
L 696.430982 303.820696 
M 696.656285 303.820696 
L 696.768936 303.820696 
M 697.444843 303.820696 
L 697.895448 303.820696 
M 698.12075 303.820696 
L 698.233401 303.820696 
M 698.458704 303.820696 
L 698.684006 303.820696 
M 699.359913 303.820696 
L 699.810518 303.820696 
M 700.711727 303.820696 
L 700.824378 303.820696 
M 701.049681 303.820696 
L 701.274983 303.820696 
M 701.500286 303.820696 
L 701.612937 303.820696 
M 701.838239 303.820696 
L 702.063542 303.820696 
M 702.288844 303.820696 
L 702.739449 303.820696 
M 702.964751 303.820696 
L 703.415356 303.820696 
M 704.091263 303.820696 
L 704.429216 303.820696 
M 704.76717 303.820696 
L 705.555728 303.820696 
M 705.893682 303.820696 
L 706.006333 303.820696 
M 706.456938 303.820696 
L 706.907543 303.820696 
M 707.358147 303.820696 
L 707.470798 303.820696 
M 708.59731 303.820696 
L 708.935264 303.820696 
M 709.49852 303.820696 
L 709.611171 303.820696 
M 710.399729 303.820696 
L 710.512381 303.820696 
M 711.075636 303.820696 
L 711.638892 303.820696 
M 711.976846 303.820696 
L 712.765404 303.820696 
M 713.103358 303.820696 
L 713.441311 303.820696 
M 713.779265 303.820696 
L 714.004567 303.820696 
M 714.22987 303.820696 
L 714.455172 303.820696 
M 715.131079 303.820696 
L 715.806986 303.820696 
M 716.708196 303.820696 
L 717.496754 303.820696 
M 717.834708 303.820696 
L 717.947359 303.820696 
M 718.172661 303.820696 
L 718.285312 303.820696 
M 718.623266 303.820696 
L 718.848568 303.820696 
M 719.186522 303.820696 
L 719.299173 303.820696 
M 720.425685 303.820696 
L 720.650987 303.820696 
M 720.87629 303.820696 
L 721.101592 303.820696 
M 722.115453 303.820696 
L 722.228104 303.820696 
M 722.678709 303.820696 
L 723.016662 303.820696 
M 723.579918 303.820696 
L 723.917872 303.820696 
M 724.255825 303.820696 
L 725.044384 303.820696 
M 725.60764 303.820696 
L 725.720291 303.820696 
M 725.945593 303.820696 
L 726.170895 303.820696 
M 726.6215 303.820696 
L 726.734151 303.820696 
M 726.959454 303.820696 
L 727.072105 303.820696 
M 727.410059 303.820696 
L 727.52271 303.820696 
M 727.748012 303.820696 
L 727.860663 303.820696 
M 729.212478 303.820696 
L 729.325129 303.820696 
M 729.888385 303.820696 
L 730.001036 303.820696 
M 730.451641 303.820696 
L 731.014897 303.820696 
M 731.240199 303.820696 
L 731.578152 303.820696 
M 731.803455 303.820696 
L 732.366711 303.820696 
M 733.155269 303.820696 
L 733.943827 303.820696 
M 734.507083 303.820696 
L 734.732386 303.820696 
M 734.957688 303.820696 
L 735.408293 303.820696 
M 736.422153 303.820696 
L 736.534805 303.820696 
M 737.436014 303.820696 
L 737.661317 303.820696 
M 737.99927 303.820696 
L 738.562526 303.820696 
M 738.90048 303.820696 
L 739.013131 303.820696 
M 739.576387 303.820696 
L 739.689038 303.820696 
M 740.026991 303.820696 
L 740.477596 303.820696 
M 740.702899 303.820696 
L 741.266155 303.820696 
M 741.716759 303.820696 
L 742.392666 303.820696 
M 742.73062 303.820696 
L 743.068574 303.820696 
M 743.293876 303.820696 
L 743.406527 303.820696 
M 743.857132 303.820696 
L 744.195085 303.820696 
M 745.884853 303.820696 
L 745.997504 303.820696 
M 746.335458 303.820696 
L 746.448109 303.820696 
M 746.898714 303.820696 
L 747.574621 303.820696 
M 747.912575 303.820696 
L 748.813784 303.820696 
M 749.151738 303.820696 
L 749.602342 303.820696 
M 749.827645 303.820696 
L 750.390901 303.820696 
M 750.728854 303.820696 
L 750.841505 303.820696 
M 751.29211 303.820696 
L 751.404761 303.820696 
M 752.19332 303.820696 
L 752.305971 303.820696 
M 752.756576 303.820696 
L 752.869227 303.820696 
M 753.770436 303.820696 
L 753.995739 303.820696 
M 754.333692 303.820696 
L 754.446343 303.820696 
M 754.671646 303.820696 
L 754.896948 303.820696 
M 755.347553 303.820696 
L 755.685506 303.820696 
M 756.02346 303.820696 
L 756.474065 303.820696 
M 757.825879 303.820696 
L 758.952391 303.820696 
M 759.177693 303.820696 
L 759.740949 303.820696 
M 760.304205 303.820696 
L 760.416856 303.820696 
M 761.205415 303.820696 
L 761.318066 303.820696 
M 761.656019 303.820696 
L 761.881322 303.820696 
M 762.106624 303.820696 
L 762.219275 303.820696 
M 762.782531 303.820696 
L 763.120485 303.820696 
M 763.345787 303.820696 
L 764.021694 303.820696 
M 764.246997 303.820696 
L 764.472299 303.820696 
M 765.148206 303.820696 
L 765.711462 303.820696 
M 765.936764 303.820696 
L 766.387369 303.820696 
M 766.837974 303.820696 
L 767.063276 303.820696 
M 767.288579 303.820696 
L 767.739183 303.820696 
M 768.077137 303.820696 
L 768.415091 303.820696 
M 769.090998 303.820696 
L 769.3163 303.820696 
M 770.104858 303.820696 
L 770.330161 303.820696 
M 770.555463 303.820696 
L 770.780765 303.820696 
M 771.456673 303.820696 
L 771.569324 303.820696 
M 771.794626 303.820696 
L 771.907277 303.820696 
M 772.357882 303.820696 
L 773.371743 303.820696 
M 773.822347 303.820696 
L 774.04765 303.820696 
M 774.610906 303.820696 
L 774.948859 303.820696 
M 775.512115 303.820696 
L 776.751278 303.820696 
M 776.976581 303.820696 
L 777.089232 303.820696 
M 777.427185 303.820696 
L 777.652488 303.820696 
M 778.441046 303.820696 
L 778.553697 303.820696 
M 779.004302 303.820696 
L 779.342256 303.820696 
M 779.680209 303.820696 
L 780.018163 303.820696 
M 781.144675 303.820696 
L 781.482628 303.820696 
M 781.707931 303.820696 
L 782.045884 303.820696 
M 782.60914 303.820696 
L 782.834442 303.820696 
M 783.059745 303.820696 
L 783.397698 303.820696 
M 783.848303 303.820696 
L 783.960954 303.820696 
M 784.186257 303.820696 
L 784.411559 303.820696 
M 784.974815 303.820696 
L 785.200117 303.820696 
M 785.876024 303.820696 
L 786.326629 303.820696 
M 786.664583 303.820696 
L 786.777234 303.820696 
M 787.002536 303.820696 
L 787.453141 303.820696 
M 788.241699 303.820696 
L 789.480862 303.820696 
M 790.269421 303.820696 
L 790.720026 303.820696 
M 791.621235 303.820696 
L 792.184491 303.820696 
M 792.409793 303.820696 
L 792.635096 303.820696 
M 792.860398 303.820696 
L 792.973049 303.820696 
M 795.000771 303.820696 
L 795.226073 303.820696 
M 796.014631 303.820696 
L 796.239934 303.820696 
M 796.465236 303.820696 
L 796.690538 303.820696 
M 797.366446 303.820696 
L 797.479097 303.820696 
M 799.168865 303.820696 
L 799.506818 303.820696 
M 799.73212 303.820696 
L 799.844772 303.820696 
M 801.196586 303.820696 
L 801.647191 303.820696 
M 801.985144 303.820696 
L 802.5484 303.820696 
M 802.773702 303.820696 
L 803.111656 303.820696 
M 803.674912 303.820696 
L 804.914075 303.820696 
M 805.139377 303.820696 
L 805.36468 303.820696 
M 805.589982 303.820696 
L 806.491192 303.820696 
M 806.716494 303.820696 
L 806.829145 303.820696 
M 807.167099 303.820696 
L 807.730355 303.820696 
M 808.068308 303.820696 
L 808.180959 303.820696 
M 808.744215 303.820696 
L 809.420123 303.820696 
M 810.208681 303.820696 
L 810.321332 303.820696 
M 810.546634 303.820696 
L 810.659286 303.820696 
M 810.884588 303.820696 
L 811.10989 303.820696 
M 812.349053 303.820696 
" clip-path="url(#p787c4cf4b8)" style="fill: none; stroke: #d97706; stroke-width: 2; stroke-linecap: round"/>
   </g>
   <g id="patch_8">
    <path d="M 457.72875 317.017969 
L 457.72875 26.677969 
" style="fill: none; stroke: #cccccc; stroke-linejoin: miter; stroke-linecap: square"/>
   </g>
   <g id="patch_9">
    <path d="M 829.35375 317.017969 
L 829.35375 26.677969 
" style="fill: none; stroke: #cccccc; stroke-linejoin: miter; stroke-linecap: square"/>
   </g>
   <g id="patch_10">
    <path d="M 457.72875 317.017969 
L 829.35375 317.017969 
" style="fill: none; stroke: #cccccc; stroke-linejoin: miter; stroke-linecap: square"/>
   </g>
   <g id="patch_11">
    <path d="M 457.72875 26.677969 
L 829.35375 26.677969 
" style="fill: none; stroke: #cccccc; stroke-linejoin: miter; stroke-linecap: square"/>
   </g>
   <g id="text_8">
    <!-- With dingo culling -->
    <g style="fill: #262626" transform="translate(575.650781 20.677969) scale(0.13 -0.13)">
     <defs>
      <path id="DejaVuSerif-Bold-57" d="M 5453 0 
L 4647 0 
L 3591 3397 
L 2534 0 
L 1728 0 
L 397 4288 
L -56 4288 
L -56 4666 
L 2156 4666 
L 2156 4288 
L 1656 4288 
L 2547 1422 
L 3553 4666 
L 4441 4666 
L 5466 1369 
L 6375 4288 
L 5819 4288 
L 5819 4666 
L 7263 4666 
L 7263 4288 
L 6784 4288 
L 5453 0 
z
" transform="scale(0.015625)"/>
      <path id="DejaVuSerif-Bold-69" d="M 588 4263 
Q 588 4516 763 4689 
Q 938 4863 1191 4863 
Q 1438 4863 1611 4689 
Q 1784 4516 1784 4263 
Q 1784 4016 1611 3842 
Q 1438 3669 1191 3669 
Q 938 3669 763 3841 
Q 588 4013 588 4263 
z
M 1797 378 
L 2272 378 
L 2272 0 
L 219 0 
L 219 378 
L 691 378 
L 691 2944 
L 219 2944 
L 219 3322 
L 1797 3322 
L 1797 378 
z
" transform="scale(0.015625)"/>
      <path id="DejaVuSerif-Bold-68" d="M 219 0 
L 219 378 
L 691 378 
L 691 4488 
L 197 4488 
L 197 4863 
L 1797 4863 
L 1797 2853 
Q 1997 3150 2253 3281 
Q 2509 3413 2900 3413 
Q 3459 3413 3745 3083 
Q 4031 2753 4031 2113 
L 4031 378 
L 4506 378 
L 4506 0 
L 2522 0 
L 2522 378 
L 2925 378 
L 2925 2144 
Q 2925 2566 2817 2730 
Q 2709 2894 2444 2894 
Q 2109 2894 1953 2648 
Q 1797 2403 1797 1869 
L 1797 378 
L 2203 378 
L 2203 0 
L 219 0 
z
" transform="scale(0.015625)"/>
      <path id="DejaVuSerif-Bold-64" d="M 2747 1497 
L 2747 1825 
Q 2747 2406 2597 2665 
Q 2447 2925 2119 2925 
Q 1775 2925 1636 2651 
Q 1497 2378 1497 1663 
Q 1497 947 1637 672 
Q 1778 397 2119 397 
Q 2447 397 2597 656 
Q 2747 916 2747 1497 
z
M 3853 378 
L 4325 378 
L 4325 0 
L 2747 0 
L 2747 422 
Q 2606 163 2367 36 
Q 2128 -91 1778 -91 
Q 1072 -91 667 378 
Q 263 847 263 1663 
Q 263 2481 667 2947 
Q 1072 3413 1778 3413 
Q 2128 3413 2367 3286 
Q 2606 3159 2747 2900 
L 2747 4488 
L 2272 4488 
L 2272 4863 
L 3853 4863 
L 3853 378 
z
" transform="scale(0.015625)"/>
      <path id="DejaVuSerif-Bold-67" d="M 3853 2944 
L 3853 44 
Q 3853 -656 3354 -1039 
Q 2856 -1422 1947 -1422 
Q 1616 -1422 1275 -1370 
Q 934 -1319 575 -1216 
L 575 -422 
L 928 -422 
Q 975 -750 1192 -909 
Q 1409 -1069 1813 -1069 
Q 2325 -1069 2536 -823 
Q 2747 -578 2747 44 
L 2747 422 
Q 2606 163 2367 36 
Q 2128 -91 1778 -91 
Q 1072 -91 667 378 
Q 263 847 263 1663 
Q 263 2481 667 2947 
Q 1072 3413 1778 3413 
Q 2128 3413 2367 3286 
Q 2606 3159 2747 2900 
L 2747 3322 
L 4325 3322 
L 4325 2944 
L 3853 2944 
z
M 2747 1825 
Q 2747 2406 2597 2665 
Q 2447 2925 2119 2925 
Q 1775 2925 1636 2651 
Q 1497 2378 1497 1663 
Q 1497 947 1637 672 
Q 1778 397 2119 397 
Q 2447 397 2597 656 
Q 2747 916 2747 1497 
L 2747 1825 
z
" transform="scale(0.015625)"/>
      <path id="DejaVuSerif-Bold-6f" d="M 2138 263 
Q 2488 263 2630 563 
Q 2772 863 2772 1663 
Q 2772 2463 2631 2761 
Q 2491 3059 2138 3059 
Q 1784 3059 1640 2757 
Q 1497 2456 1497 1663 
Q 1497 869 1640 566 
Q 1784 263 2138 263 
z
M 2138 -91 
Q 1259 -91 761 376 
Q 263 844 263 1663 
Q 263 2484 761 2948 
Q 1259 3413 2138 3413 
Q 3019 3413 3516 2948 
Q 4013 2484 4013 1663 
Q 4013 844 3514 376 
Q 3016 -91 2138 -91 
z
" transform="scale(0.015625)"/>
     </defs>
     <use xlink:href="#DejaVuSerif-Bold-57"/>
     <use xlink:href="#DejaVuSerif-Bold-69" transform="translate(110.554688 0)"/>
     <use xlink:href="#DejaVuSerif-Bold-74" transform="translate(148.542969 0)"/>
     <use xlink:href="#DejaVuSerif-Bold-68" transform="translate(194.734375 0)"/>
     <use xlink:href="#DejaVuSerif-Bold-20" transform="translate(267.439453 0)"/>
     <use xlink:href="#DejaVuSerif-Bold-64" transform="translate(302.253906 0)"/>
     <use xlink:href="#DejaVuSerif-Bold-69" transform="translate(372.175781 0)"/>
     <use xlink:href="#DejaVuSerif-Bold-6e" transform="translate(410.164062 0)"/>
     <use xlink:href="#DejaVuSerif-Bold-67" transform="translate(482.869141 0)"/>
     <use xlink:href="#DejaVuSerif-Bold-6f" transform="translate(552.791016 0)"/>
     <use xlink:href="#DejaVuSerif-Bold-20" transform="translate(619.490234 0)"/>
     <use xlink:href="#DejaVuSerif-Bold-63" transform="translate(654.304688 0)"/>
     <use xlink:href="#DejaVuSerif-Bold-75" transform="translate(715.193359 0)"/>
     <use xlink:href="#DejaVuSerif-Bold-6c" transform="translate(787.898438 0)"/>
     <use xlink:href="#DejaVuSerif-Bold-6c" transform="translate(825.886719 0)"/>
     <use xlink:href="#DejaVuSerif-Bold-69" transform="translate(863.875 0)"/>
     <use xlink:href="#DejaVuSerif-Bold-6e" transform="translate(901.863281 0)"/>
     <use xlink:href="#DejaVuSerif-Bold-67" transform="translate(974.568359 0)"/>
    </g>
   </g>
   <g id="legend_2">
    <g id="line2d_71">
     <path d="M 747.283594 38.466562 
L 756.283594 38.466562 
L 765.283594 38.466562 
" style="fill: none; stroke: #f59e0b; stroke-width: 2; stroke-linecap: round"/>
    </g>
    <g id="text_9">
     <!-- Kangaroos -->
     <g style="fill: #262626" transform="translate(772.483594 41.616562) scale(0.09 -0.09)">
      <use xlink:href="#DejaVuSerif-4b"/>
      <use xlink:href="#DejaVuSerif-61" transform="translate(74.707031 0)"/>
      <use xlink:href="#DejaVuSerif-6e" transform="translate(134.326172 0)"/>
      <use xlink:href="#DejaVuSerif-67" transform="translate(198.730469 0)"/>
      <use xlink:href="#DejaVuSerif-61" transform="translate(262.744141 0)"/>
      <use xlink:href="#DejaVuSerif-72" transform="translate(322.363281 0)"/>
      <use xlink:href="#DejaVuSerif-6f" transform="translate(370.166016 0)"/>
      <use xlink:href="#DejaVuSerif-6f" transform="translate(430.371094 0)"/>
      <use xlink:href="#DejaVuSerif-73" transform="translate(490.576172 0)"/>
     </g>
    </g>
    <g id="line2d_72">
     <path d="M 747.283594 51.804844 
L 756.283594 51.804844 
L 765.283594 51.804844 
" style="fill: none; stroke: #d97706; stroke-width: 2; stroke-linecap: round"/>
    </g>
    <g id="text_10">
     <!-- Dingoes -->
     <g style="fill: #262626" transform="translate(772.483594 54.954844) scale(0.09 -0.09)">
      <use xlink:href="#DejaVuSerif-44"/>
      <use xlink:href="#DejaVuSerif-69" transform="translate(80.175781 0)"/>
      <use xlink:href="#DejaVuSerif-6e" transform="translate(112.158203 0)"/>
      <use xlink:href="#DejaVuSerif-67" transform="translate(176.5625 0)"/>
      <use xlink:href="#DejaVuSerif-6f" transform="translate(240.576172 0)"/>
      <use xlink:href="#DejaVuSerif-65" transform="translate(300.78125 0)"/>
      <use xlink:href="#DejaVuSerif-73" transform="translate(359.960938 0)"/>
     </g>
    </g>
   </g>
  </g>
 </g>
 <defs>
  <clipPath id="p106064c5e2">
   <rect x="29.91375" y="26.677969" width="371.625" height="290.34"/>
  </clipPath>
  <clipPath id="p787c4cf4b8">
   <rect x="457.72875" y="26.677969" width="371.625" height="290.34"/>
  </clipPath>
 </defs>
</svg>
