<?xml version="1.0" encoding="utf-8" standalone="no"?>
<!DOCTYPE svg PUBLIC "-//W3C//DTD SVG 1.1//EN"
  "http://www.w3.org/Graphics/SVG/1.1/DTD/svg11.dtd">
<svg xmlns:xlink="http://www.w3.org/1999/xlink" width="950.4pt" height="385.233125pt" viewBox="0 0 950.4 385.233125" xmlns="http://www.w3.org/2000/svg" version="1.1">
 <metadata>
  <rdf:RDF xmlns:dc="http://purl.org/dc/elements/1.1/" xmlns:cc="http://creativecommons.org/ns#" xmlns:rdf="http://www.w3.org/1999/02/22-rdf-syntax-ns#">
   <cc:Work>
    <dc:type rdf:resource="http://purl.org/dc/dcmitype/StillImage"/>
    <dc:date>2026-01-30T14:54:05.091031</dc:date>
    <dc:format>image/svg+xml</dc:format>
    <dc:creator>
     <cc:Agent>
      <dc:title>Matplotlib v3.10.1, https://matplotlib.org/</dc:title>
     </cc:Agent>
    </dc:creator>
   </cc:Work>
  </rdf:RDF>
 </metadata>
 <defs>
  <style type="text/css">*{stroke-linejoin: round; stroke-linecap: butt}</style>
 </defs>
 <g id="figure_1">
  <g id="patch_1">
   <path d="M 0 385.233125 
L 950.4 385.233125 
L 950.4 0 
L 0 0 
L 0 385.233125 
z
" style="fill: none"/>
  </g>
  <g id="axes_1">
   <g id="patch_2">
    <path d="M 63.36 334.833125 
L 383.04 334.833125 
Q 396 334.833125 396 321.873125 
L 396 88.593125 
Q 396 75.633125 383.04 75.633125 
L 63.36 75.633125 
Q 50.4 75.633125 50.4 88.593125 
L 50.4 321.873125 
Q 50.4 334.833125 63.36 334.833125 
z
" clip-path="url(#pfd9957ab09)" style="fill: #f1f5f9; opacity: 0.7; stroke: #1e293b; stroke-width: 2; stroke-linejoin: miter"/>
   </g>
   <g id="patch_3">
    <path d="M 171.36 282.993125 
C 191.982193 282.993125 211.762531 274.799841 226.344623 260.217748 
C 240.926716 245.635656 249.12 225.855318 249.12 205.233125 
C 249.12 184.610932 240.926716 164.830594 226.344623 150.248502 
C 211.762531 135.666409 191.982193 127.473125 171.36 127.473125 
C 150.737807 127.473125 130.957469 135.666409 116.375377 150.248502 
C 101.793284 164.830594 93.6 184.610932 93.6 205.233125 
C 93.6 225.855318 101.793284 245.635656 116.375377 260.217748 
C 130.957469 274.799841 150.737807 282.993125 171.36 282.993125 
z
" clip-path="url(#pfd9957ab09)" style="fill: #3b82f6; opacity: 0.35; stroke: #3b82f6; stroke-width: 2.5; stroke-linejoin: miter"/>
   </g>
   <g id="patch_4">
    <path d="M 275.04 282.993125 
C 295.662193 282.993125 315.442531 274.799841 330.024623 260.217748 
C 344.606716 245.635656 352.8 225.855318 352.8 205.233125 
C 352.8 184.610932 344.606716 164.830594 330.024623 150.248502 
C 315.442531 135.666409 295.662193 127.473125 275.04 127.473125 
C 254.417807 127.473125 234.637469 135.666409 220.055377 150.248502 
C 205.473284 164.830594 197.28 184.610932 197.28 205.233125 
C 197.28 225.855318 205.473284 245.635656 220.055377 260.217748 
C 234.637469 274.799841 254.417807 282.993125 275.04 282.993125 
z
" clip-path="url(#pfd9957ab09)" style="fill: #ef4444; opacity: 0.35; stroke: #ef4444; stroke-width: 2.5; stroke-linejoin: miter"/>
   </g>
   <g id="text_1">
    <!-- $S$ -->
    <g style="fill: #1e293b" transform="translate(63.36 97.233125) scale(0.14 -0.14)">
     <defs>
      <path id="Cmmi10-53" d="M 391 -141 
Q 372 -141 356 -119 
Q 341 -97 341 -78 
L 709 1416 
Q 722 1453 763 1453 
L 838 1453 
Q 863 1453 877 1434 
Q 891 1416 891 1388 
Q 838 1169 838 997 
Q 838 534 1156 309 
Q 1475 84 1959 84 
Q 2169 84 2372 187 
Q 2575 291 2726 456 
Q 2878 622 2968 826 
Q 3059 1031 3059 1241 
Q 3059 1466 2940 1642 
Q 2822 1819 2613 1869 
L 1831 2075 
Q 1516 2159 1328 2414 
Q 1141 2669 1141 2988 
Q 1141 3372 1369 3728 
Q 1597 4084 1964 4298 
Q 2331 4513 2713 4513 
Q 3006 4513 3251 4405 
Q 3497 4297 3628 4063 
L 3994 4494 
Q 4031 4513 4038 4513 
L 4078 4513 
Q 4103 4513 4118 4491 
Q 4134 4469 4134 4447 
L 3763 2963 
Q 3753 2919 3713 2919 
L 3634 2919 
Q 3578 2919 3578 2988 
Q 3609 3191 3609 3341 
Q 3609 3638 3507 3858 
Q 3406 4078 3201 4192 
Q 2997 4306 2694 4306 
Q 2438 4306 2184 4159 
Q 1931 4013 1775 3769 
Q 1619 3525 1619 3263 
Q 1619 3056 1739 2897 
Q 1859 2738 2059 2681 
L 2841 2478 
Q 3053 2422 3211 2280 
Q 3369 2138 3450 1942 
Q 3531 1747 3531 1516 
Q 3531 1213 3403 917 
Q 3275 622 3045 378 
Q 2816 134 2525 -3 
Q 2234 -141 1931 -141 
Q 1169 -141 838 306 
L 481 -122 
Q 444 -141 434 -141 
L 391 -141 
z
" transform="scale(0.015625)"/>
     </defs>
     <use xlink:href="#Cmmi10-53" transform="translate(0 0.484375)"/>
    </g>
   </g>
   <g id="text_2">
    <!-- $A$ -->
    <g style="fill: #3b82f6" transform="translate(130.8 209.369375) scale(0.16 -0.16)">
     <defs>
      <path id="Cmmi10-41" d="M 288 0 
Q 225 0 225 84 
Q 250 225 306 225 
Q 566 225 755 328 
Q 944 431 1081 647 
Q 1094 659 1094 659 
L 3378 4513 
Q 3428 4581 3500 4581 
L 3584 4581 
Q 3603 4581 3622 4573 
Q 3641 4566 3655 4548 
Q 3669 4531 3669 4513 
L 4056 378 
Q 4056 350 4084 294 
Q 4147 225 4563 225 
Q 4628 225 4628 141 
Q 4606 56 4592 28 
Q 4578 0 4519 0 
L 2919 0 
Q 2859 0 2859 84 
Q 2894 225 2944 225 
Q 3450 225 3481 397 
L 3384 1453 
L 1806 1453 
L 1294 594 
Q 1247 525 1247 434 
Q 1247 322 1355 273 
Q 1463 225 1594 225 
Q 1656 225 1656 141 
Q 1634 50 1621 25 
Q 1609 0 1550 0 
L 288 0 
z
M 1931 1678 
L 3359 1678 
L 3169 3750 
L 1931 1678 
z
" transform="scale(0.015625)"/>
     </defs>
     <use xlink:href="#Cmmi10-41" transform="translate(0 0.421875)"/>
    </g>
   </g>
   <g id="text_3">
    <!-- $B$ -->
    <g style="fill: #ef4444" transform="translate(303.52 209.369375) scale(0.16 -0.16)">
     <defs>
      <path id="Cmmi10-42" d="M 319 0 
Q 256 0 256 84 
Q 259 100 268 137 
Q 278 175 293 200 
Q 309 225 341 225 
Q 522 225 656 234 
Q 791 244 884 269 
Q 959 297 1006 441 
L 1881 3956 
Q 1894 4019 1894 4044 
Q 1894 4113 1819 4122 
Q 1697 4147 1356 4147 
Q 1294 4147 1294 4231 
Q 1297 4247 1306 4286 
Q 1316 4325 1333 4348 
Q 1350 4372 1375 4372 
L 3669 4372 
Q 3878 4372 4083 4320 
Q 4288 4269 4461 4156 
Q 4634 4044 4736 3876 
Q 4838 3709 4838 3488 
Q 4838 3247 4714 3040 
Q 4591 2834 4395 2681 
Q 4200 2528 3973 2429 
Q 3747 2331 3500 2284 
Q 3675 2284 3854 2215 
Q 4034 2147 4175 2028 
Q 4316 1909 4402 1743 
Q 4488 1578 4488 1388 
Q 4488 1003 4219 684 
Q 3950 366 3542 183 
Q 3134 0 2753 0 
L 319 0 
z
M 1497 275 
Q 1497 225 1716 225 
L 2631 225 
Q 2944 225 3231 398 
Q 3519 572 3692 859 
Q 3866 1147 3866 1459 
Q 3866 1650 3786 1820 
Q 3706 1991 3556 2089 
Q 3406 2188 3213 2188 
L 1966 2188 
L 1522 416 
Q 1497 328 1497 275 
z
M 2009 2356 
L 2981 2356 
Q 3288 2356 3577 2512 
Q 3866 2669 4048 2937 
Q 4231 3206 4231 3506 
Q 4231 3784 4057 3965 
Q 3884 4147 3609 4147 
L 2731 4147 
Q 2559 4147 2500 4115 
Q 2441 4084 2400 3928 
L 2009 2356 
z
" transform="scale(0.015625)"/>
     </defs>
     <use xlink:href="#Cmmi10-42" transform="translate(0 0.6875)"/>
    </g>
   </g>
   <g id="text_4">
    <!-- $A \cap B$ -->
    <g style="fill: #1e293b" transform="translate(210.55 207.818281) scale(0.1 -0.1)">
     <defs>
      <path id="Cmsy10-5c" d="M 359 -25 
L 359 2472 
Q 359 2897 625 3206 
Q 891 3516 1306 3672 
Q 1722 3828 2131 3828 
Q 2434 3828 2745 3745 
Q 3056 3663 3320 3489 
Q 3584 3316 3743 3056 
Q 3903 2797 3903 2472 
L 3903 -25 
Q 3903 -75 3865 -108 
Q 3828 -141 3775 -141 
Q 3728 -141 3687 -108 
Q 3647 -75 3647 -25 
L 3647 2450 
Q 3647 2731 3508 2945 
Q 3369 3159 3151 3293 
Q 2934 3428 2662 3500 
Q 2391 3572 2131 3572 
Q 1775 3572 1426 3447 
Q 1078 3322 847 3069 
Q 616 2816 616 2450 
L 616 -25 
Q 616 -75 575 -108 
Q 534 -141 488 -141 
Q 434 -141 396 -108 
Q 359 -75 359 -25 
z
" transform="scale(0.015625)"/>
     </defs>
     <use xlink:href="#Cmmi10-41" transform="translate(0 0.421875)"/>
     <use xlink:href="#Cmsy10-5c" transform="translate(92.558594 0.421875)"/>
     <use xlink:href="#Cmmi10-42" transform="translate(176.71875 0.421875)"/>
    </g>
   </g>
   <g id="text_5">
    <g id="patch_5">
     <path d="M 15.84 126.833125 
L 172.04 126.833125 
Q 175.04 126.833125 175.04 123.833125 
L 175.04 113.833125 
Q 175.04 110.833125 172.04 110.833125 
L 15.84 110.833125 
Q 12.84 110.833125 12.84 113.833125 
L 12.84 123.833125 
Q 12.84 126.833125 15.84 126.833125 
z
" style="fill: #ffffff; opacity: 0.95; stroke: #e2e8f0; stroke-linejoin: miter"/>
    </g>
    <!-- $P(A \cup B) = P(A) + P(B) - P(A \cap B)$ -->
    <g style="fill: #1e293b" transform="translate(15.84 121.333125) scale(0.1 -0.1)">
     <defs>
      <path id="Cmmi10-50" d="M 313 0 
Q 250 0 250 84 
Q 253 100 262 139 
Q 272 178 289 201 
Q 306 225 331 225 
Q 722 225 878 269 
Q 959 297 997 441 
L 1875 3956 
Q 1888 4019 1888 4044 
Q 1888 4113 1813 4122 
Q 1691 4147 1350 4147 
Q 1288 4147 1288 4231 
Q 1291 4247 1300 4286 
Q 1309 4325 1326 4348 
Q 1344 4372 1369 4372 
L 3578 4372 
Q 3881 4372 4165 4264 
Q 4450 4156 4631 3934 
Q 4813 3713 4813 3397 
Q 4813 2991 4527 2672 
Q 4241 2353 3814 2175 
Q 3388 1997 2988 1997 
L 1947 1997 
L 1556 416 
Q 1544 353 1544 325 
Q 1544 300 1551 283 
Q 1559 266 1573 261 
Q 1588 256 1619 250 
Q 1741 225 2081 225 
Q 2144 225 2144 141 
Q 2122 50 2109 25 
Q 2097 0 2034 0 
L 313 0 
z
M 1978 2188 
L 2875 2188 
Q 3497 2188 3822 2522 
Q 3988 2688 4092 3000 
Q 4197 3313 4197 3566 
Q 4197 3881 3956 4014 
Q 3716 4147 3359 4147 
L 2747 4147 
Q 2572 4147 2515 4117 
Q 2459 4088 2413 3928 
L 1978 2188 
z
" transform="scale(0.015625)"/>
      <path id="Cmr10-28" d="M 1984 -1588 
Q 1628 -1306 1370 -942 
Q 1113 -578 948 -165 
Q 784 247 703 697 
Q 622 1147 622 1600 
Q 622 2059 703 2509 
Q 784 2959 951 3375 
Q 1119 3791 1378 4153 
Q 1638 4516 1984 4788 
Q 1984 4800 2016 4800 
L 2075 4800 
Q 2094 4800 2109 4783 
Q 2125 4766 2125 4744 
Q 2125 4716 2113 4703 
Q 1800 4397 1592 4047 
Q 1384 3697 1257 3301 
Q 1131 2906 1075 2482 
Q 1019 2059 1019 1600 
Q 1019 -434 2106 -1491 
Q 2125 -1509 2125 -1544 
Q 2125 -1559 2108 -1579 
Q 2091 -1600 2075 -1600 
L 2016 -1600 
Q 1984 -1600 1984 -1588 
z
" transform="scale(0.015625)"/>
      <path id="Cmsy10-5b" d="M 359 1216 
L 359 3713 
Q 359 3759 396 3793 
Q 434 3828 488 3828 
Q 534 3828 575 3793 
Q 616 3759 616 3713 
L 616 1234 
Q 616 956 752 747 
Q 888 538 1111 398 
Q 1334 259 1606 187 
Q 1878 116 2131 116 
Q 2388 116 2659 186 
Q 2931 256 3151 393 
Q 3372 531 3509 743 
Q 3647 956 3647 1234 
L 3647 3713 
Q 3647 3759 3687 3793 
Q 3728 3828 3775 3828 
Q 3828 3828 3865 3793 
Q 3903 3759 3903 3713 
L 3903 1216 
Q 3903 891 3743 631 
Q 3584 372 3323 200 
Q 3063 28 2747 -56 
Q 2431 -141 2131 -141 
Q 1831 -141 1515 -56 
Q 1200 28 939 200 
Q 678 372 518 631 
Q 359 891 359 1216 
z
" transform="scale(0.015625)"/>
      <path id="Cmr10-29" d="M 416 -1600 
Q 359 -1600 359 -1544 
Q 359 -1516 372 -1503 
Q 1466 -434 1466 1600 
Q 1466 3634 384 4691 
Q 359 4706 359 4744 
Q 359 4766 376 4783 
Q 394 4800 416 4800 
L 475 4800 
Q 494 4800 506 4788 
Q 966 4425 1272 3906 
Q 1578 3388 1720 2800 
Q 1863 2213 1863 1600 
Q 1863 1147 1786 708 
Q 1709 269 1542 -157 
Q 1375 -584 1119 -945 
Q 863 -1306 506 -1588 
Q 494 -1600 475 -1600 
L 416 -1600 
z
" transform="scale(0.015625)"/>
      <path id="Cmr10-3d" d="M 481 850 
Q 428 850 393 890 
Q 359 931 359 978 
Q 359 1031 393 1068 
Q 428 1106 481 1106 
L 4500 1106 
Q 4547 1106 4581 1068 
Q 4616 1031 4616 978 
Q 4616 931 4581 890 
Q 4547 850 4500 850 
L 481 850 
z
M 481 2094 
Q 428 2094 393 2131 
Q 359 2169 359 2222 
Q 359 2269 393 2309 
Q 428 2350 481 2350 
L 4500 2350 
Q 4547 2350 4581 2309 
Q 4616 2269 4616 2222 
Q 4616 2169 4581 2131 
Q 4547 2094 4500 2094 
L 481 2094 
z
" transform="scale(0.015625)"/>
      <path id="Cmr10-2b" d="M 481 1472 
Q 428 1472 393 1512 
Q 359 1553 359 1600 
Q 359 1647 393 1687 
Q 428 1728 481 1728 
L 2363 1728 
L 2363 3616 
Q 2363 3666 2400 3698 
Q 2438 3731 2491 3731 
Q 2538 3731 2578 3698 
Q 2619 3666 2619 3616 
L 2619 1728 
L 4500 1728 
Q 4547 1728 4581 1687 
Q 4616 1647 4616 1600 
Q 4616 1553 4581 1512 
Q 4547 1472 4500 1472 
L 2619 1472 
L 2619 -416 
Q 2619 -466 2578 -498 
Q 2538 -531 2491 -531 
Q 2438 -531 2400 -498 
Q 2363 -466 2363 -416 
L 2363 1472 
L 481 1472 
z
" transform="scale(0.015625)"/>
      <path id="Cmsy10-a1" d="M 653 1472 
Q 600 1472 565 1512 
Q 531 1553 531 1600 
Q 531 1647 565 1687 
Q 600 1728 653 1728 
L 4325 1728 
Q 4375 1728 4408 1687 
Q 4441 1647 4441 1600 
Q 4441 1553 4408 1512 
Q 4375 1472 4325 1472 
L 653 1472 
z
" transform="scale(0.015625)"/>
     </defs>
     <use xlink:href="#Cmmi10-50"/>
     <use xlink:href="#Cmr10-28" transform="translate(64.208984 0)"/>
     <use xlink:href="#Cmmi10-41" transform="translate(103.027344 0)"/>
     <use xlink:href="#Cmsy10-5b" transform="translate(195.585938 0)"/>
     <use xlink:href="#Cmmi10-42" transform="translate(279.746094 0)"/>
     <use xlink:href="#Cmr10-29" transform="translate(355.527344 0)"/>
     <use xlink:href="#Cmr10-3d" transform="translate(411.904297 0)"/>
     <use xlink:href="#Cmmi10-50" transform="translate(507.148438 0)"/>
     <use xlink:href="#Cmr10-28" transform="translate(571.357422 0)"/>
     <use xlink:href="#Cmmi10-41" transform="translate(610.175781 0)"/>
     <use xlink:href="#Cmr10-29" transform="translate(685.175781 0)"/>
     <use xlink:href="#Cmr10-2b" transform="translate(741.552734 0)"/>
     <use xlink:href="#Cmmi10-50" transform="translate(836.796875 0)"/>
     <use xlink:href="#Cmr10-28" transform="translate(901.005859 0)"/>
     <use xlink:href="#Cmmi10-42" transform="translate(939.824219 0)"/>
     <use xlink:href="#Cmr10-29" transform="translate(1015.605469 0)"/>
     <use xlink:href="#Cmsy10-a1" transform="translate(1071.982422 0)"/>
     <use xlink:href="#Cmmi10-50" transform="translate(1167.226562 0)"/>
     <use xlink:href="#Cmr10-28" transform="translate(1231.435547 0)"/>
     <use xlink:href="#Cmmi10-41" transform="translate(1270.253906 0)"/>
     <use xlink:href="#Cmsy10-5c" transform="translate(1362.8125 0)"/>
     <use xlink:href="#Cmmi10-42" transform="translate(1446.972656 0)"/>
     <use xlink:href="#Cmr10-29" transform="translate(1522.753906 0)"/>
    </g>
   </g>
   <g id="text_6">
    <g id="patch_6">
     <path d="M 15.84 189.041125 
L 91.64 189.041125 
Q 94.64 189.041125 94.64 186.041125 
L 94.64 176.041125 
Q 94.64 173.041125 91.64 173.041125 
L 15.84 173.041125 
Q 12.84 173.041125 12.84 176.041125 
L 12.84 186.041125 
Q 12.84 189.041125 15.84 189.041125 
z
" style="fill: #ffffff; opacity: 0.95; stroke: #e2e8f0; stroke-linejoin: miter"/>
    </g>
    <!-- $P(A^c) = 1 - P(A)$ -->
    <g style="fill: #1e293b" transform="translate(15.84 183.541125) scale(0.1 -0.1)">
     <defs>
      <path id="Cmmi10-63" d="M 750 763 
Q 750 484 892 290 
Q 1034 97 1300 97 
Q 1681 97 2032 272 
Q 2384 447 2606 756 
Q 2625 775 2656 775 
Q 2688 775 2720 739 
Q 2753 703 2753 672 
Q 2753 647 2741 634 
Q 2506 306 2109 117 
Q 1713 -72 1288 -72 
Q 981 -72 747 73 
Q 513 219 384 462 
Q 256 706 256 1013 
Q 256 1444 497 1869 
Q 738 2294 1138 2561 
Q 1538 2828 1978 2828 
Q 2266 2828 2495 2689 
Q 2725 2550 2725 2278 
Q 2725 2103 2623 1979 
Q 2522 1856 2350 1856 
Q 2247 1856 2176 1920 
Q 2106 1984 2106 2088 
Q 2106 2238 2215 2344 
Q 2325 2450 2472 2450 
L 2484 2450 
Q 2409 2559 2267 2611 
Q 2125 2663 1972 2663 
Q 1597 2663 1315 2342 
Q 1034 2022 892 1576 
Q 750 1131 750 763 
z
" transform="scale(0.015625)"/>
      <path id="Cmr10-31" d="M 594 0 
L 594 225 
Q 1394 225 1394 428 
L 1394 3788 
Q 1063 3628 556 3628 
L 556 3853 
Q 1341 3853 1741 4263 
L 1831 4263 
Q 1853 4263 1873 4245 
Q 1894 4228 1894 4206 
L 1894 428 
Q 1894 225 2694 225 
L 2694 0 
L 594 0 
z
" transform="scale(0.015625)"/>
     </defs>
     <use xlink:href="#Cmmi10-50"/>
     <use xlink:href="#Cmr10-28" transform="translate(64.208984 0)"/>
     <use xlink:href="#Cmmi10-41" transform="translate(103.027344 0)"/>
     <use xlink:href="#Cmmi10-63" transform="translate(190.082656 38.264063) scale(0.7)"/>
     <use xlink:href="#Cmr10-29" transform="translate(226.709023 0)"/>
     <use xlink:href="#Cmr10-3d" transform="translate(283.085977 0)"/>
     <use xlink:href="#Cmr10-31" transform="translate(378.330117 0)"/>
     <use xlink:href="#Cmsy10-a1" transform="translate(445.888711 0)"/>
     <use xlink:href="#Cmmi10-50" transform="translate(541.132852 0)"/>
     <use xlink:href="#Cmr10-28" transform="translate(605.341836 0)"/>
     <use xlink:href="#Cmmi10-41" transform="translate(644.160195 0)"/>
     <use xlink:href="#Cmr10-29" transform="translate(719.160195 0)"/>
    </g>
   </g>
   <g id="text_7">
    <g id="patch_7">
     <path d="M 15.84 251.249125 
L 52.44 251.249125 
Q 55.44 251.249125 55.44 248.249125 
L 55.44 238.249125 
Q 55.44 235.249125 52.44 235.249125 
L 15.84 235.249125 
Q 12.84 235.249125 12.84 238.249125 
L 12.84 248.249125 
Q 12.84 251.249125 15.84 251.249125 
z
" style="fill: #ffffff; opacity: 0.95; stroke: #e2e8f0; stroke-linejoin: miter"/>
    </g>
    <!-- $P(S) = 1$ -->
    <g style="fill: #1e293b" transform="translate(15.84 245.749125) scale(0.1 -0.1)">
     <use xlink:href="#Cmmi10-50"/>
     <use xlink:href="#Cmr10-28" transform="translate(64.208984 0)"/>
     <use xlink:href="#Cmmi10-53" transform="translate(103.027344 0)"/>
     <use xlink:href="#Cmr10-29" transform="translate(164.306641 0)"/>
     <use xlink:href="#Cmr10-3d" transform="translate(220.683594 0)"/>
     <use xlink:href="#Cmr10-31" transform="translate(315.927734 0)"/>
    </g>
   </g>
   <g id="text_8">
    <!-- Probability Fundamentals -->
    <g style="fill: #1e293b" transform="translate(143.711719 17.433125) scale(0.14 -0.14)">
     <defs>
      <path id="HelveticaNeue-50" d="M 1107 2381 
L 1107 4058 
L 2298 4058 
Q 2816 4058 3056 3843 
Q 3296 3629 3296 3219 
Q 3296 2810 3056 2592 
Q 2816 2374 2298 2381 
L 1107 2381 
z
M 499 4570 
L 499 0 
L 1107 0 
L 1107 1869 
L 2502 1869 
Q 3194 1862 3549 2220 
Q 3904 2579 3904 3219 
Q 3904 3859 3549 4214 
Q 3194 4570 2502 4570 
L 499 4570 
z
" transform="scale(0.015625)"/>
      <path id="HelveticaNeue-72" d="M 390 3309 
L 390 0 
L 934 0 
L 934 1472 
Q 934 1792 998 2038 
Q 1062 2285 1203 2457 
Q 1344 2630 1574 2720 
Q 1805 2810 2131 2810 
L 2131 3386 
Q 1690 3398 1402 3206 
Q 1114 3014 915 2611 
L 902 2611 
L 902 3309 
L 390 3309 
z
" transform="scale(0.015625)"/>
      <path id="HelveticaNeue-6f" d="M 806 1651 
Q 806 1952 886 2185 
Q 966 2419 1107 2579 
Q 1248 2739 1437 2822 
Q 1626 2906 1837 2906 
Q 2048 2906 2237 2822 
Q 2426 2739 2566 2579 
Q 2707 2419 2787 2185 
Q 2867 1952 2867 1651 
Q 2867 1350 2787 1116 
Q 2707 883 2566 726 
Q 2426 570 2237 486 
Q 2048 403 1837 403 
Q 1626 403 1437 486 
Q 1248 570 1107 726 
Q 966 883 886 1116 
Q 806 1350 806 1651 
z
M 230 1651 
Q 230 1286 332 972 
Q 435 659 640 425 
Q 845 192 1145 61 
Q 1446 -70 1837 -70 
Q 2234 -70 2531 61 
Q 2829 192 3033 425 
Q 3238 659 3340 972 
Q 3443 1286 3443 1651 
Q 3443 2016 3340 2333 
Q 3238 2650 3033 2883 
Q 2829 3117 2531 3251 
Q 2234 3386 1837 3386 
Q 1446 3386 1145 3251 
Q 845 3117 640 2883 
Q 435 2650 332 2333 
Q 230 2016 230 1651 
z
" transform="scale(0.015625)"/>
      <path id="HelveticaNeue-62" d="M 429 4570 
L 429 0 
L 973 0 
L 973 442 
L 986 442 
Q 1075 294 1206 195 
Q 1338 96 1485 38 
Q 1632 -19 1782 -44 
Q 1933 -70 2054 -70 
Q 2432 -70 2717 64 
Q 3002 198 3190 432 
Q 3379 666 3472 979 
Q 3565 1293 3565 1645 
Q 3565 1997 3469 2310 
Q 3373 2624 3184 2864 
Q 2995 3104 2710 3245 
Q 2426 3386 2042 3386 
Q 1696 3386 1408 3261 
Q 1120 3136 986 2861 
L 973 2861 
L 973 4570 
L 429 4570 
z
M 2989 1683 
Q 2989 1440 2937 1209 
Q 2886 979 2771 800 
Q 2656 621 2467 512 
Q 2278 403 1997 403 
Q 1715 403 1516 508 
Q 1318 614 1193 787 
Q 1069 960 1011 1187 
Q 954 1414 954 1658 
Q 954 1888 1008 2112 
Q 1062 2336 1184 2512 
Q 1306 2688 1498 2797 
Q 1690 2906 1965 2906 
Q 2227 2906 2422 2803 
Q 2618 2701 2742 2528 
Q 2867 2355 2928 2134 
Q 2989 1914 2989 1683 
z
" transform="scale(0.015625)"/>
      <path id="HelveticaNeue-61" d="M 3341 13 
Q 3200 -70 2950 -70 
Q 2739 -70 2614 48 
Q 2490 166 2490 435 
Q 2266 166 1968 48 
Q 1670 -70 1325 -70 
Q 1101 -70 899 -19 
Q 698 32 550 141 
Q 403 250 316 426 
Q 230 602 230 851 
Q 230 1133 326 1312 
Q 422 1491 579 1603 
Q 736 1715 937 1772 
Q 1139 1830 1350 1869 
Q 1574 1914 1776 1936 
Q 1978 1958 2131 2000 
Q 2285 2042 2374 2122 
Q 2464 2202 2464 2355 
Q 2464 2534 2397 2643 
Q 2330 2752 2224 2809 
Q 2118 2867 1987 2886 
Q 1856 2906 1728 2906 
Q 1382 2906 1152 2774 
Q 922 2643 902 2278 
L 358 2278 
Q 371 2586 486 2797 
Q 602 3008 794 3139 
Q 986 3270 1232 3328 
Q 1478 3386 1760 3386 
Q 1984 3386 2205 3354 
Q 2426 3322 2605 3222 
Q 2784 3123 2893 2944 
Q 3002 2765 3002 2477 
L 3002 774 
Q 3002 582 3024 492 
Q 3046 403 3174 403 
Q 3245 403 3341 435 
L 3341 13 
z
M 2458 1709 
Q 2355 1632 2188 1597 
Q 2022 1562 1840 1539 
Q 1658 1517 1472 1488 
Q 1286 1459 1139 1395 
Q 992 1331 899 1212 
Q 806 1094 806 890 
Q 806 755 860 662 
Q 915 570 1001 512 
Q 1088 454 1203 428 
Q 1318 403 1446 403 
Q 1715 403 1907 476 
Q 2099 550 2220 662 
Q 2342 774 2400 905 
Q 2458 1037 2458 1152 
L 2458 1709 
z
" transform="scale(0.015625)"/>
      <path id="HelveticaNeue-69" d="M 986 3904 
L 986 4570 
L 442 4570 
L 442 3904 
L 986 3904 
z
M 442 3309 
L 442 0 
L 986 0 
L 986 3309 
L 442 3309 
z
" transform="scale(0.015625)"/>
      <path id="HelveticaNeue-6c" d="M 442 4570 
L 442 0 
L 986 0 
L 986 4570 
L 442 4570 
z
" transform="scale(0.015625)"/>
      <path id="HelveticaNeue-74" d="M 1165 3309 
L 1165 4301 
L 621 4301 
L 621 3309 
L 58 3309 
L 58 2829 
L 621 2829 
L 621 723 
Q 621 493 665 352 
Q 710 211 803 134 
Q 896 58 1046 29 
Q 1197 0 1408 0 
L 1824 0 
L 1824 480 
L 1574 480 
Q 1446 480 1366 489 
Q 1286 499 1241 531 
Q 1197 563 1181 620 
Q 1165 678 1165 774 
L 1165 2829 
L 1824 2829 
L 1824 3309 
L 1165 3309 
z
" transform="scale(0.015625)"/>
      <path id="HelveticaNeue-79" d="M 1709 -442 
Q 1613 -685 1520 -851 
Q 1427 -1018 1315 -1123 
Q 1203 -1229 1065 -1277 
Q 928 -1325 749 -1325 
Q 653 -1325 557 -1312 
Q 461 -1299 371 -1267 
L 371 -768 
Q 442 -800 534 -822 
Q 627 -845 691 -845 
Q 858 -845 970 -765 
Q 1082 -685 1139 -538 
L 1363 19 
L 51 3309 
L 666 3309 
L 1632 602 
L 1645 602 
L 2573 3309 
L 3149 3309 
L 1709 -442 
z
" transform="scale(0.015625)"/>
      <path id="HelveticaNeue-20" transform="scale(0.015625)"/>
      <path id="HelveticaNeue-46" d="M 499 4570 
L 499 0 
L 1107 0 
L 1107 2093 
L 3206 2093 
L 3206 2605 
L 1107 2605 
L 1107 4058 
L 3501 4058 
L 3501 4570 
L 499 4570 
z
" transform="scale(0.015625)"/>
      <path id="HelveticaNeue-75" d="M 3149 0 
L 3149 3309 
L 2605 3309 
L 2605 1440 
Q 2605 1216 2544 1027 
Q 2483 838 2361 697 
Q 2240 557 2057 480 
Q 1875 403 1626 403 
Q 1312 403 1133 582 
Q 954 762 954 1069 
L 954 3309 
L 410 3309 
L 410 1133 
Q 410 864 464 643 
Q 518 422 652 262 
Q 787 102 1004 16 
Q 1222 -70 1549 -70 
Q 1914 -70 2182 74 
Q 2451 218 2624 525 
L 2637 525 
L 2637 0 
L 3149 0 
z
" transform="scale(0.015625)"/>
      <path id="HelveticaNeue-6e" d="M 410 3309 
L 410 0 
L 954 0 
L 954 1869 
Q 954 2093 1014 2281 
Q 1075 2470 1196 2611 
Q 1318 2752 1500 2829 
Q 1683 2906 1933 2906 
Q 2246 2906 2425 2726 
Q 2605 2547 2605 2240 
L 2605 0 
L 3149 0 
L 3149 2176 
Q 3149 2445 3094 2665 
Q 3040 2886 2905 3046 
Q 2771 3206 2553 3296 
Q 2336 3386 2010 3386 
Q 1274 3386 934 2784 
L 922 2784 
L 922 3309 
L 410 3309 
z
" transform="scale(0.015625)"/>
      <path id="HelveticaNeue-64" d="M 806 1626 
Q 806 1869 857 2099 
Q 909 2330 1024 2509 
Q 1139 2688 1331 2797 
Q 1523 2906 1798 2906 
Q 2080 2906 2278 2800 
Q 2477 2694 2601 2521 
Q 2726 2349 2784 2121 
Q 2842 1894 2842 1651 
Q 2842 1421 2787 1197 
Q 2733 973 2611 797 
Q 2490 621 2298 512 
Q 2106 403 1830 403 
Q 1568 403 1373 505 
Q 1178 608 1053 781 
Q 928 954 867 1174 
Q 806 1395 806 1626 
z
M 3366 0 
L 3366 4570 
L 2822 4570 
L 2822 2867 
L 2810 2867 
Q 2720 3014 2589 3113 
Q 2458 3213 2310 3273 
Q 2163 3334 2016 3360 
Q 1869 3386 1741 3386 
Q 1363 3386 1078 3248 
Q 794 3110 605 2876 
Q 416 2643 323 2329 
Q 230 2016 230 1664 
Q 230 1312 326 998 
Q 422 685 611 448 
Q 800 211 1085 70 
Q 1370 -70 1754 -70 
Q 2099 -70 2387 51 
Q 2675 173 2810 448 
L 2822 448 
L 2822 0 
L 3366 0 
z
" transform="scale(0.015625)"/>
      <path id="HelveticaNeue-6d" d="M 410 3309 
L 410 0 
L 954 0 
L 954 2061 
Q 954 2157 1002 2301 
Q 1050 2445 1155 2579 
Q 1261 2714 1430 2810 
Q 1600 2906 1837 2906 
Q 2022 2906 2140 2851 
Q 2259 2797 2329 2697 
Q 2400 2598 2429 2464 
Q 2458 2330 2458 2170 
L 2458 0 
L 3002 0 
L 3002 2061 
Q 3002 2445 3232 2675 
Q 3462 2906 3866 2906 
Q 4064 2906 4189 2848 
Q 4314 2790 4384 2691 
Q 4454 2592 4480 2457 
Q 4506 2323 4506 2170 
L 4506 0 
L 5050 0 
L 5050 2426 
Q 5050 2682 4970 2864 
Q 4890 3046 4746 3161 
Q 4602 3277 4400 3331 
Q 4198 3386 3949 3386 
Q 3622 3386 3350 3238 
Q 3078 3091 2912 2822 
Q 2810 3130 2560 3258 
Q 2310 3386 2003 3386 
Q 1306 3386 934 2822 
L 922 2822 
L 922 3309 
L 410 3309 
z
" transform="scale(0.015625)"/>
      <path id="HelveticaNeue-65" d="M 2707 1971 
L 806 1971 
Q 819 2163 889 2332 
Q 960 2502 1081 2630 
Q 1203 2758 1372 2832 
Q 1542 2906 1754 2906 
Q 1958 2906 2128 2832 
Q 2298 2758 2422 2633 
Q 2547 2509 2620 2336 
Q 2694 2163 2707 1971 
z
M 3232 1050 
L 2694 1050 
Q 2624 723 2403 563 
Q 2182 403 1837 403 
Q 1568 403 1369 492 
Q 1171 582 1043 732 
Q 915 883 857 1078 
Q 800 1274 806 1491 
L 3283 1491 
Q 3296 1792 3229 2125 
Q 3162 2458 2986 2739 
Q 2810 3021 2518 3203 
Q 2227 3386 1786 3386 
Q 1446 3386 1161 3258 
Q 877 3130 669 2899 
Q 461 2669 345 2355 
Q 230 2042 230 1664 
Q 243 1286 342 966 
Q 442 646 640 416 
Q 838 186 1129 58 
Q 1421 -70 1818 -70 
Q 2381 -70 2752 211 
Q 3123 493 3232 1050 
z
" transform="scale(0.015625)"/>
      <path id="HelveticaNeue-73" d="M 742 1043 
L 198 1043 
Q 211 736 326 521 
Q 442 307 634 176 
Q 826 45 1075 -12 
Q 1325 -70 1600 -70 
Q 1850 -70 2102 -22 
Q 2355 26 2556 147 
Q 2758 269 2883 467 
Q 3008 666 3008 966 
Q 3008 1203 2915 1363 
Q 2822 1523 2672 1628 
Q 2522 1734 2326 1798 
Q 2131 1862 1926 1907 
Q 1734 1952 1542 1993 
Q 1350 2035 1196 2096 
Q 1043 2157 944 2249 
Q 845 2342 845 2483 
Q 845 2611 909 2691 
Q 973 2771 1075 2819 
Q 1178 2867 1302 2886 
Q 1427 2906 1549 2906 
Q 1683 2906 1814 2877 
Q 1946 2848 2054 2784 
Q 2163 2720 2233 2614 
Q 2304 2509 2317 2349 
L 2861 2349 
Q 2842 2650 2733 2851 
Q 2624 3053 2441 3171 
Q 2259 3290 2022 3338 
Q 1786 3386 1504 3386 
Q 1286 3386 1065 3331 
Q 845 3277 669 3165 
Q 493 3053 381 2873 
Q 269 2694 269 2445 
Q 269 2125 429 1945 
Q 589 1766 829 1667 
Q 1069 1568 1350 1513 
Q 1632 1459 1872 1392 
Q 2112 1325 2272 1216 
Q 2432 1107 2432 896 
Q 2432 742 2355 643 
Q 2278 544 2160 493 
Q 2042 442 1901 422 
Q 1760 403 1632 403 
Q 1466 403 1309 435 
Q 1152 467 1027 540 
Q 902 614 825 739 
Q 749 864 742 1043 
z
" transform="scale(0.015625)"/>
     </defs>
     <use xlink:href="#HelveticaNeue-50"/>
     <use xlink:href="#HelveticaNeue-72" transform="translate(64.799988 0)"/>
     <use xlink:href="#HelveticaNeue-6f" transform="translate(96.349976 0)"/>
     <use xlink:href="#HelveticaNeue-62" transform="translate(153.749969 0)"/>
     <use xlink:href="#HelveticaNeue-61" transform="translate(213.049957 0)"/>
     <use xlink:href="#HelveticaNeue-62" transform="translate(266.749954 0)"/>
     <use xlink:href="#HelveticaNeue-69" transform="translate(326.049942 0)"/>
     <use xlink:href="#HelveticaNeue-6c" transform="translate(348.249939 0)"/>
     <use xlink:href="#HelveticaNeue-69" transform="translate(370.449936 0)"/>
     <use xlink:href="#HelveticaNeue-74" transform="translate(392.649933 0)"/>
     <use xlink:href="#HelveticaNeue-79" transform="translate(424.149918 0)"/>
     <use xlink:href="#HelveticaNeue-20" transform="translate(474.149902 0)"/>
     <use xlink:href="#HelveticaNeue-46" transform="translate(501.94989 0)"/>
     <use xlink:href="#HelveticaNeue-75" transform="translate(559.349884 0)"/>
     <use xlink:href="#HelveticaNeue-6e" transform="translate(614.949875 0)"/>
     <use xlink:href="#HelveticaNeue-64" transform="translate(670.549866 0)"/>
     <use xlink:href="#HelveticaNeue-61" transform="translate(729.849854 0)"/>
     <use xlink:href="#HelveticaNeue-6d" transform="translate(783.54985 0)"/>
     <use xlink:href="#HelveticaNeue-65" transform="translate(868.849838 0)"/>
     <use xlink:href="#HelveticaNeue-6e" transform="translate(922.549835 0)"/>
     <use xlink:href="#HelveticaNeue-74" transform="translate(978.149826 0)"/>
     <use xlink:href="#HelveticaNeue-61" transform="translate(1009.649811 0)"/>
     <use xlink:href="#HelveticaNeue-6c" transform="translate(1063.349808 0)"/>
     <use xlink:href="#HelveticaNeue-73" transform="translate(1085.549805 0)"/>
    </g>
   </g>
  </g>
  <g id="axes_2">
   <g id="patch_8">
    <path d="M 567.36 334.833125 
L 887.04 334.833125 
Q 900 334.833125 900 321.873125 
L 900 88.593125 
Q 900 75.633125 887.04 75.633125 
L 567.36 75.633125 
Q 554.4 75.633125 554.4 88.593125 
L 554.4 321.873125 
Q 554.4 334.833125 567.36 334.833125 
z
" clip-path="url(#p6f445373e3)" style="fill: #f1f5f9; opacity: 0.4; stroke-dasharray: 5.55,2.4; stroke-dashoffset: 0; stroke: #e2e8f0; stroke-width: 1.5; stroke-linejoin: miter"/>
   </g>
   <g id="patch_9">
    <path d="M 727.2 308.913125 
C 754.696257 308.913125 781.070041 297.988746 800.512831 278.545956 
C 819.955621 259.103166 830.88 232.729382 830.88 205.233125 
C 830.88 177.736868 819.955621 151.363084 800.512831 131.920294 
C 781.070041 112.477504 754.696257 101.553125 727.2 101.553125 
C 699.703743 101.553125 673.329959 112.477504 653.887169 131.920294 
C 634.444379 151.363084 623.52 177.736868 623.52 205.233125 
C 623.52 232.729382 634.444379 259.103166 653.887169 278.545956 
C 673.329959 297.988746 699.703743 308.913125 727.2 308.913125 
z
" clip-path="url(#p6f445373e3)" style="fill: #1e293b; opacity: 0.25; stroke: #1e293b; stroke-width: 3; stroke-linejoin: miter"/>
   </g>
   <g id="patch_10">
    <path d="M 666.72 274.353125 
C 685.050838 274.353125 702.633361 267.070206 715.595221 254.108346 
C 728.557081 241.146486 735.84 223.563963 735.84 205.233125 
C 735.84 186.902287 728.557081 169.319764 715.595221 156.357904 
C 702.633361 143.396044 685.050838 136.113125 666.72 136.113125 
C 648.389162 136.113125 630.806639 143.396044 617.844779 156.357904 
C 604.882919 169.319764 597.6 186.902287 597.6 205.233125 
C 597.6 223.563963 604.882919 241.146486 617.844779 254.108346 
C 630.806639 267.070206 648.389162 274.353125 666.72 274.353125 
z
" clip-path="url(#p6f445373e3)" style="fill: #1e293b; opacity: 0.5; stroke: #1e293b; stroke-width: 2.5; stroke-linejoin: miter"/>
   </g>
   <g id="text_9">
    <!-- $A$ -->
    <g style="fill: #1e293b" transform="translate(618.27 208.852344) scale(0.14 -0.14)">
     <use xlink:href="#Cmmi10-41" transform="translate(0 0.421875)"/>
    </g>
   </g>
   <g id="text_10">
    <!-- $B$ -->
    <g style="fill: #1e293b" transform="translate(790.24 209.369375) scale(0.16 -0.16)">
     <use xlink:href="#Cmmi10-42" transform="translate(0 0.6875)"/>
    </g>
   </g>
   <g id="patch_11">
    <path d="M 727.2 43.074395 
Q 727.2 62.674218 727.2 80.037973 
" style="fill: none; stroke: #64748b; stroke-width: 2; stroke-linecap: round"/>
    <path d="M 729.4 75.637973 
L 727.2 80.037973 
L 725 75.637973 
" style="fill: none; stroke: #64748b; stroke-width: 2; stroke-linecap: round"/>
   </g>
   <g id="text_11">
    <!-- Given $B$ occurred -->
    <g style="fill: #64748b" transform="translate(687.75 30.462812) scale(0.1 -0.1)">
     <defs>
      <path id="HelveticaNeue-47" d="M 3917 570 
L 4077 0 
L 4461 0 
L 4461 2406 
L 2458 2406 
L 2458 1894 
L 3917 1894 
Q 3930 1581 3834 1309 
Q 3738 1037 3549 835 
Q 3360 634 3085 518 
Q 2810 403 2451 403 
Q 2067 403 1776 553 
Q 1485 704 1286 957 
Q 1088 1210 985 1539 
Q 883 1869 883 2227 
Q 883 2592 972 2941 
Q 1062 3290 1251 3562 
Q 1440 3834 1737 4000 
Q 2035 4166 2451 4166 
Q 2707 4166 2934 4105 
Q 3162 4045 3341 3923 
Q 3520 3802 3641 3613 
Q 3763 3424 3808 3162 
L 4416 3162 
Q 4352 3565 4176 3849 
Q 4000 4134 3741 4320 
Q 3482 4506 3152 4592 
Q 2822 4678 2451 4678 
Q 1907 4678 1500 4476 
Q 1094 4275 822 3936 
Q 550 3597 412 3145 
Q 275 2694 275 2195 
Q 275 1747 422 1331 
Q 570 915 851 595 
Q 1133 275 1536 86 
Q 1939 -102 2451 -102 
Q 2854 -102 3251 54 
Q 3648 211 3917 570 
z
" transform="scale(0.015625)"/>
      <path id="HelveticaNeue-76" d="M 1901 0 
L 3110 3309 
L 2541 3309 
L 1638 550 
L 1626 550 
L 698 3309 
L 90 3309 
L 1318 0 
L 1901 0 
z
" transform="scale(0.015625)"/>
      <path id="HelveticaNeue-63" d="M 2656 2246 
L 3219 2246 
Q 3187 2541 3065 2755 
Q 2944 2970 2755 3110 
Q 2566 3251 2320 3318 
Q 2074 3386 1792 3386 
Q 1402 3386 1107 3248 
Q 813 3110 617 2870 
Q 422 2630 326 2307 
Q 230 1984 230 1613 
Q 230 1242 329 931 
Q 429 621 624 397 
Q 819 173 1110 51 
Q 1402 -70 1779 -70 
Q 2413 -70 2781 262 
Q 3149 595 3238 1210 
L 2682 1210 
Q 2630 826 2403 614 
Q 2176 403 1773 403 
Q 1517 403 1331 505 
Q 1146 608 1030 777 
Q 915 947 860 1164 
Q 806 1382 806 1613 
Q 806 1862 857 2096 
Q 909 2330 1027 2509 
Q 1146 2688 1344 2797 
Q 1542 2906 1837 2906 
Q 2182 2906 2387 2733 
Q 2592 2560 2656 2246 
z
" transform="scale(0.015625)"/>
     </defs>
     <use xlink:href="#HelveticaNeue-47" transform="translate(0 0.90625)"/>
     <use xlink:href="#HelveticaNeue-69" transform="translate(75.899994 0.90625)"/>
     <use xlink:href="#HelveticaNeue-76" transform="translate(98.099991 0.90625)"/>
     <use xlink:href="#HelveticaNeue-65" transform="translate(148.099976 0.90625)"/>
     <use xlink:href="#HelveticaNeue-6e" transform="translate(201.799973 0.90625)"/>
     <use xlink:href="#HelveticaNeue-20" transform="translate(257.399963 0.90625)"/>
     <use xlink:href="#Cmmi10-42" transform="translate(285.199951 0.90625)"/>
     <use xlink:href="#HelveticaNeue-20" transform="translate(360.981201 0.90625)"/>
     <use xlink:href="#HelveticaNeue-6f" transform="translate(388.781189 0.90625)"/>
     <use xlink:href="#HelveticaNeue-63" transform="translate(446.181183 0.90625)"/>
     <use xlink:href="#HelveticaNeue-63" transform="translate(499.88118 0.90625)"/>
     <use xlink:href="#HelveticaNeue-75" transform="translate(553.581177 0.90625)"/>
     <use xlink:href="#HelveticaNeue-72" transform="translate(609.181168 0.90625)"/>
     <use xlink:href="#HelveticaNeue-72" transform="translate(642.481155 0.90625)"/>
     <use xlink:href="#HelveticaNeue-65" transform="translate(675.781143 0.90625)"/>
     <use xlink:href="#HelveticaNeue-64" transform="translate(729.48114 0.90625)"/>
    </g>
   </g>
   <g id="text_12">
    <g id="patch_12">
     <path d="M 672.6 323.581125 
L 781.8 323.581125 
Q 788.3 323.581125 788.3 317.081125 
L 788.3 286.921125 
Q 788.3 280.421125 781.8 280.421125 
L 672.6 280.421125 
Q 666.1 280.421125 666.1 286.921125 
L 666.1 317.081125 
Q 666.1 323.581125 672.6 323.581125 
z
" style="fill: #ffffff; opacity: 0.95; stroke: #1e293b; stroke-width: 2; stroke-linejoin: miter"/>
    </g>
    <!-- $P(A|B) = \dfrac{P(A \cap B)}{P(B)}$ -->
    <g style="fill: #1e293b" transform="translate(672.6 304.861125) scale(0.13 -0.13)">
     <defs>
      <path id="Cmsy10-6a" d="M 763 -1484 
L 763 4684 
Q 763 4734 800 4767 
Q 838 4800 891 4800 
Q 938 4800 978 4767 
Q 1019 4734 1019 4684 
L 1019 -1484 
Q 1019 -1534 978 -1567 
Q 938 -1600 891 -1600 
Q 838 -1600 800 -1567 
Q 763 -1534 763 -1484 
z
" transform="scale(0.015625)"/>
     </defs>
     <use xlink:href="#Cmmi10-50" transform="translate(0 0.5)"/>
     <use xlink:href="#Cmr10-28" transform="translate(64.208984 0.5)"/>
     <use xlink:href="#Cmmi10-41" transform="translate(103.027344 0.5)"/>
     <use xlink:href="#Cmsy10-6a" transform="translate(178.027344 0.5)"/>
     <use xlink:href="#Cmmi10-42" transform="translate(205.712891 0.5)"/>
     <use xlink:href="#Cmr10-29" transform="translate(281.494141 0.5)"/>
     <use xlink:href="#Cmr10-3d" transform="translate(337.871094 0.5)"/>
     <use xlink:href="#Cmmi10-50" transform="translate(433.115234 63)"/>
     <use xlink:href="#Cmr10-28" transform="translate(497.324219 63)"/>
     <use xlink:href="#Cmmi10-41" transform="translate(536.142578 63)"/>
     <use xlink:href="#Cmsy10-5c" transform="translate(628.701172 63)"/>
     <use xlink:href="#Cmmi10-42" transform="translate(712.861328 63)"/>
     <use xlink:href="#Cmr10-29" transform="translate(788.642578 63)"/>
     <use xlink:href="#Cmmi10-50" transform="translate(521.115234 -68.25)"/>
     <use xlink:href="#Cmr10-28" transform="translate(585.324219 -68.25)"/>
     <use xlink:href="#Cmmi10-42" transform="translate(624.142578 -68.25)"/>
     <use xlink:href="#Cmr10-29" transform="translate(699.923828 -68.25)"/>
     <path d="M 433.115234 13 
L 433.115234 19.25 
L 827.460938 19.25 
L 827.460938 13 
L 433.115234 13 
z
"/>
    </g>
   </g>
   <g id="text_13">
    <!-- Bayes' Theorem: $P(A|B) = \dfrac{P(B|A) \cdot P(A)}{P(B)}$ -->
    <g style="fill: #1e293b" transform="translate(644.85 359.277125) scale(0.09 -0.09)">
     <defs>
      <path id="HelveticaNeue-42" d="M 1107 2605 
L 1107 4058 
L 2323 4058 
Q 2522 4058 2698 4035 
Q 2874 4013 3008 3936 
Q 3142 3859 3219 3718 
Q 3296 3578 3296 3334 
Q 3296 2970 3069 2787 
Q 2842 2605 2323 2605 
L 1107 2605 
z
M 499 4570 
L 499 0 
L 2707 0 
Q 3046 0 3305 112 
Q 3565 224 3741 406 
Q 3917 589 4006 825 
Q 4096 1062 4096 1312 
Q 4096 1734 3872 2028 
Q 3648 2323 3226 2413 
L 3226 2426 
Q 3552 2554 3728 2819 
Q 3904 3085 3904 3450 
Q 3904 3795 3747 4032 
Q 3590 4269 3366 4403 
Q 3264 4467 3120 4499 
Q 2976 4531 2809 4547 
Q 2643 4563 2473 4566 
Q 2304 4570 2157 4570 
L 499 4570 
z
M 1107 512 
L 1107 2093 
L 2496 2093 
Q 2688 2093 2867 2057 
Q 3046 2022 3184 1936 
Q 3322 1850 3405 1702 
Q 3488 1555 3488 1331 
Q 3488 947 3261 729 
Q 3034 512 2630 512 
L 1107 512 
z
" transform="scale(0.015625)"/>
      <path id="HelveticaNeue-27" d="M 672 4570 
L 672 2918 
L 1107 2918 
L 1107 4570 
L 672 4570 
z
" transform="scale(0.015625)"/>
      <path id="HelveticaNeue-54" d="M 1536 4058 
L 1536 0 
L 2144 0 
L 2144 4058 
L 3667 4058 
L 3667 4570 
L 13 4570 
L 13 4058 
L 1536 4058 
z
" transform="scale(0.015625)"/>
      <path id="HelveticaNeue-68" d="M 410 4570 
L 410 0 
L 954 0 
L 954 1869 
Q 954 2093 1014 2281 
Q 1075 2470 1196 2611 
Q 1318 2752 1500 2829 
Q 1683 2906 1933 2906 
Q 2246 2906 2425 2726 
Q 2605 2547 2605 2240 
L 2605 0 
L 3149 0 
L 3149 2176 
Q 3149 2445 3094 2665 
Q 3040 2886 2905 3046 
Q 2771 3206 2553 3296 
Q 2336 3386 2010 3386 
Q 1862 3386 1705 3354 
Q 1549 3322 1405 3254 
Q 1261 3187 1145 3081 
Q 1030 2976 966 2822 
L 954 2822 
L 954 4570 
L 410 4570 
z
" transform="scale(0.015625)"/>
      <path id="HelveticaNeue-3a" d="M 1242 2598 
L 1242 3309 
L 531 3309 
L 531 2598 
L 1242 2598 
z
M 531 710 
L 531 0 
L 1242 0 
L 1242 710 
L 531 710 
z
" transform="scale(0.015625)"/>
      <path id="Cmsy10-a2" d="M 538 1600 
Q 538 1691 584 1772 
Q 631 1853 714 1903 
Q 797 1953 891 1953 
Q 981 1953 1064 1903 
Q 1147 1853 1194 1772 
Q 1241 1691 1241 1600 
Q 1241 1456 1139 1351 
Q 1038 1247 891 1247 
Q 747 1247 642 1351 
Q 538 1456 538 1600 
z
" transform="scale(0.015625)"/>
     </defs>
     <use xlink:href="#HelveticaNeue-42" transform="translate(0 0.5)"/>
     <use xlink:href="#HelveticaNeue-61" transform="translate(68.499985 0.5)"/>
     <use xlink:href="#HelveticaNeue-79" transform="translate(122.199982 0.5)"/>
     <use xlink:href="#HelveticaNeue-65" transform="translate(172.199966 0.5)"/>
     <use xlink:href="#HelveticaNeue-73" transform="translate(225.899963 0.5)"/>
     <use xlink:href="#HelveticaNeue-27" transform="translate(275.899948 0.5)"/>
     <use xlink:href="#HelveticaNeue-20" transform="translate(303.699936 0.5)"/>
     <use xlink:href="#HelveticaNeue-54" transform="translate(331.499924 0.5)"/>
     <use xlink:href="#HelveticaNeue-68" transform="translate(388.899918 0.5)"/>
     <use xlink:href="#HelveticaNeue-65" transform="translate(444.499908 0.5)"/>
     <use xlink:href="#HelveticaNeue-6f" transform="translate(498.199905 0.5)"/>
     <use xlink:href="#HelveticaNeue-72" transform="translate(555.599899 0.5)"/>
     <use xlink:href="#HelveticaNeue-65" transform="translate(588.899887 0.5)"/>
     <use xlink:href="#HelveticaNeue-6d" transform="translate(642.599884 0.5)"/>
     <use xlink:href="#HelveticaNeue-3a" transform="translate(727.899872 0.5)"/>
     <use xlink:href="#HelveticaNeue-20" transform="translate(755.69986 0.5)"/>
     <use xlink:href="#Cmmi10-50" transform="translate(783.499847 0.5)"/>
     <use xlink:href="#Cmr10-28" transform="translate(847.708832 0.5)"/>
     <use xlink:href="#Cmmi10-41" transform="translate(886.527191 0.5)"/>
     <use xlink:href="#Cmsy10-6a" transform="translate(961.527191 0.5)"/>
     <use xlink:href="#Cmmi10-42" transform="translate(989.212738 0.5)"/>
     <use xlink:href="#Cmr10-29" transform="translate(1064.993988 0.5)"/>
     <use xlink:href="#Cmr10-3d" transform="translate(1121.370941 0.5)"/>
     <use xlink:href="#Cmmi10-50" transform="translate(1216.615082 63)"/>
     <use xlink:href="#Cmr10-28" transform="translate(1280.824066 63)"/>
     <use xlink:href="#Cmmi10-42" transform="translate(1319.642426 63)"/>
     <use xlink:href="#Cmsy10-6a" transform="translate(1395.423676 63)"/>
     <use xlink:href="#Cmmi10-41" transform="translate(1423.109222 63)"/>
     <use xlink:href="#Cmr10-29" transform="translate(1498.109222 63)"/>
     <use xlink:href="#Cmsy10-a2" transform="translate(1554.486176 63)"/>
     <use xlink:href="#Cmmi10-50" transform="translate(1599.730316 63)"/>
     <use xlink:href="#Cmr10-28" transform="translate(1663.939301 63)"/>
     <use xlink:href="#Cmmi10-41" transform="translate(1702.75766 63)"/>
     <use xlink:href="#Cmr10-29" transform="translate(1777.75766 63)"/>
     <use xlink:href="#Cmmi10-50" transform="translate(1407.615082 -68.25)"/>
     <use xlink:href="#Cmr10-28" transform="translate(1471.824066 -68.25)"/>
     <use xlink:href="#Cmmi10-42" transform="translate(1510.642426 -68.25)"/>
     <use xlink:href="#Cmr10-29" transform="translate(1586.423676 -68.25)"/>
     <path d="M 1216.615082 13 
L 1216.615082 19.25 
L 1816.576019 19.25 
L 1816.576019 13 
L 1216.615082 13 
z
"/>
    </g>
   </g>
   <g id="text_14">
    <!-- Conditional Probability -->
    <g style="fill: #1e293b" transform="translate(656.411406 17.433125) scale(0.14 -0.14)">
     <defs>
      <path id="HelveticaNeue-43" d="M 3712 3194 
L 4320 3194 
Q 4269 3558 4102 3836 
Q 3936 4115 3686 4300 
Q 3437 4486 3117 4582 
Q 2797 4678 2438 4678 
Q 1914 4678 1507 4489 
Q 1101 4301 829 3974 
Q 557 3648 416 3209 
Q 275 2771 275 2272 
Q 275 1773 406 1337 
Q 538 902 800 582 
Q 1062 262 1459 80 
Q 1856 -102 2387 -102 
Q 3264 -102 3769 378 
Q 4275 858 4365 1722 
L 3757 1722 
Q 3738 1440 3642 1197 
Q 3546 954 3376 778 
Q 3206 602 2972 502 
Q 2739 403 2438 403 
Q 2029 403 1734 556 
Q 1440 710 1251 969 
Q 1062 1229 972 1577 
Q 883 1926 883 2317 
Q 883 2675 972 3008 
Q 1062 3341 1251 3600 
Q 1440 3859 1731 4012 
Q 2022 4166 2432 4166 
Q 2912 4166 3261 3923 
Q 3610 3680 3712 3194 
z
" transform="scale(0.015625)"/>
     </defs>
     <use xlink:href="#HelveticaNeue-43"/>
     <use xlink:href="#HelveticaNeue-6f" transform="translate(72.199982 0)"/>
     <use xlink:href="#HelveticaNeue-6e" transform="translate(129.599976 0)"/>
     <use xlink:href="#HelveticaNeue-64" transform="translate(185.199966 0)"/>
     <use xlink:href="#HelveticaNeue-69" transform="translate(244.499954 0)"/>
     <use xlink:href="#HelveticaNeue-74" transform="translate(266.699951 0)"/>
     <use xlink:href="#HelveticaNeue-69" transform="translate(298.199936 0)"/>
     <use xlink:href="#HelveticaNeue-6f" transform="translate(320.399933 0)"/>
     <use xlink:href="#HelveticaNeue-6e" transform="translate(377.799927 0)"/>
     <use xlink:href="#HelveticaNeue-61" transform="translate(433.399918 0)"/>
     <use xlink:href="#HelveticaNeue-6c" transform="translate(487.099915 0)"/>
     <use xlink:href="#HelveticaNeue-20" transform="translate(509.299911 0)"/>
     <use xlink:href="#HelveticaNeue-50" transform="translate(537.099899 0)"/>
     <use xlink:href="#HelveticaNeue-72" transform="translate(601.899887 0)"/>
     <use xlink:href="#HelveticaNeue-6f" transform="translate(633.449875 0)"/>
     <use xlink:href="#HelveticaNeue-62" transform="translate(690.849869 0)"/>
     <use xlink:href="#HelveticaNeue-61" transform="translate(750.149857 0)"/>
     <use xlink:href="#HelveticaNeue-62" transform="translate(803.849854 0)"/>
     <use xlink:href="#HelveticaNeue-69" transform="translate(863.149841 0)"/>
     <use xlink:href="#HelveticaNeue-6c" transform="translate(885.349838 0)"/>
     <use xlink:href="#HelveticaNeue-69" transform="translate(907.549835 0)"/>
     <use xlink:href="#HelveticaNeue-74" transform="translate(929.749832 0)"/>
     <use xlink:href="#HelveticaNeue-79" transform="translate(961.249817 0)"/>
    </g>
   </g>
  </g>
 </g>
 <defs>
  <clipPath id="pfd9957ab09">
   <rect x="7.2" y="32.433125" width="432" height="345.6"/>
  </clipPath>
  <clipPath id="p6f445373e3">
   <rect x="511.2" y="32.433125" width="432" height="345.6"/>
  </clipPath>
 </defs>
</svg>
