<?xml version="1.0" encoding="utf-8" standalone="no"?>
<!DOCTYPE svg PUBLIC "-//W3C//DTD SVG 1.1//EN"
  "http://www.w3.org/Graphics/SVG/1.1/DTD/svg11.dtd">
<svg xmlns:xlink="http://www.w3.org/1999/xlink" width="823.913125pt" height="289.115875pt" viewBox="0 0 823.913125 289.115875" xmlns="http://www.w3.org/2000/svg" version="1.1">
 <metadata>
  <rdf:RDF xmlns:dc="http://purl.org/dc/elements/1.1/" xmlns:cc="http://creativecommons.org/ns#" xmlns:rdf="http://www.w3.org/1999/02/22-rdf-syntax-ns#">
   <cc:Work>
    <dc:type rdf:resource="http://purl.org/dc/dcmitype/StillImage"/>
    <dc:date>2026-03-15T19:17:04.463343</dc:date>
    <dc:format>image/svg+xml</dc:format>
    <dc:creator>
     <cc:Agent>
      <dc:title>Matplotlib v3.10.8, https://matplotlib.org/</dc:title>
     </cc:Agent>
    </dc:creator>
   </cc:Work>
  </rdf:RDF>
 </metadata>
 <defs>
  <style type="text/css">*{stroke-linejoin: round; stroke-linecap: butt}</style>
 </defs>
 <g id="figure_1">
  <g id="patch_1">
   <path d="M 0 289.115875 
L 823.913125 289.115875 
L 823.913125 0 
L 0 0 
z
" style="fill: #ffffff"/>
  </g>
  <g id="axes_1">
   <g id="patch_2">
    <path d="M 35.513125 249.624 
L 190.206194 249.624 
L 190.206194 44.496 
L 35.513125 44.496 
z
" style="fill: #ffffff"/>
   </g>
   <g id="matplotlib.axis_1">
    <g id="xtick_1">
     <g id="line2d_1">
      <path d="M 61.295303 249.624 
L 61.295303 44.496 
" clip-path="url(#p8bddc41858)" style="fill: none; stroke: #cccccc; stroke-width: 0.8; stroke-linecap: square"/>
     </g>
     <g id="line2d_2">
      <defs>
       <path id="m66791b0086" d="M 0 0 
L 0 3.5 
" style="stroke: #262626; stroke-width: 0.8"/>
      </defs>
      <g>
       <use xlink:href="#m66791b0086" x="61.295303" y="249.624" style="fill: #262626; stroke: #262626; stroke-width: 0.8"/>
      </g>
     </g>
     <g id="text_1">
      <!-- −2 -->
      <g style="fill: #262626" transform="translate(52.449991 265.742125) scale(0.12 -0.12)">
       <defs>
        <path id="DejaVuSans-2212" d="M 678 2272 
L 4684 2272 
L 4684 1741 
L 678 1741 
L 678 2272 
z
" transform="scale(0.015625)"/>
        <path id="DejaVuSans-32" d="M 1228 531 
L 3431 531 
L 3431 0 
L 469 0 
L 469 531 
Q 828 903 1448 1529 
Q 2069 2156 2228 2338 
Q 2531 2678 2651 2914 
Q 2772 3150 2772 3378 
Q 2772 3750 2511 3984 
Q 2250 4219 1831 4219 
Q 1534 4219 1204 4116 
Q 875 4013 500 3803 
L 500 4441 
Q 881 4594 1212 4672 
Q 1544 4750 1819 4750 
Q 2544 4750 2975 4387 
Q 3406 4025 3406 3419 
Q 3406 3131 3298 2873 
Q 3191 2616 2906 2266 
Q 2828 2175 2409 1742 
Q 1991 1309 1228 531 
z
" transform="scale(0.015625)"/>
       </defs>
       <use xlink:href="#DejaVuSans-2212"/>
       <use xlink:href="#DejaVuSans-32" transform="translate(83.789062 0)"/>
      </g>
     </g>
    </g>
    <g id="xtick_2">
     <g id="line2d_3">
      <path d="M 112.85966 249.624 
L 112.85966 44.496 
" clip-path="url(#p8bddc41858)" style="fill: none; stroke: #cccccc; stroke-width: 0.8; stroke-linecap: square"/>
     </g>
     <g id="line2d_4">
      <g>
       <use xlink:href="#m66791b0086" x="112.85966" y="249.624" style="fill: #262626; stroke: #262626; stroke-width: 0.8"/>
      </g>
     </g>
     <g id="text_2">
      <!-- 0 -->
      <g style="fill: #262626" transform="translate(109.04216 265.742125) scale(0.12 -0.12)">
       <defs>
        <path id="DejaVuSans-30" d="M 2034 4250 
Q 1547 4250 1301 3770 
Q 1056 3291 1056 2328 
Q 1056 1369 1301 889 
Q 1547 409 2034 409 
Q 2525 409 2770 889 
Q 3016 1369 3016 2328 
Q 3016 3291 2770 3770 
Q 2525 4250 2034 4250 
z
M 2034 4750 
Q 2819 4750 3233 4129 
Q 3647 3509 3647 2328 
Q 3647 1150 3233 529 
Q 2819 -91 2034 -91 
Q 1250 -91 836 529 
Q 422 1150 422 2328 
Q 422 3509 836 4129 
Q 1250 4750 2034 4750 
z
" transform="scale(0.015625)"/>
       </defs>
       <use xlink:href="#DejaVuSans-30"/>
      </g>
     </g>
    </g>
    <g id="xtick_3">
     <g id="line2d_5">
      <path d="M 164.424016 249.624 
L 164.424016 44.496 
" clip-path="url(#p8bddc41858)" style="fill: none; stroke: #cccccc; stroke-width: 0.8; stroke-linecap: square"/>
     </g>
     <g id="line2d_6">
      <g>
       <use xlink:href="#m66791b0086" x="164.424016" y="249.624" style="fill: #262626; stroke: #262626; stroke-width: 0.8"/>
      </g>
     </g>
     <g id="text_3">
      <!-- 2 -->
      <g style="fill: #262626" transform="translate(160.606516 265.742125) scale(0.12 -0.12)">
       <use xlink:href="#DejaVuSans-32"/>
      </g>
     </g>
    </g>
    <g id="text_4">
     <!-- $x$ -->
     <g style="fill: #262626" transform="translate(109.85966 279.836188) scale(0.1 -0.1)">
      <defs>
       <path id="DejaVuSans-Oblique-78" d="M 3841 3500 
L 2234 1784 
L 3219 0 
L 2559 0 
L 1819 1388 
L 531 0 
L -166 0 
L 1556 1844 
L 641 3500 
L 1300 3500 
L 1972 2234 
L 3144 3500 
L 3841 3500 
z
" transform="scale(0.015625)"/>
      </defs>
      <use xlink:href="#DejaVuSans-Oblique-78" transform="translate(0 0.3125)"/>
     </g>
    </g>
   </g>
   <g id="matplotlib.axis_2">
    <g id="ytick_1">
     <g id="line2d_7">
      <path d="M 35.513125 229.1112 
L 190.206194 229.1112 
" clip-path="url(#p8bddc41858)" style="fill: none; stroke: #cccccc; stroke-width: 0.8; stroke-linecap: square"/>
     </g>
     <g id="line2d_8">
      <defs>
       <path id="m58a1212c3b" d="M 0 0 
L -3.5 0 
" style="stroke: #262626; stroke-width: 0.8"/>
      </defs>
      <g>
       <use xlink:href="#m58a1212c3b" x="35.513125" y="229.1112" style="fill: #262626; stroke: #262626; stroke-width: 0.8"/>
      </g>
     </g>
     <g id="text_5">
      <!-- 0 -->
      <g style="fill: #262626" transform="translate(20.878125 233.670263) scale(0.12 -0.12)">
       <use xlink:href="#DejaVuSans-30"/>
      </g>
     </g>
    </g>
    <g id="ytick_2">
     <g id="line2d_9">
      <path d="M 35.513125 188.0856 
L 190.206194 188.0856 
" clip-path="url(#p8bddc41858)" style="fill: none; stroke: #cccccc; stroke-width: 0.8; stroke-linecap: square"/>
     </g>
     <g id="line2d_10">
      <g>
       <use xlink:href="#m58a1212c3b" x="35.513125" y="188.0856" style="fill: #262626; stroke: #262626; stroke-width: 0.8"/>
      </g>
     </g>
     <g id="text_6">
      <!-- 2 -->
      <g style="fill: #262626" transform="translate(20.878125 192.644663) scale(0.12 -0.12)">
       <use xlink:href="#DejaVuSans-32"/>
      </g>
     </g>
    </g>
    <g id="ytick_3">
     <g id="line2d_11">
      <path d="M 35.513125 147.06 
L 190.206194 147.06 
" clip-path="url(#p8bddc41858)" style="fill: none; stroke: #cccccc; stroke-width: 0.8; stroke-linecap: square"/>
     </g>
     <g id="line2d_12">
      <g>
       <use xlink:href="#m58a1212c3b" x="35.513125" y="147.06" style="fill: #262626; stroke: #262626; stroke-width: 0.8"/>
      </g>
     </g>
     <g id="text_7">
      <!-- 4 -->
      <g style="fill: #262626" transform="translate(20.878125 151.619063) scale(0.12 -0.12)">
       <defs>
        <path id="DejaVuSans-34" d="M 2419 4116 
L 825 1625 
L 2419 1625 
L 2419 4116 
z
M 2253 4666 
L 3047 4666 
L 3047 1625 
L 3713 1625 
L 3713 1100 
L 3047 1100 
L 3047 0 
L 2419 0 
L 2419 1100 
L 313 1100 
L 313 1709 
L 2253 4666 
z
" transform="scale(0.015625)"/>
       </defs>
       <use xlink:href="#DejaVuSans-34"/>
      </g>
     </g>
    </g>
    <g id="ytick_4">
     <g id="line2d_13">
      <path d="M 35.513125 106.0344 
L 190.206194 106.0344 
" clip-path="url(#p8bddc41858)" style="fill: none; stroke: #cccccc; stroke-width: 0.8; stroke-linecap: square"/>
     </g>
     <g id="line2d_14">
      <g>
       <use xlink:href="#m58a1212c3b" x="35.513125" y="106.0344" style="fill: #262626; stroke: #262626; stroke-width: 0.8"/>
      </g>
     </g>
     <g id="text_8">
      <!-- 6 -->
      <g style="fill: #262626" transform="translate(20.878125 110.593463) scale(0.12 -0.12)">
       <defs>
        <path id="DejaVuSans-36" d="M 2113 2584 
Q 1688 2584 1439 2293 
Q 1191 2003 1191 1497 
Q 1191 994 1439 701 
Q 1688 409 2113 409 
Q 2538 409 2786 701 
Q 3034 994 3034 1497 
Q 3034 2003 2786 2293 
Q 2538 2584 2113 2584 
z
M 3366 4563 
L 3366 3988 
Q 3128 4100 2886 4159 
Q 2644 4219 2406 4219 
Q 1781 4219 1451 3797 
Q 1122 3375 1075 2522 
Q 1259 2794 1537 2939 
Q 1816 3084 2150 3084 
Q 2853 3084 3261 2657 
Q 3669 2231 3669 1497 
Q 3669 778 3244 343 
Q 2819 -91 2113 -91 
Q 1303 -91 875 529 
Q 447 1150 447 2328 
Q 447 3434 972 4092 
Q 1497 4750 2381 4750 
Q 2619 4750 2861 4703 
Q 3103 4656 3366 4563 
z
" transform="scale(0.015625)"/>
       </defs>
       <use xlink:href="#DejaVuSans-36"/>
      </g>
     </g>
    </g>
    <g id="ytick_5">
     <g id="line2d_15">
      <path d="M 35.513125 65.0088 
L 190.206194 65.0088 
" clip-path="url(#p8bddc41858)" style="fill: none; stroke: #cccccc; stroke-width: 0.8; stroke-linecap: square"/>
     </g>
     <g id="line2d_16">
      <g>
       <use xlink:href="#m58a1212c3b" x="35.513125" y="65.0088" style="fill: #262626; stroke: #262626; stroke-width: 0.8"/>
      </g>
     </g>
     <g id="text_9">
      <!-- 8 -->
      <g style="fill: #262626" transform="translate(20.878125 69.567863) scale(0.12 -0.12)">
       <defs>
        <path id="DejaVuSans-38" d="M 2034 2216 
Q 1584 2216 1326 1975 
Q 1069 1734 1069 1313 
Q 1069 891 1326 650 
Q 1584 409 2034 409 
Q 2484 409 2743 651 
Q 3003 894 3003 1313 
Q 3003 1734 2745 1975 
Q 2488 2216 2034 2216 
z
M 1403 2484 
Q 997 2584 770 2862 
Q 544 3141 544 3541 
Q 544 4100 942 4425 
Q 1341 4750 2034 4750 
Q 2731 4750 3128 4425 
Q 3525 4100 3525 3541 
Q 3525 3141 3298 2862 
Q 3072 2584 2669 2484 
Q 3125 2378 3379 2068 
Q 3634 1759 3634 1313 
Q 3634 634 3220 271 
Q 2806 -91 2034 -91 
Q 1263 -91 848 271 
Q 434 634 434 1313 
Q 434 1759 690 2068 
Q 947 2378 1403 2484 
z
M 1172 3481 
Q 1172 3119 1398 2916 
Q 1625 2713 2034 2713 
Q 2441 2713 2670 2916 
Q 2900 3119 2900 3481 
Q 2900 3844 2670 4047 
Q 2441 4250 2034 4250 
Q 1625 4250 1398 4047 
Q 1172 3844 1172 3481 
z
" transform="scale(0.015625)"/>
       </defs>
       <use xlink:href="#DejaVuSans-38"/>
      </g>
     </g>
    </g>
    <g id="text_10">
     <!-- $y$ -->
     <g style="fill: #262626" transform="translate(14.778125 150.06) rotate(-90) scale(0.1 -0.1)">
      <defs>
       <path id="DejaVuSans-Oblique-79" d="M 1588 -325 
Q 1188 -997 936 -1164 
Q 684 -1331 294 -1331 
L -159 -1331 
L -63 -850 
L 269 -850 
Q 509 -850 678 -719 
Q 847 -588 1056 -206 
L 1234 128 
L 459 3500 
L 1069 3500 
L 1650 819 
L 3256 3500 
L 3859 3500 
L 1588 -325 
z
" transform="scale(0.015625)"/>
      </defs>
      <use xlink:href="#DejaVuSans-Oblique-79" transform="translate(0 0.3125)"/>
     </g>
    </g>
   </g>
   <g id="line2d_17">
    <path d="M 35.513125 44.496 
L 39.399886 62.584103 
L 43.286646 79.73983 
L 47.173407 95.96318 
L 51.060167 111.254154 
L 54.946928 125.612752 
L 58.833688 139.038973 
L 62.720449 151.532817 
L 65.829857 160.856582 
L 68.939266 169.583625 
L 72.048674 177.713948 
L 75.158082 185.24755 
L 78.267491 192.18443 
L 81.376899 198.52459 
L 84.486308 204.268029 
L 86.818364 208.18401 
L 89.15042 211.764336 
L 91.482477 215.009006 
L 93.814533 217.918021 
L 96.146589 220.49138 
L 98.478646 222.729083 
L 100.810702 224.631131 
L 103.142758 226.197524 
L 105.474815 227.42826 
L 107.806871 228.323342 
L 110.138927 228.882768 
L 112.470984 229.106538 
L 114.025688 229.069243 
L 115.580392 228.882768 
L 117.912448 228.323342 
L 120.244505 227.42826 
L 122.576561 226.197524 
L 124.908617 224.631131 
L 127.240674 222.729083 
L 129.57273 220.49138 
L 131.904786 217.918021 
L 134.236843 215.009006 
L 136.568899 211.764336 
L 138.900955 208.18401 
L 141.233012 204.268029 
L 144.34242 198.52459 
L 147.451828 192.18443 
L 150.561237 185.24755 
L 153.670645 177.713948 
L 156.780054 169.583625 
L 159.889462 160.856582 
L 162.998871 151.532817 
L 166.108279 141.612332 
L 169.99504 128.372586 
L 173.8818 114.200464 
L 177.768561 99.095965 
L 181.655321 83.05909 
L 185.542082 66.089839 
L 189.428842 48.188211 
L 190.206194 44.496 
L 190.206194 44.496 
" clip-path="url(#p8bddc41858)" style="fill: none; stroke: #0000ff; stroke-width: 2; stroke-linecap: square"/>
   </g>
   <g id="patch_3">
    <path d="M 35.513125 249.624 
L 35.513125 44.496 
" style="fill: none; stroke: #333333; stroke-width: 0.8; stroke-linejoin: miter; stroke-linecap: square"/>
   </g>
   <g id="patch_4">
    <path d="M 190.206194 249.624 
L 190.206194 44.496 
" style="fill: none; stroke: #333333; stroke-width: 0.8; stroke-linejoin: miter; stroke-linecap: square"/>
   </g>
   <g id="patch_5">
    <path d="M 35.513125 249.624 
L 190.206194 249.624 
" style="fill: none; stroke: #333333; stroke-width: 0.8; stroke-linejoin: miter; stroke-linecap: square"/>
   </g>
   <g id="patch_6">
    <path d="M 35.513125 44.496 
L 190.206194 44.496 
" style="fill: none; stroke: #333333; stroke-width: 0.8; stroke-linejoin: miter; stroke-linecap: square"/>
   </g>
   <g id="patch_7">
    <path d="M 155.48754 198.750689 
Q 134.989264 213.35001 115.401658 227.300733 
" style="fill: none; stroke: #333333; stroke-linecap: round"/>
    <path d="M 119.378182 226.678435 
L 115.401658 227.300733 
L 117.289733 223.746135 
" style="fill: none; stroke: #333333; stroke-linecap: round"/>
   </g>
   <g id="text_11">
    <!-- $\lim_{x \to 0} f(x) = f(0)$ -->
    <g style="fill: #262626" transform="translate(142.85966 189.1112) scale(0.09 -0.09)">
     <defs>
      <path id="DejaVuSans-6c" d="M 603 4863 
L 1178 4863 
L 1178 0 
L 603 0 
L 603 4863 
z
" transform="scale(0.015625)"/>
      <path id="DejaVuSans-69" d="M 603 3500 
L 1178 3500 
L 1178 0 
L 603 0 
L 603 3500 
z
M 603 4863 
L 1178 4863 
L 1178 4134 
L 603 4134 
L 603 4863 
z
" transform="scale(0.015625)"/>
      <path id="DejaVuSans-6d" d="M 3328 2828 
Q 3544 3216 3844 3400 
Q 4144 3584 4550 3584 
Q 5097 3584 5394 3201 
Q 5691 2819 5691 2113 
L 5691 0 
L 5113 0 
L 5113 2094 
Q 5113 2597 4934 2840 
Q 4756 3084 4391 3084 
Q 3944 3084 3684 2787 
Q 3425 2491 3425 1978 
L 3425 0 
L 2847 0 
L 2847 2094 
Q 2847 2600 2669 2842 
Q 2491 3084 2119 3084 
Q 1678 3084 1418 2786 
Q 1159 2488 1159 1978 
L 1159 0 
L 581 0 
L 581 3500 
L 1159 3500 
L 1159 2956 
Q 1356 3278 1631 3431 
Q 1906 3584 2284 3584 
Q 2666 3584 2933 3390 
Q 3200 3197 3328 2828 
z
" transform="scale(0.015625)"/>
      <path id="DejaVuSans-2192" d="M 5050 2147 
L 5050 1866 
L 3822 638 
L 3447 1013 
L 4175 1741 
L 366 1741 
L 366 2272 
L 4175 2272 
L 3447 3000 
L 3822 3375 
L 5050 2147 
z
" transform="scale(0.015625)"/>
      <path id="DejaVuSans-Oblique-66" d="M 3059 4863 
L 2969 4384 
L 2419 4384 
Q 2106 4384 1964 4261 
Q 1822 4138 1753 3809 
L 1691 3500 
L 2638 3500 
L 2553 3053 
L 1606 3053 
L 1013 0 
L 434 0 
L 1031 3053 
L 481 3053 
L 563 3500 
L 1113 3500 
L 1159 3744 
Q 1278 4363 1576 4613 
Q 1875 4863 2516 4863 
L 3059 4863 
z
" transform="scale(0.015625)"/>
      <path id="DejaVuSans-28" d="M 1984 4856 
Q 1566 4138 1362 3434 
Q 1159 2731 1159 2009 
Q 1159 1288 1364 580 
Q 1569 -128 1984 -844 
L 1484 -844 
Q 1016 -109 783 600 
Q 550 1309 550 2009 
Q 550 2706 781 3412 
Q 1013 4119 1484 4856 
L 1984 4856 
z
" transform="scale(0.015625)"/>
      <path id="DejaVuSans-29" d="M 513 4856 
L 1013 4856 
Q 1481 4119 1714 3412 
Q 1947 2706 1947 2009 
Q 1947 1309 1714 600 
Q 1481 -109 1013 -844 
L 513 -844 
Q 928 -128 1133 580 
Q 1338 1288 1338 2009 
Q 1338 2731 1133 3434 
Q 928 4138 513 4856 
z
" transform="scale(0.015625)"/>
      <path id="DejaVuSans-3d" d="M 678 2906 
L 4684 2906 
L 4684 2381 
L 678 2381 
L 678 2906 
z
M 678 1631 
L 4684 1631 
L 4684 1100 
L 678 1100 
L 678 1631 
z
" transform="scale(0.015625)"/>
     </defs>
     <use xlink:href="#DejaVuSans-6c" transform="translate(0 0.015625)"/>
     <use xlink:href="#DejaVuSans-69" transform="translate(27.783203 0.015625)"/>
     <use xlink:href="#DejaVuSans-6d" transform="translate(55.566406 0.015625)"/>
     <use xlink:href="#DejaVuSans-Oblique-78" transform="translate(4 -70.6875) scale(0.7)"/>
     <use xlink:href="#DejaVuSans-2192" transform="translate(45.425781 -70.6875) scale(0.7)"/>
     <use xlink:href="#DejaVuSans-30" transform="translate(104.078125 -70.6875) scale(0.7)"/>
     <use xlink:href="#DejaVuSans-Oblique-66" transform="translate(152.978516 0.015625)"/>
     <use xlink:href="#DejaVuSans-28" transform="translate(188.183594 0.015625)"/>
     <use xlink:href="#DejaVuSans-Oblique-78" transform="translate(227.197266 0.015625)"/>
     <use xlink:href="#DejaVuSans-29" transform="translate(286.376953 0.015625)"/>
     <use xlink:href="#DejaVuSans-3d" transform="translate(325.390625 0.015625)"/>
     <use xlink:href="#DejaVuSans-Oblique-66" transform="translate(409.179688 0.015625)"/>
     <use xlink:href="#DejaVuSans-28" transform="translate(444.384766 0.015625)"/>
     <use xlink:href="#DejaVuSans-30" transform="translate(483.398438 0.015625)"/>
     <use xlink:href="#DejaVuSans-29" transform="translate(547.021484 0.015625)"/>
    </g>
   </g>
   <g id="text_12">
    <!-- Continuous at $x = 0$ -->
    <g style="fill: #262626" transform="translate(54.11966 38.496) scale(0.11 -0.11)">
     <defs>
      <path id="DejaVuSans-Bold-43" d="M 4288 256 
Q 3956 84 3597 -3 
Q 3238 -91 2847 -91 
Q 1681 -91 1000 561 
Q 319 1213 319 2328 
Q 319 3447 1000 4098 
Q 1681 4750 2847 4750 
Q 3238 4750 3597 4662 
Q 3956 4575 4288 4403 
L 4288 3438 
Q 3953 3666 3628 3772 
Q 3303 3878 2944 3878 
Q 2300 3878 1931 3465 
Q 1563 3053 1563 2328 
Q 1563 1606 1931 1193 
Q 2300 781 2944 781 
Q 3303 781 3628 887 
Q 3953 994 4288 1222 
L 4288 256 
z
" transform="scale(0.015625)"/>
      <path id="DejaVuSans-Bold-6f" d="M 2203 2784 
Q 1831 2784 1636 2517 
Q 1441 2250 1441 1747 
Q 1441 1244 1636 976 
Q 1831 709 2203 709 
Q 2569 709 2762 976 
Q 2956 1244 2956 1747 
Q 2956 2250 2762 2517 
Q 2569 2784 2203 2784 
z
M 2203 3584 
Q 3106 3584 3614 3096 
Q 4122 2609 4122 1747 
Q 4122 884 3614 396 
Q 3106 -91 2203 -91 
Q 1297 -91 786 396 
Q 275 884 275 1747 
Q 275 2609 786 3096 
Q 1297 3584 2203 3584 
z
" transform="scale(0.015625)"/>
      <path id="DejaVuSans-Bold-6e" d="M 4056 2131 
L 4056 0 
L 2931 0 
L 2931 347 
L 2931 1631 
Q 2931 2084 2911 2256 
Q 2891 2428 2841 2509 
Q 2775 2619 2662 2680 
Q 2550 2741 2406 2741 
Q 2056 2741 1856 2470 
Q 1656 2200 1656 1722 
L 1656 0 
L 538 0 
L 538 3500 
L 1656 3500 
L 1656 2988 
Q 1909 3294 2193 3439 
Q 2478 3584 2822 3584 
Q 3428 3584 3742 3212 
Q 4056 2841 4056 2131 
z
" transform="scale(0.015625)"/>
      <path id="DejaVuSans-Bold-74" d="M 1759 4494 
L 1759 3500 
L 2913 3500 
L 2913 2700 
L 1759 2700 
L 1759 1216 
Q 1759 972 1856 886 
Q 1953 800 2241 800 
L 2816 800 
L 2816 0 
L 1856 0 
Q 1194 0 917 276 
Q 641 553 641 1216 
L 641 2700 
L 84 2700 
L 84 3500 
L 641 3500 
L 641 4494 
L 1759 4494 
z
" transform="scale(0.015625)"/>
      <path id="DejaVuSans-Bold-69" d="M 538 3500 
L 1656 3500 
L 1656 0 
L 538 0 
L 538 3500 
z
M 538 4863 
L 1656 4863 
L 1656 3950 
L 538 3950 
L 538 4863 
z
" transform="scale(0.015625)"/>
      <path id="DejaVuSans-Bold-75" d="M 500 1363 
L 500 3500 
L 1625 3500 
L 1625 3150 
Q 1625 2866 1622 2436 
Q 1619 2006 1619 1863 
Q 1619 1441 1641 1255 
Q 1663 1069 1716 984 
Q 1784 875 1895 815 
Q 2006 756 2150 756 
Q 2500 756 2700 1025 
Q 2900 1294 2900 1772 
L 2900 3500 
L 4019 3500 
L 4019 0 
L 2900 0 
L 2900 506 
Q 2647 200 2364 54 
Q 2081 -91 1741 -91 
Q 1134 -91 817 281 
Q 500 653 500 1363 
z
" transform="scale(0.015625)"/>
      <path id="DejaVuSans-Bold-73" d="M 3272 3391 
L 3272 2541 
Q 2913 2691 2578 2766 
Q 2244 2841 1947 2841 
Q 1628 2841 1473 2761 
Q 1319 2681 1319 2516 
Q 1319 2381 1436 2309 
Q 1553 2238 1856 2203 
L 2053 2175 
Q 2913 2066 3209 1816 
Q 3506 1566 3506 1031 
Q 3506 472 3093 190 
Q 2681 -91 1863 -91 
Q 1516 -91 1145 -36 
Q 775 19 384 128 
L 384 978 
Q 719 816 1070 734 
Q 1422 653 1784 653 
Q 2113 653 2278 743 
Q 2444 834 2444 1013 
Q 2444 1163 2330 1236 
Q 2216 1309 1875 1350 
L 1678 1375 
Q 931 1469 631 1722 
Q 331 1975 331 2491 
Q 331 3047 712 3315 
Q 1094 3584 1881 3584 
Q 2191 3584 2531 3537 
Q 2872 3491 3272 3391 
z
" transform="scale(0.015625)"/>
      <path id="DejaVuSans-Bold-20" transform="scale(0.015625)"/>
      <path id="DejaVuSans-Bold-61" d="M 2106 1575 
Q 1756 1575 1579 1456 
Q 1403 1338 1403 1106 
Q 1403 894 1545 773 
Q 1688 653 1941 653 
Q 2256 653 2472 879 
Q 2688 1106 2688 1447 
L 2688 1575 
L 2106 1575 
z
M 3816 1997 
L 3816 0 
L 2688 0 
L 2688 519 
Q 2463 200 2181 54 
Q 1900 -91 1497 -91 
Q 953 -91 614 226 
Q 275 544 275 1050 
Q 275 1666 698 1953 
Q 1122 2241 2028 2241 
L 2688 2241 
L 2688 2328 
Q 2688 2594 2478 2717 
Q 2269 2841 1825 2841 
Q 1466 2841 1156 2769 
Q 847 2697 581 2553 
L 581 3406 
Q 941 3494 1303 3539 
Q 1666 3584 2028 3584 
Q 2975 3584 3395 3211 
Q 3816 2838 3816 1997 
z
" transform="scale(0.015625)"/>
     </defs>
     <use xlink:href="#DejaVuSans-Bold-43" transform="translate(0 0.015625)"/>
     <use xlink:href="#DejaVuSans-Bold-6f" transform="translate(73.388672 0.015625)"/>
     <use xlink:href="#DejaVuSans-Bold-6e" transform="translate(142.089844 0.015625)"/>
     <use xlink:href="#DejaVuSans-Bold-74" transform="translate(213.28125 0.015625)"/>
     <use xlink:href="#DejaVuSans-Bold-69" transform="translate(261.083984 0.015625)"/>
     <use xlink:href="#DejaVuSans-Bold-6e" transform="translate(295.361328 0.015625)"/>
     <use xlink:href="#DejaVuSans-Bold-75" transform="translate(366.552734 0.015625)"/>
     <use xlink:href="#DejaVuSans-Bold-6f" transform="translate(437.744141 0.015625)"/>
     <use xlink:href="#DejaVuSans-Bold-75" transform="translate(506.445312 0.015625)"/>
     <use xlink:href="#DejaVuSans-Bold-73" transform="translate(577.636719 0.015625)"/>
     <use xlink:href="#DejaVuSans-Bold-20" transform="translate(637.158203 0.015625)"/>
     <use xlink:href="#DejaVuSans-Bold-61" transform="translate(671.972656 0.015625)"/>
     <use xlink:href="#DejaVuSans-Bold-74" transform="translate(739.453125 0.015625)"/>
     <use xlink:href="#DejaVuSans-Bold-20" transform="translate(787.255859 0.015625)"/>
     <use xlink:href="#DejaVuSans-Oblique-78" transform="translate(822.070312 0.015625)"/>
     <use xlink:href="#DejaVuSans-3d" transform="translate(900.732422 0.015625)"/>
     <use xlink:href="#DejaVuSans-30" transform="translate(1004.003906 0.015625)"/>
    </g>
   </g>
   <g id="line2d_18">
    <defs>
     <path id="m7b0fc77888" d="M 0 4 
C 1.060812 4 2.078319 3.578535 2.828427 2.828427 
C 3.578535 2.078319 4 1.060812 4 0 
C 4 -1.060812 3.578535 -2.078319 2.828427 -2.828427 
C 2.078319 -3.578535 1.060812 -4 0 -4 
C -1.060812 -4 -2.078319 -3.578535 -2.828427 -2.828427 
C -3.578535 -2.078319 -4 -1.060812 -4 0 
C -4 1.060812 -3.578535 2.078319 -2.828427 2.828427 
C -2.078319 3.578535 -1.060812 4 0 4 
z
" style="stroke: #0000ff"/>
    </defs>
    <g clip-path="url(#p8bddc41858)">
     <use xlink:href="#m7b0fc77888" x="112.85966" y="229.1112" style="fill: #0000ff; stroke: #0000ff"/>
    </g>
   </g>
  </g>
  <g id="axes_2">
   <g id="patch_8">
    <path d="M 244.348769 249.624 
L 399.041838 249.624 
L 399.041838 44.496 
L 244.348769 44.496 
z
" style="fill: #ffffff"/>
   </g>
   <g id="matplotlib.axis_3">
    <g id="xtick_4">
     <g id="line2d_19">
      <path d="M 270.130947 249.624 
L 270.130947 44.496 
" clip-path="url(#p4d41aa7de7)" style="fill: none; stroke: #cccccc; stroke-width: 0.8; stroke-linecap: square"/>
     </g>
     <g id="line2d_20">
      <g>
       <use xlink:href="#m66791b0086" x="270.130947" y="249.624" style="fill: #262626; stroke: #262626; stroke-width: 0.8"/>
      </g>
     </g>
     <g id="text_13">
      <!-- −2 -->
      <g style="fill: #262626" transform="translate(261.285634 265.742125) scale(0.12 -0.12)">
       <use xlink:href="#DejaVuSans-2212"/>
       <use xlink:href="#DejaVuSans-32" transform="translate(83.789062 0)"/>
      </g>
     </g>
    </g>
    <g id="xtick_5">
     <g id="line2d_21">
      <path d="M 321.695303 249.624 
L 321.695303 44.496 
" clip-path="url(#p4d41aa7de7)" style="fill: none; stroke: #cccccc; stroke-width: 0.8; stroke-linecap: square"/>
     </g>
     <g id="line2d_22">
      <g>
       <use xlink:href="#m66791b0086" x="321.695303" y="249.624" style="fill: #262626; stroke: #262626; stroke-width: 0.8"/>
      </g>
     </g>
     <g id="text_14">
      <!-- 0 -->
      <g style="fill: #262626" transform="translate(317.877803 265.742125) scale(0.12 -0.12)">
       <use xlink:href="#DejaVuSans-30"/>
      </g>
     </g>
    </g>
    <g id="xtick_6">
     <g id="line2d_23">
      <path d="M 373.25966 249.624 
L 373.25966 44.496 
" clip-path="url(#p4d41aa7de7)" style="fill: none; stroke: #cccccc; stroke-width: 0.8; stroke-linecap: square"/>
     </g>
     <g id="line2d_24">
      <g>
       <use xlink:href="#m66791b0086" x="373.25966" y="249.624" style="fill: #262626; stroke: #262626; stroke-width: 0.8"/>
      </g>
     </g>
     <g id="text_15">
      <!-- 2 -->
      <g style="fill: #262626" transform="translate(369.44216 265.742125) scale(0.12 -0.12)">
       <use xlink:href="#DejaVuSans-32"/>
      </g>
     </g>
    </g>
    <g id="text_16">
     <!-- $x$ -->
     <g style="fill: #262626" transform="translate(318.695303 279.836188) scale(0.1 -0.1)">
      <use xlink:href="#DejaVuSans-Oblique-78" transform="translate(0 0.3125)"/>
     </g>
    </g>
   </g>
   <g id="matplotlib.axis_4">
    <g id="ytick_6">
     <g id="line2d_25">
      <path d="M 244.348769 249.624 
L 399.041838 249.624 
" clip-path="url(#p4d41aa7de7)" style="fill: none; stroke: #cccccc; stroke-width: 0.8; stroke-linecap: square"/>
     </g>
     <g id="line2d_26">
      <g>
       <use xlink:href="#m58a1212c3b" x="244.348769" y="249.624" style="fill: #262626; stroke: #262626; stroke-width: 0.8"/>
      </g>
     </g>
     <g id="text_17">
      <!-- −1 -->
      <g style="fill: #262626" transform="translate(219.658144 254.183063) scale(0.12 -0.12)">
       <defs>
        <path id="DejaVuSans-31" d="M 794 531 
L 1825 531 
L 1825 4091 
L 703 3866 
L 703 4441 
L 1819 4666 
L 2450 4666 
L 2450 531 
L 3481 531 
L 3481 0 
L 794 0 
L 794 531 
z
" transform="scale(0.015625)"/>
       </defs>
       <use xlink:href="#DejaVuSans-2212"/>
       <use xlink:href="#DejaVuSans-31" transform="translate(83.789062 0)"/>
      </g>
     </g>
    </g>
    <g id="ytick_7">
     <g id="line2d_27">
      <path d="M 244.348769 220.32 
L 399.041838 220.32 
" clip-path="url(#p4d41aa7de7)" style="fill: none; stroke: #cccccc; stroke-width: 0.8; stroke-linecap: square"/>
     </g>
     <g id="line2d_28">
      <g>
       <use xlink:href="#m58a1212c3b" x="244.348769" y="220.32" style="fill: #262626; stroke: #262626; stroke-width: 0.8"/>
      </g>
     </g>
     <g id="text_18">
      <!-- 0 -->
      <g style="fill: #262626" transform="translate(229.713769 224.879063) scale(0.12 -0.12)">
       <use xlink:href="#DejaVuSans-30"/>
      </g>
     </g>
    </g>
    <g id="ytick_8">
     <g id="line2d_29">
      <path d="M 244.348769 191.016 
L 399.041838 191.016 
" clip-path="url(#p4d41aa7de7)" style="fill: none; stroke: #cccccc; stroke-width: 0.8; stroke-linecap: square"/>
     </g>
     <g id="line2d_30">
      <g>
       <use xlink:href="#m58a1212c3b" x="244.348769" y="191.016" style="fill: #262626; stroke: #262626; stroke-width: 0.8"/>
      </g>
     </g>
     <g id="text_19">
      <!-- 1 -->
      <g style="fill: #262626" transform="translate(229.713769 195.575063) scale(0.12 -0.12)">
       <use xlink:href="#DejaVuSans-31"/>
      </g>
     </g>
    </g>
    <g id="ytick_9">
     <g id="line2d_31">
      <path d="M 244.348769 161.712 
L 399.041838 161.712 
" clip-path="url(#p4d41aa7de7)" style="fill: none; stroke: #cccccc; stroke-width: 0.8; stroke-linecap: square"/>
     </g>
     <g id="line2d_32">
      <g>
       <use xlink:href="#m58a1212c3b" x="244.348769" y="161.712" style="fill: #262626; stroke: #262626; stroke-width: 0.8"/>
      </g>
     </g>
     <g id="text_20">
      <!-- 2 -->
      <g style="fill: #262626" transform="translate(229.713769 166.271063) scale(0.12 -0.12)">
       <use xlink:href="#DejaVuSans-32"/>
      </g>
     </g>
    </g>
    <g id="ytick_10">
     <g id="line2d_33">
      <path d="M 244.348769 132.408 
L 399.041838 132.408 
" clip-path="url(#p4d41aa7de7)" style="fill: none; stroke: #cccccc; stroke-width: 0.8; stroke-linecap: square"/>
     </g>
     <g id="line2d_34">
      <g>
       <use xlink:href="#m58a1212c3b" x="244.348769" y="132.408" style="fill: #262626; stroke: #262626; stroke-width: 0.8"/>
      </g>
     </g>
     <g id="text_21">
      <!-- 3 -->
      <g style="fill: #262626" transform="translate(229.713769 136.967063) scale(0.12 -0.12)">
       <defs>
        <path id="DejaVuSans-33" d="M 2597 2516 
Q 3050 2419 3304 2112 
Q 3559 1806 3559 1356 
Q 3559 666 3084 287 
Q 2609 -91 1734 -91 
Q 1441 -91 1130 -33 
Q 819 25 488 141 
L 488 750 
Q 750 597 1062 519 
Q 1375 441 1716 441 
Q 2309 441 2620 675 
Q 2931 909 2931 1356 
Q 2931 1769 2642 2001 
Q 2353 2234 1838 2234 
L 1294 2234 
L 1294 2753 
L 1863 2753 
Q 2328 2753 2575 2939 
Q 2822 3125 2822 3475 
Q 2822 3834 2567 4026 
Q 2313 4219 1838 4219 
Q 1578 4219 1281 4162 
Q 984 4106 628 3988 
L 628 4550 
Q 988 4650 1302 4700 
Q 1616 4750 1894 4750 
Q 2613 4750 3031 4423 
Q 3450 4097 3450 3541 
Q 3450 3153 3228 2886 
Q 3006 2619 2597 2516 
z
" transform="scale(0.015625)"/>
       </defs>
       <use xlink:href="#DejaVuSans-33"/>
      </g>
     </g>
    </g>
    <g id="ytick_11">
     <g id="line2d_35">
      <path d="M 244.348769 103.104 
L 399.041838 103.104 
" clip-path="url(#p4d41aa7de7)" style="fill: none; stroke: #cccccc; stroke-width: 0.8; stroke-linecap: square"/>
     </g>
     <g id="line2d_36">
      <g>
       <use xlink:href="#m58a1212c3b" x="244.348769" y="103.104" style="fill: #262626; stroke: #262626; stroke-width: 0.8"/>
      </g>
     </g>
     <g id="text_22">
      <!-- 4 -->
      <g style="fill: #262626" transform="translate(229.713769 107.663063) scale(0.12 -0.12)">
       <use xlink:href="#DejaVuSans-34"/>
      </g>
     </g>
    </g>
    <g id="ytick_12">
     <g id="line2d_37">
      <path d="M 244.348769 73.8 
L 399.041838 73.8 
" clip-path="url(#p4d41aa7de7)" style="fill: none; stroke: #cccccc; stroke-width: 0.8; stroke-linecap: square"/>
     </g>
     <g id="line2d_38">
      <g>
       <use xlink:href="#m58a1212c3b" x="244.348769" y="73.8" style="fill: #262626; stroke: #262626; stroke-width: 0.8"/>
      </g>
     </g>
     <g id="text_23">
      <!-- 5 -->
      <g style="fill: #262626" transform="translate(229.713769 78.359063) scale(0.12 -0.12)">
       <defs>
        <path id="DejaVuSans-35" d="M 691 4666 
L 3169 4666 
L 3169 4134 
L 1269 4134 
L 1269 2991 
Q 1406 3038 1543 3061 
Q 1681 3084 1819 3084 
Q 2600 3084 3056 2656 
Q 3513 2228 3513 1497 
Q 3513 744 3044 326 
Q 2575 -91 1722 -91 
Q 1428 -91 1123 -41 
Q 819 9 494 109 
L 494 744 
Q 775 591 1075 516 
Q 1375 441 1709 441 
Q 2250 441 2565 725 
Q 2881 1009 2881 1497 
Q 2881 1984 2565 2268 
Q 2250 2553 1709 2553 
Q 1456 2553 1204 2497 
Q 953 2441 691 2322 
L 691 4666 
z
" transform="scale(0.015625)"/>
       </defs>
       <use xlink:href="#DejaVuSans-35"/>
      </g>
     </g>
    </g>
    <g id="ytick_13">
     <g id="line2d_39">
      <path d="M 244.348769 44.496 
L 399.041838 44.496 
" clip-path="url(#p4d41aa7de7)" style="fill: none; stroke: #cccccc; stroke-width: 0.8; stroke-linecap: square"/>
     </g>
     <g id="line2d_40">
      <g>
       <use xlink:href="#m58a1212c3b" x="244.348769" y="44.496" style="fill: #262626; stroke: #262626; stroke-width: 0.8"/>
      </g>
     </g>
     <g id="text_24">
      <!-- 6 -->
      <g style="fill: #262626" transform="translate(229.713769 49.055063) scale(0.12 -0.12)">
       <use xlink:href="#DejaVuSans-36"/>
      </g>
     </g>
    </g>
   </g>
   <g id="line2d_41">
    <path d="M 244.348769 249.624 
L 245.124838 248.74192 
L 245.900908 247.85984 
L 246.676977 246.97776 
L 247.453047 246.09568 
L 248.229117 245.2136 
L 249.005186 244.33152 
L 249.781256 243.44944 
L 250.557325 242.56736 
L 251.333395 241.68528 
L 252.109465 240.8032 
L 252.885534 239.92112 
L 253.661604 239.03904 
L 254.437673 238.15696 
L 255.213743 237.27488 
L 255.989813 236.3928 
L 256.765882 235.51072 
L 257.541952 234.62864 
L 258.318021 233.74656 
L 259.094091 232.86448 
L 259.870161 231.9824 
L 260.64623 231.10032 
L 261.4223 230.21824 
L 262.19837 229.33616 
L 262.974439 228.45408 
L 263.750509 227.572 
L 264.526578 226.68992 
L 265.302648 225.80784 
L 266.078718 224.92576 
L 266.854787 224.04368 
L 267.630857 223.1616 
L 268.406926 222.27952 
L 269.182996 221.39744 
L 269.959066 220.51536 
L 270.735135 219.63328 
L 271.511205 218.7512 
L 272.287274 217.86912 
L 273.063344 216.98704 
L 273.839414 216.10496 
L 274.615483 215.22288 
L 275.391553 214.3408 
L 276.167622 213.45872 
L 276.943692 212.57664 
L 277.719762 211.69456 
L 278.495831 210.81248 
L 279.271901 209.9304 
L 280.04797 209.04832 
L 280.82404 208.16624 
L 281.60011 207.28416 
L 282.376179 206.40208 
L 283.152249 205.52 
L 283.928319 204.63792 
L 284.704388 203.75584 
L 285.480458 202.87376 
L 286.256527 201.99168 
L 287.032597 201.1096 
L 287.808667 200.22752 
L 288.584736 199.34544 
L 289.360806 198.46336 
L 290.136875 197.58128 
L 290.912945 196.6992 
L 291.689015 195.81712 
L 292.465084 194.93504 
L 293.241154 194.05296 
L 294.017223 193.17088 
L 294.793293 192.2888 
L 295.569363 191.40672 
L 296.345432 190.52464 
L 297.121502 189.64256 
L 297.897571 188.76048 
L 298.673641 187.8784 
L 299.449711 186.99632 
L 300.22578 186.11424 
L 301.00185 185.23216 
L 301.777919 184.35008 
L 302.553989 183.468 
L 303.330059 182.58592 
L 304.106128 181.70384 
L 304.882198 180.82176 
L 305.658268 179.93968 
L 306.434337 179.0576 
L 307.210407 178.17552 
L 307.986476 177.29344 
L 308.762546 176.41136 
L 309.538616 175.52928 
L 310.314685 174.6472 
L 311.090755 173.76512 
L 311.866824 172.88304 
L 312.642894 172.00096 
L 313.418964 171.11888 
L 314.195033 170.2368 
L 314.971103 169.35472 
L 315.747172 168.47264 
L 316.523242 167.59056 
L 317.299312 166.70848 
L 318.075381 165.8264 
L 318.851451 164.94432 
L 319.62752 164.06224 
L 320.40359 163.18016 
L 321.17966 162.29808 
" clip-path="url(#p4d41aa7de7)" style="fill: none; stroke: #0000ff; stroke-width: 2; stroke-linecap: square"/>
   </g>
   <g id="line2d_42">
    <path d="M 322.210947 161.12592 
L 322.987016 160.24384 
L 323.763086 159.36176 
L 324.539156 158.47968 
L 325.315225 157.5976 
L 326.091295 156.71552 
L 326.867364 155.83344 
L 327.643434 154.95136 
L 328.419504 154.06928 
L 329.195573 153.1872 
L 329.971643 152.30512 
L 330.747712 151.42304 
L 331.523782 150.54096 
L 332.299852 149.65888 
L 333.075921 148.7768 
L 333.851991 147.89472 
L 334.62806 147.01264 
L 335.40413 146.13056 
L 336.1802 145.24848 
L 336.956269 144.3664 
L 337.732339 143.48432 
L 338.508409 142.60224 
L 339.284478 141.72016 
L 340.060548 140.83808 
L 340.836617 139.956 
L 341.612687 139.07392 
L 342.388757 138.19184 
L 343.164826 137.30976 
L 343.940896 136.42768 
L 344.716965 135.5456 
L 345.493035 134.66352 
L 346.269105 133.78144 
L 347.045174 132.89936 
L 347.821244 132.01728 
L 348.597313 131.1352 
L 349.373383 130.25312 
L 350.149453 129.37104 
L 350.925522 128.48896 
L 351.701592 127.60688 
L 352.477661 126.7248 
L 353.253731 125.84272 
L 354.029801 124.96064 
L 354.80587 124.07856 
L 355.58194 123.19648 
L 356.358009 122.3144 
L 357.134079 121.43232 
L 357.910149 120.55024 
L 358.686218 119.66816 
L 359.462288 118.78608 
L 360.238358 117.904 
L 361.014427 117.02192 
L 361.790497 116.13984 
L 362.566566 115.25776 
L 363.342636 114.37568 
L 364.118706 113.4936 
L 364.894775 112.61152 
L 365.670845 111.72944 
L 366.446914 110.84736 
L 367.222984 109.96528 
L 367.999054 109.0832 
L 368.775123 108.20112 
L 369.551193 107.31904 
L 370.327262 106.43696 
L 371.103332 105.55488 
L 371.879402 104.6728 
L 372.655471 103.79072 
L 373.431541 102.90864 
L 374.20761 102.02656 
L 374.98368 101.14448 
L 375.75975 100.2624 
L 376.535819 99.38032 
L 377.311889 98.49824 
L 378.087958 97.61616 
L 378.864028 96.73408 
L 379.640098 95.852 
L 380.416167 94.96992 
L 381.192237 94.08784 
L 381.968307 93.20576 
L 382.744376 92.32368 
L 383.520446 91.4416 
L 384.296515 90.55952 
L 385.072585 89.67744 
L 385.848655 88.79536 
L 386.624724 87.91328 
L 387.400794 87.0312 
L 388.176863 86.14912 
L 388.952933 85.26704 
L 389.729003 84.38496 
L 390.505072 83.50288 
L 391.281142 82.6208 
L 392.057211 81.73872 
L 392.833281 80.85664 
L 393.609351 79.97456 
L 394.38542 79.09248 
L 395.16149 78.2104 
L 395.937559 77.32832 
L 396.713629 76.44624 
L 397.489699 75.56416 
L 398.265768 74.68208 
L 399.041838 73.8 
" clip-path="url(#p4d41aa7de7)" style="fill: none; stroke: #0000ff; stroke-width: 2; stroke-linecap: square"/>
   </g>
   <g id="patch_9">
    <path d="M 244.348769 249.624 
L 244.348769 44.496 
" style="fill: none; stroke: #333333; stroke-width: 0.8; stroke-linejoin: miter; stroke-linecap: square"/>
   </g>
   <g id="patch_10">
    <path d="M 399.041838 249.624 
L 399.041838 44.496 
" style="fill: none; stroke: #333333; stroke-width: 0.8; stroke-linejoin: miter; stroke-linecap: square"/>
   </g>
   <g id="patch_11">
    <path d="M 244.348769 249.624 
L 399.041838 249.624 
" style="fill: none; stroke: #333333; stroke-width: 0.8; stroke-linejoin: miter; stroke-linecap: square"/>
   </g>
   <g id="patch_12">
    <path d="M 244.348769 44.496 
L 399.041838 44.496 
" style="fill: none; stroke: #333333; stroke-width: 0.8; stroke-linejoin: miter; stroke-linecap: square"/>
   </g>
   <g id="patch_13">
    <path d="M 357.678403 117.064435 
Q 340.607075 124.343825 324.564186 131.184679 
" style="fill: none; stroke: #333333; stroke-linecap: round"/>
    <path d="M 328.581724 131.428372 
L 324.564186 131.184679 
L 327.169663 128.116864 
" style="fill: none; stroke: #333333; stroke-linecap: round"/>
   </g>
   <g id="text_25">
    <!-- Limit exists but -->
    <g style="fill: #262626" transform="translate(351.695303 102.329969) scale(0.09 -0.09)">
     <defs>
      <path id="DejaVuSans-4c" d="M 628 4666 
L 1259 4666 
L 1259 531 
L 3531 531 
L 3531 0 
L 628 0 
L 628 4666 
z
" transform="scale(0.015625)"/>
      <path id="DejaVuSans-74" d="M 1172 4494 
L 1172 3500 
L 2356 3500 
L 2356 3053 
L 1172 3053 
L 1172 1153 
Q 1172 725 1289 603 
Q 1406 481 1766 481 
L 2356 481 
L 2356 0 
L 1766 0 
Q 1100 0 847 248 
Q 594 497 594 1153 
L 594 3053 
L 172 3053 
L 172 3500 
L 594 3500 
L 594 4494 
L 1172 4494 
z
" transform="scale(0.015625)"/>
      <path id="DejaVuSans-20" transform="scale(0.015625)"/>
      <path id="DejaVuSans-65" d="M 3597 1894 
L 3597 1613 
L 953 1613 
Q 991 1019 1311 708 
Q 1631 397 2203 397 
Q 2534 397 2845 478 
Q 3156 559 3463 722 
L 3463 178 
Q 3153 47 2828 -22 
Q 2503 -91 2169 -91 
Q 1331 -91 842 396 
Q 353 884 353 1716 
Q 353 2575 817 3079 
Q 1281 3584 2069 3584 
Q 2775 3584 3186 3129 
Q 3597 2675 3597 1894 
z
M 3022 2063 
Q 3016 2534 2758 2815 
Q 2500 3097 2075 3097 
Q 1594 3097 1305 2825 
Q 1016 2553 972 2059 
L 3022 2063 
z
" transform="scale(0.015625)"/>
      <path id="DejaVuSans-78" d="M 3513 3500 
L 2247 1797 
L 3578 0 
L 2900 0 
L 1881 1375 
L 863 0 
L 184 0 
L 1544 1831 
L 300 3500 
L 978 3500 
L 1906 2253 
L 2834 3500 
L 3513 3500 
z
" transform="scale(0.015625)"/>
      <path id="DejaVuSans-73" d="M 2834 3397 
L 2834 2853 
Q 2591 2978 2328 3040 
Q 2066 3103 1784 3103 
Q 1356 3103 1142 2972 
Q 928 2841 928 2578 
Q 928 2378 1081 2264 
Q 1234 2150 1697 2047 
L 1894 2003 
Q 2506 1872 2764 1633 
Q 3022 1394 3022 966 
Q 3022 478 2636 193 
Q 2250 -91 1575 -91 
Q 1294 -91 989 -36 
Q 684 19 347 128 
L 347 722 
Q 666 556 975 473 
Q 1284 391 1588 391 
Q 1994 391 2212 530 
Q 2431 669 2431 922 
Q 2431 1156 2273 1281 
Q 2116 1406 1581 1522 
L 1381 1569 
Q 847 1681 609 1914 
Q 372 2147 372 2553 
Q 372 3047 722 3315 
Q 1072 3584 1716 3584 
Q 2034 3584 2315 3537 
Q 2597 3491 2834 3397 
z
" transform="scale(0.015625)"/>
      <path id="DejaVuSans-62" d="M 3116 1747 
Q 3116 2381 2855 2742 
Q 2594 3103 2138 3103 
Q 1681 3103 1420 2742 
Q 1159 2381 1159 1747 
Q 1159 1113 1420 752 
Q 1681 391 2138 391 
Q 2594 391 2855 752 
Q 3116 1113 3116 1747 
z
M 1159 2969 
Q 1341 3281 1617 3432 
Q 1894 3584 2278 3584 
Q 2916 3584 3314 3078 
Q 3713 2572 3713 1747 
Q 3713 922 3314 415 
Q 2916 -91 2278 -91 
Q 1894 -91 1617 61 
Q 1341 213 1159 525 
L 1159 0 
L 581 0 
L 581 4863 
L 1159 4863 
L 1159 2969 
z
" transform="scale(0.015625)"/>
      <path id="DejaVuSans-75" d="M 544 1381 
L 544 3500 
L 1119 3500 
L 1119 1403 
Q 1119 906 1312 657 
Q 1506 409 1894 409 
Q 2359 409 2629 706 
Q 2900 1003 2900 1516 
L 2900 3500 
L 3475 3500 
L 3475 0 
L 2900 0 
L 2900 538 
Q 2691 219 2414 64 
Q 2138 -91 1772 -91 
Q 1169 -91 856 284 
Q 544 659 544 1381 
z
M 1991 3584 
L 1991 3584 
z
" transform="scale(0.015625)"/>
     </defs>
     <use xlink:href="#DejaVuSans-4c"/>
     <use xlink:href="#DejaVuSans-69" transform="translate(55.712891 0)"/>
     <use xlink:href="#DejaVuSans-6d" transform="translate(83.496094 0)"/>
     <use xlink:href="#DejaVuSans-69" transform="translate(180.908203 0)"/>
     <use xlink:href="#DejaVuSans-74" transform="translate(208.691406 0)"/>
     <use xlink:href="#DejaVuSans-20" transform="translate(247.900391 0)"/>
     <use xlink:href="#DejaVuSans-65" transform="translate(279.6875 0)"/>
     <use xlink:href="#DejaVuSans-78" transform="translate(339.460938 0)"/>
     <use xlink:href="#DejaVuSans-69" transform="translate(398.640625 0)"/>
     <use xlink:href="#DejaVuSans-73" transform="translate(426.423828 0)"/>
     <use xlink:href="#DejaVuSans-74" transform="translate(478.523438 0)"/>
     <use xlink:href="#DejaVuSans-73" transform="translate(517.732422 0)"/>
     <use xlink:href="#DejaVuSans-20" transform="translate(569.832031 0)"/>
     <use xlink:href="#DejaVuSans-62" transform="translate(601.619141 0)"/>
     <use xlink:href="#DejaVuSans-75" transform="translate(665.095703 0)"/>
     <use xlink:href="#DejaVuSans-74" transform="translate(728.474609 0)"/>
    </g>
    <!-- $f(0) \neq \lim f(x)$ -->
    <g style="fill: #262626" transform="translate(351.695303 112.408) scale(0.09 -0.09)">
     <defs>
      <path id="DejaVuSans-2260" d="M 678 2906 
L 3091 2906 
L 3891 3891 
L 4281 3572 
L 3738 2906 
L 4684 2906 
L 4684 2381 
L 3309 2381 
L 2700 1631 
L 4684 1631 
L 4684 1100 
L 2266 1100 
L 1459 122 
L 1069 441 
L 1613 1100 
L 678 1100 
L 678 1631 
L 2047 1631 
L 2656 2381 
L 678 2381 
L 678 2906 
z
" transform="scale(0.015625)"/>
     </defs>
     <use xlink:href="#DejaVuSans-Oblique-66" transform="translate(0 0.015625)"/>
     <use xlink:href="#DejaVuSans-28" transform="translate(35.205078 0.015625)"/>
     <use xlink:href="#DejaVuSans-30" transform="translate(74.21875 0.015625)"/>
     <use xlink:href="#DejaVuSans-29" transform="translate(137.841797 0.015625)"/>
     <use xlink:href="#DejaVuSans-2260" transform="translate(196.337891 0.015625)"/>
     <use xlink:href="#DejaVuSans-6c" transform="translate(299.609375 0.015625)"/>
     <use xlink:href="#DejaVuSans-69" transform="translate(327.392578 0.015625)"/>
     <use xlink:href="#DejaVuSans-6d" transform="translate(355.175781 0.015625)"/>
     <use xlink:href="#DejaVuSans-Oblique-66" transform="translate(452.587891 0.015625)"/>
     <use xlink:href="#DejaVuSans-28" transform="translate(487.792969 0.015625)"/>
     <use xlink:href="#DejaVuSans-Oblique-78" transform="translate(526.806641 0.015625)"/>
     <use xlink:href="#DejaVuSans-29" transform="translate(585.986328 0.015625)"/>
    </g>
   </g>
   <g id="text_26">
    <!-- Removable Discontinuity -->
    <g style="fill: #262626" transform="translate(244.331788 38.496) scale(0.11 -0.11)">
     <defs>
      <path id="DejaVuSans-Bold-52" d="M 2297 2597 
Q 2675 2597 2839 2737 
Q 3003 2878 3003 3200 
Q 3003 3519 2839 3656 
Q 2675 3794 2297 3794 
L 1791 3794 
L 1791 2597 
L 2297 2597 
z
M 1791 1766 
L 1791 0 
L 588 0 
L 588 4666 
L 2425 4666 
Q 3347 4666 3776 4356 
Q 4206 4047 4206 3378 
Q 4206 2916 3982 2619 
Q 3759 2322 3309 2181 
Q 3556 2125 3751 1926 
Q 3947 1728 4147 1325 
L 4800 0 
L 3519 0 
L 2950 1159 
Q 2778 1509 2601 1637 
Q 2425 1766 2131 1766 
L 1791 1766 
z
" transform="scale(0.015625)"/>
      <path id="DejaVuSans-Bold-65" d="M 4031 1759 
L 4031 1441 
L 1416 1441 
Q 1456 1047 1700 850 
Q 1944 653 2381 653 
Q 2734 653 3104 758 
Q 3475 863 3866 1075 
L 3866 213 
Q 3469 63 3072 -14 
Q 2675 -91 2278 -91 
Q 1328 -91 801 392 
Q 275 875 275 1747 
Q 275 2603 792 3093 
Q 1309 3584 2216 3584 
Q 3041 3584 3536 3087 
Q 4031 2591 4031 1759 
z
M 2881 2131 
Q 2881 2450 2695 2645 
Q 2509 2841 2209 2841 
Q 1884 2841 1681 2658 
Q 1478 2475 1428 2131 
L 2881 2131 
z
" transform="scale(0.015625)"/>
      <path id="DejaVuSans-Bold-6d" d="M 3781 2919 
Q 3994 3244 4286 3414 
Q 4578 3584 4928 3584 
Q 5531 3584 5847 3212 
Q 6163 2841 6163 2131 
L 6163 0 
L 5038 0 
L 5038 1825 
Q 5041 1866 5042 1909 
Q 5044 1953 5044 2034 
Q 5044 2406 4934 2573 
Q 4825 2741 4581 2741 
Q 4263 2741 4089 2478 
Q 3916 2216 3909 1719 
L 3909 0 
L 2784 0 
L 2784 1825 
Q 2784 2406 2684 2573 
Q 2584 2741 2328 2741 
Q 2006 2741 1831 2477 
Q 1656 2213 1656 1722 
L 1656 0 
L 531 0 
L 531 3500 
L 1656 3500 
L 1656 2988 
Q 1863 3284 2130 3434 
Q 2397 3584 2719 3584 
Q 3081 3584 3359 3409 
Q 3638 3234 3781 2919 
z
" transform="scale(0.015625)"/>
      <path id="DejaVuSans-Bold-76" d="M 97 3500 
L 1216 3500 
L 2088 1081 
L 2956 3500 
L 4078 3500 
L 2700 0 
L 1472 0 
L 97 3500 
z
" transform="scale(0.015625)"/>
      <path id="DejaVuSans-Bold-62" d="M 2400 722 
Q 2759 722 2948 984 
Q 3138 1247 3138 1747 
Q 3138 2247 2948 2509 
Q 2759 2772 2400 2772 
Q 2041 2772 1848 2508 
Q 1656 2244 1656 1747 
Q 1656 1250 1848 986 
Q 2041 722 2400 722 
z
M 1656 2988 
Q 1888 3294 2169 3439 
Q 2450 3584 2816 3584 
Q 3463 3584 3878 3070 
Q 4294 2556 4294 1747 
Q 4294 938 3878 423 
Q 3463 -91 2816 -91 
Q 2450 -91 2169 54 
Q 1888 200 1656 506 
L 1656 0 
L 538 0 
L 538 4863 
L 1656 4863 
L 1656 2988 
z
" transform="scale(0.015625)"/>
      <path id="DejaVuSans-Bold-6c" d="M 538 4863 
L 1656 4863 
L 1656 0 
L 538 0 
L 538 4863 
z
" transform="scale(0.015625)"/>
      <path id="DejaVuSans-Bold-44" d="M 1791 3756 
L 1791 909 
L 2222 909 
Q 2959 909 3348 1275 
Q 3738 1641 3738 2338 
Q 3738 3031 3350 3393 
Q 2963 3756 2222 3756 
L 1791 3756 
z
M 588 4666 
L 1856 4666 
Q 2919 4666 3439 4514 
Q 3959 4363 4331 4000 
Q 4659 3684 4818 3271 
Q 4978 2859 4978 2338 
Q 4978 1809 4818 1395 
Q 4659 981 4331 666 
Q 3956 303 3431 151 
Q 2906 0 1856 0 
L 588 0 
L 588 4666 
z
" transform="scale(0.015625)"/>
      <path id="DejaVuSans-Bold-63" d="M 3366 3391 
L 3366 2478 
Q 3138 2634 2908 2709 
Q 2678 2784 2431 2784 
Q 1963 2784 1702 2511 
Q 1441 2238 1441 1747 
Q 1441 1256 1702 982 
Q 1963 709 2431 709 
Q 2694 709 2930 787 
Q 3166 866 3366 1019 
L 3366 103 
Q 3103 6 2833 -42 
Q 2563 -91 2291 -91 
Q 1344 -91 809 395 
Q 275 881 275 1747 
Q 275 2613 809 3098 
Q 1344 3584 2291 3584 
Q 2566 3584 2833 3536 
Q 3100 3488 3366 3391 
z
" transform="scale(0.015625)"/>
      <path id="DejaVuSans-Bold-79" d="M 78 3500 
L 1197 3500 
L 2138 1125 
L 2938 3500 
L 4056 3500 
L 2584 -331 
Q 2363 -916 2067 -1148 
Q 1772 -1381 1288 -1381 
L 641 -1381 
L 641 -647 
L 991 -647 
Q 1275 -647 1404 -556 
Q 1534 -466 1606 -231 
L 1638 -134 
L 78 3500 
z
" transform="scale(0.015625)"/>
     </defs>
     <use xlink:href="#DejaVuSans-Bold-52"/>
     <use xlink:href="#DejaVuSans-Bold-65" transform="translate(77.001953 0)"/>
     <use xlink:href="#DejaVuSans-Bold-6d" transform="translate(144.824219 0)"/>
     <use xlink:href="#DejaVuSans-Bold-6f" transform="translate(249.023438 0)"/>
     <use xlink:href="#DejaVuSans-Bold-76" transform="translate(317.724609 0)"/>
     <use xlink:href="#DejaVuSans-Bold-61" transform="translate(382.910156 0)"/>
     <use xlink:href="#DejaVuSans-Bold-62" transform="translate(450.390625 0)"/>
     <use xlink:href="#DejaVuSans-Bold-6c" transform="translate(521.972656 0)"/>
     <use xlink:href="#DejaVuSans-Bold-65" transform="translate(556.25 0)"/>
     <use xlink:href="#DejaVuSans-Bold-20" transform="translate(624.072266 0)"/>
     <use xlink:href="#DejaVuSans-Bold-44" transform="translate(658.886719 0)"/>
     <use xlink:href="#DejaVuSans-Bold-69" transform="translate(741.894531 0)"/>
     <use xlink:href="#DejaVuSans-Bold-73" transform="translate(776.171875 0)"/>
     <use xlink:href="#DejaVuSans-Bold-63" transform="translate(835.693359 0)"/>
     <use xlink:href="#DejaVuSans-Bold-6f" transform="translate(894.970703 0)"/>
     <use xlink:href="#DejaVuSans-Bold-6e" transform="translate(963.671875 0)"/>
     <use xlink:href="#DejaVuSans-Bold-74" transform="translate(1034.863281 0)"/>
     <use xlink:href="#DejaVuSans-Bold-69" transform="translate(1082.666016 0)"/>
     <use xlink:href="#DejaVuSans-Bold-6e" transform="translate(1116.943359 0)"/>
     <use xlink:href="#DejaVuSans-Bold-75" transform="translate(1188.134766 0)"/>
     <use xlink:href="#DejaVuSans-Bold-69" transform="translate(1259.326172 0)"/>
     <use xlink:href="#DejaVuSans-Bold-74" transform="translate(1293.603516 0)"/>
     <use xlink:href="#DejaVuSans-Bold-79" transform="translate(1341.40625 0)"/>
    </g>
   </g>
   <g id="line2d_43">
    <defs>
     <path id="mfce6cdebcb" d="M 0 4 
C 1.060812 4 2.078319 3.578535 2.828427 2.828427 
C 3.578535 2.078319 4 1.060812 4 0 
C 4 -1.060812 3.578535 -2.078319 2.828427 -2.828427 
C 2.078319 -3.578535 1.060812 -4 0 -4 
C -1.060812 -4 -2.078319 -3.578535 -2.828427 -2.828427 
C -3.578535 -2.078319 -4 -1.060812 -4 0 
C -4 1.060812 -3.578535 2.078319 -2.828427 2.828427 
C -2.078319 3.578535 -1.060812 4 0 4 
z
" style="stroke: #0000ff; stroke-width: 2"/>
    </defs>
    <g clip-path="url(#p4d41aa7de7)">
     <use xlink:href="#mfce6cdebcb" x="321.695303" y="161.712" style="fill-opacity: 0; stroke: #0000ff; stroke-width: 2"/>
    </g>
   </g>
   <g id="line2d_44">
    <g clip-path="url(#p4d41aa7de7)">
     <use xlink:href="#m7b0fc77888" x="321.695303" y="103.104" style="fill: #0000ff; stroke: #0000ff"/>
    </g>
   </g>
  </g>
  <g id="axes_3">
   <g id="patch_14">
    <path d="M 453.184412 249.624 
L 607.877481 249.624 
L 607.877481 44.496 
L 453.184412 44.496 
z
" style="fill: #ffffff"/>
   </g>
   <g id="matplotlib.axis_5">
    <g id="xtick_7">
     <g id="line2d_45">
      <path d="M 478.96659 249.624 
L 478.96659 44.496 
" clip-path="url(#pa43d357942)" style="fill: none; stroke: #cccccc; stroke-width: 0.8; stroke-linecap: square"/>
     </g>
     <g id="line2d_46">
      <g>
       <use xlink:href="#m66791b0086" x="478.96659" y="249.624" style="fill: #262626; stroke: #262626; stroke-width: 0.8"/>
      </g>
     </g>
     <g id="text_27">
      <!-- −2 -->
      <g style="fill: #262626" transform="translate(470.121278 265.742125) scale(0.12 -0.12)">
       <use xlink:href="#DejaVuSans-2212"/>
       <use xlink:href="#DejaVuSans-32" transform="translate(83.789062 0)"/>
      </g>
     </g>
    </g>
    <g id="xtick_8">
     <g id="line2d_47">
      <path d="M 530.530947 249.624 
L 530.530947 44.496 
" clip-path="url(#pa43d357942)" style="fill: none; stroke: #cccccc; stroke-width: 0.8; stroke-linecap: square"/>
     </g>
     <g id="line2d_48">
      <g>
       <use xlink:href="#m66791b0086" x="530.530947" y="249.624" style="fill: #262626; stroke: #262626; stroke-width: 0.8"/>
      </g>
     </g>
     <g id="text_28">
      <!-- 0 -->
      <g style="fill: #262626" transform="translate(526.713447 265.742125) scale(0.12 -0.12)">
       <use xlink:href="#DejaVuSans-30"/>
      </g>
     </g>
    </g>
    <g id="xtick_9">
     <g id="line2d_49">
      <path d="M 582.095303 249.624 
L 582.095303 44.496 
" clip-path="url(#pa43d357942)" style="fill: none; stroke: #cccccc; stroke-width: 0.8; stroke-linecap: square"/>
     </g>
     <g id="line2d_50">
      <g>
       <use xlink:href="#m66791b0086" x="582.095303" y="249.624" style="fill: #262626; stroke: #262626; stroke-width: 0.8"/>
      </g>
     </g>
     <g id="text_29">
      <!-- 2 -->
      <g style="fill: #262626" transform="translate(578.277803 265.742125) scale(0.12 -0.12)">
       <use xlink:href="#DejaVuSans-32"/>
      </g>
     </g>
    </g>
    <g id="text_30">
     <!-- $x$ -->
     <g style="fill: #262626" transform="translate(527.530947 279.836188) scale(0.1 -0.1)">
      <use xlink:href="#DejaVuSans-Oblique-78" transform="translate(0 0.3125)"/>
     </g>
    </g>
   </g>
   <g id="matplotlib.axis_6">
    <g id="ytick_14">
     <g id="line2d_51">
      <path d="M 453.184412 230.976 
L 607.877481 230.976 
" clip-path="url(#pa43d357942)" style="fill: none; stroke: #cccccc; stroke-width: 0.8; stroke-linecap: square"/>
     </g>
     <g id="line2d_52">
      <g>
       <use xlink:href="#m58a1212c3b" x="453.184412" y="230.976" style="fill: #262626; stroke: #262626; stroke-width: 0.8"/>
      </g>
     </g>
     <g id="text_31">
      <!-- 0 -->
      <g style="fill: #262626" transform="translate(438.549412 235.535063) scale(0.12 -0.12)">
       <use xlink:href="#DejaVuSans-30"/>
      </g>
     </g>
    </g>
    <g id="ytick_15">
     <g id="line2d_53">
      <path d="M 453.184412 193.68 
L 607.877481 193.68 
" clip-path="url(#pa43d357942)" style="fill: none; stroke: #cccccc; stroke-width: 0.8; stroke-linecap: square"/>
     </g>
     <g id="line2d_54">
      <g>
       <use xlink:href="#m58a1212c3b" x="453.184412" y="193.68" style="fill: #262626; stroke: #262626; stroke-width: 0.8"/>
      </g>
     </g>
     <g id="text_32">
      <!-- 1 -->
      <g style="fill: #262626" transform="translate(438.549412 198.239063) scale(0.12 -0.12)">
       <use xlink:href="#DejaVuSans-31"/>
      </g>
     </g>
    </g>
    <g id="ytick_16">
     <g id="line2d_55">
      <path d="M 453.184412 156.384 
L 607.877481 156.384 
" clip-path="url(#pa43d357942)" style="fill: none; stroke: #cccccc; stroke-width: 0.8; stroke-linecap: square"/>
     </g>
     <g id="line2d_56">
      <g>
       <use xlink:href="#m58a1212c3b" x="453.184412" y="156.384" style="fill: #262626; stroke: #262626; stroke-width: 0.8"/>
      </g>
     </g>
     <g id="text_33">
      <!-- 2 -->
      <g style="fill: #262626" transform="translate(438.549412 160.943063) scale(0.12 -0.12)">
       <use xlink:href="#DejaVuSans-32"/>
      </g>
     </g>
    </g>
    <g id="ytick_17">
     <g id="line2d_57">
      <path d="M 453.184412 119.088 
L 607.877481 119.088 
" clip-path="url(#pa43d357942)" style="fill: none; stroke: #cccccc; stroke-width: 0.8; stroke-linecap: square"/>
     </g>
     <g id="line2d_58">
      <g>
       <use xlink:href="#m58a1212c3b" x="453.184412" y="119.088" style="fill: #262626; stroke: #262626; stroke-width: 0.8"/>
      </g>
     </g>
     <g id="text_34">
      <!-- 3 -->
      <g style="fill: #262626" transform="translate(438.549412 123.647063) scale(0.12 -0.12)">
       <use xlink:href="#DejaVuSans-33"/>
      </g>
     </g>
    </g>
    <g id="ytick_18">
     <g id="line2d_59">
      <path d="M 453.184412 81.792 
L 607.877481 81.792 
" clip-path="url(#pa43d357942)" style="fill: none; stroke: #cccccc; stroke-width: 0.8; stroke-linecap: square"/>
     </g>
     <g id="line2d_60">
      <g>
       <use xlink:href="#m58a1212c3b" x="453.184412" y="81.792" style="fill: #262626; stroke: #262626; stroke-width: 0.8"/>
      </g>
     </g>
     <g id="text_35">
      <!-- 4 -->
      <g style="fill: #262626" transform="translate(438.549412 86.351063) scale(0.12 -0.12)">
       <use xlink:href="#DejaVuSans-34"/>
      </g>
     </g>
    </g>
    <g id="ytick_19">
     <g id="line2d_61">
      <path d="M 453.184412 44.496 
L 607.877481 44.496 
" clip-path="url(#pa43d357942)" style="fill: none; stroke: #cccccc; stroke-width: 0.8; stroke-linecap: square"/>
     </g>
     <g id="line2d_62">
      <g>
       <use xlink:href="#m58a1212c3b" x="453.184412" y="44.496" style="fill: #262626; stroke: #262626; stroke-width: 0.8"/>
      </g>
     </g>
     <g id="text_36">
      <!-- 5 -->
      <g style="fill: #262626" transform="translate(438.549412 49.055063) scale(0.12 -0.12)">
       <use xlink:href="#DejaVuSans-35"/>
      </g>
     </g>
    </g>
   </g>
   <g id="line2d_63">
    <path d="M 453.184412 193.68 
L 530.530947 193.68 
L 530.530947 193.68 
" clip-path="url(#pa43d357942)" style="fill: none; stroke: #0000ff; stroke-width: 2; stroke-linecap: square"/>
   </g>
   <g id="line2d_64">
    <path d="M 531.04659 119.088 
L 607.877481 119.088 
L 607.877481 119.088 
" clip-path="url(#pa43d357942)" style="fill: none; stroke: #0000ff; stroke-width: 2; stroke-linecap: square"/>
   </g>
   <g id="patch_15">
    <path d="M 453.184412 249.624 
L 453.184412 44.496 
" style="fill: none; stroke: #333333; stroke-width: 0.8; stroke-linejoin: miter; stroke-linecap: square"/>
   </g>
   <g id="patch_16">
    <path d="M 607.877481 249.624 
L 607.877481 44.496 
" style="fill: none; stroke: #333333; stroke-width: 0.8; stroke-linejoin: miter; stroke-linecap: square"/>
   </g>
   <g id="patch_17">
    <path d="M 453.184412 249.624 
L 607.877481 249.624 
" style="fill: none; stroke: #333333; stroke-width: 0.8; stroke-linejoin: miter; stroke-linecap: square"/>
   </g>
   <g id="patch_18">
    <path d="M 453.184412 44.496 
L 607.877481 44.496 
" style="fill: none; stroke: #333333; stroke-width: 0.8; stroke-linejoin: miter; stroke-linecap: square"/>
   </g>
   <g id="patch_19">
    <path d="M 556.539346 154.702814 
Q 544.533638 155.478865 533.643635 156.182795 
" style="fill: none; stroke: #333333; stroke-linecap: round"/>
    <path d="M 537.764315 157.920608 
L 533.643635 156.182795 
L 537.506294 153.928939 
" style="fill: none; stroke: #333333; stroke-linecap: round"/>
   </g>
   <g id="text_37">
    <!-- Jump -->
    <g style="fill: #262626" transform="translate(560.530947 156.384) scale(0.1 -0.1)">
     <defs>
      <path id="DejaVuSans-4a" d="M 628 4666 
L 1259 4666 
L 1259 325 
Q 1259 -519 939 -900 
Q 619 -1281 -91 -1281 
L -331 -1281 
L -331 -750 
L -134 -750 
Q 284 -750 456 -515 
Q 628 -281 628 325 
L 628 4666 
z
" transform="scale(0.015625)"/>
      <path id="DejaVuSans-70" d="M 1159 525 
L 1159 -1331 
L 581 -1331 
L 581 3500 
L 1159 3500 
L 1159 2969 
Q 1341 3281 1617 3432 
Q 1894 3584 2278 3584 
Q 2916 3584 3314 3078 
Q 3713 2572 3713 1747 
Q 3713 922 3314 415 
Q 2916 -91 2278 -91 
Q 1894 -91 1617 61 
Q 1341 213 1159 525 
z
M 3116 1747 
Q 3116 2381 2855 2742 
Q 2594 3103 2138 3103 
Q 1681 3103 1420 2742 
Q 1159 2381 1159 1747 
Q 1159 1113 1420 752 
Q 1681 391 2138 391 
Q 2594 391 2855 752 
Q 3116 1113 3116 1747 
z
" transform="scale(0.015625)"/>
     </defs>
     <use xlink:href="#DejaVuSans-4a"/>
     <use xlink:href="#DejaVuSans-75" transform="translate(29.492188 0)"/>
     <use xlink:href="#DejaVuSans-6d" transform="translate(92.871094 0)"/>
     <use xlink:href="#DejaVuSans-70" transform="translate(190.283203 0)"/>
    </g>
   </g>
   <g id="text_38">
    <!-- Limit does not -->
    <g style="fill: #555555" transform="translate(478.96659 138.846769) scale(0.09 -0.09)">
     <defs>
      <path id="DejaVuSans-64" d="M 2906 2969 
L 2906 4863 
L 3481 4863 
L 3481 0 
L 2906 0 
L 2906 525 
Q 2725 213 2448 61 
Q 2172 -91 1784 -91 
Q 1150 -91 751 415 
Q 353 922 353 1747 
Q 353 2572 751 3078 
Q 1150 3584 1784 3584 
Q 2172 3584 2448 3432 
Q 2725 3281 2906 2969 
z
M 947 1747 
Q 947 1113 1208 752 
Q 1469 391 1925 391 
Q 2381 391 2643 752 
Q 2906 1113 2906 1747 
Q 2906 2381 2643 2742 
Q 2381 3103 1925 3103 
Q 1469 3103 1208 2742 
Q 947 2381 947 1747 
z
" transform="scale(0.015625)"/>
      <path id="DejaVuSans-6f" d="M 1959 3097 
Q 1497 3097 1228 2736 
Q 959 2375 959 1747 
Q 959 1119 1226 758 
Q 1494 397 1959 397 
Q 2419 397 2687 759 
Q 2956 1122 2956 1747 
Q 2956 2369 2687 2733 
Q 2419 3097 1959 3097 
z
M 1959 3584 
Q 2709 3584 3137 3096 
Q 3566 2609 3566 1747 
Q 3566 888 3137 398 
Q 2709 -91 1959 -91 
Q 1206 -91 779 398 
Q 353 888 353 1747 
Q 353 2609 779 3096 
Q 1206 3584 1959 3584 
z
" transform="scale(0.015625)"/>
      <path id="DejaVuSans-6e" d="M 3513 2113 
L 3513 0 
L 2938 0 
L 2938 2094 
Q 2938 2591 2744 2837 
Q 2550 3084 2163 3084 
Q 1697 3084 1428 2787 
Q 1159 2491 1159 1978 
L 1159 0 
L 581 0 
L 581 3500 
L 1159 3500 
L 1159 2956 
Q 1366 3272 1645 3428 
Q 1925 3584 2291 3584 
Q 2894 3584 3203 3211 
Q 3513 2838 3513 2113 
z
" transform="scale(0.015625)"/>
     </defs>
     <use xlink:href="#DejaVuSans-4c"/>
     <use xlink:href="#DejaVuSans-69" transform="translate(55.712891 0)"/>
     <use xlink:href="#DejaVuSans-6d" transform="translate(83.496094 0)"/>
     <use xlink:href="#DejaVuSans-69" transform="translate(180.908203 0)"/>
     <use xlink:href="#DejaVuSans-74" transform="translate(208.691406 0)"/>
     <use xlink:href="#DejaVuSans-20" transform="translate(247.900391 0)"/>
     <use xlink:href="#DejaVuSans-64" transform="translate(279.6875 0)"/>
     <use xlink:href="#DejaVuSans-6f" transform="translate(343.164062 0)"/>
     <use xlink:href="#DejaVuSans-65" transform="translate(404.345703 0)"/>
     <use xlink:href="#DejaVuSans-73" transform="translate(465.869141 0)"/>
     <use xlink:href="#DejaVuSans-20" transform="translate(517.96875 0)"/>
     <use xlink:href="#DejaVuSans-6e" transform="translate(549.755859 0)"/>
     <use xlink:href="#DejaVuSans-6f" transform="translate(613.134766 0)"/>
     <use xlink:href="#DejaVuSans-74" transform="translate(674.316406 0)"/>
    </g>
    <!-- exist -->
    <g style="fill: #555555" transform="translate(478.96659 148.9248) scale(0.09 -0.09)">
     <use xlink:href="#DejaVuSans-65"/>
     <use xlink:href="#DejaVuSans-78" transform="translate(59.773438 0)"/>
     <use xlink:href="#DejaVuSans-69" transform="translate(118.953125 0)"/>
     <use xlink:href="#DejaVuSans-73" transform="translate(146.736328 0)"/>
     <use xlink:href="#DejaVuSans-74" transform="translate(198.835938 0)"/>
    </g>
   </g>
   <g id="text_39">
    <!-- Jump Discontinuity -->
    <g style="fill: #262626" transform="translate(471.863134 38.496) scale(0.11 -0.11)">
     <defs>
      <path id="DejaVuSans-Bold-4a" d="M 588 4666 
L 1791 4666 
L 1791 453 
Q 1791 -419 1317 -850 
Q 844 -1281 -116 -1281 
L -359 -1281 
L -359 -372 
L -172 -372 
Q 203 -372 395 -162 
Q 588 47 588 453 
L 588 4666 
z
" transform="scale(0.015625)"/>
      <path id="DejaVuSans-Bold-70" d="M 1656 506 
L 1656 -1331 
L 538 -1331 
L 538 3500 
L 1656 3500 
L 1656 2988 
Q 1888 3294 2169 3439 
Q 2450 3584 2816 3584 
Q 3463 3584 3878 3070 
Q 4294 2556 4294 1747 
Q 4294 938 3878 423 
Q 3463 -91 2816 -91 
Q 2450 -91 2169 54 
Q 1888 200 1656 506 
z
M 2400 2772 
Q 2041 2772 1848 2508 
Q 1656 2244 1656 1747 
Q 1656 1250 1848 986 
Q 2041 722 2400 722 
Q 2759 722 2948 984 
Q 3138 1247 3138 1747 
Q 3138 2247 2948 2509 
Q 2759 2772 2400 2772 
z
" transform="scale(0.015625)"/>
     </defs>
     <use xlink:href="#DejaVuSans-Bold-4a"/>
     <use xlink:href="#DejaVuSans-Bold-75" transform="translate(37.207031 0)"/>
     <use xlink:href="#DejaVuSans-Bold-6d" transform="translate(108.398438 0)"/>
     <use xlink:href="#DejaVuSans-Bold-70" transform="translate(212.597656 0)"/>
     <use xlink:href="#DejaVuSans-Bold-20" transform="translate(284.179688 0)"/>
     <use xlink:href="#DejaVuSans-Bold-44" transform="translate(318.994141 0)"/>
     <use xlink:href="#DejaVuSans-Bold-69" transform="translate(402.001953 0)"/>
     <use xlink:href="#DejaVuSans-Bold-73" transform="translate(436.279297 0)"/>
     <use xlink:href="#DejaVuSans-Bold-63" transform="translate(495.800781 0)"/>
     <use xlink:href="#DejaVuSans-Bold-6f" transform="translate(555.078125 0)"/>
     <use xlink:href="#DejaVuSans-Bold-6e" transform="translate(623.779297 0)"/>
     <use xlink:href="#DejaVuSans-Bold-74" transform="translate(694.970703 0)"/>
     <use xlink:href="#DejaVuSans-Bold-69" transform="translate(742.773438 0)"/>
     <use xlink:href="#DejaVuSans-Bold-6e" transform="translate(777.050781 0)"/>
     <use xlink:href="#DejaVuSans-Bold-75" transform="translate(848.242188 0)"/>
     <use xlink:href="#DejaVuSans-Bold-69" transform="translate(919.433594 0)"/>
     <use xlink:href="#DejaVuSans-Bold-74" transform="translate(953.710938 0)"/>
     <use xlink:href="#DejaVuSans-Bold-79" transform="translate(1001.513672 0)"/>
    </g>
   </g>
   <g id="line2d_65">
    <g clip-path="url(#pa43d357942)">
     <use xlink:href="#m7b0fc77888" x="530.530947" y="193.68" style="fill: #0000ff; stroke: #0000ff"/>
    </g>
   </g>
   <g id="line2d_66">
    <g clip-path="url(#pa43d357942)">
     <use xlink:href="#mfce6cdebcb" x="530.530947" y="119.088" style="fill-opacity: 0; stroke: #0000ff; stroke-width: 2"/>
    </g>
   </g>
  </g>
  <g id="axes_4">
   <g id="patch_20">
    <path d="M 662.020056 249.624 
L 816.713125 249.624 
L 816.713125 44.496 
L 662.020056 44.496 
z
" style="fill: #ffffff"/>
   </g>
   <g id="matplotlib.axis_7">
    <g id="xtick_10">
     <g id="line2d_67">
      <path d="M 687.802234 249.624 
L 687.802234 44.496 
" clip-path="url(#p68d58f74fe)" style="fill: none; stroke: #cccccc; stroke-width: 0.8; stroke-linecap: square"/>
     </g>
     <g id="line2d_68">
      <g>
       <use xlink:href="#m66791b0086" x="687.802234" y="249.624" style="fill: #262626; stroke: #262626; stroke-width: 0.8"/>
      </g>
     </g>
     <g id="text_40">
      <!-- −2 -->
      <g style="fill: #262626" transform="translate(678.956921 265.742125) scale(0.12 -0.12)">
       <use xlink:href="#DejaVuSans-2212"/>
       <use xlink:href="#DejaVuSans-32" transform="translate(83.789062 0)"/>
      </g>
     </g>
    </g>
    <g id="xtick_11">
     <g id="line2d_69">
      <path d="M 739.36659 249.624 
L 739.36659 44.496 
" clip-path="url(#p68d58f74fe)" style="fill: none; stroke: #cccccc; stroke-width: 0.8; stroke-linecap: square"/>
     </g>
     <g id="line2d_70">
      <g>
       <use xlink:href="#m66791b0086" x="739.36659" y="249.624" style="fill: #262626; stroke: #262626; stroke-width: 0.8"/>
      </g>
     </g>
     <g id="text_41">
      <!-- 0 -->
      <g style="fill: #262626" transform="translate(735.54909 265.742125) scale(0.12 -0.12)">
       <use xlink:href="#DejaVuSans-30"/>
      </g>
     </g>
    </g>
    <g id="xtick_12">
     <g id="line2d_71">
      <path d="M 790.930947 249.624 
L 790.930947 44.496 
" clip-path="url(#p68d58f74fe)" style="fill: none; stroke: #cccccc; stroke-width: 0.8; stroke-linecap: square"/>
     </g>
     <g id="line2d_72">
      <g>
       <use xlink:href="#m66791b0086" x="790.930947" y="249.624" style="fill: #262626; stroke: #262626; stroke-width: 0.8"/>
      </g>
     </g>
     <g id="text_42">
      <!-- 2 -->
      <g style="fill: #262626" transform="translate(787.113447 265.742125) scale(0.12 -0.12)">
       <use xlink:href="#DejaVuSans-32"/>
      </g>
     </g>
    </g>
    <g id="text_43">
     <!-- $x$ -->
     <g style="fill: #262626" transform="translate(736.36659 279.836188) scale(0.1 -0.1)">
      <use xlink:href="#DejaVuSans-Oblique-78" transform="translate(0 0.3125)"/>
     </g>
    </g>
   </g>
   <g id="matplotlib.axis_8">
    <g id="ytick_20">
     <g id="line2d_73">
      <path d="M 662.020056 249.624 
L 816.713125 249.624 
" clip-path="url(#p68d58f74fe)" style="fill: none; stroke: #cccccc; stroke-width: 0.8; stroke-linecap: square"/>
     </g>
     <g id="line2d_74">
      <g>
       <use xlink:href="#m58a1212c3b" x="662.020056" y="249.624" style="fill: #262626; stroke: #262626; stroke-width: 0.8"/>
      </g>
     </g>
     <g id="text_44">
      <!-- −8 -->
      <g style="fill: #262626" transform="translate(637.329431 254.183063) scale(0.12 -0.12)">
       <use xlink:href="#DejaVuSans-2212"/>
       <use xlink:href="#DejaVuSans-38" transform="translate(83.789062 0)"/>
      </g>
     </g>
    </g>
    <g id="ytick_21">
     <g id="line2d_75">
      <path d="M 662.020056 223.983 
L 816.713125 223.983 
" clip-path="url(#p68d58f74fe)" style="fill: none; stroke: #cccccc; stroke-width: 0.8; stroke-linecap: square"/>
     </g>
     <g id="line2d_76">
      <g>
       <use xlink:href="#m58a1212c3b" x="662.020056" y="223.983" style="fill: #262626; stroke: #262626; stroke-width: 0.8"/>
      </g>
     </g>
     <g id="text_45">
      <!-- −6 -->
      <g style="fill: #262626" transform="translate(637.329431 228.542063) scale(0.12 -0.12)">
       <use xlink:href="#DejaVuSans-2212"/>
       <use xlink:href="#DejaVuSans-36" transform="translate(83.789062 0)"/>
      </g>
     </g>
    </g>
    <g id="ytick_22">
     <g id="line2d_77">
      <path d="M 662.020056 198.342 
L 816.713125 198.342 
" clip-path="url(#p68d58f74fe)" style="fill: none; stroke: #cccccc; stroke-width: 0.8; stroke-linecap: square"/>
     </g>
     <g id="line2d_78">
      <g>
       <use xlink:href="#m58a1212c3b" x="662.020056" y="198.342" style="fill: #262626; stroke: #262626; stroke-width: 0.8"/>
      </g>
     </g>
     <g id="text_46">
      <!-- −4 -->
      <g style="fill: #262626" transform="translate(637.329431 202.901063) scale(0.12 -0.12)">
       <use xlink:href="#DejaVuSans-2212"/>
       <use xlink:href="#DejaVuSans-34" transform="translate(83.789062 0)"/>
      </g>
     </g>
    </g>
    <g id="ytick_23">
     <g id="line2d_79">
      <path d="M 662.020056 172.701 
L 816.713125 172.701 
" clip-path="url(#p68d58f74fe)" style="fill: none; stroke: #cccccc; stroke-width: 0.8; stroke-linecap: square"/>
     </g>
     <g id="line2d_80">
      <g>
       <use xlink:href="#m58a1212c3b" x="662.020056" y="172.701" style="fill: #262626; stroke: #262626; stroke-width: 0.8"/>
      </g>
     </g>
     <g id="text_47">
      <!-- −2 -->
      <g style="fill: #262626" transform="translate(637.329431 177.260063) scale(0.12 -0.12)">
       <use xlink:href="#DejaVuSans-2212"/>
       <use xlink:href="#DejaVuSans-32" transform="translate(83.789062 0)"/>
      </g>
     </g>
    </g>
    <g id="ytick_24">
     <g id="line2d_81">
      <path d="M 662.020056 147.06 
L 816.713125 147.06 
" clip-path="url(#p68d58f74fe)" style="fill: none; stroke: #cccccc; stroke-width: 0.8; stroke-linecap: square"/>
     </g>
     <g id="line2d_82">
      <g>
       <use xlink:href="#m58a1212c3b" x="662.020056" y="147.06" style="fill: #262626; stroke: #262626; stroke-width: 0.8"/>
      </g>
     </g>
     <g id="text_48">
      <!-- 0 -->
      <g style="fill: #262626" transform="translate(647.385056 151.619063) scale(0.12 -0.12)">
       <use xlink:href="#DejaVuSans-30"/>
      </g>
     </g>
    </g>
    <g id="ytick_25">
     <g id="line2d_83">
      <path d="M 662.020056 121.419 
L 816.713125 121.419 
" clip-path="url(#p68d58f74fe)" style="fill: none; stroke: #cccccc; stroke-width: 0.8; stroke-linecap: square"/>
     </g>
     <g id="line2d_84">
      <g>
       <use xlink:href="#m58a1212c3b" x="662.020056" y="121.419" style="fill: #262626; stroke: #262626; stroke-width: 0.8"/>
      </g>
     </g>
     <g id="text_49">
      <!-- 2 -->
      <g style="fill: #262626" transform="translate(647.385056 125.978063) scale(0.12 -0.12)">
       <use xlink:href="#DejaVuSans-32"/>
      </g>
     </g>
    </g>
    <g id="ytick_26">
     <g id="line2d_85">
      <path d="M 662.020056 95.778 
L 816.713125 95.778 
" clip-path="url(#p68d58f74fe)" style="fill: none; stroke: #cccccc; stroke-width: 0.8; stroke-linecap: square"/>
     </g>
     <g id="line2d_86">
      <g>
       <use xlink:href="#m58a1212c3b" x="662.020056" y="95.778" style="fill: #262626; stroke: #262626; stroke-width: 0.8"/>
      </g>
     </g>
     <g id="text_50">
      <!-- 4 -->
      <g style="fill: #262626" transform="translate(647.385056 100.337063) scale(0.12 -0.12)">
       <use xlink:href="#DejaVuSans-34"/>
      </g>
     </g>
    </g>
    <g id="ytick_27">
     <g id="line2d_87">
      <path d="M 662.020056 70.137 
L 816.713125 70.137 
" clip-path="url(#p68d58f74fe)" style="fill: none; stroke: #cccccc; stroke-width: 0.8; stroke-linecap: square"/>
     </g>
     <g id="line2d_88">
      <g>
       <use xlink:href="#m58a1212c3b" x="662.020056" y="70.137" style="fill: #262626; stroke: #262626; stroke-width: 0.8"/>
      </g>
     </g>
     <g id="text_51">
      <!-- 6 -->
      <g style="fill: #262626" transform="translate(647.385056 74.696063) scale(0.12 -0.12)">
       <use xlink:href="#DejaVuSans-36"/>
      </g>
     </g>
    </g>
    <g id="ytick_28">
     <g id="line2d_89">
      <path d="M 662.020056 44.496 
L 816.713125 44.496 
" clip-path="url(#p68d58f74fe)" style="fill: none; stroke: #cccccc; stroke-width: 0.8; stroke-linecap: square"/>
     </g>
     <g id="line2d_90">
      <g>
       <use xlink:href="#m58a1212c3b" x="662.020056" y="44.496" style="fill: #262626; stroke: #262626; stroke-width: 0.8"/>
      </g>
     </g>
     <g id="text_52">
      <!-- 8 -->
      <g style="fill: #262626" transform="translate(647.385056 49.055063) scale(0.12 -0.12)">
       <use xlink:href="#DejaVuSans-38"/>
      </g>
     </g>
    </g>
   </g>
   <g id="line2d_91">
    <path d="M 662.020056 151.3335 
L 673.481878 152.076952 
L 682.451999 152.867657 
L 689.927101 153.745757 
L 695.907182 154.665727 
L 700.890583 155.650819 
L 704.877303 156.643858 
L 708.365684 157.722282 
L 711.355725 158.860436 
L 713.847425 160.012634 
L 716.339125 161.414182 
L 718.332486 162.774499 
L 720.325846 164.419637 
L 721.820866 165.898802 
L 723.315887 167.653516 
L 724.810907 169.768684 
L 726.305927 172.368088 
L 727.302607 174.458946 
L 728.299288 176.926393 
L 729.295968 179.882242 
L 730.292648 183.487431 
L 731.289328 187.982333 
L 732.286008 193.742661 
L 733.282688 201.390333 
L 734.279369 212.034643 
L 734.777709 219.090713 
L 735.276049 227.866028 
L 735.774389 239.076113 
L 736.272729 253.8975 
L 736.272729 253.8975 
" clip-path="url(#p68d58f74fe)" style="fill: none; stroke: #0000ff; stroke-width: 2; stroke-linecap: square"/>
   </g>
   <g id="line2d_92">
    <path d="M 742.460452 40.2225 
L 742.958792 55.043887 
L 743.955472 75.029287 
L 744.952152 87.882351 
L 745.948832 96.843005 
L 746.945513 103.446884 
L 747.942193 108.51572 
L 748.938873 112.529008 
L 749.935553 115.785368 
L 750.932233 118.480489 
L 752.427254 121.751912 
L 753.922274 124.351316 
L 755.417294 126.466484 
L 756.912314 128.221198 
L 758.905675 130.143116 
L 760.899035 131.709192 
L 762.892395 133.009879 
L 765.384096 134.355461 
L 768.374136 135.66502 
L 771.364177 136.729833 
L 774.852558 137.74532 
L 778.839278 138.686098 
L 783.822679 139.624789 
L 789.80276 140.506362 
L 796.779521 141.302753 
L 805.251303 142.043048 
L 815.716445 142.730713 
L 816.713125 142.7865 
L 816.713125 142.7865 
" clip-path="url(#p68d58f74fe)" style="fill: none; stroke: #0000ff; stroke-width: 2; stroke-linecap: square"/>
   </g>
   <g id="line2d_93">
    <path d="M 739.36659 249.624 
L 739.36659 44.496 
" clip-path="url(#p68d58f74fe)" style="fill: none; stroke-dasharray: 4.44,1.92; stroke-dashoffset: 0; stroke: #d62728; stroke-opacity: 0.7; stroke-width: 1.2"/>
   </g>
   <g id="patch_21">
    <path d="M 662.020056 249.624 
L 662.020056 44.496 
" style="fill: none; stroke: #333333; stroke-width: 0.8; stroke-linejoin: miter; stroke-linecap: square"/>
   </g>
   <g id="patch_22">
    <path d="M 816.713125 249.624 
L 816.713125 44.496 
" style="fill: none; stroke: #333333; stroke-width: 0.8; stroke-linejoin: miter; stroke-linecap: square"/>
   </g>
   <g id="patch_23">
    <path d="M 662.020056 249.624 
L 816.713125 249.624 
" style="fill: none; stroke: #333333; stroke-width: 0.8; stroke-linejoin: miter; stroke-linecap: square"/>
   </g>
   <g id="patch_24">
    <path d="M 662.020056 44.496 
L 816.713125 44.496 
" style="fill: none; stroke: #333333; stroke-width: 0.8; stroke-linejoin: miter; stroke-linecap: square"/>
   </g>
   <g id="text_53">
    <!-- $f(x) \to \pm\infty$ -->
    <g style="fill: #555555" transform="translate(747.101244 70.137) scale(0.09 -0.09)">
     <defs>
      <path id="DejaVuSans-b1" d="M 2944 4013 
L 2944 2803 
L 4684 2803 
L 4684 2272 
L 2944 2272 
L 2944 1063 
L 2419 1063 
L 2419 2272 
L 678 2272 
L 678 2803 
L 2419 2803 
L 2419 4013 
L 2944 4013 
z
M 678 531 
L 4684 531 
L 4684 0 
L 678 0 
L 678 531 
z
" transform="scale(0.015625)"/>
      <path id="DejaVuSans-221e" d="M 2916 1091 
Q 2819 1203 2666 1466 
Q 2456 1091 2272 925 
Q 2041 725 1681 725 
Q 1259 725 981 1041 
Q 688 1372 688 1919 
Q 688 2444 981 2800 
Q 1244 3116 1688 3116 
Q 1916 3116 2084 3022 
Q 2281 2919 2416 2741 
Q 2541 2581 2666 2366 
Q 2875 2741 3059 2906 
Q 3291 3106 3650 3106 
Q 4072 3106 4350 2791 
Q 4644 2459 4644 1913 
Q 4644 1388 4350 1031 
Q 4088 716 3644 716 
Q 3416 716 3247 809 
Q 3078 894 2916 1091 
z
M 1647 1134 
Q 2163 1134 2472 1884 
Q 2075 2703 1647 2703 
Q 1334 2703 1175 2478 
Q 1003 2238 1003 1919 
Q 1003 1569 1175 1353 
Q 1350 1134 1647 1134 
z
M 3684 2697 
Q 3219 2697 2859 1947 
Q 3253 1128 3684 1128 
Q 3997 1128 4156 1353 
Q 4328 1594 4328 1913 
Q 4328 2263 4156 2478 
Q 3981 2697 3684 2697 
z
" transform="scale(0.015625)"/>
     </defs>
     <use xlink:href="#DejaVuSans-Oblique-66" transform="translate(0 0.015625)"/>
     <use xlink:href="#DejaVuSans-28" transform="translate(35.205078 0.015625)"/>
     <use xlink:href="#DejaVuSans-Oblique-78" transform="translate(74.21875 0.015625)"/>
     <use xlink:href="#DejaVuSans-29" transform="translate(133.398438 0.015625)"/>
     <use xlink:href="#DejaVuSans-2192" transform="translate(191.894531 0.015625)"/>
     <use xlink:href="#DejaVuSans-b1" transform="translate(314.648438 0.015625)"/>
     <use xlink:href="#DejaVuSans-221e" transform="translate(417.919922 0.015625)"/>
    </g>
   </g>
   <g id="text_54">
    <!-- $f(x) = 1/x$ -->
    <g style="fill: #555555" transform="translate(674.911145 166.29075) scale(0.09 -0.09)">
     <defs>
      <path id="DejaVuSans-2f" d="M 1625 4666 
L 2156 4666 
L 531 -594 
L 0 -594 
L 1625 4666 
z
" transform="scale(0.015625)"/>
     </defs>
     <use xlink:href="#DejaVuSans-Oblique-66" transform="translate(0 0.015625)"/>
     <use xlink:href="#DejaVuSans-28" transform="translate(35.205078 0.015625)"/>
     <use xlink:href="#DejaVuSans-Oblique-78" transform="translate(74.21875 0.015625)"/>
     <use xlink:href="#DejaVuSans-29" transform="translate(133.398438 0.015625)"/>
     <use xlink:href="#DejaVuSans-3d" transform="translate(191.894531 0.015625)"/>
     <use xlink:href="#DejaVuSans-31" transform="translate(295.166016 0.015625)"/>
     <use xlink:href="#DejaVuSans-2f" transform="translate(358.789062 0.015625)"/>
     <use xlink:href="#DejaVuSans-Oblique-78" transform="translate(392.480469 0.015625)"/>
    </g>
   </g>
   <g id="text_55">
    <!-- Infinite Discontinuity -->
    <g style="fill: #262626" transform="translate(673.928622 38.496) scale(0.11 -0.11)">
     <defs>
      <path id="DejaVuSans-Bold-49" d="M 588 4666 
L 1791 4666 
L 1791 0 
L 588 0 
L 588 4666 
z
" transform="scale(0.015625)"/>
      <path id="DejaVuSans-Bold-66" d="M 2841 4863 
L 2841 4128 
L 2222 4128 
Q 1984 4128 1890 4042 
Q 1797 3956 1797 3744 
L 1797 3500 
L 2753 3500 
L 2753 2700 
L 1797 2700 
L 1797 0 
L 678 0 
L 678 2700 
L 122 2700 
L 122 3500 
L 678 3500 
L 678 3744 
Q 678 4316 997 4589 
Q 1316 4863 1984 4863 
L 2841 4863 
z
" transform="scale(0.015625)"/>
     </defs>
     <use xlink:href="#DejaVuSans-Bold-49"/>
     <use xlink:href="#DejaVuSans-Bold-6e" transform="translate(37.207031 0)"/>
     <use xlink:href="#DejaVuSans-Bold-66" transform="translate(108.398438 0)"/>
     <use xlink:href="#DejaVuSans-Bold-69" transform="translate(151.904297 0)"/>
     <use xlink:href="#DejaVuSans-Bold-6e" transform="translate(186.181641 0)"/>
     <use xlink:href="#DejaVuSans-Bold-69" transform="translate(257.373047 0)"/>
     <use xlink:href="#DejaVuSans-Bold-74" transform="translate(291.650391 0)"/>
     <use xlink:href="#DejaVuSans-Bold-65" transform="translate(339.453125 0)"/>
     <use xlink:href="#DejaVuSans-Bold-20" transform="translate(407.275391 0)"/>
     <use xlink:href="#DejaVuSans-Bold-44" transform="translate(442.089844 0)"/>
     <use xlink:href="#DejaVuSans-Bold-69" transform="translate(525.097656 0)"/>
     <use xlink:href="#DejaVuSans-Bold-73" transform="translate(559.375 0)"/>
     <use xlink:href="#DejaVuSans-Bold-63" transform="translate(618.896484 0)"/>
     <use xlink:href="#DejaVuSans-Bold-6f" transform="translate(678.173828 0)"/>
     <use xlink:href="#DejaVuSans-Bold-6e" transform="translate(746.875 0)"/>
     <use xlink:href="#DejaVuSans-Bold-74" transform="translate(818.066406 0)"/>
     <use xlink:href="#DejaVuSans-Bold-69" transform="translate(865.869141 0)"/>
     <use xlink:href="#DejaVuSans-Bold-6e" transform="translate(900.146484 0)"/>
     <use xlink:href="#DejaVuSans-Bold-75" transform="translate(971.337891 0)"/>
     <use xlink:href="#DejaVuSans-Bold-69" transform="translate(1042.529297 0)"/>
     <use xlink:href="#DejaVuSans-Bold-74" transform="translate(1076.806641 0)"/>
     <use xlink:href="#DejaVuSans-Bold-79" transform="translate(1124.609375 0)"/>
    </g>
   </g>
  </g>
  <g id="text_56">
   <!-- Types of Continuity and Discontinuity -->
   <g style="fill: #262626" transform="translate(276.047266 17.077969) scale(0.13 -0.13)">
    <defs>
     <path id="DejaVuSans-Bold-54" d="M 31 4666 
L 4331 4666 
L 4331 3756 
L 2784 3756 
L 2784 0 
L 1581 0 
L 1581 3756 
L 31 3756 
L 31 4666 
z
" transform="scale(0.015625)"/>
     <path id="DejaVuSans-Bold-64" d="M 2919 2988 
L 2919 4863 
L 4044 4863 
L 4044 0 
L 2919 0 
L 2919 506 
Q 2688 197 2409 53 
Q 2131 -91 1766 -91 
Q 1119 -91 703 423 
Q 288 938 288 1747 
Q 288 2556 703 3070 
Q 1119 3584 1766 3584 
Q 2128 3584 2408 3439 
Q 2688 3294 2919 2988 
z
M 2181 722 
Q 2541 722 2730 984 
Q 2919 1247 2919 1747 
Q 2919 2247 2730 2509 
Q 2541 2772 2181 2772 
Q 1825 2772 1636 2509 
Q 1447 2247 1447 1747 
Q 1447 1247 1636 984 
Q 1825 722 2181 722 
z
" transform="scale(0.015625)"/>
    </defs>
    <use xlink:href="#DejaVuSans-Bold-54"/>
    <use xlink:href="#DejaVuSans-Bold-79" transform="translate(56.337891 0)"/>
    <use xlink:href="#DejaVuSans-Bold-70" transform="translate(121.523438 0)"/>
    <use xlink:href="#DejaVuSans-Bold-65" transform="translate(193.105469 0)"/>
    <use xlink:href="#DejaVuSans-Bold-73" transform="translate(260.927734 0)"/>
    <use xlink:href="#DejaVuSans-Bold-20" transform="translate(320.449219 0)"/>
    <use xlink:href="#DejaVuSans-Bold-6f" transform="translate(355.263672 0)"/>
    <use xlink:href="#DejaVuSans-Bold-66" transform="translate(423.964844 0)"/>
    <use xlink:href="#DejaVuSans-Bold-20" transform="translate(467.470703 0)"/>
    <use xlink:href="#DejaVuSans-Bold-43" transform="translate(502.285156 0)"/>
    <use xlink:href="#DejaVuSans-Bold-6f" transform="translate(575.673828 0)"/>
    <use xlink:href="#DejaVuSans-Bold-6e" transform="translate(644.375 0)"/>
    <use xlink:href="#DejaVuSans-Bold-74" transform="translate(715.566406 0)"/>
    <use xlink:href="#DejaVuSans-Bold-69" transform="translate(763.369141 0)"/>
    <use xlink:href="#DejaVuSans-Bold-6e" transform="translate(797.646484 0)"/>
    <use xlink:href="#DejaVuSans-Bold-75" transform="translate(868.837891 0)"/>
    <use xlink:href="#DejaVuSans-Bold-69" transform="translate(940.029297 0)"/>
    <use xlink:href="#DejaVuSans-Bold-74" transform="translate(974.306641 0)"/>
    <use xlink:href="#DejaVuSans-Bold-79" transform="translate(1022.109375 0)"/>
    <use xlink:href="#DejaVuSans-Bold-20" transform="translate(1087.294922 0)"/>
    <use xlink:href="#DejaVuSans-Bold-61" transform="translate(1122.109375 0)"/>
    <use xlink:href="#DejaVuSans-Bold-6e" transform="translate(1189.589844 0)"/>
    <use xlink:href="#DejaVuSans-Bold-64" transform="translate(1260.78125 0)"/>
    <use xlink:href="#DejaVuSans-Bold-20" transform="translate(1332.363281 0)"/>
    <use xlink:href="#DejaVuSans-Bold-44" transform="translate(1367.177734 0)"/>
    <use xlink:href="#DejaVuSans-Bold-69" transform="translate(1450.185547 0)"/>
    <use xlink:href="#DejaVuSans-Bold-73" transform="translate(1484.462891 0)"/>
    <use xlink:href="#DejaVuSans-Bold-63" transform="translate(1543.984375 0)"/>
    <use xlink:href="#DejaVuSans-Bold-6f" transform="translate(1603.261719 0)"/>
    <use xlink:href="#DejaVuSans-Bold-6e" transform="translate(1671.962891 0)"/>
    <use xlink:href="#DejaVuSans-Bold-74" transform="translate(1743.154297 0)"/>
    <use xlink:href="#DejaVuSans-Bold-69" transform="translate(1790.957031 0)"/>
    <use xlink:href="#DejaVuSans-Bold-6e" transform="translate(1825.234375 0)"/>
    <use xlink:href="#DejaVuSans-Bold-75" transform="translate(1896.425781 0)"/>
    <use xlink:href="#DejaVuSans-Bold-69" transform="translate(1967.617188 0)"/>
    <use xlink:href="#DejaVuSans-Bold-74" transform="translate(2001.894531 0)"/>
    <use xlink:href="#DejaVuSans-Bold-79" transform="translate(2049.697266 0)"/>
   </g>
  </g>
 </g>
 <defs>
  <clipPath id="p8bddc41858">
   <rect x="35.513125" y="44.496" width="154.693069" height="205.128"/>
  </clipPath>
  <clipPath id="p4d41aa7de7">
   <rect x="244.348769" y="44.496" width="154.693069" height="205.128"/>
  </clipPath>
  <clipPath id="pa43d357942">
   <rect x="453.184412" y="44.496" width="154.693069" height="205.128"/>
  </clipPath>
  <clipPath id="p68d58f74fe">
   <rect x="662.020056" y="44.496" width="154.693069" height="205.128"/>
  </clipPath>
 </defs>
</svg>
