<?xml version="1.0" encoding="utf-8" standalone="no"?>
<!DOCTYPE svg PUBLIC "-//W3C//DTD SVG 1.1//EN"
  "http://www.w3.org/Graphics/SVG/1.1/DTD/svg11.dtd">
<svg xmlns:xlink="http://www.w3.org/1999/xlink" width="483.714062pt" height="376.697125pt" viewBox="0 0 483.714062 376.697125" xmlns="http://www.w3.org/2000/svg" version="1.1">
 <metadata>
  <rdf:RDF xmlns:dc="http://purl.org/dc/elements/1.1/" xmlns:cc="http://creativecommons.org/ns#" xmlns:rdf="http://www.w3.org/1999/02/22-rdf-syntax-ns#">
   <cc:Work>
    <dc:type rdf:resource="http://purl.org/dc/dcmitype/StillImage"/>
    <dc:date>2026-03-15T19:17:04.273103</dc:date>
    <dc:format>image/svg+xml</dc:format>
    <dc:creator>
     <cc:Agent>
      <dc:title>Matplotlib v3.10.8, https://matplotlib.org/</dc:title>
     </cc:Agent>
    </dc:creator>
   </cc:Work>
  </rdf:RDF>
 </metadata>
 <defs>
  <style type="text/css">*{stroke-linejoin: round; stroke-linecap: butt}</style>
 </defs>
 <g id="figure_1">
  <g id="patch_1">
   <path d="M 0 376.697125 
L 483.714062 376.697125 
L 483.714062 0 
L 0 0 
z
" style="fill: #ffffff"/>
  </g>
  <g id="axes_1">
   <g id="patch_2">
    <path d="M 48.472188 334.301812 
L 466.972188 334.301812 
L 466.972188 23.837812 
L 48.472188 23.837812 
z
" style="fill: #ffffff"/>
   </g>
   <g id="matplotlib.axis_1">
    <g id="xtick_1">
     <g id="line2d_1">
      <path d="M 77.669862 334.301812 
L 77.669862 23.837812 
" clip-path="url(#p6087b3ea52)" style="fill: none; stroke: #cccccc; stroke-width: 0.8; stroke-linecap: square"/>
     </g>
     <g id="line2d_2">
      <defs>
       <path id="m8d18c67997" d="M 0 0 
L 0 3.5 
" style="stroke: #262626; stroke-width: 0.8"/>
      </defs>
      <g>
       <use xlink:href="#m8d18c67997" x="77.669862" y="334.301812" style="fill: #262626; stroke: #262626; stroke-width: 0.8"/>
      </g>
     </g>
     <g id="text_1">
      <!-- 0.0 -->
      <g style="fill: #262626" transform="translate(68.127987 350.419937) scale(0.12 -0.12)">
       <defs>
        <path id="DejaVuSans-30" d="M 2034 4250 
Q 1547 4250 1301 3770 
Q 1056 3291 1056 2328 
Q 1056 1369 1301 889 
Q 1547 409 2034 409 
Q 2525 409 2770 889 
Q 3016 1369 3016 2328 
Q 3016 3291 2770 3770 
Q 2525 4250 2034 4250 
z
M 2034 4750 
Q 2819 4750 3233 4129 
Q 3647 3509 3647 2328 
Q 3647 1150 3233 529 
Q 2819 -91 2034 -91 
Q 1250 -91 836 529 
Q 422 1150 422 2328 
Q 422 3509 836 4129 
Q 1250 4750 2034 4750 
z
" transform="scale(0.015625)"/>
        <path id="DejaVuSans-2e" d="M 684 794 
L 1344 794 
L 1344 0 
L 684 0 
L 684 794 
z
" transform="scale(0.015625)"/>
       </defs>
       <use xlink:href="#DejaVuSans-30"/>
       <use xlink:href="#DejaVuSans-2e" transform="translate(63.623047 0)"/>
       <use xlink:href="#DejaVuSans-30" transform="translate(95.410156 0)"/>
      </g>
     </g>
    </g>
    <g id="xtick_2">
     <g id="line2d_3">
      <path d="M 126.332653 334.301812 
L 126.332653 23.837812 
" clip-path="url(#p6087b3ea52)" style="fill: none; stroke: #cccccc; stroke-width: 0.8; stroke-linecap: square"/>
     </g>
     <g id="line2d_4">
      <g>
       <use xlink:href="#m8d18c67997" x="126.332653" y="334.301812" style="fill: #262626; stroke: #262626; stroke-width: 0.8"/>
      </g>
     </g>
     <g id="text_2">
      <!-- 0.5 -->
      <g style="fill: #262626" transform="translate(116.790778 350.419937) scale(0.12 -0.12)">
       <defs>
        <path id="DejaVuSans-35" d="M 691 4666 
L 3169 4666 
L 3169 4134 
L 1269 4134 
L 1269 2991 
Q 1406 3038 1543 3061 
Q 1681 3084 1819 3084 
Q 2600 3084 3056 2656 
Q 3513 2228 3513 1497 
Q 3513 744 3044 326 
Q 2575 -91 1722 -91 
Q 1428 -91 1123 -41 
Q 819 9 494 109 
L 494 744 
Q 775 591 1075 516 
Q 1375 441 1709 441 
Q 2250 441 2565 725 
Q 2881 1009 2881 1497 
Q 2881 1984 2565 2268 
Q 2250 2553 1709 2553 
Q 1456 2553 1204 2497 
Q 953 2441 691 2322 
L 691 4666 
z
" transform="scale(0.015625)"/>
       </defs>
       <use xlink:href="#DejaVuSans-30"/>
       <use xlink:href="#DejaVuSans-2e" transform="translate(63.623047 0)"/>
       <use xlink:href="#DejaVuSans-35" transform="translate(95.410156 0)"/>
      </g>
     </g>
    </g>
    <g id="xtick_3">
     <g id="line2d_5">
      <path d="M 174.995443 334.301812 
L 174.995443 23.837812 
" clip-path="url(#p6087b3ea52)" style="fill: none; stroke: #cccccc; stroke-width: 0.8; stroke-linecap: square"/>
     </g>
     <g id="line2d_6">
      <g>
       <use xlink:href="#m8d18c67997" x="174.995443" y="334.301812" style="fill: #262626; stroke: #262626; stroke-width: 0.8"/>
      </g>
     </g>
     <g id="text_3">
      <!-- 1.0 -->
      <g style="fill: #262626" transform="translate(165.453568 350.419937) scale(0.12 -0.12)">
       <defs>
        <path id="DejaVuSans-31" d="M 794 531 
L 1825 531 
L 1825 4091 
L 703 3866 
L 703 4441 
L 1819 4666 
L 2450 4666 
L 2450 531 
L 3481 531 
L 3481 0 
L 794 0 
L 794 531 
z
" transform="scale(0.015625)"/>
       </defs>
       <use xlink:href="#DejaVuSans-31"/>
       <use xlink:href="#DejaVuSans-2e" transform="translate(63.623047 0)"/>
       <use xlink:href="#DejaVuSans-30" transform="translate(95.410156 0)"/>
      </g>
     </g>
    </g>
    <g id="xtick_4">
     <g id="line2d_7">
      <path d="M 223.658234 334.301812 
L 223.658234 23.837812 
" clip-path="url(#p6087b3ea52)" style="fill: none; stroke: #cccccc; stroke-width: 0.8; stroke-linecap: square"/>
     </g>
     <g id="line2d_8">
      <g>
       <use xlink:href="#m8d18c67997" x="223.658234" y="334.301812" style="fill: #262626; stroke: #262626; stroke-width: 0.8"/>
      </g>
     </g>
     <g id="text_4">
      <!-- 1.5 -->
      <g style="fill: #262626" transform="translate(214.116359 350.419937) scale(0.12 -0.12)">
       <use xlink:href="#DejaVuSans-31"/>
       <use xlink:href="#DejaVuSans-2e" transform="translate(63.623047 0)"/>
       <use xlink:href="#DejaVuSans-35" transform="translate(95.410156 0)"/>
      </g>
     </g>
    </g>
    <g id="xtick_5">
     <g id="line2d_9">
      <path d="M 272.321025 334.301812 
L 272.321025 23.837812 
" clip-path="url(#p6087b3ea52)" style="fill: none; stroke: #cccccc; stroke-width: 0.8; stroke-linecap: square"/>
     </g>
     <g id="line2d_10">
      <g>
       <use xlink:href="#m8d18c67997" x="272.321025" y="334.301812" style="fill: #262626; stroke: #262626; stroke-width: 0.8"/>
      </g>
     </g>
     <g id="text_5">
      <!-- 2.0 -->
      <g style="fill: #262626" transform="translate(262.77915 350.419937) scale(0.12 -0.12)">
       <defs>
        <path id="DejaVuSans-32" d="M 1228 531 
L 3431 531 
L 3431 0 
L 469 0 
L 469 531 
Q 828 903 1448 1529 
Q 2069 2156 2228 2338 
Q 2531 2678 2651 2914 
Q 2772 3150 2772 3378 
Q 2772 3750 2511 3984 
Q 2250 4219 1831 4219 
Q 1534 4219 1204 4116 
Q 875 4013 500 3803 
L 500 4441 
Q 881 4594 1212 4672 
Q 1544 4750 1819 4750 
Q 2544 4750 2975 4387 
Q 3406 4025 3406 3419 
Q 3406 3131 3298 2873 
Q 3191 2616 2906 2266 
Q 2828 2175 2409 1742 
Q 1991 1309 1228 531 
z
" transform="scale(0.015625)"/>
       </defs>
       <use xlink:href="#DejaVuSans-32"/>
       <use xlink:href="#DejaVuSans-2e" transform="translate(63.623047 0)"/>
       <use xlink:href="#DejaVuSans-30" transform="translate(95.410156 0)"/>
      </g>
     </g>
    </g>
    <g id="xtick_6">
     <g id="line2d_11">
      <path d="M 320.983815 334.301812 
L 320.983815 23.837812 
" clip-path="url(#p6087b3ea52)" style="fill: none; stroke: #cccccc; stroke-width: 0.8; stroke-linecap: square"/>
     </g>
     <g id="line2d_12">
      <g>
       <use xlink:href="#m8d18c67997" x="320.983815" y="334.301812" style="fill: #262626; stroke: #262626; stroke-width: 0.8"/>
      </g>
     </g>
     <g id="text_6">
      <!-- 2.5 -->
      <g style="fill: #262626" transform="translate(311.44194 350.419937) scale(0.12 -0.12)">
       <use xlink:href="#DejaVuSans-32"/>
       <use xlink:href="#DejaVuSans-2e" transform="translate(63.623047 0)"/>
       <use xlink:href="#DejaVuSans-35" transform="translate(95.410156 0)"/>
      </g>
     </g>
    </g>
    <g id="xtick_7">
     <g id="line2d_13">
      <path d="M 369.646606 334.301812 
L 369.646606 23.837812 
" clip-path="url(#p6087b3ea52)" style="fill: none; stroke: #cccccc; stroke-width: 0.8; stroke-linecap: square"/>
     </g>
     <g id="line2d_14">
      <g>
       <use xlink:href="#m8d18c67997" x="369.646606" y="334.301812" style="fill: #262626; stroke: #262626; stroke-width: 0.8"/>
      </g>
     </g>
     <g id="text_7">
      <!-- 3.0 -->
      <g style="fill: #262626" transform="translate(360.104731 350.419937) scale(0.12 -0.12)">
       <defs>
        <path id="DejaVuSans-33" d="M 2597 2516 
Q 3050 2419 3304 2112 
Q 3559 1806 3559 1356 
Q 3559 666 3084 287 
Q 2609 -91 1734 -91 
Q 1441 -91 1130 -33 
Q 819 25 488 141 
L 488 750 
Q 750 597 1062 519 
Q 1375 441 1716 441 
Q 2309 441 2620 675 
Q 2931 909 2931 1356 
Q 2931 1769 2642 2001 
Q 2353 2234 1838 2234 
L 1294 2234 
L 1294 2753 
L 1863 2753 
Q 2328 2753 2575 2939 
Q 2822 3125 2822 3475 
Q 2822 3834 2567 4026 
Q 2313 4219 1838 4219 
Q 1578 4219 1281 4162 
Q 984 4106 628 3988 
L 628 4550 
Q 988 4650 1302 4700 
Q 1616 4750 1894 4750 
Q 2613 4750 3031 4423 
Q 3450 4097 3450 3541 
Q 3450 3153 3228 2886 
Q 3006 2619 2597 2516 
z
" transform="scale(0.015625)"/>
       </defs>
       <use xlink:href="#DejaVuSans-33"/>
       <use xlink:href="#DejaVuSans-2e" transform="translate(63.623047 0)"/>
       <use xlink:href="#DejaVuSans-30" transform="translate(95.410156 0)"/>
      </g>
     </g>
    </g>
    <g id="xtick_8">
     <g id="line2d_15">
      <path d="M 418.309397 334.301812 
L 418.309397 23.837812 
" clip-path="url(#p6087b3ea52)" style="fill: none; stroke: #cccccc; stroke-width: 0.8; stroke-linecap: square"/>
     </g>
     <g id="line2d_16">
      <g>
       <use xlink:href="#m8d18c67997" x="418.309397" y="334.301812" style="fill: #262626; stroke: #262626; stroke-width: 0.8"/>
      </g>
     </g>
     <g id="text_8">
      <!-- 3.5 -->
      <g style="fill: #262626" transform="translate(408.767522 350.419937) scale(0.12 -0.12)">
       <use xlink:href="#DejaVuSans-33"/>
       <use xlink:href="#DejaVuSans-2e" transform="translate(63.623047 0)"/>
       <use xlink:href="#DejaVuSans-35" transform="translate(95.410156 0)"/>
      </g>
     </g>
    </g>
    <g id="xtick_9">
     <g id="line2d_17">
      <path d="M 466.972188 334.301812 
L 466.972188 23.837812 
" clip-path="url(#p6087b3ea52)" style="fill: none; stroke: #cccccc; stroke-width: 0.8; stroke-linecap: square"/>
     </g>
     <g id="line2d_18">
      <g>
       <use xlink:href="#m8d18c67997" x="466.972188" y="334.301812" style="fill: #262626; stroke: #262626; stroke-width: 0.8"/>
      </g>
     </g>
     <g id="text_9">
      <!-- 4.0 -->
      <g style="fill: #262626" transform="translate(457.430313 350.419937) scale(0.12 -0.12)">
       <defs>
        <path id="DejaVuSans-34" d="M 2419 4116 
L 825 1625 
L 2419 1625 
L 2419 4116 
z
M 2253 4666 
L 3047 4666 
L 3047 1625 
L 3713 1625 
L 3713 1100 
L 3047 1100 
L 3047 0 
L 2419 0 
L 2419 1100 
L 313 1100 
L 313 1709 
L 2253 4666 
z
" transform="scale(0.015625)"/>
       </defs>
       <use xlink:href="#DejaVuSans-34"/>
       <use xlink:href="#DejaVuSans-2e" transform="translate(63.623047 0)"/>
       <use xlink:href="#DejaVuSans-30" transform="translate(95.410156 0)"/>
      </g>
     </g>
    </g>
    <g id="text_10">
     <!-- $x$ -->
     <g style="fill: #262626" transform="translate(253.822188 366.793531) scale(0.13 -0.13)">
      <defs>
       <path id="DejaVuSans-Oblique-78" d="M 3841 3500 
L 2234 1784 
L 3219 0 
L 2559 0 
L 1819 1388 
L 531 0 
L -166 0 
L 1556 1844 
L 641 3500 
L 1300 3500 
L 1972 2234 
L 3144 3500 
L 3841 3500 
z
" transform="scale(0.015625)"/>
      </defs>
      <use xlink:href="#DejaVuSans-Oblique-78" transform="translate(0 0.3125)"/>
     </g>
    </g>
   </g>
   <g id="matplotlib.axis_2">
    <g id="ytick_1">
     <g id="line2d_19">
      <path d="M 48.472188 334.301812 
L 466.972188 334.301812 
" clip-path="url(#p6087b3ea52)" style="fill: none; stroke: #cccccc; stroke-width: 0.8; stroke-linecap: square"/>
     </g>
     <g id="line2d_20">
      <defs>
       <path id="m2cea5893ea" d="M 0 0 
L -3.5 0 
" style="stroke: #262626; stroke-width: 0.8"/>
      </defs>
      <g>
       <use xlink:href="#m2cea5893ea" x="48.472188" y="334.301812" style="fill: #262626; stroke: #262626; stroke-width: 0.8"/>
      </g>
     </g>
     <g id="text_11">
      <!-- −2 -->
      <g style="fill: #262626" transform="translate(23.781563 338.860875) scale(0.12 -0.12)">
       <defs>
        <path id="DejaVuSans-2212" d="M 678 2272 
L 4684 2272 
L 4684 1741 
L 678 1741 
L 678 2272 
z
" transform="scale(0.015625)"/>
       </defs>
       <use xlink:href="#DejaVuSans-2212"/>
       <use xlink:href="#DejaVuSans-32" transform="translate(83.789062 0)"/>
      </g>
     </g>
    </g>
    <g id="ytick_2">
     <g id="line2d_21">
      <path d="M 48.472188 299.805812 
L 466.972188 299.805812 
" clip-path="url(#p6087b3ea52)" style="fill: none; stroke: #cccccc; stroke-width: 0.8; stroke-linecap: square"/>
     </g>
     <g id="line2d_22">
      <g>
       <use xlink:href="#m2cea5893ea" x="48.472188" y="299.805812" style="fill: #262626; stroke: #262626; stroke-width: 0.8"/>
      </g>
     </g>
     <g id="text_12">
      <!-- 0 -->
      <g style="fill: #262626" transform="translate(33.837188 304.364875) scale(0.12 -0.12)">
       <use xlink:href="#DejaVuSans-30"/>
      </g>
     </g>
    </g>
    <g id="ytick_3">
     <g id="line2d_23">
      <path d="M 48.472188 265.309812 
L 466.972188 265.309812 
" clip-path="url(#p6087b3ea52)" style="fill: none; stroke: #cccccc; stroke-width: 0.8; stroke-linecap: square"/>
     </g>
     <g id="line2d_24">
      <g>
       <use xlink:href="#m2cea5893ea" x="48.472188" y="265.309812" style="fill: #262626; stroke: #262626; stroke-width: 0.8"/>
      </g>
     </g>
     <g id="text_13">
      <!-- 2 -->
      <g style="fill: #262626" transform="translate(33.837188 269.868875) scale(0.12 -0.12)">
       <use xlink:href="#DejaVuSans-32"/>
      </g>
     </g>
    </g>
    <g id="ytick_4">
     <g id="line2d_25">
      <path d="M 48.472188 230.813812 
L 466.972188 230.813812 
" clip-path="url(#p6087b3ea52)" style="fill: none; stroke: #cccccc; stroke-width: 0.8; stroke-linecap: square"/>
     </g>
     <g id="line2d_26">
      <g>
       <use xlink:href="#m2cea5893ea" x="48.472188" y="230.813812" style="fill: #262626; stroke: #262626; stroke-width: 0.8"/>
      </g>
     </g>
     <g id="text_14">
      <!-- 4 -->
      <g style="fill: #262626" transform="translate(33.837188 235.372875) scale(0.12 -0.12)">
       <use xlink:href="#DejaVuSans-34"/>
      </g>
     </g>
    </g>
    <g id="ytick_5">
     <g id="line2d_27">
      <path d="M 48.472188 196.317812 
L 466.972188 196.317812 
" clip-path="url(#p6087b3ea52)" style="fill: none; stroke: #cccccc; stroke-width: 0.8; stroke-linecap: square"/>
     </g>
     <g id="line2d_28">
      <g>
       <use xlink:href="#m2cea5893ea" x="48.472188" y="196.317812" style="fill: #262626; stroke: #262626; stroke-width: 0.8"/>
      </g>
     </g>
     <g id="text_15">
      <!-- 6 -->
      <g style="fill: #262626" transform="translate(33.837188 200.876875) scale(0.12 -0.12)">
       <defs>
        <path id="DejaVuSans-36" d="M 2113 2584 
Q 1688 2584 1439 2293 
Q 1191 2003 1191 1497 
Q 1191 994 1439 701 
Q 1688 409 2113 409 
Q 2538 409 2786 701 
Q 3034 994 3034 1497 
Q 3034 2003 2786 2293 
Q 2538 2584 2113 2584 
z
M 3366 4563 
L 3366 3988 
Q 3128 4100 2886 4159 
Q 2644 4219 2406 4219 
Q 1781 4219 1451 3797 
Q 1122 3375 1075 2522 
Q 1259 2794 1537 2939 
Q 1816 3084 2150 3084 
Q 2853 3084 3261 2657 
Q 3669 2231 3669 1497 
Q 3669 778 3244 343 
Q 2819 -91 2113 -91 
Q 1303 -91 875 529 
Q 447 1150 447 2328 
Q 447 3434 972 4092 
Q 1497 4750 2381 4750 
Q 2619 4750 2861 4703 
Q 3103 4656 3366 4563 
z
" transform="scale(0.015625)"/>
       </defs>
       <use xlink:href="#DejaVuSans-36"/>
      </g>
     </g>
    </g>
    <g id="ytick_6">
     <g id="line2d_29">
      <path d="M 48.472188 161.821812 
L 466.972188 161.821812 
" clip-path="url(#p6087b3ea52)" style="fill: none; stroke: #cccccc; stroke-width: 0.8; stroke-linecap: square"/>
     </g>
     <g id="line2d_30">
      <g>
       <use xlink:href="#m2cea5893ea" x="48.472188" y="161.821812" style="fill: #262626; stroke: #262626; stroke-width: 0.8"/>
      </g>
     </g>
     <g id="text_16">
      <!-- 8 -->
      <g style="fill: #262626" transform="translate(33.837188 166.380875) scale(0.12 -0.12)">
       <defs>
        <path id="DejaVuSans-38" d="M 2034 2216 
Q 1584 2216 1326 1975 
Q 1069 1734 1069 1313 
Q 1069 891 1326 650 
Q 1584 409 2034 409 
Q 2484 409 2743 651 
Q 3003 894 3003 1313 
Q 3003 1734 2745 1975 
Q 2488 2216 2034 2216 
z
M 1403 2484 
Q 997 2584 770 2862 
Q 544 3141 544 3541 
Q 544 4100 942 4425 
Q 1341 4750 2034 4750 
Q 2731 4750 3128 4425 
Q 3525 4100 3525 3541 
Q 3525 3141 3298 2862 
Q 3072 2584 2669 2484 
Q 3125 2378 3379 2068 
Q 3634 1759 3634 1313 
Q 3634 634 3220 271 
Q 2806 -91 2034 -91 
Q 1263 -91 848 271 
Q 434 634 434 1313 
Q 434 1759 690 2068 
Q 947 2378 1403 2484 
z
M 1172 3481 
Q 1172 3119 1398 2916 
Q 1625 2713 2034 2713 
Q 2441 2713 2670 2916 
Q 2900 3119 2900 3481 
Q 2900 3844 2670 4047 
Q 2441 4250 2034 4250 
Q 1625 4250 1398 4047 
Q 1172 3844 1172 3481 
z
" transform="scale(0.015625)"/>
       </defs>
       <use xlink:href="#DejaVuSans-38"/>
      </g>
     </g>
    </g>
    <g id="ytick_7">
     <g id="line2d_31">
      <path d="M 48.472188 127.325812 
L 466.972188 127.325812 
" clip-path="url(#p6087b3ea52)" style="fill: none; stroke: #cccccc; stroke-width: 0.8; stroke-linecap: square"/>
     </g>
     <g id="line2d_32">
      <g>
       <use xlink:href="#m2cea5893ea" x="48.472188" y="127.325812" style="fill: #262626; stroke: #262626; stroke-width: 0.8"/>
      </g>
     </g>
     <g id="text_17">
      <!-- 10 -->
      <g style="fill: #262626" transform="translate(26.202188 131.884875) scale(0.12 -0.12)">
       <use xlink:href="#DejaVuSans-31"/>
       <use xlink:href="#DejaVuSans-30" transform="translate(63.623047 0)"/>
      </g>
     </g>
    </g>
    <g id="ytick_8">
     <g id="line2d_33">
      <path d="M 48.472188 92.829812 
L 466.972188 92.829812 
" clip-path="url(#p6087b3ea52)" style="fill: none; stroke: #cccccc; stroke-width: 0.8; stroke-linecap: square"/>
     </g>
     <g id="line2d_34">
      <g>
       <use xlink:href="#m2cea5893ea" x="48.472188" y="92.829812" style="fill: #262626; stroke: #262626; stroke-width: 0.8"/>
      </g>
     </g>
     <g id="text_18">
      <!-- 12 -->
      <g style="fill: #262626" transform="translate(26.202188 97.388875) scale(0.12 -0.12)">
       <use xlink:href="#DejaVuSans-31"/>
       <use xlink:href="#DejaVuSans-32" transform="translate(63.623047 0)"/>
      </g>
     </g>
    </g>
    <g id="ytick_9">
     <g id="line2d_35">
      <path d="M 48.472188 58.333812 
L 466.972188 58.333812 
" clip-path="url(#p6087b3ea52)" style="fill: none; stroke: #cccccc; stroke-width: 0.8; stroke-linecap: square"/>
     </g>
     <g id="line2d_36">
      <g>
       <use xlink:href="#m2cea5893ea" x="48.472188" y="58.333812" style="fill: #262626; stroke: #262626; stroke-width: 0.8"/>
      </g>
     </g>
     <g id="text_19">
      <!-- 14 -->
      <g style="fill: #262626" transform="translate(26.202188 62.892875) scale(0.12 -0.12)">
       <use xlink:href="#DejaVuSans-31"/>
       <use xlink:href="#DejaVuSans-34" transform="translate(63.623047 0)"/>
      </g>
     </g>
    </g>
    <g id="ytick_10">
     <g id="line2d_37">
      <path d="M 48.472188 23.837812 
L 466.972188 23.837812 
" clip-path="url(#p6087b3ea52)" style="fill: none; stroke: #cccccc; stroke-width: 0.8; stroke-linecap: square"/>
     </g>
     <g id="line2d_38">
      <g>
       <use xlink:href="#m2cea5893ea" x="48.472188" y="23.837812" style="fill: #262626; stroke: #262626; stroke-width: 0.8"/>
      </g>
     </g>
     <g id="text_20">
      <!-- 16 -->
      <g style="fill: #262626" transform="translate(26.202188 28.396875) scale(0.12 -0.12)">
       <use xlink:href="#DejaVuSans-31"/>
       <use xlink:href="#DejaVuSans-36" transform="translate(63.623047 0)"/>
      </g>
     </g>
    </g>
    <g id="text_21">
     <!-- $y$ -->
     <g style="fill: #262626" transform="translate(17.051563 182.969812) rotate(-90) scale(0.13 -0.13)">
      <defs>
       <path id="DejaVuSans-Oblique-79" d="M 1588 -325 
Q 1188 -997 936 -1164 
Q 684 -1331 294 -1331 
L -159 -1331 
L -63 -850 
L 269 -850 
Q 509 -850 678 -719 
Q 847 -588 1056 -206 
L 1234 128 
L 459 3500 
L 1069 3500 
L 1650 819 
L 3256 3500 
L 3859 3500 
L 1588 -325 
z
" transform="scale(0.015625)"/>
      </defs>
      <use xlink:href="#DejaVuSans-Oblique-79" transform="translate(0 0.3125)"/>
     </g>
    </g>
   </g>
   <g id="line2d_39">
    <path d="M 48.472188 298.253492 
L 56.870181 299.018045 
L 65.268174 299.525756 
L 73.666167 299.776624 
L 82.064161 299.770651 
L 90.462154 299.507836 
L 98.860147 298.98818 
L 107.258141 298.211681 
L 115.656134 297.178341 
L 124.054127 295.888158 
L 132.452121 294.341134 
L 140.850114 292.537268 
L 149.248107 290.47656 
L 157.646101 288.159011 
L 166.044094 285.584619 
L 174.442087 282.753386 
L 182.84008 279.665311 
L 191.238074 276.320394 
L 199.636067 272.718635 
L 208.03406 268.860034 
L 216.432054 264.744592 
L 224.830047 260.372307 
L 233.22804 255.743181 
L 241.626034 250.857213 
L 250.024027 245.714403 
L 258.42202 240.314752 
L 266.820014 234.658258 
L 275.218007 228.744923 
L 283.616 222.574745 
L 292.013994 216.147726 
L 300.411987 209.463865 
L 308.80998 202.523163 
L 317.207973 195.325618 
L 325.605967 187.871231 
L 335.403626 178.849828 
L 345.201284 169.478834 
L 354.998943 159.758249 
L 364.796602 149.688075 
L 374.594261 139.26831 
L 384.39192 128.498955 
L 394.189579 117.380009 
L 403.987238 105.911474 
L 413.784897 94.093347 
L 423.582555 81.925631 
L 433.380214 69.408325 
L 443.177873 56.541428 
L 452.975532 43.324941 
L 462.773191 29.758863 
L 466.972188 23.837812 
L 466.972188 23.837812 
" clip-path="url(#p6087b3ea52)" style="fill: none; stroke: #0000ff; stroke-width: 2.5; stroke-linecap: square"/>
   </g>
   <g id="line2d_40">
    <path d="M 126.332653 360.173812 
L 129.576839 357.299146 
L 132.821025 354.424479 
L 136.065211 351.549812 
L 139.309397 348.675146 
L 142.553583 345.800479 
L 145.797769 342.925812 
L 149.041955 340.051146 
L 152.286141 337.176479 
L 155.530327 334.301812 
L 158.774513 331.427146 
L 162.018699 328.552479 
L 165.262885 325.677812 
L 168.507071 322.803146 
L 171.751257 319.928479 
L 174.995443 317.053812 
L 178.239629 314.179146 
L 181.483815 311.304479 
L 184.728001 308.429812 
L 187.972187 305.555146 
L 191.216374 302.680479 
L 194.46056 299.805812 
L 197.704746 296.931146 
L 200.948932 294.056479 
L 204.193118 291.181812 
L 207.437304 288.307146 
L 210.68149 285.432479 
L 213.925676 282.557812 
L 217.169862 279.683146 
L 220.414048 276.808479 
L 223.658234 273.933812 
L 226.90242 271.059146 
L 230.146606 268.184479 
L 233.390792 265.309812 
L 236.634978 262.435146 
L 239.879164 259.560479 
L 243.12335 256.685812 
L 246.367536 253.811146 
L 249.611722 250.936479 
L 252.855908 248.061812 
L 256.100094 245.187146 
L 259.344281 242.312479 
L 262.588467 239.437812 
L 265.832653 236.563146 
L 269.076839 233.688479 
L 272.321025 230.813812 
L 275.565211 227.939146 
L 278.809397 225.064479 
L 282.053583 222.189812 
L 285.297769 219.315146 
L 288.541955 216.440479 
L 291.786141 213.565812 
L 295.030327 210.691146 
L 298.274513 207.816479 
L 301.518699 204.941812 
L 304.762885 202.067146 
L 308.007071 199.192479 
L 311.251257 196.317812 
L 314.495443 193.443146 
L 317.739629 190.568479 
L 320.983815 187.693812 
L 324.228001 184.819146 
L 327.472187 181.944479 
L 330.716374 179.069812 
L 333.96056 176.195146 
L 337.204746 173.320479 
L 340.448932 170.445812 
L 343.693118 167.571146 
L 346.937304 164.696479 
L 350.18149 161.821812 
L 353.425676 158.947146 
L 356.669862 156.072479 
L 359.914048 153.197812 
L 363.158234 150.323146 
L 366.40242 147.448479 
L 369.646606 144.573812 
L 372.890792 141.699146 
L 376.134978 138.824479 
L 379.379164 135.949812 
L 382.62335 133.075146 
L 385.867536 130.200479 
L 389.111722 127.325812 
L 392.355908 124.451146 
L 395.600094 121.576479 
L 398.844281 118.701812 
L 402.088467 115.827146 
L 405.332653 112.952479 
L 408.576839 110.077812 
L 411.821025 107.203146 
L 415.065211 104.328479 
L 418.309397 101.453812 
L 421.553583 98.579146 
L 424.797769 95.704479 
L 428.041955 92.829812 
L 431.286141 89.955146 
L 434.530327 87.080479 
L 437.774513 84.205812 
L 441.018699 81.331146 
L 444.262885 78.456479 
L 447.507071 75.581812 
" clip-path="url(#p6087b3ea52)" style="fill: none; stroke-dasharray: 6.66,2.88; stroke-dashoffset: 0; stroke: #d62728; stroke-width: 1.8"/>
   </g>
   <g id="line2d_41">
    <path d="M 126.332653 334.301812 
L 129.576839 332.002079 
L 132.821025 329.702346 
L 136.065211 327.402612 
L 139.309397 325.102879 
L 142.553583 322.803146 
L 145.797769 320.503412 
L 149.041955 318.203679 
L 152.286141 315.903946 
L 155.530327 313.604212 
L 158.774513 311.304479 
L 162.018699 309.004746 
L 165.262885 306.705012 
L 168.507071 304.405279 
L 171.751257 302.105546 
L 174.995443 299.805812 
L 178.239629 297.506079 
L 181.483815 295.206346 
L 184.728001 292.906612 
L 187.972187 290.606879 
L 191.216374 288.307146 
L 194.46056 286.007412 
L 197.704746 283.707679 
L 200.948932 281.407946 
L 204.193118 279.108212 
L 207.437304 276.808479 
L 210.68149 274.508746 
L 213.925676 272.209012 
L 217.169862 269.909279 
L 220.414048 267.609546 
L 223.658234 265.309812 
L 226.90242 263.010079 
L 230.146606 260.710346 
L 233.390792 258.410612 
L 236.634978 256.110879 
L 239.879164 253.811146 
L 243.12335 251.511412 
L 246.367536 249.211679 
L 249.611722 246.911946 
L 252.855908 244.612212 
L 256.100094 242.312479 
L 259.344281 240.012746 
L 262.588467 237.713012 
L 265.832653 235.413279 
L 269.076839 233.113546 
L 272.321025 230.813812 
L 275.565211 228.514079 
L 278.809397 226.214346 
L 282.053583 223.914612 
L 285.297769 221.614879 
L 288.541955 219.315146 
L 291.786141 217.015412 
L 295.030327 214.715679 
L 298.274513 212.415946 
L 301.518699 210.116212 
L 304.762885 207.816479 
L 308.007071 205.516746 
L 311.251257 203.217012 
L 314.495443 200.917279 
L 317.739629 198.617546 
L 320.983815 196.317812 
L 324.228001 194.018079 
L 327.472187 191.718346 
L 330.716374 189.418612 
L 333.96056 187.118879 
L 337.204746 184.819146 
L 340.448932 182.519412 
L 343.693118 180.219679 
L 346.937304 177.919946 
L 350.18149 175.620212 
L 353.425676 173.320479 
L 356.669862 171.020746 
L 359.914048 168.721012 
L 363.158234 166.421279 
L 366.40242 164.121546 
L 369.646606 161.821812 
L 372.890792 159.522079 
L 376.134978 157.222346 
L 379.379164 154.922612 
L 382.62335 152.622879 
L 385.867536 150.323146 
L 389.111722 148.023412 
L 392.355908 145.723679 
L 395.600094 143.423946 
L 398.844281 141.124212 
L 402.088467 138.824479 
L 405.332653 136.524746 
L 408.576839 134.225012 
L 411.821025 131.925279 
L 415.065211 129.625546 
L 418.309397 127.325812 
L 421.553583 125.026079 
L 424.797769 122.726346 
L 428.041955 120.426612 
L 431.286141 118.126879 
L 434.530327 115.827146 
L 437.774513 113.527412 
L 441.018699 111.227679 
L 444.262885 108.927946 
L 447.507071 106.628212 
" clip-path="url(#p6087b3ea52)" style="fill: none; stroke: #2ca02c; stroke-width: 2; stroke-linecap: square"/>
   </g>
   <g id="patch_3">
    <path d="M 48.472188 334.301812 
L 48.472188 23.837812 
" style="fill: none; stroke: #333333; stroke-width: 0.8; stroke-linejoin: miter; stroke-linecap: square"/>
   </g>
   <g id="patch_4">
    <path d="M 466.972188 334.301812 
L 466.972188 23.837812 
" style="fill: none; stroke: #333333; stroke-width: 0.8; stroke-linejoin: miter; stroke-linecap: square"/>
   </g>
   <g id="patch_5">
    <path d="M 48.472188 334.301812 
L 466.972188 334.301812 
" style="fill: none; stroke: #333333; stroke-width: 0.8; stroke-linejoin: miter; stroke-linecap: square"/>
   </g>
   <g id="patch_6">
    <path d="M 48.472188 23.837812 
L 466.972188 23.837812 
" style="fill: none; stroke: #333333; stroke-width: 0.8; stroke-linejoin: miter; stroke-linecap: square"/>
   </g>
   <g id="text_22">
    <!-- $(a,\,f(a))$ -->
    <g style="fill: #262626" transform="translate(212.321025 250.813812) scale(0.11 -0.11)">
     <defs>
      <path id="DejaVuSans-28" d="M 1984 4856 
Q 1566 4138 1362 3434 
Q 1159 2731 1159 2009 
Q 1159 1288 1364 580 
Q 1569 -128 1984 -844 
L 1484 -844 
Q 1016 -109 783 600 
Q 550 1309 550 2009 
Q 550 2706 781 3412 
Q 1013 4119 1484 4856 
L 1984 4856 
z
" transform="scale(0.015625)"/>
      <path id="DejaVuSans-Oblique-61" d="M 3438 1997 
L 3047 0 
L 2472 0 
L 2578 531 
Q 2325 219 2001 64 
Q 1678 -91 1281 -91 
Q 834 -91 548 182 
Q 263 456 263 884 
Q 263 1497 752 1853 
Q 1241 2209 2100 2209 
L 2900 2209 
L 2931 2363 
Q 2938 2388 2941 2417 
Q 2944 2447 2944 2509 
Q 2944 2788 2717 2942 
Q 2491 3097 2081 3097 
Q 1800 3097 1504 3025 
Q 1209 2953 897 2809 
L 997 3341 
Q 1322 3463 1633 3523 
Q 1944 3584 2234 3584 
Q 2853 3584 3176 3315 
Q 3500 3047 3500 2534 
Q 3500 2431 3484 2292 
Q 3469 2153 3438 1997 
z
M 2816 1759 
L 2241 1759 
Q 1534 1759 1195 1570 
Q 856 1381 856 984 
Q 856 709 1029 553 
Q 1203 397 1509 397 
Q 1978 397 2328 733 
Q 2678 1069 2791 1631 
L 2816 1759 
z
" transform="scale(0.015625)"/>
      <path id="DejaVuSans-2c" d="M 750 794 
L 1409 794 
L 1409 256 
L 897 -744 
L 494 -744 
L 750 256 
L 750 794 
z
" transform="scale(0.015625)"/>
      <path id="DejaVuSans-Oblique-66" d="M 3059 4863 
L 2969 4384 
L 2419 4384 
Q 2106 4384 1964 4261 
Q 1822 4138 1753 3809 
L 1691 3500 
L 2638 3500 
L 2553 3053 
L 1606 3053 
L 1013 0 
L 434 0 
L 1031 3053 
L 481 3053 
L 563 3500 
L 1113 3500 
L 1159 3744 
Q 1278 4363 1576 4613 
Q 1875 4863 2516 4863 
L 3059 4863 
z
" transform="scale(0.015625)"/>
      <path id="DejaVuSans-29" d="M 513 4856 
L 1013 4856 
Q 1481 4119 1714 3412 
Q 1947 2706 1947 2009 
Q 1947 1309 1714 600 
Q 1481 -109 1013 -844 
L 513 -844 
Q 928 -128 1133 580 
Q 1338 1288 1338 2009 
Q 1338 2731 1133 3434 
Q 928 4138 513 4856 
z
" transform="scale(0.015625)"/>
     </defs>
     <use xlink:href="#DejaVuSans-28" transform="translate(0 0.015625)"/>
     <use xlink:href="#DejaVuSans-Oblique-61" transform="translate(39.013672 0.015625)"/>
     <use xlink:href="#DejaVuSans-2c" transform="translate(100.292969 0.015625)"/>
     <use xlink:href="#DejaVuSans-Oblique-66" transform="translate(167.798176 0.015625)"/>
     <use xlink:href="#DejaVuSans-28" transform="translate(203.003254 0.015625)"/>
     <use xlink:href="#DejaVuSans-Oblique-61" transform="translate(242.016926 0.015625)"/>
     <use xlink:href="#DejaVuSans-29" transform="translate(303.296223 0.015625)"/>
     <use xlink:href="#DejaVuSans-29" transform="translate(342.309895 0.015625)"/>
    </g>
   </g>
   <g id="text_23">
    <!-- $(2,\,4)$ -->
    <g style="fill: #555555" transform="translate(212.321025 265.813812) scale(0.1 -0.1)">
     <use xlink:href="#DejaVuSans-28" transform="translate(0 0.125)"/>
     <use xlink:href="#DejaVuSans-32" transform="translate(39.013672 0.125)"/>
     <use xlink:href="#DejaVuSans-2c" transform="translate(102.636719 0.125)"/>
     <use xlink:href="#DejaVuSans-34" transform="translate(170.141926 0.125)"/>
     <use xlink:href="#DejaVuSans-29" transform="translate(233.764973 0.125)"/>
    </g>
   </g>
   <g id="text_24">
    <!-- $(a{+}h,\,f(a{+}h))$ -->
    <g style="fill: #262626" transform="translate(379.646606 154.573812) scale(0.11 -0.11)">
     <defs>
      <path id="DejaVuSans-2b" d="M 2944 4013 
L 2944 2272 
L 4684 2272 
L 4684 1741 
L 2944 1741 
L 2944 0 
L 2419 0 
L 2419 1741 
L 678 1741 
L 678 2272 
L 2419 2272 
L 2419 4013 
L 2944 4013 
z
" transform="scale(0.015625)"/>
      <path id="DejaVuSans-Oblique-68" d="M 3566 2113 
L 3156 0 
L 2578 0 
L 2988 2091 
Q 3016 2238 3031 2350 
Q 3047 2463 3047 2528 
Q 3047 2791 2881 2937 
Q 2716 3084 2419 3084 
Q 1956 3084 1617 2771 
Q 1278 2459 1178 1941 
L 800 0 
L 225 0 
L 1172 4863 
L 1747 4863 
L 1375 2950 
Q 1594 3244 1934 3414 
Q 2275 3584 2650 3584 
Q 3113 3584 3367 3334 
Q 3622 3084 3622 2631 
Q 3622 2519 3608 2391 
Q 3594 2263 3566 2113 
z
" transform="scale(0.015625)"/>
     </defs>
     <use xlink:href="#DejaVuSans-28" transform="translate(0 0.015625)"/>
     <use xlink:href="#DejaVuSans-Oblique-61" transform="translate(39.013672 0.015625)"/>
     <use xlink:href="#DejaVuSans-2b" transform="translate(100.292969 0.015625)"/>
     <use xlink:href="#DejaVuSans-Oblique-68" transform="translate(184.082031 0.015625)"/>
     <use xlink:href="#DejaVuSans-2c" transform="translate(247.460938 0.015625)"/>
     <use xlink:href="#DejaVuSans-Oblique-66" transform="translate(314.966145 0.015625)"/>
     <use xlink:href="#DejaVuSans-28" transform="translate(350.171223 0.015625)"/>
     <use xlink:href="#DejaVuSans-Oblique-61" transform="translate(389.184895 0.015625)"/>
     <use xlink:href="#DejaVuSans-2b" transform="translate(450.464192 0.015625)"/>
     <use xlink:href="#DejaVuSans-Oblique-68" transform="translate(534.253254 0.015625)"/>
     <use xlink:href="#DejaVuSans-29" transform="translate(597.632161 0.015625)"/>
     <use xlink:href="#DejaVuSans-29" transform="translate(636.645833 0.015625)"/>
    </g>
   </g>
   <g id="text_25">
    <!-- $(3,\,9)$ -->
    <g style="fill: #555555" transform="translate(379.646606 169.573812) scale(0.1 -0.1)">
     <defs>
      <path id="DejaVuSans-39" d="M 703 97 
L 703 672 
Q 941 559 1184 500 
Q 1428 441 1663 441 
Q 2288 441 2617 861 
Q 2947 1281 2994 2138 
Q 2813 1869 2534 1725 
Q 2256 1581 1919 1581 
Q 1219 1581 811 2004 
Q 403 2428 403 3163 
Q 403 3881 828 4315 
Q 1253 4750 1959 4750 
Q 2769 4750 3195 4129 
Q 3622 3509 3622 2328 
Q 3622 1225 3098 567 
Q 2575 -91 1691 -91 
Q 1453 -91 1209 -44 
Q 966 3 703 97 
z
M 1959 2075 
Q 2384 2075 2632 2365 
Q 2881 2656 2881 3163 
Q 2881 3666 2632 3958 
Q 2384 4250 1959 4250 
Q 1534 4250 1286 3958 
Q 1038 3666 1038 3163 
Q 1038 2656 1286 2365 
Q 1534 2075 1959 2075 
z
" transform="scale(0.015625)"/>
     </defs>
     <use xlink:href="#DejaVuSans-28" transform="translate(0 0.125)"/>
     <use xlink:href="#DejaVuSans-33" transform="translate(39.013672 0.125)"/>
     <use xlink:href="#DejaVuSans-2c" transform="translate(102.636719 0.125)"/>
     <use xlink:href="#DejaVuSans-39" transform="translate(170.141926 0.125)"/>
     <use xlink:href="#DejaVuSans-29" transform="translate(233.764973 0.125)"/>
    </g>
   </g>
   <g id="patch_7">
    <path d="M 275.996981 230.813812 
Q 320.983979 230.813812 365.970976 230.813812 
" style="fill: none; stroke: #9467bd; stroke-width: 1.5; stroke-linecap: round"/>
    <path d="M 280.796981 233.213812 
L 275.996981 230.813812 
L 280.796981 228.413812 
" style="fill: none; stroke: #9467bd; stroke-width: 1.5; stroke-linecap: round"/>
    <path d="M 361.170976 228.413812 
L 365.970976 230.813812 
L 361.170976 233.213812 
" style="fill: none; stroke: #9467bd; stroke-width: 1.5; stroke-linecap: round"/>
   </g>
   <g id="text_26">
    <!-- $h$ -->
    <g style="fill: #9467bd" transform="translate(317.143815 241.162612) scale(0.12 -0.12)">
     <use xlink:href="#DejaVuSans-Oblique-68" transform="translate(0 0.015625)"/>
    </g>
   </g>
   <g id="patch_8">
    <path d="M 369.646606 227.139198 
Q 369.646606 187.693816 369.646606 148.248433 
" style="fill: none; stroke: #9467bd; stroke-width: 1.5; stroke-linecap: round"/>
    <path d="M 372.046606 222.339198 
L 369.646606 227.139198 
L 367.246606 222.339198 
" style="fill: none; stroke: #9467bd; stroke-width: 1.5; stroke-linecap: round"/>
    <path d="M 367.246606 153.048433 
L 369.646606 148.248433 
L 372.046606 153.048433 
" style="fill: none; stroke: #9467bd; stroke-width: 1.5; stroke-linecap: round"/>
   </g>
   <g id="text_27">
    <!-- $\Delta y$ -->
    <g style="fill: #9467bd" transform="translate(389.111722 187.693812) scale(0.12 -0.12)">
     <defs>
      <path id="DejaVuSans-394" d="M 2188 4044 
L 906 525 
L 3472 525 
L 2188 4044 
z
M 50 0 
L 1831 4666 
L 2547 4666 
L 4325 0 
L 50 0 
z
" transform="scale(0.015625)"/>
     </defs>
     <use xlink:href="#DejaVuSans-394" transform="translate(0 0.09375)"/>
     <use xlink:href="#DejaVuSans-Oblique-79" transform="translate(68.408203 0.09375)"/>
    </g>
   </g>
   <g id="text_28">
    <g id="patch_9">
     <path d="M 341.732188 60.451732 
L 458.602188 60.451732 
Q 462.502187 60.451732 462.502187 56.551732 
L 462.502187 33.151732 
Q 462.502187 29.251732 458.602188 29.251732 
L 341.732188 29.251732 
Q 337.832188 29.251732 337.832188 33.151732 
L 337.832188 56.551732 
Q 337.832188 60.451732 341.732188 60.451732 
z
" style="fill: #f0f0f0; stroke: #999999; stroke-linejoin: miter"/>
    </g>
    <!-- $f'(a) = \lim_{h \to 0} \frac{f(a+h) - f(a)}{h}$ -->
    <g style="fill: #262626" transform="translate(341.732188 47.061732) scale(0.13 -0.13)">
     <defs>
      <path id="Cmsy10-30" d="M 225 347 
Q 184 359 184 409 
L 966 3316 
Q 1003 3434 1093 3506 
Q 1184 3578 1300 3578 
Q 1450 3578 1564 3479 
Q 1678 3381 1678 3231 
Q 1678 3166 1644 3084 
L 488 319 
Q 466 275 428 275 
Q 394 275 320 306 
Q 247 338 225 347 
z
" transform="scale(0.015625)"/>
      <path id="DejaVuSans-3d" d="M 678 2906 
L 4684 2906 
L 4684 2381 
L 678 2381 
L 678 2906 
z
M 678 1631 
L 4684 1631 
L 4684 1100 
L 678 1100 
L 678 1631 
z
" transform="scale(0.015625)"/>
      <path id="DejaVuSans-6c" d="M 603 4863 
L 1178 4863 
L 1178 0 
L 603 0 
L 603 4863 
z
" transform="scale(0.015625)"/>
      <path id="DejaVuSans-69" d="M 603 3500 
L 1178 3500 
L 1178 0 
L 603 0 
L 603 3500 
z
M 603 4863 
L 1178 4863 
L 1178 4134 
L 603 4134 
L 603 4863 
z
" transform="scale(0.015625)"/>
      <path id="DejaVuSans-6d" d="M 3328 2828 
Q 3544 3216 3844 3400 
Q 4144 3584 4550 3584 
Q 5097 3584 5394 3201 
Q 5691 2819 5691 2113 
L 5691 0 
L 5113 0 
L 5113 2094 
Q 5113 2597 4934 2840 
Q 4756 3084 4391 3084 
Q 3944 3084 3684 2787 
Q 3425 2491 3425 1978 
L 3425 0 
L 2847 0 
L 2847 2094 
Q 2847 2600 2669 2842 
Q 2491 3084 2119 3084 
Q 1678 3084 1418 2786 
Q 1159 2488 1159 1978 
L 1159 0 
L 581 0 
L 581 3500 
L 1159 3500 
L 1159 2956 
Q 1356 3278 1631 3431 
Q 1906 3584 2284 3584 
Q 2666 3584 2933 3390 
Q 3200 3197 3328 2828 
z
" transform="scale(0.015625)"/>
      <path id="DejaVuSans-2192" d="M 5050 2147 
L 5050 1866 
L 3822 638 
L 3447 1013 
L 4175 1741 
L 366 1741 
L 366 2272 
L 4175 2272 
L 3447 3000 
L 3822 3375 
L 5050 2147 
z
" transform="scale(0.015625)"/>
     </defs>
     <use xlink:href="#DejaVuSans-Oblique-66" transform="translate(0 0.782813)"/>
     <use xlink:href="#Cmsy10-30" transform="translate(42.652786 39.064063) scale(0.7)"/>
     <use xlink:href="#DejaVuSans-28" transform="translate(64.630326 0.782813)"/>
     <use xlink:href="#DejaVuSans-Oblique-61" transform="translate(103.643997 0.782813)"/>
     <use xlink:href="#DejaVuSans-29" transform="translate(164.923294 0.782813)"/>
     <use xlink:href="#DejaVuSans-3d" transform="translate(223.419388 0.782813)"/>
     <use xlink:href="#DejaVuSans-6c" transform="translate(326.690872 0.782813)"/>
     <use xlink:href="#DejaVuSans-69" transform="translate(354.474076 0.782813)"/>
     <use xlink:href="#DejaVuSans-6d" transform="translate(382.257279 0.782813)"/>
     <use xlink:href="#DejaVuSans-Oblique-68" transform="translate(329.690872 -71.15625) scale(0.7)"/>
     <use xlink:href="#DejaVuSans-2192" transform="translate(374.056107 -71.15625) scale(0.7)"/>
     <use xlink:href="#DejaVuSans-30" transform="translate(432.708451 -71.15625) scale(0.7)"/>
     <use xlink:href="#DejaVuSans-Oblique-66" transform="translate(479.669388 53.810938) scale(0.7)"/>
     <use xlink:href="#DejaVuSans-28" transform="translate(504.312943 53.810938) scale(0.7)"/>
     <use xlink:href="#DejaVuSans-Oblique-61" transform="translate(531.622513 53.810938) scale(0.7)"/>
     <use xlink:href="#DejaVuSans-2b" transform="translate(574.518021 53.810938) scale(0.7)"/>
     <use xlink:href="#DejaVuSans-Oblique-68" transform="translate(633.170365 53.810938) scale(0.7)"/>
     <use xlink:href="#DejaVuSans-29" transform="translate(677.535599 53.810938) scale(0.7)"/>
     <use xlink:href="#DejaVuSans-2212" transform="translate(704.845169 53.810938) scale(0.7)"/>
     <use xlink:href="#DejaVuSans-Oblique-66" transform="translate(763.497513 53.810938) scale(0.7)"/>
     <use xlink:href="#DejaVuSans-28" transform="translate(788.141068 53.810938) scale(0.7)"/>
     <use xlink:href="#DejaVuSans-Oblique-61" transform="translate(815.450638 53.810938) scale(0.7)"/>
     <use xlink:href="#DejaVuSans-29" transform="translate(858.346146 53.810938) scale(0.7)"/>
     <use xlink:href="#DejaVuSans-Oblique-68" transform="translate(660.669388 -39.859375) scale(0.7)"/>
     <path d="M 479.669388 19.579688 
L 479.669388 25.829688 
L 885.655716 25.829688 
L 885.655716 19.579688 
L 479.669388 19.579688 
z
"/>
    </g>
   </g>
   <g id="text_29">
    <!-- Derivative: The Slope of the Tangent Line -->
    <g style="fill: #262626" transform="translate(93.842344 17.837812) scale(0.14 -0.14)">
     <defs>
      <path id="DejaVuSans-Bold-44" d="M 1791 3756 
L 1791 909 
L 2222 909 
Q 2959 909 3348 1275 
Q 3738 1641 3738 2338 
Q 3738 3031 3350 3393 
Q 2963 3756 2222 3756 
L 1791 3756 
z
M 588 4666 
L 1856 4666 
Q 2919 4666 3439 4514 
Q 3959 4363 4331 4000 
Q 4659 3684 4818 3271 
Q 4978 2859 4978 2338 
Q 4978 1809 4818 1395 
Q 4659 981 4331 666 
Q 3956 303 3431 151 
Q 2906 0 1856 0 
L 588 0 
L 588 4666 
z
" transform="scale(0.015625)"/>
      <path id="DejaVuSans-Bold-65" d="M 4031 1759 
L 4031 1441 
L 1416 1441 
Q 1456 1047 1700 850 
Q 1944 653 2381 653 
Q 2734 653 3104 758 
Q 3475 863 3866 1075 
L 3866 213 
Q 3469 63 3072 -14 
Q 2675 -91 2278 -91 
Q 1328 -91 801 392 
Q 275 875 275 1747 
Q 275 2603 792 3093 
Q 1309 3584 2216 3584 
Q 3041 3584 3536 3087 
Q 4031 2591 4031 1759 
z
M 2881 2131 
Q 2881 2450 2695 2645 
Q 2509 2841 2209 2841 
Q 1884 2841 1681 2658 
Q 1478 2475 1428 2131 
L 2881 2131 
z
" transform="scale(0.015625)"/>
      <path id="DejaVuSans-Bold-72" d="M 3138 2547 
Q 2991 2616 2845 2648 
Q 2700 2681 2553 2681 
Q 2122 2681 1889 2404 
Q 1656 2128 1656 1613 
L 1656 0 
L 538 0 
L 538 3500 
L 1656 3500 
L 1656 2925 
Q 1872 3269 2151 3426 
Q 2431 3584 2822 3584 
Q 2878 3584 2943 3579 
Q 3009 3575 3134 3559 
L 3138 2547 
z
" transform="scale(0.015625)"/>
      <path id="DejaVuSans-Bold-69" d="M 538 3500 
L 1656 3500 
L 1656 0 
L 538 0 
L 538 3500 
z
M 538 4863 
L 1656 4863 
L 1656 3950 
L 538 3950 
L 538 4863 
z
" transform="scale(0.015625)"/>
      <path id="DejaVuSans-Bold-76" d="M 97 3500 
L 1216 3500 
L 2088 1081 
L 2956 3500 
L 4078 3500 
L 2700 0 
L 1472 0 
L 97 3500 
z
" transform="scale(0.015625)"/>
      <path id="DejaVuSans-Bold-61" d="M 2106 1575 
Q 1756 1575 1579 1456 
Q 1403 1338 1403 1106 
Q 1403 894 1545 773 
Q 1688 653 1941 653 
Q 2256 653 2472 879 
Q 2688 1106 2688 1447 
L 2688 1575 
L 2106 1575 
z
M 3816 1997 
L 3816 0 
L 2688 0 
L 2688 519 
Q 2463 200 2181 54 
Q 1900 -91 1497 -91 
Q 953 -91 614 226 
Q 275 544 275 1050 
Q 275 1666 698 1953 
Q 1122 2241 2028 2241 
L 2688 2241 
L 2688 2328 
Q 2688 2594 2478 2717 
Q 2269 2841 1825 2841 
Q 1466 2841 1156 2769 
Q 847 2697 581 2553 
L 581 3406 
Q 941 3494 1303 3539 
Q 1666 3584 2028 3584 
Q 2975 3584 3395 3211 
Q 3816 2838 3816 1997 
z
" transform="scale(0.015625)"/>
      <path id="DejaVuSans-Bold-74" d="M 1759 4494 
L 1759 3500 
L 2913 3500 
L 2913 2700 
L 1759 2700 
L 1759 1216 
Q 1759 972 1856 886 
Q 1953 800 2241 800 
L 2816 800 
L 2816 0 
L 1856 0 
Q 1194 0 917 276 
Q 641 553 641 1216 
L 641 2700 
L 84 2700 
L 84 3500 
L 641 3500 
L 641 4494 
L 1759 4494 
z
" transform="scale(0.015625)"/>
      <path id="DejaVuSans-Bold-3a" d="M 716 3500 
L 1844 3500 
L 1844 2291 
L 716 2291 
L 716 3500 
z
M 716 1209 
L 1844 1209 
L 1844 0 
L 716 0 
L 716 1209 
z
" transform="scale(0.015625)"/>
      <path id="DejaVuSans-Bold-20" transform="scale(0.015625)"/>
      <path id="DejaVuSans-Bold-54" d="M 31 4666 
L 4331 4666 
L 4331 3756 
L 2784 3756 
L 2784 0 
L 1581 0 
L 1581 3756 
L 31 3756 
L 31 4666 
z
" transform="scale(0.015625)"/>
      <path id="DejaVuSans-Bold-68" d="M 4056 2131 
L 4056 0 
L 2931 0 
L 2931 347 
L 2931 1625 
Q 2931 2084 2911 2256 
Q 2891 2428 2841 2509 
Q 2775 2619 2662 2680 
Q 2550 2741 2406 2741 
Q 2056 2741 1856 2470 
Q 1656 2200 1656 1722 
L 1656 0 
L 538 0 
L 538 4863 
L 1656 4863 
L 1656 2988 
Q 1909 3294 2193 3439 
Q 2478 3584 2822 3584 
Q 3428 3584 3742 3212 
Q 4056 2841 4056 2131 
z
" transform="scale(0.015625)"/>
      <path id="DejaVuSans-Bold-53" d="M 3834 4519 
L 3834 3531 
Q 3450 3703 3084 3790 
Q 2719 3878 2394 3878 
Q 1963 3878 1756 3759 
Q 1550 3641 1550 3391 
Q 1550 3203 1689 3098 
Q 1828 2994 2194 2919 
L 2706 2816 
Q 3484 2659 3812 2340 
Q 4141 2022 4141 1434 
Q 4141 663 3683 286 
Q 3225 -91 2284 -91 
Q 1841 -91 1394 -6 
Q 947 78 500 244 
L 500 1259 
Q 947 1022 1364 901 
Q 1781 781 2169 781 
Q 2563 781 2772 912 
Q 2981 1044 2981 1288 
Q 2981 1506 2839 1625 
Q 2697 1744 2272 1838 
L 1806 1941 
Q 1106 2091 782 2419 
Q 459 2747 459 3303 
Q 459 4000 909 4375 
Q 1359 4750 2203 4750 
Q 2588 4750 2994 4692 
Q 3400 4634 3834 4519 
z
" transform="scale(0.015625)"/>
      <path id="DejaVuSans-Bold-6c" d="M 538 4863 
L 1656 4863 
L 1656 0 
L 538 0 
L 538 4863 
z
" transform="scale(0.015625)"/>
      <path id="DejaVuSans-Bold-6f" d="M 2203 2784 
Q 1831 2784 1636 2517 
Q 1441 2250 1441 1747 
Q 1441 1244 1636 976 
Q 1831 709 2203 709 
Q 2569 709 2762 976 
Q 2956 1244 2956 1747 
Q 2956 2250 2762 2517 
Q 2569 2784 2203 2784 
z
M 2203 3584 
Q 3106 3584 3614 3096 
Q 4122 2609 4122 1747 
Q 4122 884 3614 396 
Q 3106 -91 2203 -91 
Q 1297 -91 786 396 
Q 275 884 275 1747 
Q 275 2609 786 3096 
Q 1297 3584 2203 3584 
z
" transform="scale(0.015625)"/>
      <path id="DejaVuSans-Bold-70" d="M 1656 506 
L 1656 -1331 
L 538 -1331 
L 538 3500 
L 1656 3500 
L 1656 2988 
Q 1888 3294 2169 3439 
Q 2450 3584 2816 3584 
Q 3463 3584 3878 3070 
Q 4294 2556 4294 1747 
Q 4294 938 3878 423 
Q 3463 -91 2816 -91 
Q 2450 -91 2169 54 
Q 1888 200 1656 506 
z
M 2400 2772 
Q 2041 2772 1848 2508 
Q 1656 2244 1656 1747 
Q 1656 1250 1848 986 
Q 2041 722 2400 722 
Q 2759 722 2948 984 
Q 3138 1247 3138 1747 
Q 3138 2247 2948 2509 
Q 2759 2772 2400 2772 
z
" transform="scale(0.015625)"/>
      <path id="DejaVuSans-Bold-66" d="M 2841 4863 
L 2841 4128 
L 2222 4128 
Q 1984 4128 1890 4042 
Q 1797 3956 1797 3744 
L 1797 3500 
L 2753 3500 
L 2753 2700 
L 1797 2700 
L 1797 0 
L 678 0 
L 678 2700 
L 122 2700 
L 122 3500 
L 678 3500 
L 678 3744 
Q 678 4316 997 4589 
Q 1316 4863 1984 4863 
L 2841 4863 
z
" transform="scale(0.015625)"/>
      <path id="DejaVuSans-Bold-6e" d="M 4056 2131 
L 4056 0 
L 2931 0 
L 2931 347 
L 2931 1631 
Q 2931 2084 2911 2256 
Q 2891 2428 2841 2509 
Q 2775 2619 2662 2680 
Q 2550 2741 2406 2741 
Q 2056 2741 1856 2470 
Q 1656 2200 1656 1722 
L 1656 0 
L 538 0 
L 538 3500 
L 1656 3500 
L 1656 2988 
Q 1909 3294 2193 3439 
Q 2478 3584 2822 3584 
Q 3428 3584 3742 3212 
Q 4056 2841 4056 2131 
z
" transform="scale(0.015625)"/>
      <path id="DejaVuSans-Bold-67" d="M 2919 594 
Q 2688 288 2409 144 
Q 2131 0 1766 0 
Q 1125 0 706 504 
Q 288 1009 288 1791 
Q 288 2575 706 3076 
Q 1125 3578 1766 3578 
Q 2131 3578 2409 3434 
Q 2688 3291 2919 2981 
L 2919 3500 
L 4044 3500 
L 4044 353 
Q 4044 -491 3511 -936 
Q 2978 -1381 1966 -1381 
Q 1638 -1381 1331 -1331 
Q 1025 -1281 716 -1178 
L 716 -306 
Q 1009 -475 1290 -558 
Q 1572 -641 1856 -641 
Q 2406 -641 2662 -400 
Q 2919 -159 2919 353 
L 2919 594 
z
M 2181 2772 
Q 1834 2772 1640 2515 
Q 1447 2259 1447 1791 
Q 1447 1309 1634 1061 
Q 1822 813 2181 813 
Q 2531 813 2725 1069 
Q 2919 1325 2919 1791 
Q 2919 2259 2725 2515 
Q 2531 2772 2181 2772 
z
" transform="scale(0.015625)"/>
      <path id="DejaVuSans-Bold-4c" d="M 588 4666 
L 1791 4666 
L 1791 909 
L 3903 909 
L 3903 0 
L 588 0 
L 588 4666 
z
" transform="scale(0.015625)"/>
     </defs>
     <use xlink:href="#DejaVuSans-Bold-44"/>
     <use xlink:href="#DejaVuSans-Bold-65" transform="translate(83.007812 0)"/>
     <use xlink:href="#DejaVuSans-Bold-72" transform="translate(150.830078 0)"/>
     <use xlink:href="#DejaVuSans-Bold-69" transform="translate(200.146484 0)"/>
     <use xlink:href="#DejaVuSans-Bold-76" transform="translate(234.423828 0)"/>
     <use xlink:href="#DejaVuSans-Bold-61" transform="translate(299.609375 0)"/>
     <use xlink:href="#DejaVuSans-Bold-74" transform="translate(367.089844 0)"/>
     <use xlink:href="#DejaVuSans-Bold-69" transform="translate(414.892578 0)"/>
     <use xlink:href="#DejaVuSans-Bold-76" transform="translate(449.169922 0)"/>
     <use xlink:href="#DejaVuSans-Bold-65" transform="translate(514.355469 0)"/>
     <use xlink:href="#DejaVuSans-Bold-3a" transform="translate(582.177734 0)"/>
     <use xlink:href="#DejaVuSans-Bold-20" transform="translate(622.167969 0)"/>
     <use xlink:href="#DejaVuSans-Bold-54" transform="translate(656.982422 0)"/>
     <use xlink:href="#DejaVuSans-Bold-68" transform="translate(725.195312 0)"/>
     <use xlink:href="#DejaVuSans-Bold-65" transform="translate(796.386719 0)"/>
     <use xlink:href="#DejaVuSans-Bold-20" transform="translate(864.208984 0)"/>
     <use xlink:href="#DejaVuSans-Bold-53" transform="translate(899.023438 0)"/>
     <use xlink:href="#DejaVuSans-Bold-6c" transform="translate(971.044922 0)"/>
     <use xlink:href="#DejaVuSans-Bold-6f" transform="translate(1005.322266 0)"/>
     <use xlink:href="#DejaVuSans-Bold-70" transform="translate(1074.023438 0)"/>
     <use xlink:href="#DejaVuSans-Bold-65" transform="translate(1145.605469 0)"/>
     <use xlink:href="#DejaVuSans-Bold-20" transform="translate(1213.427734 0)"/>
     <use xlink:href="#DejaVuSans-Bold-6f" transform="translate(1248.242188 0)"/>
     <use xlink:href="#DejaVuSans-Bold-66" transform="translate(1316.943359 0)"/>
     <use xlink:href="#DejaVuSans-Bold-20" transform="translate(1360.449219 0)"/>
     <use xlink:href="#DejaVuSans-Bold-74" transform="translate(1395.263672 0)"/>
     <use xlink:href="#DejaVuSans-Bold-68" transform="translate(1443.066406 0)"/>
     <use xlink:href="#DejaVuSans-Bold-65" transform="translate(1514.257812 0)"/>
     <use xlink:href="#DejaVuSans-Bold-20" transform="translate(1582.080078 0)"/>
     <use xlink:href="#DejaVuSans-Bold-54" transform="translate(1616.894531 0)"/>
     <use xlink:href="#DejaVuSans-Bold-61" transform="translate(1672.232422 0)"/>
     <use xlink:href="#DejaVuSans-Bold-6e" transform="translate(1739.712891 0)"/>
     <use xlink:href="#DejaVuSans-Bold-67" transform="translate(1810.904297 0)"/>
     <use xlink:href="#DejaVuSans-Bold-65" transform="translate(1882.486328 0)"/>
     <use xlink:href="#DejaVuSans-Bold-6e" transform="translate(1950.308594 0)"/>
     <use xlink:href="#DejaVuSans-Bold-74" transform="translate(2021.5 0)"/>
     <use xlink:href="#DejaVuSans-Bold-20" transform="translate(2069.302734 0)"/>
     <use xlink:href="#DejaVuSans-Bold-4c" transform="translate(2104.117188 0)"/>
     <use xlink:href="#DejaVuSans-Bold-69" transform="translate(2167.837891 0)"/>
     <use xlink:href="#DejaVuSans-Bold-6e" transform="translate(2202.115234 0)"/>
     <use xlink:href="#DejaVuSans-Bold-65" transform="translate(2273.306641 0)"/>
    </g>
   </g>
   <g id="line2d_42">
    <defs>
     <path id="ma6539c615f" d="M 0 4 
C 1.060812 4 2.078319 3.578535 2.828427 2.828427 
C 3.578535 2.078319 4 1.060812 4 0 
C 4 -1.060812 3.578535 -2.078319 2.828427 -2.828427 
C 2.078319 -3.578535 1.060812 -4 0 -4 
C -1.060812 -4 -2.078319 -3.578535 -2.828427 -2.828427 
C -3.578535 -2.078319 -4 -1.060812 -4 0 
C -4 1.060812 -3.578535 2.078319 -2.828427 2.828427 
C -2.078319 3.578535 -1.060812 4 0 4 
z
" style="stroke: #000000"/>
    </defs>
    <g clip-path="url(#p6087b3ea52)">
     <use xlink:href="#ma6539c615f" x="272.321025" y="230.813812" style="stroke: #000000"/>
    </g>
   </g>
   <g id="line2d_43">
    <g clip-path="url(#p6087b3ea52)">
     <use xlink:href="#ma6539c615f" x="369.646606" y="144.573812" style="stroke: #000000"/>
    </g>
   </g>
   <g id="legend_1">
    <g id="patch_10">
     <path d="M 56.172188 81.979687 
L 227.595156 81.979687 
Q 229.795156 81.979687 229.795156 79.779687 
L 229.795156 31.537812 
Q 229.795156 29.337812 227.595156 29.337812 
L 56.172188 29.337812 
Q 53.972188 29.337812 53.972188 31.537812 
L 53.972188 79.779687 
Q 53.972188 81.979687 56.172188 81.979687 
z
" style="fill: #ffffff; opacity: 0.9; stroke: #cccccc; stroke-linejoin: miter"/>
    </g>
    <g id="line2d_44">
     <path d="M 58.372188 39.150156 
L 69.372187 39.150156 
L 80.372187 39.150156 
" style="fill: none; stroke: #0000ff; stroke-width: 2.5; stroke-linecap: square"/>
    </g>
    <g id="text_30">
     <!-- $f(x) = x^2$ -->
     <g style="fill: #262626" transform="translate(89.172188 43.000156) scale(0.11 -0.11)">
      <use xlink:href="#DejaVuSans-Oblique-66" transform="translate(0 0.765625)"/>
      <use xlink:href="#DejaVuSans-28" transform="translate(35.205078 0.765625)"/>
      <use xlink:href="#DejaVuSans-Oblique-78" transform="translate(74.21875 0.765625)"/>
      <use xlink:href="#DejaVuSans-29" transform="translate(133.398438 0.765625)"/>
      <use xlink:href="#DejaVuSans-3d" transform="translate(191.894531 0.765625)"/>
      <use xlink:href="#DejaVuSans-Oblique-78" transform="translate(295.166016 0.765625)"/>
      <use xlink:href="#DejaVuSans-32" transform="translate(358.811849 39.046875) scale(0.7)"/>
     </g>
    </g>
    <g id="line2d_45">
     <path d="M 58.372188 55.296094 
L 69.372187 55.296094 
L 80.372187 55.296094 
" style="fill: none; stroke-dasharray: 6.66,2.88; stroke-dashoffset: 0; stroke: #d62728; stroke-width: 1.8"/>
    </g>
    <g id="text_31">
     <!-- Secant line (slope = 5.0) -->
     <g style="fill: #262626" transform="translate(89.172188 59.146094) scale(0.11 -0.11)">
      <defs>
       <path id="DejaVuSans-53" d="M 3425 4513 
L 3425 3897 
Q 3066 4069 2747 4153 
Q 2428 4238 2131 4238 
Q 1616 4238 1336 4038 
Q 1056 3838 1056 3469 
Q 1056 3159 1242 3001 
Q 1428 2844 1947 2747 
L 2328 2669 
Q 3034 2534 3370 2195 
Q 3706 1856 3706 1288 
Q 3706 609 3251 259 
Q 2797 -91 1919 -91 
Q 1588 -91 1214 -16 
Q 841 59 441 206 
L 441 856 
Q 825 641 1194 531 
Q 1563 422 1919 422 
Q 2459 422 2753 634 
Q 3047 847 3047 1241 
Q 3047 1584 2836 1778 
Q 2625 1972 2144 2069 
L 1759 2144 
Q 1053 2284 737 2584 
Q 422 2884 422 3419 
Q 422 4038 858 4394 
Q 1294 4750 2059 4750 
Q 2388 4750 2728 4690 
Q 3069 4631 3425 4513 
z
" transform="scale(0.015625)"/>
       <path id="DejaVuSans-65" d="M 3597 1894 
L 3597 1613 
L 953 1613 
Q 991 1019 1311 708 
Q 1631 397 2203 397 
Q 2534 397 2845 478 
Q 3156 559 3463 722 
L 3463 178 
Q 3153 47 2828 -22 
Q 2503 -91 2169 -91 
Q 1331 -91 842 396 
Q 353 884 353 1716 
Q 353 2575 817 3079 
Q 1281 3584 2069 3584 
Q 2775 3584 3186 3129 
Q 3597 2675 3597 1894 
z
M 3022 2063 
Q 3016 2534 2758 2815 
Q 2500 3097 2075 3097 
Q 1594 3097 1305 2825 
Q 1016 2553 972 2059 
L 3022 2063 
z
" transform="scale(0.015625)"/>
       <path id="DejaVuSans-63" d="M 3122 3366 
L 3122 2828 
Q 2878 2963 2633 3030 
Q 2388 3097 2138 3097 
Q 1578 3097 1268 2742 
Q 959 2388 959 1747 
Q 959 1106 1268 751 
Q 1578 397 2138 397 
Q 2388 397 2633 464 
Q 2878 531 3122 666 
L 3122 134 
Q 2881 22 2623 -34 
Q 2366 -91 2075 -91 
Q 1284 -91 818 406 
Q 353 903 353 1747 
Q 353 2603 823 3093 
Q 1294 3584 2113 3584 
Q 2378 3584 2631 3529 
Q 2884 3475 3122 3366 
z
" transform="scale(0.015625)"/>
       <path id="DejaVuSans-61" d="M 2194 1759 
Q 1497 1759 1228 1600 
Q 959 1441 959 1056 
Q 959 750 1161 570 
Q 1363 391 1709 391 
Q 2188 391 2477 730 
Q 2766 1069 2766 1631 
L 2766 1759 
L 2194 1759 
z
M 3341 1997 
L 3341 0 
L 2766 0 
L 2766 531 
Q 2569 213 2275 61 
Q 1981 -91 1556 -91 
Q 1019 -91 701 211 
Q 384 513 384 1019 
Q 384 1609 779 1909 
Q 1175 2209 1959 2209 
L 2766 2209 
L 2766 2266 
Q 2766 2663 2505 2880 
Q 2244 3097 1772 3097 
Q 1472 3097 1187 3025 
Q 903 2953 641 2809 
L 641 3341 
Q 956 3463 1253 3523 
Q 1550 3584 1831 3584 
Q 2591 3584 2966 3190 
Q 3341 2797 3341 1997 
z
" transform="scale(0.015625)"/>
       <path id="DejaVuSans-6e" d="M 3513 2113 
L 3513 0 
L 2938 0 
L 2938 2094 
Q 2938 2591 2744 2837 
Q 2550 3084 2163 3084 
Q 1697 3084 1428 2787 
Q 1159 2491 1159 1978 
L 1159 0 
L 581 0 
L 581 3500 
L 1159 3500 
L 1159 2956 
Q 1366 3272 1645 3428 
Q 1925 3584 2291 3584 
Q 2894 3584 3203 3211 
Q 3513 2838 3513 2113 
z
" transform="scale(0.015625)"/>
       <path id="DejaVuSans-74" d="M 1172 4494 
L 1172 3500 
L 2356 3500 
L 2356 3053 
L 1172 3053 
L 1172 1153 
Q 1172 725 1289 603 
Q 1406 481 1766 481 
L 2356 481 
L 2356 0 
L 1766 0 
Q 1100 0 847 248 
Q 594 497 594 1153 
L 594 3053 
L 172 3053 
L 172 3500 
L 594 3500 
L 594 4494 
L 1172 4494 
z
" transform="scale(0.015625)"/>
       <path id="DejaVuSans-20" transform="scale(0.015625)"/>
       <path id="DejaVuSans-73" d="M 2834 3397 
L 2834 2853 
Q 2591 2978 2328 3040 
Q 2066 3103 1784 3103 
Q 1356 3103 1142 2972 
Q 928 2841 928 2578 
Q 928 2378 1081 2264 
Q 1234 2150 1697 2047 
L 1894 2003 
Q 2506 1872 2764 1633 
Q 3022 1394 3022 966 
Q 3022 478 2636 193 
Q 2250 -91 1575 -91 
Q 1294 -91 989 -36 
Q 684 19 347 128 
L 347 722 
Q 666 556 975 473 
Q 1284 391 1588 391 
Q 1994 391 2212 530 
Q 2431 669 2431 922 
Q 2431 1156 2273 1281 
Q 2116 1406 1581 1522 
L 1381 1569 
Q 847 1681 609 1914 
Q 372 2147 372 2553 
Q 372 3047 722 3315 
Q 1072 3584 1716 3584 
Q 2034 3584 2315 3537 
Q 2597 3491 2834 3397 
z
" transform="scale(0.015625)"/>
       <path id="DejaVuSans-6f" d="M 1959 3097 
Q 1497 3097 1228 2736 
Q 959 2375 959 1747 
Q 959 1119 1226 758 
Q 1494 397 1959 397 
Q 2419 397 2687 759 
Q 2956 1122 2956 1747 
Q 2956 2369 2687 2733 
Q 2419 3097 1959 3097 
z
M 1959 3584 
Q 2709 3584 3137 3096 
Q 3566 2609 3566 1747 
Q 3566 888 3137 398 
Q 2709 -91 1959 -91 
Q 1206 -91 779 398 
Q 353 888 353 1747 
Q 353 2609 779 3096 
Q 1206 3584 1959 3584 
z
" transform="scale(0.015625)"/>
       <path id="DejaVuSans-70" d="M 1159 525 
L 1159 -1331 
L 581 -1331 
L 581 3500 
L 1159 3500 
L 1159 2969 
Q 1341 3281 1617 3432 
Q 1894 3584 2278 3584 
Q 2916 3584 3314 3078 
Q 3713 2572 3713 1747 
Q 3713 922 3314 415 
Q 2916 -91 2278 -91 
Q 1894 -91 1617 61 
Q 1341 213 1159 525 
z
M 3116 1747 
Q 3116 2381 2855 2742 
Q 2594 3103 2138 3103 
Q 1681 3103 1420 2742 
Q 1159 2381 1159 1747 
Q 1159 1113 1420 752 
Q 1681 391 2138 391 
Q 2594 391 2855 752 
Q 3116 1113 3116 1747 
z
" transform="scale(0.015625)"/>
      </defs>
      <use xlink:href="#DejaVuSans-53"/>
      <use xlink:href="#DejaVuSans-65" transform="translate(63.476562 0)"/>
      <use xlink:href="#DejaVuSans-63" transform="translate(125 0)"/>
      <use xlink:href="#DejaVuSans-61" transform="translate(179.980469 0)"/>
      <use xlink:href="#DejaVuSans-6e" transform="translate(241.259766 0)"/>
      <use xlink:href="#DejaVuSans-74" transform="translate(304.638672 0)"/>
      <use xlink:href="#DejaVuSans-20" transform="translate(343.847656 0)"/>
      <use xlink:href="#DejaVuSans-6c" transform="translate(375.634766 0)"/>
      <use xlink:href="#DejaVuSans-69" transform="translate(403.417969 0)"/>
      <use xlink:href="#DejaVuSans-6e" transform="translate(431.201172 0)"/>
      <use xlink:href="#DejaVuSans-65" transform="translate(494.580078 0)"/>
      <use xlink:href="#DejaVuSans-20" transform="translate(556.103516 0)"/>
      <use xlink:href="#DejaVuSans-28" transform="translate(587.890625 0)"/>
      <use xlink:href="#DejaVuSans-73" transform="translate(626.904297 0)"/>
      <use xlink:href="#DejaVuSans-6c" transform="translate(679.003906 0)"/>
      <use xlink:href="#DejaVuSans-6f" transform="translate(706.787109 0)"/>
      <use xlink:href="#DejaVuSans-70" transform="translate(767.96875 0)"/>
      <use xlink:href="#DejaVuSans-65" transform="translate(831.445312 0)"/>
      <use xlink:href="#DejaVuSans-20" transform="translate(892.96875 0)"/>
      <use xlink:href="#DejaVuSans-3d" transform="translate(924.755859 0)"/>
      <use xlink:href="#DejaVuSans-20" transform="translate(1008.544922 0)"/>
      <use xlink:href="#DejaVuSans-35" transform="translate(1040.332031 0)"/>
      <use xlink:href="#DejaVuSans-2e" transform="translate(1103.955078 0)"/>
      <use xlink:href="#DejaVuSans-30" transform="translate(1135.742188 0)"/>
      <use xlink:href="#DejaVuSans-29" transform="translate(1199.365234 0)"/>
     </g>
    </g>
    <g id="line2d_46">
     <path d="M 58.372188 71.442031 
L 69.372187 71.442031 
L 80.372187 71.442031 
" style="fill: none; stroke: #2ca02c; stroke-width: 2; stroke-linecap: square"/>
    </g>
    <g id="text_32">
     <!-- Tangent line (slope = 4) -->
     <g style="fill: #262626" transform="translate(89.172188 75.292031) scale(0.11 -0.11)">
      <defs>
       <path id="DejaVuSans-54" d="M -19 4666 
L 3928 4666 
L 3928 4134 
L 2272 4134 
L 2272 0 
L 1638 0 
L 1638 4134 
L -19 4134 
L -19 4666 
z
" transform="scale(0.015625)"/>
       <path id="DejaVuSans-67" d="M 2906 1791 
Q 2906 2416 2648 2759 
Q 2391 3103 1925 3103 
Q 1463 3103 1205 2759 
Q 947 2416 947 1791 
Q 947 1169 1205 825 
Q 1463 481 1925 481 
Q 2391 481 2648 825 
Q 2906 1169 2906 1791 
z
M 3481 434 
Q 3481 -459 3084 -895 
Q 2688 -1331 1869 -1331 
Q 1566 -1331 1297 -1286 
Q 1028 -1241 775 -1147 
L 775 -588 
Q 1028 -725 1275 -790 
Q 1522 -856 1778 -856 
Q 2344 -856 2625 -561 
Q 2906 -266 2906 331 
L 2906 616 
Q 2728 306 2450 153 
Q 2172 0 1784 0 
Q 1141 0 747 490 
Q 353 981 353 1791 
Q 353 2603 747 3093 
Q 1141 3584 1784 3584 
Q 2172 3584 2450 3431 
Q 2728 3278 2906 2969 
L 2906 3500 
L 3481 3500 
L 3481 434 
z
" transform="scale(0.015625)"/>
      </defs>
      <use xlink:href="#DejaVuSans-54"/>
      <use xlink:href="#DejaVuSans-61" transform="translate(44.583984 0)"/>
      <use xlink:href="#DejaVuSans-6e" transform="translate(105.863281 0)"/>
      <use xlink:href="#DejaVuSans-67" transform="translate(169.242188 0)"/>
      <use xlink:href="#DejaVuSans-65" transform="translate(232.71875 0)"/>
      <use xlink:href="#DejaVuSans-6e" transform="translate(294.242188 0)"/>
      <use xlink:href="#DejaVuSans-74" transform="translate(357.621094 0)"/>
      <use xlink:href="#DejaVuSans-20" transform="translate(396.830078 0)"/>
      <use xlink:href="#DejaVuSans-6c" transform="translate(428.617188 0)"/>
      <use xlink:href="#DejaVuSans-69" transform="translate(456.400391 0)"/>
      <use xlink:href="#DejaVuSans-6e" transform="translate(484.183594 0)"/>
      <use xlink:href="#DejaVuSans-65" transform="translate(547.5625 0)"/>
      <use xlink:href="#DejaVuSans-20" transform="translate(609.085938 0)"/>
      <use xlink:href="#DejaVuSans-28" transform="translate(640.873047 0)"/>
      <use xlink:href="#DejaVuSans-73" transform="translate(679.886719 0)"/>
      <use xlink:href="#DejaVuSans-6c" transform="translate(731.986328 0)"/>
      <use xlink:href="#DejaVuSans-6f" transform="translate(759.769531 0)"/>
      <use xlink:href="#DejaVuSans-70" transform="translate(820.951172 0)"/>
      <use xlink:href="#DejaVuSans-65" transform="translate(884.427734 0)"/>
      <use xlink:href="#DejaVuSans-20" transform="translate(945.951172 0)"/>
      <use xlink:href="#DejaVuSans-3d" transform="translate(977.738281 0)"/>
      <use xlink:href="#DejaVuSans-20" transform="translate(1061.527344 0)"/>
      <use xlink:href="#DejaVuSans-34" transform="translate(1093.314453 0)"/>
      <use xlink:href="#DejaVuSans-29" transform="translate(1156.9375 0)"/>
     </g>
    </g>
   </g>
  </g>
 </g>
 <defs>
  <clipPath id="p6087b3ea52">
   <rect x="48.472188" y="23.837812" width="418.5" height="310.464"/>
  </clipPath>
 </defs>
</svg>
