<?xml version="1.0" encoding="utf-8" standalone="no"?>
<!DOCTYPE svg PUBLIC "-//W3C//DTD SVG 1.1//EN"
  "http://www.w3.org/Graphics/SVG/1.1/DTD/svg11.dtd">
<svg xmlns:xlink="http://www.w3.org/1999/xlink" width="565.054375pt" height="420.360625pt" viewBox="0 0 565.054375 420.360625" xmlns="http://www.w3.org/2000/svg" version="1.1">
 <metadata>
  <rdf:RDF xmlns:dc="http://purl.org/dc/elements/1.1/" xmlns:cc="http://creativecommons.org/ns#" xmlns:rdf="http://www.w3.org/1999/02/22-rdf-syntax-ns#">
   <cc:Work>
    <dc:type rdf:resource="http://purl.org/dc/dcmitype/StillImage"/>
    <dc:date>2026-01-30T14:53:41.905343</dc:date>
    <dc:format>image/svg+xml</dc:format>
    <dc:creator>
     <cc:Agent>
      <dc:title>Matplotlib v3.10.1, https://matplotlib.org/</dc:title>
     </cc:Agent>
    </dc:creator>
   </cc:Work>
  </rdf:RDF>
 </metadata>
 <defs>
  <style type="text/css">*{stroke-linejoin: round; stroke-linecap: butt}</style>
 </defs>
 <g id="figure_1">
  <g id="patch_1">
   <path d="M 0 420.360625 
L 565.054375 420.360625 
L 565.054375 0 
L 0 0 
z
" style="fill: #ffffff"/>
  </g>
  <g id="axes_1">
   <g id="patch_2">
    <path d="M 35.884375 380.4975 
L 557.854375 380.4975 
L 557.854375 34.3575 
L 35.884375 34.3575 
z
" style="fill: #ffffff"/>
   </g>
   <g id="matplotlib.axis_1">
    <g id="xtick_1">
     <g id="line2d_1">
      <path d="M 88.081375 380.4975 
L 88.081375 34.3575 
" clip-path="url(#pb4bc86bcf0)" style="fill: none; stroke: #cccccc; stroke-width: 0.8; stroke-linecap: round"/>
     </g>
     <g id="line2d_2"/>
     <g id="text_1">
      <!-- 0 -->
      <g style="fill: #262626" transform="translate(84.263875 393.115625) scale(0.12 -0.12)">
       <defs>
        <path id="DejaVuSerif-30" d="M 2034 219 
Q 2513 219 2750 744 
Q 2988 1269 2988 2328 
Q 2988 3391 2750 3916 
Q 2513 4441 2034 4441 
Q 1556 4441 1318 3916 
Q 1081 3391 1081 2328 
Q 1081 1269 1318 744 
Q 1556 219 2034 219 
z
M 2034 -91 
Q 1275 -91 848 546 
Q 422 1184 422 2328 
Q 422 3475 848 4112 
Q 1275 4750 2034 4750 
Q 2797 4750 3222 4112 
Q 3647 3475 3647 2328 
Q 3647 1184 3222 546 
Q 2797 -91 2034 -91 
z
" transform="scale(0.015625)"/>
       </defs>
       <use xlink:href="#DejaVuSerif-30"/>
      </g>
     </g>
    </g>
    <g id="xtick_2">
     <g id="line2d_3">
      <path d="M 192.475375 380.4975 
L 192.475375 34.3575 
" clip-path="url(#pb4bc86bcf0)" style="fill: none; stroke: #cccccc; stroke-width: 0.8; stroke-linecap: round"/>
     </g>
     <g id="line2d_4"/>
     <g id="text_2">
      <!-- 1 -->
      <g style="fill: #262626" transform="translate(188.657875 393.115625) scale(0.12 -0.12)">
       <defs>
        <path id="DejaVuSerif-31" d="M 909 0 
L 909 331 
L 1722 331 
L 1722 4213 
L 781 3603 
L 781 4013 
L 1919 4750 
L 2350 4750 
L 2350 331 
L 3163 331 
L 3163 0 
L 909 0 
z
" transform="scale(0.015625)"/>
       </defs>
       <use xlink:href="#DejaVuSerif-31"/>
      </g>
     </g>
    </g>
    <g id="xtick_3">
     <g id="line2d_5">
      <path d="M 296.869375 380.4975 
L 296.869375 34.3575 
" clip-path="url(#pb4bc86bcf0)" style="fill: none; stroke: #cccccc; stroke-width: 0.8; stroke-linecap: round"/>
     </g>
     <g id="line2d_6"/>
     <g id="text_3">
      <!-- 2 -->
      <g style="fill: #262626" transform="translate(293.051875 393.115625) scale(0.12 -0.12)">
       <defs>
        <path id="DejaVuSerif-32" d="M 819 3553 
L 469 3553 
L 469 4384 
Q 803 4563 1142 4656 
Q 1481 4750 1806 4750 
Q 2534 4750 2956 4397 
Q 3378 4044 3378 3438 
Q 3378 2753 2422 1800 
Q 2347 1728 2309 1691 
L 1131 513 
L 3078 513 
L 3078 1088 
L 3444 1088 
L 3444 0 
L 434 0 
L 434 341 
L 1850 1753 
Q 2319 2222 2519 2614 
Q 2719 3006 2719 3438 
Q 2719 3909 2473 4175 
Q 2228 4441 1797 4441 
Q 1350 4441 1106 4219 
Q 863 3997 819 3553 
z
" transform="scale(0.015625)"/>
       </defs>
       <use xlink:href="#DejaVuSerif-32"/>
      </g>
     </g>
    </g>
    <g id="xtick_4">
     <g id="line2d_7">
      <path d="M 401.263375 380.4975 
L 401.263375 34.3575 
" clip-path="url(#pb4bc86bcf0)" style="fill: none; stroke: #cccccc; stroke-width: 0.8; stroke-linecap: round"/>
     </g>
     <g id="line2d_8"/>
     <g id="text_4">
      <!-- 3 -->
      <g style="fill: #262626" transform="translate(397.445875 393.115625) scale(0.12 -0.12)">
       <defs>
        <path id="DejaVuSerif-33" d="M 622 4469 
Q 988 4606 1323 4678 
Q 1659 4750 1953 4750 
Q 2638 4750 3022 4454 
Q 3406 4159 3406 3634 
Q 3406 3213 3140 2930 
Q 2875 2647 2388 2547 
Q 2963 2466 3280 2130 
Q 3597 1794 3597 1259 
Q 3597 606 3158 257 
Q 2719 -91 1894 -91 
Q 1528 -91 1179 -12 
Q 831 66 488 225 
L 488 1131 
L 838 1131 
Q 869 681 1141 450 
Q 1413 219 1906 219 
Q 2384 219 2661 495 
Q 2938 772 2938 1253 
Q 2938 1803 2653 2086 
Q 2369 2369 1819 2369 
L 1522 2369 
L 1522 2688 
L 1678 2688 
Q 2225 2688 2498 2914 
Q 2772 3141 2772 3597 
Q 2772 4006 2547 4223 
Q 2322 4441 1900 4441 
Q 1478 4441 1245 4241 
Q 1013 4041 972 3647 
L 622 3647 
L 622 4469 
z
" transform="scale(0.015625)"/>
       </defs>
       <use xlink:href="#DejaVuSerif-33"/>
      </g>
     </g>
    </g>
    <g id="xtick_5">
     <g id="line2d_9">
      <path d="M 505.657375 380.4975 
L 505.657375 34.3575 
" clip-path="url(#pb4bc86bcf0)" style="fill: none; stroke: #cccccc; stroke-width: 0.8; stroke-linecap: round"/>
     </g>
     <g id="line2d_10"/>
     <g id="text_5">
      <!-- 4 -->
      <g style="fill: #262626" transform="translate(501.839875 393.115625) scale(0.12 -0.12)">
       <defs>
        <path id="DejaVuSerif-34" d="M 2234 1581 
L 2234 4063 
L 641 1581 
L 2234 1581 
z
M 3609 0 
L 1484 0 
L 1484 331 
L 2234 331 
L 2234 1247 
L 197 1247 
L 197 1588 
L 2241 4750 
L 2859 4750 
L 2859 1581 
L 3750 1581 
L 3750 1247 
L 2859 1247 
L 2859 331 
L 3609 331 
L 3609 0 
z
" transform="scale(0.015625)"/>
       </defs>
       <use xlink:href="#DejaVuSerif-34"/>
      </g>
     </g>
    </g>
    <g id="text_6">
     <!-- $x$ -->
     <g style="fill: #262626" transform="translate(292.809375 410.249063) scale(0.14 -0.14)">
      <defs>
       <path id="Cmmi10-78" d="M 500 184 
Q 613 97 819 97 
Q 1019 97 1172 289 
Q 1325 481 1381 709 
L 1672 1844 
Q 1741 2153 1741 2266 
Q 1741 2425 1652 2544 
Q 1563 2663 1403 2663 
Q 1200 2663 1022 2536 
Q 844 2409 722 2214 
Q 600 2019 550 1819 
Q 538 1778 500 1778 
L 422 1778 
Q 372 1778 372 1838 
L 372 1856 
Q 434 2094 584 2320 
Q 734 2547 951 2687 
Q 1169 2828 1416 2828 
Q 1650 2828 1839 2703 
Q 2028 2578 2106 2363 
Q 2216 2559 2386 2693 
Q 2556 2828 2759 2828 
Q 2897 2828 3040 2779 
Q 3184 2731 3275 2631 
Q 3366 2531 3366 2381 
Q 3366 2219 3261 2101 
Q 3156 1984 2994 1984 
Q 2891 1984 2822 2050 
Q 2753 2116 2753 2216 
Q 2753 2350 2845 2451 
Q 2938 2553 3066 2572 
Q 2950 2663 2747 2663 
Q 2541 2663 2389 2472 
Q 2238 2281 2175 2047 
L 1894 916 
Q 1825 659 1825 494 
Q 1825 331 1917 214 
Q 2009 97 2163 97 
Q 2463 97 2698 361 
Q 2934 625 3009 941 
Q 3022 978 3059 978 
L 3138 978 
Q 3163 978 3178 961 
Q 3194 944 3194 922 
Q 3194 916 3188 903 
Q 3097 522 2806 225 
Q 2516 -72 2150 -72 
Q 1916 -72 1727 54 
Q 1538 181 1459 397 
Q 1359 209 1182 68 
Q 1006 -72 806 -72 
Q 669 -72 523 -23 
Q 378 25 287 125 
Q 197 225 197 378 
Q 197 528 301 651 
Q 406 775 563 775 
Q 669 775 741 711 
Q 813 647 813 544 
Q 813 409 723 309 
Q 634 209 500 184 
z
" transform="scale(0.015625)"/>
      </defs>
      <use xlink:href="#Cmmi10-78" transform="translate(0 0.8125)"/>
     </g>
    </g>
   </g>
   <g id="matplotlib.axis_2">
    <g id="ytick_1">
     <g id="line2d_11">
      <path d="M 35.884375 357.4215 
L 557.854375 357.4215 
" clip-path="url(#pb4bc86bcf0)" style="fill: none; stroke: #cccccc; stroke-width: 0.8; stroke-linecap: round"/>
     </g>
     <g id="line2d_12"/>
     <g id="text_7">
      <!-- 0 -->
      <g style="fill: #262626" transform="translate(24.749375 361.980563) scale(0.12 -0.12)">
       <use xlink:href="#DejaVuSerif-30"/>
      </g>
     </g>
    </g>
    <g id="ytick_2">
     <g id="line2d_13">
      <path d="M 35.884375 311.2695 
L 557.854375 311.2695 
" clip-path="url(#pb4bc86bcf0)" style="fill: none; stroke: #cccccc; stroke-width: 0.8; stroke-linecap: round"/>
     </g>
     <g id="line2d_14"/>
     <g id="text_8">
      <!-- 1 -->
      <g style="fill: #262626" transform="translate(24.749375 315.828563) scale(0.12 -0.12)">
       <use xlink:href="#DejaVuSerif-31"/>
      </g>
     </g>
    </g>
    <g id="ytick_3">
     <g id="line2d_15">
      <path d="M 35.884375 265.1175 
L 557.854375 265.1175 
" clip-path="url(#pb4bc86bcf0)" style="fill: none; stroke: #cccccc; stroke-width: 0.8; stroke-linecap: round"/>
     </g>
     <g id="line2d_16"/>
     <g id="text_9">
      <!-- 2 -->
      <g style="fill: #262626" transform="translate(24.749375 269.676563) scale(0.12 -0.12)">
       <use xlink:href="#DejaVuSerif-32"/>
      </g>
     </g>
    </g>
    <g id="ytick_4">
     <g id="line2d_17">
      <path d="M 35.884375 218.9655 
L 557.854375 218.9655 
" clip-path="url(#pb4bc86bcf0)" style="fill: none; stroke: #cccccc; stroke-width: 0.8; stroke-linecap: round"/>
     </g>
     <g id="line2d_18"/>
     <g id="text_10">
      <!-- 3 -->
      <g style="fill: #262626" transform="translate(24.749375 223.524563) scale(0.12 -0.12)">
       <use xlink:href="#DejaVuSerif-33"/>
      </g>
     </g>
    </g>
    <g id="ytick_5">
     <g id="line2d_19">
      <path d="M 35.884375 172.8135 
L 557.854375 172.8135 
" clip-path="url(#pb4bc86bcf0)" style="fill: none; stroke: #cccccc; stroke-width: 0.8; stroke-linecap: round"/>
     </g>
     <g id="line2d_20"/>
     <g id="text_11">
      <!-- 4 -->
      <g style="fill: #262626" transform="translate(24.749375 177.372563) scale(0.12 -0.12)">
       <use xlink:href="#DejaVuSerif-34"/>
      </g>
     </g>
    </g>
    <g id="ytick_6">
     <g id="line2d_21">
      <path d="M 35.884375 126.6615 
L 557.854375 126.6615 
" clip-path="url(#pb4bc86bcf0)" style="fill: none; stroke: #cccccc; stroke-width: 0.8; stroke-linecap: round"/>
     </g>
     <g id="line2d_22"/>
     <g id="text_12">
      <!-- 5 -->
      <g style="fill: #262626" transform="translate(24.749375 131.220563) scale(0.12 -0.12)">
       <defs>
        <path id="DejaVuSerif-35" d="M 3219 4666 
L 3219 4153 
L 1081 4153 
L 1081 2816 
Q 1244 2928 1461 2984 
Q 1678 3041 1947 3041 
Q 2703 3041 3140 2622 
Q 3578 2203 3578 1478 
Q 3578 738 3136 323 
Q 2694 -91 1894 -91 
Q 1572 -91 1234 -12 
Q 897 66 544 225 
L 544 1131 
L 897 1131 
Q 925 688 1179 453 
Q 1434 219 1894 219 
Q 2388 219 2653 544 
Q 2919 869 2919 1478 
Q 2919 2084 2655 2407 
Q 2391 2731 1894 2731 
Q 1613 2731 1398 2631 
Q 1184 2531 1019 2322 
L 750 2322 
L 750 4666 
L 3219 4666 
z
" transform="scale(0.015625)"/>
       </defs>
       <use xlink:href="#DejaVuSerif-35"/>
      </g>
     </g>
    </g>
    <g id="ytick_7">
     <g id="line2d_23">
      <path d="M 35.884375 80.5095 
L 557.854375 80.5095 
" clip-path="url(#pb4bc86bcf0)" style="fill: none; stroke: #cccccc; stroke-width: 0.8; stroke-linecap: round"/>
     </g>
     <g id="line2d_24"/>
     <g id="text_13">
      <!-- 6 -->
      <g style="fill: #262626" transform="translate(24.749375 85.068562) scale(0.12 -0.12)">
       <defs>
        <path id="DejaVuSerif-36" d="M 2094 219 
Q 2534 219 2771 542 
Q 3009 866 3009 1472 
Q 3009 2078 2771 2401 
Q 2534 2725 2094 2725 
Q 1647 2725 1412 2412 
Q 1178 2100 1178 1509 
Q 1178 888 1415 553 
Q 1653 219 2094 219 
z
M 1075 2569 
Q 1288 2803 1556 2918 
Q 1825 3034 2163 3034 
Q 2859 3034 3264 2615 
Q 3669 2197 3669 1472 
Q 3669 763 3233 336 
Q 2797 -91 2069 -91 
Q 1278 -91 853 498 
Q 428 1088 428 2181 
Q 428 3406 931 4078 
Q 1434 4750 2350 4750 
Q 2597 4750 2869 4703 
Q 3141 4656 3425 4563 
L 3425 3794 
L 3072 3794 
Q 3034 4109 2831 4275 
Q 2628 4441 2284 4441 
Q 1678 4441 1381 3981 
Q 1084 3522 1075 2569 
z
" transform="scale(0.015625)"/>
       </defs>
       <use xlink:href="#DejaVuSerif-36"/>
      </g>
     </g>
    </g>
    <g id="ytick_8">
     <g id="line2d_25">
      <path d="M 35.884375 34.3575 
L 557.854375 34.3575 
" clip-path="url(#pb4bc86bcf0)" style="fill: none; stroke: #cccccc; stroke-width: 0.8; stroke-linecap: round"/>
     </g>
     <g id="line2d_26"/>
     <g id="text_14">
      <!-- 7 -->
      <g style="fill: #262626" transform="translate(24.749375 38.916562) scale(0.12 -0.12)">
       <defs>
        <path id="DejaVuSerif-37" d="M 3609 4347 
L 1784 0 
L 1319 0 
L 3059 4153 
L 903 4153 
L 903 3578 
L 538 3578 
L 538 4666 
L 3609 4666 
L 3609 4347 
z
" transform="scale(0.015625)"/>
       </defs>
       <use xlink:href="#DejaVuSerif-37"/>
      </g>
     </g>
    </g>
    <g id="text_15">
     <!-- $y$ -->
     <g style="fill: #262626" transform="translate(17.809375 210.9275) rotate(-90) scale(0.14 -0.14)">
      <defs>
       <path id="Cmmi10-79" d="M 538 -916 
Q 672 -1147 1006 -1147 
Q 1309 -1147 1531 -934 
Q 1753 -722 1889 -420 
Q 2025 -119 2100 197 
Q 1816 -72 1484 -72 
Q 1231 -72 1053 15 
Q 875 103 776 276 
Q 678 450 678 697 
Q 678 906 734 1126 
Q 791 1347 892 1617 
Q 994 1888 1069 2088 
Q 1153 2322 1153 2472 
Q 1153 2663 1013 2663 
Q 759 2663 595 2402 
Q 431 2141 353 1819 
Q 341 1778 300 1778 
L 225 1778 
Q 172 1778 172 1838 
L 172 1856 
Q 275 2238 487 2533 
Q 700 2828 1025 2828 
Q 1253 2828 1411 2678 
Q 1569 2528 1569 2297 
Q 1569 2178 1516 2047 
Q 1488 1969 1388 1706 
Q 1288 1444 1234 1272 
Q 1181 1100 1147 934 
Q 1113 769 1113 603 
Q 1113 391 1203 244 
Q 1294 97 1491 97 
Q 1888 97 2203 581 
L 2688 2553 
Q 2709 2638 2787 2698 
Q 2866 2759 2956 2759 
Q 3034 2759 3092 2709 
Q 3150 2659 3150 2578 
Q 3150 2541 3144 2528 
L 2509 -19 
Q 2425 -347 2200 -647 
Q 1975 -947 1658 -1130 
Q 1341 -1313 997 -1313 
Q 831 -1313 668 -1248 
Q 506 -1184 406 -1056 
Q 306 -928 306 -756 
Q 306 -581 409 -453 
Q 513 -325 684 -325 
Q 788 -325 858 -389 
Q 928 -453 928 -556 
Q 928 -703 818 -812 
Q 709 -922 563 -922 
Q 556 -919 550 -917 
Q 544 -916 538 -916 
z
" transform="scale(0.015625)"/>
      </defs>
      <use xlink:href="#Cmmi10-79" transform="translate(0 0.8125)"/>
     </g>
    </g>
   </g>
   <g id="line2d_27">
    <path d="M 88.081375 265.1175 
L 90.13762 264.208445 
L 92.193866 263.299391 
L 94.250111 262.390336 
L 96.306357 261.481282 
L 98.362602 260.572227 
L 100.418848 259.663173 
L 102.475093 258.754118 
L 104.531339 257.845064 
L 106.587584 256.936009 
L 108.64383 256.026955 
L 110.700075 255.1179 
L 112.75632 254.208845 
L 114.812566 253.299791 
L 116.868811 252.390736 
L 118.925057 251.481682 
L 120.981302 250.572627 
L 123.037548 249.663573 
L 125.093793 248.754518 
L 127.150039 247.845464 
L 129.206284 246.936409 
L 131.26253 246.027355 
L 133.318775 245.1183 
L 135.37502 244.209245 
L 137.431266 243.300191 
L 139.487511 242.391136 
L 141.543757 241.482082 
L 143.600002 240.573027 
L 145.656248 239.663973 
L 147.712493 238.754918 
L 149.768739 237.845864 
L 151.824984 236.936809 
L 153.88123 236.027755 
L 155.937475 235.1187 
L 157.99372 234.209645 
L 160.049966 233.300591 
L 162.106211 232.391536 
L 164.162457 231.482482 
L 166.218702 230.573427 
L 168.274948 229.664373 
L 170.331193 228.755318 
L 172.387439 227.846264 
L 174.443684 226.937209 
L 176.49993 226.028155 
L 178.556175 225.1191 
L 180.61242 224.210045 
L 182.668666 223.300991 
L 184.724911 222.391936 
L 186.781157 221.482882 
L 188.837402 220.573827 
L 190.893648 219.664773 
L 192.949893 218.755718 
L 195.006139 217.846664 
L 197.062384 216.937609 
L 199.11863 216.028555 
L 201.174875 215.1195 
L 203.23112 214.210445 
L 205.287366 213.301391 
L 207.343611 212.392336 
L 209.399857 211.483282 
L 211.456102 210.574227 
L 213.512348 209.665173 
L 215.568593 208.756118 
L 217.624839 207.847064 
L 219.681084 206.938009 
L 221.73733 206.028955 
L 223.793575 205.1199 
L 225.84982 204.210845 
L 227.906066 203.301791 
L 229.962311 202.392736 
L 232.018557 201.483682 
L 234.074802 200.574627 
L 236.131048 199.665573 
L 238.187293 198.756518 
L 240.243539 197.847464 
L 242.299784 196.938409 
L 244.35603 196.029355 
L 246.412275 195.1203 
L 248.46852 194.211245 
L 250.524766 193.302191 
L 252.581011 192.393136 
L 254.637257 191.484082 
L 256.693502 190.575027 
L 258.749748 189.665973 
L 260.805993 188.756918 
L 262.862239 187.847864 
L 264.918484 186.938809 
L 266.97473 186.029755 
L 269.030975 185.1207 
L 271.08722 184.211645 
L 273.143466 183.302591 
L 275.199711 182.393536 
L 277.255957 181.484482 
L 279.312202 180.575427 
L 281.368448 179.666373 
L 283.424693 178.757318 
L 285.480939 177.848264 
L 287.537184 176.939209 
L 289.59343 176.030155 
L 291.649675 175.1211 
" clip-path="url(#pb4bc86bcf0)" style="fill: none; stroke: #0000ff; stroke-width: 2.5; stroke-linecap: round"/>
   </g>
   <g id="line2d_28">
    <path d="M 302.089075 170.5059 
L 304.14532 169.596845 
L 306.201566 168.687791 
L 308.257811 167.778736 
L 310.314057 166.869682 
L 312.370302 165.960627 
L 314.426548 165.051573 
L 316.482793 164.142518 
L 318.539039 163.233464 
L 320.595284 162.324409 
L 322.65153 161.415355 
L 324.707775 160.5063 
L 326.76402 159.597245 
L 328.820266 158.688191 
L 330.876511 157.779136 
L 332.932757 156.870082 
L 334.989002 155.961027 
L 337.045248 155.051973 
L 339.101493 154.142918 
L 341.157739 153.233864 
L 343.213984 152.324809 
L 345.27023 151.415755 
L 347.326475 150.5067 
L 349.38272 149.597645 
L 351.438966 148.688591 
L 353.495211 147.779536 
L 355.551457 146.870482 
L 357.607702 145.961427 
L 359.663948 145.052373 
L 361.720193 144.143318 
L 363.776439 143.234264 
L 365.832684 142.325209 
L 367.88893 141.416155 
L 369.945175 140.5071 
L 372.00142 139.598045 
L 374.057666 138.688991 
L 376.113911 137.779936 
L 378.170157 136.870882 
L 380.226402 135.961827 
L 382.282648 135.052773 
L 384.338893 134.143718 
L 386.395139 133.234664 
L 388.451384 132.325609 
L 390.50763 131.416555 
L 392.563875 130.5075 
L 394.62012 129.598445 
L 396.676366 128.689391 
L 398.732611 127.780336 
L 400.788857 126.871282 
L 402.845102 125.962227 
L 404.901348 125.053173 
L 406.957593 124.144118 
L 409.013839 123.235064 
L 411.070084 122.326009 
L 413.12633 121.416955 
L 415.182575 120.5079 
L 417.23882 119.598845 
L 419.295066 118.689791 
L 421.351311 117.780736 
L 423.407557 116.871682 
L 425.463802 115.962627 
L 427.520048 115.053573 
L 429.576293 114.144518 
L 431.632539 113.235464 
L 433.688784 112.326409 
L 435.74503 111.417355 
L 437.801275 110.5083 
L 439.85752 109.599245 
L 441.913766 108.690191 
L 443.970011 107.781136 
L 446.026257 106.872082 
L 448.082502 105.963027 
L 450.138748 105.053973 
L 452.194993 104.144918 
L 454.251239 103.235864 
L 456.307484 102.326809 
L 458.36373 101.417755 
L 460.419975 100.5087 
L 462.47622 99.599645 
L 464.532466 98.690591 
L 466.588711 97.781536 
L 468.644957 96.872482 
L 470.701202 95.963427 
L 472.757448 95.054373 
L 474.813693 94.145318 
L 476.869939 93.236264 
L 478.926184 92.327209 
L 480.98243 91.418155 
L 483.038675 90.5091 
L 485.09492 89.600045 
L 487.151166 88.690991 
L 489.207411 87.781936 
L 491.263657 86.872882 
L 493.319902 85.963827 
L 495.376148 85.054773 
L 497.432393 84.145718 
L 499.488639 83.236664 
L 501.544884 82.327609 
L 503.60113 81.418555 
L 505.657375 80.5095 
" clip-path="url(#pb4bc86bcf0)" style="fill: none; stroke: #0000ff; stroke-width: 2.5; stroke-linecap: round"/>
   </g>
   <g id="line2d_29">
    <path d="M 35.884375 172.8135 
L 557.854375 172.8135 
" clip-path="url(#pb4bc86bcf0)" style="fill: none; stroke-dasharray: 5.55,2.4; stroke-dashoffset: 0; stroke: #dc2626; stroke-opacity: 0.7; stroke-width: 1.5"/>
   </g>
   <g id="line2d_30">
    <path d="M 296.869375 380.4975 
L 296.869375 34.3575 
" clip-path="url(#pb4bc86bcf0)" style="fill: none; stroke-dasharray: 5.55,2.4; stroke-dashoffset: 0; stroke: #666666; stroke-opacity: 0.5; stroke-width: 1.5"/>
   </g>
   <g id="patch_3">
    <path d="M 35.884375 380.4975 
L 35.884375 34.3575 
" style="fill: none; stroke: #cccccc; stroke-linejoin: miter; stroke-linecap: square"/>
   </g>
   <g id="patch_4">
    <path d="M 35.884375 380.4975 
L 557.854375 380.4975 
" style="fill: none; stroke: #cccccc; stroke-linejoin: miter; stroke-linecap: square"/>
   </g>
   <g id="patch_5">
    <path d="M 194.30724 218.155643 
Q 205.526708 213.195579 215.212332 208.913619 
" style="fill: none; stroke: #059669; stroke-width: 1.5; stroke-linecap: round"/>
    <path d="M 209.851793 208.659407 
L 215.212332 208.913619 
L 211.792639 213.049523 
" style="fill: none; stroke: #059669; stroke-width: 1.5; stroke-linecap: round"/>
   </g>
   <g id="patch_6">
    <path d="M 236.06484 199.694843 
Q 247.284308 194.734779 256.969932 190.452819 
" style="fill: none; stroke: #059669; stroke-width: 1.5; stroke-linecap: round"/>
    <path d="M 251.609393 190.198607 
L 256.969932 190.452819 
L 253.550239 194.588723 
" style="fill: none; stroke: #059669; stroke-width: 1.5; stroke-linecap: round"/>
   </g>
   <g id="patch_7">
    <path d="M 267.38304 185.849243 
Q 278.602508 180.889179 288.288132 176.607219 
" style="fill: none; stroke: #059669; stroke-width: 1.5; stroke-linecap: round"/>
    <path d="M 282.927593 176.353007 
L 288.288132 176.607219 
L 284.868439 180.743123 
" style="fill: none; stroke: #059669; stroke-width: 1.5; stroke-linecap: round"/>
   </g>
   <g id="patch_8">
    <path d="M 399.43151 127.471357 
Q 388.212042 132.431421 378.526418 136.713381 
" style="fill: none; stroke: #059669; stroke-width: 1.5; stroke-linecap: round"/>
    <path d="M 383.886957 136.967593 
L 378.526418 136.713381 
L 381.946111 132.577477 
" style="fill: none; stroke: #059669; stroke-width: 1.5; stroke-linecap: round"/>
   </g>
   <g id="patch_9">
    <path d="M 357.67391 145.932157 
Q 346.454442 150.892221 336.768818 155.174181 
" style="fill: none; stroke: #059669; stroke-width: 1.5; stroke-linecap: round"/>
    <path d="M 342.129357 155.428393 
L 336.768818 155.174181 
L 340.188511 151.038277 
" style="fill: none; stroke: #059669; stroke-width: 1.5; stroke-linecap: round"/>
   </g>
   <g id="patch_10">
    <path d="M 326.35571 159.777757 
Q 315.136242 164.737821 305.450618 169.019781 
" style="fill: none; stroke: #059669; stroke-width: 1.5; stroke-linecap: round"/>
    <path d="M 310.811157 169.273993 
L 305.450618 169.019781 
L 308.870311 164.883877 
" style="fill: none; stroke: #059669; stroke-width: 1.5; stroke-linecap: round"/>
   </g>
   <g id="text_16">
    <!-- $a = 2$ -->
    <g style="fill: #262626" transform="translate(282.829375 371.2671) scale(0.13 -0.13)">
     <defs>
      <path id="Cmmi10-61" d="M 1113 -72 
Q 709 -72 476 233 
Q 244 538 244 953 
Q 244 1363 456 1803 
Q 669 2244 1030 2536 
Q 1391 2828 1806 2828 
Q 1997 2828 2147 2725 
Q 2297 2622 2381 2444 
Q 2453 2700 2663 2700 
Q 2744 2700 2798 2651 
Q 2853 2603 2853 2522 
Q 2853 2503 2851 2493 
Q 2850 2484 2847 2472 
L 2400 684 
Q 2356 494 2356 372 
Q 2356 97 2541 97 
Q 2741 97 2845 351 
Q 2950 606 3022 941 
Q 3034 978 3072 978 
L 3150 978 
Q 3175 978 3190 956 
Q 3206 934 3206 916 
Q 3094 469 2961 198 
Q 2828 -72 2528 -72 
Q 2313 -72 2147 54 
Q 1981 181 1941 391 
Q 1528 -72 1113 -72 
z
M 1119 97 
Q 1350 97 1567 270 
Q 1784 444 1941 678 
Q 1947 684 1947 697 
L 2291 2088 
L 2297 2106 
Q 2259 2334 2132 2498 
Q 2006 2663 1791 2663 
Q 1575 2663 1389 2486 
Q 1203 2309 1075 2069 
Q 950 1813 836 1366 
Q 722 919 722 672 
Q 722 450 817 273 
Q 913 97 1119 97 
z
" transform="scale(0.015625)"/>
      <path id="Cmr10-3d" d="M 481 850 
Q 428 850 393 890 
Q 359 931 359 978 
Q 359 1031 393 1068 
Q 428 1106 481 1106 
L 4500 1106 
Q 4547 1106 4581 1068 
Q 4616 1031 4616 978 
Q 4616 931 4581 890 
Q 4547 850 4500 850 
L 481 850 
z
M 481 2094 
Q 428 2094 393 2131 
Q 359 2169 359 2222 
Q 359 2269 393 2309 
Q 428 2350 481 2350 
L 4500 2350 
Q 4547 2350 4581 2309 
Q 4616 2269 4616 2222 
Q 4616 2169 4581 2131 
Q 4547 2094 4500 2094 
L 481 2094 
z
" transform="scale(0.015625)"/>
      <path id="Cmr10-32" d="M 319 0 
L 319 172 
Q 319 188 331 206 
L 1325 1306 
Q 1550 1550 1690 1715 
Q 1831 1881 1968 2097 
Q 2106 2313 2186 2536 
Q 2266 2759 2266 3009 
Q 2266 3272 2169 3511 
Q 2072 3750 1880 3894 
Q 1688 4038 1416 4038 
Q 1138 4038 916 3870 
Q 694 3703 603 3438 
Q 628 3444 672 3444 
Q 816 3444 917 3347 
Q 1019 3250 1019 3097 
Q 1019 2950 917 2848 
Q 816 2747 672 2747 
Q 522 2747 420 2851 
Q 319 2956 319 3097 
Q 319 3338 409 3548 
Q 500 3759 670 3923 
Q 841 4088 1055 4175 
Q 1269 4263 1509 4263 
Q 1875 4263 2190 4108 
Q 2506 3953 2690 3670 
Q 2875 3388 2875 3009 
Q 2875 2731 2753 2481 
Q 2631 2231 2440 2026 
Q 2250 1822 1953 1562 
Q 1656 1303 1563 1216 
L 838 519 
L 1453 519 
Q 1906 519 2211 526 
Q 2516 534 2534 550 
Q 2609 631 2688 1141 
L 2875 1141 
L 2694 0 
L 319 0 
z
" transform="scale(0.015625)"/>
     </defs>
     <use xlink:href="#Cmmi10-61" transform="translate(0 0.390625)"/>
     <use xlink:href="#Cmr10-3d" transform="translate(70.341797 0.390625)"/>
     <use xlink:href="#Cmr10-32" transform="translate(165.585938 0.390625)"/>
    </g>
   </g>
   <g id="text_17">
    <!-- $L = 4$ -->
    <g style="fill: #262626" transform="translate(26.733175 176.400688) scale(0.13 -0.13)">
     <defs>
      <path id="Cmmi10-4c" d="M 300 0 
Q 238 0 238 84 
Q 241 100 250 139 
Q 259 178 276 201 
Q 294 225 319 225 
Q 709 225 863 269 
Q 947 297 984 441 
L 1863 3956 
Q 1875 4019 1875 4044 
Q 1875 4113 1797 4122 
Q 1678 4147 1338 4147 
Q 1275 4147 1275 4231 
Q 1297 4313 1309 4342 
Q 1322 4372 1381 4372 
L 3272 4372 
Q 3328 4372 3328 4288 
Q 3319 4222 3306 4184 
Q 3294 4147 3244 4147 
Q 2772 4147 2613 4116 
Q 2456 4088 2419 3928 
L 1544 416 
Q 1516 338 1516 275 
Q 1516 225 1734 225 
L 2328 225 
Q 2831 225 3143 425 
Q 3456 625 3606 876 
Q 3756 1128 3857 1398 
Q 3959 1669 4006 1678 
L 4063 1678 
Q 4128 1678 4128 1594 
L 3559 44 
Q 3550 0 3500 0 
L 300 0 
z
" transform="scale(0.015625)"/>
      <path id="Cmr10-34" d="M 178 1056 
L 178 1281 
L 2156 4231 
Q 2178 4263 2222 4263 
L 2316 4263 
Q 2388 4263 2388 4191 
L 2388 1281 
L 3016 1281 
L 3016 1056 
L 2388 1056 
L 2388 428 
Q 2388 297 2575 261 
Q 2763 225 3009 225 
L 3009 0 
L 1247 0 
L 1247 225 
Q 1494 225 1681 261 
Q 1869 297 1869 428 
L 1869 1056 
L 178 1056 
z
M 391 1281 
L 1906 1281 
L 1906 3547 
L 391 1281 
z
" transform="scale(0.015625)"/>
     </defs>
     <use xlink:href="#Cmmi10-4c" transform="translate(0 0.6875)"/>
     <use xlink:href="#Cmr10-3d" transform="translate(85.576172 0.6875)"/>
     <use xlink:href="#Cmr10-34" transform="translate(180.820312 0.6875)"/>
    </g>
   </g>
   <g id="patch_11">
    <path d="M 376.517455 113.09413 
Q 330.869295 130.857066 298.825578 170.386136 
" style="fill: none; stroke: #2563eb; stroke-linecap: round"/>
    <path d="M 304.527113 167.79915 
L 298.825578 170.386136 
L 300.17691 164.272716 
" style="fill: none; stroke: #2563eb; stroke-linecap: round"/>
   </g>
   <g id="text_18">
    <g id="patch_12">
     <path d="M 385.882175 119.9655 
L 458.402175 119.9655 
Q 465.402175 119.9655 465.402175 112.9655 
L 465.402175 89.8655 
Q 465.402175 82.8655 458.402175 82.8655 
L 385.882175 82.8655 
Q 378.882175 82.8655 378.882175 89.8655 
L 378.882175 112.9655 
Q 378.882175 119.9655 385.882175 119.9655 
z
" style="fill: #f0f9ff; opacity: 0.9; stroke: #2563eb; stroke-linejoin: miter"/>
    </g>
    <!-- $\lim_{x \to 2} \frac{x^2-4}{x-2} = 4$ -->
    <g style="fill: #262626" transform="translate(385.882175 103.5855) scale(0.14 -0.14)">
     <defs>
      <path id="Cmr10-6c" d="M 197 0 
L 197 225 
Q 416 225 556 259 
Q 697 294 697 428 
L 697 3788 
Q 697 3959 645 4036 
Q 594 4113 497 4130 
Q 400 4147 197 4147 
L 197 4372 
L 1147 4441 
L 1147 428 
Q 1147 294 1287 259 
Q 1428 225 1644 225 
L 1644 0 
L 197 0 
z
" transform="scale(0.015625)"/>
      <path id="Cmr10-69" d="M 197 0 
L 197 225 
Q 416 225 556 259 
Q 697 294 697 428 
L 697 2175 
Q 697 2422 601 2478 
Q 506 2534 225 2534 
L 225 2759 
L 1147 2828 
L 1147 428 
Q 1147 294 1269 259 
Q 1391 225 1594 225 
L 1594 0 
L 197 0 
z
M 469 3928 
Q 469 4069 575 4175 
Q 681 4281 819 4281 
Q 909 4281 993 4234 
Q 1078 4188 1125 4103 
Q 1172 4019 1172 3928 
Q 1172 3791 1065 3684 
Q 959 3578 819 3578 
Q 681 3578 575 3684 
Q 469 3791 469 3928 
z
" transform="scale(0.015625)"/>
      <path id="Cmr10-6d" d="M 191 0 
L 191 225 
Q 409 225 550 259 
Q 691 294 691 428 
L 691 2175 
Q 691 2347 639 2423 
Q 588 2500 491 2517 
Q 394 2534 191 2534 
L 191 2759 
L 1119 2828 
L 1119 2203 
Q 1247 2478 1498 2653 
Q 1750 2828 2047 2828 
Q 2784 2828 2913 2228 
Q 3041 2497 3287 2662 
Q 3534 2828 3828 2828 
Q 4119 2828 4317 2734 
Q 4516 2641 4616 2448 
Q 4716 2256 4716 1966 
L 4716 428 
Q 4716 294 4858 259 
Q 5000 225 5216 225 
L 5216 0 
L 3750 0 
L 3750 225 
Q 3969 225 4109 259 
Q 4250 294 4250 428 
L 4250 1947 
Q 4250 2269 4159 2466 
Q 4069 2663 3788 2663 
Q 3419 2663 3178 2366 
Q 2938 2069 2938 1691 
L 2938 428 
Q 2938 294 3078 259 
Q 3219 225 3438 225 
L 3438 0 
L 1972 0 
L 1972 225 
Q 2191 225 2331 259 
Q 2472 294 2472 428 
L 2472 1947 
Q 2472 2259 2381 2461 
Q 2291 2663 2009 2663 
Q 1638 2663 1398 2366 
Q 1159 2069 1159 1691 
L 1159 428 
Q 1159 294 1300 259 
Q 1441 225 1656 225 
L 1656 0 
L 191 0 
z
" transform="scale(0.015625)"/>
      <path id="Cmsy10-21" d="M 481 1472 
Q 428 1472 393 1512 
Q 359 1553 359 1600 
Q 359 1647 393 1687 
Q 428 1728 481 1728 
L 5338 1728 
Q 5094 1903 4906 2133 
Q 4719 2363 4594 2627 
Q 4469 2891 4416 3188 
Q 4416 3272 4481 3272 
L 4609 3272 
Q 4631 3272 4648 3253 
Q 4666 3234 4672 3213 
Q 4725 2938 4839 2702 
Q 4953 2466 5125 2262 
Q 5297 2059 5509 1912 
Q 5722 1766 5991 1672 
Q 6034 1644 6034 1600 
Q 6034 1550 5991 1538 
Q 5656 1422 5378 1192 
Q 5100 963 4919 652 
Q 4738 341 4672 -13 
Q 4666 -34 4647 -53 
Q 4628 -72 4609 -72 
L 4481 -72 
Q 4416 -72 4416 13 
Q 4497 450 4740 836 
Q 4984 1222 5338 1472 
L 481 1472 
z
" transform="scale(0.015625)"/>
      <path id="Cmsy10-a1" d="M 653 1472 
Q 600 1472 565 1512 
Q 531 1553 531 1600 
Q 531 1647 565 1687 
Q 600 1728 653 1728 
L 4325 1728 
Q 4375 1728 4408 1687 
Q 4441 1647 4441 1600 
Q 4441 1553 4408 1512 
Q 4375 1472 4325 1472 
L 653 1472 
z
" transform="scale(0.015625)"/>
     </defs>
     <use xlink:href="#Cmr10-6c" transform="translate(3 0.289062)"/>
     <use xlink:href="#Cmr10-69" transform="translate(30.685547 0.289062)"/>
     <use xlink:href="#Cmr10-6d" transform="translate(58.371094 0.289062)"/>
     <use xlink:href="#Cmmi10-78" transform="translate(0 -65.0875) scale(0.7)"/>
     <use xlink:href="#Cmsy10-21" transform="translate(39.956055 -65.0875) scale(0.7)"/>
     <use xlink:href="#Cmr10-32" transform="translate(109.956055 -65.0875) scale(0.7)"/>
     <use xlink:href="#Cmmi10-78" transform="translate(144.956055 38.576563) scale(0.7)"/>
     <use xlink:href="#Cmr10-32" transform="translate(189.324406 65.361406) scale(0.49)"/>
     <use xlink:href="#Cmsy10-a1" transform="translate(240.82228 38.576563) scale(0.7)"/>
     <use xlink:href="#Cmr10-34" transform="translate(307.493179 38.576563) scale(0.7)"/>
     <use xlink:href="#Cmmi10-78" transform="translate(166.956055 -40.0875) scale(0.7)"/>
     <use xlink:href="#Cmsy10-a1" transform="translate(219.203125 -40.0875) scale(0.7)"/>
     <use xlink:href="#Cmr10-32" transform="translate(285.874023 -40.0875) scale(0.7)"/>
     <use xlink:href="#Cmr10-3d" transform="translate(372.551773 0.289062)"/>
     <use xlink:href="#Cmr10-34" transform="translate(467.795913 0.289062)"/>
     <path d="M 144.956055 12.789062 
L 144.956055 19.039062 
L 342.493179 19.039062 
L 342.493179 12.789062 
L 144.956055 12.789062 
z
"/>
    </g>
   </g>
   <g id="text_19">
    <!-- The Limit Concept: Approaching a Value -->
    <g style="fill: #262626" transform="translate(115.441875 19.3575) scale(0.16 -0.16)">
     <defs>
      <path id="DejaVuSerif-Bold-54" d="M 1159 0 
L 1159 378 
L 1778 378 
L 1778 4238 
L 500 4238 
L 500 3500 
L 72 3500 
L 72 4666 
L 4697 4666 
L 4697 3500 
L 4275 3500 
L 4275 4238 
L 2988 4238 
L 2988 378 
L 3609 378 
L 3609 0 
L 1159 0 
z
" transform="scale(0.015625)"/>
      <path id="DejaVuSerif-Bold-68" d="M 219 0 
L 219 378 
L 691 378 
L 691 4488 
L 197 4488 
L 197 4863 
L 1797 4863 
L 1797 2853 
Q 1997 3150 2253 3281 
Q 2509 3413 2900 3413 
Q 3459 3413 3745 3083 
Q 4031 2753 4031 2113 
L 4031 378 
L 4506 378 
L 4506 0 
L 2522 0 
L 2522 378 
L 2925 378 
L 2925 2144 
Q 2925 2566 2817 2730 
Q 2709 2894 2444 2894 
Q 2109 2894 1953 2648 
Q 1797 2403 1797 1869 
L 1797 378 
L 2203 378 
L 2203 0 
L 219 0 
z
" transform="scale(0.015625)"/>
      <path id="DejaVuSerif-Bold-65" d="M 2566 1875 
Q 2566 2531 2444 2795 
Q 2322 3059 2028 3059 
Q 1744 3059 1620 2800 
Q 1497 2541 1497 1931 
L 1497 1875 
L 2566 1875 
z
M 3781 1503 
L 1497 1503 
L 1497 1478 
Q 1497 834 1690 548 
Q 1884 263 2316 263 
Q 2675 263 2897 453 
Q 3119 644 3181 1006 
L 3700 1006 
Q 3566 441 3166 175 
Q 2766 -91 2047 -91 
Q 1184 -91 723 364 
Q 263 819 263 1663 
Q 263 2488 734 2950 
Q 1206 3413 2047 3413 
Q 2872 3413 3312 2927 
Q 3753 2441 3781 1503 
z
" transform="scale(0.015625)"/>
      <path id="DejaVuSerif-Bold-20" transform="scale(0.015625)"/>
      <path id="DejaVuSerif-Bold-4c" d="M 300 0 
L 300 378 
L 897 378 
L 897 4288 
L 300 4288 
L 300 4666 
L 2700 4666 
L 2700 4288 
L 2100 4288 
L 2100 428 
L 3938 428 
L 3938 1166 
L 4359 1166 
L 4359 0 
L 300 0 
z
" transform="scale(0.015625)"/>
      <path id="DejaVuSerif-Bold-69" d="M 588 4263 
Q 588 4516 763 4689 
Q 938 4863 1191 4863 
Q 1438 4863 1611 4689 
Q 1784 4516 1784 4263 
Q 1784 4016 1611 3842 
Q 1438 3669 1191 3669 
Q 938 3669 763 3841 
Q 588 4013 588 4263 
z
M 1797 378 
L 2272 378 
L 2272 0 
L 219 0 
L 219 378 
L 691 378 
L 691 2944 
L 219 2944 
L 219 3322 
L 1797 3322 
L 1797 378 
z
" transform="scale(0.015625)"/>
      <path id="DejaVuSerif-Bold-6d" d="M 3884 2778 
Q 4116 3109 4384 3261 
Q 4653 3413 5013 3413 
Q 5584 3413 5867 3089 
Q 6150 2766 6150 2113 
L 6150 378 
L 6625 378 
L 6625 0 
L 4647 0 
L 4647 378 
L 5044 378 
L 5044 1947 
Q 5044 2569 4948 2731 
Q 4853 2894 4594 2894 
Q 4300 2894 4137 2667 
Q 3975 2441 3975 2022 
L 3975 378 
L 4372 378 
L 4372 0 
L 2472 0 
L 2472 378 
L 2869 378 
L 2869 1947 
Q 2869 2569 2772 2731 
Q 2675 2894 2419 2894 
Q 2122 2894 1959 2667 
Q 1797 2441 1797 2022 
L 1797 378 
L 2194 378 
L 2194 0 
L 219 0 
L 219 378 
L 691 378 
L 691 2944 
L 219 2944 
L 219 3322 
L 1797 3322 
L 1797 2853 
Q 1991 3144 2241 3278 
Q 2491 3413 2834 3413 
Q 3241 3413 3494 3258 
Q 3747 3103 3884 2778 
z
" transform="scale(0.015625)"/>
      <path id="DejaVuSerif-Bold-74" d="M 634 2944 
L 153 2944 
L 153 3322 
L 634 3322 
L 634 4353 
L 1741 4353 
L 1741 3322 
L 2663 3322 
L 2663 2944 
L 1741 2944 
L 1741 909 
Q 1741 475 1809 369 
Q 1878 263 2059 263 
Q 2259 263 2356 397 
Q 2453 531 2459 813 
L 2925 813 
Q 2897 313 2651 111 
Q 2406 -91 1806 -91 
Q 1122 -91 878 123 
Q 634 338 634 909 
L 634 2944 
z
" transform="scale(0.015625)"/>
      <path id="DejaVuSerif-Bold-43" d="M 4769 1331 
Q 4584 609 4106 259 
Q 3628 -91 2822 -91 
Q 1641 -91 955 561 
Q 269 1213 269 2328 
Q 269 3447 955 4098 
Q 1641 4750 2822 4750 
Q 3238 4750 3688 4650 
Q 4138 4550 4641 4347 
L 4641 3200 
L 4244 3200 
Q 4122 3788 3800 4080 
Q 3478 4372 2950 4372 
Q 2269 4372 1937 3870 
Q 1606 3369 1606 2328 
Q 1606 1288 1937 788 
Q 2269 288 2956 288 
Q 3422 288 3717 547 
Q 4013 806 4147 1331 
L 4769 1331 
z
" transform="scale(0.015625)"/>
      <path id="DejaVuSerif-Bold-6f" d="M 2138 263 
Q 2488 263 2630 563 
Q 2772 863 2772 1663 
Q 2772 2463 2631 2761 
Q 2491 3059 2138 3059 
Q 1784 3059 1640 2757 
Q 1497 2456 1497 1663 
Q 1497 869 1640 566 
Q 1784 263 2138 263 
z
M 2138 -91 
Q 1259 -91 761 376 
Q 263 844 263 1663 
Q 263 2484 761 2948 
Q 1259 3413 2138 3413 
Q 3019 3413 3516 2948 
Q 4013 2484 4013 1663 
Q 4013 844 3514 376 
Q 3016 -91 2138 -91 
z
" transform="scale(0.015625)"/>
      <path id="DejaVuSerif-Bold-6e" d="M 219 0 
L 219 378 
L 691 378 
L 691 2944 
L 219 2944 
L 219 3322 
L 1797 3322 
L 1797 2853 
Q 1997 3150 2253 3281 
Q 2509 3413 2900 3413 
Q 3459 3413 3745 3083 
Q 4031 2753 4031 2113 
L 4031 378 
L 4506 378 
L 4506 0 
L 2522 0 
L 2522 378 
L 2925 378 
L 2925 2144 
Q 2925 2566 2817 2730 
Q 2709 2894 2444 2894 
Q 2109 2894 1953 2648 
Q 1797 2403 1797 1869 
L 1797 378 
L 2203 378 
L 2203 0 
L 219 0 
z
" transform="scale(0.015625)"/>
      <path id="DejaVuSerif-Bold-63" d="M 3609 1038 
Q 3491 469 3123 189 
Q 2756 -91 2125 -91 
Q 1238 -91 750 368 
Q 263 828 263 1663 
Q 263 2488 744 2950 
Q 1225 3413 2081 3413 
Q 2428 3413 2781 3347 
Q 3134 3281 3500 3150 
L 3500 2228 
L 3150 2228 
Q 3100 2650 2903 2854 
Q 2706 3059 2350 3059 
Q 1888 3059 1692 2746 
Q 1497 2434 1497 1663 
Q 1497 909 1687 586 
Q 1878 263 2309 263 
Q 2644 263 2845 463 
Q 3047 663 3091 1038 
L 3609 1038 
z
" transform="scale(0.015625)"/>
      <path id="DejaVuSerif-Bold-70" d="M 1728 1825 
L 1728 1497 
Q 1728 916 1876 656 
Q 2025 397 2356 397 
Q 2697 397 2836 672 
Q 2975 947 2975 1663 
Q 2975 2378 2836 2651 
Q 2697 2925 2356 2925 
Q 2025 2925 1876 2665 
Q 1728 2406 1728 1825 
z
M 622 2944 
L 147 2944 
L 147 3322 
L 1728 3322 
L 1728 2900 
Q 1869 3159 2106 3286 
Q 2344 3413 2694 3413 
Q 3403 3413 3811 2945 
Q 4219 2478 4219 1663 
Q 4219 847 3811 378 
Q 3403 -91 2694 -91 
Q 2344 -91 2106 36 
Q 1869 163 1728 422 
L 1728 -953 
L 2241 -953 
L 2241 -1331 
L 147 -1331 
L 147 -953 
L 622 -953 
L 622 2944 
z
" transform="scale(0.015625)"/>
      <path id="DejaVuSerif-Bold-3a" d="M 588 2541 
Q 588 2788 761 2963 
Q 934 3138 1178 3138 
Q 1422 3138 1597 2961 
Q 1772 2784 1772 2541 
Q 1772 2297 1598 2125 
Q 1425 1953 1178 1953 
Q 931 1953 759 2125 
Q 588 2297 588 2541 
z
M 588 506 
Q 588 750 761 925 
Q 934 1100 1178 1100 
Q 1422 1100 1597 925 
Q 1772 750 1772 506 
Q 1772 259 1597 84 
Q 1422 -91 1178 -91 
Q 934 -91 761 84 
Q 588 259 588 506 
z
" transform="scale(0.015625)"/>
      <path id="DejaVuSerif-Bold-41" d="M -50 0 
L -50 378 
L 331 378 
L 2088 4666 
L 2834 4666 
L 4594 378 
L 5038 378 
L 5038 0 
L 2853 0 
L 2853 378 
L 3309 378 
L 2925 1331 
L 1172 1331 
L 781 378 
L 1338 378 
L 1338 0 
L -50 0 
z
M 1325 1709 
L 2772 1709 
L 2053 3494 
L 1325 1709 
z
" transform="scale(0.015625)"/>
      <path id="DejaVuSerif-Bold-72" d="M 3438 3359 
L 3438 2369 
L 3084 2369 
Q 3066 2634 2941 2764 
Q 2816 2894 2578 2894 
Q 2216 2894 2006 2575 
Q 1797 2256 1797 1691 
L 1797 378 
L 2400 378 
L 2400 0 
L 219 0 
L 219 378 
L 691 378 
L 691 2944 
L 184 2944 
L 184 3322 
L 1797 3322 
L 1797 2731 
Q 1959 3078 2226 3245 
Q 2494 3413 2881 3413 
Q 2978 3413 3117 3398 
Q 3256 3384 3438 3359 
z
" transform="scale(0.015625)"/>
      <path id="DejaVuSerif-Bold-61" d="M 3525 2041 
L 3525 378 
L 4000 378 
L 4000 0 
L 2419 0 
L 2419 422 
Q 2200 159 1931 34 
Q 1663 -91 1319 -91 
Q 809 -91 536 182 
Q 263 456 263 966 
Q 263 1525 655 1803 
Q 1047 2081 1838 2081 
L 2419 2081 
L 2419 2278 
Q 2419 2681 2228 2873 
Q 2038 3066 1638 3066 
Q 1306 3066 1126 2930 
Q 947 2794 872 2484 
L 519 2484 
L 519 3200 
Q 816 3306 1134 3359 
Q 1453 3413 1806 3413 
Q 2697 3413 3111 3081 
Q 3525 2750 3525 2041 
z
M 2419 1044 
L 2419 1709 
L 2003 1709 
Q 1694 1709 1528 1540 
Q 1363 1372 1363 1056 
Q 1363 741 1483 584 
Q 1603 428 1850 428 
Q 2106 428 2262 597 
Q 2419 766 2419 1044 
z
" transform="scale(0.015625)"/>
      <path id="DejaVuSerif-Bold-67" d="M 3853 2944 
L 3853 44 
Q 3853 -656 3354 -1039 
Q 2856 -1422 1947 -1422 
Q 1616 -1422 1275 -1370 
Q 934 -1319 575 -1216 
L 575 -422 
L 928 -422 
Q 975 -750 1192 -909 
Q 1409 -1069 1813 -1069 
Q 2325 -1069 2536 -823 
Q 2747 -578 2747 44 
L 2747 422 
Q 2606 163 2367 36 
Q 2128 -91 1778 -91 
Q 1072 -91 667 378 
Q 263 847 263 1663 
Q 263 2481 667 2947 
Q 1072 3413 1778 3413 
Q 2128 3413 2367 3286 
Q 2606 3159 2747 2900 
L 2747 3322 
L 4325 3322 
L 4325 2944 
L 3853 2944 
z
M 2747 1825 
Q 2747 2406 2597 2665 
Q 2447 2925 2119 2925 
Q 1775 2925 1636 2651 
Q 1497 2378 1497 1663 
Q 1497 947 1637 672 
Q 1778 397 2119 397 
Q 2447 397 2597 656 
Q 2747 916 2747 1497 
L 2747 1825 
z
" transform="scale(0.015625)"/>
      <path id="DejaVuSerif-Bold-56" d="M 5056 4666 
L 5056 4288 
L 4666 4288 
L 2906 0 
L 2163 0 
L 403 4288 
L -38 4288 
L -38 4666 
L 2150 4666 
L 2150 4288 
L 1697 4288 
L 2956 1197 
L 4225 4288 
L 3669 4288 
L 3669 4666 
L 5056 4666 
z
" transform="scale(0.015625)"/>
      <path id="DejaVuSerif-Bold-6c" d="M 1797 378 
L 2272 378 
L 2272 0 
L 219 0 
L 219 378 
L 691 378 
L 691 4488 
L 219 4488 
L 219 4863 
L 1797 4863 
L 1797 378 
z
" transform="scale(0.015625)"/>
      <path id="DejaVuSerif-Bold-75" d="M 3963 3322 
L 3963 378 
L 4434 378 
L 4434 0 
L 2853 0 
L 2853 469 
Q 2656 172 2400 40 
Q 2144 -91 1753 -91 
Q 1194 -91 908 239 
Q 622 569 622 1209 
L 622 2944 
L 147 2944 
L 147 3322 
L 1728 3322 
L 1728 1381 
Q 1728 763 1831 595 
Q 1934 428 2209 428 
Q 2544 428 2698 675 
Q 2853 922 2853 1459 
L 2853 2944 
L 2450 2944 
L 2450 3322 
L 3963 3322 
z
" transform="scale(0.015625)"/>
     </defs>
     <use xlink:href="#DejaVuSerif-Bold-54"/>
     <use xlink:href="#DejaVuSerif-Bold-68" transform="translate(74.414062 0)"/>
     <use xlink:href="#DejaVuSerif-Bold-65" transform="translate(147.119141 0)"/>
     <use xlink:href="#DejaVuSerif-Bold-20" transform="translate(210.742188 0)"/>
     <use xlink:href="#DejaVuSerif-Bold-4c" transform="translate(245.556641 0)"/>
     <use xlink:href="#DejaVuSerif-Bold-69" transform="translate(315.869141 0)"/>
     <use xlink:href="#DejaVuSerif-Bold-6d" transform="translate(353.857422 0)"/>
     <use xlink:href="#DejaVuSerif-Bold-69" transform="translate(459.667969 0)"/>
     <use xlink:href="#DejaVuSerif-Bold-74" transform="translate(497.65625 0)"/>
     <use xlink:href="#DejaVuSerif-Bold-20" transform="translate(543.847656 0)"/>
     <use xlink:href="#DejaVuSerif-Bold-43" transform="translate(578.662109 0)"/>
     <use xlink:href="#DejaVuSerif-Bold-6f" transform="translate(658.251953 0)"/>
     <use xlink:href="#DejaVuSerif-Bold-6e" transform="translate(724.951172 0)"/>
     <use xlink:href="#DejaVuSerif-Bold-63" transform="translate(797.65625 0)"/>
     <use xlink:href="#DejaVuSerif-Bold-65" transform="translate(858.544922 0)"/>
     <use xlink:href="#DejaVuSerif-Bold-70" transform="translate(922.167969 0)"/>
     <use xlink:href="#DejaVuSerif-Bold-74" transform="translate(992.089844 0)"/>
     <use xlink:href="#DejaVuSerif-Bold-3a" transform="translate(1038.28125 0)"/>
     <use xlink:href="#DejaVuSerif-Bold-20" transform="translate(1075.195312 0)"/>
     <use xlink:href="#DejaVuSerif-Bold-41" transform="translate(1110.009766 0)"/>
     <use xlink:href="#DejaVuSerif-Bold-70" transform="translate(1187.597656 0)"/>
     <use xlink:href="#DejaVuSerif-Bold-70" transform="translate(1257.519531 0)"/>
     <use xlink:href="#DejaVuSerif-Bold-72" transform="translate(1327.441406 0)"/>
     <use xlink:href="#DejaVuSerif-Bold-6f" transform="translate(1380.126953 0)"/>
     <use xlink:href="#DejaVuSerif-Bold-61" transform="translate(1446.826172 0)"/>
     <use xlink:href="#DejaVuSerif-Bold-63" transform="translate(1511.621094 0)"/>
     <use xlink:href="#DejaVuSerif-Bold-68" transform="translate(1572.509766 0)"/>
     <use xlink:href="#DejaVuSerif-Bold-69" transform="translate(1645.214844 0)"/>
     <use xlink:href="#DejaVuSerif-Bold-6e" transform="translate(1683.203125 0)"/>
     <use xlink:href="#DejaVuSerif-Bold-67" transform="translate(1755.908203 0)"/>
     <use xlink:href="#DejaVuSerif-Bold-20" transform="translate(1825.830078 0)"/>
     <use xlink:href="#DejaVuSerif-Bold-61" transform="translate(1860.644531 0)"/>
     <use xlink:href="#DejaVuSerif-Bold-20" transform="translate(1925.439453 0)"/>
     <use xlink:href="#DejaVuSerif-Bold-56" transform="translate(1960.253906 0)"/>
     <use xlink:href="#DejaVuSerif-Bold-61" transform="translate(2028.716797 0)"/>
     <use xlink:href="#DejaVuSerif-Bold-6c" transform="translate(2093.511719 0)"/>
     <use xlink:href="#DejaVuSerif-Bold-75" transform="translate(2131.5 0)"/>
     <use xlink:href="#DejaVuSerif-Bold-65" transform="translate(2204.205078 0)"/>
    </g>
   </g>
   <g id="line2d_31">
    <defs>
     <path id="mee13780f9b" d="M 0 6 
C 1.591219 6 3.117479 5.367802 4.242641 4.242641 
C 5.367802 3.117479 6 1.591219 6 0 
C 6 -1.591219 5.367802 -3.117479 4.242641 -4.242641 
C 3.117479 -5.367802 1.591219 -6 0 -6 
C -1.591219 -6 -3.117479 -5.367802 -4.242641 -4.242641 
C -5.367802 -3.117479 -6 -1.591219 -6 0 
C -6 1.591219 -5.367802 3.117479 -4.242641 4.242641 
C -3.117479 5.367802 -1.591219 6 0 6 
z
" style="stroke: #dc2626; stroke-width: 2.5"/>
    </defs>
    <g clip-path="url(#pb4bc86bcf0)">
     <use xlink:href="#mee13780f9b" x="296.869375" y="172.8135" style="fill: #ffffff; stroke: #dc2626; stroke-width: 2.5"/>
    </g>
   </g>
   <g id="legend_1">
    <g id="line2d_32">
     <path d="M 45.784375 51.1875 
L 56.784375 51.1875 
L 67.784375 51.1875 
" style="fill: none; stroke: #0000ff; stroke-width: 2.5; stroke-linecap: round"/>
    </g>
    <g id="text_20">
     <!-- $f(x) = \frac{x^2 - 4}{x - 2}$ -->
     <g style="fill: #262626" transform="translate(76.584375 55.0375) scale(0.11 -0.11)">
      <defs>
       <path id="Cmmi10-66" d="M 622 -1056 
Q 741 -1147 909 -1147 
Q 1138 -1147 1281 -641 
Q 1341 -397 1606 966 
L 1900 2534 
L 1350 2534 
Q 1288 2534 1288 2619 
Q 1313 2759 1369 2759 
L 1941 2759 
L 2016 3175 
Q 2053 3369 2084 3508 
Q 2116 3647 2152 3765 
Q 2188 3884 2259 4031 
Q 2369 4241 2555 4377 
Q 2741 4513 2956 4513 
Q 3097 4513 3230 4461 
Q 3363 4409 3447 4306 
Q 3531 4203 3531 4063 
Q 3531 3900 3423 3779 
Q 3316 3659 3163 3659 
Q 3059 3659 2986 3723 
Q 2913 3788 2913 3891 
Q 2913 4031 3008 4136 
Q 3103 4241 3244 4256 
Q 3125 4347 2950 4347 
Q 2853 4347 2767 4256 
Q 2681 4166 2656 4063 
Q 2616 3900 2478 3181 
L 2400 2759 
L 3059 2759 
Q 3122 2759 3122 2675 
Q 3119 2659 3109 2620 
Q 3100 2581 3083 2557 
Q 3066 2534 3041 2534 
L 2356 2534 
L 2059 972 
Q 2003 631 1929 279 
Q 1856 -72 1723 -442 
Q 1591 -813 1384 -1063 
Q 1178 -1313 897 -1313 
Q 681 -1313 511 -1189 
Q 341 -1066 341 -863 
Q 341 -700 445 -579 
Q 550 -459 709 -459 
Q 816 -459 887 -523 
Q 959 -588 959 -691 
Q 959 -828 857 -942 
Q 756 -1056 622 -1056 
z
" transform="scale(0.015625)"/>
       <path id="Cmr10-28" d="M 1984 -1588 
Q 1628 -1306 1370 -942 
Q 1113 -578 948 -165 
Q 784 247 703 697 
Q 622 1147 622 1600 
Q 622 2059 703 2509 
Q 784 2959 951 3375 
Q 1119 3791 1378 4153 
Q 1638 4516 1984 4788 
Q 1984 4800 2016 4800 
L 2075 4800 
Q 2094 4800 2109 4783 
Q 2125 4766 2125 4744 
Q 2125 4716 2113 4703 
Q 1800 4397 1592 4047 
Q 1384 3697 1257 3301 
Q 1131 2906 1075 2482 
Q 1019 2059 1019 1600 
Q 1019 -434 2106 -1491 
Q 2125 -1509 2125 -1544 
Q 2125 -1559 2108 -1579 
Q 2091 -1600 2075 -1600 
L 2016 -1600 
Q 1984 -1600 1984 -1588 
z
" transform="scale(0.015625)"/>
       <path id="Cmr10-29" d="M 416 -1600 
Q 359 -1600 359 -1544 
Q 359 -1516 372 -1503 
Q 1466 -434 1466 1600 
Q 1466 3634 384 4691 
Q 359 4706 359 4744 
Q 359 4766 376 4783 
Q 394 4800 416 4800 
L 475 4800 
Q 494 4800 506 4788 
Q 966 4425 1272 3906 
Q 1578 3388 1720 2800 
Q 1863 2213 1863 1600 
Q 1863 1147 1786 708 
Q 1709 269 1542 -157 
Q 1375 -584 1119 -945 
Q 863 -1306 506 -1588 
Q 494 -1600 475 -1600 
L 416 -1600 
z
" transform="scale(0.015625)"/>
      </defs>
      <use xlink:href="#Cmmi10-66" transform="translate(0 0.289062)"/>
      <use xlink:href="#Cmr10-28" transform="translate(48.876953 0.289062)"/>
      <use xlink:href="#Cmmi10-78" transform="translate(87.695312 0.289062)"/>
      <use xlink:href="#Cmr10-29" transform="translate(144.775391 0.289062)"/>
      <use xlink:href="#Cmr10-3d" transform="translate(201.152344 0.289062)"/>
      <use xlink:href="#Cmmi10-78" transform="translate(296.396484 38.576563) scale(0.7)"/>
      <use xlink:href="#Cmr10-32" transform="translate(340.764836 65.361406) scale(0.49)"/>
      <use xlink:href="#Cmsy10-a1" transform="translate(382.019992 38.576563) scale(0.7)"/>
      <use xlink:href="#Cmr10-34" transform="translate(448.690891 38.576563) scale(0.7)"/>
      <use xlink:href="#Cmmi10-78" transform="translate(313.396484 -40.0875) scale(0.7)"/>
      <use xlink:href="#Cmsy10-a1" transform="translate(365.643555 -40.0875) scale(0.7)"/>
      <use xlink:href="#Cmr10-32" transform="translate(432.314453 -40.0875) scale(0.7)"/>
      <path d="M 296.396484 12.789062 
L 296.396484 19.039062 
L 483.690891 19.039062 
L 483.690891 12.789062 
L 296.396484 12.789062 
z
"/>
     </g>
    </g>
    <g id="line2d_33">
     <path d="M 45.784375 69.665781 
L 56.784375 69.665781 
L 67.784375 69.665781 
" style="fill: none; stroke-dasharray: 5.55,2.4; stroke-dashoffset: 0; stroke: #dc2626; stroke-opacity: 0.7; stroke-width: 1.5"/>
    </g>
    <g id="text_21">
     <!-- $L = 4$ -->
     <g style="fill: #262626" transform="translate(76.584375 73.515781) scale(0.11 -0.11)">
      <use xlink:href="#Cmmi10-4c" transform="translate(0 0.6875)"/>
      <use xlink:href="#Cmr10-3d" transform="translate(85.576172 0.6875)"/>
      <use xlink:href="#Cmr10-34" transform="translate(180.820312 0.6875)"/>
     </g>
    </g>
   </g>
  </g>
 </g>
 <defs>
  <clipPath id="pb4bc86bcf0">
   <rect x="35.884375" y="34.3575" width="521.97" height="346.14"/>
  </clipPath>
 </defs>
</svg>
