<?xml version="1.0" encoding="utf-8" standalone="no"?>
<!DOCTYPE svg PUBLIC "-//W3C//DTD SVG 1.1//EN"
  "http://www.w3.org/Graphics/SVG/1.1/DTD/svg11.dtd">
<svg xmlns:xlink="http://www.w3.org/1999/xlink" width="473.13375pt" height="311.13375pt" viewBox="0 0 473.13375 311.13375" xmlns="http://www.w3.org/2000/svg" version="1.1">
 <metadata>
  <rdf:RDF xmlns:dc="http://purl.org/dc/elements/1.1/" xmlns:cc="http://creativecommons.org/ns#" xmlns:rdf="http://www.w3.org/1999/02/22-rdf-syntax-ns#">
   <cc:Work>
    <dc:type rdf:resource="http://purl.org/dc/dcmitype/StillImage"/>
    <dc:date>2026-02-19T08:27:09.853289</dc:date>
    <dc:format>image/svg+xml</dc:format>
    <dc:creator>
     <cc:Agent>
      <dc:title>Matplotlib v3.10.1, https://matplotlib.org/</dc:title>
     </cc:Agent>
    </dc:creator>
   </cc:Work>
  </rdf:RDF>
 </metadata>
 <defs>
  <style type="text/css">*{stroke-linejoin: round; stroke-linecap: butt}</style>
 </defs>
 <g id="figure_1">
  <g id="patch_1">
   <path d="M 0 311.13375 
L 473.13375 311.13375 
L 473.13375 0 
L 0 0 
z
" style="fill: #ffffff"/>
  </g>
  <g id="axes_1">
   <g id="patch_2">
    <path d="M 29.91375 281.22 
L 462.33375 281.22 
L 462.33375 10.8 
L 29.91375 10.8 
z
" style="fill: #ffffff"/>
   </g>
   <g id="matplotlib.axis_1">
    <g id="xtick_1">
     <g id="line2d_1">
      <path d="M 29.91375 281.22 
L 29.91375 10.8 
" clip-path="url(#pe99437a6a3)" style="fill: none; stroke: #cccccc; stroke-width: 0.8; stroke-linecap: round"/>
     </g>
     <g id="line2d_2"/>
    </g>
    <g id="xtick_2">
     <g id="line2d_3">
      <path d="M 116.39775 281.22 
L 116.39775 10.8 
" clip-path="url(#pe99437a6a3)" style="fill: none; stroke: #cccccc; stroke-width: 0.8; stroke-linecap: round"/>
     </g>
     <g id="line2d_4"/>
    </g>
    <g id="xtick_3">
     <g id="line2d_5">
      <path d="M 202.88175 281.22 
L 202.88175 10.8 
" clip-path="url(#pe99437a6a3)" style="fill: none; stroke: #cccccc; stroke-width: 0.8; stroke-linecap: round"/>
     </g>
     <g id="line2d_6"/>
    </g>
    <g id="xtick_4">
     <g id="line2d_7">
      <path d="M 289.36575 281.22 
L 289.36575 10.8 
" clip-path="url(#pe99437a6a3)" style="fill: none; stroke: #cccccc; stroke-width: 0.8; stroke-linecap: round"/>
     </g>
     <g id="line2d_8"/>
    </g>
    <g id="xtick_5">
     <g id="line2d_9">
      <path d="M 375.84975 281.22 
L 375.84975 10.8 
" clip-path="url(#pe99437a6a3)" style="fill: none; stroke: #cccccc; stroke-width: 0.8; stroke-linecap: round"/>
     </g>
     <g id="line2d_10"/>
    </g>
    <g id="xtick_6">
     <g id="line2d_11">
      <path d="M 462.33375 281.22 
L 462.33375 10.8 
" clip-path="url(#pe99437a6a3)" style="fill: none; stroke: #cccccc; stroke-width: 0.8; stroke-linecap: round"/>
     </g>
     <g id="line2d_12"/>
    </g>
    <g id="text_1">
     <!-- Time (hours) -->
     <g style="fill: #262626" transform="translate(207.085313 297.838125) scale(0.12 -0.12)">
      <defs>
       <path id="DejaVuSerif-54" d="M 1222 0 
L 1222 331 
L 1819 331 
L 1819 4294 
L 447 4294 
L 447 3566 
L 63 3566 
L 63 4666 
L 4206 4666 
L 4206 3566 
L 3822 3566 
L 3822 4294 
L 2450 4294 
L 2450 331 
L 3047 331 
L 3047 0 
L 1222 0 
z
" transform="scale(0.015625)"/>
       <path id="DejaVuSerif-69" d="M 622 4353 
Q 622 4497 726 4603 
Q 831 4709 978 4709 
Q 1122 4709 1226 4603 
Q 1331 4497 1331 4353 
Q 1331 4206 1228 4103 
Q 1125 4000 978 4000 
Q 831 4000 726 4103 
Q 622 4206 622 4353 
z
M 1356 331 
L 1900 331 
L 1900 0 
L 231 0 
L 231 331 
L 781 331 
L 781 2988 
L 231 2988 
L 231 3322 
L 1356 3322 
L 1356 331 
z
" transform="scale(0.015625)"/>
       <path id="DejaVuSerif-6d" d="M 3316 2675 
Q 3481 3041 3739 3227 
Q 3997 3413 4341 3413 
Q 4863 3413 5119 3089 
Q 5375 2766 5375 2113 
L 5375 331 
L 5894 331 
L 5894 0 
L 4300 0 
L 4300 331 
L 4800 331 
L 4800 2047 
Q 4800 2556 4650 2772 
Q 4500 2988 4153 2988 
Q 3769 2988 3567 2697 
Q 3366 2406 3366 1850 
L 3366 331 
L 3866 331 
L 3866 0 
L 2291 0 
L 2291 331 
L 2791 331 
L 2791 2069 
Q 2791 2566 2641 2777 
Q 2491 2988 2144 2988 
Q 1759 2988 1557 2697 
Q 1356 2406 1356 1850 
L 1356 331 
L 1856 331 
L 1856 0 
L 263 0 
L 263 331 
L 781 331 
L 781 2994 
L 231 2994 
L 231 3322 
L 1356 3322 
L 1356 2731 
Q 1516 3063 1762 3238 
Q 2009 3413 2322 3413 
Q 2709 3413 2968 3220 
Q 3228 3028 3316 2675 
z
" transform="scale(0.015625)"/>
       <path id="DejaVuSerif-65" d="M 3469 1600 
L 991 1600 
L 991 1575 
Q 991 903 1244 561 
Q 1497 219 1991 219 
Q 2369 219 2611 417 
Q 2853 616 2950 1006 
L 3413 1006 
Q 3275 459 2904 184 
Q 2534 -91 1931 -91 
Q 1203 -91 761 389 
Q 319 869 319 1663 
Q 319 2450 753 2931 
Q 1188 3413 1894 3413 
Q 2647 3413 3050 2948 
Q 3453 2484 3469 1600 
z
M 2791 1931 
Q 2772 2513 2545 2808 
Q 2319 3103 1894 3103 
Q 1497 3103 1269 2806 
Q 1041 2509 991 1931 
L 2791 1931 
z
" transform="scale(0.015625)"/>
       <path id="DejaVuSerif-20" transform="scale(0.015625)"/>
       <path id="DejaVuSerif-28" d="M 2041 -997 
Q 1281 -656 893 83 
Q 506 822 506 1931 
Q 506 3044 893 3783 
Q 1281 4522 2041 4863 
L 2041 4556 
Q 1559 4225 1350 3623 
Q 1141 3022 1141 1931 
Q 1141 844 1350 242 
Q 1559 -359 2041 -691 
L 2041 -997 
z
" transform="scale(0.015625)"/>
       <path id="DejaVuSerif-68" d="M 263 0 
L 263 331 
L 781 331 
L 781 4531 
L 231 4531 
L 231 4863 
L 1356 4863 
L 1356 2731 
Q 1516 3069 1770 3241 
Q 2025 3413 2363 3413 
Q 2913 3413 3172 3097 
Q 3431 2781 3431 2113 
L 3431 331 
L 3944 331 
L 3944 0 
L 2356 0 
L 2356 331 
L 2853 331 
L 2853 1931 
Q 2853 2541 2704 2764 
Q 2556 2988 2175 2988 
Q 1775 2988 1565 2697 
Q 1356 2406 1356 1850 
L 1356 331 
L 1856 331 
L 1856 0 
L 263 0 
z
" transform="scale(0.015625)"/>
       <path id="DejaVuSerif-6f" d="M 1925 219 
Q 2388 219 2623 584 
Q 2859 950 2859 1663 
Q 2859 2375 2623 2739 
Q 2388 3103 1925 3103 
Q 1463 3103 1227 2739 
Q 991 2375 991 1663 
Q 991 950 1228 584 
Q 1466 219 1925 219 
z
M 1925 -91 
Q 1200 -91 759 389 
Q 319 869 319 1663 
Q 319 2456 758 2934 
Q 1197 3413 1925 3413 
Q 2653 3413 3092 2934 
Q 3531 2456 3531 1663 
Q 3531 869 3092 389 
Q 2653 -91 1925 -91 
z
" transform="scale(0.015625)"/>
       <path id="DejaVuSerif-75" d="M 2266 3322 
L 3341 3322 
L 3341 331 
L 3884 331 
L 3884 0 
L 2766 0 
L 2766 588 
Q 2606 256 2353 82 
Q 2100 -91 1766 -91 
Q 1213 -91 952 223 
Q 691 538 691 1209 
L 691 2988 
L 172 2988 
L 172 3322 
L 1269 3322 
L 1269 1388 
Q 1269 781 1417 556 
Q 1566 331 1947 331 
Q 2347 331 2556 625 
Q 2766 919 2766 1478 
L 2766 2988 
L 2266 2988 
L 2266 3322 
z
" transform="scale(0.015625)"/>
       <path id="DejaVuSerif-72" d="M 3059 3328 
L 3059 2497 
L 2728 2497 
Q 2713 2744 2591 2866 
Q 2469 2988 2234 2988 
Q 1809 2988 1582 2694 
Q 1356 2400 1356 1850 
L 1356 331 
L 2022 331 
L 2022 0 
L 263 0 
L 263 331 
L 781 331 
L 781 2994 
L 231 2994 
L 231 3322 
L 1356 3322 
L 1356 2731 
Q 1525 3078 1790 3245 
Q 2056 3413 2438 3413 
Q 2578 3413 2733 3391 
Q 2888 3369 3059 3328 
z
" transform="scale(0.015625)"/>
       <path id="DejaVuSerif-73" d="M 359 184 
L 359 959 
L 691 959 
Q 703 588 923 403 
Q 1144 219 1575 219 
Q 1963 219 2166 364 
Q 2369 509 2369 788 
Q 2369 1006 2220 1140 
Q 2072 1275 1594 1428 
L 1178 1569 
Q 750 1706 558 1912 
Q 366 2119 366 2438 
Q 366 2894 700 3153 
Q 1034 3413 1625 3413 
Q 1888 3413 2178 3344 
Q 2469 3275 2778 3144 
L 2778 2419 
L 2447 2419 
Q 2434 2741 2221 2922 
Q 2009 3103 1644 3103 
Q 1281 3103 1095 2975 
Q 909 2847 909 2591 
Q 909 2381 1050 2254 
Q 1191 2128 1613 1997 
L 2069 1856 
Q 2541 1709 2748 1489 
Q 2956 1269 2956 922 
Q 2956 450 2595 179 
Q 2234 -91 1600 -91 
Q 1278 -91 972 -22 
Q 666 47 359 184 
z
" transform="scale(0.015625)"/>
       <path id="DejaVuSerif-29" d="M 453 -997 
L 453 -691 
Q 934 -359 1145 242 
Q 1356 844 1356 1931 
Q 1356 3022 1145 3623 
Q 934 4225 453 4556 
L 453 4863 
Q 1216 4522 1603 3783 
Q 1991 3044 1991 1931 
Q 1991 822 1603 83 
Q 1216 -656 453 -997 
z
" transform="scale(0.015625)"/>
      </defs>
      <use xlink:href="#DejaVuSerif-54"/>
      <use xlink:href="#DejaVuSerif-69" transform="translate(66.699219 0)"/>
      <use xlink:href="#DejaVuSerif-6d" transform="translate(98.681641 0)"/>
      <use xlink:href="#DejaVuSerif-65" transform="translate(193.505859 0)"/>
      <use xlink:href="#DejaVuSerif-20" transform="translate(252.685547 0)"/>
      <use xlink:href="#DejaVuSerif-28" transform="translate(284.472656 0)"/>
      <use xlink:href="#DejaVuSerif-68" transform="translate(323.486328 0)"/>
      <use xlink:href="#DejaVuSerif-6f" transform="translate(387.890625 0)"/>
      <use xlink:href="#DejaVuSerif-75" transform="translate(448.095703 0)"/>
      <use xlink:href="#DejaVuSerif-72" transform="translate(512.5 0)"/>
      <use xlink:href="#DejaVuSerif-73" transform="translate(560.302734 0)"/>
      <use xlink:href="#DejaVuSerif-29" transform="translate(611.621094 0)"/>
     </g>
    </g>
   </g>
   <g id="matplotlib.axis_2">
    <g id="ytick_1">
     <g id="line2d_13">
      <path d="M 29.91375 268.928182 
L 462.33375 268.928182 
" clip-path="url(#pe99437a6a3)" style="fill: none; stroke: #cccccc; stroke-width: 0.8; stroke-linecap: round"/>
     </g>
     <g id="line2d_14"/>
    </g>
    <g id="ytick_2">
     <g id="line2d_15">
      <path d="M 29.91375 219.760909 
L 462.33375 219.760909 
" clip-path="url(#pe99437a6a3)" style="fill: none; stroke: #cccccc; stroke-width: 0.8; stroke-linecap: round"/>
     </g>
     <g id="line2d_16"/>
    </g>
    <g id="ytick_3">
     <g id="line2d_17">
      <path d="M 29.91375 170.593636 
L 462.33375 170.593636 
" clip-path="url(#pe99437a6a3)" style="fill: none; stroke: #cccccc; stroke-width: 0.8; stroke-linecap: round"/>
     </g>
     <g id="line2d_18"/>
    </g>
    <g id="ytick_4">
     <g id="line2d_19">
      <path d="M 29.91375 121.426364 
L 462.33375 121.426364 
" clip-path="url(#pe99437a6a3)" style="fill: none; stroke: #cccccc; stroke-width: 0.8; stroke-linecap: round"/>
     </g>
     <g id="line2d_20"/>
    </g>
    <g id="ytick_5">
     <g id="line2d_21">
      <path d="M 29.91375 72.259091 
L 462.33375 72.259091 
" clip-path="url(#pe99437a6a3)" style="fill: none; stroke: #cccccc; stroke-width: 0.8; stroke-linecap: round"/>
     </g>
     <g id="line2d_22"/>
    </g>
    <g id="ytick_6">
     <g id="line2d_23">
      <path d="M 29.91375 23.091818 
L 462.33375 23.091818 
" clip-path="url(#pe99437a6a3)" style="fill: none; stroke: #cccccc; stroke-width: 0.8; stroke-linecap: round"/>
     </g>
     <g id="line2d_24"/>
    </g>
    <g id="text_2">
     <!-- Concentration -->
     <g style="fill: #262626" transform="translate(19.918125 189.516563) rotate(-90) scale(0.12 -0.12)">
      <defs>
       <path id="DejaVuSerif-43" d="M 4513 1234 
Q 4306 581 3820 245 
Q 3334 -91 2591 -91 
Q 2134 -91 1743 65 
Q 1353 222 1050 525 
Q 700 875 529 1320 
Q 359 1766 359 2328 
Q 359 3416 987 4083 
Q 1616 4750 2644 4750 
Q 3025 4750 3456 4650 
Q 3888 4550 4384 4347 
L 4384 3272 
L 4031 3272 
Q 3916 3859 3567 4137 
Q 3219 4416 2591 4416 
Q 1844 4416 1459 3886 
Q 1075 3356 1075 2328 
Q 1075 1303 1459 773 
Q 1844 244 2591 244 
Q 3113 244 3450 492 
Q 3788 741 3938 1234 
L 4513 1234 
z
" transform="scale(0.015625)"/>
       <path id="DejaVuSerif-6e" d="M 263 0 
L 263 331 
L 781 331 
L 781 2988 
L 231 2988 
L 231 3322 
L 1356 3322 
L 1356 2731 
Q 1516 3069 1770 3241 
Q 2025 3413 2363 3413 
Q 2913 3413 3172 3097 
Q 3431 2781 3431 2113 
L 3431 331 
L 3944 331 
L 3944 0 
L 2356 0 
L 2356 331 
L 2853 331 
L 2853 1931 
Q 2853 2541 2703 2767 
Q 2553 2994 2175 2994 
Q 1775 2994 1565 2701 
Q 1356 2409 1356 1850 
L 1356 331 
L 1856 331 
L 1856 0 
L 263 0 
z
" transform="scale(0.015625)"/>
       <path id="DejaVuSerif-63" d="M 3291 997 
Q 3169 466 2822 187 
Q 2475 -91 1925 -91 
Q 1200 -91 759 389 
Q 319 869 319 1663 
Q 319 2459 759 2936 
Q 1200 3413 1925 3413 
Q 2241 3413 2553 3339 
Q 2866 3266 3181 3116 
L 3181 2266 
L 2847 2266 
Q 2781 2703 2561 2903 
Q 2341 3103 1931 3103 
Q 1466 3103 1228 2742 
Q 991 2381 991 1663 
Q 991 944 1227 581 
Q 1463 219 1931 219 
Q 2303 219 2525 412 
Q 2747 606 2828 997 
L 3291 997 
z
" transform="scale(0.015625)"/>
       <path id="DejaVuSerif-74" d="M 691 2988 
L 184 2988 
L 184 3322 
L 691 3322 
L 691 4353 
L 1269 4353 
L 1269 3322 
L 2350 3322 
L 2350 2988 
L 1269 2988 
L 1269 878 
Q 1269 456 1350 337 
Q 1431 219 1650 219 
Q 1875 219 1978 351 
Q 2081 484 2088 781 
L 2522 781 
Q 2497 328 2275 118 
Q 2053 -91 1600 -91 
Q 1103 -91 897 129 
Q 691 350 691 878 
L 691 2988 
z
" transform="scale(0.015625)"/>
       <path id="DejaVuSerif-61" d="M 2547 1044 
L 2547 1747 
L 1806 1747 
Q 1378 1747 1168 1562 
Q 959 1378 959 997 
Q 959 650 1171 447 
Q 1384 244 1747 244 
Q 2106 244 2326 466 
Q 2547 688 2547 1044 
z
M 3122 2075 
L 3122 331 
L 3634 331 
L 3634 0 
L 2547 0 
L 2547 359 
Q 2356 128 2106 18 
Q 1856 -91 1522 -91 
Q 969 -91 644 203 
Q 319 497 319 997 
Q 319 1513 691 1797 
Q 1063 2081 1741 2081 
L 2547 2081 
L 2547 2309 
Q 2547 2688 2317 2895 
Q 2088 3103 1672 3103 
Q 1328 3103 1125 2947 
Q 922 2791 872 2484 
L 575 2484 
L 575 3156 
Q 875 3284 1158 3348 
Q 1441 3413 1709 3413 
Q 2400 3413 2761 3070 
Q 3122 2728 3122 2075 
z
" transform="scale(0.015625)"/>
      </defs>
      <use xlink:href="#DejaVuSerif-43"/>
      <use xlink:href="#DejaVuSerif-6f" transform="translate(76.513672 0)"/>
      <use xlink:href="#DejaVuSerif-6e" transform="translate(136.71875 0)"/>
      <use xlink:href="#DejaVuSerif-63" transform="translate(201.123047 0)"/>
      <use xlink:href="#DejaVuSerif-65" transform="translate(257.128906 0)"/>
      <use xlink:href="#DejaVuSerif-6e" transform="translate(316.308594 0)"/>
      <use xlink:href="#DejaVuSerif-74" transform="translate(380.712891 0)"/>
      <use xlink:href="#DejaVuSerif-72" transform="translate(420.898438 0)"/>
      <use xlink:href="#DejaVuSerif-61" transform="translate(468.701172 0)"/>
      <use xlink:href="#DejaVuSerif-74" transform="translate(528.320312 0)"/>
      <use xlink:href="#DejaVuSerif-69" transform="translate(568.505859 0)"/>
      <use xlink:href="#DejaVuSerif-6f" transform="translate(600.488281 0)"/>
      <use xlink:href="#DejaVuSerif-6e" transform="translate(660.693359 0)"/>
     </g>
    </g>
   </g>
   <g id="patch_3">
    <path d="M 29.91375 232.052727 
L 462.33375 232.052727 
L 462.33375 23.091818 
L 29.91375 23.091818 
z
" clip-path="url(#pe99437a6a3)" style="fill: #059669; opacity: 0.08; stroke: #059669; stroke-linejoin: miter"/>
   </g>
   <g id="line2d_25">
    <path d="M 29.91375 268.928182 
L 32.409481 259.378414 
L 34.905211 250.592937 
L 37.400942 242.520889 
L 39.896673 235.114653 
L 42.392403 228.329652 
L 44.888134 222.124162 
L 47.383865 216.459123 
L 49.879595 211.297979 
L 52.375326 206.606516 
L 54.871057 202.352713 
L 57.366787 198.506607 
L 59.862518 195.040158 
L 62.358249 191.927133 
L 64.853979 189.142986 
L 67.34971 186.664757 
L 69.845441 184.470967 
L 72.341171 182.541524 
L 74.836902 180.857642 
L 77.332633 179.401748 
L 79.828363 178.157414 
L 82.324094 177.10928 
L 85.651735 175.992283 
L 88.979376 175.167192 
L 92.307017 174.605251 
L 95.634657 174.280194 
L 98.962298 174.168031 
L 102.289939 174.246865 
L 106.44949 174.583717 
L 110.609041 175.152674 
L 115.600503 176.097848 
L 120.591964 177.284448 
L 126.415336 178.918847 
L 133.070617 181.047899 
L 140.557809 183.692453 
L 149.708822 187.169541 
L 163.019385 192.48823 
L 192.136243 204.189178 
L 205.446807 209.271965 
L 217.92546 213.797452 
L 229.572203 217.788435 
L 241.218946 221.545027 
L 252.865689 225.06571 
L 264.512432 228.35424 
L 276.159175 231.417884 
L 288.637829 234.461645 
L 301.116482 237.271563 
L 313.595135 239.86188 
L 326.905699 242.399158 
L 341.048172 244.858715 
L 355.190646 247.094491 
L 370.16503 249.239012 
L 385.971324 251.276966 
L 402.609529 253.196461 
L 420.079643 254.988936 
L 439.213578 256.719567 
L 445.03695 257.202473 
L 445.03695 257.202473 
" clip-path="url(#pe99437a6a3)" style="fill: none; stroke-dasharray: 7.4,3.2; stroke-dashoffset: 0; stroke: #2563eb; stroke-opacity: 0.5; stroke-width: 2"/>
   </g>
   <g id="line2d_26">
    <path d="M 29.91375 268.928182 
L 32.409481 259.378414 
L 34.905211 250.592937 
L 37.400942 242.520889 
L 39.896673 235.114653 
L 42.392403 228.329652 
L 44.888134 222.124162 
L 47.383865 216.459123 
L 49.879595 211.297979 
L 52.375326 206.606516 
L 54.871057 202.352713 
L 57.366787 198.506607 
L 59.862518 195.040158 
L 62.358249 191.927133 
L 64.853979 189.142986 
L 67.34971 186.664757 
L 69.845441 184.470967 
L 72.341171 182.541524 
L 74.836902 180.857642 
L 77.332633 179.401748 
L 79.828363 178.157414 
L 82.324094 177.10928 
L 85.651735 175.992283 
L 88.979376 175.167192 
L 92.307017 174.605251 
L 95.634657 174.280194 
L 98.962298 174.168031 
L 102.289939 174.246865 
L 106.44949 174.583717 
L 110.609041 175.152674 
L 115.600503 176.097848 
L 120.591964 177.284448 
L 126.415336 178.918847 
L 133.070617 181.047899 
L 140.557809 183.692453 
L 149.708822 187.169541 
L 163.019385 192.48823 
L 192.136243 204.189178 
L 205.446807 209.271965 
L 217.92546 213.797452 
L 229.572203 217.788435 
L 237.059395 220.230523 
L 237.891305 218.848872 
L 240.387036 210.218865 
L 242.882766 202.33358 
L 245.378497 195.14273 
L 247.874228 188.599246 
L 250.369958 182.659078 
L 252.865689 177.281003 
L 255.36142 172.426444 
L 257.85715 168.059309 
L 260.352881 164.145825 
L 262.848612 160.654399 
L 265.344342 157.555476 
L 267.840073 154.82141 
L 270.335804 152.426345 
L 272.831534 150.346101 
L 275.327265 148.558067 
L 277.822996 147.0411 
L 280.318726 145.775437 
L 282.814457 144.742602 
L 285.310188 143.925327 
L 287.805918 143.307475 
L 290.301649 142.873968 
L 293.62929 142.558503 
L 296.956931 142.514975 
L 300.284572 142.715223 
L 303.612213 143.133548 
L 306.939853 143.746511 
L 311.099405 144.754039 
L 315.258956 145.994793 
L 320.250417 147.744657 
L 325.241878 149.731423 
L 331.06525 152.290144 
L 337.720532 155.459269 
L 346.039634 159.680253 
L 357.686377 165.871247 
L 389.298965 182.82057 
L 400.945708 188.761673 
L 411.760541 194.040095 
L 422.575374 199.063607 
L 432.558297 203.463367 
L 442.541219 207.631665 
L 445.03695 208.637622 
L 445.03695 208.637622 
" clip-path="url(#pe99437a6a3)" style="fill: none; stroke: #2563eb; stroke-width: 2.5; stroke-linecap: round"/>
   </g>
   <g id="line2d_27">
    <path d="M 29.91375 232.052727 
L 462.33375 232.052727 
" clip-path="url(#pe99437a6a3)" style="fill: none; stroke-dasharray: 5.55,2.4; stroke-dashoffset: 0; stroke: #f59e0b; stroke-width: 1.5"/>
   </g>
   <g id="line2d_28">
    <path d="M 29.91375 23.091818 
L 462.33375 23.091818 
" clip-path="url(#pe99437a6a3)" style="fill: none; stroke-dasharray: 5.55,2.4; stroke-dashoffset: 0; stroke: #dc2626; stroke-width: 1.5"/>
   </g>
   <g id="line2d_29">
    <path d="M 237.47535 281.22 
L 237.47535 10.8 
" clip-path="url(#pe99437a6a3)" style="fill: none; stroke-dasharray: 1.5,2.475; stroke-dashoffset: 0; stroke: #475569; stroke-opacity: 0.5; stroke-width: 1.5"/>
   </g>
   <g id="patch_4">
    <path d="M 29.91375 281.22 
L 29.91375 10.8 
" style="fill: none; stroke: #cccccc; stroke-linejoin: miter; stroke-linecap: square"/>
   </g>
   <g id="patch_5">
    <path d="M 462.33375 281.22 
L 462.33375 10.8 
" style="fill: none; stroke: #cccccc; stroke-linejoin: miter; stroke-linecap: square"/>
   </g>
   <g id="patch_6">
    <path d="M 29.91375 281.22 
L 462.33375 281.22 
" style="fill: none; stroke: #cccccc; stroke-linejoin: miter; stroke-linecap: square"/>
   </g>
   <g id="patch_7">
    <path d="M 29.91375 10.8 
L 462.33375 10.8 
" style="fill: none; stroke: #cccccc; stroke-linejoin: miter; stroke-linecap: square"/>
   </g>
   <g id="text_3">
    <!-- Therapeutic -->
    <g style="fill: #059669" transform="translate(341.872406 122.520369) scale(0.1 -0.1)">
     <defs>
      <path id="DejaVuSerif-Bold-54" d="M 1159 0 
L 1159 378 
L 1778 378 
L 1778 4238 
L 500 4238 
L 500 3500 
L 72 3500 
L 72 4666 
L 4697 4666 
L 4697 3500 
L 4275 3500 
L 4275 4238 
L 2988 4238 
L 2988 378 
L 3609 378 
L 3609 0 
L 1159 0 
z
" transform="scale(0.015625)"/>
      <path id="DejaVuSerif-Bold-68" d="M 219 0 
L 219 378 
L 691 378 
L 691 4488 
L 197 4488 
L 197 4863 
L 1797 4863 
L 1797 2853 
Q 1997 3150 2253 3281 
Q 2509 3413 2900 3413 
Q 3459 3413 3745 3083 
Q 4031 2753 4031 2113 
L 4031 378 
L 4506 378 
L 4506 0 
L 2522 0 
L 2522 378 
L 2925 378 
L 2925 2144 
Q 2925 2566 2817 2730 
Q 2709 2894 2444 2894 
Q 2109 2894 1953 2648 
Q 1797 2403 1797 1869 
L 1797 378 
L 2203 378 
L 2203 0 
L 219 0 
z
" transform="scale(0.015625)"/>
      <path id="DejaVuSerif-Bold-65" d="M 2566 1875 
Q 2566 2531 2444 2795 
Q 2322 3059 2028 3059 
Q 1744 3059 1620 2800 
Q 1497 2541 1497 1931 
L 1497 1875 
L 2566 1875 
z
M 3781 1503 
L 1497 1503 
L 1497 1478 
Q 1497 834 1690 548 
Q 1884 263 2316 263 
Q 2675 263 2897 453 
Q 3119 644 3181 1006 
L 3700 1006 
Q 3566 441 3166 175 
Q 2766 -91 2047 -91 
Q 1184 -91 723 364 
Q 263 819 263 1663 
Q 263 2488 734 2950 
Q 1206 3413 2047 3413 
Q 2872 3413 3312 2927 
Q 3753 2441 3781 1503 
z
" transform="scale(0.015625)"/>
      <path id="DejaVuSerif-Bold-72" d="M 3438 3359 
L 3438 2369 
L 3084 2369 
Q 3066 2634 2941 2764 
Q 2816 2894 2578 2894 
Q 2216 2894 2006 2575 
Q 1797 2256 1797 1691 
L 1797 378 
L 2400 378 
L 2400 0 
L 219 0 
L 219 378 
L 691 378 
L 691 2944 
L 184 2944 
L 184 3322 
L 1797 3322 
L 1797 2731 
Q 1959 3078 2226 3245 
Q 2494 3413 2881 3413 
Q 2978 3413 3117 3398 
Q 3256 3384 3438 3359 
z
" transform="scale(0.015625)"/>
      <path id="DejaVuSerif-Bold-61" d="M 3525 2041 
L 3525 378 
L 4000 378 
L 4000 0 
L 2419 0 
L 2419 422 
Q 2200 159 1931 34 
Q 1663 -91 1319 -91 
Q 809 -91 536 182 
Q 263 456 263 966 
Q 263 1525 655 1803 
Q 1047 2081 1838 2081 
L 2419 2081 
L 2419 2278 
Q 2419 2681 2228 2873 
Q 2038 3066 1638 3066 
Q 1306 3066 1126 2930 
Q 947 2794 872 2484 
L 519 2484 
L 519 3200 
Q 816 3306 1134 3359 
Q 1453 3413 1806 3413 
Q 2697 3413 3111 3081 
Q 3525 2750 3525 2041 
z
M 2419 1044 
L 2419 1709 
L 2003 1709 
Q 1694 1709 1528 1540 
Q 1363 1372 1363 1056 
Q 1363 741 1483 584 
Q 1603 428 1850 428 
Q 2106 428 2262 597 
Q 2419 766 2419 1044 
z
" transform="scale(0.015625)"/>
      <path id="DejaVuSerif-Bold-70" d="M 1728 1825 
L 1728 1497 
Q 1728 916 1876 656 
Q 2025 397 2356 397 
Q 2697 397 2836 672 
Q 2975 947 2975 1663 
Q 2975 2378 2836 2651 
Q 2697 2925 2356 2925 
Q 2025 2925 1876 2665 
Q 1728 2406 1728 1825 
z
M 622 2944 
L 147 2944 
L 147 3322 
L 1728 3322 
L 1728 2900 
Q 1869 3159 2106 3286 
Q 2344 3413 2694 3413 
Q 3403 3413 3811 2945 
Q 4219 2478 4219 1663 
Q 4219 847 3811 378 
Q 3403 -91 2694 -91 
Q 2344 -91 2106 36 
Q 1869 163 1728 422 
L 1728 -953 
L 2241 -953 
L 2241 -1331 
L 147 -1331 
L 147 -953 
L 622 -953 
L 622 2944 
z
" transform="scale(0.015625)"/>
      <path id="DejaVuSerif-Bold-75" d="M 3963 3322 
L 3963 378 
L 4434 378 
L 4434 0 
L 2853 0 
L 2853 469 
Q 2656 172 2400 40 
Q 2144 -91 1753 -91 
Q 1194 -91 908 239 
Q 622 569 622 1209 
L 622 2944 
L 147 2944 
L 147 3322 
L 1728 3322 
L 1728 1381 
Q 1728 763 1831 595 
Q 1934 428 2209 428 
Q 2544 428 2698 675 
Q 2853 922 2853 1459 
L 2853 2944 
L 2450 2944 
L 2450 3322 
L 3963 3322 
z
" transform="scale(0.015625)"/>
      <path id="DejaVuSerif-Bold-74" d="M 634 2944 
L 153 2944 
L 153 3322 
L 634 3322 
L 634 4353 
L 1741 4353 
L 1741 3322 
L 2663 3322 
L 2663 2944 
L 1741 2944 
L 1741 909 
Q 1741 475 1809 369 
Q 1878 263 2059 263 
Q 2259 263 2356 397 
Q 2453 531 2459 813 
L 2925 813 
Q 2897 313 2651 111 
Q 2406 -91 1806 -91 
Q 1122 -91 878 123 
Q 634 338 634 909 
L 634 2944 
z
" transform="scale(0.015625)"/>
      <path id="DejaVuSerif-Bold-69" d="M 588 4263 
Q 588 4516 763 4689 
Q 938 4863 1191 4863 
Q 1438 4863 1611 4689 
Q 1784 4516 1784 4263 
Q 1784 4016 1611 3842 
Q 1438 3669 1191 3669 
Q 938 3669 763 3841 
Q 588 4013 588 4263 
z
M 1797 378 
L 2272 378 
L 2272 0 
L 219 0 
L 219 378 
L 691 378 
L 691 2944 
L 219 2944 
L 219 3322 
L 1797 3322 
L 1797 378 
z
" transform="scale(0.015625)"/>
      <path id="DejaVuSerif-Bold-63" d="M 3609 1038 
Q 3491 469 3123 189 
Q 2756 -91 2125 -91 
Q 1238 -91 750 368 
Q 263 828 263 1663 
Q 263 2488 744 2950 
Q 1225 3413 2081 3413 
Q 2428 3413 2781 3347 
Q 3134 3281 3500 3150 
L 3500 2228 
L 3150 2228 
Q 3100 2650 2903 2854 
Q 2706 3059 2350 3059 
Q 1888 3059 1692 2746 
Q 1497 2434 1497 1663 
Q 1497 909 1687 586 
Q 1878 263 2309 263 
Q 2644 263 2845 463 
Q 3047 663 3091 1038 
L 3609 1038 
z
" transform="scale(0.015625)"/>
     </defs>
     <use xlink:href="#DejaVuSerif-Bold-54"/>
     <use xlink:href="#DejaVuSerif-Bold-68" transform="translate(74.414062 0)"/>
     <use xlink:href="#DejaVuSerif-Bold-65" transform="translate(147.119141 0)"/>
     <use xlink:href="#DejaVuSerif-Bold-72" transform="translate(210.742188 0)"/>
     <use xlink:href="#DejaVuSerif-Bold-61" transform="translate(263.427734 0)"/>
     <use xlink:href="#DejaVuSerif-Bold-70" transform="translate(328.222656 0)"/>
     <use xlink:href="#DejaVuSerif-Bold-65" transform="translate(398.144531 0)"/>
     <use xlink:href="#DejaVuSerif-Bold-75" transform="translate(461.767578 0)"/>
     <use xlink:href="#DejaVuSerif-Bold-74" transform="translate(534.472656 0)"/>
     <use xlink:href="#DejaVuSerif-Bold-69" transform="translate(580.664062 0)"/>
     <use xlink:href="#DejaVuSerif-Bold-63" transform="translate(618.652344 0)"/>
    </g>
    <!-- window -->
    <g style="fill: #059669" transform="translate(354.876313 133.718182) scale(0.1 -0.1)">
     <defs>
      <path id="DejaVuSerif-Bold-77" d="M 3450 3322 
L 4206 1106 
L 4831 2944 
L 4397 2944 
L 4397 3322 
L 5638 3322 
L 5638 2944 
L 5247 2944 
L 4244 0 
L 3481 0 
L 2778 2081 
L 2069 0 
L 1313 0 
L 306 2944 
L -56 2944 
L -56 3322 
L 1825 3322 
L 1825 2944 
L 1434 2944 
L 2047 1147 
L 2791 3322 
L 3450 3322 
z
" transform="scale(0.015625)"/>
      <path id="DejaVuSerif-Bold-6e" d="M 219 0 
L 219 378 
L 691 378 
L 691 2944 
L 219 2944 
L 219 3322 
L 1797 3322 
L 1797 2853 
Q 1997 3150 2253 3281 
Q 2509 3413 2900 3413 
Q 3459 3413 3745 3083 
Q 4031 2753 4031 2113 
L 4031 378 
L 4506 378 
L 4506 0 
L 2522 0 
L 2522 378 
L 2925 378 
L 2925 2144 
Q 2925 2566 2817 2730 
Q 2709 2894 2444 2894 
Q 2109 2894 1953 2648 
Q 1797 2403 1797 1869 
L 1797 378 
L 2203 378 
L 2203 0 
L 219 0 
z
" transform="scale(0.015625)"/>
      <path id="DejaVuSerif-Bold-64" d="M 2747 1497 
L 2747 1825 
Q 2747 2406 2597 2665 
Q 2447 2925 2119 2925 
Q 1775 2925 1636 2651 
Q 1497 2378 1497 1663 
Q 1497 947 1637 672 
Q 1778 397 2119 397 
Q 2447 397 2597 656 
Q 2747 916 2747 1497 
z
M 3853 378 
L 4325 378 
L 4325 0 
L 2747 0 
L 2747 422 
Q 2606 163 2367 36 
Q 2128 -91 1778 -91 
Q 1072 -91 667 378 
Q 263 847 263 1663 
Q 263 2481 667 2947 
Q 1072 3413 1778 3413 
Q 2128 3413 2367 3286 
Q 2606 3159 2747 2900 
L 2747 4488 
L 2272 4488 
L 2272 4863 
L 3853 4863 
L 3853 378 
z
" transform="scale(0.015625)"/>
      <path id="DejaVuSerif-Bold-6f" d="M 2138 263 
Q 2488 263 2630 563 
Q 2772 863 2772 1663 
Q 2772 2463 2631 2761 
Q 2491 3059 2138 3059 
Q 1784 3059 1640 2757 
Q 1497 2456 1497 1663 
Q 1497 869 1640 566 
Q 1784 263 2138 263 
z
M 2138 -91 
Q 1259 -91 761 376 
Q 263 844 263 1663 
Q 263 2484 761 2948 
Q 1259 3413 2138 3413 
Q 3019 3413 3516 2948 
Q 4013 2484 4013 1663 
Q 4013 844 3514 376 
Q 3016 -91 2138 -91 
z
" transform="scale(0.015625)"/>
     </defs>
     <use xlink:href="#DejaVuSerif-Bold-77"/>
     <use xlink:href="#DejaVuSerif-Bold-69" transform="translate(86.083984 0)"/>
     <use xlink:href="#DejaVuSerif-Bold-6e" transform="translate(124.072266 0)"/>
     <use xlink:href="#DejaVuSerif-Bold-64" transform="translate(196.777344 0)"/>
     <use xlink:href="#DejaVuSerif-Bold-6f" transform="translate(266.699219 0)"/>
     <use xlink:href="#DejaVuSerif-Bold-77" transform="translate(333.398438 0)"/>
    </g>
   </g>
   <g id="text_4">
    <!-- 2nd dose -->
    <g style="fill: #475569" transform="translate(216.840741 276.303273) scale(0.09 -0.09)">
     <defs>
      <path id="DejaVuSerif-32" d="M 819 3553 
L 469 3553 
L 469 4384 
Q 803 4563 1142 4656 
Q 1481 4750 1806 4750 
Q 2534 4750 2956 4397 
Q 3378 4044 3378 3438 
Q 3378 2753 2422 1800 
Q 2347 1728 2309 1691 
L 1131 513 
L 3078 513 
L 3078 1088 
L 3444 1088 
L 3444 0 
L 434 0 
L 434 341 
L 1850 1753 
Q 2319 2222 2519 2614 
Q 2719 3006 2719 3438 
Q 2719 3909 2473 4175 
Q 2228 4441 1797 4441 
Q 1350 4441 1106 4219 
Q 863 3997 819 3553 
z
" transform="scale(0.015625)"/>
      <path id="DejaVuSerif-64" d="M 3359 331 
L 3909 331 
L 3909 0 
L 2784 0 
L 2784 519 
Q 2616 206 2355 57 
Q 2094 -91 1709 -91 
Q 1097 -91 708 395 
Q 319 881 319 1663 
Q 319 2444 706 2928 
Q 1094 3413 1709 3413 
Q 2094 3413 2355 3264 
Q 2616 3116 2784 2803 
L 2784 4531 
L 2241 4531 
L 2241 4863 
L 3359 4863 
L 3359 331 
z
M 2784 1497 
L 2784 1825 
Q 2784 2422 2554 2737 
Q 2325 3053 1888 3053 
Q 1444 3053 1217 2703 
Q 991 2353 991 1663 
Q 991 975 1217 622 
Q 1444 269 1888 269 
Q 2325 269 2554 583 
Q 2784 897 2784 1497 
z
" transform="scale(0.015625)"/>
     </defs>
     <use xlink:href="#DejaVuSerif-32"/>
     <use xlink:href="#DejaVuSerif-6e" transform="translate(63.623047 0)"/>
     <use xlink:href="#DejaVuSerif-64" transform="translate(128.027344 0)"/>
     <use xlink:href="#DejaVuSerif-20" transform="translate(192.041016 0)"/>
     <use xlink:href="#DejaVuSerif-64" transform="translate(223.828125 0)"/>
     <use xlink:href="#DejaVuSerif-6f" transform="translate(287.841797 0)"/>
     <use xlink:href="#DejaVuSerif-73" transform="translate(348.046875 0)"/>
     <use xlink:href="#DejaVuSerif-65" transform="translate(399.365234 0)"/>
    </g>
   </g>
   <g id="line2d_30">
    <defs>
     <path id="m4706aeb235" d="M -0 5 
L 5 -5 
L -5 -5 
z
" style="stroke: #dc2626; stroke-linejoin: miter"/>
    </defs>
    <g clip-path="url(#pe99437a6a3)">
     <use xlink:href="#m4706aeb235" x="99.192982" y="174.167575" style="fill: #dc2626; stroke: #dc2626; stroke-linejoin: miter"/>
    </g>
   </g>
   <g id="legend_1">
    <g id="line2d_31">
     <path d="M 342.4325 21.27875 
L 350.4325 21.27875 
L 358.4325 21.27875 
" style="fill: none; stroke-dasharray: 7.4,3.2; stroke-dashoffset: 0; stroke: #2563eb; stroke-opacity: 0.5; stroke-width: 2"/>
    </g>
    <g id="text_5">
     <!-- Dose 1 alone -->
     <g style="fill: #262626" transform="translate(364.8325 24.07875) scale(0.08 -0.08)">
      <defs>
       <path id="DejaVuSerif-44" d="M 1581 331 
L 2163 331 
Q 3072 331 3558 850 
Q 4044 1369 4044 2338 
Q 4044 3306 3559 3818 
Q 3075 4331 2163 4331 
L 1581 4331 
L 1581 331 
z
M 353 0 
L 353 331 
L 947 331 
L 947 4331 
L 353 4331 
L 353 4666 
L 2209 4666 
Q 3416 4666 4089 4050 
Q 4763 3434 4763 2338 
Q 4763 1238 4088 619 
Q 3413 0 2209 0 
L 353 0 
z
" transform="scale(0.015625)"/>
       <path id="DejaVuSerif-31" d="M 909 0 
L 909 331 
L 1722 331 
L 1722 4213 
L 781 3603 
L 781 4013 
L 1919 4750 
L 2350 4750 
L 2350 331 
L 3163 331 
L 3163 0 
L 909 0 
z
" transform="scale(0.015625)"/>
       <path id="DejaVuSerif-6c" d="M 1313 331 
L 1856 331 
L 1856 0 
L 184 0 
L 184 331 
L 738 331 
L 738 4531 
L 184 4531 
L 184 4863 
L 1313 4863 
L 1313 331 
z
" transform="scale(0.015625)"/>
      </defs>
      <use xlink:href="#DejaVuSerif-44"/>
      <use xlink:href="#DejaVuSerif-6f" transform="translate(80.175781 0)"/>
      <use xlink:href="#DejaVuSerif-73" transform="translate(140.380859 0)"/>
      <use xlink:href="#DejaVuSerif-65" transform="translate(191.699219 0)"/>
      <use xlink:href="#DejaVuSerif-20" transform="translate(250.878906 0)"/>
      <use xlink:href="#DejaVuSerif-31" transform="translate(282.666016 0)"/>
      <use xlink:href="#DejaVuSerif-20" transform="translate(346.289062 0)"/>
      <use xlink:href="#DejaVuSerif-61" transform="translate(378.076172 0)"/>
      <use xlink:href="#DejaVuSerif-6c" transform="translate(437.695312 0)"/>
      <use xlink:href="#DejaVuSerif-6f" transform="translate(469.677734 0)"/>
      <use xlink:href="#DejaVuSerif-6e" transform="translate(529.882812 0)"/>
      <use xlink:href="#DejaVuSerif-65" transform="translate(594.287109 0)"/>
     </g>
    </g>
    <g id="line2d_32">
     <path d="M 342.4325 33.02125 
L 350.4325 33.02125 
L 358.4325 33.02125 
" style="fill: none; stroke: #2563eb; stroke-width: 2.5; stroke-linecap: round"/>
    </g>
    <g id="text_6">
     <!-- Combined (two doses) -->
     <g style="fill: #262626" transform="translate(364.8325 35.82125) scale(0.08 -0.08)">
      <defs>
       <path id="DejaVuSerif-62" d="M 738 331 
L 738 4531 
L 184 4531 
L 184 4863 
L 1313 4863 
L 1313 2803 
Q 1481 3116 1742 3264 
Q 2003 3413 2388 3413 
Q 3000 3413 3387 2928 
Q 3775 2444 3775 1663 
Q 3775 881 3387 395 
Q 3000 -91 2388 -91 
Q 2003 -91 1742 57 
Q 1481 206 1313 519 
L 1313 0 
L 184 0 
L 184 331 
L 738 331 
z
M 1313 1497 
Q 1313 897 1542 583 
Q 1772 269 2209 269 
Q 2650 269 2876 622 
Q 3103 975 3103 1663 
Q 3103 2353 2876 2703 
Q 2650 3053 2209 3053 
Q 1772 3053 1542 2737 
Q 1313 2422 1313 1825 
L 1313 1497 
z
" transform="scale(0.015625)"/>
       <path id="DejaVuSerif-77" d="M 3072 3322 
L 3922 728 
L 4672 2988 
L 4191 2988 
L 4191 3322 
L 5394 3322 
L 5394 2988 
L 5025 2988 
L 4038 0 
L 3559 0 
L 2741 2484 
L 1919 0 
L 1459 0 
L 475 2988 
L 103 2988 
L 103 3322 
L 1606 3322 
L 1606 2988 
L 1069 2988 
L 1813 728 
L 2669 3322 
L 3072 3322 
z
" transform="scale(0.015625)"/>
      </defs>
      <use xlink:href="#DejaVuSerif-43"/>
      <use xlink:href="#DejaVuSerif-6f" transform="translate(76.513672 0)"/>
      <use xlink:href="#DejaVuSerif-6d" transform="translate(136.71875 0)"/>
      <use xlink:href="#DejaVuSerif-62" transform="translate(231.542969 0)"/>
      <use xlink:href="#DejaVuSerif-69" transform="translate(295.556641 0)"/>
      <use xlink:href="#DejaVuSerif-6e" transform="translate(327.539062 0)"/>
      <use xlink:href="#DejaVuSerif-65" transform="translate(391.943359 0)"/>
      <use xlink:href="#DejaVuSerif-64" transform="translate(451.123047 0)"/>
      <use xlink:href="#DejaVuSerif-20" transform="translate(515.136719 0)"/>
      <use xlink:href="#DejaVuSerif-28" transform="translate(546.923828 0)"/>
      <use xlink:href="#DejaVuSerif-74" transform="translate(585.9375 0)"/>
      <use xlink:href="#DejaVuSerif-77" transform="translate(626.123047 0)"/>
      <use xlink:href="#DejaVuSerif-6f" transform="translate(711.71875 0)"/>
      <use xlink:href="#DejaVuSerif-20" transform="translate(771.923828 0)"/>
      <use xlink:href="#DejaVuSerif-64" transform="translate(803.710938 0)"/>
      <use xlink:href="#DejaVuSerif-6f" transform="translate(867.724609 0)"/>
      <use xlink:href="#DejaVuSerif-73" transform="translate(927.929688 0)"/>
      <use xlink:href="#DejaVuSerif-65" transform="translate(979.248047 0)"/>
      <use xlink:href="#DejaVuSerif-73" transform="translate(1038.427734 0)"/>
      <use xlink:href="#DejaVuSerif-29" transform="translate(1089.746094 0)"/>
     </g>
    </g>
   </g>
  </g>
 </g>
 <defs>
  <clipPath id="pe99437a6a3">
   <rect x="29.91375" y="10.8" width="432.42" height="270.42"/>
  </clipPath>
 </defs>
</svg>
