<?xml version="1.0" encoding="utf-8" standalone="no"?>
<!DOCTYPE svg PUBLIC "-//W3C//DTD SVG 1.1//EN"
  "http://www.w3.org/Graphics/SVG/1.1/DTD/svg11.dtd">
<svg xmlns:xlink="http://www.w3.org/1999/xlink" width="679.009116pt" height="325.281437pt" viewBox="0 0 679.009116 325.281437" xmlns="http://www.w3.org/2000/svg" version="1.1">
 <metadata>
  <rdf:RDF xmlns:dc="http://purl.org/dc/elements/1.1/" xmlns:cc="http://creativecommons.org/ns#" xmlns:rdf="http://www.w3.org/1999/02/22-rdf-syntax-ns#">
   <cc:Work>
    <dc:type rdf:resource="http://purl.org/dc/dcmitype/StillImage"/>
    <dc:date>2026-03-15T19:46:37.515986</dc:date>
    <dc:format>image/svg+xml</dc:format>
    <dc:creator>
     <cc:Agent>
      <dc:title>Matplotlib v3.10.8, https://matplotlib.org/</dc:title>
     </cc:Agent>
    </dc:creator>
   </cc:Work>
  </rdf:RDF>
 </metadata>
 <defs>
  <style type="text/css">*{stroke-linejoin: round; stroke-linecap: butt}</style>
 </defs>
 <g id="figure_1">
  <g id="patch_1">
   <path d="M -0 325.281437 
L 679.009116 325.281437 
L 679.009116 0 
L -0 0 
z
" style="fill: #ffffff"/>
  </g>
  <g id="axes_1">
   <g id="patch_2">
    <path d="M 38.416563 282.886125 
L 306.731456 282.886125 
L 306.731456 22.318125 
L 38.416563 22.318125 
z
" style="fill: #ffffff"/>
   </g>
   <g id="FillBetweenPolyCollection_1">
    <defs>
     <path id="ma9db1abc7e" d="M 50.612694 -69.823523 
L 50.612694 -69.823523 
L 51.378783 -69.823523 
L 52.144871 -69.823523 
L 52.91096 -69.823523 
L 53.677049 -69.823523 
L 54.443137 -69.823523 
L 55.209226 -69.823523 
L 55.975315 -69.823523 
L 56.741403 -69.823523 
L 57.507492 -69.823523 
L 58.273581 -69.823523 
L 59.039669 -69.823523 
L 59.805758 -69.823523 
L 60.571847 -69.823523 
L 61.337935 -69.823523 
L 62.104024 -69.823523 
L 62.870113 -69.823523 
L 63.636201 -69.823523 
L 64.40229 -69.823523 
L 65.168379 -69.823523 
L 65.934467 -69.823523 
L 66.700556 -69.823523 
L 67.466645 -69.823523 
L 68.232733 -69.823523 
L 68.998822 -69.823523 
L 69.764911 -69.823523 
L 70.530999 -69.823523 
L 71.297088 -69.823523 
L 72.063177 -69.823523 
L 72.829265 -69.823523 
L 73.595354 -69.823523 
L 74.361443 -69.823523 
L 75.127531 -69.823523 
L 75.89362 -69.823523 
L 76.659709 -69.823523 
L 77.425797 -69.823523 
L 78.191886 -69.823523 
L 78.957975 -69.823523 
L 79.724063 -69.823523 
L 80.490152 -69.823523 
L 81.256241 -69.823523 
L 82.022329 -69.823523 
L 82.788418 -69.823523 
L 83.554507 -69.823523 
L 84.320595 -69.823523 
L 85.086684 -69.823523 
L 85.852773 -69.823523 
L 86.618861 -69.823523 
L 87.38495 -69.823523 
L 88.151039 -69.823523 
L 88.917127 -69.823523 
L 89.683216 -69.823523 
L 90.449305 -69.823523 
L 91.215393 -69.823523 
L 91.981482 -69.823523 
L 92.747571 -69.823523 
L 93.513659 -69.823523 
L 94.279748 -69.823523 
L 95.045837 -69.823523 
L 95.811925 -69.823523 
L 96.578014 -69.823523 
L 97.344103 -69.823523 
L 98.110191 -69.823523 
L 98.87628 -69.823523 
L 99.642369 -69.823523 
L 100.408457 -69.823523 
L 101.174546 -69.823523 
L 101.940635 -69.823523 
L 102.706723 -69.823523 
L 103.472812 -69.823523 
L 104.2389 -69.823523 
L 105.004989 -69.823523 
L 105.771078 -69.823523 
L 106.537166 -69.823523 
L 107.303255 -69.823523 
L 108.069344 -69.823523 
L 108.835432 -69.823523 
L 109.601521 -69.823523 
L 110.36761 -69.823523 
L 111.133698 -69.823523 
L 111.899787 -69.823523 
L 112.665876 -69.823523 
L 113.431964 -69.823523 
L 114.198053 -69.823523 
L 114.964142 -69.823523 
L 115.73023 -69.823523 
L 116.496319 -69.823523 
L 117.262408 -69.823523 
L 118.028496 -69.823523 
L 118.794585 -69.823523 
L 119.560674 -69.823523 
L 120.326762 -69.823523 
L 121.092851 -69.823523 
L 121.85894 -69.823523 
L 122.625028 -69.823523 
L 123.391117 -69.823523 
L 124.157206 -69.823523 
L 124.923294 -69.823523 
L 125.689383 -69.823523 
L 126.455472 -69.823523 
L 127.22156 -69.823523 
L 127.987649 -69.823523 
L 128.753738 -69.823523 
L 129.519826 -69.823523 
L 130.285915 -69.823523 
L 131.052004 -69.823523 
L 131.818092 -69.823523 
L 132.584181 -69.823523 
L 133.35027 -69.823523 
L 134.116358 -69.823523 
L 134.882447 -69.823523 
L 135.648536 -69.823523 
L 136.414624 -69.823523 
L 137.180713 -69.823523 
L 137.946802 -69.823523 
L 138.71289 -69.823523 
L 139.478979 -69.823523 
L 140.245068 -69.823523 
L 141.011156 -69.823523 
L 141.777245 -69.823523 
L 142.543334 -69.823523 
L 143.309422 -69.823523 
L 144.075511 -69.823523 
L 144.8416 -69.823523 
L 145.607688 -69.823523 
L 146.373777 -69.823523 
L 147.139866 -69.823523 
L 147.905954 -69.823523 
L 148.672043 -69.823523 
L 149.438132 -69.823523 
L 150.20422 -69.823523 
L 150.970309 -69.823523 
L 151.736398 -69.823523 
L 152.502486 -69.823523 
L 153.268575 -69.823523 
L 154.034664 -69.823523 
L 154.800752 -69.823523 
L 155.566841 -69.823523 
L 156.33293 -69.823523 
L 157.099018 -69.823523 
L 157.865107 -69.823523 
L 158.631196 -69.823523 
L 159.397284 -69.823523 
L 160.163373 -69.823523 
L 160.929462 -69.823523 
L 161.69555 -69.823523 
L 162.461639 -69.823523 
L 163.227728 -69.823523 
L 163.993816 -69.823523 
L 164.759905 -69.823523 
L 165.525994 -69.823523 
L 166.292082 -69.823523 
L 167.058171 -69.823523 
L 167.82426 -69.823523 
L 168.590348 -69.823523 
L 169.356437 -69.823523 
L 170.122526 -69.823523 
L 170.888614 -69.823523 
L 171.654703 -69.823523 
L 172.420792 -69.823523 
L 173.18688 -69.823523 
L 173.952969 -69.823523 
L 174.719058 -69.823523 
L 175.485146 -69.823523 
L 176.251235 -69.823523 
L 177.017324 -69.823523 
L 177.783412 -69.823523 
L 178.549501 -69.823523 
L 179.31559 -69.823523 
L 180.081678 -69.823523 
L 180.847767 -69.823523 
L 181.613856 -69.823523 
L 182.379944 -69.823523 
L 183.146033 -69.823523 
L 183.912122 -69.823523 
L 184.67821 -69.823523 
L 185.444299 -69.823523 
L 186.210388 -69.823523 
L 186.976476 -69.823523 
L 187.742565 -69.823523 
L 188.508654 -69.823523 
L 189.274742 -69.823523 
L 190.040831 -69.823523 
L 190.80692 -69.823523 
L 191.573008 -69.823523 
L 192.339097 -69.823523 
L 193.105185 -69.823523 
L 193.871274 -69.823523 
L 194.637363 -69.823523 
L 195.403451 -69.823523 
L 196.16954 -69.823523 
L 196.935629 -69.823523 
L 197.701717 -69.823523 
L 198.467806 -69.823523 
L 199.233895 -69.823523 
L 199.999983 -69.823523 
L 200.766072 -69.823523 
L 201.532161 -69.823523 
L 202.298249 -69.823523 
L 203.064338 -69.823523 
L 203.064338 -138.394049 
L 203.064338 -138.394049 
L 202.298249 -138.049474 
L 201.532161 -137.704898 
L 200.766072 -137.360323 
L 199.999983 -137.015747 
L 199.233895 -136.671172 
L 198.467806 -136.326596 
L 197.701717 -135.982021 
L 196.935629 -135.637445 
L 196.16954 -135.29287 
L 195.403451 -134.948294 
L 194.637363 -134.603719 
L 193.871274 -134.259143 
L 193.105185 -133.914568 
L 192.339097 -133.569992 
L 191.573008 -133.225417 
L 190.80692 -132.880841 
L 190.040831 -132.536266 
L 189.274742 -132.19169 
L 188.508654 -131.847115 
L 187.742565 -131.502539 
L 186.976476 -131.157964 
L 186.210388 -130.813388 
L 185.444299 -130.468813 
L 184.67821 -130.124237 
L 183.912122 -129.779662 
L 183.146033 -129.435086 
L 182.379944 -129.090511 
L 181.613856 -128.745935 
L 180.847767 -128.40136 
L 180.081678 -128.056784 
L 179.31559 -127.712209 
L 178.549501 -127.367633 
L 177.783412 -127.023058 
L 177.017324 -126.678482 
L 176.251235 -126.333907 
L 175.485146 -125.989331 
L 174.719058 -125.644756 
L 173.952969 -125.30018 
L 173.18688 -124.955604 
L 172.420792 -124.611029 
L 171.654703 -124.266453 
L 170.888614 -123.921878 
L 170.122526 -123.577302 
L 169.356437 -123.232727 
L 168.590348 -122.888151 
L 167.82426 -122.543576 
L 167.058171 -122.199 
L 166.292082 -121.854425 
L 165.525994 -121.509849 
L 164.759905 -121.165274 
L 163.993816 -120.820698 
L 163.227728 -120.476123 
L 162.461639 -120.131547 
L 161.69555 -119.786972 
L 160.929462 -119.442396 
L 160.163373 -119.097821 
L 159.397284 -118.753245 
L 158.631196 -118.40867 
L 157.865107 -118.064094 
L 157.099018 -117.719519 
L 156.33293 -117.374943 
L 155.566841 -117.030368 
L 154.800752 -116.685792 
L 154.034664 -116.341217 
L 153.268575 -115.996641 
L 152.502486 -115.652066 
L 151.736398 -115.30749 
L 150.970309 -114.962915 
L 150.20422 -114.618339 
L 149.438132 -114.273764 
L 148.672043 -113.929188 
L 147.905954 -113.584613 
L 147.139866 -113.240037 
L 146.373777 -112.895462 
L 145.607688 -112.550886 
L 144.8416 -112.206311 
L 144.075511 -111.861735 
L 143.309422 -111.51716 
L 142.543334 -111.172584 
L 141.777245 -110.828009 
L 141.011156 -110.483433 
L 140.245068 -110.138858 
L 139.478979 -109.794282 
L 138.71289 -109.449707 
L 137.946802 -109.105131 
L 137.180713 -108.760556 
L 136.414624 -108.41598 
L 135.648536 -108.071405 
L 134.882447 -107.726829 
L 134.116358 -107.382254 
L 133.35027 -107.037678 
L 132.584181 -106.693103 
L 131.818092 -106.348527 
L 131.052004 -106.003951 
L 130.285915 -105.659376 
L 129.519826 -105.3148 
L 128.753738 -104.970225 
L 127.987649 -104.625649 
L 127.22156 -104.281074 
L 126.455472 -103.936498 
L 125.689383 -103.591923 
L 124.923294 -103.247347 
L 124.157206 -102.902772 
L 123.391117 -102.558196 
L 122.625028 -102.213621 
L 121.85894 -101.869045 
L 121.092851 -101.52447 
L 120.326762 -101.179894 
L 119.560674 -100.835319 
L 118.794585 -100.490743 
L 118.028496 -100.146168 
L 117.262408 -99.801592 
L 116.496319 -99.457017 
L 115.73023 -99.112441 
L 114.964142 -98.767866 
L 114.198053 -98.42329 
L 113.431964 -98.078715 
L 112.665876 -97.734139 
L 111.899787 -97.389564 
L 111.133698 -97.044988 
L 110.36761 -96.700413 
L 109.601521 -96.355837 
L 108.835432 -96.011262 
L 108.069344 -95.666686 
L 107.303255 -95.322111 
L 106.537166 -94.977535 
L 105.771078 -94.63296 
L 105.004989 -94.288384 
L 104.2389 -93.943809 
L 103.472812 -93.599233 
L 102.706723 -93.254658 
L 101.940635 -92.910082 
L 101.174546 -92.565507 
L 100.408457 -92.220931 
L 99.642369 -91.876356 
L 98.87628 -91.53178 
L 98.110191 -91.187205 
L 97.344103 -90.842629 
L 96.578014 -90.498054 
L 95.811925 -90.153478 
L 95.045837 -89.808903 
L 94.279748 -89.464327 
L 93.513659 -89.119752 
L 92.747571 -88.775176 
L 91.981482 -88.430601 
L 91.215393 -88.086025 
L 90.449305 -87.74145 
L 89.683216 -87.396874 
L 88.917127 -87.052298 
L 88.151039 -86.707723 
L 87.38495 -86.363147 
L 86.618861 -86.018572 
L 85.852773 -85.673996 
L 85.086684 -85.329421 
L 84.320595 -84.984845 
L 83.554507 -84.64027 
L 82.788418 -84.295694 
L 82.022329 -83.951119 
L 81.256241 -83.606543 
L 80.490152 -83.261968 
L 79.724063 -82.917392 
L 78.957975 -82.572817 
L 78.191886 -82.228241 
L 77.425797 -81.883666 
L 76.659709 -81.53909 
L 75.89362 -81.194515 
L 75.127531 -80.849939 
L 74.361443 -80.505364 
L 73.595354 -80.160788 
L 72.829265 -79.816213 
L 72.063177 -79.471637 
L 71.297088 -79.127062 
L 70.530999 -78.782486 
L 69.764911 -78.437911 
L 68.998822 -78.093335 
L 68.232733 -77.74876 
L 67.466645 -77.404184 
L 66.700556 -77.059609 
L 65.934467 -76.715033 
L 65.168379 -76.370458 
L 64.40229 -76.025882 
L 63.636201 -75.681307 
L 62.870113 -75.336731 
L 62.104024 -74.992156 
L 61.337935 -74.64758 
L 60.571847 -74.303005 
L 59.805758 -73.958429 
L 59.039669 -73.613854 
L 58.273581 -73.269278 
L 57.507492 -72.924703 
L 56.741403 -72.580127 
L 55.975315 -72.235552 
L 55.209226 -71.890976 
L 54.443137 -71.546401 
L 53.677049 -71.201825 
L 52.91096 -70.85725 
L 52.144871 -70.512674 
L 51.378783 -70.168099 
L 50.612694 -69.823523 
z
" style="stroke: #0000ff; stroke-opacity: 0.15"/>
    </defs>
    <g clip-path="url(#p93e8aa9d5b)">
     <use xlink:href="#ma9db1abc7e" x="0" y="325.281437" style="fill: #0000ff; fill-opacity: 0.15; stroke: #0000ff; stroke-opacity: 0.15"/>
    </g>
   </g>
   <g id="matplotlib.axis_1">
    <g id="xtick_1">
     <g id="line2d_1">
      <path d="M 50.612694 282.886125 
L 50.612694 22.318125 
" clip-path="url(#p93e8aa9d5b)" style="fill: none; stroke: #cccccc; stroke-width: 0.8; stroke-linecap: square"/>
     </g>
     <g id="line2d_2">
      <defs>
       <path id="mf971690632" d="M 0 0 
L 0 3.5 
" style="stroke: #262626; stroke-width: 0.8"/>
      </defs>
      <g>
       <use xlink:href="#mf971690632" x="50.612694" y="282.886125" style="fill: #262626; stroke: #262626; stroke-width: 0.8"/>
      </g>
     </g>
     <g id="text_1">
      <!-- 0 -->
      <g style="fill: #262626" transform="translate(46.795194 299.00425) scale(0.12 -0.12)">
       <defs>
        <path id="DejaVuSans-30" d="M 2034 4250 
Q 1547 4250 1301 3770 
Q 1056 3291 1056 2328 
Q 1056 1369 1301 889 
Q 1547 409 2034 409 
Q 2525 409 2770 889 
Q 3016 1369 3016 2328 
Q 3016 3291 2770 3770 
Q 2525 4250 2034 4250 
z
M 2034 4750 
Q 2819 4750 3233 4129 
Q 3647 3509 3647 2328 
Q 3647 1150 3233 529 
Q 2819 -91 2034 -91 
Q 1250 -91 836 529 
Q 422 1150 422 2328 
Q 422 3509 836 4129 
Q 1250 4750 2034 4750 
z
" transform="scale(0.015625)"/>
       </defs>
       <use xlink:href="#DejaVuSans-30"/>
      </g>
     </g>
    </g>
    <g id="xtick_2">
     <g id="line2d_3">
      <path d="M 111.593352 282.886125 
L 111.593352 22.318125 
" clip-path="url(#p93e8aa9d5b)" style="fill: none; stroke: #cccccc; stroke-width: 0.8; stroke-linecap: square"/>
     </g>
     <g id="line2d_4">
      <g>
       <use xlink:href="#mf971690632" x="111.593352" y="282.886125" style="fill: #262626; stroke: #262626; stroke-width: 0.8"/>
      </g>
     </g>
     <g id="text_2">
      <!-- 1 -->
      <g style="fill: #262626" transform="translate(107.775852 299.00425) scale(0.12 -0.12)">
       <defs>
        <path id="DejaVuSans-31" d="M 794 531 
L 1825 531 
L 1825 4091 
L 703 3866 
L 703 4441 
L 1819 4666 
L 2450 4666 
L 2450 531 
L 3481 531 
L 3481 0 
L 794 0 
L 794 531 
z
" transform="scale(0.015625)"/>
       </defs>
       <use xlink:href="#DejaVuSans-31"/>
      </g>
     </g>
    </g>
    <g id="xtick_3">
     <g id="line2d_5">
      <path d="M 172.574009 282.886125 
L 172.574009 22.318125 
" clip-path="url(#p93e8aa9d5b)" style="fill: none; stroke: #cccccc; stroke-width: 0.8; stroke-linecap: square"/>
     </g>
     <g id="line2d_6">
      <g>
       <use xlink:href="#mf971690632" x="172.574009" y="282.886125" style="fill: #262626; stroke: #262626; stroke-width: 0.8"/>
      </g>
     </g>
     <g id="text_3">
      <!-- 2 -->
      <g style="fill: #262626" transform="translate(168.756509 299.00425) scale(0.12 -0.12)">
       <defs>
        <path id="DejaVuSans-32" d="M 1228 531 
L 3431 531 
L 3431 0 
L 469 0 
L 469 531 
Q 828 903 1448 1529 
Q 2069 2156 2228 2338 
Q 2531 2678 2651 2914 
Q 2772 3150 2772 3378 
Q 2772 3750 2511 3984 
Q 2250 4219 1831 4219 
Q 1534 4219 1204 4116 
Q 875 4013 500 3803 
L 500 4441 
Q 881 4594 1212 4672 
Q 1544 4750 1819 4750 
Q 2544 4750 2975 4387 
Q 3406 4025 3406 3419 
Q 3406 3131 3298 2873 
Q 3191 2616 2906 2266 
Q 2828 2175 2409 1742 
Q 1991 1309 1228 531 
z
" transform="scale(0.015625)"/>
       </defs>
       <use xlink:href="#DejaVuSans-32"/>
      </g>
     </g>
    </g>
    <g id="xtick_4">
     <g id="line2d_7">
      <path d="M 233.554667 282.886125 
L 233.554667 22.318125 
" clip-path="url(#p93e8aa9d5b)" style="fill: none; stroke: #cccccc; stroke-width: 0.8; stroke-linecap: square"/>
     </g>
     <g id="line2d_8">
      <g>
       <use xlink:href="#mf971690632" x="233.554667" y="282.886125" style="fill: #262626; stroke: #262626; stroke-width: 0.8"/>
      </g>
     </g>
     <g id="text_4">
      <!-- 3 -->
      <g style="fill: #262626" transform="translate(229.737167 299.00425) scale(0.12 -0.12)">
       <defs>
        <path id="DejaVuSans-33" d="M 2597 2516 
Q 3050 2419 3304 2112 
Q 3559 1806 3559 1356 
Q 3559 666 3084 287 
Q 2609 -91 1734 -91 
Q 1441 -91 1130 -33 
Q 819 25 488 141 
L 488 750 
Q 750 597 1062 519 
Q 1375 441 1716 441 
Q 2309 441 2620 675 
Q 2931 909 2931 1356 
Q 2931 1769 2642 2001 
Q 2353 2234 1838 2234 
L 1294 2234 
L 1294 2753 
L 1863 2753 
Q 2328 2753 2575 2939 
Q 2822 3125 2822 3475 
Q 2822 3834 2567 4026 
Q 2313 4219 1838 4219 
Q 1578 4219 1281 4162 
Q 984 4106 628 3988 
L 628 4550 
Q 988 4650 1302 4700 
Q 1616 4750 1894 4750 
Q 2613 4750 3031 4423 
Q 3450 4097 3450 3541 
Q 3450 3153 3228 2886 
Q 3006 2619 2597 2516 
z
" transform="scale(0.015625)"/>
       </defs>
       <use xlink:href="#DejaVuSans-33"/>
      </g>
     </g>
    </g>
    <g id="xtick_5">
     <g id="line2d_9">
      <path d="M 294.535325 282.886125 
L 294.535325 22.318125 
" clip-path="url(#p93e8aa9d5b)" style="fill: none; stroke: #cccccc; stroke-width: 0.8; stroke-linecap: square"/>
     </g>
     <g id="line2d_10">
      <g>
       <use xlink:href="#mf971690632" x="294.535325" y="282.886125" style="fill: #262626; stroke: #262626; stroke-width: 0.8"/>
      </g>
     </g>
     <g id="text_5">
      <!-- 4 -->
      <g style="fill: #262626" transform="translate(290.717825 299.00425) scale(0.12 -0.12)">
       <defs>
        <path id="DejaVuSans-34" d="M 2419 4116 
L 825 1625 
L 2419 1625 
L 2419 4116 
z
M 2253 4666 
L 3047 4666 
L 3047 1625 
L 3713 1625 
L 3713 1100 
L 3047 1100 
L 3047 0 
L 2419 0 
L 2419 1100 
L 313 1100 
L 313 1709 
L 2253 4666 
z
" transform="scale(0.015625)"/>
       </defs>
       <use xlink:href="#DejaVuSans-34"/>
      </g>
     </g>
    </g>
    <g id="text_6">
     <!-- $t$ -->
     <g style="fill: #262626" transform="translate(169.974009 315.377844) scale(0.13 -0.13)">
      <defs>
       <path id="DejaVuSans-Oblique-74" d="M 2706 3500 
L 2619 3053 
L 1472 3053 
L 1100 1153 
Q 1081 1047 1072 975 
Q 1063 903 1063 863 
Q 1063 663 1183 572 
Q 1303 481 1569 481 
L 2150 481 
L 2053 0 
L 1503 0 
Q 991 0 739 200 
Q 488 400 488 806 
Q 488 878 497 964 
Q 506 1050 525 1153 
L 897 3053 
L 409 3053 
L 500 3500 
L 978 3500 
L 1172 4494 
L 1747 4494 
L 1556 3500 
L 2706 3500 
z
" transform="scale(0.015625)"/>
      </defs>
      <use xlink:href="#DejaVuSans-Oblique-74" transform="translate(0 0.78125)"/>
     </g>
    </g>
   </g>
   <g id="matplotlib.axis_2">
    <g id="ytick_1">
     <g id="line2d_11">
      <path d="M 38.416563 255.457914 
L 306.731456 255.457914 
" clip-path="url(#p93e8aa9d5b)" style="fill: none; stroke: #cccccc; stroke-width: 0.8; stroke-linecap: square"/>
     </g>
     <g id="line2d_12">
      <defs>
       <path id="m83a39d3d8a" d="M 0 0 
L -3.5 0 
" style="stroke: #262626; stroke-width: 0.8"/>
      </defs>
      <g>
       <use xlink:href="#m83a39d3d8a" x="38.416563" y="255.457914" style="fill: #262626; stroke: #262626; stroke-width: 0.8"/>
      </g>
     </g>
     <g id="text_7">
      <!-- 0 -->
      <g style="fill: #262626" transform="translate(23.781563 260.016977) scale(0.12 -0.12)">
       <use xlink:href="#DejaVuSans-30"/>
      </g>
     </g>
    </g>
    <g id="ytick_2">
     <g id="line2d_13">
      <path d="M 38.416563 200.601493 
L 306.731456 200.601493 
" clip-path="url(#p93e8aa9d5b)" style="fill: none; stroke: #cccccc; stroke-width: 0.8; stroke-linecap: square"/>
     </g>
     <g id="line2d_14">
      <g>
       <use xlink:href="#m83a39d3d8a" x="38.416563" y="200.601493" style="fill: #262626; stroke: #262626; stroke-width: 0.8"/>
      </g>
     </g>
     <g id="text_8">
      <!-- 2 -->
      <g style="fill: #262626" transform="translate(23.781563 205.160556) scale(0.12 -0.12)">
       <use xlink:href="#DejaVuSans-32"/>
      </g>
     </g>
    </g>
    <g id="ytick_3">
     <g id="line2d_15">
      <path d="M 38.416563 145.745072 
L 306.731456 145.745072 
" clip-path="url(#p93e8aa9d5b)" style="fill: none; stroke: #cccccc; stroke-width: 0.8; stroke-linecap: square"/>
     </g>
     <g id="line2d_16">
      <g>
       <use xlink:href="#m83a39d3d8a" x="38.416563" y="145.745072" style="fill: #262626; stroke: #262626; stroke-width: 0.8"/>
      </g>
     </g>
     <g id="text_9">
      <!-- 4 -->
      <g style="fill: #262626" transform="translate(23.781563 150.304135) scale(0.12 -0.12)">
       <use xlink:href="#DejaVuSans-34"/>
      </g>
     </g>
    </g>
    <g id="ytick_4">
     <g id="line2d_17">
      <path d="M 38.416563 90.888651 
L 306.731456 90.888651 
" clip-path="url(#p93e8aa9d5b)" style="fill: none; stroke: #cccccc; stroke-width: 0.8; stroke-linecap: square"/>
     </g>
     <g id="line2d_18">
      <g>
       <use xlink:href="#m83a39d3d8a" x="38.416563" y="90.888651" style="fill: #262626; stroke: #262626; stroke-width: 0.8"/>
      </g>
     </g>
     <g id="text_10">
      <!-- 6 -->
      <g style="fill: #262626" transform="translate(23.781563 95.447714) scale(0.12 -0.12)">
       <defs>
        <path id="DejaVuSans-36" d="M 2113 2584 
Q 1688 2584 1439 2293 
Q 1191 2003 1191 1497 
Q 1191 994 1439 701 
Q 1688 409 2113 409 
Q 2538 409 2786 701 
Q 3034 994 3034 1497 
Q 3034 2003 2786 2293 
Q 2538 2584 2113 2584 
z
M 3366 4563 
L 3366 3988 
Q 3128 4100 2886 4159 
Q 2644 4219 2406 4219 
Q 1781 4219 1451 3797 
Q 1122 3375 1075 2522 
Q 1259 2794 1537 2939 
Q 1816 3084 2150 3084 
Q 2853 3084 3261 2657 
Q 3669 2231 3669 1497 
Q 3669 778 3244 343 
Q 2819 -91 2113 -91 
Q 1303 -91 875 529 
Q 447 1150 447 2328 
Q 447 3434 972 4092 
Q 1497 4750 2381 4750 
Q 2619 4750 2861 4703 
Q 3103 4656 3366 4563 
z
" transform="scale(0.015625)"/>
       </defs>
       <use xlink:href="#DejaVuSans-36"/>
      </g>
     </g>
    </g>
    <g id="ytick_5">
     <g id="line2d_19">
      <path d="M 38.416563 36.03223 
L 306.731456 36.03223 
" clip-path="url(#p93e8aa9d5b)" style="fill: none; stroke: #cccccc; stroke-width: 0.8; stroke-linecap: square"/>
     </g>
     <g id="line2d_20">
      <g>
       <use xlink:href="#m83a39d3d8a" x="38.416563" y="36.03223" style="fill: #262626; stroke: #262626; stroke-width: 0.8"/>
      </g>
     </g>
     <g id="text_11">
      <!-- 8 -->
      <g style="fill: #262626" transform="translate(23.781563 40.591293) scale(0.12 -0.12)">
       <defs>
        <path id="DejaVuSans-38" d="M 2034 2216 
Q 1584 2216 1326 1975 
Q 1069 1734 1069 1313 
Q 1069 891 1326 650 
Q 1584 409 2034 409 
Q 2484 409 2743 651 
Q 3003 894 3003 1313 
Q 3003 1734 2745 1975 
Q 2488 2216 2034 2216 
z
M 1403 2484 
Q 997 2584 770 2862 
Q 544 3141 544 3541 
Q 544 4100 942 4425 
Q 1341 4750 2034 4750 
Q 2731 4750 3128 4425 
Q 3525 4100 3525 3541 
Q 3525 3141 3298 2862 
Q 3072 2584 2669 2484 
Q 3125 2378 3379 2068 
Q 3634 1759 3634 1313 
Q 3634 634 3220 271 
Q 2806 -91 2034 -91 
Q 1263 -91 848 271 
Q 434 634 434 1313 
Q 434 1759 690 2068 
Q 947 2378 1403 2484 
z
M 1172 3481 
Q 1172 3119 1398 2916 
Q 1625 2713 2034 2713 
Q 2441 2713 2670 2916 
Q 2900 3119 2900 3481 
Q 2900 3844 2670 4047 
Q 2441 4250 2034 4250 
Q 1625 4250 1398 4047 
Q 1172 3844 1172 3481 
z
" transform="scale(0.015625)"/>
       </defs>
       <use xlink:href="#DejaVuSans-38"/>
      </g>
     </g>
    </g>
    <g id="text_12">
     <!-- $f(t)$ -->
     <g style="fill: #262626" transform="translate(17.077969 162.547125) rotate(-90) scale(0.13 -0.13)">
      <defs>
       <path id="DejaVuSans-Oblique-66" d="M 3059 4863 
L 2969 4384 
L 2419 4384 
Q 2106 4384 1964 4261 
Q 1822 4138 1753 3809 
L 1691 3500 
L 2638 3500 
L 2553 3053 
L 1606 3053 
L 1013 0 
L 434 0 
L 1031 3053 
L 481 3053 
L 563 3500 
L 1113 3500 
L 1159 3744 
Q 1278 4363 1576 4613 
Q 1875 4863 2516 4863 
L 3059 4863 
z
" transform="scale(0.015625)"/>
       <path id="DejaVuSans-28" d="M 1984 4856 
Q 1566 4138 1362 3434 
Q 1159 2731 1159 2009 
Q 1159 1288 1364 580 
Q 1569 -128 1984 -844 
L 1484 -844 
Q 1016 -109 783 600 
Q 550 1309 550 2009 
Q 550 2706 781 3412 
Q 1013 4119 1484 4856 
L 1984 4856 
z
" transform="scale(0.015625)"/>
       <path id="DejaVuSans-29" d="M 513 4856 
L 1013 4856 
Q 1481 4119 1714 3412 
Q 1947 2706 1947 2009 
Q 1947 1309 1714 600 
Q 1481 -109 1013 -844 
L 513 -844 
Q 928 -128 1133 580 
Q 1338 1288 1338 2009 
Q 1338 2731 1133 3434 
Q 928 4138 513 4856 
z
" transform="scale(0.015625)"/>
      </defs>
      <use xlink:href="#DejaVuSans-Oblique-66" transform="translate(0 0.015625)"/>
      <use xlink:href="#DejaVuSans-28" transform="translate(35.205078 0.015625)"/>
      <use xlink:href="#DejaVuSans-Oblique-74" transform="translate(74.21875 0.015625)"/>
      <use xlink:href="#DejaVuSans-29" transform="translate(113.427734 0.015625)"/>
     </g>
    </g>
   </g>
   <g id="line2d_21">
    <path d="M 50.612694 255.457914 
L 294.535325 145.745072 
L 294.535325 145.745072 
" clip-path="url(#p93e8aa9d5b)" style="fill: none; stroke: #0000ff; stroke-width: 2.5; stroke-linecap: square"/>
   </g>
   <g id="line2d_22">
    <path d="M 50.612694 255.457914 
L 56.323257 255.337649 
L 62.033821 254.976852 
L 67.744384 254.375525 
L 73.454947 253.533666 
L 79.16551 252.451276 
L 84.876074 251.128355 
L 90.586637 249.564904 
L 96.2972 247.760921 
L 102.007763 245.716407 
L 107.718327 243.431362 
L 113.42889 240.905786 
L 119.139453 238.139678 
L 124.850016 235.13304 
L 130.56058 231.885871 
L 136.271143 228.398171 
L 141.981706 224.669939 
L 147.692269 220.701177 
L 153.402833 216.491883 
L 159.929191 211.386734 
L 166.455549 205.967422 
L 172.981907 200.233947 
L 179.508265 194.186309 
L 186.034623 187.824508 
L 192.560981 181.148544 
L 199.087339 174.158417 
L 205.613697 166.854127 
L 212.140055 159.235674 
L 218.666413 151.303058 
L 226.008566 142.003342 
L 233.350718 132.306013 
L 240.692871 122.211072 
L 248.035024 111.718518 
L 255.377177 100.828352 
L 262.719329 89.540573 
L 270.061482 77.855181 
L 277.403635 65.772177 
L 284.745788 53.291561 
L 292.903735 38.957873 
L 294.535325 36.03223 
L 294.535325 36.03223 
" clip-path="url(#p93e8aa9d5b)" style="fill: none; stroke: #ff0000; stroke-width: 2.5; stroke-linecap: square"/>
   </g>
   <g id="patch_3">
    <path d="M 38.416563 282.886125 
L 38.416563 22.318125 
" style="fill: none; stroke: #333333; stroke-width: 0.8; stroke-linejoin: miter; stroke-linecap: square"/>
   </g>
   <g id="patch_4">
    <path d="M 306.731456 282.886125 
L 306.731456 22.318125 
" style="fill: none; stroke: #333333; stroke-width: 0.8; stroke-linejoin: miter; stroke-linecap: square"/>
   </g>
   <g id="patch_5">
    <path d="M 38.416563 282.886125 
L 306.731456 282.886125 
" style="fill: none; stroke: #333333; stroke-width: 0.8; stroke-linejoin: miter; stroke-linecap: square"/>
   </g>
   <g id="patch_6">
    <path d="M 38.416563 22.318125 
L 306.731456 22.318125 
" style="fill: none; stroke: #333333; stroke-width: 0.8; stroke-linejoin: miter; stroke-linecap: square"/>
   </g>
   <g id="patch_7">
    <path d="M 203.064338 256.054175 
Q 203.064338 255.756045 203.064338 256.575948 
" style="fill: none; stroke: #333333; stroke-linecap: round"/>
    <path d="M 200.664338 261.375948 
L 203.064338 256.575948 
L 205.464338 261.375948 
" style="fill: none; stroke: #333333; stroke-linecap: round"/>
   </g>
   <g id="text_13">
    <!-- $x$ -->
    <g style="fill: #262626" transform="translate(199.464338 269.17202) scale(0.12 -0.12)">
     <defs>
      <path id="DejaVuSans-Oblique-78" d="M 3841 3500 
L 2234 1784 
L 3219 0 
L 2559 0 
L 1819 1388 
L 531 0 
L -166 0 
L 1556 1844 
L 641 3500 
L 1300 3500 
L 1972 2234 
L 3144 3500 
L 3841 3500 
z
" transform="scale(0.015625)"/>
     </defs>
     <use xlink:href="#DejaVuSans-Oblique-78" transform="translate(0 0.3125)"/>
    </g>
   </g>
   <g id="text_14">
    <g id="patch_8">
     <path d="M 81.103023 152.294987 
L 167.603023 152.294987 
Q 171.603023 152.294987 171.603023 148.294987 
L 171.603023 121.537174 
Q 171.603023 117.537174 167.603023 117.537174 
L 81.103023 117.537174 
Q 77.103023 117.537174 77.103023 121.537174 
L 77.103023 148.294987 
Q 77.103023 152.294987 81.103023 152.294987 
z
" style="fill: #ffffcc; opacity: 0.95; stroke: #999999; stroke-linejoin: miter"/>
    </g>
    <!-- FTC Part 1: -->
    <g style="fill: #262626" transform="translate(81.103023 125.915299) scale(0.1 -0.1)">
     <defs>
      <path id="DejaVuSans-46" d="M 628 4666 
L 3309 4666 
L 3309 4134 
L 1259 4134 
L 1259 2759 
L 3109 2759 
L 3109 2228 
L 1259 2228 
L 1259 0 
L 628 0 
L 628 4666 
z
" transform="scale(0.015625)"/>
      <path id="DejaVuSans-54" d="M -19 4666 
L 3928 4666 
L 3928 4134 
L 2272 4134 
L 2272 0 
L 1638 0 
L 1638 4134 
L -19 4134 
L -19 4666 
z
" transform="scale(0.015625)"/>
      <path id="DejaVuSans-43" d="M 4122 4306 
L 4122 3641 
Q 3803 3938 3442 4084 
Q 3081 4231 2675 4231 
Q 1875 4231 1450 3742 
Q 1025 3253 1025 2328 
Q 1025 1406 1450 917 
Q 1875 428 2675 428 
Q 3081 428 3442 575 
Q 3803 722 4122 1019 
L 4122 359 
Q 3791 134 3420 21 
Q 3050 -91 2638 -91 
Q 1578 -91 968 557 
Q 359 1206 359 2328 
Q 359 3453 968 4101 
Q 1578 4750 2638 4750 
Q 3056 4750 3426 4639 
Q 3797 4528 4122 4306 
z
" transform="scale(0.015625)"/>
      <path id="DejaVuSans-20" transform="scale(0.015625)"/>
      <path id="DejaVuSans-50" d="M 1259 4147 
L 1259 2394 
L 2053 2394 
Q 2494 2394 2734 2622 
Q 2975 2850 2975 3272 
Q 2975 3691 2734 3919 
Q 2494 4147 2053 4147 
L 1259 4147 
z
M 628 4666 
L 2053 4666 
Q 2838 4666 3239 4311 
Q 3641 3956 3641 3272 
Q 3641 2581 3239 2228 
Q 2838 1875 2053 1875 
L 1259 1875 
L 1259 0 
L 628 0 
L 628 4666 
z
" transform="scale(0.015625)"/>
      <path id="DejaVuSans-61" d="M 2194 1759 
Q 1497 1759 1228 1600 
Q 959 1441 959 1056 
Q 959 750 1161 570 
Q 1363 391 1709 391 
Q 2188 391 2477 730 
Q 2766 1069 2766 1631 
L 2766 1759 
L 2194 1759 
z
M 3341 1997 
L 3341 0 
L 2766 0 
L 2766 531 
Q 2569 213 2275 61 
Q 1981 -91 1556 -91 
Q 1019 -91 701 211 
Q 384 513 384 1019 
Q 384 1609 779 1909 
Q 1175 2209 1959 2209 
L 2766 2209 
L 2766 2266 
Q 2766 2663 2505 2880 
Q 2244 3097 1772 3097 
Q 1472 3097 1187 3025 
Q 903 2953 641 2809 
L 641 3341 
Q 956 3463 1253 3523 
Q 1550 3584 1831 3584 
Q 2591 3584 2966 3190 
Q 3341 2797 3341 1997 
z
" transform="scale(0.015625)"/>
      <path id="DejaVuSans-72" d="M 2631 2963 
Q 2534 3019 2420 3045 
Q 2306 3072 2169 3072 
Q 1681 3072 1420 2755 
Q 1159 2438 1159 1844 
L 1159 0 
L 581 0 
L 581 3500 
L 1159 3500 
L 1159 2956 
Q 1341 3275 1631 3429 
Q 1922 3584 2338 3584 
Q 2397 3584 2469 3576 
Q 2541 3569 2628 3553 
L 2631 2963 
z
" transform="scale(0.015625)"/>
      <path id="DejaVuSans-74" d="M 1172 4494 
L 1172 3500 
L 2356 3500 
L 2356 3053 
L 1172 3053 
L 1172 1153 
Q 1172 725 1289 603 
Q 1406 481 1766 481 
L 2356 481 
L 2356 0 
L 1766 0 
Q 1100 0 847 248 
Q 594 497 594 1153 
L 594 3053 
L 172 3053 
L 172 3500 
L 594 3500 
L 594 4494 
L 1172 4494 
z
" transform="scale(0.015625)"/>
      <path id="DejaVuSans-3a" d="M 750 794 
L 1409 794 
L 1409 0 
L 750 0 
L 750 794 
z
M 750 3309 
L 1409 3309 
L 1409 2516 
L 750 2516 
L 750 3309 
z
" transform="scale(0.015625)"/>
     </defs>
     <use xlink:href="#DejaVuSans-46"/>
     <use xlink:href="#DejaVuSans-54" transform="translate(55.769531 0)"/>
     <use xlink:href="#DejaVuSans-43" transform="translate(110.978516 0)"/>
     <use xlink:href="#DejaVuSans-20" transform="translate(180.802734 0)"/>
     <use xlink:href="#DejaVuSans-50" transform="translate(212.589844 0)"/>
     <use xlink:href="#DejaVuSans-61" transform="translate(268.392578 0)"/>
     <use xlink:href="#DejaVuSans-72" transform="translate(329.671875 0)"/>
     <use xlink:href="#DejaVuSans-74" transform="translate(370.785156 0)"/>
     <use xlink:href="#DejaVuSans-20" transform="translate(409.994141 0)"/>
     <use xlink:href="#DejaVuSans-31" transform="translate(441.78125 0)"/>
     <use xlink:href="#DejaVuSans-3a" transform="translate(505.404297 0)"/>
    </g>
    <!-- $\frac{d}{dx}\!\left[\int_a^x f(t)\,dt\right] = f(x)$ -->
    <g style="fill: #262626" transform="translate(81.103023 142.994987) scale(0.1 -0.1)">
     <defs>
      <path id="DejaVuSans-Oblique-64" d="M 2675 525 
Q 2444 222 2128 65 
Q 1813 -91 1428 -91 
Q 903 -91 598 267 
Q 294 625 294 1247 
Q 294 1766 478 2236 
Q 663 2706 1013 3078 
Q 1244 3325 1534 3454 
Q 1825 3584 2144 3584 
Q 2481 3584 2739 3421 
Q 2997 3259 3138 2956 
L 3513 4863 
L 4091 4863 
L 3144 0 
L 2566 0 
L 2675 525 
z
M 891 1350 
Q 891 897 1095 644 
Q 1300 391 1663 391 
Q 1931 391 2161 520 
Q 2391 650 2566 903 
Q 2750 1166 2856 1509 
Q 2963 1853 2963 2188 
Q 2963 2622 2758 2865 
Q 2553 3109 2194 3109 
Q 1922 3109 1687 2981 
Q 1453 2853 1288 2613 
Q 1106 2353 998 2009 
Q 891 1666 891 1350 
z
" transform="scale(0.015625)"/>
      <path id="STIXSizeTwoSym-Regular-5b" d="M 2701 -1786 
L 1216 -1786 
L 1216 10022 
L 2701 10022 
L 2701 9766 
L 1702 9766 
L 1702 -1530 
L 2701 -1530 
L 2701 -1786 
z
" transform="scale(0.015625)"/>
      <path id="DejaVuSansDisplay-222b" d="M 2134 5525 
Q 2172 6263 2528 6556 
Q 2884 6850 3218 6850 
Q 3553 6850 3833 6575 
Q 4113 6300 4200 5678 
L 3544 5613 
Q 3469 6188 3219 6188 
Q 2906 6188 2869 5413 
L 2581 -597 
Q 2547 -1334 2187 -1628 
Q 1828 -1922 1497 -1922 
Q 1163 -1922 883 -1647 
Q 603 -1372 516 -750 
L 1172 -684 
Q 1247 -1259 1497 -1259 
Q 1809 -1259 1847 -488 
L 2134 5525 
z
" transform="scale(0.015625)"/>
      <path id="DejaVuSans-Oblique-61" d="M 3438 1997 
L 3047 0 
L 2472 0 
L 2578 531 
Q 2325 219 2001 64 
Q 1678 -91 1281 -91 
Q 834 -91 548 182 
Q 263 456 263 884 
Q 263 1497 752 1853 
Q 1241 2209 2100 2209 
L 2900 2209 
L 2931 2363 
Q 2938 2388 2941 2417 
Q 2944 2447 2944 2509 
Q 2944 2788 2717 2942 
Q 2491 3097 2081 3097 
Q 1800 3097 1504 3025 
Q 1209 2953 897 2809 
L 997 3341 
Q 1322 3463 1633 3523 
Q 1944 3584 2234 3584 
Q 2853 3584 3176 3315 
Q 3500 3047 3500 2534 
Q 3500 2431 3484 2292 
Q 3469 2153 3438 1997 
z
M 2816 1759 
L 2241 1759 
Q 1534 1759 1195 1570 
Q 856 1381 856 984 
Q 856 709 1029 553 
Q 1203 397 1509 397 
Q 1978 397 2328 733 
Q 2678 1069 2791 1631 
L 2816 1759 
z
" transform="scale(0.015625)"/>
      <path id="STIXSizeTwoSym-Regular-5d" d="M 1722 -1786 
L 237 -1786 
L 237 -1530 
L 1235 -1530 
L 1235 9766 
L 237 9766 
L 237 10022 
L 1722 10022 
L 1722 -1786 
z
" transform="scale(0.015625)"/>
      <path id="DejaVuSans-3d" d="M 678 2906 
L 4684 2906 
L 4684 2381 
L 678 2381 
L 678 2906 
z
M 678 1631 
L 4684 1631 
L 4684 1100 
L 678 1100 
L 678 1631 
z
" transform="scale(0.015625)"/>
     </defs>
     <use xlink:href="#DejaVuSans-Oblique-64" transform="translate(21 45.584375) scale(0.7)"/>
     <use xlink:href="#DejaVuSans-Oblique-64" transform="translate(0 -39.85) scale(0.7)"/>
     <use xlink:href="#DejaVuSans-Oblique-78" transform="translate(44.433594 -39.85) scale(0.7)"/>
     <use xlink:href="#STIXSizeTwoSym-Regular-5b" transform="translate(82.123699 -25.328125) scale(0.955767)"/>
     <use xlink:href="#DejaVuSansDisplay-222b" transform="translate(126.015575 0.792187)"/>
     <use xlink:href="#DejaVuSans-Oblique-78" transform="translate(212.759716 85.948437) scale(0.7)"/>
     <use xlink:href="#DejaVuSans-Oblique-61" transform="translate(197.775341 -51.114063) scale(0.7)"/>
     <use xlink:href="#DejaVuSans-Oblique-66" transform="translate(254.185497 0.792187)"/>
     <use xlink:href="#DejaVuSans-28" transform="translate(289.390575 0.792187)"/>
     <use xlink:href="#DejaVuSans-Oblique-74" transform="translate(328.404247 0.792187)"/>
     <use xlink:href="#DejaVuSans-29" transform="translate(367.613231 0.792187)"/>
     <use xlink:href="#DejaVuSans-Oblique-64" transform="translate(422.862579 0.792187)"/>
     <use xlink:href="#DejaVuSans-Oblique-74" transform="translate(486.339142 0.792187)"/>
     <use xlink:href="#STIXSizeTwoSym-Regular-5d" transform="translate(525.548126 -25.328125) scale(0.955767)"/>
     <use xlink:href="#DejaVuSans-3d" transform="translate(588.922424 0.792187)"/>
     <use xlink:href="#DejaVuSans-Oblique-66" transform="translate(692.193909 0.792187)"/>
     <use xlink:href="#DejaVuSans-28" transform="translate(727.398987 0.792187)"/>
     <use xlink:href="#DejaVuSans-Oblique-78" transform="translate(766.412659 0.792187)"/>
     <use xlink:href="#DejaVuSans-29" transform="translate(825.592346 0.792187)"/>
     <path d="M 0 19.589062 
L 0 25.839062 
L 85.859375 25.839062 
L 85.859375 19.589062 
L 0 19.589062 
z
"/>
    </g>
   </g>
   <g id="text_15">
    <!-- FTC Part 1: Derivative of an Integral -->
    <g style="fill: #262626" transform="translate(49.971509 16.318125) scale(0.12 -0.12)">
     <defs>
      <path id="DejaVuSans-Bold-46" d="M 588 4666 
L 3834 4666 
L 3834 3756 
L 1791 3756 
L 1791 2888 
L 3713 2888 
L 3713 1978 
L 1791 1978 
L 1791 0 
L 588 0 
L 588 4666 
z
" transform="scale(0.015625)"/>
      <path id="DejaVuSans-Bold-54" d="M 31 4666 
L 4331 4666 
L 4331 3756 
L 2784 3756 
L 2784 0 
L 1581 0 
L 1581 3756 
L 31 3756 
L 31 4666 
z
" transform="scale(0.015625)"/>
      <path id="DejaVuSans-Bold-43" d="M 4288 256 
Q 3956 84 3597 -3 
Q 3238 -91 2847 -91 
Q 1681 -91 1000 561 
Q 319 1213 319 2328 
Q 319 3447 1000 4098 
Q 1681 4750 2847 4750 
Q 3238 4750 3597 4662 
Q 3956 4575 4288 4403 
L 4288 3438 
Q 3953 3666 3628 3772 
Q 3303 3878 2944 3878 
Q 2300 3878 1931 3465 
Q 1563 3053 1563 2328 
Q 1563 1606 1931 1193 
Q 2300 781 2944 781 
Q 3303 781 3628 887 
Q 3953 994 4288 1222 
L 4288 256 
z
" transform="scale(0.015625)"/>
      <path id="DejaVuSans-Bold-20" transform="scale(0.015625)"/>
      <path id="DejaVuSans-Bold-50" d="M 588 4666 
L 2584 4666 
Q 3475 4666 3951 4270 
Q 4428 3875 4428 3144 
Q 4428 2409 3951 2014 
Q 3475 1619 2584 1619 
L 1791 1619 
L 1791 0 
L 588 0 
L 588 4666 
z
M 1791 3794 
L 1791 2491 
L 2456 2491 
Q 2806 2491 2997 2661 
Q 3188 2831 3188 3144 
Q 3188 3456 2997 3625 
Q 2806 3794 2456 3794 
L 1791 3794 
z
" transform="scale(0.015625)"/>
      <path id="DejaVuSans-Bold-61" d="M 2106 1575 
Q 1756 1575 1579 1456 
Q 1403 1338 1403 1106 
Q 1403 894 1545 773 
Q 1688 653 1941 653 
Q 2256 653 2472 879 
Q 2688 1106 2688 1447 
L 2688 1575 
L 2106 1575 
z
M 3816 1997 
L 3816 0 
L 2688 0 
L 2688 519 
Q 2463 200 2181 54 
Q 1900 -91 1497 -91 
Q 953 -91 614 226 
Q 275 544 275 1050 
Q 275 1666 698 1953 
Q 1122 2241 2028 2241 
L 2688 2241 
L 2688 2328 
Q 2688 2594 2478 2717 
Q 2269 2841 1825 2841 
Q 1466 2841 1156 2769 
Q 847 2697 581 2553 
L 581 3406 
Q 941 3494 1303 3539 
Q 1666 3584 2028 3584 
Q 2975 3584 3395 3211 
Q 3816 2838 3816 1997 
z
" transform="scale(0.015625)"/>
      <path id="DejaVuSans-Bold-72" d="M 3138 2547 
Q 2991 2616 2845 2648 
Q 2700 2681 2553 2681 
Q 2122 2681 1889 2404 
Q 1656 2128 1656 1613 
L 1656 0 
L 538 0 
L 538 3500 
L 1656 3500 
L 1656 2925 
Q 1872 3269 2151 3426 
Q 2431 3584 2822 3584 
Q 2878 3584 2943 3579 
Q 3009 3575 3134 3559 
L 3138 2547 
z
" transform="scale(0.015625)"/>
      <path id="DejaVuSans-Bold-74" d="M 1759 4494 
L 1759 3500 
L 2913 3500 
L 2913 2700 
L 1759 2700 
L 1759 1216 
Q 1759 972 1856 886 
Q 1953 800 2241 800 
L 2816 800 
L 2816 0 
L 1856 0 
Q 1194 0 917 276 
Q 641 553 641 1216 
L 641 2700 
L 84 2700 
L 84 3500 
L 641 3500 
L 641 4494 
L 1759 4494 
z
" transform="scale(0.015625)"/>
      <path id="DejaVuSans-Bold-31" d="M 750 831 
L 1813 831 
L 1813 3847 
L 722 3622 
L 722 4441 
L 1806 4666 
L 2950 4666 
L 2950 831 
L 4013 831 
L 4013 0 
L 750 0 
L 750 831 
z
" transform="scale(0.015625)"/>
      <path id="DejaVuSans-Bold-3a" d="M 716 3500 
L 1844 3500 
L 1844 2291 
L 716 2291 
L 716 3500 
z
M 716 1209 
L 1844 1209 
L 1844 0 
L 716 0 
L 716 1209 
z
" transform="scale(0.015625)"/>
      <path id="DejaVuSans-Bold-44" d="M 1791 3756 
L 1791 909 
L 2222 909 
Q 2959 909 3348 1275 
Q 3738 1641 3738 2338 
Q 3738 3031 3350 3393 
Q 2963 3756 2222 3756 
L 1791 3756 
z
M 588 4666 
L 1856 4666 
Q 2919 4666 3439 4514 
Q 3959 4363 4331 4000 
Q 4659 3684 4818 3271 
Q 4978 2859 4978 2338 
Q 4978 1809 4818 1395 
Q 4659 981 4331 666 
Q 3956 303 3431 151 
Q 2906 0 1856 0 
L 588 0 
L 588 4666 
z
" transform="scale(0.015625)"/>
      <path id="DejaVuSans-Bold-65" d="M 4031 1759 
L 4031 1441 
L 1416 1441 
Q 1456 1047 1700 850 
Q 1944 653 2381 653 
Q 2734 653 3104 758 
Q 3475 863 3866 1075 
L 3866 213 
Q 3469 63 3072 -14 
Q 2675 -91 2278 -91 
Q 1328 -91 801 392 
Q 275 875 275 1747 
Q 275 2603 792 3093 
Q 1309 3584 2216 3584 
Q 3041 3584 3536 3087 
Q 4031 2591 4031 1759 
z
M 2881 2131 
Q 2881 2450 2695 2645 
Q 2509 2841 2209 2841 
Q 1884 2841 1681 2658 
Q 1478 2475 1428 2131 
L 2881 2131 
z
" transform="scale(0.015625)"/>
      <path id="DejaVuSans-Bold-69" d="M 538 3500 
L 1656 3500 
L 1656 0 
L 538 0 
L 538 3500 
z
M 538 4863 
L 1656 4863 
L 1656 3950 
L 538 3950 
L 538 4863 
z
" transform="scale(0.015625)"/>
      <path id="DejaVuSans-Bold-76" d="M 97 3500 
L 1216 3500 
L 2088 1081 
L 2956 3500 
L 4078 3500 
L 2700 0 
L 1472 0 
L 97 3500 
z
" transform="scale(0.015625)"/>
      <path id="DejaVuSans-Bold-6f" d="M 2203 2784 
Q 1831 2784 1636 2517 
Q 1441 2250 1441 1747 
Q 1441 1244 1636 976 
Q 1831 709 2203 709 
Q 2569 709 2762 976 
Q 2956 1244 2956 1747 
Q 2956 2250 2762 2517 
Q 2569 2784 2203 2784 
z
M 2203 3584 
Q 3106 3584 3614 3096 
Q 4122 2609 4122 1747 
Q 4122 884 3614 396 
Q 3106 -91 2203 -91 
Q 1297 -91 786 396 
Q 275 884 275 1747 
Q 275 2609 786 3096 
Q 1297 3584 2203 3584 
z
" transform="scale(0.015625)"/>
      <path id="DejaVuSans-Bold-66" d="M 2841 4863 
L 2841 4128 
L 2222 4128 
Q 1984 4128 1890 4042 
Q 1797 3956 1797 3744 
L 1797 3500 
L 2753 3500 
L 2753 2700 
L 1797 2700 
L 1797 0 
L 678 0 
L 678 2700 
L 122 2700 
L 122 3500 
L 678 3500 
L 678 3744 
Q 678 4316 997 4589 
Q 1316 4863 1984 4863 
L 2841 4863 
z
" transform="scale(0.015625)"/>
      <path id="DejaVuSans-Bold-6e" d="M 4056 2131 
L 4056 0 
L 2931 0 
L 2931 347 
L 2931 1631 
Q 2931 2084 2911 2256 
Q 2891 2428 2841 2509 
Q 2775 2619 2662 2680 
Q 2550 2741 2406 2741 
Q 2056 2741 1856 2470 
Q 1656 2200 1656 1722 
L 1656 0 
L 538 0 
L 538 3500 
L 1656 3500 
L 1656 2988 
Q 1909 3294 2193 3439 
Q 2478 3584 2822 3584 
Q 3428 3584 3742 3212 
Q 4056 2841 4056 2131 
z
" transform="scale(0.015625)"/>
      <path id="DejaVuSans-Bold-49" d="M 588 4666 
L 1791 4666 
L 1791 0 
L 588 0 
L 588 4666 
z
" transform="scale(0.015625)"/>
      <path id="DejaVuSans-Bold-67" d="M 2919 594 
Q 2688 288 2409 144 
Q 2131 0 1766 0 
Q 1125 0 706 504 
Q 288 1009 288 1791 
Q 288 2575 706 3076 
Q 1125 3578 1766 3578 
Q 2131 3578 2409 3434 
Q 2688 3291 2919 2981 
L 2919 3500 
L 4044 3500 
L 4044 353 
Q 4044 -491 3511 -936 
Q 2978 -1381 1966 -1381 
Q 1638 -1381 1331 -1331 
Q 1025 -1281 716 -1178 
L 716 -306 
Q 1009 -475 1290 -558 
Q 1572 -641 1856 -641 
Q 2406 -641 2662 -400 
Q 2919 -159 2919 353 
L 2919 594 
z
M 2181 2772 
Q 1834 2772 1640 2515 
Q 1447 2259 1447 1791 
Q 1447 1309 1634 1061 
Q 1822 813 2181 813 
Q 2531 813 2725 1069 
Q 2919 1325 2919 1791 
Q 2919 2259 2725 2515 
Q 2531 2772 2181 2772 
z
" transform="scale(0.015625)"/>
      <path id="DejaVuSans-Bold-6c" d="M 538 4863 
L 1656 4863 
L 1656 0 
L 538 0 
L 538 4863 
z
" transform="scale(0.015625)"/>
     </defs>
     <use xlink:href="#DejaVuSans-Bold-46"/>
     <use xlink:href="#DejaVuSans-Bold-54" transform="translate(68.310547 0)"/>
     <use xlink:href="#DejaVuSans-Bold-43" transform="translate(136.523438 0)"/>
     <use xlink:href="#DejaVuSans-Bold-20" transform="translate(209.912109 0)"/>
     <use xlink:href="#DejaVuSans-Bold-50" transform="translate(244.726562 0)"/>
     <use xlink:href="#DejaVuSans-Bold-61" transform="translate(315.392578 0)"/>
     <use xlink:href="#DejaVuSans-Bold-72" transform="translate(382.873047 0)"/>
     <use xlink:href="#DejaVuSans-Bold-74" transform="translate(432.189453 0)"/>
     <use xlink:href="#DejaVuSans-Bold-20" transform="translate(479.992188 0)"/>
     <use xlink:href="#DejaVuSans-Bold-31" transform="translate(514.806641 0)"/>
     <use xlink:href="#DejaVuSans-Bold-3a" transform="translate(584.386719 0)"/>
     <use xlink:href="#DejaVuSans-Bold-20" transform="translate(624.376953 0)"/>
     <use xlink:href="#DejaVuSans-Bold-44" transform="translate(659.191406 0)"/>
     <use xlink:href="#DejaVuSans-Bold-65" transform="translate(742.199219 0)"/>
     <use xlink:href="#DejaVuSans-Bold-72" transform="translate(810.021484 0)"/>
     <use xlink:href="#DejaVuSans-Bold-69" transform="translate(859.337891 0)"/>
     <use xlink:href="#DejaVuSans-Bold-76" transform="translate(893.615234 0)"/>
     <use xlink:href="#DejaVuSans-Bold-61" transform="translate(958.800781 0)"/>
     <use xlink:href="#DejaVuSans-Bold-74" transform="translate(1026.28125 0)"/>
     <use xlink:href="#DejaVuSans-Bold-69" transform="translate(1074.083984 0)"/>
     <use xlink:href="#DejaVuSans-Bold-76" transform="translate(1108.361328 0)"/>
     <use xlink:href="#DejaVuSans-Bold-65" transform="translate(1173.546875 0)"/>
     <use xlink:href="#DejaVuSans-Bold-20" transform="translate(1241.369141 0)"/>
     <use xlink:href="#DejaVuSans-Bold-6f" transform="translate(1276.183594 0)"/>
     <use xlink:href="#DejaVuSans-Bold-66" transform="translate(1344.884766 0)"/>
     <use xlink:href="#DejaVuSans-Bold-20" transform="translate(1388.390625 0)"/>
     <use xlink:href="#DejaVuSans-Bold-61" transform="translate(1423.205078 0)"/>
     <use xlink:href="#DejaVuSans-Bold-6e" transform="translate(1490.685547 0)"/>
     <use xlink:href="#DejaVuSans-Bold-20" transform="translate(1561.876953 0)"/>
     <use xlink:href="#DejaVuSans-Bold-49" transform="translate(1596.691406 0)"/>
     <use xlink:href="#DejaVuSans-Bold-6e" transform="translate(1633.898438 0)"/>
     <use xlink:href="#DejaVuSans-Bold-74" transform="translate(1705.089844 0)"/>
     <use xlink:href="#DejaVuSans-Bold-65" transform="translate(1752.892578 0)"/>
     <use xlink:href="#DejaVuSans-Bold-67" transform="translate(1820.714844 0)"/>
     <use xlink:href="#DejaVuSans-Bold-72" transform="translate(1892.296875 0)"/>
     <use xlink:href="#DejaVuSans-Bold-61" transform="translate(1941.613281 0)"/>
     <use xlink:href="#DejaVuSans-Bold-6c" transform="translate(2009.09375 0)"/>
    </g>
   </g>
   <g id="legend_1">
    <g id="patch_9">
     <path d="M 45.416563 84.53625 
L 149.216563 84.53625 
Q 151.216563 84.53625 151.216563 82.53625 
L 151.216563 29.318125 
Q 151.216563 27.318125 149.216563 27.318125 
L 45.416563 27.318125 
Q 43.416563 27.318125 43.416563 29.318125 
L 43.416563 82.53625 
Q 43.416563 84.53625 45.416563 84.53625 
z
" style="fill: #ffffff; opacity: 0.9; stroke: #cccccc; stroke-linejoin: miter"/>
    </g>
    <g id="line2d_23">
     <path d="M 47.416563 35.416562 
L 57.416563 35.416562 
L 67.416562 35.416562 
" style="fill: none; stroke: #0000ff; stroke-width: 2.5; stroke-linecap: square"/>
    </g>
    <g id="text_16">
     <!-- $f(t) = t$ -->
     <g style="fill: #262626" transform="translate(75.416562 38.916562) scale(0.1 -0.1)">
      <use xlink:href="#DejaVuSans-Oblique-66" transform="translate(0 0.015625)"/>
      <use xlink:href="#DejaVuSans-28" transform="translate(35.205078 0.015625)"/>
      <use xlink:href="#DejaVuSans-Oblique-74" transform="translate(74.21875 0.015625)"/>
      <use xlink:href="#DejaVuSans-29" transform="translate(113.427734 0.015625)"/>
      <use xlink:href="#DejaVuSans-3d" transform="translate(171.923828 0.015625)"/>
      <use xlink:href="#DejaVuSans-Oblique-74" transform="translate(275.195312 0.015625)"/>
     </g>
    </g>
    <g id="line2d_24">
     <path d="M 47.416563 63.565469 
L 57.416563 63.565469 
L 67.416562 63.565469 
" style="fill: none; stroke: #ff0000; stroke-width: 2.5; stroke-linecap: square"/>
    </g>
    <g id="text_17">
     <!-- $F(x) = \int_0^x f(t)\,dt$ -->
     <g style="fill: #262626" transform="translate(75.416562 58.39625) scale(0.1 -0.1)">
      <defs>
       <path id="DejaVuSans-Oblique-46" d="M 1081 4666 
L 3756 4666 
L 3653 4134 
L 1606 4134 
L 1338 2759 
L 3188 2759 
L 3084 2228 
L 1234 2228 
L 800 0 
L 172 0 
L 1081 4666 
z
" transform="scale(0.015625)"/>
      </defs>
      <use xlink:href="#DejaVuSans-Oblique-46" transform="translate(0 0.5625)"/>
      <use xlink:href="#DejaVuSans-28" transform="translate(57.519531 0.5625)"/>
      <use xlink:href="#DejaVuSans-Oblique-78" transform="translate(96.533203 0.5625)"/>
      <use xlink:href="#DejaVuSans-29" transform="translate(155.712891 0.5625)"/>
      <use xlink:href="#DejaVuSans-3d" transform="translate(214.208984 0.5625)"/>
      <use xlink:href="#DejaVuSansDisplay-222b" transform="translate(317.480469 0.5625)"/>
      <use xlink:href="#DejaVuSans-Oblique-78" transform="translate(404.224609 85.71875) scale(0.7)"/>
      <use xlink:href="#DejaVuSans-30" transform="translate(389.240234 -51.34375) scale(0.7)"/>
      <use xlink:href="#DejaVuSans-Oblique-66" transform="translate(445.650391 0.5625)"/>
      <use xlink:href="#DejaVuSans-28" transform="translate(480.855469 0.5625)"/>
      <use xlink:href="#DejaVuSans-Oblique-74" transform="translate(519.869141 0.5625)"/>
      <use xlink:href="#DejaVuSans-29" transform="translate(559.078125 0.5625)"/>
      <use xlink:href="#DejaVuSans-Oblique-64" transform="translate(614.327473 0.5625)"/>
      <use xlink:href="#DejaVuSans-Oblique-74" transform="translate(677.804036 0.5625)"/>
     </g>
     <!-- $= \frac{x^2}{2}$ -->
     <g style="fill: #262626" transform="translate(75.416562 76.53625) scale(0.1 -0.1)">
      <use xlink:href="#DejaVuSans-3d" transform="translate(19.482422 0.039062)"/>
      <use xlink:href="#DejaVuSans-Oblique-78" transform="translate(122.753906 43.835938) scale(0.7)"/>
      <use xlink:href="#DejaVuSans-32" transform="translate(167.30599 70.632812) scale(0.49)"/>
      <use xlink:href="#DejaVuSans-32" transform="translate(139.753906 -39.367188) scale(0.7)"/>
      <path d="M 122.753906 18.835938 
L 122.753906 25.085938 
L 200.395345 25.085938 
L 200.395345 18.835938 
L 122.753906 18.835938 
z
"/>
     </g>
    </g>
   </g>
  </g>
  <g id="axes_2">
   <g id="patch_10">
    <path d="M 400.641669 282.886125 
L 668.956562 282.886125 
L 668.956562 22.318125 
L 400.641669 22.318125 
z
" style="fill: #ffffff"/>
   </g>
   <g id="FillBetweenPolyCollection_2">
    <defs>
     <path id="maf0e2a46b0" d="M 473.818458 -87.064113 
L 473.818458 -57.284913 
L 474.278111 -57.284913 
L 474.737764 -57.284913 
L 475.197418 -57.284913 
L 475.657071 -57.284913 
L 476.116724 -57.284913 
L 476.576377 -57.284913 
L 477.03603 -57.284913 
L 477.495684 -57.284913 
L 477.955337 -57.284913 
L 478.41499 -57.284913 
L 478.874643 -57.284913 
L 479.334296 -57.284913 
L 479.79395 -57.284913 
L 480.253603 -57.284913 
L 480.713256 -57.284913 
L 481.172909 -57.284913 
L 481.632562 -57.284913 
L 482.092216 -57.284913 
L 482.551869 -57.284913 
L 483.011522 -57.284913 
L 483.471175 -57.284913 
L 483.930828 -57.284913 
L 484.390482 -57.284913 
L 484.850135 -57.284913 
L 485.309788 -57.284913 
L 485.769441 -57.284913 
L 486.229094 -57.284913 
L 486.688748 -57.284913 
L 487.148401 -57.284913 
L 487.608054 -57.284913 
L 488.067707 -57.284913 
L 488.52736 -57.284913 
L 488.987014 -57.284913 
L 489.446667 -57.284913 
L 489.90632 -57.284913 
L 490.365973 -57.284913 
L 490.825626 -57.284913 
L 491.28528 -57.284913 
L 491.744933 -57.284913 
L 492.204586 -57.284913 
L 492.664239 -57.284913 
L 493.123892 -57.284913 
L 493.583546 -57.284913 
L 494.043199 -57.284913 
L 494.502852 -57.284913 
L 494.962505 -57.284913 
L 495.422158 -57.284913 
L 495.881812 -57.284913 
L 496.341465 -57.284913 
L 496.801118 -57.284913 
L 497.260771 -57.284913 
L 497.720424 -57.284913 
L 498.180078 -57.284913 
L 498.639731 -57.284913 
L 499.099384 -57.284913 
L 499.559037 -57.284913 
L 500.01869 -57.284913 
L 500.478344 -57.284913 
L 500.937997 -57.284913 
L 501.39765 -57.284913 
L 501.857303 -57.284913 
L 502.316956 -57.284913 
L 502.77661 -57.284913 
L 503.236263 -57.284913 
L 503.695916 -57.284913 
L 504.155569 -57.284913 
L 504.615222 -57.284913 
L 505.074876 -57.284913 
L 505.534529 -57.284913 
L 505.994182 -57.284913 
L 506.453835 -57.284913 
L 506.913488 -57.284913 
L 507.373142 -57.284913 
L 507.832795 -57.284913 
L 508.292448 -57.284913 
L 508.752101 -57.284913 
L 509.211754 -57.284913 
L 509.671408 -57.284913 
L 510.131061 -57.284913 
L 510.590714 -57.284913 
L 511.050367 -57.284913 
L 511.51002 -57.284913 
L 511.969674 -57.284913 
L 512.429327 -57.284913 
L 512.88898 -57.284913 
L 513.348633 -57.284913 
L 513.808286 -57.284913 
L 514.26794 -57.284913 
L 514.727593 -57.284913 
L 515.187246 -57.284913 
L 515.646899 -57.284913 
L 516.106552 -57.284913 
L 516.566205 -57.284913 
L 517.025859 -57.284913 
L 517.485512 -57.284913 
L 517.945165 -57.284913 
L 518.404818 -57.284913 
L 518.864471 -57.284913 
L 519.324125 -57.284913 
L 519.783778 -57.284913 
L 520.243431 -57.284913 
L 520.703084 -57.284913 
L 521.162737 -57.284913 
L 521.622391 -57.284913 
L 522.082044 -57.284913 
L 522.541697 -57.284913 
L 523.00135 -57.284913 
L 523.461003 -57.284913 
L 523.920657 -57.284913 
L 524.38031 -57.284913 
L 524.839963 -57.284913 
L 525.299616 -57.284913 
L 525.759269 -57.284913 
L 526.218923 -57.284913 
L 526.678576 -57.284913 
L 527.138229 -57.284913 
L 527.597882 -57.284913 
L 528.057535 -57.284913 
L 528.517189 -57.284913 
L 528.976842 -57.284913 
L 529.436495 -57.284913 
L 529.896148 -57.284913 
L 530.355801 -57.284913 
L 530.815455 -57.284913 
L 531.275108 -57.284913 
L 531.734761 -57.284913 
L 532.194414 -57.284913 
L 532.654067 -57.284913 
L 533.113721 -57.284913 
L 533.573374 -57.284913 
L 534.033027 -57.284913 
L 534.49268 -57.284913 
L 534.952333 -57.284913 
L 535.411987 -57.284913 
L 535.87164 -57.284913 
L 536.331293 -57.284913 
L 536.790946 -57.284913 
L 537.250599 -57.284913 
L 537.710253 -57.284913 
L 538.169906 -57.284913 
L 538.629559 -57.284913 
L 539.089212 -57.284913 
L 539.548865 -57.284913 
L 540.008519 -57.284913 
L 540.468172 -57.284913 
L 540.927825 -57.284913 
L 541.387478 -57.284913 
L 541.847131 -57.284913 
L 542.306785 -57.284913 
L 542.766438 -57.284913 
L 543.226091 -57.284913 
L 543.685744 -57.284913 
L 544.145397 -57.284913 
L 544.605051 -57.284913 
L 545.064704 -57.284913 
L 545.524357 -57.284913 
L 545.98401 -57.284913 
L 546.443663 -57.284913 
L 546.903317 -57.284913 
L 547.36297 -57.284913 
L 547.822623 -57.284913 
L 548.282276 -57.284913 
L 548.741929 -57.284913 
L 549.201583 -57.284913 
L 549.661236 -57.284913 
L 550.120889 -57.284913 
L 550.580542 -57.284913 
L 551.040195 -57.284913 
L 551.499849 -57.284913 
L 551.959502 -57.284913 
L 552.419155 -57.284913 
L 552.878808 -57.284913 
L 553.338461 -57.284913 
L 553.798115 -57.284913 
L 554.257768 -57.284913 
L 554.717421 -57.284913 
L 555.177074 -57.284913 
L 555.636727 -57.284913 
L 556.096381 -57.284913 
L 556.556034 -57.284913 
L 557.015687 -57.284913 
L 557.47534 -57.284913 
L 557.934993 -57.284913 
L 558.394647 -57.284913 
L 558.8543 -57.284913 
L 559.313953 -57.284913 
L 559.773606 -57.284913 
L 560.233259 -57.284913 
L 560.692913 -57.284913 
L 561.152566 -57.284913 
L 561.612219 -57.284913 
L 562.071872 -57.284913 
L 562.531525 -57.284913 
L 562.991179 -57.284913 
L 563.450832 -57.284913 
L 563.910485 -57.284913 
L 564.370138 -57.284913 
L 564.829791 -57.284913 
L 565.289445 -57.284913 
L 565.289445 -131.732912 
L 565.289445 -131.732912 
L 564.829791 -131.508446 
L 564.370138 -131.28398 
L 563.910485 -131.059514 
L 563.450832 -130.835047 
L 562.991179 -130.610581 
L 562.531525 -130.386115 
L 562.071872 -130.161648 
L 561.612219 -129.937182 
L 561.152566 -129.712716 
L 560.692913 -129.488249 
L 560.233259 -129.263783 
L 559.773606 -129.039317 
L 559.313953 -128.81485 
L 558.8543 -128.590384 
L 558.394647 -128.365918 
L 557.934993 -128.141451 
L 557.47534 -127.916985 
L 557.015687 -127.692519 
L 556.556034 -127.468052 
L 556.096381 -127.243586 
L 555.636727 -127.01912 
L 555.177074 -126.794653 
L 554.717421 -126.570187 
L 554.257768 -126.345721 
L 553.798115 -126.121254 
L 553.338461 -125.896788 
L 552.878808 -125.672322 
L 552.419155 -125.447855 
L 551.959502 -125.223389 
L 551.499849 -124.998923 
L 551.040195 -124.774456 
L 550.580542 -124.54999 
L 550.120889 -124.325524 
L 549.661236 -124.101057 
L 549.201583 -123.876591 
L 548.741929 -123.652125 
L 548.282276 -123.427658 
L 547.822623 -123.203192 
L 547.36297 -122.978726 
L 546.903317 -122.754259 
L 546.443663 -122.529793 
L 545.98401 -122.305327 
L 545.524357 -122.08086 
L 545.064704 -121.856394 
L 544.605051 -121.631928 
L 544.145397 -121.407461 
L 543.685744 -121.182995 
L 543.226091 -120.958529 
L 542.766438 -120.734062 
L 542.306785 -120.509596 
L 541.847131 -120.28513 
L 541.387478 -120.060663 
L 540.927825 -119.836197 
L 540.468172 -119.611731 
L 540.008519 -119.387264 
L 539.548865 -119.162798 
L 539.089212 -118.938332 
L 538.629559 -118.713865 
L 538.169906 -118.489399 
L 537.710253 -118.264933 
L 537.250599 -118.040466 
L 536.790946 -117.816 
L 536.331293 -117.591534 
L 535.87164 -117.367067 
L 535.411987 -117.142601 
L 534.952333 -116.918135 
L 534.49268 -116.693668 
L 534.033027 -116.469202 
L 533.573374 -116.244736 
L 533.113721 -116.020269 
L 532.654067 -115.795803 
L 532.194414 -115.571337 
L 531.734761 -115.34687 
L 531.275108 -115.122404 
L 530.815455 -114.897938 
L 530.355801 -114.673471 
L 529.896148 -114.449005 
L 529.436495 -114.224539 
L 528.976842 -114.000072 
L 528.517189 -113.775606 
L 528.057535 -113.55114 
L 527.597882 -113.326673 
L 527.138229 -113.102207 
L 526.678576 -112.877741 
L 526.218923 -112.653274 
L 525.759269 -112.428808 
L 525.299616 -112.204342 
L 524.839963 -111.979875 
L 524.38031 -111.755409 
L 523.920657 -111.530943 
L 523.461003 -111.306476 
L 523.00135 -111.08201 
L 522.541697 -110.857544 
L 522.082044 -110.633077 
L 521.622391 -110.408611 
L 521.162737 -110.184145 
L 520.703084 -109.959678 
L 520.243431 -109.735212 
L 519.783778 -109.510746 
L 519.324125 -109.286279 
L 518.864471 -109.061813 
L 518.404818 -108.837347 
L 517.945165 -108.61288 
L 517.485512 -108.388414 
L 517.025859 -108.163948 
L 516.566205 -107.939481 
L 516.106552 -107.715015 
L 515.646899 -107.490549 
L 515.187246 -107.266082 
L 514.727593 -107.041616 
L 514.26794 -106.81715 
L 513.808286 -106.592683 
L 513.348633 -106.368217 
L 512.88898 -106.143751 
L 512.429327 -105.919284 
L 511.969674 -105.694818 
L 511.51002 -105.470352 
L 511.050367 -105.245885 
L 510.590714 -105.021419 
L 510.131061 -104.796953 
L 509.671408 -104.572486 
L 509.211754 -104.34802 
L 508.752101 -104.123554 
L 508.292448 -103.899087 
L 507.832795 -103.674621 
L 507.373142 -103.450155 
L 506.913488 -103.225688 
L 506.453835 -103.001222 
L 505.994182 -102.776756 
L 505.534529 -102.552289 
L 505.074876 -102.327823 
L 504.615222 -102.103357 
L 504.155569 -101.87889 
L 503.695916 -101.654424 
L 503.236263 -101.429958 
L 502.77661 -101.205491 
L 502.316956 -100.981025 
L 501.857303 -100.756559 
L 501.39765 -100.532092 
L 500.937997 -100.307626 
L 500.478344 -100.08316 
L 500.01869 -99.858693 
L 499.559037 -99.634227 
L 499.099384 -99.409761 
L 498.639731 -99.185294 
L 498.180078 -98.960828 
L 497.720424 -98.736362 
L 497.260771 -98.511895 
L 496.801118 -98.287429 
L 496.341465 -98.062963 
L 495.881812 -97.838496 
L 495.422158 -97.61403 
L 494.962505 -97.389564 
L 494.502852 -97.165097 
L 494.043199 -96.940631 
L 493.583546 -96.716165 
L 493.123892 -96.491698 
L 492.664239 -96.267232 
L 492.204586 -96.042766 
L 491.744933 -95.818299 
L 491.28528 -95.593833 
L 490.825626 -95.369367 
L 490.365973 -95.1449 
L 489.90632 -94.920434 
L 489.446667 -94.695968 
L 488.987014 -94.471501 
L 488.52736 -94.247035 
L 488.067707 -94.022569 
L 487.608054 -93.798102 
L 487.148401 -93.573636 
L 486.688748 -93.34917 
L 486.229094 -93.124703 
L 485.769441 -92.900237 
L 485.309788 -92.675771 
L 484.850135 -92.451304 
L 484.390482 -92.226838 
L 483.930828 -92.002372 
L 483.471175 -91.777905 
L 483.011522 -91.553439 
L 482.551869 -91.328973 
L 482.092216 -91.104506 
L 481.632562 -90.88004 
L 481.172909 -90.655574 
L 480.713256 -90.431107 
L 480.253603 -90.206641 
L 479.79395 -89.982175 
L 479.334296 -89.757708 
L 478.874643 -89.533242 
L 478.41499 -89.308776 
L 477.955337 -89.084309 
L 477.495684 -88.859843 
L 477.03603 -88.635377 
L 476.576377 -88.41091 
L 476.116724 -88.186444 
L 475.657071 -87.961978 
L 475.197418 -87.737511 
L 474.737764 -87.513045 
L 474.278111 -87.288579 
L 473.818458 -87.064113 
z
" style="stroke: #0000ff; stroke-opacity: 0.2"/>
    </defs>
    <g clip-path="url(#pee0dca1fe9)">
     <use xlink:href="#maf0e2a46b0" x="0" y="325.281437" style="fill: #0000ff; fill-opacity: 0.2; stroke: #0000ff; stroke-opacity: 0.2"/>
    </g>
   </g>
   <g id="matplotlib.axis_3">
    <g id="xtick_6">
     <g id="line2d_25">
      <path d="M 412.8378 282.886125 
L 412.8378 22.318125 
" clip-path="url(#pee0dca1fe9)" style="fill: none; stroke: #cccccc; stroke-width: 0.8; stroke-linecap: square"/>
     </g>
     <g id="line2d_26">
      <g>
       <use xlink:href="#mf971690632" x="412.8378" y="282.886125" style="fill: #262626; stroke: #262626; stroke-width: 0.8"/>
      </g>
     </g>
     <g id="text_18">
      <!-- 0 -->
      <g style="fill: #262626" transform="translate(409.0203 299.00425) scale(0.12 -0.12)">
       <use xlink:href="#DejaVuSans-30"/>
      </g>
     </g>
    </g>
    <g id="xtick_7">
     <g id="line2d_27">
      <path d="M 473.818458 282.886125 
L 473.818458 22.318125 
" clip-path="url(#pee0dca1fe9)" style="fill: none; stroke: #cccccc; stroke-width: 0.8; stroke-linecap: square"/>
     </g>
     <g id="line2d_28">
      <g>
       <use xlink:href="#mf971690632" x="473.818458" y="282.886125" style="fill: #262626; stroke: #262626; stroke-width: 0.8"/>
      </g>
     </g>
     <g id="text_19">
      <!-- 1 -->
      <g style="fill: #262626" transform="translate(470.000958 299.00425) scale(0.12 -0.12)">
       <use xlink:href="#DejaVuSans-31"/>
      </g>
     </g>
    </g>
    <g id="xtick_8">
     <g id="line2d_29">
      <path d="M 534.799116 282.886125 
L 534.799116 22.318125 
" clip-path="url(#pee0dca1fe9)" style="fill: none; stroke: #cccccc; stroke-width: 0.8; stroke-linecap: square"/>
     </g>
     <g id="line2d_30">
      <g>
       <use xlink:href="#mf971690632" x="534.799116" y="282.886125" style="fill: #262626; stroke: #262626; stroke-width: 0.8"/>
      </g>
     </g>
     <g id="text_20">
      <!-- 2 -->
      <g style="fill: #262626" transform="translate(530.981616 299.00425) scale(0.12 -0.12)">
       <use xlink:href="#DejaVuSans-32"/>
      </g>
     </g>
    </g>
    <g id="xtick_9">
     <g id="line2d_31">
      <path d="M 595.779773 282.886125 
L 595.779773 22.318125 
" clip-path="url(#pee0dca1fe9)" style="fill: none; stroke: #cccccc; stroke-width: 0.8; stroke-linecap: square"/>
     </g>
     <g id="line2d_32">
      <g>
       <use xlink:href="#mf971690632" x="595.779773" y="282.886125" style="fill: #262626; stroke: #262626; stroke-width: 0.8"/>
      </g>
     </g>
     <g id="text_21">
      <!-- 3 -->
      <g style="fill: #262626" transform="translate(591.962273 299.00425) scale(0.12 -0.12)">
       <use xlink:href="#DejaVuSans-33"/>
      </g>
     </g>
    </g>
    <g id="xtick_10">
     <g id="line2d_33">
      <path d="M 656.760431 282.886125 
L 656.760431 22.318125 
" clip-path="url(#pee0dca1fe9)" style="fill: none; stroke: #cccccc; stroke-width: 0.8; stroke-linecap: square"/>
     </g>
     <g id="line2d_34">
      <g>
       <use xlink:href="#mf971690632" x="656.760431" y="282.886125" style="fill: #262626; stroke: #262626; stroke-width: 0.8"/>
      </g>
     </g>
     <g id="text_22">
      <!-- 4 -->
      <g style="fill: #262626" transform="translate(652.942931 299.00425) scale(0.12 -0.12)">
       <use xlink:href="#DejaVuSans-34"/>
      </g>
     </g>
    </g>
    <g id="text_23">
     <!-- $x$ -->
     <g style="fill: #262626" transform="translate(530.899116 315.377844) scale(0.13 -0.13)">
      <use xlink:href="#DejaVuSans-Oblique-78" transform="translate(0 0.3125)"/>
     </g>
    </g>
   </g>
   <g id="matplotlib.axis_4">
    <g id="ytick_6">
     <g id="line2d_35">
      <path d="M 400.641669 267.996525 
L 668.956562 267.996525 
" clip-path="url(#pee0dca1fe9)" style="fill: none; stroke: #cccccc; stroke-width: 0.8; stroke-linecap: square"/>
     </g>
     <g id="line2d_36">
      <g>
       <use xlink:href="#m83a39d3d8a" x="400.641669" y="267.996525" style="fill: #262626; stroke: #262626; stroke-width: 0.8"/>
      </g>
     </g>
     <g id="text_24">
      <!-- 0 -->
      <g style="fill: #262626" transform="translate(386.006669 272.555588) scale(0.12 -0.12)">
       <use xlink:href="#DejaVuSans-30"/>
      </g>
     </g>
    </g>
    <g id="ytick_7">
     <g id="line2d_37">
      <path d="M 400.641669 238.217325 
L 668.956562 238.217325 
" clip-path="url(#pee0dca1fe9)" style="fill: none; stroke: #cccccc; stroke-width: 0.8; stroke-linecap: square"/>
     </g>
     <g id="line2d_38">
      <g>
       <use xlink:href="#m83a39d3d8a" x="400.641669" y="238.217325" style="fill: #262626; stroke: #262626; stroke-width: 0.8"/>
      </g>
     </g>
     <g id="text_25">
      <!-- 2 -->
      <g style="fill: #262626" transform="translate(386.006669 242.776387) scale(0.12 -0.12)">
       <use xlink:href="#DejaVuSans-32"/>
      </g>
     </g>
    </g>
    <g id="ytick_8">
     <g id="line2d_39">
      <path d="M 400.641669 208.438125 
L 668.956562 208.438125 
" clip-path="url(#pee0dca1fe9)" style="fill: none; stroke: #cccccc; stroke-width: 0.8; stroke-linecap: square"/>
     </g>
     <g id="line2d_40">
      <g>
       <use xlink:href="#m83a39d3d8a" x="400.641669" y="208.438125" style="fill: #262626; stroke: #262626; stroke-width: 0.8"/>
      </g>
     </g>
     <g id="text_26">
      <!-- 4 -->
      <g style="fill: #262626" transform="translate(386.006669 212.997187) scale(0.12 -0.12)">
       <use xlink:href="#DejaVuSans-34"/>
      </g>
     </g>
    </g>
    <g id="ytick_9">
     <g id="line2d_41">
      <path d="M 400.641669 178.658925 
L 668.956562 178.658925 
" clip-path="url(#pee0dca1fe9)" style="fill: none; stroke: #cccccc; stroke-width: 0.8; stroke-linecap: square"/>
     </g>
     <g id="line2d_42">
      <g>
       <use xlink:href="#m83a39d3d8a" x="400.641669" y="178.658925" style="fill: #262626; stroke: #262626; stroke-width: 0.8"/>
      </g>
     </g>
     <g id="text_27">
      <!-- 6 -->
      <g style="fill: #262626" transform="translate(386.006669 183.217987) scale(0.12 -0.12)">
       <use xlink:href="#DejaVuSans-36"/>
      </g>
     </g>
    </g>
    <g id="ytick_10">
     <g id="line2d_43">
      <path d="M 400.641669 148.879725 
L 668.956562 148.879725 
" clip-path="url(#pee0dca1fe9)" style="fill: none; stroke: #cccccc; stroke-width: 0.8; stroke-linecap: square"/>
     </g>
     <g id="line2d_44">
      <g>
       <use xlink:href="#m83a39d3d8a" x="400.641669" y="148.879725" style="fill: #262626; stroke: #262626; stroke-width: 0.8"/>
      </g>
     </g>
     <g id="text_28">
      <!-- 8 -->
      <g style="fill: #262626" transform="translate(386.006669 153.438787) scale(0.12 -0.12)">
       <use xlink:href="#DejaVuSans-38"/>
      </g>
     </g>
    </g>
    <g id="ytick_11">
     <g id="line2d_45">
      <path d="M 400.641669 119.100525 
L 668.956562 119.100525 
" clip-path="url(#pee0dca1fe9)" style="fill: none; stroke: #cccccc; stroke-width: 0.8; stroke-linecap: square"/>
     </g>
     <g id="line2d_46">
      <g>
       <use xlink:href="#m83a39d3d8a" x="400.641669" y="119.100525" style="fill: #262626; stroke: #262626; stroke-width: 0.8"/>
      </g>
     </g>
     <g id="text_29">
      <!-- 10 -->
      <g style="fill: #262626" transform="translate(378.371669 123.659587) scale(0.12 -0.12)">
       <use xlink:href="#DejaVuSans-31"/>
       <use xlink:href="#DejaVuSans-30" transform="translate(63.623047 0)"/>
      </g>
     </g>
    </g>
    <g id="ytick_12">
     <g id="line2d_47">
      <path d="M 400.641669 89.321325 
L 668.956562 89.321325 
" clip-path="url(#pee0dca1fe9)" style="fill: none; stroke: #cccccc; stroke-width: 0.8; stroke-linecap: square"/>
     </g>
     <g id="line2d_48">
      <g>
       <use xlink:href="#m83a39d3d8a" x="400.641669" y="89.321325" style="fill: #262626; stroke: #262626; stroke-width: 0.8"/>
      </g>
     </g>
     <g id="text_30">
      <!-- 12 -->
      <g style="fill: #262626" transform="translate(378.371669 93.880387) scale(0.12 -0.12)">
       <use xlink:href="#DejaVuSans-31"/>
       <use xlink:href="#DejaVuSans-32" transform="translate(63.623047 0)"/>
      </g>
     </g>
    </g>
    <g id="ytick_13">
     <g id="line2d_49">
      <path d="M 400.641669 59.542125 
L 668.956562 59.542125 
" clip-path="url(#pee0dca1fe9)" style="fill: none; stroke: #cccccc; stroke-width: 0.8; stroke-linecap: square"/>
     </g>
     <g id="line2d_50">
      <g>
       <use xlink:href="#m83a39d3d8a" x="400.641669" y="59.542125" style="fill: #262626; stroke: #262626; stroke-width: 0.8"/>
      </g>
     </g>
     <g id="text_31">
      <!-- 14 -->
      <g style="fill: #262626" transform="translate(378.371669 64.101187) scale(0.12 -0.12)">
       <use xlink:href="#DejaVuSans-31"/>
       <use xlink:href="#DejaVuSans-34" transform="translate(63.623047 0)"/>
      </g>
     </g>
    </g>
    <g id="ytick_14">
     <g id="line2d_51">
      <path d="M 400.641669 29.762925 
L 668.956562 29.762925 
" clip-path="url(#pee0dca1fe9)" style="fill: none; stroke: #cccccc; stroke-width: 0.8; stroke-linecap: square"/>
     </g>
     <g id="line2d_52">
      <g>
       <use xlink:href="#m83a39d3d8a" x="400.641669" y="29.762925" style="fill: #262626; stroke: #262626; stroke-width: 0.8"/>
      </g>
     </g>
     <g id="text_32">
      <!-- 16 -->
      <g style="fill: #262626" transform="translate(378.371669 34.321987) scale(0.12 -0.12)">
       <use xlink:href="#DejaVuSans-31"/>
       <use xlink:href="#DejaVuSans-36" transform="translate(63.623047 0)"/>
      </g>
     </g>
    </g>
    <g id="text_33">
     <!-- $y$ -->
     <g style="fill: #262626" transform="translate(371.641669 156.502125) rotate(-90) scale(0.13 -0.13)">
      <defs>
       <path id="DejaVuSans-Oblique-79" d="M 1588 -325 
Q 1188 -997 936 -1164 
Q 684 -1331 294 -1331 
L -159 -1331 
L -63 -850 
L 269 -850 
Q 509 -850 678 -719 
Q 847 -588 1056 -206 
L 1234 128 
L 459 3500 
L 1069 3500 
L 1650 819 
L 3256 3500 
L 3859 3500 
L 1588 -325 
z
" transform="scale(0.015625)"/>
      </defs>
      <use xlink:href="#DejaVuSans-Oblique-79" transform="translate(0 0.3125)"/>
     </g>
    </g>
   </g>
   <g id="line2d_53">
    <path d="M 412.8378 267.996525 
L 656.760431 148.879725 
L 656.760431 148.879725 
" clip-path="url(#pee0dca1fe9)" style="fill: none; stroke: #0000ff; stroke-width: 2.5; stroke-linecap: square"/>
   </g>
   <g id="line2d_54">
    <path d="M 412.8378 267.996525 
L 417.732569 267.900593 
L 422.627337 267.612797 
L 427.522106 267.133138 
L 432.416874 266.461614 
L 438.127438 265.435676 
L 443.838001 264.148589 
L 449.548564 262.600354 
L 455.259127 260.790972 
L 460.969691 258.720441 
L 466.680254 256.388763 
L 472.390817 253.795936 
L 478.10138 250.941961 
L 483.811944 247.826839 
L 489.522507 244.450568 
L 495.23307 240.813149 
L 500.943634 236.914583 
L 506.654197 232.754868 
L 512.36476 228.334006 
L 518.075323 223.651995 
L 523.785887 218.708836 
L 529.49645 213.50453 
L 536.022808 207.236977 
L 542.549166 200.628334 
L 549.075524 193.678599 
L 555.601882 186.387773 
L 562.12824 178.755856 
L 568.654598 170.782848 
L 575.180956 162.468748 
L 581.707314 153.813557 
L 588.233672 144.817275 
L 595.575825 134.288746 
L 602.917977 123.328525 
L 610.26013 111.936609 
L 617.602283 100.113 
L 624.944436 87.857697 
L 632.286588 75.170701 
L 639.628741 62.05201 
L 646.970894 48.501627 
L 654.313047 34.519549 
L 656.760431 29.762925 
L 656.760431 29.762925 
" clip-path="url(#pee0dca1fe9)" style="fill: none; stroke: #ff0000; stroke-width: 2.5; stroke-linecap: square"/>
   </g>
   <g id="patch_11">
    <path d="M 400.641669 282.886125 
L 400.641669 22.318125 
" style="fill: none; stroke: #333333; stroke-width: 0.8; stroke-linejoin: miter; stroke-linecap: square"/>
   </g>
   <g id="patch_12">
    <path d="M 668.956562 282.886125 
L 668.956562 22.318125 
" style="fill: none; stroke: #333333; stroke-width: 0.8; stroke-linejoin: miter; stroke-linecap: square"/>
   </g>
   <g id="patch_13">
    <path d="M 400.641669 282.886125 
L 668.956562 282.886125 
" style="fill: none; stroke: #333333; stroke-width: 0.8; stroke-linejoin: miter; stroke-linecap: square"/>
   </g>
   <g id="patch_14">
    <path d="M 400.641669 22.318125 
L 668.956562 22.318125 
" style="fill: none; stroke: #333333; stroke-width: 0.8; stroke-linejoin: miter; stroke-linecap: square"/>
   </g>
   <g id="patch_15">
    <path d="M 504.665342 214.087249 
Q 489.862264 232.812359 475.75255 250.660401 
" style="fill: none; stroke: #333333; stroke-linecap: round"/>
    <path d="M 479.802147 248.762835 
L 475.75255 250.660401 
L 476.664255 246.282183 
" style="fill: none; stroke: #333333; stroke-linecap: round"/>
   </g>
   <g id="text_34">
    <!-- $F(a) = 1$ -->
    <g style="fill: #262626" transform="translate(492.112655 208.438125) scale(0.1 -0.1)">
     <use xlink:href="#DejaVuSans-Oblique-46" transform="translate(0 0.125)"/>
     <use xlink:href="#DejaVuSans-28" transform="translate(57.519531 0.125)"/>
     <use xlink:href="#DejaVuSans-Oblique-61" transform="translate(96.533203 0.125)"/>
     <use xlink:href="#DejaVuSans-29" transform="translate(157.8125 0.125)"/>
     <use xlink:href="#DejaVuSans-3d" transform="translate(216.308594 0.125)"/>
     <use xlink:href="#DejaVuSans-31" transform="translate(319.580078 0.125)"/>
    </g>
   </g>
   <g id="patch_16">
    <path d="M 596.455843 157.650715 
Q 581.745775 165.809356 568.013428 173.425723 
" style="fill: none; stroke: #333333; stroke-linecap: round"/>
    <path d="M 572.481479 173.234628 
L 568.013428 173.425723 
L 570.541383 169.736625 
" style="fill: none; stroke: #333333; stroke-linecap: round"/>
   </g>
   <g id="text_35">
    <!-- $F(b) = 6.25$ -->
    <g style="fill: #262626" transform="translate(583.583642 152.602125) scale(0.1 -0.1)">
     <defs>
      <path id="DejaVuSans-Oblique-62" d="M 3169 2138 
Q 3169 2591 2961 2847 
Q 2753 3103 2388 3103 
Q 2122 3103 1889 2973 
Q 1656 2844 1484 2597 
Q 1303 2338 1198 1995 
Q 1094 1653 1094 1313 
Q 1094 881 1298 636 
Q 1503 391 1863 391 
Q 2134 391 2365 517 
Q 2597 644 2772 891 
Q 2950 1147 3059 1487 
Q 3169 1828 3169 2138 
z
M 1381 2969 
Q 1594 3256 1914 3420 
Q 2234 3584 2584 3584 
Q 3122 3584 3439 3221 
Q 3756 2859 3756 2241 
Q 3756 1734 3570 1259 
Q 3384 784 3041 416 
Q 2816 172 2522 40 
Q 2228 -91 1906 -91 
Q 1566 -91 1316 65 
Q 1066 222 909 531 
L 806 0 
L 231 0 
L 1178 4863 
L 1753 4863 
L 1381 2969 
z
" transform="scale(0.015625)"/>
      <path id="DejaVuSans-2e" d="M 684 794 
L 1344 794 
L 1344 0 
L 684 0 
L 684 794 
z
" transform="scale(0.015625)"/>
      <path id="DejaVuSans-35" d="M 691 4666 
L 3169 4666 
L 3169 4134 
L 1269 4134 
L 1269 2991 
Q 1406 3038 1543 3061 
Q 1681 3084 1819 3084 
Q 2600 3084 3056 2656 
Q 3513 2228 3513 1497 
Q 3513 744 3044 326 
Q 2575 -91 1722 -91 
Q 1428 -91 1123 -41 
Q 819 9 494 109 
L 494 744 
Q 775 591 1075 516 
Q 1375 441 1709 441 
Q 2250 441 2565 725 
Q 2881 1009 2881 1497 
Q 2881 1984 2565 2268 
Q 2250 2553 1709 2553 
Q 1456 2553 1204 2497 
Q 953 2441 691 2322 
L 691 4666 
z
" transform="scale(0.015625)"/>
     </defs>
     <use xlink:href="#DejaVuSans-Oblique-46" transform="translate(0 0.015625)"/>
     <use xlink:href="#DejaVuSans-28" transform="translate(57.519531 0.015625)"/>
     <use xlink:href="#DejaVuSans-Oblique-62" transform="translate(96.533203 0.015625)"/>
     <use xlink:href="#DejaVuSans-29" transform="translate(160.009766 0.015625)"/>
     <use xlink:href="#DejaVuSans-3d" transform="translate(218.505859 0.015625)"/>
     <use xlink:href="#DejaVuSans-36" transform="translate(321.777344 0.015625)"/>
     <use xlink:href="#DejaVuSans-2e" transform="translate(385.400391 0.015625)"/>
     <use xlink:href="#DejaVuSans-32" transform="translate(411.6875 0.015625)"/>
     <use xlink:href="#DejaVuSans-35" transform="translate(475.310547 0.015625)"/>
    </g>
   </g>
   <g id="text_36">
    <g id="patch_17">
     <path d="M 489.303951 249.741812 
L 549.803951 249.741812 
Q 551.803951 249.741812 551.803951 247.741812 
L 551.803951 238.063687 
Q 551.803951 236.063687 549.803951 236.063687 
L 489.303951 236.063687 
Q 487.303951 236.063687 487.303951 238.063687 
L 487.303951 247.741812 
Q 487.303951 249.741812 489.303951 249.741812 
z
" style="fill: #ffffff; opacity: 0.8; stroke: #999999; stroke-linejoin: miter"/>
    </g>
    <!-- Area $= 5.25$ -->
    <g style="fill: #262626" transform="translate(489.303951 245.662125) scale(0.1 -0.1)">
     <defs>
      <path id="DejaVuSans-41" d="M 2188 4044 
L 1331 1722 
L 3047 1722 
L 2188 4044 
z
M 1831 4666 
L 2547 4666 
L 4325 0 
L 3669 0 
L 3244 1197 
L 1141 1197 
L 716 0 
L 50 0 
L 1831 4666 
z
" transform="scale(0.015625)"/>
      <path id="DejaVuSans-65" d="M 3597 1894 
L 3597 1613 
L 953 1613 
Q 991 1019 1311 708 
Q 1631 397 2203 397 
Q 2534 397 2845 478 
Q 3156 559 3463 722 
L 3463 178 
Q 3153 47 2828 -22 
Q 2503 -91 2169 -91 
Q 1331 -91 842 396 
Q 353 884 353 1716 
Q 353 2575 817 3079 
Q 1281 3584 2069 3584 
Q 2775 3584 3186 3129 
Q 3597 2675 3597 1894 
z
M 3022 2063 
Q 3016 2534 2758 2815 
Q 2500 3097 2075 3097 
Q 1594 3097 1305 2825 
Q 1016 2553 972 2059 
L 3022 2063 
z
" transform="scale(0.015625)"/>
     </defs>
     <use xlink:href="#DejaVuSans-41" transform="translate(0 0.78125)"/>
     <use xlink:href="#DejaVuSans-72" transform="translate(68.408203 0.78125)"/>
     <use xlink:href="#DejaVuSans-65" transform="translate(109.521484 0.78125)"/>
     <use xlink:href="#DejaVuSans-61" transform="translate(171.044922 0.78125)"/>
     <use xlink:href="#DejaVuSans-20" transform="translate(232.324219 0.78125)"/>
     <use xlink:href="#DejaVuSans-3d" transform="translate(283.59375 0.78125)"/>
     <use xlink:href="#DejaVuSans-35" transform="translate(386.865234 0.78125)"/>
     <use xlink:href="#DejaVuSans-2e" transform="translate(450.488281 0.78125)"/>
     <use xlink:href="#DejaVuSans-32" transform="translate(476.775391 0.78125)"/>
     <use xlink:href="#DejaVuSans-35" transform="translate(540.398438 0.78125)"/>
    </g>
   </g>
   <g id="text_37">
    <g id="patch_18">
     <path d="M 443.328129 169.64825 
L 551.728129 169.64825 
Q 555.728129 169.64825 555.728129 165.64825 
L 555.728129 137.210437 
Q 555.728129 133.210437 551.728129 133.210437 
L 443.328129 133.210437 
Q 439.328129 133.210437 439.328129 137.210437 
L 439.328129 165.64825 
Q 439.328129 169.64825 443.328129 169.64825 
z
" style="fill: #ccffcc; opacity: 0.95; stroke: #999999; stroke-linejoin: miter"/>
    </g>
    <!-- FTC Part 2: -->
    <g style="fill: #262626" transform="translate(443.328129 141.588562) scale(0.1 -0.1)">
     <use xlink:href="#DejaVuSans-46"/>
     <use xlink:href="#DejaVuSans-54" transform="translate(55.769531 0)"/>
     <use xlink:href="#DejaVuSans-43" transform="translate(110.978516 0)"/>
     <use xlink:href="#DejaVuSans-20" transform="translate(180.802734 0)"/>
     <use xlink:href="#DejaVuSans-50" transform="translate(212.589844 0)"/>
     <use xlink:href="#DejaVuSans-61" transform="translate(268.392578 0)"/>
     <use xlink:href="#DejaVuSans-72" transform="translate(329.671875 0)"/>
     <use xlink:href="#DejaVuSans-74" transform="translate(370.785156 0)"/>
     <use xlink:href="#DejaVuSans-20" transform="translate(409.994141 0)"/>
     <use xlink:href="#DejaVuSans-32" transform="translate(441.78125 0)"/>
     <use xlink:href="#DejaVuSans-3a" transform="translate(505.404297 0)"/>
    </g>
    <!-- $\int_a^b f(x)\,dx = F(b) - F(a)$ -->
    <g style="fill: #262626" transform="translate(443.328129 160.34825) scale(0.1 -0.1)">
     <defs>
      <path id="DejaVuSans-2212" d="M 678 2272 
L 4684 2272 
L 4684 1741 
L 678 1741 
L 678 2272 
z
" transform="scale(0.015625)"/>
     </defs>
     <use xlink:href="#DejaVuSansDisplay-222b" transform="translate(0 0.654688)"/>
     <use xlink:href="#DejaVuSans-Oblique-62" transform="translate(86.744141 85.810937) scale(0.7)"/>
     <use xlink:href="#DejaVuSans-Oblique-61" transform="translate(71.759766 -51.251563) scale(0.7)"/>
     <use xlink:href="#DejaVuSans-Oblique-66" transform="translate(131.177734 0.654688)"/>
     <use xlink:href="#DejaVuSans-28" transform="translate(166.382812 0.654688)"/>
     <use xlink:href="#DejaVuSans-Oblique-78" transform="translate(205.396484 0.654688)"/>
     <use xlink:href="#DejaVuSans-29" transform="translate(264.576172 0.654688)"/>
     <use xlink:href="#DejaVuSans-Oblique-64" transform="translate(319.82552 0.654688)"/>
     <use xlink:href="#DejaVuSans-Oblique-78" transform="translate(383.302083 0.654688)"/>
     <use xlink:href="#DejaVuSans-3d" transform="translate(461.964192 0.654688)"/>
     <use xlink:href="#DejaVuSans-Oblique-46" transform="translate(565.235676 0.654688)"/>
     <use xlink:href="#DejaVuSans-28" transform="translate(622.755208 0.654688)"/>
     <use xlink:href="#DejaVuSans-Oblique-62" transform="translate(661.768879 0.654688)"/>
     <use xlink:href="#DejaVuSans-29" transform="translate(725.245442 0.654688)"/>
     <use xlink:href="#DejaVuSans-2212" transform="translate(783.741536 0.654688)"/>
     <use xlink:href="#DejaVuSans-Oblique-46" transform="translate(887.01302 0.654688)"/>
     <use xlink:href="#DejaVuSans-28" transform="translate(944.532551 0.654688)"/>
     <use xlink:href="#DejaVuSans-Oblique-61" transform="translate(983.546223 0.654688)"/>
     <use xlink:href="#DejaVuSans-29" transform="translate(1044.82552 0.654688)"/>
    </g>
   </g>
   <g id="text_38">
    <!-- FTC Part 2: Evaluating Definite Integrals -->
    <g style="fill: #262626" transform="translate(397.789116 16.318125) scale(0.12 -0.12)">
     <defs>
      <path id="DejaVuSans-Bold-32" d="M 1844 884 
L 3897 884 
L 3897 0 
L 506 0 
L 506 884 
L 2209 2388 
Q 2438 2594 2547 2791 
Q 2656 2988 2656 3200 
Q 2656 3528 2436 3728 
Q 2216 3928 1850 3928 
Q 1569 3928 1234 3808 
Q 900 3688 519 3450 
L 519 4475 
Q 925 4609 1322 4679 
Q 1719 4750 2100 4750 
Q 2938 4750 3402 4381 
Q 3866 4013 3866 3353 
Q 3866 2972 3669 2642 
Q 3472 2313 2841 1759 
L 1844 884 
z
" transform="scale(0.015625)"/>
      <path id="DejaVuSans-Bold-45" d="M 588 4666 
L 3834 4666 
L 3834 3756 
L 1791 3756 
L 1791 2888 
L 3713 2888 
L 3713 1978 
L 1791 1978 
L 1791 909 
L 3903 909 
L 3903 0 
L 588 0 
L 588 4666 
z
" transform="scale(0.015625)"/>
      <path id="DejaVuSans-Bold-75" d="M 500 1363 
L 500 3500 
L 1625 3500 
L 1625 3150 
Q 1625 2866 1622 2436 
Q 1619 2006 1619 1863 
Q 1619 1441 1641 1255 
Q 1663 1069 1716 984 
Q 1784 875 1895 815 
Q 2006 756 2150 756 
Q 2500 756 2700 1025 
Q 2900 1294 2900 1772 
L 2900 3500 
L 4019 3500 
L 4019 0 
L 2900 0 
L 2900 506 
Q 2647 200 2364 54 
Q 2081 -91 1741 -91 
Q 1134 -91 817 281 
Q 500 653 500 1363 
z
" transform="scale(0.015625)"/>
      <path id="DejaVuSans-Bold-73" d="M 3272 3391 
L 3272 2541 
Q 2913 2691 2578 2766 
Q 2244 2841 1947 2841 
Q 1628 2841 1473 2761 
Q 1319 2681 1319 2516 
Q 1319 2381 1436 2309 
Q 1553 2238 1856 2203 
L 2053 2175 
Q 2913 2066 3209 1816 
Q 3506 1566 3506 1031 
Q 3506 472 3093 190 
Q 2681 -91 1863 -91 
Q 1516 -91 1145 -36 
Q 775 19 384 128 
L 384 978 
Q 719 816 1070 734 
Q 1422 653 1784 653 
Q 2113 653 2278 743 
Q 2444 834 2444 1013 
Q 2444 1163 2330 1236 
Q 2216 1309 1875 1350 
L 1678 1375 
Q 931 1469 631 1722 
Q 331 1975 331 2491 
Q 331 3047 712 3315 
Q 1094 3584 1881 3584 
Q 2191 3584 2531 3537 
Q 2872 3491 3272 3391 
z
" transform="scale(0.015625)"/>
     </defs>
     <use xlink:href="#DejaVuSans-Bold-46"/>
     <use xlink:href="#DejaVuSans-Bold-54" transform="translate(68.310547 0)"/>
     <use xlink:href="#DejaVuSans-Bold-43" transform="translate(136.523438 0)"/>
     <use xlink:href="#DejaVuSans-Bold-20" transform="translate(209.912109 0)"/>
     <use xlink:href="#DejaVuSans-Bold-50" transform="translate(244.726562 0)"/>
     <use xlink:href="#DejaVuSans-Bold-61" transform="translate(315.392578 0)"/>
     <use xlink:href="#DejaVuSans-Bold-72" transform="translate(382.873047 0)"/>
     <use xlink:href="#DejaVuSans-Bold-74" transform="translate(432.189453 0)"/>
     <use xlink:href="#DejaVuSans-Bold-20" transform="translate(479.992188 0)"/>
     <use xlink:href="#DejaVuSans-Bold-32" transform="translate(514.806641 0)"/>
     <use xlink:href="#DejaVuSans-Bold-3a" transform="translate(584.386719 0)"/>
     <use xlink:href="#DejaVuSans-Bold-20" transform="translate(624.376953 0)"/>
     <use xlink:href="#DejaVuSans-Bold-45" transform="translate(659.191406 0)"/>
     <use xlink:href="#DejaVuSans-Bold-76" transform="translate(727.501953 0)"/>
     <use xlink:href="#DejaVuSans-Bold-61" transform="translate(792.6875 0)"/>
     <use xlink:href="#DejaVuSans-Bold-6c" transform="translate(860.167969 0)"/>
     <use xlink:href="#DejaVuSans-Bold-75" transform="translate(894.445312 0)"/>
     <use xlink:href="#DejaVuSans-Bold-61" transform="translate(965.636719 0)"/>
     <use xlink:href="#DejaVuSans-Bold-74" transform="translate(1033.117188 0)"/>
     <use xlink:href="#DejaVuSans-Bold-69" transform="translate(1080.919922 0)"/>
     <use xlink:href="#DejaVuSans-Bold-6e" transform="translate(1115.197266 0)"/>
     <use xlink:href="#DejaVuSans-Bold-67" transform="translate(1186.388672 0)"/>
     <use xlink:href="#DejaVuSans-Bold-20" transform="translate(1257.970703 0)"/>
     <use xlink:href="#DejaVuSans-Bold-44" transform="translate(1292.785156 0)"/>
     <use xlink:href="#DejaVuSans-Bold-65" transform="translate(1375.792969 0)"/>
     <use xlink:href="#DejaVuSans-Bold-66" transform="translate(1443.615234 0)"/>
     <use xlink:href="#DejaVuSans-Bold-69" transform="translate(1487.121094 0)"/>
     <use xlink:href="#DejaVuSans-Bold-6e" transform="translate(1521.398438 0)"/>
     <use xlink:href="#DejaVuSans-Bold-69" transform="translate(1592.589844 0)"/>
     <use xlink:href="#DejaVuSans-Bold-74" transform="translate(1626.867188 0)"/>
     <use xlink:href="#DejaVuSans-Bold-65" transform="translate(1674.669922 0)"/>
     <use xlink:href="#DejaVuSans-Bold-20" transform="translate(1742.492188 0)"/>
     <use xlink:href="#DejaVuSans-Bold-49" transform="translate(1777.306641 0)"/>
     <use xlink:href="#DejaVuSans-Bold-6e" transform="translate(1814.513672 0)"/>
     <use xlink:href="#DejaVuSans-Bold-74" transform="translate(1885.705078 0)"/>
     <use xlink:href="#DejaVuSans-Bold-65" transform="translate(1933.507812 0)"/>
     <use xlink:href="#DejaVuSans-Bold-67" transform="translate(2001.330078 0)"/>
     <use xlink:href="#DejaVuSans-Bold-72" transform="translate(2072.912109 0)"/>
     <use xlink:href="#DejaVuSans-Bold-61" transform="translate(2122.228516 0)"/>
     <use xlink:href="#DejaVuSans-Bold-6c" transform="translate(2189.708984 0)"/>
     <use xlink:href="#DejaVuSans-Bold-73" transform="translate(2223.986328 0)"/>
    </g>
   </g>
   <g id="legend_2">
    <g id="patch_19">
     <path d="M 407.641669 60.49625 
L 562.841669 60.49625 
Q 564.841669 60.49625 564.841669 58.49625 
L 564.841669 29.318125 
Q 564.841669 27.318125 562.841669 27.318125 
L 407.641669 27.318125 
Q 405.641669 27.318125 405.641669 29.318125 
L 405.641669 58.49625 
Q 405.641669 60.49625 407.641669 60.49625 
z
" style="fill: #ffffff; opacity: 0.9; stroke: #cccccc; stroke-linejoin: miter"/>
    </g>
    <g id="line2d_55">
     <path d="M 409.641669 35.416562 
L 419.641669 35.416562 
L 429.641669 35.416562 
" style="fill: none; stroke: #0000ff; stroke-width: 2.5; stroke-linecap: square"/>
    </g>
    <g id="text_39">
     <!-- $f(x) = 2x$ -->
     <g style="fill: #262626" transform="translate(437.641669 38.916562) scale(0.1 -0.1)">
      <use xlink:href="#DejaVuSans-Oblique-66" transform="translate(0 0.015625)"/>
      <use xlink:href="#DejaVuSans-28" transform="translate(35.205078 0.015625)"/>
      <use xlink:href="#DejaVuSans-Oblique-78" transform="translate(74.21875 0.015625)"/>
      <use xlink:href="#DejaVuSans-29" transform="translate(133.398438 0.015625)"/>
      <use xlink:href="#DejaVuSans-3d" transform="translate(191.894531 0.015625)"/>
      <use xlink:href="#DejaVuSans-32" transform="translate(295.166016 0.015625)"/>
      <use xlink:href="#DejaVuSans-Oblique-78" transform="translate(358.789062 0.015625)"/>
     </g>
    </g>
    <g id="line2d_56">
     <path d="M 409.641669 50.916562 
L 419.641669 50.916562 
L 429.641669 50.916562 
" style="fill: none; stroke: #ff0000; stroke-width: 2.5; stroke-linecap: square"/>
    </g>
    <g id="text_40">
     <!-- $F(x) = x^2$ (antiderivative) -->
     <g style="fill: #262626" transform="translate(437.641669 54.416562) scale(0.1 -0.1)">
      <defs>
       <path id="DejaVuSans-6e" d="M 3513 2113 
L 3513 0 
L 2938 0 
L 2938 2094 
Q 2938 2591 2744 2837 
Q 2550 3084 2163 3084 
Q 1697 3084 1428 2787 
Q 1159 2491 1159 1978 
L 1159 0 
L 581 0 
L 581 3500 
L 1159 3500 
L 1159 2956 
Q 1366 3272 1645 3428 
Q 1925 3584 2291 3584 
Q 2894 3584 3203 3211 
Q 3513 2838 3513 2113 
z
" transform="scale(0.015625)"/>
       <path id="DejaVuSans-69" d="M 603 3500 
L 1178 3500 
L 1178 0 
L 603 0 
L 603 3500 
z
M 603 4863 
L 1178 4863 
L 1178 4134 
L 603 4134 
L 603 4863 
z
" transform="scale(0.015625)"/>
       <path id="DejaVuSans-64" d="M 2906 2969 
L 2906 4863 
L 3481 4863 
L 3481 0 
L 2906 0 
L 2906 525 
Q 2725 213 2448 61 
Q 2172 -91 1784 -91 
Q 1150 -91 751 415 
Q 353 922 353 1747 
Q 353 2572 751 3078 
Q 1150 3584 1784 3584 
Q 2172 3584 2448 3432 
Q 2725 3281 2906 2969 
z
M 947 1747 
Q 947 1113 1208 752 
Q 1469 391 1925 391 
Q 2381 391 2643 752 
Q 2906 1113 2906 1747 
Q 2906 2381 2643 2742 
Q 2381 3103 1925 3103 
Q 1469 3103 1208 2742 
Q 947 2381 947 1747 
z
" transform="scale(0.015625)"/>
       <path id="DejaVuSans-76" d="M 191 3500 
L 800 3500 
L 1894 563 
L 2988 3500 
L 3597 3500 
L 2284 0 
L 1503 0 
L 191 3500 
z
" transform="scale(0.015625)"/>
      </defs>
      <use xlink:href="#DejaVuSans-Oblique-46" transform="translate(0 0.765625)"/>
      <use xlink:href="#DejaVuSans-28" transform="translate(57.519531 0.765625)"/>
      <use xlink:href="#DejaVuSans-Oblique-78" transform="translate(96.533203 0.765625)"/>
      <use xlink:href="#DejaVuSans-29" transform="translate(155.712891 0.765625)"/>
      <use xlink:href="#DejaVuSans-3d" transform="translate(214.208984 0.765625)"/>
      <use xlink:href="#DejaVuSans-Oblique-78" transform="translate(317.480469 0.765625)"/>
      <use xlink:href="#DejaVuSans-32" transform="translate(381.126302 39.046875) scale(0.7)"/>
      <use xlink:href="#DejaVuSans-20" transform="translate(428.39681 0.765625)"/>
      <use xlink:href="#DejaVuSans-28" transform="translate(460.183919 0.765625)"/>
      <use xlink:href="#DejaVuSans-61" transform="translate(499.197591 0.765625)"/>
      <use xlink:href="#DejaVuSans-6e" transform="translate(560.476888 0.765625)"/>
      <use xlink:href="#DejaVuSans-74" transform="translate(623.855794 0.765625)"/>
      <use xlink:href="#DejaVuSans-69" transform="translate(663.064779 0.765625)"/>
      <use xlink:href="#DejaVuSans-64" transform="translate(690.847982 0.765625)"/>
      <use xlink:href="#DejaVuSans-65" transform="translate(754.324544 0.765625)"/>
      <use xlink:href="#DejaVuSans-72" transform="translate(815.847982 0.765625)"/>
      <use xlink:href="#DejaVuSans-69" transform="translate(856.961263 0.765625)"/>
      <use xlink:href="#DejaVuSans-76" transform="translate(884.744466 0.765625)"/>
      <use xlink:href="#DejaVuSans-61" transform="translate(943.924154 0.765625)"/>
      <use xlink:href="#DejaVuSans-74" transform="translate(1005.203451 0.765625)"/>
      <use xlink:href="#DejaVuSans-69" transform="translate(1044.412435 0.765625)"/>
      <use xlink:href="#DejaVuSans-76" transform="translate(1072.195638 0.765625)"/>
      <use xlink:href="#DejaVuSans-65" transform="translate(1131.375326 0.765625)"/>
      <use xlink:href="#DejaVuSans-29" transform="translate(1192.898763 0.765625)"/>
     </g>
    </g>
   </g>
  </g>
 </g>
 <defs>
  <clipPath id="p93e8aa9d5b">
   <rect x="38.416563" y="22.318125" width="268.314894" height="260.568"/>
  </clipPath>
  <clipPath id="pee0dca1fe9">
   <rect x="400.641669" y="22.318125" width="268.314894" height="260.568"/>
  </clipPath>
 </defs>
</svg>
